<?xml version="1.0" encoding="UTF-8" standalone="no"?>
<!-- Created with Inkscape (http://www.inkscape.org/) -->

<svg
   xmlns:dc="http://purl.org/dc/elements/1.1/"
   xmlns:cc="http://creativecommons.org/ns#"
   xmlns:rdf="http://www.w3.org/1999/02/22-rdf-syntax-ns#"
   xmlns:svg="http://www.w3.org/2000/svg"
   xmlns="http://www.w3.org/2000/svg"
   xmlns:sodipodi="http://sodipodi.sourceforge.net/DTD/sodipodi-0.dtd"
   xmlns:inkscape="http://www.inkscape.org/namespaces/inkscape"
   width="210mm"
   height="297mm"
   viewBox="0 0 744.09448819 1052.3622047"
   id="svg4143"
   version="1.1"
   inkscape:version="0.91 r13725"
   sodipodi:docname="A.svg">
  <defs
     id="defs4145" />
  <sodipodi:namedview
     id="base"
     pagecolor="#ffffff"
     bordercolor="#666666"
     borderopacity="1.0"
     inkscape:pageopacity="0.0"
     inkscape:pageshadow="2"
     inkscape:zoom="0.35"
     inkscape:cx="-145"
     inkscape:cy="520"
     inkscape:document-units="px"
     inkscape:current-layer="layer1"
     showgrid="false"
     inkscape:window-width="1920"
     inkscape:window-height="1055"
     inkscape:window-x="0"
     inkscape:window-y="25"
     inkscape:window-maximized="1" />
  <metadata
     id="metadata4148">
    <rdf:RDF>
      <cc:Work
         rdf:about="">
        <dc:format>image/svg+xml</dc:format>
        <dc:type
           rdf:resource="http://purl.org/dc/dcmitype/StillImage" />
        <dc:title></dc:title>
      </cc:Work>
    </rdf:RDF>
  </metadata>
  <g
     inkscape:label="Layer 1"
     inkscape:groupmode="layer"
     id="layer1">
    <path
       inkscape:connector-curvature="0"
       style="fill:#000000"
       d="m 314.22796,50.882294 -1.9375,1.939453 -1.9375,1.9375 0.10547,10.425782 0.10547,10.427732 -1.37109,3.75 c -0.7541,2.0625 -4.14365,9.54764 -7.53125,16.63477 -3.3877,7.087139 -7.85654,18.037209 -9.93164,24.333979 -2.0751,6.29676 -4.31221,12.45511 -4.97071,13.68555 -0.6585,1.23045 -3.08583,7.43661 -5.39453,13.79101 -7.2349,19.91364 -9.12006,24.44515 -11.66406,28.05079 -3.699,5.2427 -24.4612,49.66318 -30.4043,65.04882 -2.8582,7.3994 -5.68941,14.58008 -6.29101,15.95508 -0.6015,1.375 -2.18202,5.59375 -3.51172,9.375 -1.3297,3.78125 -4.18746,11.375 -6.35156,16.875 -3.6212,9.20283 -11.11279,30.78962 -15.40039,44.375 -0.9764,3.09375 -3.05354,8.71875 -4.61524,12.5 -3.3322,8.06781 -7.0612,17.78808 -12.4668,32.5 -2.1471,5.84375 -5.09679,12.875 -6.55469,15.625 -5.1025,9.62452 -5.94556,11.33775 -11.38476,23.125 -3.0138,6.53125 -6.95973,15.02155 -8.76953,18.86914 l -3.29102,6.9961 -0.0977,4.8789 -0.0977,4.88086 -3.57031,5.625 c -4.7355,7.46195 -9.887,18.11461 -11.9668,24.74805 -2.053,6.54804 -5.76572,12.14804 -11.35742,17.12695 l -4.21094,3.75 2.58594,4.19141 2.58594,4.19336 2.75195,-0.83594 c 1.5136,-0.45906 5.13442,-1.15104 8.04492,-1.53906 l 5.29102,-0.70508 4.08398,1.66797 c 3.7809,1.54614 17.50627,10.87765 35.13477,23.88672 4.0163,2.96386 9.03987,6.66795 11.16406,8.23047 l 3.86328,2.84179 1.33594,-0.43554 c 2.1187,-0.69036 10.57073,-12.12991 14.23633,-19.26758 6.1763,-12.02635 19.25195,-34.24522 22.25195,-37.81055 l 2.9707,-3.5293 0,-2.55859 0,-2.55859 1.33985,-0.82813 1.33984,-0.82812 14.42383,-0.26758 14.42578,-0.26758 1.64649,1.64844 1.64648,1.64648 9.39258,0 9.39258,0 4.52929,-2.67383 4.53125,-2.67187 4.73633,1.5625 4.73828,1.56445 2.63282,-0.83594 2.63086,-0.83398 2.70507,1.44727 2.70703,1.44921 0.7793,-1.12695 c 0.4282,-0.61961 3.4088,-2.64628 6.625,-4.50391 l 5.84766,-3.37695 2.67187,0 c 1.4696,0 3.72557,-0.56455 5.01367,-1.2539 l 2.34375,-1.25391 0.82227,1.33008 c 0.4522,0.73177 2.17232,1.84458 3.82422,2.47265 l 3.0039,1.14258 0.13868,2.21875 c 0.0765,1.22014 0.0545,3.34622 -0.0488,4.72461 l -0.1875,2.50586 1.61133,2.02149 1.61132,2.02148 14.82813,-0.77734 14.82617,-0.77735 2.44531,3.4375 2.44727,3.4375 2.38281,0 2.38477,0 -1.18946,3.125 -1.1875,3.125 1.1504,3.02539 1.15039,3.02539 2.56836,-0.67187 2.56835,-0.67188 0,1.39649 c 0,0.76769 -0.58804,1.39648 -1.30664,1.39648 l -1.30664,0 0.8125,4.32227 c 1.2398,6.60874 3.4094,12.03147 7.1211,17.79687 1.8569,2.88426 4.09034,7.54547 4.96484,10.35938 l 1.58984,5.11719 3.125,3.1289 c 1.71871,1.72133 4.8125,4.51748 6.875,6.21289 l 3.75,3.08203 4.19727,-0.71679 c 5.9573,-1.01765 12.88802,-4.36031 17.35742,-8.3711 l 2.19531,-1.9707 4.75977,-0.88281 4.75781,-0.88477 1.79297,-2.73437 1.79297,-2.73633 5.32422,-2.96485 c 2.928,-1.63088 7.05081,-4.83285 9.16211,-7.11328 l 3.83789,-4.14453 2.06055,0 c 2.7371,0 12.13673,-4.94648 12.13671,-6.38672 10e-6,-0.62374 -1.41443,-7.12501 -3.14453,-14.44726 l -3.14648,-13.31446 -2.31836,-3.86328 c -1.2756,-2.12523 -3.30281,-7.06605 -4.50391,-10.98047 l -2.18359,-7.11718 -3.91406,-1.38868 -3.91407,-1.38867 2.1875,-1.63281 c 2.7317,-2.03848 2.79868,-3.98028 0.17188,-4.98828 l -2.01562,-0.77344 1.33789,-1.61133 1.33984,-1.61328 -0.67773,-3.06054 c -0.37241,-1.68298 -1.28691,-4.32423 -2.03321,-5.8711 l -1.35742,-2.8125 -4.16406,0 -4.16407,0 0,-1.25 0,-1.25 2.36524,0 2.36523,0 0.7168,-2.86133 0.71875,-2.85937 -1.78127,-5.91797 c -0.9795,-3.25465 -2.64743,-7.15527 -3.70703,-8.66797 -1.0595,-1.5127 -1.93555,-3.61001 -1.93555,-4.66015 -0.004,-1.05017 -0.76074,-3.35261 -1.68164,-5.11719 -2.464,-4.72173 -3.6419,-9.77746 -3.8789,-16.65235 l -0.20899,-6.10937 -2.64062,-2.13867 -2.63868,-2.13672 -2.0371,-4.87696 c -1.12061,-2.68263 -3.46092,-6.36286 -5.19922,-8.17773 l -3.16016,-3.29883 0.39844,-2.34765 0.39648,-2.34766 -1.77148,-5.60352 c -0.974,-3.08142 -2.27945,-6.28011 -2.90235,-7.10937 l -1.13281,-1.50781 0.7168,-1.16016 0.7168,-1.16016 -2.41797,-7.33007 -2.41993,-7.33008 -2.56836,-2.08008 -2.56835,-2.08008 0.71484,-1.86328 0.7168,-1.86328 -2.61329,-5.12109 -2.61328,-5.1211 -1.84961,0 -1.84961,0 0,-1.625 c 0,-0.89375 0.51363,-2.15938 1.14063,-2.8125 l 1.14063,-1.1875 -3.625,-7.5 c -1.99332,-4.125 -3.62868,-8.08536 -3.63868,-8.79883 -0.009,-0.71347 -1.68229,-3.24472 -3.71679,-5.625 -2.0346,-2.38028 -3.722,-5.04873 -3.75,-5.92968 l -0.0508,-1.60157 -1.79492,-0.6875 -1.79687,-0.68945 0.68164,-1.77734 0.68164,-1.77539 -7.01172,-14.14649 c -3.8558,-7.78056 -7.00977,-15.11703 -7.00977,-16.30273 l 0,-2.15625 -2.8125,-2.89649 c -3.95049,-4.07007 -5.93284,-7.73781 -5.96484,-11.03515 l -0.0273,-2.82813 -2.44532,-3.125 c -1.3444,-1.71875 -2.45765,-3.89116 -2.47265,-4.82617 -0.0152,-0.93502 -1.63622,-4.87252 -3.60352,-8.75 -1.9673,-3.87749 -4.21448,-8.45508 -4.99218,-10.17383 -0.7777,-1.71875 -1.94521,-3.96875 -2.59571,-5 -3.4829,-5.52145 -16.32984,-36.85762 -16.33984,-39.8457 -0.003,-1.11671 -1.2123,-3.99805 -2.6875,-6.4043 -4.7206,-7.70001 -9.80859,-18.00125 -9.8086,-19.85742 0,-0.9898 -1.42878,-4.23776 -3.17578,-7.21875 -1.747,-2.98098 -4.62709,-9.77997 -6.40039,-15.109379 l -3.22461,-9.68945 -0.17382,-13.259764 -0.17383,-13.259765 -1.70313,-2.052735 c -0.9371,-1.12915 -2.44767,-2.052734 -3.35547,-2.052734 -0.9077,0 -3.692,-1.205355 -6.1875,-2.677734 l -4.53711,-2.677735 z m -38.76562,8.896485 -2.13281,1.93164 -2.13282,1.929688 -7.89062,-1.839844 -7.88867,-1.841797 -2.46875,3.138672 -2.46875,3.140625 -4.83594,0 -4.83594,0 -0.54883,0.9375 c -0.3026,0.51563 -0.27348,2.76563 0.0664,5 l 0.61914,4.062498 2.98242,0 2.98242,0 0,1.08008 c 2e-5,0.59478 -1.15039,2.54577 -2.55859,4.33594 l -2.56055,3.25586 -0.64062,7.22656 c -0.7497,8.455039 -3.4603,18.722109 -6.8418,25.916009 l -2.40039,5.10352 -0.4414,7.81641 -0.44336,7.81445 2.90039,-1.90039 c 1.5948,-1.045 3.14757,-1.89844 3.45117,-1.89844 1.1543,0 -0.95911,5.75165 -3.16211,8.60547 -1.2657,1.63958 -2.30273,3.41043 -2.30274,3.93555 2e-5,0.52512 -4.24118,8.1205 -9.42578,16.8789 l -9.42578,15.92383 -3.82812,11.24024 -3.82813,11.23828 -10.55469,20.15234 c -14.2964,27.2967 -20.21591,39.63072 -28.57031,59.52539 l -7.08594,16.875 -1.2207,6.25 c -0.6711,3.4375 -1.46934,13 -1.77344,21.25 -0.3041,8.25 -1.11192,17.69859 -1.79492,20.99805 -1.4415,6.96341 -1.63478,16.31637 -0.36328,17.58789 l 0.8789,0.87891 1.64258,-3.13477 c 0.9034,-1.72421 2.99609,-4.48833 4.65039,-6.14258 l 3.00781,-3.00781 1.50782,-5.46484 c 0.8291,-3.00589 3.45483,-10.65385 5.83593,-16.99414 2.3811,-6.34033 4.13529,-12.11367 3.89649,-12.83008 l -0.43555,-1.30274 -4.74414,3.91211 -4.74609,3.91211 -0.82032,-0.82031 -0.82031,-0.81836 2.21875,-3.38672 c 1.2195,-1.86284 4.92829,-9.01172 8.24219,-15.88672 9.1974,-19.08083 20.63275,-42.20753 22.25195,-45 0.7973,-1.375 4.76607,-9.25 8.81837,-17.5 l 7.36718,-15 0.88477,-11.04492 0.88281,-11.04492 6.80078,-13.57422 c 3.7406,-7.4656 6.80274,-14.18618 6.80274,-14.93555 0,-0.74935 2.4761,-7.67015 5.5039,-15.38086 3.0279,-7.71072 6.74562,-17.95703 8.26172,-22.76953 1.5161,-4.8125 4.24124,-11.79904 6.05664,-15.52539 l 3.30274,-6.77539 7.1875,-7.9375 7.1875,-7.937499 0,-2.66992 0,-2.66992 3.125,-4.09571 c 1.7187,-2.2534 3.125,-4.73443 3.125,-5.51367 0,-0.77924 1.4062,-3.26222 3.125,-5.51562 l 3.125,-4.09571 0,-5.27734 0,-5.277344 -1.34961,-2.521484 -1.34961,-2.521484 z m 79.21484,1.458984 -0.75781,1.976562 c -0.4173,1.08747 -0.75976,2.49372 -0.75977,3.125 l 0,1.148438 1.74219,0 1.74219,0 0.75781,-1.978516 c 0.4173,-1.08747 0.75781,-2.49372 0.75781,-3.125 l 0,-1.146484 -1.74023,0 -1.74219,0 z m 25.9043,3.75 -0.75391,1.966797 -0.75586,1.96875 1.54102,5.218751 c 0.8471,2.87076 2.06047,6.06445 2.69727,7.0957 0.6369,1.03125 2.32485,3.70313 3.75195,5.9375 1.4271,2.23438 3.08233,4.0625 3.67773,4.0625 0.5954,0 1.74805,-1.26562 2.56055,-2.8125 0.8125,-1.54687 3.08127,-4.66162 5.04297,-6.91992 l 3.5664,-4.10547 -0.0176,-2.76953 c -0.0106,-1.522947 -0.48634,-3.505057 -1.05664,-4.404297 l -1.03711,-1.634765 -3.06055,0.769531 -3.0625,0.767578 -2.32617,-2.570313 -2.32617,-2.570312 -4.22071,0 -4.2207,0 z m -189.29688,0.326172 -1.25,1.507812 c -0.6875,0.82894 -2.49618,2.171945 -4.02148,2.984375 l -2.77344,1.476563 -3.44141,5.914066 c -4.4116,7.58256 -8.67679,14.17009 -10.68359,16.50195 -0.8691,1.00982 -2.48575,3.82232 -3.59375,6.25 l -2.01367,4.414059 -5.88086,6.25 -5.88086,6.25 -2.29492,6.875 -2.29493,6.875 1.19727,6.25 c 0.6589,3.4375 1.60391,8.78125 2.09961,11.875 l 0.90234,5.625 -1.04883,5.19922 -1.05078,5.19922 1.43946,6.67578 1.43945,6.67578 0.20117,11.36914 0.19922,11.36914 1.71094,2.06055 1.70898,2.06055 -0.60351,3.16211 -0.60547,3.16211 1.08203,0.66992 c 0.5953,0.36792 1.08203,1.4923 1.08203,2.5 l 0,1.83203 -3.25977,1.24023 -3.26171,1.24024 1.21093,1.54101 c 0.6655,0.84799 1.57273,3.45041 2.01563,5.78321 l 0.80469,4.24218 -1.4375,1.73243 -1.43946,1.73242 1.40821,3.08984 c 0.7739,1.6984 1.88575,3.08789 2.47265,3.08789 l 1.06836,0 -0.57031,6.875 -0.57031,6.875 1.20507,0 c 1.3408,0 4.10352,-5.42961 4.10352,-8.0625 l 0,-1.69336 3.62891,-1.26562 3.62695,-1.26367 0.86523,-3.94141 0.86524,-3.94141 -2.07227,-2.29101 -2.07422,-2.29102 3.53125,-3.61328 3.53125,-3.61133 3.6875,-8.70117 c 2.028,-4.78536 4.97463,-10.60718 6.54883,-12.9375 1.5741,-2.33031 2.86133,-4.91635 2.86133,-5.74805 0,-0.83171 1.92665,-5.1431 4.28125,-9.58007 l 4.28125,-8.06641 0.51953,-8.37109 0.51953,-8.3711 -1.05078,0 c -0.5779,0 -1.05078,0.4271 -1.05078,0.94922 0,0.52213 -1.06137,1.61126 -2.35937,2.42188 l -2.35938,1.47461 -0.11719,-8.36133 -0.11718,-8.35938 1.39257,-6.10742 1.39258,-6.10742 6.20313,-12.61914 c 3.4123,-6.93973 7.1967,-14.03508 8.4082,-15.76758 1.2114,-1.73251 2.48202,-4.67901 2.82422,-6.54883 l 0.62305,-3.400389 -1.09375,0.67578 c -0.6013,0.3716 -2.56819,3.589669 -4.37109,7.150389 -1.803,3.56073 -6.35369,11.81836 -10.11329,18.34961 l -6.83594,11.875 -5.39258,6.33594 c -2.9653,3.4854 -6.99563,9.06795 -8.95703,12.40625 l -3.5664,6.07031 -1.72266,0.57422 -1.7207,0.57422 0.73633,-7.14063 0.73632,-7.14062 2.11524,-3.22656 c 1.1628,-1.7747 2.80338,-6.19335 3.64648,-9.82032 l 1.53321,-6.59375 7.37109,-10.28711 c 4.0539,-5.65774 10.87254,-14.12055 15.15234,-18.804679 l 7.78126,-8.51563 0.80859,-3.22265 0.8086,-3.22071 -0.70118,-4.31836 -0.70117,-4.32031 -2.65039,-3.720702 -2.64844,-3.720703 -3.99024,-1.103516 -3.99023,-1.103515 z m 31.58399,3.423828 0.58789,3.072266 0.58789,3.074222 -4.8125,7.23828 c -2.647,3.98135 -4.81641,7.77194 -4.81641,8.42187 -0.002,0.64992 3.36914,-2.32201 7.49414,-6.60351 l 7.5,-7.78516 0,-2.208984 c 0,-2.65942 -2.33413,-5.208984 -4.76953,-5.208984 l -1.77148,0 z m 190.29101,0 0,1.25 0,1.25 1.76563,0 1.76563,0 0.84374,4.999998 c 0.46461,2.75 1.06243,5 1.32813,5 1.0446,0 4.29687,-7.523631 4.29687,-9.939451 l 0,-2.560547 -5,0 -5,0 z m -257.71484,28.124998 -2.38477,2.94141 -2.38672,2.943359 0.69336,1.11914 c 0.3806,0.61589 1.49115,1.12109 2.46875,1.12109 l 1.77735,0 0.79882,-3.18359 0.79883,-3.183599 -0.88281,-0.8789 -0.88281,-0.87891 z m 43.96484,51.726559 -1.25,0.77344 c -0.6875,0.4249 -1.25,1.33399 -1.25,2.02149 l 0,1.25 1.25,-0.77149 c 0.6875,-0.4249 1.25002,-1.33594 1.25,-2.02344 l 0,-1.25 z m -14.08984,19.45118 c 0.0421,0.002 0.0773,0.0148 0.10351,0.041 0.3622,0.36227 0.0563,1.92487 -0.67773,3.4707 -0.7341,1.54587 -3.21799,7.55512 -5.52149,13.35547 l -4.18945,10.54688 -3.89648,4.14062 c -2.1437,2.27777 -4.3937,4.08694 -5,4.01953 -0.6063,-0.0674 -2.39737,-0.83753 -3.98047,-1.71093 l -2.87891,-1.58789 5.51953,-5.51953 c 3.0352,-3.03523 6.50589,-7.46823 7.71289,-9.85157 2.80289,-5.5345 11.50484,-16.95825 12.8086,-16.90429 z m 240.8711,8.59765 c -0.0521,-0.012 -0.0996,0.002 -0.14258,0.0449 -0.3438,0.34375 -0.23827,2.39387 0.23632,4.55469 0.47461,2.16083 1.14449,3.64649 1.48829,3.30274 0.3437,-0.34375 0.23632,-2.39191 -0.23829,-4.55274 -0.41527,-1.89072 -0.97884,-3.26579 -1.34374,-3.34961 z m -102.94336,99.59961 3.5957,0 3.5957,0 3.0332,3.60352 3.03126,3.60351 1.6621,6.08399 1.66016,6.08398 4.16797,4.68945 4.16601,4.69141 0.10547,2.18359 c 0.287,6.01736 2.66787,17.02458 4.44727,20.56055 0.9343,1.85649 1.69727,4.86295 1.69726,6.68164 l 0,3.30664 1.72071,3.31836 c 3.2243,6.22049 6.98295,14.74283 8.91015,20.20508 1.8456,5.23097 2.77384,6.56723 9.05664,13.01367 l 2.8125,2.88477 0,1.95508 0,1.95312 -3.4375,2.7207 -3.4375,2.72266 -6.875,-0.90234 c -3.78129,-0.49608 -8.28129,-0.84966 -10,-0.78516 -1.71879,0.0645 -6.21879,0.15813 -10,0.20703 -9.67079,0.125 -9.89724,0.13155 -17.05664,0.54102 -3.5378,0.20233 -6.9128,0.64731 -7.5,0.98828 -0.5872,0.34095 -3.74023,1.007 -7.00586,1.48047 l -5.9375,0.86133 0,1.05078 c 2e-5,0.57811 -1.77044,1.66909 -3.93554,2.42382 -2.1651,0.75478 -4.1339,1.37305 -4.375,1.37305 -0.2412,0 -0.43945,-0.81998 -0.43946,-1.82226 l 0,-1.82227 -5.9375,-3.48242 -5.9375,-3.48047 -1.5625,0.35742 -1.5625,0.35938 0,-1.62891 0,-1.63086 -2.5664,-1.60156 -2.56836,-1.60352 0.80859,-2.75976 c 1.2508,-4.27301 5.56803,-12.48871 8.01953,-15.25977 2.5414,-2.87267 3.66337,-6.20695 5.04297,-15 1.0118,-6.44952 6.24325,-21.86019 8.37305,-24.66406 1.096,-1.44295 3.66549,-8.38401 10.65039,-28.77344 l 2.46289,-7.1875 1.28711,0 c 0.7079,0 3.20754,-1.6875 5.55664,-3.75 l 4.27149,-3.75 z m 58.49804,145.12891 4.76953,0.73828 4.76953,0.73828 5.11133,2.94727 c 2.8104,1.62087 6.1854,3.01751 7.5,3.10351 l 2.38867,0.15625 -5,1.01367 c -2.75,0.55747 -6.41147,1.36998 -8.13867,1.80664 l -3.14062,0.79493 -0.91211,-0.91211 -0.91016,-0.91211 1.43555,-1.73047 1.43555,-1.73047 -1.13477,-1.08984 c -0.624,-0.60014 -2.49526,-1.27968 -4.16016,-1.50977 l -3.02734,-0.41797 -0.49414,-1.49805 -0.49219,-1.49804 z m -28.58594,5.70312 0.83399,0.83399 0.83398,0.83398 -0.83398,0.83203 -0.83399,0.83399 0,-1.66602 0,-1.66797 z m -13.72656,2.90821 c 0.25889,-0.0127 0.56632,0.0494 0.91797,0.1914 l 1.0957,0.44336 -0.79687,3.125 -0.79883,3.125 -0.95898,-2.9082 c -0.81258,-2.46121 -0.58082,-3.92139 0.54101,-3.97656 z m 19.97656,14.86132 1.25,0.77344 c 0.6875,0.4249 1.25,1.0191 1.25,1.32227 0,0.30318 -0.5625,0.55273 -1.25,0.55273 -0.6875,0 -1.25,-0.59615 -1.25,-1.32422 l 0,-1.32422 z m 58.75,1.03125 0,1.35938 c 0,1.72754 -2.40998,3.28765 -5.625,3.64062 -1.375,0.15096 -4.1875,0.56303 -6.25,0.91602 l -3.75,0.64062 -3.02343,-1.25781 -3.02539,-1.25781 1.20703,-1.20703 1.20703,-1.20703 9.63086,-0.8125 9.6289,-0.81446 z m 16.35938,12.55664 0.84766,0.84766 0.8457,0.84766 -1.83789,1.16406 c -2.4197,1.53031 -3.71483,1.49974 -3.71485,-0.0879 0,-0.70909 0.86879,-1.62415 1.92969,-2.03125 l 1.92969,-0.74024 z m 48.46875,59.01954 0.73242,1.18359 0.73047,1.18359 -1.18359,0.73243 -1.1836,0.73046 -0.73242,-1.18359 -0.73047,-1.18359 1.1836,-0.73243 1.18359,-0.73046 z m -272.32813,22.33203 0,2.70898 0,2.70703 1.5625,-0.51953 1.5625,-0.52148 0,-1.66602 0,-1.66797 -1.5625,-0.51953 -1.5625,-0.52148 z m 51.33985,3.95898 -1.29492,2.41797 c -0.7117,1.32979 -1.29493,2.80454 -1.29493,3.27734 0,1.28569 5.41321,-2.55606 5.97461,-4.24023 l 0.48438,-1.45508 -1.93555,0 -1.93359,0 z m -65.08985,14.85156 0,1.32422 c 0,0.72808 0.5625,1.32227 1.25,1.32227 0.6875,0 1.25002,-0.24761 1.25,-0.55078 3e-5,-0.30318 -0.5625,-0.89932 -1.25,-1.32422 l -1.25,-0.77149 z m 319.375,0.33008 -7.03124,5.41211 -7.03126,5.41406 -6.09374,-0.2539 -6.09376,-0.25196 -2.5,1.29102 -2.5,1.29102 5,0.78711 c 2.75,0.43279 9.5,0.64897 15,0.48046 l 10,-0.30664 3.51758,-1.39648 3.51758,-1.39844 -0.39258,-3.91992 -0.39258,-3.92187 -2.5,-1.61329 -2.5,-1.61328 z m -265.625,32.31836 0,2.36719 0,2.36914 -5.3125,0.53711 -5.3125,0.53711 -2.8125,-1.79883 -2.8125,-1.80078 0,2.49219 0,2.49023 1.5625,1.20899 1.5625,1.20898 10.58985,0.26172 c 5.8236,0.14401 10.82493,0.49873 11.11523,0.78906 0.2904,0.29033 6.07321,0.37329 12.84961,0.1836 l 12.32031,-0.34571 1.5,-1.5 c 0.82521,-0.82525 1.24692,-1.52975 0.9375,-1.56445 -0.30939,-0.0348 -7.23944,-0.30029 -15.40234,-0.58984 -8.1629,-0.28955 -15.84095,-0.84339 -17.06055,-1.23047 l -2.21679,-0.70313 0.64258,-2.45703 0.64257,-2.45508 -1.39648,0 -1.39649,0 z m -76.14453,2.74219 -1.53516,1.84961 -1.5332,1.84765 1.79492,1.13672 0,-0.002 c 2.1047,1.3319 3.41816,1.34228 6.72266,0.0488 l 2.42773,-0.95117 -3.93945,-1.96485 -3.9375,-1.96484 z m 138.01953,4.91797 -11.56054,0.23242 -11.5625,0.23242 0,0.83203 c -4e-4,0.45832 0.62201,1.04132 1.38281,1.29492 0.7608,0.25361 4.89385,0.56422 9.18555,0.69141 l 7.80273,0.23242 2.37695,-1.75781 2.375,-1.75781 z"
       id="path13898" />
  </g>
</svg>
