<?xml version="1.0" encoding="UTF-8" standalone="no"?>
<!-- Created with Inkscape (http://www.inkscape.org/) -->

<svg
   xmlns:dc="http://purl.org/dc/elements/1.1/"
   xmlns:cc="http://creativecommons.org/ns#"
   xmlns:rdf="http://www.w3.org/1999/02/22-rdf-syntax-ns#"
   xmlns:svg="http://www.w3.org/2000/svg"
   xmlns="http://www.w3.org/2000/svg"
   xmlns:sodipodi="http://sodipodi.sourceforge.net/DTD/sodipodi-0.dtd"
   xmlns:inkscape="http://www.inkscape.org/namespaces/inkscape"
   width="210mm"
   height="297mm"
   viewBox="0 0 744.09448819 1052.3622047"
   id="svg4143"
   version="1.1"
   inkscape:version="0.91 r13725"
   sodipodi:docname="B.svg">
  <defs
     id="defs4145" />
  <sodipodi:namedview
     id="base"
     pagecolor="#ffffff"
     bordercolor="#666666"
     borderopacity="1.0"
     inkscape:pageopacity="0.0"
     inkscape:pageshadow="2"
     inkscape:zoom="0.35"
     inkscape:cx="-145"
     inkscape:cy="520"
     inkscape:document-units="px"
     inkscape:current-layer="layer1"
     showgrid="false"
     inkscape:window-width="1920"
     inkscape:window-height="1055"
     inkscape:window-x="0"
     inkscape:window-y="25"
     inkscape:window-maximized="1" />
  <metadata
     id="metadata4148">
    <rdf:RDF>
      <cc:Work
         rdf:about="">
        <dc:format>image/svg+xml</dc:format>
        <dc:type
           rdf:resource="http://purl.org/dc/dcmitype/StillImage" />
        <dc:title></dc:title>
      </cc:Work>
    </rdf:RDF>
  </metadata>
  <g
     inkscape:label="Layer 1"
     inkscape:groupmode="layer"
     id="layer1">
    <path
       inkscape:connector-curvature="0"
       style="fill:#000000"
       d="m 255.66596,236.2109 0,2.33008 c 0,1.28116 0.60801,5.3593 1.34961,9.06251 l 1.34766,6.73242 0.53906,14.375 c 0.2965,7.90625 0.5761,14.9375 0.6211,15.625 0.0453,0.6875 -0.1792,4.209 -0.5,7.82422 l -0.58399,6.57226 1.16406,0.72071 1.16602,0.71875 -0.71484,2.25195 -0.71485,2.25 1.11524,4.96484 1.11523,4.9668 -1.58984,2.9707 -1.58985,2.96875 1.18555,2.21289 1.1836,2.21094 0.13867,8.14453 0.13867,8.14648 -0.79883,0.79883 -0.79883,0.79882 1.47071,1.77149 1.4707,1.77343 -1.50977,0.9336 -1.50781,0.93164 0.50586,14.22656 0.50781,14.22656 -1.79883,5.0586 -1.79687,5.05664 0.80469,4.375 c 0.4427,2.40625 1.3855,5.07813 2.0957,5.9375 l 1.29102,1.5625 -1.48633,0 -1.48828,0 0.77929,2.45312 0.77735,2.45313 -1.20508,2.25195 -1.20508,2.25196 0.96289,5.26171 0.96094,5.25977 -0.72852,0.73047 c -0.4013,0.40125 -0.86339,2.80023 -1.02539,5.33203 l -0.29297,4.60352 1.93946,2.96093 1.93945,2.95899 -1.36719,1.36718 c -0.7515,0.75151 -1.36718,2.54649 -1.36719,3.99024 1e-5,1.44375 -0.49395,3.15937 -1.09765,3.8125 -0.6037,0.65312 -1.37816,3.8705 -1.72266,7.14844 l -0.62695,5.95898 1.86719,1.04492 1.86523,1.04492 -1.39258,2.60157 c -0.7657,1.43061 -1.39258,4.22917 -1.39258,6.2207 l 0,3.62109 3.125,1.67188 c 1.71871,0.91985 3.125,2.14157 3.125,2.71289 l 0,1.03711 -2.58398,0 -2.58398,0 0.79492,2.5039 0.79492,2.50391 -2.02539,2.02735 -2.02539,2.02539 0.98633,3.9082 0.98828,3.90625 -0.30274,6.17383 -0.30273,6.17187 1.48828,0.91992 1.48633,0.91993 -1.48633,1.79101 -1.48633,1.79102 0.79102,3.95508 c 0.4351,2.17522 1.29049,4.26367 1.90039,4.64062 l 1.10742,0.68555 -0.66016,1.06836 c -0.3631,0.58745 -0.87602,4.18355 -1.14062,7.99218 l -0.48047,6.92579 1.77734,1.4746 1.77735,1.47461 -2.01758,2.22852 -2.01562,2.22851 -0.66407,7.31641 -0.66406,7.31641 2.05664,1.70508 2.05469,1.70507 -2.05664,2.27344 -2.05664,2.27149 -0.22071,14.58007 -0.21875,14.57813 2.40625,3.05859 2.4043,3.0586 -1.41016,1.41015 -1.41211,1.41016 0,5.53906 0,5.53906 4.16993,-0.67578 4.16992,-0.67773 1.76172,1.08984 1.76172,1.08789 -2.49414,1.87305 -2.49415,1.87305 -1.875,-0.54493 -1.875,-0.54492 -1.875,1.24414 -1.875,1.24414 2.29297,1.34766 2.29297,1.34766 -2.58984,1.81445 -2.58984,1.81445 0.52539,9.94336 c 0.2898,5.46837 0.89354,11.09368 1.33984,12.5 l 0.81055,2.55664 -1.44336,1.73828 -1.44336,1.74024 -1.29102,11.63867 c -0.7101,6.40101 -1.50939,17.28731 -1.77539,24.19336 l -0.48242,12.55664 -1.36719,6.19336 c -0.7511,3.40645 -1.6525,8.24887 -2.0039,10.75976 l -0.63868,4.56446 2.70899,0.86133 2.70898,0.85937 2.19727,-1.98828 2.19531,-1.98828 2.40234,-0.0391 c 2.8797,-0.0477 6.7754,-2.79924 6.77539,-4.78516 l 0,-1.42383 4.0625,-0.18555 c 7.56782,-0.34475 8.21184,-0.43932 9.11524,-1.33398 l 0.90234,-0.89258 2.64844,1.39258 c 1.4565,0.76622 3.00205,1.93553 3.43555,2.59961 l 0.78711,1.20703 11.40039,-0.90039 11.39843,-0.90234 0,-1.11719 0,-1.11914 -5.3125,-0.0176 -5.3125,-0.0195 1.875,-1.21094 1.875,-1.21289 4.77149,-0.0195 4.76953,-0.0176 2.52344,-1.35156 2.52539,-1.35156 0.82031,0.82031 0.82031,0.82031 -2.17773,1.2168 -2.17774,1.21875 0,1.8125 0,1.81445 1.32422,0 1.32422,0 -0.68945,1.11524 -0.69141,1.11718 3.12696,0.78516 3.1289,0.78516 3.97266,-2.05664 3.97461,-2.05469 2.21679,1.38281 2.21485,1.38477 1.92383,-0.73828 c 1.0584,-0.40616 1.92382,-1.14677 1.92382,-1.64454 0,-1.2777 -4.89026,-3.53698 -9.69726,-4.48046 l -4.07422,-0.80079 0.74805,-1.20703 0.74609,-1.20898 5.82617,0.83203 c 3.2047,0.45708 6.36058,1.32643 7.01367,1.93359 l 1.1875,1.10547 7.875,0 7.875,0 0,1.25977 0,1.25976 2.33594,-1.45703 2.33399,-1.45703 2.04101,0.78125 2.03906,0.7832 0,1.7793 0,1.7793 -3.15039,0.79101 -3.15039,0.79102 -2.44922,-1.31055 -2.44726,-1.31055 -3.24219,0.8125 -3.24219,0.81446 1.0293,0.87304 c 0.5659,0.48082 3.27735,1.54301 6.02734,2.35938 l 5,1.48438 11.73829,0.5039 11.73632,0.50391 0.76368,1.1914 0.76171,1.19141 6.875,0.19336 c 3.78121,0.10643 8.5625,0.25182 10.625,0.32422 2.0625,0.0724 6,-0.26796 8.75,-0.75781 l 5,-0.89063 -1.79296,1.25781 -1.79493,1.25782 1.50196,1.81054 0.004,0 1.50196,1.81055 5.38086,-0.15234 5.38281,-0.1543 1.94531,-1.94531 1.94531,-1.94532 -1.68359,-2.30078 -1.68164,-2.30078 0.70117,-1.13476 0.69922,-1.13282 2.9668,1.94336 2.96484,1.94141 3.16797,0 3.16992,0 0,1.41211 0,1.41015 6.55664,-0.86914 6.55664,-0.86914 1.88086,-1.5332 c 1.0345,-0.84297 3.35852,-2.27045 5.16602,-3.17188 l 3.28711,-1.63867 4.5957,2.18164 4.5957,2.17969 8.56641,-0.7168 8.56445,-0.71875 2.63086,-1.64257 2.62891,-1.64258 -0.59961,-1.56446 -0.60156,-1.5664 1.58593,0 c 0.8722,0 2.20379,0.61982 2.95899,1.375 l 1.37304,1.37305 9.18946,-3.21094 9.18945,-3.20899 -0.17383,-1.91406 -0.17382,-1.91406 1.16796,0 c 0.6424,0 2.59866,-1.43075 4.34766,-3.17969 3.019,-3.01902 20.63992,-14.32031 22.32812,-14.32031 0.43772,0 2.7275,-1.47114 5.0879,-3.27149 l 4.29101,-3.27343 0,-2.19922 0,-2.19922 1.81055,-1.50195 c 0.9961,-0.82667 2.47505,-3.56867 3.28515,-6.0918 0.8101,-2.52314 3.6499,-7.88456 6.3125,-11.91602 l 4.8418,-7.33007 0,-2.28516 0,-2.2832 1.33594,-0.82618 1.33594,-0.82617 -0.33203,-4.59375 c -0.18241,-2.52734 0.002,-5.1422 0.4082,-5.81054 0.4061,-0.66834 1.75695,-6.13868 3.00195,-12.1543 l 2.26367,-10.9375 1.06836,0 1.07032,0 -0.67969,-5.3125 c -0.9771,-7.62184 -2.32977,-24.34371 -2.50977,-31.04102 l -0.1543,-5.73047 -2.06835,-3.01953 c -1.1376,-1.66092 -3.3725,-4.55854 -4.9668,-6.43945 l -2.89844,-3.41992 -5.2832,1.37695 -5.28516,1.37695 -1.98242,-0.76171 -1.98242,-0.75977 0.72461,-1.17383 0.72461,-1.17187 -1.29102,-0.79883 -1.29101,-0.79688 0.71875,-1.16406 c 0.3955,-0.63999 1.81198,-1.16406 3.14648,-1.16406 l 2.42578,0 0,1.11328 0,1.11328 4.375,0.51172 c 2.4062,0.28041 4.375,0.41081 4.375,0.28906 0,-0.70772 -4.17149,-9.21955 -6.05859,-12.36328 l -2.22852,-3.71289 -3.04492,-0.73242 -3.04297,-0.73047 0.35156,-2.51367 0.35157,-2.51367 -2.51563,-2.27735 -2.51562,-2.27734 -1.88477,1.5625 -1.88281,1.56445 -0.82227,-2.14258 -0.82226,-2.14257 1.67773,-1.03711 1.67969,-1.03711 -3.47852,-6.39063 -3.47851,-6.39062 1.46484,-1.76563 1.46485,-1.76562 -0.70704,-1.14453 c -0.3886,-0.62882 -2.2732,-1.45699 -4.1875,-1.83985 l -3.48046,-0.69531 -3.10743,-2.67383 c -7.0435,-6.05922 -10.94432,-9.02813 -17.29492,-13.1582 l -6.68945,-4.34961 -2.9707,0 -2.97071,0 -2.04687,-3.125 -2.04688,-3.125 -3.60742,0 -3.60547,0 0,-1.50195 c 0,-0.82665 -1.79879,-3.3579 -3.99609,-5.625 l -3.99414,-4.12305 -1.63086,0 c -0.8964,0 -1.62891,-0.50704 -1.62891,-1.12891 0,-0.62188 -2.9531,-2.80663 -6.5625,-4.85351 l -6.5625,-3.72071 -3.56641,-5.68945 c -1.9609,-3.1284 -4.35149,-5.98864 -5.3125,-6.35742 -0.961,-0.36877 -1.74514,-1.10928 -1.74414,-1.64649 l 0,-0.97851 4.06055,-0.26953 4.06055,-0.27149 4.2207,-4.72851 c 2.3222,-2.60106 6.53759,-7.26068 9.36719,-10.35352 l 5.14453,-5.62305 -0.35938,-1.56445 -0.35937,-1.56445 1.61914,-0.0176 c 0.8895,-0.0105 2.37222,-0.49916 3.29492,-1.08398 l 1.67774,-1.0625 -1.66602,-2.66797 c -0.9162,-1.46714 -2.31036,-2.66797 -3.09765,-2.66797 -0.78732,0 -3.04252,-0.86365 -5.01172,-1.91992 l -3.58008,-1.91992 3.125,0.24023 c 1.7188,0.132 4.65434,0.15182 6.52344,0.0449 l 3.39648,-0.19336 -0.71875,-1.875 -0.71875,-1.875 -1.74219,0 -1.74023,0 0,-1.25 0,-1.25 5.3125,-0.0176 c 2.9219,-0.009 6.67304,-0.38131 8.33594,-0.82617 l 3.02148,-0.80859 -0.79492,2.07617 -0.79688,2.07422 2.14844,-0.0391 c 1.1815,-0.0219 3.13284,-0.7859 4.33594,-1.69922 l 2.1875,-1.66211 0,-2.4375 0,-2.43945 2.77148,-2.97657 2.77344,-2.97656 0.0391,-2.69141 0.041,-2.69336 1.71484,-2.0664 c 0.9436,-1.13672 2.42015,-2.06641 3.28125,-2.06641 l 1.56641,0 0,-3.26758 0,-3.26757 1.21875,-0.79493 c 1.9741,-1.28703 3.3685,-8.42374 2.84179,-14.54492 -0.11829,-1.375 0.18087,-3.76562 0.66407,-5.3125 l 0.8789,-2.8125 -1.70898,-0.002 -1.70703,0 0.0391,-10 0.041,-9.99804 -0.97852,0 c -0.5378,0 -0.97633,-0.98437 -0.98633,-2.1875 -0.004,-1.20312 -1.09643,-3.84172 -2.42773,-5.86133 l -2.42188,-3.67187 0.69532,-1.12305 0.69336,-1.12304 -4.03126,-4.15821 -4.02929,-4.16015 0.72461,-1.17579 0.72656,-1.17382 -3.85547,-6.08203 c -2.1211,-3.34453 -6.23452,-8.4918 -9.14062,-11.43946 l -5.28321,-5.35937 -2.28711,-7.55274 c -1.2576,-4.15371 -2.75161,-7.83993 -3.32031,-8.1914 -0.5687,-0.35148 -1.03515,-1.70265 -1.03516,-3.00196 l 0,-2.36133 -7.99023,-3.81445 c -4.3952,-2.09762 -8.85706,-3.8125 -9.91406,-3.8125 l -1.92188,0 -0.39843,-2.8125 -0.4004,-2.8125 -4.8164,-0.13672 -4.81641,-0.13476 -0.91211,-1.47461 -0.91211,-1.47656 -5.52148,0.8789 -5.52149,0.87696 1.56836,-1.9004 1.56641,-1.90039 -3.44141,-0.0742 c -11.8507,-0.25254 -28.98077,-1.3532 -40.17187,-2.58204 l -12.98047,-1.42578 -18.89453,-0.0371 c -20.7269,-0.0408 -61.70046,-0.92784 -81.53516,-1.76563 l -12.63867,-0.5332 -5.20117,-1.40234 -5.20313,-1.40039 -1.41406,0.875 -1.41406,0.87304 0.89062,-1.44336 0.89258,-1.44336 -3.82422,0 -3.82422,0 z m 280,0.002 0,1.97852 0,1.97852 1.48438,-0.49415 c 0.8165,-0.27213 1.70837,-1.1621 1.98047,-1.97851 l 0.49414,-1.48438 -1.97852,0 -1.98047,0 z m -38.59374,59.73829 0.75585,0.75586 0.75586,0.75391 -2.39648,-0.0977 -2.39649,-0.0996 1.64063,-0.65625 1.64063,-0.65625 z m -27.65626,5.49414 2.5,0.6543 c 1.375,0.35958 2.5,1.15049 2.5,1.75781 l 0,1.10352 -2.5,0 -2.5,0 0,-1.75781 0,-1.75782 z m -7.5,0.59961 0.83399,0.83399 0.83398,0.83203 -1.66797,0 -1.66601,0 0.83398,-0.83203 0.83203,-0.83399 z m 3.75,0 0.83399,0.83399 0.83398,0.83203 -0.83398,0.83398 -0.83399,0.83399 0,-1.66797 0,-1.66602 z m -141.25,1.66602 2.5,0 2.5,0 0,1.25 0,1.25 -2.5,0 -2.5,0 0,-1.25 0,-1.25 z m 21.10938,1.36719 c 0.68814,0.0399 0.86234,0.9743 0.82422,3.05468 l -0.0586,3.16993 -1.875,1.18554 c -2.07848,1.31364 -5,1.61471 -5,0.51563 0,-1.36207 2.88761,-6.17625 4.25,-7.08594 0.84879,-0.56674 1.44649,-0.86376 1.85938,-0.83984 z m -10.95312,0.87304 0.75585,0.75586 0.75586,0.75391 -2.39648,-0.0977 -2.39649,-0.0996 1.64063,-0.65625 1.64063,-0.65625 z m 126.20312,4.50977 4.16016,0 4.16015,0 -1.625,1.625 c -0.8937,0.89375 -2.15814,1.625 -2.81054,1.625 -0.6524,0 -1.79346,-0.73125 -2.53516,-1.625 l -1.34961,-1.625 z m -71.98438,2.36523 2.28126,0.80469 2.27929,0.80274 -0.27344,1.20117 -0.27539,1.20117 4.76758,0.77539 4.76758,0.77539 1.49023,2.03711 1.49024,2.03711 6.42383,0 6.42382,0 0,1.25 0,1.25 -3.125,0 -3.125,0 0,1.20703 c 0,0.66331 1.0675,1.77698 2.3711,2.47461 1.3035,0.69763 5.55401,5.49766 9.44531,10.66796 l 7.07422,9.40039 2.42969,0 2.42968,0 0,1.25 c 0,0.6875 -0.63064,1.25 -1.40234,1.25 l -1.40234,0 1.65625,1.99805 c 0.9116,1.0983 1.83513,3.16396 2.05273,4.58984 0.5266,3.45075 2.6878,5.91211 5.1875,5.91211 l 2.0332,0 0,3.18945 0,3.18945 -2.26367,-0.59179 -2.26367,-0.5918 -0.73047,1.9043 -0.73047,1.90429 1.50586,0.92969 1.50782,0.93164 -3.04688,1.9961 -3.04687,1.99804 -0.83399,4.44532 -0.83594,4.44531 -1.57226,0 c -0.8652,0 -3.48225,1.96875 -5.81446,4.375 -2.33218,2.40625 -4.83214,4.37661 -5.55664,4.37695 -0.7245,3.3e-4 -3.79883,2.88217 -6.83203,6.4043 l -5.51562,6.4043 3.01562,2.375 3.01367,2.375 3.49415,-0.44532 3.49218,-0.44726 0.71094,1.15039 0.71094,1.15039 -1.39063,1.39062 c -1.9566,1.95657 -1.72833,3.39063 0.53907,3.39063 l 1.92968,0 -0.36718,2.14258 -0.36915,2.14258 4.375,2.21484 4.375,2.21484 4.0625,-0.66406 4.0625,-0.66406 0,1.37109 0,1.37109 -4.6875,2.03126 c -2.57818,1.11772 -5.52036,2.18438 -6.53906,2.36914 -1.0188,0.18476 -2.01705,0.8304 -2.21875,1.43554 l -0.36719,1.09961 -8.40624,-1.11523 -8.40626,-1.11524 -1.1875,-1.16601 -1.1875,-1.16797 -6.625,0 -6.625,0 0,-1.25 0,-1.25 -2.00585,0 -2.00782,0 -2.46289,3.13281 -2.46484,3.13086 -5.2168,-0.0977 c -2.8692,-0.0538 -6.57749,0.21064 -8.24219,0.58789 l -3.02734,0.68555 -3.99609,-2.46875 -3.9961,-2.4707 -4.4375,0 c -2.4408,0 -5.31206,0.33597 -6.38086,0.74609 l -1.94336,0.7461 -0.77734,4.14843 -0.7793,4.14844 -2.92187,0.73438 -2.92188,0.73242 -0.79297,2.49804 -0.79296,2.4961 -1.47852,-0.0937 c -0.8131,-0.0523 -3.27044,-0.75542 -5.46094,-1.5625 l -3.98242,-1.46875 1.3457,-2.38867 1.34571,-2.38867 -1.42578,-2.28126 c -0.7837,-1.25484 -1.42383,-3.38085 -1.42383,-4.7246 0,-1.34376 -0.50168,-2.75291 -1.11328,-3.13086 -1.1264,-0.69615 -2.18148,-5.49411 -3.45508,-15.71094 -0.3857,-3.09375 -1.28139,-6.33995 -1.99219,-7.21484 l -1.29297,-1.58985 -2.32422,0.73633 -2.32226,0.73828 0,-1.33398 0,-1.33594 3.125,0 3.125,0 0.0703,-9.6875 0.0723,-9.6875 2.23242,-8.5586 2.23047,-8.55859 -0.57422,-3.00195 -0.57227,-3 2.11328,-3.22656 2.11328,-3.22461 -0.8457,-5.00391 c -0.4649,-2.7521 -1.59813,-6.45634 -2.51953,-8.23242 l -1.67578,-3.23047 0.70703,-3.54101 0.70898,-3.53906 -1.44335,-1.73828 -1.44336,-1.73828 0.80859,-5.04883 0.80664,-5.04883 3.375,-1.39843 3.375,-1.39649 3.50195,1.33008 c 1.9261,0.73229 4.9492,2.46896 6.7168,3.85937 l 3.21289,2.5293 10.06055,-0.79297 c 5.5333,-0.436 10.91107,-1.22626 11.95117,-1.75586 1.04,-0.5296 4.84372,-1.295 8.45312,-1.70117 l 6.5625,-0.73828 0,1.19141 c 0,0.65511 0.5625,1.18945 1.25,1.18945 l 1.25,0 0,-2.35547 0,-2.35547 2.8125,-1.83789 2.8125,-1.83594 z m 79.22852,2.13672 3.51172,0.0488 3.50976,0.0508 -3.28906,1.78711 c -1.8091,0.98297 -3.61973,2.64722 -4.02344,3.69922 l -0.73242,1.91211 -2.53906,0 -2.54102,0 0,1.25 0,1.25 -1.80078,0 c -0.9906,0 -2.14932,-0.5625 -2.57422,-1.25 l -0.77148,-1.25 1.32422,0 1.32226,0 -0.3125,-1.5625 -0.3125,-1.5625 3.54493,0.37695 3.54492,0.37695 1.75391,-1.45507 1.7539,-1.45508 -0.68359,-1.10938 -0.68555,-1.10742 z m -157.20508,4.99805 1.25,0 -0.77344,1.25 c -0.42489,0.6875 -1.33398,1.25 -2.02148,1.25 l -1.25,0 0.77148,-1.25 c 0.4249,-0.6875 1.33594,-1.25 2.02344,-1.25 z m 141.10156,4.58398 0.83399,0.83399 0.83398,0.83203 -1.66797,0 -1.66601,0 0.83398,-0.83203 0.83203,-0.83399 z m -132.34374,1.40625 0.75585,0.75586 0.75586,0.75391 -2.39648,-0.0977 -2.39649,-0.0996 1.64063,-0.65625 1.64063,-0.65625 z m 158.59374,1.09375 0.83399,0.83399 0.83398,0.83203 -1.66797,0 -1.66601,0 0.83398,-0.83203 0.83203,-0.83399 z m -31.25,3.95899 1.5625,0.51953 c 0.8593,0.28614 1.7445,1.4593 1.9668,2.60547 l 0.4043,2.08202 -1.9668,0 -1.9668,0 0,-2.60351 0,-2.60351 z m 29.375,0.20703 1.875,0 0,1.17773 c 0,0.64692 -0.48261,1.47421 -1.07421,1.83985 l -1.07618,0.66601 -0.79882,-0.80078 c -1.4077,-1.40774 -0.85877,-2.88281 1.07421,-2.88281 z m 40.625,9.58397 0.83399,0.83399 0.83398,0.83203 -1.66797,0 -1.66601,0 0.83398,-0.83203 0.83203,-0.83399 z m -50.14648,2.91602 3.89648,0 3.89844,0 -0.77344,1.25 c -0.42489,0.6875 -1.83118,1.25 -3.125,1.25 -1.2939,0 -2.7001,-0.5625 -3.125,-1.25 l -0.77148,-1.25 z m -145.33008,1.25 1.875,0 -0.77344,1.25 c -0.42489,0.6875 -1.61528,1.25 -2.64648,1.25 l -1.875,0 0.77148,-1.25 c 0.4249,-0.6875 1.61724,-1.25 2.64844,-1.25 z m 116.72656,2.5 1.5625,0.0879 c 0.8593,0.0483 2.6875,0.57125 4.0625,1.16211 l 2.5,1.07422 -4.0625,0.0879 -4.0625,0.0879 0,-1.25 0,-1.25 z m 26.58594,7.11914 -0.54687,1.64062 -0.54688,1.64063 -5.55859,0.50781 -5.5586,0.50781 1.35938,-1.3789 c 0.7468,-0.75785 3.49447,-1.72278 6.10547,-2.14649 l 4.74609,-0.77148 z m -154.32422,6.33789 1.47852,0.91211 1.47852,0.91406 -1.04688,0.94727 c -0.5755,0.52114 -2.59377,1.31222 -4.48438,1.75781 l -3.4375,0.81055 0,-1.0625 c 0,-0.58443 1.35266,-1.78712 3.00586,-2.67188 l 3.00586,-1.60742 z m 140.23828,2.95508 c 0.56642,0 1.1328,0.0883 1.5625,0.26172 l 1.5625,0.6289 -3.125,0 -3.125,0 1.5625,-0.6289 c 0.42966,-0.17338 0.9961,-0.26172 1.5625,-0.26172 z m 1.10157,3.74805 c 0.67969,0.008 1.31318,0.10028 1.73633,0.27148 l 1.5371,0.62109 -3.75,-0.0449 -3.75,-0.0469 2.2129,-0.57618 c 0.6081,-0.15842 1.33398,-0.23302 2.01367,-0.2246 z m -145.94531,2.08007 0.75585,0.75586 0.75586,0.75391 -2.39648,-0.0977 -2.39649,-0.0996 1.64063,-0.65625 1.64063,-0.65625 z m 183.59374,1.50977 2.46094,0 2.46094,0 -0.71875,1.875 -0.71875,1.875 -1.74219,0 -1.74219,0 0,-1.875 0,-1.875 z m -30.625,3.03711 4.10938,1.37305 4.10742,1.37109 -2.75781,2.42187 -2.75781,2.42188 0.79297,-2.17188 0.79101,-2.17187 -0.89258,0.13281 c -0.4909,0.0732 -2.58008,0.0224 -4.64258,-0.11328 l -3.75,-0.24805 1.875,-0.71289 c 1.03121,-0.39256 2.15622,-1.07099 2.5,-1.50781 l 0.625,-0.79492 z m 16.23047,2.06836 3.13477,0.74609 c 1.7244,0.41019 3.56685,0.98699 4.09375,1.2832 l 0.95703,0.53907 -0.71875,1.16406 -0.71875,1.16211 -4.22852,0 -4.22656,0 -0.85937,-1.38867 -0.85938,-1.39063 1.71289,-1.05664 1.71289,-1.05859 z m -170.75195,1.14453 1.94922,0 1.94726,0 0,1.25 c 0,0.6875 -0.52888,1.25 -1.17578,1.25 -0.647,0 -1.52432,-0.5625 -1.94922,-1.25 l -0.77148,-1.25 z m 8.77734,1.0293 1.31055,0.81054 c 0.7205,0.44525 1.3086,1.31867 1.30859,1.94141 1e-5,0.62273 -1.06222,1.70122 -2.36132,2.39648 l -2.36133,1.26367 -0.66602,-2.54687 -0.66601,-2.54687 1.71875,-0.65821 1.71679,-0.66015 z m -8.60546,5.05859 3.28125,2.58203 3.28125,2.58008 -1.73047,-0.043 c -0.9521,-0.0243 -3.07309,-0.78836 -4.71289,-1.69727 l -2.98047,-1.65234 1.42969,-0.88476 1.43164,-0.88477 z m 188.57226,2.13672 2.57617,2.33203 c 1.4169,1.28234 2.57617,2.80772 2.57617,3.38867 l 0,1.05469 -10.3125,-0.0176 -10.3125,-0.0195 1.84961,-1.16992 c 1.0172,-0.6432 4.1109,-1.54609 6.875,-2.00781 l 5.02539,-0.83985 0.86133,-1.35937 0.86133,-1.36133 z m -36.09766,1.35937 0.83399,0.83399 0.83398,0.83203 -1.66797,0 -1.66601,0 0.83398,-0.83203 0.83203,-0.83399 z m 3.86719,7.61719 0.77539,0.77539 c 0.4263,0.42632 0.53986,1.00901 0.25196,1.29688 -0.2878,0.28786 -2.06979,0.91255 -3.95899,1.38672 l -3.43555,0.86132 0,-1.36132 0,-1.36133 3.1836,-0.79883 3.18359,-0.79883 z m 18.63281,1.54883 4.6875,0.041 4.6875,0.0391 -2.42578,1.83593 c -1.3346,1.00938 -2.7408,1.79063 -3.125,1.73633 -1.9766,-0.27921 -3.82422,-1.48987 -3.82422,-2.50586 l 0,-1.14648 z m -30.3125,4.73242 2.96876,1.01367 c 1.63298,0.55758 4.8395,0.8977 7.125,0.75391 l 4.15624,-0.26172 -0.40624,2.08984 c -0.5608,2.89175 -2.55658,3.29514 -5.45508,1.10352 -1.3472,-1.01865 -3.40186,-1.86873 -4.56446,-1.89063 -1.1625,-0.0219 -2.49835,-0.66267 -2.96875,-1.42382 l -0.85547,-1.38477 z m 24.8086,0.26758 c 0.4095,0 2.38387,1.16813 4.38867,2.5957 l 3.64649,2.5957 -0.71485,1.1543 c -1.1101,1.7961 -2.84369,1.37698 -5.56641,-1.3457 -2.40098,-2.40093 -3.3119,-5 -1.7539,-5 z m -26.9961,8.33398 0.83399,0.83399 0.83398,0.83203 -1.66797,0 -1.66601,0 0.83398,-0.83203 0.83203,-0.83399 z m 47.5,0 -0.83203,0.83399 -0.83398,0.83398 1.66601,0 1.66797,0 -0.83398,-0.83398 -0.83399,-0.83399 z m -57.5,5.58399 3.9336,0.11133 3.93359,0.11328 -2.29687,1.67968 0,-0.002 c -1.2633,0.92376 -3.0338,1.67969 -3.9336,1.67969 l -1.63672,0 0,-1.79102 0,-1.79101 z m 21.25,1.08203 1.80274,0 c 0.9907,0 2.14738,0.5625 2.57226,1.25 l 0.77344,1.25 -2.57422,0 -2.57422,0 0,-1.25 0,-1.25 z m -30,1.25 2.5,0 2.5,0 0,1.25 0,1.25 -2.5,0 -2.5,0 0,-1.25 0,-1.25 z m -5.08984,10.625 -1.18555,1.875 c -0.6521,1.03125 -1.19507,2.57812 -1.20507,3.4375 l -0.0195,1.5625 1.5625,-0.0176 c 0.85942,-0.0105 2.4063,-0.55297 3.4375,-1.20508 l 1.875,-1.18554 -2.23242,-2.23243 -2.23242,-2.23437 z m 42.7461,1.61523 0.75585,0.75586 0.75586,0.75391 -2.39648,-0.0977 -2.39649,-0.0996 1.64063,-0.65625 1.64063,-0.65625 z m -21.55274,0.25977 1.94922,0 1.94726,0 0,1.25 c 1e-5,0.6875 -0.52878,1.25 -1.17578,1.25 -0.6469,0 -1.52432,-0.5625 -1.94922,-1.25 l -0.77148,-1.25 z m -48.60352,5 3.4375,0.0195 3.4375,0.0195 -1.875,1.21094 c -1.03129,0.66645 -2.57808,1.22242 -3.4375,1.23242 l -1.5625,0.0176 0,-1.25 0,-1.25 z m -108.43359,2.3789 1.92578,0.37305 c 1.0596,0.20563 2.14727,1.03872 2.41797,1.85156 l 0.49219,1.47852 -2.5,1.33789 -2.5,1.33789 -0.70508,-1.14062 -0.70508,-1.14063 0.78711,-2.04883 0.78711,-2.04883 z m 137.80859,1.70704 3.48633,2.15625 3.48633,2.1582 -3.1289,2.05078 c -1.7211,1.12771 -3.30639,2.04883 -3.52149,2.04883 -0.2152,0 -1.35395,-1.125 -2.53125,-2.5 l -2.14062,-2.5 -1.88672,0 -1.88868,0 0,-1.33399 0,-1.33398 2.56055,0.8125 2.56055,0.8125 1.50195,-1.18555 1.50195,-1.18554 z m -16.10156,4.66406 c 0.3438,0 0.27647,0.5625 -0.14844,1.25 -0.42489,0.6875 -1.05278,1.25 -1.39648,1.25 -0.3438,0 -0.2784,-0.5625 0.14648,-1.25 0.4249,-0.6875 1.05474,-1.25 1.39844,-1.25 z m 35.39844,1.25 2.27344,0 1.55468,1.875 1.55665,1.875 -1.08985,-0.18555 c -0.5998,-0.10301 -2.64653,-0.42341 -4.54883,-0.71094 l -3.45898,-0.52343 0.71875,-1.16407 c 0.396,-0.64071 1.74384,-1.16601 2.99414,-1.16601 z m -7.42188,9.81836 0,1.19531 0,1.19531 -2.57031,0.67188 -2.57226,0.67383 0.48828,-1.46485 c 0.2681,-0.80527 1.42606,-1.64493 2.57226,-1.86718 l 2.08203,-0.4043 z m 107.25391,8.93359 c -0.7801,0 -2.30944,0.84996 -3.39844,1.88867 -1.0889,1.03871 -3.38675,2.98737 -5.10547,4.33204 l -3.125,2.44531 3.86915,0.041 3.86914,0.043 1.8789,-2.1875 c 1.0333,-1.20313 2.2277,-3.17188 2.6543,-4.375 l 0.77539,-2.1875 -1.41797,0 z m -128.48437,2.33985 1.875,1.875 1.875,1.875 -1.12891,0.69726 -1.12695,0.69727 -0.7168,-1.86719 -0.7168,-1.86914 -1.78125,0 -1.78125,0 -0.71875,1.875 -0.71875,1.875 -2.00586,0 -2.00586,0 0.41407,-2.1875 0.41406,-2.1875 4.0625,-0.39063 4.06055,-0.39257 z m -52.5918,0.1582 c 0.647,0 1.52238,0.5625 1.94726,1.25 l 0.77344,1.25 -1.94922,0 -1.94922,0 0,-1.25 c 1e-5,-0.6875 0.53084,-1.25 1.17774,-1.25 z m 58.94726,0.0371 11.28516,0.45508 11.28516,0.45312 1.46484,1.57227 1.46484,1.57422 -2.8125,-0.67969 -2.8125,-0.67774 0,1.75782 0,1.75781 -3.05078,0 -3.05078,0 -0.77344,-1.25 c -0.42489,-0.6875 -1.33398,-1.25 -2.02148,-1.25 l -1.25,0 0.71875,1.16406 0.71875,1.16406 -1.26953,0.78516 c -0.6988,0.43183 -1.27148,1.37856 -1.27149,2.10352 l 0,1.31836 4.0625,-0.81836 c 2.2343,-0.44953 5.46871,-0.96396 7.1875,-1.14454 1.71871,-0.18056 4.14558,-0.79566 5.39258,-1.36523 l 2.26758,-1.03516 3.11719,1.41993 3.11719,1.41992 2.91601,-0.73047 2.91797,-0.73242 0.83398,1.35156 0.83594,1.34961 -1.45703,0 -1.45703,0 0.80078,2.08789 0.80078,2.08789 -1.60547,1.01953 c -0.8827,0.56006 -2.65801,1.02711 -3.94531,1.03711 l -2.33984,0.0176 1.58008,-1.9043 c 0.8697,-1.04786 1.32767,-2.15865 1.01757,-2.46875 -0.3101,-0.3101 -4.60863,-0.94089 -9.55273,-1.40039 l -8.99024,-0.83398 0,1.17968 c 0,0.64872 0.7031,1.89393 1.5625,2.76758 l 1.5625,1.58789 -3.4375,-0.84961 -3.4375,-0.84765 -0.19531,2.32226 c -0.1079,1.27767 -0.17067,3.02539 -0.13867,3.88477 l 0.0566,1.5625 -2.28711,0 c -1.2581,0 -2.63564,0.5625 -3.06055,1.25 -1.24928,2.02148 -2.77552,1.46196 -5.51562,-2.02149 l -2.57422,-3.27148 -0.8164,2.12695 -0.81641,2.12696 -1.09961,-1.66797 -1.09961,-1.66797 -1.69727,2.2168 -1.69531,2.21484 -3.27929,-1.24609 c -1.80371,-0.68575 -3.28125,-1.77222 -3.28126,-2.41211 l 0,-1.16211 5.60352,-1.91016 5.60352,-1.9082 0.74414,1.20508 0.74414,1.20507 4.58984,-0.80859 4.58984,-0.81055 1.85938,-1.75586 1.85742,-1.75781 -3.89453,0.7793 -3.89258,0.77734 -0.9082,-1.46679 -0.9082,-1.46876 2.73437,-2.91015 2.73438,-2.91211 -3.86328,-0.84766 -3.86524,-0.84961 0.69922,-1.1289 0.69726,-1.13086 z m -19.89257,2.57031 c 0.17808,-0.008 0.32664,0.0356 0.43164,0.14063 0.3313,0.33135 -0.52705,1.62291 -1.90625,2.87109 l -2.50782,2.26953 0,-1.29101 c 1e-5,-1.37622 2.73582,-3.93467 3.98243,-3.99024 z m -6.07227,0.71875 -0.81055,1.3125 c -0.4463,0.72224 -2.22617,1.58355 -3.95507,1.91406 l -3.14454,0.60157 0,-1.07618 c 1e-5,-0.59216 0.79834,-1.07812 1.77344,-1.07812 0.975,0 2.75488,-0.37535 3.95508,-0.83594 l 2.18164,-0.83789 z m -13.70703,0.85352 c 0.2736,-0.0109 0.51703,-0.0106 0.73047,0.002 1.42295,0.0839 1.5382,0.70147 0.74414,1.98633 l -0.82422,1.33203 -4.30078,0 -4.30274,0 0,-1.08594 0,-1.08594 4.62305,-0.75 c 1.41216,-0.22915 2.50929,-0.36562 3.33008,-0.39843 z m -14.25781,2.01367 -0.70313,1.82812 c -0.386,1.00592 -2.04083,2.7068 -3.67773,3.7793 -1.6368,1.07249 -3.41723,1.89126 -3.95703,1.81836 -0.5398,-0.0729 -2.66993,-1.03541 -4.73243,-2.13672 l -3.75,-2.00195 2.32032,-0.48242 2.32031,-0.48243 1.36719,1.36719 c 0.752,0.75198 2.3797,1.36719 3.61718,1.36719 l 2.25,0 0,-1.20508 c 0,-0.66331 1.11306,-1.8017 2.47266,-2.5293 l 2.47266,-1.32226 z m -68.41016,1.38281 c 0.63458,0 0.96484,0.39075 0.96484,1.17383 l 0,1.25 -2.8125,-0.0176 -2.8125,-0.0195 1.875,-1.21289 c 1.21171,-0.78308 2.15059,-1.17383 2.78516,-1.17383 z m 235.01563,2.42578 c -1.3109,0 -2.75268,0.36991 -3.20508,0.82227 l -0.82227,0.82226 1.42578,1.71875 1.42774,1.71875 1.375,-0.45703 c 0.7562,-0.25175 1.55504,-1.39485 1.77734,-2.54101 l 0.4043,-2.08399 -2.38281,0 z m -149.85743,7.35156 1.0918,1.94922 1.08984,1.94727 1.8125,0 1.8125,0 0,1.25 c 0,0.6875 -0.4219,1.27479 -0.9375,1.30469 -0.51558,0.0299 -3.22147,0.49754 -6.01367,1.03906 l -5.07617,0.98437 -2.73633,-1.8164 c -1.5047,-0.99907 -2.73632,-2.24359 -2.73633,-2.76563 0,-0.52202 2.63206,-1.61022 5.84766,-2.41992 l 5.8457,-1.47266 z m -16.69336,2.23047 0.83399,0.83399 0.83398,0.83203 -0.83398,0.83398 -0.83399,0.83399 0,-1.66797 0,-1.66602 z m 31.26758,0.41602 1,0 -0.65039,2.48828 -0.65039,2.48828 2.95508,1.18164 2.95312,1.1836 -2.8125,0.0801 -2.8125,0.0801 0,1.24805 0,0.002 0,1.24805 -2.1875,-0.0781 c -1.20309,-0.0436 -3.53007,-0.61657 -5.17187,-1.27343 l -2.98437,-1.19532 2.28124,-2.51953 2.28126,-2.52148 1.6875,0.64844 1.68945,0.64843 0.71094,-1.85351 c 0.3912,-1.01966 1.16133,-1.85547 1.71093,-1.85547 z m 92.48242,0 c 0.6875,0 1.25,0.5625 1.25,1.25 0,0.6875 -0.5625,1.25 -1.25,1.25 -0.6875,0 -1.25,-0.5625 -1.25,-1.25 0,-0.6875 0.5625,-1.25 1.25,-1.25 z m -214.85156,3.75 1.25,0 -0.77344,1.25 c -0.42489,0.6875 -1.33398,1.25 -2.02148,1.25 l -1.25,0 0.77148,-1.25 c 0.4249,-0.6875 1.33594,-1.25 2.02344,-1.25 z m 224.85156,0.34766 0,1.00195 c 0,1.66349 -1.73184,2.14007 -4.33984,1.19336 l -2.46484,-0.89453 3.40234,-0.65039 3.40234,-0.65039 z m -118.75,3.40429 2.57422,0 2.57422,0 -0.77344,1.25 c -0.42489,0.6875 -1.58156,1.25 -2.57226,1.25 l -1.80274,0 0,-1.25 0,-1.25 z m -62.5,2.08203 0.83399,0.83399 0.83398,0.83398 -1.66797,0 -1.66601,0 0.83398,-0.83398 0.83203,-0.83399 z m -36.25,1.25 0.83399,0.83399 0.83398,0.83398 -1.66797,0 -1.66601,0 0.83398,-0.83398 0.83203,-0.83399 z m 145.44141,6.11328 0.50781,1.52735 0.50977,1.52734 1.8457,0 1.84375,0 -0.77344,1.25 -0.77148,1.25 -2.51562,0 -2.51563,0 -1.875,1.875 -1.875,1.875 -2.27148,0 -2.27344,0 -2.95117,-2.41992 -2.95118,-2.41992 2.5,-1.91602 c 2.8657,-2.1966 4.375,-2.4928 4.375,-0.86133 l 0,1.13282 4.59571,-1.41016 4.5957,-1.41016 z m 54.71485,0.29297 0.75585,0.75586 0.75586,0.75391 -2.39648,-0.0977 -2.39649,-0.0996 1.64063,-0.65625 1.64063,-0.65625 z m -10.78126,1.14258 -1.25,1.29297 c -0.6875,0.71142 -2.51569,1.67718 -4.0625,2.14453 l -2.8125,0.84961 0,-1.33398 0,-1.33399 1.77344,0 c 0.9751,0 2.8032,-0.36561 4.0625,-0.81055 l 2.28906,-0.80859 z m -65.77148,6.61719 3.51172,0.0195 3.50976,0.0195 -1.875,1.21289 0,-0.002 c -2.4016,1.55204 -3.41579,1.55204 -4.375,0 l -0.77148,-1.25 z m 62.64648,0.002 c 0.6875,0 1.25,0.5625 1.25,1.25 0,0.6875 -0.5625,1.25 -1.25,1.25 -0.6875,0 -1.25,-0.5625 -1.25,-1.25 0,-0.6875 0.5625,-1.25 1.25,-1.25 z m -76.25,0.0781 1.875,0.71875 c 2.4368,0.93509 2.39134,2.48672 -0.10156,3.44336 -2.6008,0.99801 -2.49699,1.02158 -4.15039,-0.97071 l -1.43555,-1.72851 1.90626,-0.73242 1.90624,-0.73047 z m -104.375,5.54687 1.875,1.42774 c 1.03121,0.7854 3,1.70304 4.375,2.04101 l 2.5,0.61524 -2.6582,0.14453 -2.66015,0.14648 -1.71485,-2.1875 -1.7168,-2.1875 z m 58.27344,0.625 -0.77344,1.25 c -0.42489,0.6875 -0.87846,1.1935 -1.00976,1.125 -0.1313,-0.0685 -1.64653,-0.57457 -3.36524,-1.125 l -3.125,-1.00195 4.13672,-0.125 4.13672,-0.12305 z m 9.85156,1.25 1.57618,0 1.57422,0 1.52343,2.44141 1.52539,2.4414 -0.91211,0.4629 c -0.5015,0.25457 -1.8965,0.23998 -3.09961,-0.0332 l -2.1875,-0.49609 0,-2.4082 0,-2.40821 z m 53.19922,0 c 0.3031,0 0.55078,0.5625 0.55078,1.25 1e-5,0.6875 -0.59416,1.25 -1.32226,1.25 l -1.32422,0 0.77148,-1.25 c 0.4249,-0.6875 1.02102,-1.25 1.32422,-1.25 z m 80.55078,0 3.05274,0 3.05078,0 0.69141,1.11719 0.6914,1.11914 -1.55468,0.52539 c -2.2357,0.75508 -5.93165,-0.24338 -5.93165,-1.60351 l 0,-1.15821 z m -30,1.13477 4.0625,0.63086 c 2.23432,0.346 7.30518,0.97515 11.26758,1.39843 l 7.20508,0.76954 -0.7168,1.1582 -0.71484,1.15625 -8.98828,-0.0469 -8.99024,-0.0469 -1.5625,-1.77539 c -0.8594,-0.97609 -1.5625,-2.10389 -1.5625,-2.50781 l 0,-0.73633 z m -59.65039,1.29297 2.24219,2.02734 2.24024,2.0293 -0.67383,1.75781 -0.67383,1.75781 -2.30469,0 -2.30469,0 -1,-1.69336 c -0.5498,-0.93043 -1.84378,-1.98699 -2.875,-2.34961 l -1.875,-0.66015 3.61329,-1.4336 3.61132,-1.43554 z m 43.40039,0.0703 3.4375,0.0195 3.4375,0.0195 -1.875,1.21289 c -1.03129,0.66645 -2.57819,1.22047 -3.4375,1.23047 l -1.5625,0.0176 0,-1.25 0,-1.25 z m -156.25,0.83398 0.83399,0.83399 0.83398,0.83398 -1.66797,0 -1.66601,0 0.83398,-0.83398 0.83203,-0.83399 z m 202.5586,0.0625 -0.78711,2.05274 c -0.433,1.12848 -1.2903,2.05273 -1.9043,2.05273 -1.6074,0 -1.38199,-0.72523 0.78711,-2.52539 l 1.9043,-1.58008 z m 14.39844,0.64063 2.91015,2.35742 2.91016,2.35547 -2.63867,0 -2.63868,0 0.041,0.9375 c 0.0217,0.51563 1.39825,2.48242 3.06055,4.37109 l 3.02343,3.43555 2.25,-0.19531 c 1.23781,-0.1065 3.57687,-0.1052 5.19727,0.004 l 2.94531,0.19922 -0.6875,1.79297 -0.68945,1.79492 1.49219,0.53516 1.49218,0.5332 -0.82226,0.89063 c -0.4526,0.48946 -1.8589,1.03034 -3.125,1.20312 l -2.30274,0.31445 -1.23242,2.7168 -0.002,0 c -1.4464,3.18481 -2.92432,3.48562 -3.95313,0.80469 l -0.73242,-1.91211 -2.35351,0.74609 -2.35157,0.74805 0,-1.82617 0,-1.82617 1.875,-0.71875 1.875,-0.71875 0,-1.76953 0,-1.76758 -2.8125,-0.75391 c -1.5469,-0.41455 -4.67431,-0.76148 -6.94921,-0.77148 l -4.13477,-0.0176 0.85547,1.38476 0.85351,1.38477 -2.65624,-0.84375 -2.65626,-0.84375 0,1.88672 c 0,1.037 0.5625,2.23135 1.25,2.65625 0.6875,0.4249 1.25,1.21056 1.25,1.74609 l 0,0.97461 -4.32617,0.16211 -4.32422,0.16406 -0.7539,-1.2207 c -0.4143,-0.67044 -2.44537,-2.09256 -4.51367,-3.16211 l -3.76172,-1.94531 -1.73047,1.43555 -1.73047,1.4375 -1.29297,-0.80079 -1.29297,-0.79882 2.80078,-3.80469 2.80078,-3.80469 7.17774,0.51367 7.17773,0.51172 0.7461,-2.35156 0.74804,-2.35352 1.54102,2.10938 1.54297,2.10937 3.0332,-1.71093 c 1.6683,-0.94101 3.42409,-2.25353 3.90039,-2.91797 l 0.86524,-1.20899 -1.21094,-1.45703 -1.20899,-1.45898 1.63477,-0.62696 1.63477,-0.6289 z m -94.45704,0.54687 0.83399,0.83399 0.83398,0.83398 -1.66797,0 -1.66601,0 0.83398,-0.83398 0.83203,-0.83399 z m -21.25,2.61133 0,1.20117 c 0,0.66132 1.54692,1.90975 3.4375,2.77344 l 3.4375,1.57031 12.83399,0.91993 12.83203,0.91992 1.81445,2.39843 c 0.9981,1.31914 1.83347,2.89062 1.85547,3.49219 l 0.0391,1.09375 3.8125,-0.76367 3.8125,-0.76172 -0.70703,1.14453 -0.70898,1.14453 1.02539,0.63477 c 0.5639,0.34847 3.39,0.1023 6.2793,-0.54688 l 5.2539,-1.18164 2.49024,-2.49218 2.49218,-2.49024 1.875,0 1.875,0 0,1.72266 0,1.72265 -3.75,1.55469 c -2.0625,0.85431 -3.75,1.9678 -3.75,2.47656 l 0,0.92579 3.13282,-0.59961 3.13281,-0.59766 1.79297,1.48828 1.79297,1.48828 -0.53711,1.47071 -0.53711,1.47265 1.23633,1.875 1.23632,1.875 1.05274,-1.6289 1.05078,-1.62696 10.51172,0.21485 10.50976,0.21289 5,1.34375 c 5.42391,1.45603 10.625,4.3234 10.625,5.85742 0,0.52829 -1.32937,1.2146 -2.95507,1.52539 l -2.95703,0.56445 -2.28321,-1.66992 c -1.2557,-0.91815 -3.01807,-1.66797 -3.91797,-1.66797 l -1.63672,0 0,2.5 0,2.5 -4.375,0 -4.375,0 0,-1 c 0,-0.55 0.63722,-1.63722 1.41602,-2.41601 l 1.41602,-1.41602 -0.76172,-1.98828 -0.76367,-1.98828 -4.57618,1.91211 -4.57812,1.91406 -1.73047,-1.4375 c -2.3056,-1.91349 -2.86421,-1.07315 -1.56641,2.35742 l 1.06446,2.8125 3.84961,0 3.84961,0 3.0664,3.30664 3.06445,3.30664 0,2.31836 0,2.31836 2.84766,0 2.8457,0 2.83008,1.98047 2.82813,1.98047 -0.7793,2.45508 -0.7793,2.45312 1.50782,1.81446 1.50586,1.8164 -3.27735,0 -3.2793,0 0.0313,0.9375 c 0.0163,0.51562 2.2663,2.59077 5,4.61328 2.73378,2.0225 4.96875,4.06972 4.96874,4.54883 10e-6,0.4791 -1.96879,1.24 -4.375,1.69141 l -4.375,0.82226 0,1.40625 c 10e-6,0.77409 0.96288,2.47026 2.13868,3.76953 l 2.13867,2.36329 -1.82617,1.15429 -1.82618,1.1543 3.0625,0.0195 3.0625,0.0195 -1.5,1.5 c -0.82498,0.825 -1.49999,1.97716 -1.5,2.5625 l 0,1.06445 6.8711,-0.27734 6.86914,-0.27734 0.83789,0.83789 0.83984,0.83984 -2.04492,0 -2.04297,0 0.64258,1.67383 0.64258,1.67383 -1.93164,1.60351 -1.9336,1.60352 -1.65429,-1.37305 -1.6543,-1.37304 -1.37891,1.3789 -1.3789,1.37891 -3.52734,-0.88672 -3.52735,-0.88477 2.82227,-1.50976 2.82422,-1.51172 -1.51172,-1.51172 c -0.8316,-0.83164 -2.43179,-1.51172 -3.55469,-1.51172 -1.1229,0 -2.39598,-0.35687 -2.83008,-0.79101 l -0.79101,-0.78907 1.19726,-2.23437 1.19531,-2.23438 -1.55273,-0.52343 -1.55274,-0.52344 -1.4375,1.95312 -1.4375,1.95313 0.66407,4.09375 0.66406,4.0957 -1.33594,0 -1.33593,0 0.19726,2.62695 0.19922,2.62696 4.60742,-0.61719 4.60938,-0.61914 1.05273,0.98828 c 0.5792,0.54314 3.58395,1.33343 6.67773,1.75781 3.09371,0.42438 6.85523,0.94597 8.35743,1.15821 1.5021,0.21223 3.4709,0.9934 4.375,1.73633 0.9041,0.74292 3.04879,1.60978 4.76757,1.92578 l 3.125,0.57422 -4.83984,0.16992 -4.83984,0.17187 1.71484,2.0918 1.71484,2.0918 -3.125,-0.95118 c -1.71879,-0.52248 -5.3759,-1.35428 -8.1289,-1.84765 -2.7529,-0.49336 -6.86025,-1.8204 -9.12695,-2.95117 l -4.1211,-2.05665 -1.81055,0.69532 -1.8125,0.69531 0,-1.86328 0,-1.86328 -2.375,-0.6211 c -1.3066,-0.34174 -3.88296,-0.33288 -5.72656,0.0195 l -3.35351,0.64063 -0.70313,1.83398 c -0.3872,1.00895 -2.02954,3.15849 -3.64844,4.77735 -1.6188,1.61885 -2.94336,3.4233 -2.94336,4.00976 0,1.10993 -6.322,4.18265 -13.7871,6.69922 -2.3853,0.8041 -4.96026,1.94566 -5.72266,2.53711 -1.9349,1.50104 -13.06234,4.78243 -16.27344,4.79883 l -2.66015,0.0137 -1.38672,1.66992 -1.38672,1.66993 -13.45313,-0.54883 -13.45508,-0.55078 -2.5,-1.5625 c -3.15008,-1.96889 -9.09804,-3.22745 -18.99414,-4.01758 l -7.74609,-0.61914 -1.4707,-1.77149 c -0.8085,-0.97422 -2.14957,-1.76953 -2.98047,-1.76953 l -1.50977,0 -1.67187,3.12305 -1.67188,3.12305 0.86328,0.86328 0.86329,0.86328 -5.28711,5.38867 -0.002,0 -5.28711,5.38867 -1.93359,0 -1.93359,0 -4.36914,-5.69531 c -2.403,-3.13175 -5.39549,-6.72776 -6.65039,-7.99219 l -2.28126,-2.29883 1.31836,-0.8164 1.31836,-0.81446 -1.39257,-2.23046 -1.39258,-2.22852 1.26562,-8.65039 1.26758,-8.64844 -0.89453,-1.875 -0.89453,-1.875 0.34765,-7.46094 0.34571,-7.46093 -1.02149,-1.28907 -1.02148,-1.28906 0.38672,-3.75 c 0.2132,-2.0625 0.69662,-6.23551 1.07422,-9.27344 l 0.68554,-5.52539 -1.42382,-1.71679 -1.42579,-1.7168 1.44727,-1.44727 1.44726,-1.44531 -0.125,-6.3125 c -0.0685,-3.47188 -0.51448,-7.71823 -0.99218,-9.43555 l -0.86914,-3.12304 -3.06836,-0.62696 c -3.5559,-0.72712 -11.19532,-5.1196 -11.19532,-6.4375 0,-0.49293 1.14874,-1.26142 2.55274,-1.70703 l 2.55273,-0.81054 4.77735,0.80664 4.77734,0.80859 2.14258,-2.14258 2.14062,-2.14258 -0.60156,-2.30859 -0.60351,-2.30664 5.66406,-2.50586 5.66601,-2.50586 3.4375,0 3.4375,0 1.61719,-1.94922 1.61719,-1.94726 16.67383,0.83984 16.67383,0.83985 1.86328,-1.54493 1.86132,-1.54492 z m 26.25196,0.13086 2.54883,0.40039 2.54882,0.40039 0.0176,1.25 c 0.0201,1.52137 -3.02278,2.29944 -4.23828,1.08399 -0.482,-0.4821 -0.87695,-1.38512 -0.87695,-2.00586 l 0,-1.12891 z m 68.74804,2.52734 1.25,0.77149 c 0.6875,0.4249 1.25,1.02105 1.25,1.32422 0,0.30318 -0.5625,0.55078 -1.25,0.55078 -0.6875,0 -1.25,-0.59419 -1.25,-1.32227 l 0,-1.32422 z m -58.70507,0.14844 c 1.3979,0 4.95507,3.65222 4.95507,5.08789 1e-5,1.90825 -2.51891,1.31346 -3.32421,-0.78515 l -0.74805,-1.94727 -1.64844,0.63281 -1.65039,0.63282 0.69531,-1.81055 c 0.3823,-0.99623 1.15581,-1.81055 1.72071,-1.81055 z m -141.14649,3.75 2.42578,0 2.42578,0 0,1.25 0,1.25 -3.19726,0 -3.19922,0 0.77148,-1.25 0.77344,-1.25 z m 34.85156,2.08203 0.83399,0.83399 0.83398,0.83398 -1.66797,0 -1.66601,0 0.83398,-0.83398 0.83203,-0.83399 z m -3.60156,1.66797 1.25,0 -0.77344,1.25 c -0.42489,0.6875 -1.33398,1.25 -2.02148,1.25 l -1.25,0 0.77148,-1.25 c 0.4249,-0.6875 1.33594,-1.25 2.02344,-1.25 z m -32.64844,1.25 3.125,0 3.125,0 0,1.875 c 0,1.03125 0.0428,2.28281 0.0938,2.78125 0.0516,0.49843 -0.5109,1.10717 -1.25,1.35352 l -1.34376,0.44726 0,-1.97851 0,-1.97852 -1.875,0 -1.875,0 0,-1.25 0,-1.25 z m 10,1.25 c 0.6875,0 1.25,0.5625 1.25,1.25 0,0.6875 -0.5625,1.25 -1.25,1.25 -0.6875,0 -1.25,-0.5625 -1.25,-1.25 0,-0.6875 0.5625,-1.25 1.25,-1.25 z m -15.11718,3.75 3.21679,1.46485 3.2168,1.46484 -0.44922,1.34766 c -0.2467,0.74091 -1.2464,1.4487 -2.2207,1.57421 -2.0678,0.26639 -8.98538,-2.07777 -9.89649,-3.35351 -0.34379,-0.48132 -1.46879,-1.19533 -2.5,-1.58789 l -1.875,-0.71289 5.25391,-0.0996 5.25391,-0.0977 z m 31.51562,5 1.25,0 -0.77344,1.25 c -0.42489,0.6875 -1.33398,1.25 -2.02148,1.25 l -1.25,0 0.77148,-1.25 c 0.4249,-0.6875 1.33594,-1.25 2.02344,-1.25 z m -4.52344,2.88672 4.6875,0.56836 4.6875,0.56836 0,0.95703 c 1e-5,0.52634 -1.75775,1.30859 -3.90624,1.73828 -2.14842,0.42968 -4.36479,0.78125 -4.92579,0.78125 -1.5696,0 -2.34908,-1.84619 -1.39648,-3.30469 l 0.85351,-1.30859 z m 218.14844,0.93164 3.11328,1.18555 c 1.7128,0.6512 3.11328,1.47908 3.11328,1.83984 10e-6,1.05956 -6.72201,0.71365 -8.54101,-0.43945 l -1.66797,-1.05664 1.99024,-0.76367 1.99218,-0.76563 z m 7.47656,3.91797 5.21094,0.50195 5.20899,0.50196 2.02343,1.83203 2.0254,1.83203 2.93359,-0.76758 2.93359,-0.76758 -0.55859,1.67383 c -0.3069,0.92066 -1.08587,1.76678 -1.73047,1.87891 -3.7185,0.64686 -18.04687,-3.98043 -18.04688,-5.82813 l 0,-0.85742 z m -18.03124,2.18164 1.51562,4.19141 c 0.8337,2.30545 1.51563,4.57419 1.51562,5.04101 10e-6,0.97023 -2.41865,1.17483 -2.65624,0.22461 -0.0859,-0.34375 -0.23855,-1.32813 -0.33985,-2.1875 l -0.18359,-1.5625 -2.25782,0.38867 -2.25585,0.38868 0.41015,-2.875 0.4082,-2.87696 1.92188,-0.36718 1.92188,-0.36524 z m -229.39454,0.082 1.32422,0 -0.77344,1.25 c -0.42489,0.6875 -1.01906,1.25 -1.32226,1.25 -0.3031,0 -0.55273,-0.5625 -0.55274,-1.25 0,-0.6875 0.59612,-1.25 1.32422,-1.25 z m 6.08008,2.77344 c 0.20475,-0.0213 0.39279,-0.0189 0.55664,0.01 0.18726,0.0327 0.34181,0.10157 0.45117,0.21093 0.3042,0.30423 -0.62088,1.17988 -2.05468,1.94727 l -2.60743,1.39648 0,-1.16015 c 0,-0.98361 2.22106,-2.25538 3.6543,-2.4043 z m 194.95899,0.7832 2.86914,0.40821 2.86718,0.41015 0.38672,2.0293 0.38672,2.0293 -2.87305,0.51953 c -3.5782,0.64524 -7.25,-0.0602 -7.25,-1.39258 1e-5,-0.55292 0.81325,-1.67945 1.80665,-2.50391 l 1.80664,-1.5 z m -225.00977,0.19336 2.02148,0 2.02344,0 -0.77344,1.25 c -0.42489,0.6875 -0.98739,1.25 -1.25,1.25 -0.2626,0 -0.8251,-0.5625 -1.25,-1.25 l -0.77148,-1.25 z m 242.7207,0 1.32422,0 -0.77344,1.25 c -0.42489,0.6875 -1.01906,1.25 -1.32226,1.25 -0.3032,0 -0.55273,-0.5625 -0.55274,-1.25 1e-5,-0.6875 0.59622,-1.25 1.32422,-1.25 z m -208.82422,3.48242 0,1.81446 c 1e-5,0.99825 -1.02795,2.74501 -2.28515,3.88281 -2.729,2.46971 -3.02954,2.50562 -4.96485,0.57031 -2.0658,-2.06578 -1.88069,-3.09946 0.6875,-3.83789 1.20311,-0.34593 3.17191,-1.03399 4.375,-1.5293 l 2.1875,-0.90039 z m 202.57422,0.26758 1.32422,0 -0.77344,1.25 c -0.42489,0.6875 -1.01906,1.25 -1.32226,1.25 -0.3032,0 -0.55273,-0.5625 -0.55274,-1.25 1e-5,-0.6875 0.59622,-1.25 1.32422,-1.25 z m 8.91016,6.25 2.70703,0 2.70899,0 1.56054,2.5 1.56055,2.5 -3.61328,0 -3.61524,0 -0.65429,-2.5 -0.6543,-2.5 z m -5.84375,1.25 1.85937,0 0,1.25 0,1.25 -1.91406,0 -1.91406,0 -0.71875,1.875 c -0.7879,2.0532 -2.44255,2.46079 -3.43945,0.84766 l -0.63477,-1.02735 2.45117,-2.09765 c 1.3476,-1.15389 3.28715,-2.09766 4.31055,-2.09766 z m -14.39063,2.08203 0,1.66797 0,1.66602 0.83399,-0.83399 0.83398,-0.83203 -0.83398,-0.83398 -0.83399,-0.83399 z m -190.32031,3.07813 c 0.4393,-0.0654 1.16351,0.51352 2.09766,1.79101 l 1.75195,2.39454 -0.58789,0.95117 c -1.1027,1.78421 -2.64674,0.95601 -3.36914,-1.80664 -0.54855,-2.09771 -0.45739,-3.24606 0.10742,-3.33008 z m 260.32031,3.58984 1.4043,0 1.40235,0 -1.55665,1.875 c -0.8559,1.03125 -2.33024,1.875 -3.27734,1.875 l -1.72266,0 0,-1.21094 0,-1.21093 1.875,0.71875 1.875,0.71875 0,-1.38282 0,-1.38281 z m -61.25,0.83203 0.83399,0.83399 0.83398,0.83398 -1.66797,0 -1.66601,0 0.83398,-0.83398 0.83203,-0.83399 z m 37.5,1.25 0.83399,0.83399 0.83398,0.83398 -1.66797,0 -1.66601,0 0.83398,-0.83398 0.83203,-0.83399 z m -208.80859,3.69141 0.93164,0.92969 0.92969,0.93164 -1.83789,1.16406 c -1.0113,0.63959 -2.38192,1.17164 -3.04492,1.18164 l -1.20508,0.0195 2.11328,-2.11328 2.11328,-2.11328 z m -21.19141,0.47656 1.74219,0 1.74219,0 0.71875,1.875 0.71875,1.875 -2.46094,0 -2.46094,0 0,-1.875 0,-1.875 z m 240.2461,0.875 0.99414,1.60742 0.99414,1.60938 3.30859,-0.63281 3.30664,-0.63282 -0.42773,1.28125 -0.42578,1.28125 -7.24219,0.39258 -7.24219,0.39063 3.36719,-2.64844 3.36719,-2.64844 z m -36.4961,7.875 0,1.25 c 0,1.56615 -1.32659,1.56615 -3.75,0 l -1.875,-1.21289 2.8125,-0.0195 2.8125,-0.0176 z m 43.75,0 c 0.6875,0 1.25,0.5625 1.25,1.25 0,0.6875 -0.5625,1.25 -1.25,1.25 -0.6875,0 -1.25,-0.5625 -1.25,-1.25 0,-0.6875 0.5625,-1.25 1.25,-1.25 z m -21.17578,6.25 1.32422,0 -0.77344,1.25 c -0.42489,0.6875 -1.01906,1.25 -1.32226,1.25 -0.3032,0 -0.55273,-0.5625 -0.55274,-1.25 10e-6,-0.6875 0.59622,-1.25 1.32422,-1.25 z m -240.69922,1.36133 2.5,0.0312 c 1.37501,0.0173 3.58867,0.45794 4.91797,0.97852 l 2.41797,0.94726 -1.16797,0.66602 -1.16797,0.66601 -3.75,-1.64453 -3.75,-1.64453 z m 220.9375,1.0332 1.40626,0.5 1.40624,0.49805 -0.1875,2.13867 -0.1875,2.14063 1.75,-0.67188 1.75,-0.67187 0,1.83593 0.002,0 0,1.83594 -2.91797,0 c -1.6042,0 -3.21041,-0.29635 -3.57031,-0.65625 -0.3602,-0.35992 -0.38368,-2.06944 -0.0527,-3.80078 l 0.60156,-3.14844 z m 6.01758,0.10547 2.61328,0 2.61329,0 -1.55665,1.875 c -0.85589,1.03125 -1.70647,1.875 -1.89257,1.875 -0.186,0 -0.6628,-0.84375 -1.0586,-1.875 l -0.71875,-1.875 z m -226.68164,5.625 1.11328,0.39453 1.11328,0.39258 -0.36718,1.79492 -0.36719,1.79297 2.00391,0 2.0039,0 -0.77344,1.25 c -0.96699,1.56463 -3.18609,1.57038 -5.625,0.0156 l -1.875,-1.19532 1.38672,-2.22265 1.38672,-2.22266 z m 236.10352,0.58594 4.3125,0.9043 4.31054,0.90234 -3.75,0.84375 c -2.0625,0.46334 -4.85457,0.90883 -6.20507,0.99023 l -2.45508,0.14844 1.89453,-1.89453 1.89258,-1.89453 z m -229.50196,1.28906 1.5625,0.0879 c 0.8594,0.0483 2.6875,0.57125 4.0625,1.16211 l 0,-0.002 2.5,1.07422 -4.0625,0.0898 -4.0625,0.0879 0,-1.25 0,-1.25 z m 260.5,0.44531 c 0.54093,-0.0278 1.94796,0.78232 3.38672,1.98047 l 2.98828,2.49024 -1.875,-0.006 c -1.99639,-0.006 -5.64193,-3.43615 -4.67773,-4.40039 0.0395,-0.0395 0.10047,-0.0605 0.17773,-0.0645 z m -2.95898,2.0879 c 0.66364,-0.0406 1.20899,0.29291 1.20898,1.02539 0,0.58243 -1.26569,1.64735 -2.8125,2.36718 l -2.8125,1.3086 1.875,0.65234 c 1.03121,0.35904 3.42181,0.99198 5.3125,1.40625 l 3.4375,0.75391 0,1.24023 0,1.24219 -4.6875,-0.70703 -4.6875,-0.70508 -4.375,2.45703 -4.375,2.45508 0.3125,1.35937 c 0.37001,1.61 -0.92556,1.72593 -3.19726,0.28516 l -1.63477,-1.03711 0.83399,-3.31836 0.83203,-3.31836 -2.08399,0 -2.08398,0 0.77148,-1.25 0.77344,-1.25 2.97656,0 2.97852,0 0.77148,-1.25 0.77344,-1.25 3.60156,0 3.60352,0 0.77148,-1.25 c 0.47047,-0.76123 1.25238,-1.17623 1.91602,-1.21679 z m -44.3418,1.21679 1.80078,0 0,1.25 0,1.25 -2.57226,0 -2.57422,0 0.77148,-1.25 c 0.42491,-0.6875 1.58362,-1.25 2.57422,-1.25 z m -217.92382,5.80469 5.80078,1.53906 5.79882,1.53906 1.83204,1.8086 1.83007,1.80859 -2.80664,0 -2.80859,0 -0.76758,2 -0.76758,2.00195 1.74414,1.10352 1.74414,1.10547 -3.98828,0.0195 -3.98828,0.0195 -0.77344,1.25 -0.77148,1.25 -5.23828,-0.0859 -5.24024,-0.084 -2.8125,-1.35742 c -3.15969,-1.52386 -3.29383,-2.04477 -1.64453,-6.38281 l 1.16797,-3.07032 5.84571,-2.23242 5.84375,-2.23242 z m 27.00586,0.16406 1.40429,0.4668 1.40235,0.4668 -1.72852,2.36328 -1.72656,2.36132 -0.95703,-1.54687 -0.95703,-1.54883 1.28124,-1.28125 1.28126,-1.28125 z m 205.14648,1.53125 c 0.6469,0 1.52238,0.5625 1.94726,1.25 l 0.77344,1.25 -1.94922,0 -1.94922,0 0,-1.25 c 10e-6,-0.6875 0.53084,-1.25 1.17774,-1.25 z m -7.44336,9.72461 3.13281,0.78516 3.13281,0.78711 0,1.22656 0,1.22656 -2.5,0 -2.5,0 -0.18945,2.1875 c -0.1047,1.20312 -0.24836,2.98406 -0.31836,3.95899 -0.0701,0.97492 -0.77606,1.98979 -1.56836,2.2539 l -1.43945,0.47852 -2.02539,-2.87696 -2.02734,-2.87695 1.91015,-0.40429 c 1.05,-0.22229 1.9082,-0.92542 1.9082,-1.5625 l 0,-1.15821 -3.82226,0 -3.82422,0 0.74219,-1.20312 c 0.4085,-0.66087 2.6888,-1.56567 5.0664,-2.01172 l 4.32227,-0.81055 z m 23.95703,2.31055 1.07227,1.73437 c 0.5897,0.95421 0.79407,2.18398 0.45508,2.73242 -0.82822,1.34024 -3.90326,1.26813 -4.75586,-0.11132 l -0.6836,-1.10742 1.95508,-1.625 1.95703,-1.62305 z m 9.93945,2.99219 3.37305,2.10742 c 1.8547,1.15927 3.60608,2.27826 3.89258,2.48633 1.1538,0.83813 -3.20946,0.1433 -5.91406,-0.94141 l -2.89258,-1.16016 0.77148,-1.24609 0.76953,-1.24609 z m -252.92578,7.43554 2.05469,0.78906 2.05469,0.78907 -1.43555,1.72851 c -0.7892,0.95097 -1.22485,1.78276 -0.96875,1.84766 0.256,0.0649 2.85546,0.17444 5.77734,0.24414 l 5.3125,0.12695 0,1.47852 0,1.47851 -3.4375,1.29883 c -1.8906,0.71379 -5.44102,1.57337 -7.89062,1.91016 l -4.45312,0.61133 0.5332,-3.63282 0.5332,-3.63281 -0.84961,0 c -0.467,0 -1.93778,0.58129 -3.26758,1.29297 l -2.41797,1.29492 0,1.83008 0,1.83203 -2.77734,0 -2.77734,0 2.95703,-2.07226 2.95898,-2.07422 -2.29297,-1.67578 -2.29492,-1.67774 2.54688,0 c 1.4008,0 4.25314,-0.85164 6.33984,-1.89258 l 3.79492,-1.89453 z m 206.54492,2.53711 1.74219,0 1.74219,0 0.78711,2.05274 c 0.4358,1.12965 0.62935,2.21246 0.43555,2.40625 -0.6889,0.68885 -4.70704,-2.10369 -4.70704,-3.27149 l 0,-1.1875 z m -185.14648,3.75 2.02148,0 2.02344,0 -0.77344,1.25 c -0.42489,0.6875 -0.98739,1.25 -1.25,1.25 -0.2626,0 -0.8251,-0.5625 -1.25,-1.25 l -0.77148,-1.25 z m 3.43555,8.8086 c 1.26355,0.0458 2.94591,0.47645 5.06836,1.29101 l 3.51757,1.34961 -3.75,3.01953 c -2.0625,1.66008 -4.03128,3.01567 -4.375,3.01367 -0.34379,-0.002 -1.31204,-1.48299 -2.15234,-3.29297 l -1.52734,-3.29101 0.66406,-1.07422 c 0.44595,-0.72154 1.29114,-1.06138 2.55469,-1.01562 z m 95.46093,13.27343 0.83399,0.83399 0.83398,0.83398 -1.66797,0 -1.66601,0 0.83398,-0.83398 0.83203,-0.83399 z m -96.25,5.41797 c 0.6875,0 1.25,0.5625 1.25,1.25 0,0.6875 -0.5625,1.25 -1.25,1.25 -0.6875,0 -1.25,-0.5625 -1.25,-1.25 0,-0.6875 0.5625,-1.25 1.25,-1.25 z m 222.28126,10.96875 1.64062,0.54492 1.63867,0.54688 -2.95898,0.77539 -2.96094,0.77344 1.32031,-1.32032 1.32032,-1.32031 z m -286.20899,9.95899 3.38281,2.66015 3.38282,2.66211 -3.84375,0 -3.84571,0 -0.83984,-1.35937 -0.83984,-1.35938 1.30273,-1.30273 1.30078,-1.30078 z m 253.30273,10.32226 1.875,0 0,1.875 c 0,1.95196 -1.47771,2.47932 -2.91601,1.04102 -1.4383,-1.43828 -0.91098,-2.91602 1.04101,-2.91602 z m 58.9043,0 c -0.947,0 -2.41702,0.83492 -3.26562,1.85742 l -1.54297,1.85938 0.72656,1.89062 0.72461,1.89258 1.78125,0 1.78125,0 0.75781,-1.97851 c 0.4173,-1.08747 0.75781,-2.77497 0.75781,-3.75 l 0,-1.77149 -1.7207,0 z m -189.76758,4.70313 1.50196,0.92968 1.5039,0.92969 -1.69531,1.07422 c -0.9327,0.59104 -2.52064,1.08375 -3.52734,1.09375 l -1.83008,0.0195 2.02344,-2.02344 2.02343,-2.02343 z m 98.98828,1.54687 1.10547,0 c 0.6073,0 1.39822,1.125 1.75782,2.5 l 0.65429,2.5 -1.75781,0 -1.75977,0 0,-2.5 0,-2.5 z m -140,6.24805 0,1.25 0,1.25 1.80274,0 c 0.9907,0 2.14738,-0.5625 2.57226,-1.25 l 0.77344,-1.25 -2.57422,0 -2.57422,0 z m 48.6504,54.48242 -3.35547,2.03516 c -1.8447,1.11931 -3.57441,2.70167 -3.84571,3.51562 l -0.49414,1.48047 2.96094,-0.89062 c 1.6282,-0.48969 3.76947,-1.66048 4.75977,-2.60157 l 1.80078,-1.71093 -0.91211,-0.91407 -0.91406,-0.91406 z m 26.3496,9.43164 c -0.56638,0 -1.13279,0.0864 -1.5625,0.25977 l -1.5625,0.6289 3.125,0 3.125,0 -1.5625,-0.6289 c -0.4297,-0.17338 -0.99609,-0.25977 -1.5625,-0.25977 z"
       id="path13878" />
  </g>
</svg>
