<?xml version="1.0" encoding="UTF-8" standalone="no"?>
<!-- Created with Inkscape (http://www.inkscape.org/) -->

<svg
   xmlns:dc="http://purl.org/dc/elements/1.1/"
   xmlns:cc="http://creativecommons.org/ns#"
   xmlns:rdf="http://www.w3.org/1999/02/22-rdf-syntax-ns#"
   xmlns:svg="http://www.w3.org/2000/svg"
   xmlns="http://www.w3.org/2000/svg"
   xmlns:sodipodi="http://sodipodi.sourceforge.net/DTD/sodipodi-0.dtd"
   xmlns:inkscape="http://www.inkscape.org/namespaces/inkscape"
   width="210mm"
   height="297mm"
   viewBox="0 0 744.09448819 1052.3622047"
   id="svg4143"
   version="1.1"
   inkscape:version="0.91 r13725"
   sodipodi:docname="C.svg">
  <defs
     id="defs4145" />
  <sodipodi:namedview
     id="base"
     pagecolor="#ffffff"
     bordercolor="#666666"
     borderopacity="1.0"
     inkscape:pageopacity="0.0"
     inkscape:pageshadow="2"
     inkscape:zoom="0.35"
     inkscape:cx="-145"
     inkscape:cy="520"
     inkscape:document-units="px"
     inkscape:current-layer="layer1"
     showgrid="false"
     inkscape:window-width="1920"
     inkscape:window-height="1055"
     inkscape:window-x="0"
     inkscape:window-y="25"
     inkscape:window-maximized="1" />
  <metadata
     id="metadata4148">
    <rdf:RDF>
      <cc:Work
         rdf:about="">
        <dc:format>image/svg+xml</dc:format>
        <dc:type
           rdf:resource="http://purl.org/dc/dcmitype/StillImage" />
        <dc:title></dc:title>
      </cc:Work>
    </rdf:RDF>
  </metadata>
  <g
     inkscape:label="Layer 1"
     inkscape:groupmode="layer"
     id="layer1">
    <path
       inkscape:connector-curvature="0"
       style="fill:#000000"
       d="m 178.32176,303.04707 -0.83203,0.83398 -0.83398,0.83399 1.66601,0 1.66797,0 -0.83398,-0.83399 -0.83399,-0.83398 z m 134.81055,4.16601 c -1.89308,0 -5.0145,0.63315 -6.9375,1.40625 -1.923,0.7731 -4.62305,1.86589 -5.99805,2.42774 -1.37499,0.56186 -4.22874,1.3593 -6.34374,1.77148 l -3.84571,0.74804 -3.0957,-1.17577 -3.0957,-1.17774 -2.42774,1.35938 -2.42969,1.35937 -8.75586,-0.26172 -8.75586,-0.26367 -6.12304,4.38086 -6.125,4.38086 -2.66992,-0.66992 -2.66993,-0.66993 -8.41992,3.77735 -8.41992,3.77734 -4.46875,4.72852 c -5.0568,5.34944 -15.47851,20.6994 -15.47852,22.79882 10e-6,0.76057 -0.84379,1.70585 -1.875,2.10157 -1.03129,0.39574 -1.875,1.25496 -1.875,1.91015 10e-6,1.08913 -4.9839,8.21206 -11.2246,16.04102 -1.3701,1.71875 -2.49782,3.74133 -2.50782,4.49414 -0.009,0.75283 -1.12753,2.37579 -2.48632,3.60547 l -2.47071,2.23633 0.75586,1.22265 0.75391,1.22266 -1.16211,0.79687 c -0.64,0.43876 -2.74333,2.90156 -4.67383,5.47266 l -3.50977,4.67383 0.6875,1.79687 0.68946,1.79689 -1.82813,1.51758 -1.82812,1.51757 0.73633,2.32227 0.73632,2.32422 -3.20898,1.21875 -3.20899,1.2207 0,3.70899 0,3.71093 -3.75,2.21485 -3.75,2.21484 0,2.18164 0,2.17969 -3.4375,3.27148 c -1.8907,1.80003 -4.68714,3.77311 -6.21484,4.38282 l -2.77734,1.10742 -0.73438,3.48242 c -0.4045,1.91494 -1.30444,4.52095 -1.99804,5.79102 l -1.25977,2.30859 0.88281,0.81641 0.88282,0.81445 0.55664,-1.5625 0.55859,-1.5625 2.91601,0 2.91797,0 0.49805,1.49414 0.49609,1.49219 -4.06054,6.16406 -4.0586,6.16601 -0.84961,5.1543 c -0.4673,2.8352 -1.3974,5.83285 -2.0664,6.66211 l -1.2168,1.50781 0.83984,1.35938 0.8418,1.36133 -1.48633,1.78906 -1.48632,1.79101 -0.39649,4.7168 c -0.2176,2.59433 -0.74247,8.52367 -1.16797,13.17578 l -0.77343,8.45899 2.23437,0.69531 c 0.83785,0.26064 1.97168,0.70368 2.95703,1.13867 0.46049,0.20329 0.89655,0.40577 1.24024,0.58594 l 1.96289,1.02734 3.17382,-0.60547 3.17383,-0.60742 0.76172,1.98633 0.76172,1.98828 -2.5332,0 -2.53516,0 0.77148,1.25 0.77344,1.25 -1.18164,0 c -0.6495,0 -2.55352,-0.71298 -4.23242,-1.58398 l -3.05273,-1.58399 0.45703,-1.85351 0.45898,-1.85352 -2.08398,2.82422 -2.08594,2.82617 -0.43359,9.04883 c -0.2395,4.97719 -0.15114,9.96663 0.19726,11.08789 l 0.63281,2.03906 3.71289,0.74219 3.71289,0.74414 0,1.90625 0,1.90625 -1.14453,0 c -0.6302,0 -1.41654,-0.70312 -1.74804,-1.5625 l -0.60352,-1.5625 0.31836,3.68945 0.32031,3.68946 3.61719,1.16797 c 1.9894,0.64268 3.83762,1.36073 4.10742,1.59375 0.2698,0.23301 -0.25682,1.32357 -1.16992,2.42382 l -1.66016,2 1.79493,1.13477 1.79296,1.13672 -4.0371,0.0195 -4.03907,0.0176 -0.84179,3.4375 c -0.4627,1.89063 -1.42623,3.82071 -2.14063,4.28711 l -1.29883,0.84765 1.41602,3.10743 1.41601,3.10742 -0.56445,12.82226 -0.5664,12.82227 0.7246,2.28516 0.72657,2.2832 1.58984,0 1.58984,0 1.42383,-3.125 c 1.633,-3.58406 3.01497,-3.91475 5.22656,-1.25 l 1.55665,1.875 -1.40235,0 c -0.7717,0 -1.4043,0.58136 -1.4043,1.29101 l 0,1.29102 2.8125,1.08008 2.8125,1.08203 -3.53906,1.38672 -3.53906,1.38476 0.54102,1.55469 0.54101,1.55469 2.99805,-0.14453 c 1.6491,-0.0803 3.27926,0.21436 3.62304,0.65429 0.34371,0.43993 2.15494,1.77232 4.02344,2.96094 l 3.39649,2.16016 -0.71875,1.87304 -0.7168,1.8711 -1.69727,0 -1.69921,0 -1.14258,2.1875 -1.14453,2.1875 0.61718,4.0625 0.61719,4.0625 -2.01758,0 -2.01758,0 0,1.25 0,1.25 1.73243,0 c 1.8282,0 5.02297,1.58061 11.70117,5.78711 l 4.05859,2.55664 -0.83008,0.82812 c -0.4558,0.45588 -1.85864,0.82813 -3.11914,0.82813 l -2.29297,0 0,-1.875 0,-1.875 -1.5625,0.0195 c -0.8594,0.0105 -2.17738,0.4324 -2.92968,0.9375 l -1.36719,0.91797 0.30078,5 c 0.1652,2.75 0.90473,6.54306 1.64453,8.42773 l 1.34571,3.42578 -0.64258,1.67188 -0.64063,1.66992 1.34961,3.54883 1.34961,3.54883 -1.43164,0.88476 -1.43359,0.88672 0.93359,2.96875 c 0.5129,1.63271 2.22318,4.17087 3.80078,5.64258 l 2.86719,2.67773 2.66406,-1.86718 2.66406,-1.86524 0.82032,0.82031 0.82031,0.82032 -1.75781,1.08594 -1.75782,1.08789 1.51368,1.82421 1.51367,1.82422 -2.18555,0.83985 -2.1875,0.83789 -1.41992,-1.94336 c -0.7814,-1.06868 -1.7809,-1.94336 -2.2207,-1.94336 -1.8771,0 -0.4929,3.42782 2.9707,7.35742 2.0516,2.32753 3.72851,4.91748 3.72851,5.75586 l 0,1.52539 4.03907,3.3457 4.03906,3.34571 3.14844,5.47461 c 8.617,14.97944 18.81577,31.6777 21.16797,34.66015 l 2.63281,3.33985 5.92383,2.2207 c 3.2582,1.22149 8.56396,4.01208 11.78906,6.20117 3.225,2.1891 8.35298,5.18489 11.39648,6.6582 3.0434,1.4733 6.53898,3.79079 7.76758,5.14844 1.2287,1.35765 2.9706,2.4668 3.8711,2.4668 l 1.63671,0 1.1836,2.21094 1.18164,2.20898 10.10547,5.29102 c 5.5577,2.90959 10.82206,5.28906 11.69726,5.28906 0.8752,0 3.58223,1.35422 6.01563,3.00781 2.4335,1.65358 5.79736,3.26479 7.47656,3.58008 1.6793,0.31529 4.09725,0.64859 5.37305,0.74219 l 2.32031,0.16992 3.72266,-3.13281 3.72461,-3.13282 1.05078,0.64844 1.05078,0.65039 3.26562,-1.48828 3.26758,-1.49023 -0.63476,-1.65235 -0.63282,-1.65234 3.39844,0.008 3.39648,0.008 2.13086,3.74219 2.12891,3.74219 1.93359,0 1.93162,0 0,-1.7207 0,-1.72266 5.4278,0.61133 5.4277,0.61328 5.1738,-3.26563 c 2.8449,-1.79592 5.9937,-3.26562 6.9981,-3.26562 1.0043,0 2.1468,-0.5197 2.539,-1.1543 0.3922,-0.63461 2.4353,-1.53165 4.541,-1.99414 l 3.8301,-0.8418 4.4004,-3.86328 4.4024,-3.86523 6.9296,-2.33985 6.9317,-2.33984 1.1953,1.19531 1.1953,1.19336 4.4082,-4.8789 4.4082,-4.88086 5.3653,-2.37305 5.3652,-2.37305 2.1191,-3.23242 2.1172,-3.23242 -0.6894,-1.79687 -0.6895,-1.79883 3.6777,-5.07617 c 2.0225,-2.79202 3.6758,-5.64249 3.6758,-6.33594 l 0,-1.26172 -1.9472,0 -1.9493,0 0.7715,-1.25 0.7735,-1.25 3.3906,0 3.3887,0 2.8222,-2.8125 c 3.2409,-3.23155 7.3966,-9.09315 12.2324,-17.25195 l 3.3711,-5.68946 3.5137,-2.49609 c 1.9319,-1.37245 5.367,-4.79047 7.6348,-7.5957 2.2677,-2.80524 6.8894,-8.29213 10.2695,-12.19336 l 6.1465,-7.09375 0.8652,-5.71094 0.8672,-5.71289 -2.6367,-6.71875 -2.6387,-6.71875 -3.125,-0.10156 -3.125,-0.10157 -5.625,-3.60547 c -3.0938,-1.98363 -7.3125,-4.5373 -9.375,-5.67382 -2.0625,-1.13651 -4.875,-3.03597 -6.25,-4.22071 -1.375,-1.18475 -9.0383,-5.94066 -17.0293,-10.57031 l -14.5273,-8.41797 -1.3828,-3.0332 -1.3809,-3.03125 -1.7168,0 c -1.5903,0 -6.1675,-3.58 -13.0293,-10.19141 -1.5495,-1.49305 -3.0267,-2.48297 -3.2832,-2.19922 -0.2565,0.28374 -1.6616,2.88287 -3.1211,5.77735 l -2.6543,5.26367 0,3.38867 0,3.38867 -2.1875,2.41211 c -1.2032,1.32624 -2.7658,4.46351 -3.4726,6.97266 l -1.2852,4.5625 -2.7773,0.39844 -2.7774,0.40039 -0.022,3.97461 -0.023,3.97656 -4.8926,4.0625 -4.8926,4.0625 -1.8066,0 c -0.9934,0 -2.4335,0.75509 -3.1992,1.67773 l -1.3906,1.67774 0.8222,0.82226 0.8223,0.82227 -1.5742,0 c -0.8655,0 -2.9629,1.09264 -4.6602,2.42773 l -3.0859,2.42774 -6.916,1.54687 -6.918,1.54883 -1.90039,2.89844 -1.90039,2.90039 -6.48047,0 -6.48243,0 -1.29492,1.29687 -1.29687,1.29493 -3.20703,-1.21875 c -1.7639,-0.67064 -3.59085,-1.84154 -4.06055,-2.60157 l -0.85547,-1.38086 1.58984,-1.91601 1.58985,-1.91602 -1.79492,-1.16797 -1.79493,-1.16796 -4.68164,0.74804 -4.68359,0.74805 -2.19141,-3.85156 -2.19336,-3.85157 -1.4082,-0.008 c -0.7752,-0.004 -2.11099,0.83594 -2.9668,1.86719 -0.8559,1.03125 -2.1092,1.875 -2.7871,1.875 l -1.23243,0 0.7461,-2.9707 0.74414,-2.97266 -3.58399,-0.7168 -3.58398,-0.71679 -1.9375,-1.93555 c -2.3894,-2.38941 -3.49897,-2.49023 -2.63477,-0.23828 l 0.65235,1.69922 -3.65039,-0.13672 -3.65235,-0.13672 -1.36132,-1.45117 -1.36133,-1.45313 6.19726,-0.85351 6.19531,-0.85157 0,-0.93945 c 0,-0.51644 -1.125,-1.9568 -2.5,-3.20117 l -2.5,-2.26172 0,-2.10547 0,-2.10547 -3.0996,-1.41406 -3.09961,-1.41211 0.68359,-1.78125 0.68359,-1.78125 -3.98632,-7.31836 c -9.6406,-17.70604 -11.18165,-20.79906 -11.18165,-22.44726 l 0,-1.74805 -1.26953,0 -1.26953,0 0.16211,-3.4375 c 0.1652,-3.52247 -1.03029,-11.71302 -4.40039,-30.16602 -1.0526,-5.76345 -1.63577,-10.92815 -1.29687,-11.47656 l 0.61523,-0.99609 -1.33008,-0.82422 -1.33203,-0.82227 1.1875,-1.45117 1.1875,-1.45117 -0.26562,-6.25 -0.26368,-6.25 1.78125,-2.81055 1.7793,-2.80859 -0.87305,-4.06641 c -2.0285,-9.44791 0.39823,-22.11687 5.73243,-29.93359 6.5245,-9.56083 7.55579,-11.21533 7.15429,-11.48242 -0.2324,-0.1546 -1.83012,-0.89463 -3.54883,-1.64454 l -3.125,-1.36328 1.875,-0.65429 c 1.03121,-0.35903 3.44479,-0.9967 5.36329,-1.41797 l 3.48828,-0.76563 3.69922,-5.83398 3.69921,-5.83203 0,-2.25586 0,-2.25586 1.8086,0 c 0.9944,0 5.17752,-1.97362 9.29492,-4.38672 l 7.48633,-4.38867 2.44726,-3.11133 2.44922,-3.11328 2.65821,0 2.66015,0 1.42774,-3.13281 1.42773,-3.13477 2.27344,2.05664 2.27148,2.05664 5.96094,-0.93945 c 14.81177,-2.33529 17.94128,-3.11807 29.64456,-7.41602 6.8386,-2.51145 12.6929,-4.82569 13.0097,-5.14257 0.3169,-0.31691 1.4015,0.12315 2.4102,0.97656 1.0087,0.8534 11.4669,6.3663 23.2402,12.25195 l 21.4043,10.70117 3.1504,6.17383 c 1.7319,3.3956 4.1494,8.79693 5.3731,12.00195 l 2.2246,5.82618 1.9941,0.76562 1.9961,0.76563 2.6309,-2.20899 c 7.4649,-6.2666 14.1489,-11.98406 16.3808,-14.01172 1.375,-1.24917 4.1875,-3.31397 6.25,-4.58789 2.0625,-1.27391 4.2003,-3.03232 4.75,-3.9082 0.5498,-0.87589 1.6271,-1.59375 2.3926,-1.59375 0.7654,0 6.5754,-3.09375 12.9121,-6.875 l 11.5215,-6.875 4.5254,0 c 2.4886,0 4.5234,-0.27669 4.5234,-0.61524 0,-0.33855 -2.4631,-5.54167 -5.4746,-11.5625 l -5.4746,-10.94726 -1.6152,-6.48047 -1.6153,-6.48048 -5.7226,-3.12695 -5.7227,-3.125 -2.8535,-7.42383 -2.8535,-7.42578 -2.1465,-1.86524 c -1.1803,-1.02587 -3.834,-2.64589 -5.8965,-3.5996 l -3.75,-1.73243 -1.2324,-2.80859 c -0.6786,-1.54383 -1.663,-2.80664 -2.1875,-2.80664 -0.5245,0 -0.9551,-0.71782 -0.9551,-1.5957 0,-1.9476 -8.5061,-13.66789 -14.2636,-19.6543 l -4.209,-4.375 -2.5117,-5.81445 -2.5137,-5.8125 -2.6153,-0.83008 -2.6132,-0.83008 -1.2383,0.76562 -1.2383,0.76563 -5.9609,-1.8418 c -3.2783,-1.01306 -9.1679,-2.81084 -13.0899,-3.99414 l -7.1328,-2.15234 -9.1172,0.006 -9.1191,0.004 -2.5,-1.56054 c -1.375,-0.85798 -6.0449,-2.79258 -10.377,-4.29883 l -7.8769,-2.73828 -5.56058,0 -5.56054,0 -0.0117,-0.83398 c -0.0166,-1.41635 -6.55347,-3.95899 -10.17969,-3.95899 z m -142.31055,0.002 0,2.88282 0,2.88476 3.88477,-0.26953 3.88672,-0.26758 1.25586,-1.25781 1.25586,-1.25586 -0.83985,-1.35937 -0.83984,-1.35743 -4.30078,0 -4.30274,0 z m 162.49998,18.57031 0,1.33985 0,1.33789 2.1875,0.008 2.1875,0.008 -3.5801,1.86914 0,-0.002 c -1.9692,1.02701 -4.641,1.86719 -5.93745,1.86719 l -2.35743,0 0,-1.25 0,-1.25 1.78711,0 c 0.98215,0 2.66967,-0.88252 3.74997,-1.96289 l 1.9629,-1.96485 z m 10,42.67969 3.6778,0 3.6757,0 0.6836,1.10742 0.6856,1.10743 -2.1738,0.51953 c -2.9526,0.7055 -6.5489,-0.15977 -6.5489,-1.57617 l 0,-1.15821 z m -31.07224,1.25 1.2207,0 -0.67968,1.09766 c -0.37362,0.60452 -1.81346,1.39545 -3.19922,1.75781 l -2.51954,0.66016 0,-1 c 0,-1.03657 3.04587,-2.51563 5.17774,-2.51563 z m -37.8457,13.54688 2.00976,3.88672 2.01172,3.88867 -0.75,1.21289 c -0.8933,1.44531 -4.35351,1.63488 -4.35352,0.23828 0,-0.53677 -1.6875,-1.61407 -3.75,-2.39258 l -3.75,-1.41406 0,-1.21289 c 0,-0.66704 0.98431,-1.49586 2.1875,-1.8418 1.2031,-0.34592 3.13432,-1.02058 4.29102,-1.49805 l 2.10352,-0.86718 z m 126.41794,2.28515 0.834,0.83399 0.834,0.83398 -1.668,0 -1.666,0 0.834,-0.83398 0.832,-0.83399 z m -55.7793,5.85352 c 0.4082,-0.0816 1.2449,0.49132 2.0059,1.4082 l 1.5801,1.90625 -1.3282,0 c -1.5107,0 -3.273,-2.37141 -2.4062,-3.23828 0.039,-0.0393 0.09,-0.0645 0.1484,-0.0762 z m 13.1328,0.81445 1.25,0 c 0.6875,0 1.5966,0.5625 2.0215,1.25 l 0.7735,1.25 -1.25,0 c -0.6875,0 -1.5986,-0.5625 -2.0235,-1.25 l -0.7715,-1.25 z m -127.35348,2.08203 0.83399,0.83399 0.83398,0.83398 -1.66797,0 -1.66601,0 0.83398,-0.83398 0.83203,-0.83399 z m 189.99998,0 0.834,0.83399 0.834,0.83398 -1.668,0 -1.666,0 0.834,-0.83398 0.832,-0.83399 z m -10.0722,1.66797 c 0.6469,0 1.5223,0.5625 1.9472,1.25 l 0.7735,1.25 -1.9493,0 -1.9492,0 0,-1.25 c 0,-0.6875 0.5308,-1.25 1.1778,-1.25 z m -116.32426,1.25 1.25,0 c 0.6875,0 1.5966,0.5625 2.02148,1.25 l 0.77344,1.25 -1.25,0 c -0.6875,0 -1.59854,-0.5625 -2.02344,-1.25 l -0.77148,-1.25 z m 136.72456,5.10938 -2.3515,1.7793 c -1.2934,0.97929 -2.9141,1.72219 -3.6016,1.65039 -3.8074,-0.3974 -7.6124,-1.35946 -8.4199,-2.1289 l -0.9199,-0.87696 7.6465,-0.2129 7.6464,-0.21093 z m -142.55073,2.69532 2.34765,0.61523 2.34766,0.61329 -0.68555,1.10742 c -0.7214,1.1673 -0.99779,1.18119 -4.77929,0.21289 l -2.36914,-0.60742 1.56836,-0.97071 1.57031,-0.9707 z m 48.54683,0.94531 1.3243,0 -0.7735,1.25 c -0.4249,0.6875 -1.0191,1.25 -1.3222,1.25 -0.3032,0 -0.5528,-0.5625 -0.5528,-1.25 0,-0.6875 0.5961,-1.25 1.3242,-1.25 z m -88.58394,0.0176 c 1.1625,-0.0105 2.45988,0.54492 2.88476,1.23242 l 0.77344,1.25 -1.01172,-0.0195 c -0.5562,-0.0105 -1.85551,-0.56402 -2.88672,-1.23047 l -1.875,-1.21289 2.11524,-0.0195 z m 23.14258,2.88281 c 0.69176,0.007 1.77623,0.44341 3.06445,1.34571 l 2.85938,2.0039 -2.70313,0 -2.70508,0 -0.82422,-1.33398 c -0.81961,-1.3261 -0.58081,-2.02526 0.3086,-2.01563 z m 140.22066,2.09961 1.25,0 c 0.6875,0 1.5966,0.5625 2.0215,1.25 l 0.7735,1.25 -1.25,0 c -0.6875,0 -1.5986,-0.5625 -2.0235,-1.25 l -0.7715,-1.25 z m -149.58199,4.46875 1.56445,2.14063 1.56641,2.14062 1.89258,0 1.89257,0 0,3.125 0,3.125 -3.53124,0 -3.53126,0 -1,-1.6582 c -0.5498,-0.91123 -2.01892,-2.03131 -3.26562,-2.49024 l -2.26758,-0.83398 0.86133,-1.39258 0.86133,-1.39258 -3.90625,0.85743 c -4.4836,0.98476 -5.08813,0.12943 -1.32813,-1.88282 l 2.58008,-1.38086 1.79492,1.49024 1.79492,1.48828 2.01172,-1.66797 2.00977,-1.66797 z m 27.22851,0.11328 0.83399,0.83399 0.83398,0.83398 -0.83398,0.83203 -0.83399,0.83399 0,-1.66602 0,-1.66797 z m -76.875,4.14258 4.375,0.49805 c 2.40621,0.27343 5.09893,0.55982 5.98243,0.63672 l 1.60547,0.14062 -1.3379,2.5 c -0.7359,1.375 -1.87966,2.5 -2.54296,2.5 l -1.20704,0 0.3125,-1.5625 0.3125,-1.5625 -5.625,-0.69922 -5.625,-0.69922 1.875,-0.875 1.875,-0.87695 z m 71.875,8.35742 0.83399,0.83399 0.83398,0.83398 -1.66797,0 -1.66601,0 0.83398,-0.83398 0.83203,-0.83399 z m -91.22851,0.26758 4.58008,0.38672 4.58203,0.38867 0.51172,1.5625 0.51367,1.5625 -4.3457,0 -4.34571,0 -0.74804,-1.95117 -0.74805,-1.94922 z m 23.72851,2.65039 2.69141,2.68945 2.68945,2.68946 -2.30273,1.68554 c -1.2673,0.92665 -2.62653,1.68555 -3.01953,1.68555 -0.3931,0 -1.27062,1.25439 -1.94922,2.78906 l -1.23438,2.79102 -3.125,1.58203 -3.125,1.58203 0.36524,1.40625 0.36328,1.40625 -2.23828,-0.96875 c -1.2313,-0.53287 -4.06844,-1.22681 -6.30274,-1.54101 l -4.0625,-0.57032 0,1.38477 0,0.002 0,1.38477 -1.35351,0 -1.35352,0 0.45703,-0.9375 c 0.25122,-0.51563 1.23209,-2.48438 2.17969,-4.375 l 1.72266,-3.4375 2.61133,0.0801 2.61132,0.0801 -3.09374,1.23437 -3.09571,1.23437 1.84571,1.16797 c 1.01468,0.64167 2.82805,1.17555 4.03124,1.18555 l 2.1875,0.0195 0,-1.16797 0,-1.16601 3.4375,-0.39649 3.4375,-0.39453 -0.35546,-1.69531 -0.35547,-1.69336 1.44531,-1.74414 1.44727,-1.74219 -1.40235,0 -1.4043,0 0.3125,-1.16211 c 0.1718,-0.63897 -0.81249,-2.02804 -2.1875,-3.08594 l -2.5,-1.92382 5.3125,-0.0391 5.3125,-0.0391 z m 15,0.83203 0.83399,0.83399 0.83398,0.83398 -1.66797,0 -1.66601,0 0.83398,-0.83398 0.83203,-0.83399 z m 8.75,0.41797 3.4375,0.0879 3.4375,0.0879 -2.5,1.07422 c -3.4143,1.46714 -4.37499,1.46714 -4.375,0 l 0,-1.25 z m -48.89648,1.25 2.64648,0 2.64844,0 -0.77344,1.25 c -0.42489,0.6875 -1.26868,1.25 -1.875,1.25 -0.6064,0 -1.4501,-0.5625 -1.875,-1.25 l -0.77148,-1.25 z m -3.18555,1.16797 1.29102,1.29102 1.29101,1.29101 -1.39648,0 c -0.7688,0 -2.2875,0.34049 -3.375,0.75781 l -1.97852,0.75977 0,-1.25 c 0,-0.6875 0.93779,-1.61094 2.08399,-2.05078 l 2.08398,-0.79883 z m 185.68361,0.24024 c 0.6797,0.008 1.3132,0.10028 1.7363,0.27148 l 1.5371,0.62305 -3.75,-0.0469 -3.75,-0.0469 2.2129,-0.57618 c 0.6081,-0.15842 1.334,-0.23302 2.0137,-0.2246 z m -130.53322,0.77539 -1.73046,2.08593 -1.73047,2.08594 1.13476,1.13477 1.13672,1.13671 4.97656,-1.12304 4.97657,-1.12305 0.43945,-1.31641 0.4375,-1.31445 2.48047,0 2.48047,0 -0.79493,2.5 -0.79296,2.5 1.02148,0 1.02148,0 0,3.23633 0,3.23828 -3.92773,-0.63672 -3.92773,-0.63867 -2.50196,1.75391 -2.5039,1.7539 -6.06836,-0.12109 -6.07032,-0.11914 -2.71093,-1.26563 -2.71094,-1.26562 -3.53906,2.4082 -3.53907,2.4082 -2.8125,-1.29687 -2.8125,-1.29883 0,-1.33789 0,-1.33789 4.9043,-2.16406 4.9043,-2.16406 2.9375,0.73828 2.93945,0.73828 3.04297,-1.12696 3.04492,-1.12695 -4.51562,-0.84765 -4.51563,-0.84571 -0.69922,-1.82422 -0.69921,-1.82226 2.76562,0.1875 c 1.5216,0.10304 5.28518,-0.25736 8.36328,-0.80078 l 5.5957,-0.98828 z m -63.06836,14.8164 1.48047,1.47852 c 0.8134,0.81355 1.18723,1.7698 0.83203,2.125 -0.83429,0.83424 -2.3125,-0.64402 -2.3125,-2.3125 l 0,-1.29102 z m 32.65626,0.23828 0.75585,0.75586 0.75586,0.75391 -2.39648,-0.0977 -2.39649,-0.0977 1.64063,-0.65821 1.64063,-0.65625 z m 37.11914,3.83008 3.86328,1.99805 c 2.1246,1.09864 3.86133,2.26374 3.86132,2.58984 0,1.24265 -5.76029,0.42863 -8.75,-1.23633 l -3.125,-1.74023 2.07618,-0.80469 2.07422,-0.80664 z m -31.0254,2.5332 1.25,0.77344 c 0.6875,0.4249 1.25,1.01909 1.25,1.32227 0,0.30317 -0.5625,0.55273 -1.25,0.55273 -0.6875,0 -1.25,-0.59614 -1.25,-1.32422 l 0,-1.32422 z m 3.75,3.89844 3.19922,0 3.19922,0 -0.77344,1.25 -0.77148,1.25 -2.42578,0 -2.42774,0 0,-1.25 0,-1.25 z m -15,7.23242 2.1875,0.95118 2.1875,0.95312 -2.1875,0.52344 c -2.53949,0.60738 -2.89309,2.39287 -0.625,3.15625 l 1.5625,0.52539 -1.71484,2.07812 -1.71484,2.08008 -2.21289,0 -2.21485,0 -0.75781,-1.97851 c -1.0446,-2.72213 -1.09405,-2.63961 2.05273,-3.50196 l 2.8125,-0.76953 -1.83984,-1.18359 -1.83984,-1.1836 2.15234,-0.82421 2.15234,-0.82618 z m 246.24998,3.59961 -0.832,0.83399 -0.834,0.83398 1.666,0 1.668,0 -0.834,-0.83398 -0.834,-0.83399 z m -224.99998,2.91797 2.1875,0.043 c 1.2031,0.0243 3.59372,0.8495 5.3125,1.83203 l 3.125,1.78516 -3.125,-0.0996 c -4.57538,-0.14745 -7.5,-1.08425 -7.5,-2.40234 l 0,-1.15821 z m 215.27348,3.75 c -1.6727,0 -17.6617,8.80763 -18.5254,10.20508 l -0.8184,1.32422 1.7227,1.08984 c 0.9474,0.60011 1.8833,1.10133 2.0781,1.11133 0.1948,0.0105 2.2531,-1.8801 4.5742,-4.20117 2.321,-2.32106 5.9572,-4.98918 8.082,-5.92969 3.5668,-1.57883 5.1884,-3.59961 2.8868,-3.59961 z m -214.02348,3.33203 0.83399,0.83399 0.83398,0.83398 -1.66797,0 -1.66601,0 0.83398,-0.83398 0.83203,-0.83399 z m -82.64648,0.41797 1.94922,0 1.94726,0 0,1.25 c 10e-6,0.6875 -0.52878,1.25 -1.17578,1.25 -0.6469,0 -1.52432,-0.5625 -1.94922,-1.25 l -0.77148,-1.25 z m -3.60352,6.25 2.36719,0 2.36719,0 0.78711,2.05274 c 0.4332,1.12965 0.63526,2.13741 0.44727,2.23828 -0.1881,0.10085 -1.60945,-0.0186 -3.15626,-0.26563 l -2.8125,-0.44922 0,-1.78906 0,-1.78711 z m 31.25,12.5 1.875,0 1.875,0 0,1.25 0,1.25 -1.875,0 -1.875,0 0,-1.25 0,-1.25 z m -28.89648,20 1.32422,0 c 0.7281,0 1.32226,0.5625 1.32226,1.25 10e-6,0.6875 -0.24758,1.25 -0.55078,1.25 -0.3031,0 -0.89932,-0.5625 -1.32422,-1.25 l -0.77148,-1.25 z m 73.60938,1.03711 2.94336,0.41797 2.94335,0.41992 0.38868,2.03516 0.38867,2.03711 -3.92969,0.57617 -3.92773,0.57617 -0.67578,-1.75976 -0.67579,-1.75782 1.27344,-1.27343 1.27149,-1.27149 z m -33.4629,5.21289 c 0.6875,0 1.25,0.5625 1.25,1.25 0,0.6875 -0.5625,1.25 -1.25,1.25 -0.6875,0 -1.25,-0.5625 -1.25,-1.25 0,-0.6875 0.5625,-1.25 1.25,-1.25 z m -10.39257,0.95508 2.69726,0.85742 2.69531,0.85547 0,1.55859 0,1.5586 -4.41601,2.10742 c -2.4296,1.15858 -4.6796,2.10742 -5,2.10742 -1.3291,0 -0.37415,-3.32635 1.74805,-6.08594 l 2.27539,-2.95898 z m 27.74609,4.04492 3.89648,0 3.89844,0 -0.77344,1.25 c -0.42489,0.6875 -1.83118,1.25 -3.125,1.25 -1.2939,0 -2.7001,-0.5625 -3.125,-1.25 l -0.77148,-1.25 z m -57.04102,0.625 0.57422,1.5625 0.57227,1.5625 2.39648,0 2.39453,0 0,1.80078 c 0,0.99068 -0.5625,2.14932 -1.25,2.57422 l -1.25,0.77149 0,-1.35547 0,-1.35352 -3.32812,-1.26562 -3.32812,-1.26563 1.60937,-1.51562 1.60937,-1.51563 z m 73.55079,1.52344 3.12695,1.42578 c 1.7201,0.78374 4.79011,1.42578 6.82031,1.42578 l 3.68945,0 0,1.875 0,1.875 -1.625,0 c -0.89378,0 -2.20682,-0.58382 -2.91992,-1.29687 l -1.29687,-1.29688 -3.46485,1.31641 -3.46484,1.31836 1.41211,1.70117 1.41211,1.70117 -2.3125,0.60547 -2.3125,0.60352 -2.32617,-1.70118 -2.32813,-1.70117 -2.88672,0 -2.88672,0 0,-1.21094 0,-1.21093 1.875,0.71875 1.875,0.7207 0,-1.85742 0,-1.85742 3.80665,-1.57618 3.80664,-1.57812 z m -37.4375,3.37305 7.72461,0.23242 c 10.0391,0.30168 9.5996,0.19054 9.5996,2.45508 l 0,1.95898 -2.32226,-0.73828 -2.32422,-0.73633 -1.58008,1.90235 c -0.8688,1.04676 -1.9371,1.90429 -2.375,1.90429 -0.4379,0 -1.49872,-1.125 -2.35742,-2.5 l -1.56055,-2.5 -1.79101,0 c -0.9848,0 -2.06645,-0.44466 -2.40235,-0.98828 l -0.61132,-0.99023 z m 32.32421,6.56054 0.83399,0.83399 0.83398,0.83398 -1.66797,0 -1.66601,0 0.83398,-0.83398 0.83203,-0.83399 z m 7.5,11.25 0.83399,0.83399 0.83398,0.83398 -1.66797,0 -1.66601,0 0.83398,-0.83398 0.83203,-0.83399 z m -25.1289,0.44532 1.93945,0.74414 c 1.067,0.40943 1.93946,0.96612 1.93945,1.23632 0,1.01239 -2.38113,0.44362 -3.11523,-0.74414 l -0.76367,-1.23632 z m 10.28516,0.96093 0.75585,0.75586 0.75586,0.75586 -2.39648,-0.0996 -2.39649,-0.0976 1.64063,-0.65821 1.64063,-0.65625 z m -7.92579,4.26758 c 4.034,-0.037 7.79802,0.13365 7.38672,0.54492 -0.2453,0.24539 -2.93145,0.90148 -5.96875,1.45899 l -5.52344,1.01367 -3.11132,-0.75391 -3.11328,-0.75195 1.32226,-0.81641 c 0.6693,-0.41364 4.97381,-0.65827 9.00781,-0.69531 z m 28.46875,4.74414 1.80078,0 0,1.25 0,1.25 -2.57226,0 -2.57422,0 0.77148,-1.25 c 0.42491,-0.6875 1.58362,-1.25 2.57422,-1.25 z m -38.64257,1.94336 c 0.66081,0.008 1.4964,0.0931 2.34765,0.25586 l 3.0957,0.5918 0,1.5957 c 0,0.87755 -0.70319,1.83964 -1.5625,2.13867 l -1.5625,0.54297 -2.08203,-2.17969 c -1.1458,-1.19943 -1.8358,-2.42786 -1.5332,-2.73046 0.1513,-0.15135 0.63606,-0.22237 1.29688,-0.21485 z m -7.05665,4.30664 1.875,0 c 1.03121,0 1.87501,0.22005 1.875,0.49024 10e-6,0.2702 -0.84378,0.8152 -1.875,1.21093 l -1.875,0.71875 0,-1.21093 0,-1.20899 z m 16.25,2.35156 0,2.57422 0,2.57422 -1.25,0 -1.25,0 0,-1.80273 c 0,-0.99067 0.5625,-2.14737 1.25,-2.57227 l 1.25,-0.77344 z m -13.80273,2.80469 c 1.30274,-0.0436 2.33596,0.0112 2.78711,0.17383 l 1.64062,0.5918 -3.4375,1.61328 c -1.8907,0.888 -3.43749,2.09953 -3.4375,2.6914 10e-6,0.59189 1.40622,1.71689 3.125,2.5 1.71871,0.78312 3.12501,1.89551 3.125,2.47266 l 0,1.05078 -2.1875,0.0176 -2.1875,0.0195 1.875,1.22656 1.875,1.22461 -4.78515,-0.30664 c -2.6319,-0.16889 -5.01688,-0.53788 -5.30078,-0.81836 -0.2839,-0.2805 0.13313,-1.29256 0.92773,-2.25 l 1.44531,-1.74023 -3.01757,-0.80469 -3.01954,-0.80273 3.125,-0.89649 3.125,-0.89648 -2.8125,-0.88281 c -1.5469,-0.48513 -2.8125,-1.34497 -2.8125,-1.91016 l 0,-1.02734 5.54688,-0.83204 c 1.5254,-0.22874 3.09765,-0.37047 4.40039,-0.41406 z m 21.30273,11.92578 0.83399,0.83399 0.83398,0.83398 -1.66797,0 -1.66601,0 0.83398,-0.83398 0.83203,-0.83399 z m -12.34374,1.40625 0.75585,0.75586 0.75586,0.75586 -2.39648,-0.0996 -2.39649,-0.0976 1.64063,-0.65821 1.64063,-0.65625 z m 36.09374,0.0781 0,1.9668 0,1.96679 -2.60351,0 -2.60352,0 0.51953,-1.5625 c 0.28612,-0.85938 1.45927,-1.74454 2.60547,-1.96679 l 2.08203,-0.4043 z m -72.64648,1.43359 3.19922,0 3.19726,0 0,1.25 0,1.25 -2.42578,0 -2.42578,0 -0.77344,-1.25 -0.77148,-1.25 z m 19.80274,1.15625 c 0.4985,-0.0516 1.10906,0.51093 1.35546,1.25 l 0.44727,1.34375 -1.66602,-0.16601 c -0.9166,-0.0905 -3.63675,-0.57751 -6.04297,-1.08399 l -4.375,-0.92187 4.6875,-0.16407 c 2.57812,-0.0905 5.09536,-0.20631 5.59376,-0.25781 z m 37.84374,0.0937 2.5,0 2.5,0 0,1.25 0,1.25 -2.5,0 -2.5,0 0,-1.25 0,-1.25 z m 3.50782,8.86719 c 0.3652,0.003 0.70733,0.0304 1.0039,0.0879 l 2.15625,0.41992 0.52149,1.5625 0.51953,1.5625 -1.04102,-0.14844 c -0.5729,-0.0813 -2.73046,-0.55653 -4.79297,-1.05468 l -3.75,-0.9043 2.11524,-0.92773 c 0.87217,-0.38241 2.17198,-0.60639 3.26758,-0.59766 z m 12.66992,7.38281 c 0.6469,0 1.52238,0.5625 1.94726,1.25 l 0.77344,1.25 -1.94922,0 -1.94922,0 0,-1.25 c 10e-6,-0.6875 0.53084,-1.25 1.17774,-1.25 z m -19.92774,6.10156 1.25,0.77344 c 0.6875,0.4249 1.25,1.30035 1.25,1.94727 0,0.64693 -0.5625,1.17773 -1.25,1.17773 l -1.25,0 0,-1.94922 0,-1.94922 z m -2.5,7.23047 0.83399,0.83399 0.83398,0.83398 -1.66797,0 -1.66601,0 0.83398,-0.83398 0.83203,-0.83399 z m 27.5,2.5 0.83399,0.83399 0.83398,0.83398 -1.66797,0 -1.66601,0 0.83398,-0.83398 0.83203,-0.83399 z m -36.39648,5.41797 1.32422,0 c 0.7281,0 1.32226,0.5625 1.32226,1.25 10e-6,0.6875 -0.24758,1.25 -0.55078,1.25 -0.3031,0 -0.89932,-0.5625 -1.32422,-1.25 l -0.77148,-1.25 z m 53.3457,0 c 0.3032,0 0.55078,0.5625 0.55078,1.25 10e-6,0.6875 -0.59416,1.25 -1.32226,1.25 l -1.32422,0 0.77148,-1.25 c 0.42491,-0.6875 1.02112,-1.25 1.32422,-1.25 z m -43.19922,3.33203 0.83399,0.83399 0.83398,0.83398 -1.66797,0 -1.66601,0 0.83398,-0.83398 0.83203,-0.83399 z m -15,0.26953 1.25,0.77344 c 0.6875,0.4249 1.25,1.0191 1.25,1.32227 0,0.30318 -0.5625,0.55273 -1.25,0.55273 -0.6875,0 -1.25,-0.59614 -1.25,-1.32422 l 0,-1.32422 z m -36.39648,5.14844 0.77148,1.25 c 0.42491,0.6875 1.30232,1.25 1.94922,1.25 0.647,0 1.17578,-0.5625 1.17578,-1.25 l 0,-1.25 -1.94726,0 -1.94922,0 z m 218.89646,2.08203 0.834,0.83399 0.834,0.83398 -1.668,0 -1.666,0 0.834,-0.83398 0.832,-0.83399 z m -212.49998,3.75 0.83399,0.83399 0.83398,0.83398 -1.66797,0 -1.66601,0 0.83398,-0.83398 0.83203,-0.83399 z m 48.60352,1.66797 1.875,0 c 1.0313,0 2.2216,0.5625 2.64648,1.25 l 0.77344,1.25 -1.875,0 c -1.0312,0 -2.22354,-0.5625 -2.64844,-1.25 l -0.77148,-1.25 z m -7.73828,3.76758 c 0.8188,-0.0105 1.83488,0.54492 2.25976,1.23242 0.95912,1.55191 0.52641,1.55191 -1.875,0 l -1.875,-1.21289 1.49024,-0.0195 z m 61.00976,3.83203 c 1.37501,-0.007 3.90622,0.79286 5.625,1.77539 l 3.125,1.78516 -1.875,-0.0566 c -1.03129,-0.0315 -3.56249,-0.82904 -5.625,-1.77344 l -3.75,-1.7168 2.5,-0.0137 z m 81.18168,2.39844 2.2226,0 2.2207,0 0,1.77734 0,1.77539 3.8164,0.83789 3.8164,0.83789 -0.4765,1.44922 -0.4766,1.44727 -2.4023,0.21094 c -2.4132,0.2101 -11.8385,-1.73109 -12.7285,-2.6211 -0.2619,-0.26192 0.5324,-1.65535 1.7656,-3.0957 l 2.2422,-2.61914 z m -132.90042,2.24023 0.75585,0.75586 0.75586,0.75586 -2.39648,-0.0996 -2.39649,-0.0976 1.64063,-0.65821 1.64063,-0.65625 z m 5,0 0.75585,0.75586 0.75586,0.75586 -2.39648,-0.0996 -2.39649,-0.0976 1.64063,-0.65821 1.64063,-0.65625 z m -1.55469,4.16993 c 0.67969,0.008 1.31318,0.10028 1.73633,0.27148 l 1.5371,0.62305 -3.75,-0.0469 -3.75,-0.0469 2.2129,-0.57618 c 0.6081,-0.15842 1.33398,-0.23301 2.01367,-0.2246 z m 36.07422,2.37695 c 0.9675,-0.0522 2.59053,0.81128 4.36328,2.46289 l 2.68359,2.5 -1.79883,0.0176 c -0.989,0.009 -3.15936,0.3813 -4.82226,0.82617 l -3.02149,0.80859 0.83399,-2.17773 c 0.4597,-1.19799 0.83593,-2.6949 0.83593,-3.32617 0,-0.71897 0.34528,-1.08004 0.92579,-1.11133 z m 82.82419,1.21289 1.0977,0 c 0.6033,0 1.8081,0.85837 2.6777,1.90625 1.8562,2.23655 1.4259,2.81879 -1.5879,2.14844 l -2.1875,-0.48633 0,-1.7832 0,-1.78516 z m -58.74998,1.25 1.875,0 1.875,0 0,1.25 0,1.25 -1.875,0 -1.875,0 0,-1.25 0,-1.25 z m -68.58203,1 0.78516,0.78711 c 0.4325,0.43249 0.90814,1.61365 1.05664,2.625 0.148,1.01135 0.17932,1.82073 0.0684,1.79883 -0.1111,-0.0219 -1.22064,-0.81052 -2.46484,-1.75391 l -2.26172,-1.7168 1.4082,-0.86914 1.4082,-0.87109 z m 184.98051,0.25 2.4257,0 2.4258,0 0,1.25 0,1.25 -3.1972,0 -3.1993,0 0.7715,-1.25 0.7735,-1.25 z m -74.99222,0.99023 0.75585,0.75586 0.75586,0.75391 -2.39648,-0.0977 -2.39649,-0.0996 1.64063,-0.65625 1.64063,-0.65625 z m 87.34372,1.50977 1.875,0 1.875,0 0,1.25 0,1.25 -1.875,0 -1.875,0 0,-1.25 0,-1.25 z m -187.74216,1.42187 2.30859,1.75 2.30859,1.75 -1.25,-0.0859 c -0.6875,-0.0467 -2.65628,-0.47633 -4.375,-0.95508 l -3.125,-0.86914 2.06641,-0.79492 2.06641,-0.79493 z m 90.24218,0.8125 1.875,0.71875 c 1.03126,0.39572 1.875,1.29873 1.875,2.00782 l 0,1.28906 -2.1875,-0.0176 c -1.20312,-0.0105 -3.01534,-0.5436 -4.02734,-1.18359 l -1.83984,-1.16407 2.15234,-0.82617 2.15234,-0.82422 z m -8.55273,0.89063 0.6582,1.64062 -0.002,0 0.65625,1.64063 -0.75391,0.75586 -0.75586,0.75586 0.0996,-2.39649 0.0977,-2.39648 z m -73.94727,1.45898 0.83399,0.83399 0.83398,0.83203 -0.83398,0.83398 -0.83399,0.83399 0,-1.66797 0,-1.66602 z m 125.07028,2.01758 3.2012,0.35156 c 1.7603,0.19323 3.5262,0.67659 3.9238,1.07422 l 0.7227,0.72266 -3.2598,0 -3.2597,0 -0.6641,-1.07422 -0.6641,-1.07422 z m 67.125,3.39844 1.3282,0 c 0.7311,0 1.7012,0.60074 2.1543,1.33398 1.3454,2.1768 -0.188,2.63802 -1.9024,0.57227 l -1.5801,-1.90625 z m -15.9453,0.83398 0.834,0.83399 0.834,0.83203 -1.668,0 -1.666,0 0.834,-0.83203 0.832,-0.83399 z m -186.07029,0.41602 2.48438,0 2.48437,0 -0.77734,1.25976 c -0.4279,0.69239 -2.43032,2.11223 -4.44922,3.15625 l -3.67188,1.89844 0,-1.1914 c 0,-0.65605 0.88445,-2.07786 1.96485,-3.15821 l 1.96484,-1.96484 z m 8.57031,0 1.94922,0 1.94922,0 -0.77344,1.25 c -0.42489,0.6875 -1.30036,1.25 -1.94726,1.25 -0.6469,0 -1.17773,-0.5625 -1.17774,-1.25 l 0,-1.25 z m 162.49998,1.25 2.8125,0.0195 2.8125,0.0195 -1.875,1.21094 c -2.4234,1.56615 -3.75,1.56615 -3.75,0 l 0,-1.25 z m 26.25,2.35351 1.25,0.77149 c 0.6875,0.4249 1.25,1.02105 1.25,1.32422 0,0.30318 -0.5625,0.55078 -1.25,0.55078 -0.6875,0 -1.25,-0.5942 -1.25,-1.32227 l 0,-1.32422 z m -131.24998,1.39649 3.75,0 3.75,0 0,1.17773 c 0,1.65854 -1.42909,2.15032 -4.6875,1.61328 l -2.8125,-0.46484 0,-1.16211 0,-1.16406 z m 81.24998,2.08398 0.834,0.83399 0.834,0.83203 -1.668,0 -1.666,0 0.834,-0.83203 0.832,-0.83399 z m -27.5,0.26953 1.25,0.77149 c 0.6875,0.4249 1.25,1.02105 1.25,1.32422 0,0.30318 -0.5625,0.55078 -1.25,0.55078 -0.6875,0 -1.25,-0.5942 -1.25,-1.32227 l 0,-1.32422 z m -28.4824,1.39649 3.30469,0.14648 3.30273,0.14453 -2.05859,0.54688 -2.05859,0.54687 -0.58789,2.24414 -0.58594,2.24415 -2.43555,0.63671 -2.43359,0.63672 -3.42774,-2.94726 -3.42578,-2.94922 2.94532,0 2.94335,0 1.45899,1.45898 1.45898,1.45899 0.80079,-2.08399 0.79882,-2.08398 z m 94.5859,0.625 1.5528,1.54297 1.5527,1.54101 -0.6992,0.69922 -0.6992,0.70117 -0.8535,-2.24218 -0.8536,-2.24219 z m -84.85348,10.47851 1.25,0.77149 c 0.6875,0.4249 1.25,1.54982 1.25,2.49805 l 0,1.72265 3.0586,-0.23437 3.05664,-0.23633 0.10742,1.25 0.10547,1.25 -2.85156,0.21484 -2.85157,0.21485 -2.73828,-2.99805 -2.73828,-2.99805 1.17578,-0.72851 1.17578,-0.72657 z m 50.17388,0.10743 1.164,0.71875 c 0.64,0.39553 1.1621,0.96636 1.1621,1.26953 0,0.30318 -0.8754,0.55078 -1.9472,0.55078 l -1.9493,0 0.7852,-1.26953 0.7852,-1.26953 z m -30.3223,2.69922 c 0.6797,0.008 1.3132,0.10028 1.7363,0.27148 l 1.5371,0.62109 -3.75,-0.0449 -3.75,-0.0469 2.2129,-0.57618 c 0.6081,-0.15841 1.334,-0.23301 2.0137,-0.2246 z m 1.3984,1.92382 0.834,0.83399 0.834,0.83203 -0.834,0.83398 -0.834,0.83399 0,-1.66797 0,-1.66602 z m 12.5,0.41602 1.875,0 1.875,0 0,1.25 0,1.25 -1.875,0 -1.875,0 0,-1.25 0,-1.25 z m -28.55076,5.625 0.62891,1.5625 c 0.34676,0.85937 1.31956,1.5625 2.16211,1.5625 0.84256,0 2.62444,0.82655 3.95894,1.83594 l 2.4278,1.83593 -1.875,-0.0449 c -1.0313,-0.0247 -3.14064,-0.65632 -4.68752,-1.40234 l -2.8125,-1.35547 0.0977,-1.99609 0.0996,-1.99805 z m -26.32617,0.47266 4.62695,1.53124 4.625,1.53126 -1.42968,0.48046 -1.42969,0.48047 0.63867,2.43946 0.63867,2.43945 -1.08398,-0.0176 c -0.5959,-0.0105 -1.8048,-0.47899 -2.6875,-1.03906 l -1.60547,-1.01758 0.80078,-2.08789 0.80078,-2.08789 -2.49414,0 -2.49414,0 0.17383,2.1875 0.17187,2.1875 -1.85742,0 -1.85742,0 -0.4043,-2.10156 -0.40625,-2.10352 2.63672,-1.41211 2.63672,-1.41015 z m 66.39453,1.40234 1.6973,0 1.6972,0 1.3965,2.60742 c 0.7674,1.43388 1.2081,2.71176 0.9805,2.83984 -0.676,0.38049 -7.2891,-0.5746 -7.2891,-1.05273 0,-0.24186 0.3425,-1.32855 0.7598,-2.41602 l 0.7578,-1.97851 z m -6.5176,5 1.875,0 1.875,0 0,1.875 0,1.875 -1.875,0 -1.875,0 0,-1.875 0,-1.875 z m 60,0.83398 0.834,0.83399 0.834,0.83203 -1.668,0 -1.666,0 0.834,-0.83203 0.832,-0.83399 z m -70,1.25 0.834,0.83399 0.834,0.83203 -1.668,0 -1.666,0 0.834,-0.83203 0.832,-0.83399 z m -55.14646,0.41602 1.32422,0 c 0.7281,0 1.32226,0.5625 1.32226,1.25 1e-5,0.6875 -0.24758,1.25 -0.55078,1.25 -0.3031,0 -0.89932,-0.5625 -1.32422,-1.25 l -0.77148,-1.25 z m 26.58594,0.88476 2.53125,2.53125 2.5332,2.53125 -1.06445,0.50977 c -1.37081,0.65581 -7.93945,-0.17495 -7.93946,-1.00391 0,-0.34719 0.88762,-1.51654 1.97071,-2.59961 l 1.96875,-1.96875 z m 64.81052,32.86524 1.8028,0 c 0.9906,0 2.1473,0.5625 2.5722,1.25 l 0.7735,1.25 -2.5743,0 -2.5742,0 0,-1.25 0,-1.25 z m -247.15818,19.56836 -2.15234,3.28515 -2.1543,3.28711 0.80664,1.30469 0.80664,1.30664 3.05078,0 3.05078,0 0,-2.26172 c 10e-6,-1.2436 -0.76582,-3.30994 -1.70312,-4.59179 l -1.70508,-2.33008 z"
       id="path13886" />
  </g>
</svg>
