<?xml version="1.0" encoding="UTF-8" standalone="no"?>
<!-- Created with Inkscape (http://www.inkscape.org/) -->

<svg
   xmlns:dc="http://purl.org/dc/elements/1.1/"
   xmlns:cc="http://creativecommons.org/ns#"
   xmlns:rdf="http://www.w3.org/1999/02/22-rdf-syntax-ns#"
   xmlns:svg="http://www.w3.org/2000/svg"
   xmlns="http://www.w3.org/2000/svg"
   xmlns:sodipodi="http://sodipodi.sourceforge.net/DTD/sodipodi-0.dtd"
   xmlns:inkscape="http://www.inkscape.org/namespaces/inkscape"
   width="210mm"
   height="297mm"
   viewBox="0 0 744.09448819 1052.3622047"
   id="svg4143"
   version="1.1"
   inkscape:version="0.91 r13725"
   sodipodi:docname="D.svg">
  <defs
     id="defs4145" />
  <sodipodi:namedview
     id="base"
     pagecolor="#ffffff"
     bordercolor="#666666"
     borderopacity="1.0"
     inkscape:pageopacity="0.0"
     inkscape:pageshadow="2"
     inkscape:zoom="0.35"
     inkscape:cx="-145"
     inkscape:cy="520"
     inkscape:document-units="px"
     inkscape:current-layer="layer1"
     showgrid="false"
     inkscape:window-width="1920"
     inkscape:window-height="1055"
     inkscape:window-x="0"
     inkscape:window-y="25"
     inkscape:window-maximized="1" />
  <metadata
     id="metadata4148">
    <rdf:RDF>
      <cc:Work
         rdf:about="">
        <dc:format>image/svg+xml</dc:format>
        <dc:type
           rdf:resource="http://purl.org/dc/dcmitype/StillImage" />
        <dc:title></dc:title>
      </cc:Work>
    </rdf:RDF>
  </metadata>
  <g
     inkscape:label="Layer 1"
     inkscape:groupmode="layer"
     id="layer1">
    <path
       inkscape:connector-curvature="0"
       style="fill:#000000"
       d="m 235.07493,308.19681 -1.084,1.70899 c -1.4538,2.29484 -1.466,2.48185 -1.1465,16.08593 l 0.2793,11.875 2.8594,6.875 2.8594,6.875 0.8965,7.89649 c 0.7571,6.66865 1.2525,39.54611 0.625,41.47851 -0.1116,0.34375 -0.9269,4 -1.8125,8.125 l -1.6114,7.5 0.875,2.37305 0.8731,2.37305 -1.0684,6.37695 c -0.588,3.50705 -0.9224,9.18945 -0.7422,12.62695 l 0.3282,6.25 -0.9864,1.55274 c -0.5421,0.8546 -1.663,4.2296 -2.4902,7.5 l -1.5039,5.94726 0.248,10 0.2461,10 -1.1308,2.5 c -0.6222,1.375 -1.6404,7 -2.2617,12.5 l -1.129,10 2.336,4.92188 c 1.285,2.70727 2.3359,5.09789 2.3359,5.3125 0,0.21462 -0.9081,0.39062 -2.0195,0.39062 l -2.0215,0 0.6289,3.28711 0.6289,3.28711 -2.3633,5.3418 -2.3613,5.33984 1.1192,2.93359 1.121,2.93555 -2.5917,2.82031 -2.5918,2.82227 2.4121,1.78906 2.414,1.78711 -2.3125,1.7168 -2.3144,1.71484 -0.2989,3.78125 c -0.1636,2.07955 -0.7067,4.44712 -1.2089,5.25977 -0.5022,0.81264 -1.1748,4.35227 -1.4942,7.86719 -0.3194,3.5149 -1.0455,7.30235 -1.6133,8.41601 l -1.0332,2.02539 0.1621,14.60547 0.1622,14.60742 0.8261,0.82813 0.8281,0.82812 -0.6718,1.75196 -0.6739,1.7539 1.6973,0.0391 1.6953,0.0391 -2.1465,1.63281 -2.1484,1.63086 -0.5996,8.28906 -0.5996,8.28906 -1.252,2.3418 c -2.1028,3.92911 -4.8415,12.60765 -4.1855,13.26367 0.3399,0.33993 1.585,-0.5767 2.7676,-2.03711 l 2.1504,-2.65625 1.8769,0.72071 1.875,0.71875 0.1074,3.74218 0.1055,3.74024 -2.4121,0.63086 -2.4141,0.63086 0,5.74218 0,5.74219 1.875,0 1.875,0 0,1.80078 c 0,0.99067 -0.5625,2.14932 -1.25,2.57422 -0.6875,0.4249 -1.25,1.73828 -1.25,2.91992 l 0,2.14844 2.5,2.14063 2.5,2.14062 0,1.75391 0,1.7539 -1.6367,0.62696 -1.6387,0.6289 -0.2129,10.07032 -0.2148,10.07226 1.2305,0.75977 1.2304,0.75976 -1.1015,2.11133 -1.0996,2.11328 0.914,15.50781 0.916,15.50977 2.3692,1.82227 2.3691,1.82031 -1.6172,0.60547 -1.6171,0.60351 0.7792,10.81446 c 0.4284,5.9482 0.9978,11.51952 1.2657,12.3789 0.6557,2.10289 1.7588,1.96834 6.2324,-0.75976 l 3.793,-2.31446 6.207,-0.92968 6.207,-0.92969 0.8223,-1.32617 0.8223,-1.32813 3.5527,1.35742 c 1.9542,0.74605 7.496,1.69895 12.3144,2.11914 l 8.7598,0.76563 2.4863,-1.81836 2.4864,-1.81836 1.2539,0.97656 c 1.6218,1.26145 15.2506,3.02097 25.6269,3.3086 4.4688,0.12387 8.68751,0.3405 9.37501,0.48242 4.5012,0.92906 30.3217,-1.6686 39.7617,-4 l 6.0098,-1.48438 2.5801,1.61133 2.5801,1.61133 6.5507,0.67578 6.5508,0.67773 0.8711,-1.4082 0.8692,-1.40625 5.0078,0 5.0097,0 2.4512,-1.3125 2.4531,-1.3125 10.9024,-0.38867 10.9023,-0.38672 7.6778,-2.58008 c 7.6457,-2.56942 8.5202,-2.93777 16.5507,-6.9707 l 4.2266,-2.12305 7.6484,-0.76367 7.6465,-0.76367 2.2364,-2.32422 c 1.2299,-1.27861 2.7465,-2.32422 3.3691,-2.32422 0.6225,0 5.4332,-3.65625 10.6914,-8.125 5.2584,-4.46875 10.1616,-8.125 10.8945,-8.125 1.9722,0 14.5907,-9.60053 20.125,-15.31055 l 4.8164,-4.96874 -0.6836,-3.42188 -0.6855,-3.42383 3.6035,-0.10156 c 1.9815,-0.0563 4.7119,-0.69589 6.0684,-1.42188 l 2.4668,-1.32031 1.666,-3.76562 c 0.9168,-2.07123 2.0936,-3.76563 2.6133,-3.76563 l 0.9433,0 0,-3.67773 0,-3.67578 1.25,-0.77149 1.25,-0.77344 0,-2.97656 0,-2.97851 1.3028,-0.80469 1.3007,-0.80274 -0.7285,-2.28906 -0.7265,-2.29101 1.3007,-0.80274 1.3008,-0.80469 0,-2.89843 0,-2.89844 1.7461,-1.44922 1.7461,-1.44726 -0.5937,-2.2754 -0.5957,-2.27343 2.5996,-4.84961 2.5976,-4.84766 0,-3.00195 0,-3 3.2188,-2.98242 3.2187,-2.98243 -0.7734,-3.52343 -0.7734,-3.52344 1.8808,-1.5625 1.8828,-1.5625 -0.1347,-7.91406 -0.1348,-7.91407 -2.6289,-0.88086 -2.6309,-0.88281 2.8125,-0.55273 2.8125,-0.55274 0,-2.45312 0,-2.45313 -1.875,-0.71875 -1.875,-0.71875 0,-1.89453 0,-1.89453 1.7539,1.45508 1.7539,1.45508 0.5215,-1.5625 0.5196,-1.5625 -1.6739,-3.35742 c -0.9214,-1.84694 -2.5086,-4.04856 -3.5254,-4.89258 -1.017,-0.84403 -1.8496,-2.02951 -1.8496,-2.63281 l 0,-1.09571 2.4278,0 c 1.3344,0 2.7628,-0.54453 3.1738,-1.20898 l 0.7461,-1.20899 -2.5488,-1.59179 c -1.4016,-0.87537 -2.5489,-1.96606 -2.5489,-2.42383 l 0,-0.83203 2.5,0.65234 2.5,0.6543 0,-3.30078 0,-3.30274 -3.4375,-1.4414 -3.4375,-1.44336 2.7071,-0.47461 2.707,-0.47461 0.7734,-2.01367 0.7735,-2.01563 -1.25,-0.77148 -1.2481,-0.77149 1.6641,-6.31054 1.664,-6.3125 -0.9453,-6.14063 -0.9472,-6.14258 0.6816,-6.72461 0.6797,-6.72656 -3.0039,-2.41406 -3.0059,-2.41602 2.5977,0.71875 2.5976,0.71875 0.2442,-9.98242 0.2461,-9.98242 -3.1934,-7.8457 c -1.7567,-4.31536 -4.0214,-9.33924 -5.0312,-11.16407 -1.0097,-1.82482 -1.836,-4.51368 -1.836,-5.97656 0,-1.46288 -0.7898,-4.55134 -1.7558,-6.86328 l -1.7559,-4.20508 1.1133,-1.11133 1.1113,-1.11328 -2.168,-5.58203 c -1.1929,-3.0697 -4.7693,-10.36133 -7.9472,-16.20508 -8.1457,-14.97922 -17.3511,-34.30187 -17.3281,-36.375 0.01,-0.96302 -2.0152,-5.6875 -4.502,-10.5 l -4.5215,-8.75 -6.1445,-4.375 -6.1445,-4.375 -6.1543,-8.84961 c -3.3855,-4.867 -6.8917,-9.40925 -7.7911,-10.09375 -0.8994,-0.68452 -4.1679,-1.95462 -7.2617,-2.82226 -3.0937,-0.86764 -7.875,-2.62534 -10.625,-3.90625 -2.75,-1.28091 -11.8355,-5.1688 -20.1914,-8.64063 l -15.1933,-6.3125 -2.9317,0.004 c -2.8537,0.005 -15.1528,-3.47862 -32.9336,-9.33203 -11.3361,-3.73184 -31.0641,-7.04535 -52.5,-8.81641 -3.4375,-0.28401 -14.4189,-1.17803 -24.40431,-1.98828 l -18.1562,-1.47461 -3.836,1.98437 -3.8359,1.98438 -6.4746,0.85938 -6.4727,0.85742 -0.6582,1.06445 -0.6582,1.06445 -9.6015,-0.8125 -9.6016,-0.81054 -7.3613,-4.31446 -7.3594,-4.31445 z m 44.0137,11.26367 1.9707,0.75586 1.9707,0.75781 -0.7793,1.25782 -0.7774,1.25976 -5.2382,-0.14648 -5.2403,-0.14453 2.5,-0.61524 c 1.375,-0.33798 3.1962,-1.17871 4.0469,-1.86914 l 1.5469,-1.25586 z m -23.7188,1.38281 1.25,0.77344 c 0.6875,0.4249 1.25,1.01909 1.25,1.32227 0,0.30317 -0.5625,0.55273 -1.25,0.55273 -0.6875,0 -1.25,-0.59615 -1.25,-1.32422 l 0,-1.32422 z m 66.01171,2.35157 1.3692,0.84765 c 0.7535,0.46568 1.3691,1.37456 1.3691,2.02149 l 0,1.17773 -3.3926,0 -3.3925,0 2.0234,-2.02344 2.0234,-2.02343 z m -10.5664,1.45508 1.92,1.91992 1.9218,1.92187 -3.3203,0 -3.31831,0 -0.6914,-1.11914 -0.6914,-1.11914 2.0898,-0.80273 2.08981,-0.80078 z m 28.7227,6.25976 1.1836,1.18164 1.1816,1.18164 -0.8398,1.35938 c -0.462,0.7474 -1.5906,1.35937 -2.5078,1.35937 l -1.668,0 -0.6797,-1.77148 -0.6797,-1.77344 2.0059,-0.76758 2.0039,-0.76953 z m 18.1855,2.58203 1.3243,0 c 0.728,0 1.3222,0.5625 1.3222,1.25 0,0.6875 -0.2476,1.25 -0.5508,1.25 -0.3031,0 -0.8993,-0.5625 -1.3242,-1.25 l -0.7715,-1.25 z m 8.8965,3.33203 0.834,0.83399 0.834,0.83398 -1.668,0 -1.666,0 0.834,-0.83398 0.832,-0.83399 z m 10.8555,0.41797 3.0098,0.006 3.0097,0.006 5,3.04883 5,3.04883 -5,-0.22461 -5,-0.22656 -3.0097,-2.82813 -3.0098,-2.83008 z m -23.8262,1.25 1.7207,0 0,1.875 0,1.875 -3.2773,0 -3.2774,0 1.5547,-1.875 c 0.8559,-1.03125 2.3323,-1.875 3.2793,-1.875 z m -8.4433,37.5 5.082,0 5.082,0 0,1.875 0,1.875 -4.125,0 c -2.2687,0 -4.6593,0.46441 -5.3125,1.03321 l -1.1875,1.03515 -2.1875,-0.50195 c -2.8785,-0.65898 -2.7779,-2.41343 0.2305,-4.02344 l 2.418,-1.29297 z m -37.33601,1.25 3.67781,0 3.6757,0 0.8243,1.33399 0.8242,1.33398 -2.625,0.68555 c -1.4441,0.37766 -2.627,1.18369 -2.627,1.79101 0,1.30046 -1.72611,1.46144 -2.91601,0.27149 -0.4584,-0.45832 -0.834,-1.86457 -0.834,-3.125 l 0,-2.29102 z m -63.75,3.33203 0.834,0.83399 0.834,0.83398 -0.834,0.83203 -0.834,0.83399 0,-1.66602 0,-1.66797 z m 78.60351,0.41797 1.3243,0 c 0.728,0 1.3222,0.5625 1.3222,1.25 0,0.6875 -0.2476,1.25 -0.5508,1.25 -0.3031,0 -0.8993,-0.5625 -1.3242,-1.25 l -0.7715,-1.25 z m 127.9727,1.07422 1.2969,1.29688 1.2949,1.29687 -1.7715,0.55469 c -0.9743,0.30516 -3.0156,0.82821 -4.5371,1.16211 l -2.7656,0.60547 -1.3301,-1.59961 -1.3281,-1.60157 4.5703,-0.85742 4.5703,-0.85742 z m -50.3516,0.0371 2.0996,1.17383 2.0977,1.17383 0.416,3.58203 c 0.8855,7.64017 1.0871,8.63302 2.0586,10.14648 l 1.002,1.5625 -1.0118,-0.10351 c -1.8103,-0.18538 -9.1367,-5.10011 -9.1367,-6.12891 0,-0.55067 0.8438,-1.32496 1.875,-1.7207 l 1.875,-0.71875 0,-1.81055 0,-1.81055 -1.4746,-0.49023 -1.4746,-0.49219 0.8379,-2.18164 0.8359,-2.18164 z m -117.62111,0.13867 2.0215,0 2.0235,0 -0.7735,1.25 c -0.4248,0.6875 -0.9873,1.25 -1.25,1.25 -0.2626,0 -0.8251,-0.5625 -1.25,-1.25 l -0.7715,-1.25 z m 126.25001,2.5 2.0215,0 2.0235,0 -0.7735,1.25 c -0.4248,0.6875 -0.9873,1.25 -1.25,1.25 -0.2626,0 -0.8251,-0.5625 -1.25,-1.25 l -0.7715,-1.25 z m -115.47851,3.33985 2.8125,1.49804 c 1.5469,0.82426 2.8125,1.76051 2.8125,2.08008 0,1.32398 -2.3108,0.43823 -3.9082,-1.49805 l -1.7168,-2.08007 z m 193.19921,0.41015 c 0.647,0 1.1758,0.5625 1.1758,1.25 l 0,1.25 -1.9472,0 -1.9493,0 0.7715,-1.25 c 0.4249,-0.6875 1.3023,-1.25 1.9492,-1.25 z m -56.1757,1.25 -0.7735,1.25 c -0.929,1.50313 -0.7991,1.50313 -3.125,0 l -1.875,-1.21289 2.8867,-0.0195 2.8868,-0.0176 z m -162.12311,5.17578 1.3008,0.84766 1.2988,0.84766 -2.957,0.41992 -2.957,0.41992 -0.625,2.39453 c -0.7005,2.6788 -1.3822,2.87989 -4.0489,1.19336 -2.1345,-1.34987 -2.0539,-1.44071 3.6641,-4.10742 l 4.3242,-2.01563 z m 150.94341,4.54297 1.3906,1.38867 0,0.002 1.3906,1.39062 -4.9375,-0.0996 -4.9375,-0.0977 3.5469,-1.29297 3.5469,-1.29102 z m 12.3242,2.32227 1.457,1.45898 c 1.8887,1.88864 0.8345,2.94279 -1.5,1.5 l -1.8008,-1.11523 0.9219,-0.92188 0.9219,-0.92187 z m 73.707,0.45898 1.875,0 1.875,0 0,1.25 0,1.25 -1.875,0 -1.875,0 0,-1.25 0,-1.25 z m -46.25,0.15625 4.6875,0.72266 c 2.5782,0.39784 4.9536,0.95641 5.2774,1.24023 0.3239,0.28382 -0.2386,1.04011 -1.25,1.67969 -2.1714,1.37336 -2.2711,1.37172 -5.9024,-0.0879 -1.5468,-0.62178 -2.8125,-1.67731 -2.8125,-2.34375 l 0,-1.21094 z m -193.75001,5.67578 0.834,0.83399 0.834,0.83398 -1.668,0 -1.666,0 0.834,-0.83398 0.832,-0.83399 z m 22.5,4.16797 c 0.6875,0 1.25,0.5625 1.25,1.25 0,0.6875 -0.5625,1.25 -1.25,1.25 -0.6875,0 -1.25,-0.5625 -1.25,-1.25 0,-0.6875 0.5625,-1.25 1.25,-1.25 z m 145.95311,10.79102 c 0.7926,0.06 0.6828,0.70098 -0.9882,1.75781 -1.0113,0.63959 -2.6836,1.15062 -3.7149,1.13672 l -1.875,-0.0254 3.125,-1.72852 c 1.2586,-0.69653 2.3495,-1.05574 3.0606,-1.13086 0.1481,-0.0156 0.2793,-0.0183 0.3925,-0.01 z m 30.2969,0.041 0.834,0.83399 0.834,0.83398 -1.668,0 -1.666,0 0.834,-0.83398 0.832,-0.83399 z m -46.3965,0.41797 2.5,0 2.5,0 0.7715,1.25 0.7735,1.25 -2.5,0 -2.5,0 -0.7735,-1.25 -0.7715,-1.25 z m 51.3965,0 1.25,0 1.25,0 0,1.875 0,1.875 -1.25,0 -1.25,0 0,-1.875 0,-1.875 z m -22.5,5 1.8028,0 c 0.9906,0 2.1474,0.5625 2.5722,1.25 l 0.7735,1.25 -2.5743,0 -2.5742,0 0,-1.25 0,-1.25 z m -98.7851,5.8418 0,0 10.9531,1.47461 c 6.0243,0.81011 14.5176,2.26464 18.873,3.23242 l 7.918,1.75977 4.8672,3.2207 c 2.6767,1.77137 5.736,3.2207 6.7969,3.2207 l 1.9277,0 6.8535,6.84766 c 3.7664,3.7663 6.86,7.28193 6.875,7.8125 0.015,0.53058 2.5465,3.72135 5.625,7.09179 l 5.5977,6.12891 0,1.80274 c 0,0.99216 1.0334,3.29817 2.2949,5.12304 1.2616,1.82488 3.5439,5.95263 5.0723,9.17383 1.5283,3.2212 4.4324,7.93918 6.455,10.48438 2.0228,2.54521 3.6778,5.35954 3.6778,6.2539 0,0.89438 1.6175,4.6139 3.5937,8.26563 l 3.5918,6.64062 0.7754,4.375 c 0.4262,2.40625 1.0804,7.46036 1.4531,11.23242 0.3729,3.77207 1.1486,7.32822 1.7227,7.90235 l 1.043,1.04297 5.8535,0.39453 c 3.2192,0.21702 6.2441,0.7892 6.7226,1.26953 l 0.8692,0.87305 -6.6504,-0.35157 -6.6504,-0.35156 -1.0781,1.74609 -1.0801,1.7461 0.6445,1.04492 c 0.3549,0.57407 0.6664,9.36992 0.6914,19.54688 l 0.045,18.5039 -0.9532,3.01172 -0.9511,3.01367 -2.2852,1.60742 -2.2852,1.60743 -1.3457,4.99804 -1.3457,4.99805 0.1133,5.89453 0.1153,5.89453 -1.6172,6.33594 -1.6172,6.33789 -3.125,3.80078 c -1.7187,2.09119 -4.6247,6.35845 -6.459,9.48242 l -3.3359,5.67969 -6.9981,2.03516 -6.998,2.03515 -5.6035,5.36914 -5.6055,5.36914 -0.012,2.40235 -0.014,2.40234 -3.3633,1.5625 -3.3652,1.5625 -4.125,0 -4.127,0 0,1.03321 0,1.0332 -3.8261,-0.5625 -3.8262,-0.56055 -2.4727,2.65235 c -1.3595,1.45924 -3.0228,2.65429 -3.6972,2.65429 -0.6743,0 -3.4633,1.41085 -6.1973,3.13672 l -4.9707,3.13867 0.3086,1.54883 0.3066,1.55078 -5.1797,-0.4082 -5.1796,-0.40625 -0.8321,1.34375 c -0.457,0.7395 -1.2183,1.31484 -1.6933,1.27734 -0.4751,-0.0375 -3.6778,-1.23206 -7.1153,-2.65234 -7.6456,-3.15897 -17.6732,-6.21839 -21.875,-6.67578 -1.7187,-0.1871 -4.9531,-1.01839 -7.1875,-1.84571 l -4.0625,-1.5039 0,-2.06446 c 0,-1.13585 0.8793,-7.06217 1.9473,-13.16796 l 1.9414,-11.09961 -0.7168,-1.8711 -0.7188,-1.86914 1.1426,-1.40429 c 0.6279,-0.77224 1.746,-3.61598 2.4844,-6.32032 l 1.3418,-4.91797 -1.2012,-1.44726 -1.2011,-1.44727 0.9257,-0.92773 c 0.5096,-0.50966 0.9762,-1.30145 1.0352,-1.75977 0.059,-0.45834 0.5239,-1.77443 1.0332,-2.92382 l 0.9258,-2.08985 -1.2207,-2.28515 -1.2207,-2.28516 0.5097,-4.35938 c 0.2804,-2.39811 0.8096,-5.30362 1.1758,-6.45703 l 0.666,-2.09765 -1.2715,-0.78516 -1.2714,-0.78516 0.5859,-5.25781 0.5859,-5.25781 -1.3593,-8.125 c -0.7483,-4.46875 -1.6144,-9.44894 -1.9239,-11.06836 l -0.5625,-2.94531 -2.7558,-0.73438 -2.75591,-0.73437 3.12501,-0.75391 3.125,-0.75195 0.2578,-6.19336 c 0.1414,-3.40618 1.0627,-10.41211 2.0469,-15.56836 l 1.7891,-9.375 -0.9453,-1.02344 c -0.821,-0.88953 -3.4283,-1.68374 -6.586,-2.00586 -0.5156,-0.0526 -0.9375,-0.6582 -0.9375,-1.3457 l 0,-1.25 3.0528,0 3.0507,0 0.7715,1.25 c 0.4249,0.6875 1.3023,1.25 1.9492,1.25 l 1.1758,0 0,-3.03906 0,-3.04102 -2.5,-0.79492 c -1.375,-0.43641 -2.5,-1.31781 -2.5,-1.95899 l 0,-1.16601 2.3672,0 2.3652,0 0.7207,-1.875 0.7188,-1.875 -0.6992,-2.1875 c -1.5865,-4.96436 -3.6373,-8.55831 -6.0449,-10.5957 l -2.5528,-2.16016 -3.36331,-0.0273 -3.3632,-0.0274 -0.6856,-1.10937 -0.6855,-1.10938 6.55071,0.17188 6.5469,0.17187 0.3965,-4.10742 0.3945,-4.10742 -3.1172,0.78125 -3.1171,0.7832 -2.27741,-1.2793 -2.2793,-1.27734 2.209,-0.85156 2.20901,-0.85156 3.1035,0.59375 3.1035,0.59375 0,-1.31836 c 0,-0.72515 0.6119,-9.10224 1.3594,-18.61524 l 1.3594,-17.29687 -1.3106,-3.75977 -1.3105,-3.75976 2.4511,-4.36329 2.4512,-4.36523 0,-3.08789 0,-3.08594 9.6074,0 9.6075,0 2.8769,-2.70508 2.877,-2.70312 z m 77.5351,7.61523 2.8125,0.75391 c 1.5469,0.41454 3.5157,0.76148 4.375,0.77148 l 1.5625,0.0176 0,1.25 0,1.25 -4.375,0 -4.375,0 0,-2.02148 0,-2.02149 z m 53.75,7.375 0.834,0.83399 0.834,0.83398 -1.668,0 -1.666,0 0.834,-0.83398 0.832,-0.83399 z m -23.5937,5.15625 0.7558,0.75586 0.7559,0.75586 -2.3965,-0.0996 -2.3965,-0.0977 1.6407,-0.65821 1.6406,-0.65625 z m 19.8437,0.26172 c 0.6875,0 1.25,0.5625 1.25,1.25 0,0.6875 -0.5625,1.25 -1.25,1.25 -0.6875,0 -1.25,-0.5625 -1.25,-1.25 0,-0.6875 0.5625,-1.25 1.25,-1.25 z m -12.6465,1.25 2.5743,0 c 1.4155,0 2.5722,0.22005 2.5722,0.49024 0,0.2702 -0.8247,0.80802 -1.834,1.19531 l -1.8339,0.70508 -0.7403,-1.19532 -0.7383,-1.19531 z m -19.9257,1.25 c 0.6469,0 1.5224,0.5625 1.9472,1.25 l 0.7735,1.25 -1.9493,0 -1.9492,0 0,-1.25 c 0,-0.6875 0.5308,-1.25 1.1778,-1.25 z m 28.8222,0 c 0.6875,0 1.25,0.5625 1.25,1.25 0,0.6875 -0.5625,1.25 -1.25,1.25 -0.6875,0 -1.25,-0.5625 -1.25,-1.25 0,-0.6875 0.5625,-1.25 1.25,-1.25 z m 29.0391,5.5293 c 0.6455,0.0294 1.5157,0.15739 2.6387,0.37305 l 3.5527,0.68164 -1.6777,1.06445 c -2.2983,1.45665 -4.4925,1.36313 -5.4786,-0.23242 -0.7495,-1.2127 -0.7142,-1.7998 0.3926,-1.88281 0.166,-0.0125 0.3571,-0.0137 0.5723,-0.004 z m -10.0899,1.3457 0,0 0,0.004 0.6543,1.63672 0.6562,1.64062 -0.7539,0.75391 -0.7558,0.75586 0.1,-2.39649 0.1,-2.39062 0,-0.004 z m 15.8262,3.11524 1.9883,0.76367 c 1.0932,0.41954 1.9863,1.26495 1.9863,1.8789 l 0,1.11719 -2.4258,0 c -1.3344,0 -2.749,-0.52407 -3.1445,-1.16406 l -0.7187,-1.16406 1.1562,-0.71485 1.1582,-0.71679 z m -10.7402,2.45312 c 0.5151,-0.087 0.9813,0.21558 1.0586,0.96289 0.052,0.49843 -0.5813,1.13125 -1.4063,1.40625 l -1.5,0.5 0.5,-1.5 c 0.2686,-0.80571 0.8326,-1.28218 1.3477,-1.36914 z m -192.78521,2.13867 0.834,0.83399 0.834,0.83398 -1.668,0 -1.666,0 0.834,-0.83398 0.832,-0.83399 z m -8.8965,0.41797 1.25,0 c 0.6875,0 1.5967,0.5625 2.0215,1.25 l 0.7735,1.25 -1.25,0 c -0.6875,0 -1.5986,-0.5625 -2.0235,-1.25 l -0.7715,-1.25 z m 220.77151,0.0508 c 0.6875,-0.0215 4.3862,1.23741 8.2188,2.79883 l 6.9687,2.83984 -0.5097,1.5293 c -0.9443,2.83265 -6.1218,1.14695 -12.1778,-3.96484 l -3.75,-3.16406 1.25,-0.0391 z m -13.125,3.69922 1.8028,0 c 0.9906,0 2.1719,0.59879 2.625,1.33203 1.0543,1.70572 0.4876,2.07747 -2.2403,1.47071 -1.2031,-0.26761 -2.1875,-1.00745 -2.1875,-1.64453 l 0,-1.15821 z m -17.5,8.75 1.9922,0 1.9922,0 0.6543,2.5 0.6543,2.5 1.8027,0 1.8028,0 -0.7735,1.25 c -0.4248,0.6875 -1.441,1.21668 -2.2597,1.17578 -1.9366,-0.0967 -5.8653,-4.09428 -5.8653,-5.96875 l 0,-1.45703 z m -128.5683,3.71289 -0.7989,2.51563 c -0.4392,1.38379 -0.7131,4.3445 -0.6093,6.58008 0.1033,2.23557 0.1901,6.20317 0.2031,8.8164 l 0.016,4.75195 1.4414,-0.47851 1.4414,-0.47852 0.2891,-10.15234 0.289,-10.15039 -1.1367,-0.70313 -1.1347,-0.70117 z m -97.68171,7.11914 0.834,0.83399 0.834,0.83398 -1.668,0 -1.666,0 0.834,-0.83398 0.832,-0.83399 z m 113.75001,2.5 0,1.66797 0,1.66602 0.834,-0.83399 0.834,-0.83203 -0.834,-0.83398 -0.834,-0.83399 z m -98.67581,9.16797 1.3243,0 -0.7735,1.25 c -0.4248,0.6875 -1.0191,1.25 -1.3222,1.25 -0.3033,0 -0.5528,-0.5625 -0.5528,-1.25 0,-0.6875 0.5962,-1.25 1.3242,-1.25 z m 81.43561,8.11328 c -0.3089,0.1838 -0.5377,2.53375 -1.0274,7.82422 l -0.6074,6.5625 1.1563,0 1.1562,0 0.6875,-3.4375 0.6875,-3.4375 -1.0273,-4.375 c -0.4964,-2.11196 -0.7851,-3.27967 -1.0254,-3.13672 z m -69.35351,8.25782 c 1.2238,-0.0271 2.2802,0.14741 2.6015,0.46875 l 0.7793,0.77929 -1.2949,2.05274 c -0.7123,1.12923 -1.9584,2.27455 -2.7695,2.54492 l -1.4746,0.49219 -1.0918,-2.91797 -1.0899,-2.91602 3.0821,-0.4082 c 0.4237,-0.0559 0.8498,-0.0867 1.2578,-0.0957 z m 196.59371,1.1289 1.5625,0.0176 c 0.8594,0.0105 2.4063,0.56597 3.4375,1.23242 l 1.875,1.21094 -3.4375,0.0195 -3.4375,0.0195 0,-1.25 0,-1.25 z m -215.62501,0.0586 c 2.0625,-0.0113 4.5127,0.46105 5.4434,1.05078 l 1.6914,1.07226 -2.8555,3.28321 c -1.5703,1.80599 -3.3817,3.28515 -4.0254,3.28515 l -1.1699,0 0.7109,-2.71875 0.711,-2.71875 -2.127,-1.61719 -2.1289,-1.61718 3.75,-0.0195 z m 246.67781,5.5664 0.1,4.6875 0.098,4.6875 -1.1152,0 c -0.614,0 -1.4402,-0.84375 -1.8359,-1.875 l -0.7188,-1.875 -3.7168,0 -3.7148,0 -0.7735,-1.25 -0.7715,-1.25 5.5938,0 5.5957,0 0.6289,-1.5625 0.6309,-1.5625 z m -209.80281,1.45703 0.834,0.83399 0.834,0.83398 -0.834,0.83203 -0.834,0.83399 0,-1.66602 0,-1.66797 z m 212.50001,3.66797 1.4805,1.47852 c 0.8133,0.81355 1.1873,1.7698 0.832,2.125 -0.8342,0.83424 -2.3125,-0.64403 -2.3125,-2.3125 l 0,-1.29102 z m -22.5605,0.5 1.4258,0 1.4277,0 -0.7188,2.7461 -0.7187,2.74804 1.3516,1.62696 1.3496,1.6289 -3.2774,0 -3.2793,0 0,-1.16992 c 0,-0.64275 0.5504,-2.6115 1.2207,-4.375 l 1.2188,-3.20508 z m 16.3125,6.31055 3.125,1.18945 3.123,1.1875 0,1.28125 0,1.28125 -2.3457,0 -2.3476,0 -1.4688,1.76953 -1.4707,1.77149 -5.25,0 -5.2519,0 -3.1192,-1.72657 -3.1211,-1.72656 3.9102,-0.0449 3.9101,-0.043 1.4297,-1.72461 1.4317,-1.72461 3.7226,-0.74414 3.7227,-0.74609 z m 31.248,1.38086 3.75,1.87109 c 2.0625,1.0289 3.75,2.10895 3.75,2.40235 0,0.86705 -5.7581,0.60907 -6.666,-0.29883 -0.4584,-0.45833 -0.834,-1.54032 -0.834,-2.4043 l 0,-1.57031 z m -276.48041,2.0039 2.8945,2.02735 2.8926,2.02734 -4.92,0 -4.9218,0 2.0273,-2.02734 2.0274,-2.02735 z m 41.7734,0.30469 2.7851,0 2.78521,0 2.127,2.34961 2.1269,2.34961 -4.1211,0.86328 c -2.26601,0.47564 -6.79291,1.16059 -10.05861,1.52149 l -5.9375,0.65625 0,-1.92188 c 0,-1.05703 0.5241,-2.24508 1.1641,-2.64062 l 1.164,-0.71875 0.7852,1.26953 0.7852,1.27148 2.5429,0 2.543,0 0.6543,-2.5 0.6543,-2.5 z m 223.45701,0.16211 c 0.5664,0 1.1329,0.0864 1.5625,0.25977 l 1.5625,0.63086 -3.125,0 -3.125,0 1.5625,-0.63086 c 0.4297,-0.17339 0.9961,-0.25977 1.5625,-0.25977 z m -256.25001,3.58789 2.1875,0.0391 c 2.2704,0.0413 6.5625,2.76199 6.5625,4.16016 0,1.25977 -2.2702,0.9337 -3.125,-0.44922 l -0.7715,-1.25 -2.4257,0 -2.4278,0 0,-1.25 0,-1.25 z m 213.75001,1.25 1.8028,0 c 0.9906,0 2.1474,0.5625 2.5722,1.25 l 0.7735,1.25 -2.5743,0 -2.5742,0 0,-1.25 0,-1.25 z m 12.4903,2.32422 2.7187,0.40039 2.7207,0.40039 0.5156,1.5625 0.5137,1.5625 -3.2285,0 -3.2305,0 0,1.80078 c 0,0.99068 0.5728,2.15411 1.2715,2.58594 l 1.2695,0.78516 -0.7187,1.16406 c -0.3955,0.63999 -1.3088,1.16406 -2.0293,1.16406 l -1.3106,0 0.6954,-1.8125 0.6953,-1.81055 -2.4356,-0.77343 c -1.34,-0.42527 -2.4375,-1.29829 -2.4375,-1.93946 l 0,-1.16406 1.7422,0 1.7402,0 0.754,-1.96289 0.7539,-1.96289 z m 10.0839,0.17578 1.1758,0 0,1.875 c 0,1.93301 -1.4732,2.48194 -2.8808,1.07422 l -0.8008,-0.79883 0.666,-1.07617 c 0.3656,-0.59162 1.1929,-1.07422 1.8398,-1.07422 z m -214.40031,1.48633 3.4316,0.6543 c 1.8877,0.36086 3.7392,1.15239 4.1133,1.75781 l 0.6797,1.10156 -1.709,0 c -0.9404,0 -2.7918,-0.79155 -4.1133,-1.75781 l -2.4023,-1.75586 z m -19.8086,0.62695 1.4433,0.89063 c 0.7938,0.49055 1.4414,1.14019 1.4414,1.44336 0,1.04268 -1.1036,0.55031 -1.9941,-0.89063 l -0.8906,-1.44336 z m -7.1153,2.46875 0.834,0.83399 0.834,0.83398 -1.668,0 -1.666,0 0.834,-0.83398 0.832,-0.83399 z m 213.28911,0.48242 c 0.9226,0.0586 1.7056,0.6164 2.1055,1.65821 l 0.6601,1.72265 -1.4023,1.40235 c -1.9115,1.91151 -4.2454,1.76332 -5.045,-0.32031 l -0.6621,-1.72266 1.4024,-1.40234 c 0.9557,-0.95576 2.0188,-1.39647 2.9414,-1.3379 z m -212.03911,4.93555 2.2617,0 c 1.2435,0 3.3528,0.8246 4.6875,1.83399 l 2.4258,1.83593 -1.875,-0.13086 c -1.0312,-0.0718 -3.1406,-0.37393 -4.6875,-0.67187 l -2.8125,-0.54102 0,-1.16406 0,-1.16211 z m 222.41411,2.76367 4.3594,1.49805 4.3593,1.5 2.6504,3.36914 c 1.4575,1.85299 2.1866,3.32383 1.6211,3.26953 -0.5655,-0.0543 -3.4215,-0.94672 -6.3476,-1.98242 l -5.3223,-1.88281 0.7422,-1.19727 0.7402,-1.19726 -1.4023,-1.68946 -1.4004,-1.6875 z m -231.12111,0.73438 2.166,0.91992 c 1.1914,0.50585 3.291,0.86712 4.666,0.80274 l 2.5,-0.11719 3.125,2.55078 3.125,2.55078 -3.75,-0.64063 c -2.0625,-0.3523 -4.7402,-1.02375 -5.9511,-1.49218 l -2.2012,-0.85156 0.7734,2.01367 0.7715,2.01562 -1.2598,0 -1.2617,0 -1.3515,-3.87695 -1.3516,-3.875 z m 42.3496,3.6914 1.9297,0.74024 c 1.0608,0.4071 1.9277,1.32021 1.9277,2.0293 l 0,1.29101 -1.8008,0 c -0.9906,0 -2.1719,-0.60074 -2.625,-1.33398 l -0.8242,-1.33399 0.6973,-0.69531 0.6953,-0.69727 z m 212.30271,0.31055 1.8946,0 1.8925,0 0.7207,1.875 0.7188,1.875 -1.0566,0 c -0.5817,0 -1.7594,-0.84375 -2.6153,-1.875 l -1.5547,-1.875 z m -223.59371,1.40821 c 0.6797,0.008 1.3132,0.10028 1.7363,0.27148 l 1.5371,0.62305 -3.75,-0.0469 -3.75,-0.0469 2.2129,-0.57618 c 0.6081,-0.15842 1.334,-0.23301 2.0137,-0.2246 z m -19.1524,6.09179 1.8008,0 0,1.875 c 0,1.92747 -0.7146,2.14312 -3.4433,1.04297 l -1.5723,-0.63281 0.707,-1.14258 c 0.3887,-0.62877 1.5172,-1.14258 2.5078,-1.14258 z m 23.0372,0.76367 2.5078,2.68946 c 1.3787,1.47996 2.5058,2.99664 2.5058,3.36914 0,1.23388 -1.9045,0.70453 -4.8261,-1.3418 l -2.8829,-2.02148 1.3477,-1.34766 1.3477,-1.34766 z m -42.6329,6.73633 1.3243,0 c 0.728,0 1.3222,0.5625 1.3222,1.25 0,0.6875 -0.2476,1.25 -0.5508,1.25 -0.3031,0 -0.8993,-0.5625 -1.3242,-1.25 l -0.7715,-1.25 z m -14.8535,2.5 1.875,0 1.875,0 0,1.25 0,1.25 -1.875,0 -1.875,0 0,-1.25 0,-1.25 z m 19.5781,2.78516 c 0.1437,0.006 0.2803,0.0204 0.4083,0.043 l 1.8613,0.32422 0.418,2.17382 0.4179,2.17383 -3.1426,0 -3.1425,0 -0.8594,-1.39062 -0.8574,-1.39063 1.7207,-1.10742 c 0.7105,-0.45733 1.7969,-0.77001 2.7265,-0.82227 0.155,-0.009 0.3056,-0.0102 0.4492,-0.004 z m 27.5059,1.58984 2.916,0 2.918,0 0.4687,1.40821 0.4707,1.4082 -1.6152,0.54883 c -0.8885,0.30154 -2.6319,0.32344 -3.873,0.0488 l -2.2559,-0.5 0.4844,-1.45703 0.4863,-1.45703 z m 204.14841,0.83203 5.6348,0 5.6328,0 0,1.69727 c 0,0.93337 -0.5221,2.02047 -1.1621,2.41601 l -1.164,0.71875 -0.7852,-1.26953 -0.7852,-1.26953 -2.9785,0 -2.9765,0 -0.709,-1.14648 -0.7071,-1.14649 z m -211.23241,0.625 0.834,0.83399 0.834,0.83398 -1.668,0 -1.666,0 0.834,-0.83398 0.832,-0.83399 z m 250.00001,1.66797 c 0.6875,0 1.25,0.5625 1.25,1.25 0,0.6875 -0.5625,1.25 -1.25,1.25 -0.6875,0 -1.25,-0.5625 -1.25,-1.25 0,-0.6875 0.5625,-1.25 1.25,-1.25 z m -268.62891,1.61133 4.627,0.26953 c 2.5449,0.14796 6.3144,0.38369 8.3769,0.52344 l 3.75,0.25391 -2.8125,1.13085 -2.8125,1.12891 0,2.4043 0,2.40429 -4.4472,0.51758 -4.4493,0.51953 -0.8632,-1.32031 c -0.4752,-0.72605 -2.0654,-1.98701 -3.5332,-2.80273 l -2.668,-1.48242 -2.957,0.73046 -2.9571,0.73047 0.9317,-1.01172 c 0.5116,-0.55579 3.0428,-1.10623 5.625,-1.22461 l 4.6933,-0.21679 -0.2519,-1.27735 -0.252,-1.27734 z m 226.34181,1.65039 c 0.2275,-0.15022 1.7681,1.0233 3.4238,2.60742 l 3.0098,2.88086 -2.0293,0 -2.0273,0 -1.3965,-2.60742 c -0.7674,-1.43387 -1.2081,-2.73062 -0.9805,-2.88086 z m -185.19141,0.35352 0,0 1.2382,0.76562 1.2383,0.76563 0,2.42578 0,2.42773 -4.375,0 -4.375,0 0.039,-0.9375 c 0.022,-0.51563 1.4316,-1.95348 3.1348,-3.19336 l 3.0976,-2.2539 z m -48.918,5.13476 3.125,0 3.125,0 0.7715,1.25 0.7735,1.25 -3.125,0 -3.125,0 -0.7735,-1.25 -0.7715,-1.25 z m 20.1465,4.85156 1.25,0.77344 c 0.6875,0.4249 1.25,1.30035 1.25,1.94727 0,0.64693 -0.5625,1.17773 -1.25,1.17773 l -1.25,0 0,-1.94922 0,-1.94922 z m 229.89651,2.6543 c 0.401,0.004 2.9067,0.61249 5.5684,1.35156 l 4.8398,1.34375 -3.4199,1.77344 c -3.8896,2.01798 -4.4755,2.09372 -6.3828,0.81836 l -1.3731,-0.91797 0.02,-2.1875 c 0.011,-1.20313 0.3469,-2.18564 0.748,-2.18164 z m -221.29301,2.49414 2.0215,0 2.0235,0 -0.7735,1.25 c -0.4248,0.6875 -0.9873,1.25 -1.25,1.25 -0.2626,0 -0.8251,-0.5625 -1.25,-1.25 l -0.7715,-1.25 z m 200.14651,0.83203 0.834,0.83399 0.834,0.83398 -1.668,0 -1.666,0 0.834,-0.83398 0.832,-0.83399 z m 28.3887,5.4043 4.5566,4.29883 c 2.5059,2.36341 4.5547,4.89718 4.5547,5.63086 0,1.37542 -0.4242,1.4282 -3.9336,0.49609 l -2.0586,-0.54687 -0.6367,-2.4336 -0.6367,-2.43164 -2.9297,-0.0449 c -1.6112,-0.0244 -4.2704,-0.78836 -5.9101,-1.69727 l -2.9805,-1.65234 1.1055,-0.58594 c 0.6085,-0.32185 2.8534,-0.68534 4.9882,-0.80859 l 3.8809,-0.22461 z m -31.9824,1.00195 0.7558,0.75586 0.7559,0.75586 -2.3965,-0.0996 -2.3965,-0.0976 1.6407,-0.65821 1.6406,-0.65625 z m 17.1972,2.76172 2.5743,0 2.5722,0 0,1.25 0,1.25 -1.8008,0 c -0.9906,0 -2.1493,-0.5625 -2.5742,-1.25 l -0.7715,-1.25 z m -2.3535,0.83203 0.834,0.83399 0.834,0.83398 -0.834,0.83203 -0.834,0.83399 0,-1.66602 0,-1.66797 z m -196.55471,1.66797 1.5547,1.875 1.5567,1.875 -2.9649,-0.15039 c -1.631,-0.082 -4.9355,-0.89427 -7.3418,-1.80469 l -4.375,-1.65429 5.7852,-0.0703 5.7851,-0.0703 z m 208.01761,0.58594 c 0.7298,0.0141 1.6543,0.11333 2.5996,0.29492 l 3.4375,0.66016 0,1.10351 0,1.10547 -2.1875,-0.0195 c -2.4985,-0.0219 -6.159,-2.05353 -5.2754,-2.92773 0.1619,-0.16019 0.6961,-0.2309 1.4258,-0.2168 z m -260.21291,0.24609 0.834,0.83399 0.834,0.83398 -0.834,0.83203 -0.834,0.83399 0,-1.66602 0,-1.66797 z m 280.00001,0.41797 5.3125,0.16992 5.3125,0.16993 -3.125,0.56054 c -1.7187,0.30834 -3.6593,1.07579 -4.3125,1.70508 -1.773,1.70831 -3.1875,1.38436 -3.1875,-0.73047 l 0,-1.875 z m 5,4.58203 0.834,0.83399 0.834,0.83398 -1.668,0 -1.666,0 0.834,-0.83398 0.832,-0.83399 z m -54.8691,2.94532 -0.7637,1.23632 c -0.42,0.67962 -1.2925,1.23633 -1.9394,1.23633 -1.798,0 -1.4019,-0.89753 0.7636,-1.72851 l 1.9395,-0.74414 z m 24.7226,1.22265 1.875,0 c 1.0313,0 2.2217,0.5625 2.6465,1.25 l 0.7735,1.25 -1.875,0 c -1.0312,0 -2.2236,-0.5625 -2.6485,-1.25 l -0.7715,-1.25 z m -4.8535,0.83203 0.834,0.83399 0.834,0.83398 -0.834,0.83203 -0.834,0.83399 0,-1.66602 0,-1.66797 z m -201.32221,1.66797 c 0.6469,0 1.5224,0.5625 1.9472,1.25 l 0.7735,1.25 -1.9493,0 -1.9492,0 0,-1.25 c 0,-0.6875 0.5308,-1.25 1.1778,-1.25 z m 55.07221,1.10156 -1.25,0.77344 c -0.6875,0.4249 -1.25,1.30035 -1.25,1.94727 0,0.64693 0.5625,1.17773 1.25,1.17773 l 1.25,0 0,-1.94922 0,-1.94922 z m -73.75001,2.64844 1.875,0 1.875,0 0,1.25 0,1.25 -1.875,0 -1.875,0 0,-1.25 0,-1.25 z m 228.58211,5.9336 3.3769,2.6582 3.3789,2.6582 -1.7305,-0.0195 c -0.9522,-0.0105 -2.5434,-0.53272 -3.5351,-1.16016 l -1.8027,-1.14062 -1.3223,1.6582 c -0.7271,0.9123 -2.4875,2.00311 -3.9121,2.42383 l -2.5899,0.76563 -0.8476,-0.84766 c -0.466,-0.46589 -0.8477,-1.3261 -0.8477,-1.91211 l 0,-1.06641 2.9844,0.75 2.9844,0.74805 1.9316,-2.75781 1.9317,-2.75781 z m -227.33211,4.89843 0.834,0.83399 0.834,0.83398 -1.668,0 -1.666,0 0.834,-0.83398 0.832,-0.83399 z m 217.76371,4.18164 1.1191,0.69141 c 0.6155,0.38037 1.1172,1.22027 1.1172,1.86719 l 0,1.17773 -1.834,0 -1.8359,0 0.7168,-1.86914 0.7168,-1.86719 z m -222.13871,4.36133 3.75,0 3.75,0 0.4004,2.8125 0.3985,2.8125 -1.4102,0 -1.4102,0 0.7715,-1.25 0.7735,-1.25 -1.875,0 c -1.0312,0 -2.2236,0.5625 -2.6485,1.25 -0.4248,0.6875 -1.7222,1.24047 -2.8847,1.23047 l -2.1153,-0.0195 1.6289,-1.0332 1.6289,-1.03321 -0.3789,-1.75976 -0.3789,-1.75977 z m 181.87501,7.97656 1.25,0.77344 c 0.6875,0.4249 1.25,1.0191 1.25,1.32227 0,0.30318 -0.5625,0.55273 -1.25,0.55273 -0.6875,0 -1.25,-0.59615 -1.25,-1.32422 l 0,-1.32422 z m -192.64651,1.39844 3.1993,0 3.1972,0 0,1.39453 0,1.10547 -2.4258,0 -2.4257,0 -0.7735,-1.25 -0.7715,-1.25 z m 12.42,1.63867 -0.6446,1.68164 -0.6465,1.67969 -2.3652,0 -2.3672,0 0,-1.25 0,-0.95898 3.0117,-0.57617 3.0118,-0.57618 z m 194.13281,0.59961 0.7558,0.75586 0.7559,0.75586 -2.3965,-0.0996 -2.3965,-0.0976 1.6407,-0.65821 1.6406,-0.65625 z m -182.12701,2.60547 -2.3086,2.55078 -2.3105,2.55274 1.7324,0.57812 c 0.9529,0.31784 2.8574,0.82661 4.2324,1.13086 l 2.5,0.55274 -8.75,0.18554 -8.75,0.1836 -2.4258,1.83593 c -3.0504,2.30724 -4.9869,2.32419 -6.8671,0.0586 l -1.4747,-1.77735 -4.9218,-0.83203 c -2.7069,-0.45731 -5.2129,-1.30462 -5.5703,-1.88281 l -0.6504,-1.05078 2.6093,-0.82813 2.6114,-0.83007 3.6582,1.51562 3.6562,1.51563 0,1.72265 0,1.72461 2.4395,0 2.4375,0 1,-1.6582 c 0.5498,-0.91123 2.0555,-2.04585 3.3457,-2.52149 l 2.3457,-0.86523 1.4453,1.20117 1.4453,1.19922 1.834,-1.17773 1.832,-1.17774 -1.875,-1.23242 c -1.0312,-0.67698 -1.5937,-1.28446 -1.25,-1.35156 0.3438,-0.0671 2.292,-0.39243 4.3281,-0.72266 l 3.7012,-0.59961 z m 12.0528,2.76367 1.8339,0.70508 c 1.0093,0.38728 1.834,1.20636 1.834,1.82031 0,1.28262 -2.9395,1.50767 -4.1308,0.31641 -0.4397,-0.43964 -0.517,-1.25872 -0.17,-1.82031 l 0.6329,-1.02149 z m 13.8378,8.01758 1.61531,2.1875 c 1.8489,2.50247 4.0361,2.8523 4.7344,0.75781 l 0.4765,-1.42968 2.8867,1.54492 2.8868,1.54492 -1.0723,0.96484 c -0.5895,0.53034 -3.7112,1.6038 -6.9375,2.38477 -3.2263,0.78097 -6.46071,1.41992 -7.18751,1.41992 l -1.3223,0 0,-1.875 0,-1.875 -1.25,0 c -0.6875,0 -1.25,0.5942 -1.25,1.32227 l 0,1.32422 -1.1953,-0.73828 -1.1953,-0.73829 0.7051,-1.83593 0.7031,-1.83399 2.1172,0 c 1.1639,0 2.8299,-0.70313 3.7012,-1.5625 l 1.5839,-1.5625 z m 113.58011,0.625 2.5742,0 2.5743,0 -0.7735,1.25 c -0.4248,0.6875 -1.5816,1.25 -2.5722,1.25 l -1.8028,0 0,-1.25 0,-1.25 z m 22.3535,1.25 0.7715,1.25 c 0.4253,0.6875 0.5992,1.1935 0.3867,1.125 -0.2124,-0.0685 -1.7929,-0.57456 -3.5117,-1.125 l -3.125,-1.00195 2.7403,-0.125 2.7382,-0.12305 z m -200.34371,0.17383 1.6562,1.02344 1.6543,1.02148 -0.8574,1.39063 -0.8594,1.39062 -3.0507,0 -3.0528,0 0,-1.20703 c 0,-0.66332 1.0157,-1.7484 2.2559,-2.41211 l 2.2539,-1.20703 z m 12.8437,1.07617 1.25,0 c 0.6875,0 1.5967,0.5625 2.0215,1.25 l 0.7735,1.25 -1.25,0 c -0.6875,0 -1.5986,-0.5625 -2.0235,-1.25 l -0.7715,-1.25 z m 23.75,0 1.3243,0 c 0.728,0 1.3222,0.5625 1.3222,1.25 0,0.6875 -0.2476,1.25 -0.5508,1.25 -0.3031,0 -0.8993,-0.5625 -1.3242,-1.25 l -0.7715,-1.25 z m 177.24611,0.0176 c 0.8102,-0.0105 2.3554,0.86316 3.4336,1.94141 l 1.961,1.96093 2.3984,-0.76171 2.3984,-0.76172 0.8907,1.4414 0.8886,1.44141 -1.5703,0.9707 -1.5683,0.96875 0.8574,1.39063 0.8594,1.39062 -1.0118,-0.12305 c -0.5561,-0.0674 -2.4179,-0.90371 -4.1367,-1.85742 l -3.125,-1.73437 -3.75,-0.0371 c -2.0625,-0.0207 -4.5124,-0.52029 -5.4453,-1.11133 l -1.6953,-1.07422 1.3828,-0.85547 1.3828,-0.85547 1.25,0.77344 1.25,0.77149 0,-1.47657 0,-1.47656 1.9063,1.58008 1.9043,1.58203 0.8711,-0.87109 0.8711,-0.8711 -1.8379,-1.16211 -1.8399,-1.16406 1.4746,-0.0195 z m 16.0254,1.02734 2.291,0.72657 c 1.2594,0.39987 3.1212,0.72851 4.1368,0.72851 l 1.8457,0 -0.7735,1.25 c -1.0737,1.7373 -2.2558,1.56624 -5.0722,-0.72851 l -2.4278,-1.97657 z m -203.78121,0.30079 c 0.5669,-0.0311 1.2726,0.0156 2.1133,0.14257 l 2.9179,0.44141 -2.7363,1.53711 -2.7363,1.53906 -0.8262,-1.33594 c -0.8875,-1.43587 -0.4331,-2.23088 1.2676,-2.32421 z m 163.99411,4.98828 c 0.4485,0.0307 1.133,0.27097 2.1778,0.67187 l 1.9707,0.75586 -0.6915,1.11914 c -0.3803,0.61546 -1.5015,1.11914 -2.4921,1.11914 l -1.8028,0 0,-1.875 c 0,-1.31431 0.09,-1.84223 0.8379,-1.79101 z m -179.73441,3.66601 2.0215,0 2.0235,0 -0.7735,1.25 c -0.4248,0.6875 -0.9873,1.25 -1.25,1.25 -0.2626,0 -0.8251,-0.5625 -1.25,-1.25 l -0.7715,-1.25 z m 190.14651,0 0,1.25 c 0,1.52451 -0.141,1.52451 -2.5,0 l -1.875,-1.21289 2.1875,-0.0195 2.1875,-0.0176 z m -8.75,1.32813 0,1.21093 0,1.21094 -1.875,0 c -1.0312,0 -1.875,-0.22201 -1.875,-0.49219 0,-0.2702 0.8438,-0.81519 1.875,-1.21093 l 1.875,-0.71875 z m -23.75,2.0039 0.834,0.83399 0.834,0.83398 -1.668,0 -1.666,0 0.834,-0.83398 0.832,-0.83399 z m 4.8535,0.41797 3.5118,0.0176 3.5097,0.0195 -1.875,1.21289 c -2.4016,1.55203 -3.4157,1.55203 -4.375,0 l -0.7715,-1.25 z m -17.5019,0.15821 c 0.6797,0.008 1.3132,0.10028 1.7363,0.27148 l 1.5371,0.62305 -3.75,-0.0469 -3.75,-0.0469 2.2129,-0.57618 c 0.6081,-0.15841 1.334,-0.23301 2.0137,-0.2246 z m 42.8887,1.17968 c 1.1625,-0.0483 2.4599,0.47461 2.8847,1.16211 0.8884,1.43735 0.8449,1.43735 -2.5,0 l -2.5,-1.07422 2.1153,-0.0879 z m -160.09181,1.16211 3.6757,0 3.6758,0 0,1.25 0,1.25 -1.7715,0 c -0.975,0 -2.5524,0.29698 -3.5039,0.66211 l -1.7285,0.66406 -0.8398,-0.83789 -0.8379,-0.83789 0.666,-1.07617 0.6641,-1.07422 z m 141.92381,0.67188 0,0 c 0.5203,-0.078 0.628,0.75162 0,2.39843 -0.4072,1.0609 -1.3262,1.92969 -2.041,1.92969 l -1.2989,0 1.5254,-2.44336 c 0.7533,-1.20682 1.4083,-1.82087 1.8145,-1.88476 z m -122.07231,0.16015 0.834,0.83399 0.834,0.83398 -1.668,0 -1.666,0 0.834,-0.83398 0.832,-0.83399 z m 130.00001,2.73438 0,2.5918 c 0,1.4254 -0.2812,2.59179 -0.625,2.59179 -0.3437,0 -0.625,-0.62369 -0.625,-1.38476 l 0,-1.38282 -1.9785,0.75977 -1.9785,0.75781 0.5195,-1.5625 c 0.2862,-0.85984 1.4592,-1.74452 2.6055,-1.96679 l 2.082,-0.4043 z m -43.75,1.43359 1.9805,0 1.9785,0 -0.4941,1.48438 c -0.2721,0.81641 -1.1641,1.70638 -1.9805,1.97851 l -1.4844,0.49414 0,-1.97851 0,-1.97852 z m 5.7266,1.24414 c 0.6987,-0.0808 1.7106,0.8764 2.1367,2.50586 l 0.6543,2.5 2.6172,0 2.6152,0 0,1.17578 c 0,0.64693 -0.5448,1.5129 -1.2129,1.92578 l -1.2148,0.75196 -3.3828,-2.2168 -3.3809,-2.21484 0.7285,2.78906 0.7305,2.78906 -0.8203,-0.0488 c -0.4512,-0.0262 -1.5155,-0.83704 -2.3652,-1.80273 l -1.545,-1.75586 1.8575,-1.85742 c 1.0216,-1.02153 1.8554,-2.46067 1.8554,-3.19727 0,-0.874 0.3074,-1.29526 0.7266,-1.34375 z m 7.748,0.006 1.4707,0 c 2.2515,0 6.3047,2.43842 6.3047,3.79297 0,1.82095 -1.551,1.39081 -4.8242,-1.33594 l -2.9512,-2.45703 z m 16.3789,2.5 1.0118,0.0176 c 0.5561,0.0105 1.8535,0.56597 2.8847,1.23242 l 1.875,1.21094 -2.1133,0.0195 c -1.1625,0.0105 -2.4618,-0.54297 -2.8867,-1.23047 l -0.7715,-1.25 z m 104.6348,6.7793 c -0.8103,0.15483 -3.4808,1.65371 -6.4473,3.64648 -3.3903,2.27744 -9.4003,6.21408 -13.3535,8.7461 l -7.1875,4.60351 0,1.23633 c 0,0.68049 0.4381,1.23828 0.9727,1.23828 1.3148,0 13.6706,-6.45409 19.9746,-10.43359 l 5.1055,-3.22266 0.8379,-2.64258 c 0.461,-1.4526 0.608,-2.87047 0.3261,-3.15234 -0.035,-0.0352 -0.1127,-0.0417 -0.2285,-0.0195 z m -182.5039,4.47656 c 0.7088,-0.0761 1.7434,0.63009 2.2187,1.86914 l 0.7188,1.875 -1.002,0 c -1.3028,0 -2.6699,-1.38708 -2.6699,-2.70898 0,-0.66289 0.3091,-0.98949 0.7344,-1.03516 z m 177.8965,51.95703 -2.0528,1.29492 c -1.1292,0.7123 -2.2748,1.95733 -2.5449,2.76758 l -0.4902,1.47461 2.6426,0 2.6445,0 0.7402,-1.92969 0.7403,-1.92968 -0.8399,-0.83789 -0.8398,-0.83985 z m 9.1328,46.80078 -0.7559,1.97071 c -0.4157,1.08354 -0.7578,2.4859 -0.7578,3.11718 0,2.18241 2.2122,1.1382 2.8633,-1.35156 l 0.6524,-2.49805 -1.002,-0.61914 -1,-0.61914 z m -292.29491,7.48633 -3.3594,3.50586 c -1.8474,1.92824 -3.3594,3.89699 -3.3594,4.375 0,0.478 1.3195,0.86914 2.9317,0.86914 l 2.9316,0 1.8789,-2.1875 c 1.0333,-1.20313 2.2276,-3.17188 2.6543,-4.375 l 0.7754,-2.1875 -2.2266,0 -2.2265,0 z"
       id="path13864" />
  </g>
</svg>
