<?xml version="1.0" encoding="UTF-8" standalone="no"?>
<!-- Created with Inkscape (http://www.inkscape.org/) -->

<svg
   xmlns:dc="http://purl.org/dc/elements/1.1/"
   xmlns:cc="http://creativecommons.org/ns#"
   xmlns:rdf="http://www.w3.org/1999/02/22-rdf-syntax-ns#"
   xmlns:svg="http://www.w3.org/2000/svg"
   xmlns="http://www.w3.org/2000/svg"
   xmlns:sodipodi="http://sodipodi.sourceforge.net/DTD/sodipodi-0.dtd"
   xmlns:inkscape="http://www.inkscape.org/namespaces/inkscape"
   width="210mm"
   height="297mm"
   viewBox="0 0 744.09448819 1052.3622047"
   id="svg4143"
   version="1.1"
   inkscape:version="0.91 r13725"
   sodipodi:docname="E.svg">
  <defs
     id="defs4145" />
  <sodipodi:namedview
     id="base"
     pagecolor="#ffffff"
     bordercolor="#666666"
     borderopacity="1.0"
     inkscape:pageopacity="0.0"
     inkscape:pageshadow="2"
     inkscape:zoom="0.35"
     inkscape:cx="-145"
     inkscape:cy="520"
     inkscape:document-units="px"
     inkscape:current-layer="layer1"
     showgrid="false"
     inkscape:window-width="1920"
     inkscape:window-height="1055"
     inkscape:window-x="0"
     inkscape:window-y="25"
     inkscape:window-maximized="1" />
  <metadata
     id="metadata4148">
    <rdf:RDF>
      <cc:Work
         rdf:about="">
        <dc:format>image/svg+xml</dc:format>
        <dc:type
           rdf:resource="http://purl.org/dc/dcmitype/StillImage" />
        <dc:title></dc:title>
      </cc:Work>
    </rdf:RDF>
  </metadata>
  <g
     inkscape:label="Layer 1"
     inkscape:groupmode="layer"
     id="layer1">
    <path
       inkscape:connector-curvature="0"
       style="fill:#000000"
       d="m 175.31428,236.66536 -1.7617,4.22266 -1.7637,4.22461 0.6075,6.25 c 0.3341,3.4375 0.8277,6.95313 1.0957,7.8125 l 0.4863,1.5625 1.9648,0 c 1.0801,0 4.1945,-1.13989 6.9219,-2.53125 l 4.959,-2.5293 13.7422,-0.78515 13.7402,-0.78711 0,-0.97266 c 0,-0.53464 -1.2656,-1.2047 -2.8125,-1.49023 l -2.8125,-0.51953 10,-0.10157 c 5.5,-0.0557 11.125,0.26305 12.5,0.70703 l 2.5,0.80665 -5,0.79883 -5,0.79882 6.0117,0.17774 6.0118,0.17773 -0.6758,-1.09375 -0.6758,-1.0957 5.6016,0.63281 5.6015,0.63086 0,-1.43945 0,-1.43946 -2.8125,-1.07617 c -3.2577,-1.24709 -13.5721,-3.4033 -27.8125,-5.81445 -5.5,-0.93125 -13.375,-2.5201 -17.5,-3.53125 -4.125,-1.01115 -11.0136,-2.23553 -15.3086,-2.71875 l -7.8086,-0.87696 z m 281.8672,5.68555 -3.4375,1.18945 c -1.8906,0.65475 -3.4375,1.60336 -3.4375,2.10743 0,1.43071 4.8741,3.44299 14.002,5.78125 l 8.375,2.14453 3.8125,-0.76172 3.8105,-0.76172 0,1.25781 0,1.25977 2.8125,1.13086 c 1.5469,0.62176 2.9814,1.16538 3.1875,1.20898 1.1264,0.23828 7.75,-3.9083 7.75,-4.85156 0,-0.61363 0.3119,-1.92485 0.6914,-2.91406 l 0.6895,-1.79688 -3.502,-1.35351 -3.5039,-1.35157 -15.625,-1.14453 -15.625,-1.14453 z m 29.418,19.17774 -0.8008,0.80078 -0.8008,0.79883 0.8203,2.13867 0.8204,2.13867 1.4589,-1.45898 1.459,-1.45899 -1.4785,-1.48047 -1.4785,-1.47851 z m -302.7676,11.69922 -1.2949,0.80078 -1.293,0.79883 0.8399,9.27734 c 0.4624,5.10257 1.3973,10.74274 2.0781,12.5332 l 1.2383,3.25586 1.2402,-1.24023 c 0.6816,-0.6817 1.423,-3.16351 1.6484,-5.51563 0.2253,-2.35213 0.8352,-5.83432 1.3555,-7.73828 l 0.9453,-3.46094 -1.5058,-3.63672 -1.5059,-3.63476 -1.873,-0.7207 -1.8731,-0.71875 z m 103.2168,3.74609 c -19.0706,-0.0393 -42.0266,0.33744 -48.6172,1.00391 l -8.75,0.88476 -13.125,-0.77539 -13.125,-0.77734 -1.5566,1.23828 -1.5586,1.23633 0.7266,8.28906 0.7265,8.28906 -2.5449,16.25 c -1.3999,8.9375 -2.4584,17.09375 -2.3496,18.125 0.1081,1.03125 -0.1599,3.84375 -0.5977,6.24999 -0.4377,2.40625 -1.7255,11.6875 -2.8613,20.625 -1.1357,8.9375 -2.5487,19.0625 -3.1387,22.5 -1.2885,7.50803 -3.1171,37.1381 -2.6367,42.72071 l 0.3399,3.97265 -2.586,1.38477 -2.5879,1.38476 0,2.5 c 0,1.375 0.9109,3.88794 2.0235,5.58594 l 2.0214,3.08789 -1.2363,1.55664 -1.2383,1.55469 0.8594,7.5 0.8574,7.5 -0.3105,30.625 c -0.1717,16.84375 -0.3184,37.9375 -0.3184,46.875 0,8.9375 -0.094,25.25 -0.2031,36.25 -0.2396,24.21472 -0.2376,22.89224 -0.02,27.5 0.098,2.0625 -0.1133,15.11853 -0.4688,29.01172 l -0.6465,25.25976 1.168,0.72071 1.166,0.72265 -1.1504,3.02735 -1.1523,3.02929 0.096,32.24024 0.096,32.23828 -1.4551,7.83594 -1.4551,7.83593 0.7579,1.22657 c 0.4167,0.67458 1.5216,1.22656 2.455,1.22656 0.9333,0 1.8841,0.55803 2.1133,1.24023 l 0.416,1.24219 4.6875,-2.12695 c 2.5782,-1.1692 4.6875,-2.57097 4.6875,-3.11524 l 0,-0.99023 3.0528,0 3.0507,0 0.8047,-1.30078 0.8028,-1.30078 2.455,0.77929 2.4551,0.7793 1.8145,-1.50586 1.8144,-1.50586 1.6602,1.37695 1.6601,1.37696 4.2774,-1.28516 4.2773,-1.28711 9.375,0.78321 c 5.1563,0.43033 14.4375,1.65945 20.625,2.73242 6.1875,1.07299 13.2188,2.1607 15.625,2.41797 2.4063,0.25729 6.9063,0.75768 10,1.11132 3.0938,0.35362 13.2188,0.889 22.5,1.18946 9.2813,0.30046 19.7438,0.87744 23.2481,1.2832 l 6.3711,0.73828 5.707,-1.4375 5.7051,-1.43555 3.5332,1.6836 3.5332,1.68359 6.2617,0 6.2637,0 1.6386,-1.06055 1.6407,-1.05859 19.8007,0.81836 19.8008,0.82031 1.7754,-2.5332 1.7735,-2.5332 2.7363,1.91601 2.7344,1.91602 2.2793,-0.72461 c 1.254,-0.398 9.265,-0.79722 17.8007,-0.88672 l 15.5196,-0.16211 5.9375,-1.83789 5.9375,-1.83789 0,-1.1875 c 0,-0.65356 -0.556,-2.22465 -1.2344,-3.49219 l -1.2324,-2.30469 1.1953,-6.05078 1.1953,-6.05078 -1.873,-19.375 c -1.0298,-10.65625 -2.3718,-21.625 -2.9844,-24.375 l -1.1153,-5 1.2383,-6.74609 1.2403,-6.7461 -1.6524,-1.08203 -1.6523,-1.08398 -2.3789,0.57422 -2.3809,0.57422 -3.793,-1.96094 -3.7929,-1.96289 -2.3633,1.47656 -2.3633,1.47461 -1.7949,-1.49023 -1.7949,-1.49024 -9.045,-0.42383 -9.0429,-0.42383 3.4375,1.45899 3.4375,1.45898 0,1.88282 0,1.88476 -1.5,-1.5 -1.5,-1.5 -4.125,0 -4.125,0 -2.375,-2.375 -2.375,-2.375 -1.1895,1.18945 -1.1914,1.18946 -5.4961,-1.36719 -5.498,-1.36719 -5.8926,1.79102 -5.8906,1.79101 -8.836,-1.68359 -8.8379,-1.68359 -1.8496,0.70898 -1.8515,0.71094 -2.041,-1.69531 -2.043,-1.69532 -20.1289,-0.6914 c -11.0713,-0.38095 -20.3513,-0.5399 -20.6211,-0.35156 -0.2699,0.18833 0.2221,1.20018 1.0918,2.24804 l 1.5801,1.90625 -3.2774,0 -3.2773,0 0,-1.73047 0,-1.72851 -3.3457,-0.64063 -3.3457,-0.63867 -1.7442,1.74414 c -2.2563,2.25646 -4.6197,2.21432 -6.5547,-0.11719 l -1.5429,-1.86132 -1.1797,0.72851 c -0.6489,0.40102 -2.6956,0.89878 -4.5469,1.10547 l -3.3652,0.375 -2.0977,-1.11328 -2.0976,-1.11524 -1.9961,0.76758 -1.9981,0.76563 1.5547,1.87304 1.5547,1.87305 -2.4609,-0.46875 -2.459,-0.46875 -0.4102,-2.87305 -0.4082,-2.87109 -1.3769,0.45898 c -0.7573,0.25241 -1.9755,1.40853 -2.7071,2.56836 l -1.33,2.10743 1.3281,2.1914 1.3281,2.19336 -0.7129,2.70703 -0.7109,2.70508 -5,-1.94531 -5,-1.94727 -4.1836,0.0977 -4.1836,0.0957 1.9433,-2.14844 1.9454,-2.14843 -4.3243,-3.44922 c -2.3777,-1.89727 -4.3222,-3.92708 -4.3222,-4.51172 0,-0.58463 0.9721,-1.43788 2.1621,-1.89453 l 2.164,-0.83008 0.4415,1.32227 c 1.4467,4.3409 4.5954,-2.60958 4.0742,-8.99414 l -0.2813,-3.43946 1.9082,-0.73242 1.9102,-0.73437 1.4316,-4.33985 1.4317,-4.33984 -0.8477,-9.61133 c -0.9462,-10.71743 -0.9406,-12.32466 0.088,-24.19727 l 0.7207,-8.33593 -2.6016,-2.60157 -2.6015,-2.60156 1.9101,0 1.9082,0 -0.8144,-7.95508 -0.8145,-7.95703 1.4043,-0.86718 c 0.7729,-0.47767 1.4063,-1.33196 1.4063,-1.89844 l 0,-1.03125 -3.6641,0.18554 c -2.0151,0.10134 -4.0782,0.59782 -4.584,1.10352 -1.4882,1.48835 -3.0019,1.05531 -3.0019,-0.85742 l 0,-1.77539 3.7187,-0.81641 3.7207,-0.81641 1.4688,0.90821 1.4687,0.9082 3.25,-3.82617 3.2481,-3.82422 2.5898,-0.75391 2.5899,-0.7539 3.2968,3.45117 c 1.8133,1.89819 4.7547,5.25297 6.5352,7.45508 l 3.2363,4.0039 29,-0.0391 29.002,-0.0371 6.6953,-1.26953 6.6973,-1.27148 1.3652,1.36718 c 0.7515,0.7515 2.3971,1.36719 3.6562,1.36719 l 2.2891,0 0.6816,-1.77539 0.6797,-1.77344 -2.1074,-3.21679 -2.1074,-3.2168 0.9121,-2.19531 c 0.5014,-1.20844 1.0683,-3.84608 1.2598,-5.86133 l 0.3476,-3.66406 -3.209,-4.02149 -3.209,-4.02344 -0.1445,-3.32617 -0.1465,-3.32812 2.4805,0.64844 2.4785,0.64843 1.6289,-1.35156 c 0.8951,-0.7429 1.627,-2.12521 1.627,-3.07226 l 0,-1.72071 -3.2617,0 -3.2598,0 0.834,-3.32031 0.832,-3.31836 -1.6348,-1.03711 -1.6347,-1.03711 2.1875,-0.0195 2.1875,-0.0176 0,-2.53906 0,-2.54102 1.875,-0.71875 1.875,-0.71875 0,-2.36718 0,-2.36524 1.25,0 1.25,0 0,-1.88867 0,-1.88672 -2.5,-2.14062 c -1.375,-1.17732 -2.5,-2.87017 -2.5,-3.76172 l 0,-1.6211 2.959,0.74414 2.9589,0.74219 1.5313,-9.78125 c 0.8427,-5.37975 1.7473,-11.90999 2.0098,-14.51172 l 0.4785,-4.73047 -2.8242,-1.07421 -2.8243,-1.07422 -29.7793,-0.92578 -29.7793,-0.92774 -1.0625,1.7207 -1.0644,1.72071 -1.5527,-1.55274 c -0.8536,-0.85362 -2.5775,-1.55078 -3.8321,-1.55078 l -2.2812,0 -1.2696,3.33985 -1.2695,3.33984 0.6367,1.66016 c 0.351,0.91268 0.3138,2.5039 -0.082,3.53515 l -0.7207,1.875 -1.6895,0 -1.6914,0 -3.0195,3.25586 -3.0215,3.25781 -0.9043,-1.46484 -0.9062,-1.4668 2.3125,-1.75195 2.3125,-1.75195 -2.3321,-0.0391 -2.3339,-0.0391 0.6718,-2.57226 0.6739,-2.57227 -3.1055,-1.41406 -3.1055,-1.41406 -0.709,-3.54688 -0.7089,-3.54687 -2.3379,0.6582 c -1.2855,0.36166 -3.4629,0.97711 -4.8379,1.36719 -3.9976,1.1341 -2.891,-0.406 1.9375,-2.69727 l 4.4355,-2.10547 -0.8183,-3.89062 c -0.4501,-2.13996 -1.6822,-5.75285 -2.7383,-8.02735 l -1.9199,-4.13476 1.1503,-1.15039 1.1504,-1.15039 -0.455,-4.76953 -0.4551,-4.76758 -3.6426,-1.61328 -3.6445,-1.61329 0,-1.66406 0,-1.66601 3.75,-1.66016 3.75,-1.66016 0,-2.82031 0,-2.81836 -1.25,0 -1.25,0 0,-1.59765 c 0,-0.87829 0.9615,-2.97052 2.1367,-4.64844 l 2.1367,-3.05078 0.1152,-4.5918 0.1153,-4.59375 -1.6992,0.65234 -1.6993,0.65235 0.6582,1.71289 0.6582,1.71484 -1.1679,0 c -1.4156,0 -3.1164,-3.15741 -4.2461,-7.8789 l -0.8379,-3.50196 2.6953,1.44141 2.6973,1.44336 3.2812,-2.44531 3.2813,-2.44727 1.6504,-7.99414 c 0.9072,-4.3966 1.7512,-9.39844 1.875,-11.11719 l 0.2246,-3.125 -4.6875,-2.29101 -4.6875,-2.29102 0,-1.29297 0,-1.29297 2.8125,0.75391 c 1.5468,0.41455 4.6783,0.76148 6.959,0.77148 l 4.1464,0.0176 -0.832,2.62305 -0.832,2.62305 2.4629,-0.78125 2.4648,-0.78321 4.0918,4.66016 4.0918,4.66015 29.5039,0.4336 c 16.2279,0.23832 44.4121,0.58005 62.6309,0.75976 18.2187,0.17972 38.1875,0.72407 44.375,1.20899 l 11.25,0.88086 5.2363,-0.77344 5.2383,-0.77344 1.4433,-6.43164 1.4454,-6.43164 0.4648,-26.15233 0.4648,-26.15039 1.7774,-3.84961 c 0.9772,-2.11667 2.1584,-5.11328 2.625,-6.66016 l 0.8476,-2.8125 -1.4453,0 c -0.7955,0 -2.38,-1.11795 -3.5215,-2.48242 l -2.0761,-2.48047 -11.25,-1.09766 -11.25,-1.0996 -34.7364,-0.12696 c -19.1049,-0.0695 -35.16,-0.38783 -35.6796,-0.70898 -0.5196,-0.32115 -11.3276,-1.1968 -24.0157,-1.94531 -12.688,-0.74851 -26.7246,-1.65978 -31.1933,-2.02539 -4.2698,-0.34933 -14.3123,-0.52328 -25.7539,-0.54688 l 0,0 z m -25.3359,23.50195 0.7558,0.75586 0.7559,0.75391 -2.3965,-0.0977 -2.3965,-0.0996 1.6407,-0.65625 1.6406,-0.65625 z m 197.3437,1.36328 1.25,0.77344 c 0.6875,0.4249 1.25,1.30034 1.25,1.94727 0,0.64692 -0.5625,1.17773 -1.25,1.17773 l -1.25,0 0,-1.94922 0,-1.94922 z m -52.5,40.89843 1.5,1.5 1.5,1.5 -3,0 -3,0 1.5,-1.5 1.5,-1.5 z m -145.0722,0.5 c 0.6469,0 1.5224,0.5625 1.9472,1.25 l 0.7735,1.25 -1.9493,0 -1.9492,0 0,-1.25 c 0,-0.6875 0.5308,-1.25 1.1778,-1.25 z m -21.1778,12.32617 2.8125,0.39844 2.8125,0.40039 0.4004,2.8125 0.3985,2.8125 -1.1426,0 c -1.3202,0 -5.2813,-4.12352 -5.2813,-5.49805 l 0,-0.92578 z m -20.0722,5.17383 c 0.6469,0 1.5224,0.5625 1.9472,1.25 l 0.7735,1.25 -1.9493,0 -1.9492,0 0,-1.25 c 0,-0.6875 0.5308,-1.25 1.1778,-1.25 z m 16.0546,1.25 1.1348,0 c 0.6236,0 1.6672,0.52816 2.3203,1.17578 l 1.1875,1.17774 7.8848,1.26562 7.8828,1.26367 3.0332,-1.15234 3.0313,-1.15234 3.1054,2.87695 3.1055,2.87695 -1.459,1.45899 -1.459,1.45703 -5.0625,-0.0488 -5.0625,-0.0508 -3.75,-2.03125 -3.75,-2.0293 -9.0898,-0.58594 -9.0918,-0.58593 -0.6699,-1.08399 -0.67,-1.08398 2.8868,-0.14649 c 1.5874,-0.0814 3.5794,-0.0603 4.4277,0.0488 l 1.543,0.19922 -0.7383,-1.92578 -0.7403,-1.92383 z m -24.7324,3.75 2.5742,0 2.5743,0 -0.7735,1.25 c -0.4248,0.6875 -1.5816,1.25 -2.5722,1.25 l -1.8028,0 0,-1.25 0,-1.25 z m 61.1035,2.5 2.0215,0 2.0235,0 -0.7735,1.25 c -0.4248,0.6875 -0.9873,1.25 -1.25,1.25 -0.2626,0 -0.8251,-0.5625 -1.25,-1.25 l -0.7715,-1.25 z m -47.3535,2.5 c 0.6875,0 1.25,0.5625 1.25,1.25 0,0.6875 -0.5625,1.25 -1.25,1.25 -0.6875,0 -1.25,-0.5625 -1.25,-1.25 0,-0.6875 0.5625,-1.25 1.25,-1.25 z m 21.5352,2.52735 1.2773,0.78906 c 1.2071,0.74609 3.5952,1.15725 8.8555,1.52344 l 2.291,0.16015 -0.5254,1.5625 -0.5273,1.5625 -2.6348,0.0371 c -1.45,0.0206 -2.9624,0.36275 -3.3594,0.75977 l -0.7207,0.7207 1.8243,1.51563 1.8261,1.51367 2.7324,-1.46094 2.7325,-1.46289 2.6582,2.71094 2.6621,2.70898 -5,4.35938 c -2.75,2.39794 -6.2619,4.87581 -7.8028,5.50586 l -2.8007,1.14648 -1.8868,-0.72461 -1.8847,-0.72266 0,-1.76953 0,-1.76758 3.0254,-1.3789 3.0254,-1.37891 -0.6563,-1.71094 -0.6582,-1.71289 -1.4316,0.92969 c -0.7874,0.51167 -3.6335,0.93162 -6.3262,0.93164 l -4.8965,0 -0.4707,1.41211 -0.4707,1.41406 3.1797,0.79688 3.1797,0.79883 0,1.26562 0,1.26758 -2.8125,1.13086 c -1.5469,0.62176 -2.5313,1.23692 -2.1875,1.36914 1.0622,0.4086 7.9777,1.16275 10.875,1.18555 l 2.75,0.0215 0.7617,1.23047 0.7598,1.23242 6.1757,0 6.1778,0 0.016,0.9375 c 0.01,0.51563 0.3486,2.16755 0.752,3.67188 l 0.7324,2.73437 -6.7266,-0.69336 -6.7246,-0.69531 -1.6777,2.02148 0,0.002 -1.6778,2.01953 -2.0351,-0.14453 c -5.6512,-0.40278 -10.1582,-3.07221 -10.1582,-6.01563 l 0,-1.33984 -3.3555,0 c -1.8455,0 -6.6268,-0.91721 -10.625,-2.03906 l -7.2695,-2.03907 0,-1.08593 0,-1.08594 2.8457,0 2.8476,0 2.2383,-2.61328 2.2363,-2.61133 -2.2714,-1.71289 -2.2715,-1.71094 -2.1875,0.6582 -2.1875,0.65821 0,-1.17774 0,-1.17773 3.7597,-0.75195 3.7598,-0.75196 -0.3223,-1.57812 -0.3222,-1.57813 3.1855,0.35547 3.1856,0.35547 3.6894,-1.92383 c 2.0291,-1.05808 4.9868,-1.92764 6.5742,-1.93164 l 2.8868,-0.006 -0.8067,-1.30469 -0.8066,-1.30664 1.5,-1.80468 1.5,-1.80664 z m 22.0215,2.1289 2.2851,0.93164 2.2832,0.92969 -2.5,1.02734 c -1.375,0.56539 -3.3234,1.06899 -4.3301,1.11719 l -1.83,0.0879 2.0468,-2.04687 2.045,-2.04688 z m -52.3067,5.34375 1.668,0 c 0.9167,0 2.0359,0.3699 2.4883,0.82227 l 0.8222,0.82226 -1.3906,1.67774 c -0.7658,0.92263 -1.8869,1.67773 -2.4902,1.67773 l -1.0977,0 0,-2.5 0,-2.5 z m 13.7422,3.25781 -1.4433,1.44336 -1.4415,1.44141 1.5997,1.92773 c 1.6453,1.9824 5.0749,2.66298 5.0039,0.99219 -0.022,-0.51562 -0.8671,-2.03304 -1.8789,-3.37109 l -1.8399,-2.4336 z m -8.7422,9.24219 c 0.6875,0 1.25,0.5625 1.25,1.25 0,0.6875 -0.5625,1.25 -1.25,1.25 -0.6875,0 -1.25,-0.5625 -1.25,-1.25 0,-0.6875 0.5625,-1.25 1.25,-1.25 z m -7.3515,2.5 1.25,0 -0.7735,1.25 c -0.4248,0.6875 -1.334,1.25 -2.0215,1.25 l -1.25,0 0.7715,-1.25 c 0.4249,-0.6875 1.336,-1.25 2.0235,-1.25 z m 19.8515,0.83203 -0.832,0.83399 -0.834,0.83398 1.666,0 1.668,0 -0.834,-0.83398 -0.834,-0.83399 z m -22.6465,11.66797 1.875,0 c 1.0313,0 2.2217,0.5625 2.6465,1.25 l 0.7735,1.25 -1.875,0 c -1.0312,0 -2.2236,-0.5625 -2.6485,-1.25 l -0.7715,-1.25 z m 47.0957,1.25 c 0.3032,0 0.5508,0.5625 0.5508,1.25 0,0.6875 -0.5942,1.25 -1.3222,1.25 l -1.3243,0 0.7715,-1.25 c 0.4249,-0.6875 1.0211,-1.25 1.3242,-1.25 z m -29.5957,5.04102 c 0.95,-0.0229 3.5417,1.08028 5.7598,2.45117 l 4.0332,2.49219 3.9746,-1.98243 3.9746,-1.98437 1.8282,0.70117 c 1.005,0.38564 1.8261,1.28115 1.8261,1.99024 l 0,1.29101 -2.582,0 c -1.4202,0 -3.5296,0.48161 -4.6875,1.07227 -1.158,0.59066 -3.9551,1.42462 -6.2168,1.85351 l -4.1133,0.78125 0.3633,-1.70312 0.3613,-1.70313 -3.125,-2.60937 -3.125,-2.60938 1.7285,-0.041 z m 113.502,0.58398 -0.5313,1.5625 -0.5332,1.56445 2.545,0.93555 2.5468,0.9375 21.3086,0.28711 c 11.7201,0.15862 21.3086,0.0403 21.3086,-0.26367 0,-1.90946 -19.0603,-4.1298 -41.7597,-4.86523 l -4.8848,-0.15821 z m -80.332,9.375 c 1.416,0 4.4765,1.61838 4.4765,2.36719 0,0.46765 -1.125,0.93543 -2.5,1.03906 l -2.5,0.1875 0,-1.79687 c 0,-0.98853 0.236,-1.79688 0.5235,-1.79688 z m 9.4765,5.83203 0.834,0.83399 0.834,0.83398 -1.668,0 -1.666,0 0.834,-0.83398 0.832,-0.83399 z m 56.4766,0.40821 -1.9883,0.76367 -1.9883,0.76367 0,1.74023 0,1.74219 2.1875,0.16797 c 7.5335,0.58104 25.0059,1.10268 34.0625,1.01758 l 10.625,-0.0996 3.1114,1.15625 3.1093,1.15625 27.2012,0.0586 27.2012,0.0566 0.6054,-0.98046 0.6075,-0.98047 -3.5391,-0.70703 c -6.5025,-1.3005 -21.7945,-2.13571 -52.0469,-2.8418 -37.2723,-0.86992 -46.3735,-1.29842 -47.9258,-2.25781 l -1.2226,-0.75586 z m -98.9766,1.25976 2.3985,0 c 1.3187,0 3.3012,0.34548 4.4062,0.76953 l 2.0098,0.77149 -1.4356,1.72851 c -0.7892,0.95096 -1.7873,1.6823 -2.2187,1.625 -0.4315,-0.0573 -1.7695,-1.1823 -2.9727,-2.5 l -2.1875,-2.39453 z m 12.4278,1.25 c 0.6469,0 1.5224,0.5625 1.9472,1.25 l 0.7735,1.25 -1.9493,0 -1.9492,0 0,-1.25 c 0,-0.6875 0.5308,-1.25 1.1778,-1.25 z m 193.9707,2.5 -0.6641,1.07422 -0.666,1.07617 0.8008,0.79883 c 1.8688,1.86885 10.3808,0.36504 10.3808,-1.83398 l 0,-1.11524 -4.9258,0 -4.9257,0 z m -161.3985,7.08203 0.834,0.83399 0.834,0.83398 -0.834,0.83203 -0.834,0.83399 0,-1.66602 0,-1.66797 z m -71.25,2.91797 4.8477,0 4.8476,0 1.543,1.85938 1.5449,1.85937 -1.7031,0.53516 c -0.9368,0.29446 -3.1516,0.85032 -4.9219,1.23437 l -3.2187,0.69922 -1.4688,-1.46875 c -0.8079,-0.80788 -1.4707,-2.2 -1.4707,-3.09375 l 0,-1.625 z m 55,0 0,1.0586 c 0,0.58308 -2.2176,2.06212 -4.9297,3.28515 l -4.9316,2.22266 -3.1504,-0.60156 -3.1504,-0.60157 -0.3555,0.80664 c -0.1959,0.44418 -2.3784,2.33121 -4.8496,4.19336 l -4.4921,3.38672 -2.6954,0 -2.6953,0 0,-1.23242 c 0,-3.45216 19.9673,-12.41818 27.8125,-12.48828 l 3.4375,-0.0293 z m -34.8515,5 1.25,0 -0.7735,1.25 c -0.4248,0.6875 -1.334,1.25 -2.0215,1.25 l -1.25,0 0.7715,-1.25 c 0.4249,-0.6875 1.336,-1.25 2.0235,-1.25 z m 193.6015,7.5 0,1.25 0,1.25 2.5,0 2.5,0 0,-1.25 0,-1.25 -2.5,0 -2.5,0 z m -126.25,5 0,1.25 0,1.25 2.5,0 2.5,0 0,-1.25 0,-1.25 -2.5,0 -2.5,0 z m -77.6465,7.5 2.0215,0 2.0235,0 -0.7735,1.25 c -0.4248,0.6875 -0.9873,1.25 -1.25,1.25 -0.2626,0 -0.8251,-0.5625 -1.25,-1.25 l -0.7715,-1.25 z m 14.5215,10 1.875,0 0,1.875 c 0,1.95196 -1.4777,2.47932 -2.916,1.04102 -1.4384,-1.43828 -0.911,-2.91602 1.041,-2.91602 z m -1.875,8.82813 0,0.91015 c 0,0.50055 -1.1035,1.59859 -2.4531,2.44141 l -2.4531,1.5332 0.6758,-1.75976 c 0.3715,-0.96803 1.4749,-2.06803 2.4531,-2.44336 l 1.7773,-0.68164 z m 135.4864,3.04687 2.3105,3.95508 2.3105,3.95703 -1.2031,0.74219 -1.2031,0.74414 -2.6348,-3.34961 c -2.6332,-3.3476 -2.8909,-5.41827 -0.7285,-5.83008 l 1.1485,-0.21875 z m -74.2364,2.70703 0.834,0.83399 0.834,0.83398 -1.668,0 -1.666,0 0.834,-0.83398 0.832,-0.83399 z m 3.75,1.51953 1.25,0.77344 c 0.6875,0.4249 1.25,1.01909 1.25,1.32227 0,0.30317 -0.5625,0.55273 -1.25,0.55273 -0.6875,0 -1.25,-0.59615 -1.25,-1.32422 l 0,-1.32422 z m -25,0.98047 0.834,0.83399 0.834,0.83398 -1.668,0 -1.666,0 0.834,-0.83398 0.832,-0.83399 z m 6.4063,0.15625 0.7558,0.75586 0.7559,0.75391 -2.3965,-0.0977 -2.3965,-0.0996 1.6407,-0.65625 1.6406,-0.65625 z m 22.3437,2.34375 0.834,0.83399 0.834,0.83398 -1.668,0 -1.666,0 0.834,-0.83398 0.832,-0.83399 z m -10,1.45899 1.3438,0.44726 c 0.7391,0.24635 1.3437,0.98359 1.3437,1.63672 0,0.65312 -0.6046,1.38842 -1.3437,1.63477 l -1.3438,0.44726 0,-2.08203 0,-2.08398 z m 40,2.29101 0.834,0.83399 0.834,0.83398 -1.668,0 -1.666,0 0.834,-0.83398 0.832,-0.83399 z m -33.8965,0.41797 1.875,0 c 1.0313,0 2.2217,0.5625 2.6465,1.25 l 0.7735,1.25 -1.875,0 c -1.0312,0 -2.2236,-0.5625 -2.6485,-1.25 l -0.7715,-1.25 z m 31.6231,8.74024 1.1582,0.71679 1.1562,0.71485 -0.7187,1.16406 c -0.9158,1.48169 -3.9598,1.50994 -4.8652,0.0449 l -0.6914,-1.11914 1.9804,-0.75977 1.9805,-0.76171 z m 5.4726,2.50976 c 0.3032,0 0.5508,0.5625 0.5508,1.25 0,0.6875 -0.5942,1.25 -1.3222,1.25 l -1.3243,0 0.7715,-1.25 c 0.4249,-0.6875 1.0211,-1.25 1.3242,-1.25 z m -4.3007,2.5 1.25,0 -0.7735,1.25 c -0.4248,0.6875 -1.334,1.25 -2.0215,1.25 l -1.25,0 0.7715,-1.25 c 0.4249,-0.6875 1.336,-1.25 2.0235,-1.25 z m 1.8925,7.5 1.8926,0 -0.4043,2.08399 c -0.2223,1.14616 -1.0551,2.29931 -1.8515,2.56445 l -1.4473,0.48242 -0.8145,-1.31641 -0.8125,-1.31445 0.7715,-1.25 c 0.4249,-0.6875 1.625,-1.25 2.666,-1.25 z m -20.9218,3.55078 2.2539,1.26563 2.2519,1.26367 -2.1875,0.70898 c -1.2031,0.38999 -3.0312,0.97276 -4.0625,1.29493 l -1.875,0.58593 0,-1.05664 c 0,-0.58174 0.8154,-1.73455 1.8106,-2.56054 l 1.8086,-1.50196 z m 8.8808,0.19922 2.6055,0 2.6035,0 -0.5195,1.5625 c -0.2862,0.85937 -1.4592,1.74257 -2.6055,1.96485 l -2.084,0.40429 0,-1.96679 0,-1.96485 z m -71.5683,7.35352 0.5996,3.13281 0.5976,3.13477 -1.3144,1.31445 c -0.7229,0.7229 -1.652,1.31445 -2.0645,1.31445 -1.5486,0 -3.75,-3.08192 -3.75,-5.25 l 0,-2.25 1.1485,0 c 0.6312,0 1.9651,-0.3156 2.9648,-0.69922 l 1.8184,-0.69726 z m 2.8183,3.89648 2.5,0 c 1.375,0 2.5,0.21496 2.5,0.47852 0,0.26356 -1.125,0.77324 -2.5,1.13281 l -2.5,0.6543 0,-1.13282 0,-1.13281 z m 61.0977,31.25 c -1.3809,0 -3.5999,0.58128 -4.9297,1.29297 l -2.418,1.29492 0,1.72656 0,1.72657 1.5625,0.63086 c 2.3758,0.95863 12.5045,0.77197 15.1836,-0.2793 l 2.3711,-0.92969 -4.6289,-2.73242 -4.6309,-2.73047 -2.5097,0 z m 15.7812,0.96875 2.9922,2.42383 2.9922,2.42187 16.0586,-0.18945 c 8.8329,-0.10455 16.3802,-0.50923 16.7715,-0.90039 l 0.7109,-0.71289 -7.2636,-0.71289 c -3.9955,-0.39234 -12.8894,-1.07692 -19.7637,-1.52148 l -12.4981,-0.8086 z m -25.9336,20.28125 1.5547,1.875 c 0.8559,1.03125 2.0511,1.875 2.6543,1.875 l 1.0957,0 0,-1.875 0,-1.875 -2.6523,0 -2.6524,0 z m 100.4532,2.5 -15.3868,0.0703 -15.3867,0.0723 -5,1.05273 -5,1.05274 19.7207,-0.0469 19.7207,-0.0488 0.666,-1.07618 0.6661,-1.07617 z m -82.7989,0.13867 c -1.3593,-0.002 -2.7652,0.066 -3.8886,0.20508 l -4.086,0.50586 7.5,0.0117 7.5,0.0137 -3.414,-0.51953 c -0.9391,-0.14263 -2.252,-0.21448 -3.6114,-0.2168 z m -88.4707,3.58399 c 0.1174,2.4e-4 0.2127,0.0349 0.2735,0.10937 0.2433,0.29792 0.086,1.94922 -0.3496,3.66797 l -0.7911,3.125 -0.9218,-2.39648 -0.9219,-2.39649 1.2715,-1.27148 c 0.5239,-0.52394 1.0874,-0.83863 1.4394,-0.83789 z m 72.8711,7.52734 -1.5,1.5 c -1.9226,1.92262 -1.8882,2.93282 0.1621,4.97266 l 1.6602,1.65234 47.0898,0.23438 47.0879,0.23437 0,-1.17187 0,-1.17188 -2.8125,-0.0586 c -1.5468,-0.0317 -7.5937,-0.28114 -13.4375,-0.55469 -5.8437,-0.27354 -19.9062,-0.83216 -31.25,-1.24219 -25.6663,-0.92775 -34.8185,-1.71159 -37.6347,-3.21875 -1.2098,-0.64747 -3.8111,-1.17578 -5.7813,-1.17578 l -3.584,0 z m -81.75,3.33203 0.834,0.83399 0.834,0.83398 -0.834,0.83203 -0.834,0.83399 0,-1.66602 0,-1.66797 z m 45.6992,0.41797 c 0.3032,0 0.5508,0.5625 0.5508,1.25 0,0.6875 -0.5942,1.25 -1.3222,1.25 l -1.3243,0 0.7715,-1.25 c 0.4249,-0.6875 1.0211,-1.25 1.3242,-1.25 z m 36.8008,16.25 0,1.25 0,1.25 2.5,0 2.5,0 0,-1.25 0,-1.25 -2.5,0 -2.5,0 z m 31.1035,1.25 -10.8632,0.19531 -10.8653,0.19727 6.25,0.85742 c 3.4375,0.47149 8.6743,0.94476 11.6367,1.05274 l 5.3868,0.19726 -0.7735,-1.25 -0.7715,-1.25 z m 8.8965,1.41211 c -0.5664,0 -1.1328,0.0864 -1.5625,0.25977 l -1.5625,0.63086 3.125,0 3.125,0 -1.5625,-0.63086 c -0.4296,-0.17338 -0.9961,-0.25977 -1.5625,-0.25977 z m -138.75,1.08789 1.5625,0.0176 c 0.8594,0.0105 2.4063,0.56597 3.4375,1.23242 l 1.875,1.21094 -3.4375,0.0195 -3.4375,0.0195 0,-1.25 0,-1.25 z m 56.3242,0 c 0.647,0 1.1758,0.5625 1.1758,1.25 l 0,1.25 -1.9472,0 -1.9493,0 0.7715,-1.25 c 0.4249,-0.6875 1.3023,-1.25 1.9492,-1.25 z m -7.5742,2.5 0,1.25 c 0,1.41265 -0.589,1.41265 -5,0 l -3.125,-1.00195 4.0625,-0.125 4.0625,-0.12305 z m -18.75,2.08203 0.834,0.83399 0.834,0.83398 -0.834,0.83203 -0.834,0.83399 0,-1.66602 0,-1.66797 z m 8.75,1.25 0.834,0.83399 0.834,0.83398 -0.834,0.83203 -0.834,0.83399 0,-1.66602 0,-1.66797 z m -6.25,3.75 0.834,0.83399 0.834,0.83398 -0.834,0.83203 -0.834,0.83399 0,-1.66602 0,-1.66797 z m -17.9258,3.09571 c 0.8301,-0.0684 2.4326,0.68352 5.4258,2.32226 l 4.375,2.39453 -1.875,-0.13476 c -1.0312,-0.0742 -3.4218,-0.36985 -5.3125,-0.65625 l -3.4375,-0.51953 0,-1.79297 c 0,-1.01085 0.1787,-1.56006 0.8242,-1.61328 z m 112.9258,6.90429 0.834,0.83399 0.834,0.83398 -1.668,0 -1.666,0 0.834,-0.83398 0.832,-0.83399 z m 52.5,0.41797 0,1.25 c 0,0.6875 0.5308,1.25 1.1778,1.25 0.6469,0 1.5224,-0.5625 1.9472,-1.25 l 0.7735,-1.25 -1.9493,0 -1.9492,0 z m -75,3.33203 0.834,0.83399 0.834,0.83398 -1.668,0 -1.666,0 0.834,-0.83398 0.832,-0.83399 z m 5.3067,2.91797 2.3476,0 2.3457,0 0,1.2793 0,1.28125 -3.1797,1.20898 c -1.7491,0.66499 -4.7022,1.508 -6.5625,1.87305 l -3.3828,0.66406 2.5449,-1.13867 c 1.3989,-0.6264 3.2952,-2.04614 4.2149,-3.1543 l 1.6719,-2.01367 z m -60.3067,3.33203 0.834,0.83399 0.834,0.83398 -1.668,0 -1.666,0 0.834,-0.83398 0.832,-0.83399 z m 42.5,0.41797 1.9492,0 1.9493,0 -0.7735,1.25 c -0.4248,0.6875 -1.3003,1.25 -1.9472,1.25 -0.647,0 -1.1778,-0.5625 -1.1778,-1.25 l 0,-1.25 z m -31.25,3.75 c 0.6875,0 1.25,0.5625 1.25,1.25 0,0.6875 -0.5625,1.25 -1.25,1.25 -0.6875,0 -1.25,-0.5625 -1.25,-1.25 0,-0.6875 0.5625,-1.25 1.25,-1.25 z m -21.25,0.83203 0.834,0.83399 0.834,0.83203 -0.834,0.83398 -0.834,0.83399 0,-1.66797 0,-1.66602 z m 176.25,2.5 0.834,0.83399 0.834,0.83203 -1.668,0 -1.666,0 0.834,-0.83203 0.832,-0.83399 z m -6.3008,0.30078 2.5254,1.35157 2.5254,1.35156 0,1.83203 c 0,2.4205 -1.2672,2.25272 -4.7129,-0.62109 l -2.8398,-2.36719 1.25,-0.77344 1.2519,-0.77344 z m 10.0508,0.94922 0.834,0.83399 0.834,0.83203 -1.668,0 -1.666,0 0.834,-0.83203 0.832,-0.83399 z m -28.75,7.5 0.834,0.83399 0.834,0.83203 -1.668,0 -1.666,0 0.834,-0.83203 0.832,-0.83399 z m 9.7969,0.32618 4.2109,0.43164 c 4.687,0.48083 7.2422,1.70966 7.2422,3.48242 l 0,1.17578 -1.8008,0 c -0.9906,0 -2.1493,-0.5625 -2.5742,-1.25 -0.4248,-0.6875 -1.8311,-1.25 -3.125,-1.25 l -2.3515,0 -0.8008,-1.29492 -0.8008,-1.29492 z m -14.6406,4.83007 0.7558,0.75586 0.7559,0.75391 -2.3965,-0.0977 -2.3965,-0.0996 1.6407,-0.65625 1.6406,-0.65625 z m 19.8828,0.3125 c 0.2889,0.0117 0.4791,0.0494 0.543,0.11328 0.2555,0.25549 -0.1929,1.32764 -0.9961,2.38282 l -1.461,1.91797 -2.5,-0.47852 c -1.375,-0.26362 -2.9944,-0.94865 -3.5996,-1.52148 l -1.0996,-1.04102 4.5957,-0.86328 c 1.8959,-0.35567 3.6508,-0.54498 4.5176,-0.50977 z m -124.9317,84.94922 c -1.4773,0 -4.6373,0.81439 -7.0214,1.81055 l -4.336,1.81055 0,1.91601 0,1.91406 2.8125,0.70704 2.8125,0.70507 0.2051,5.25586 c 0.1127,2.89049 0.2403,8.20898 0.2813,11.81836 l 0.076,6.5625 14.5586,0 14.5606,0 -1.8516,-2.8125 c -1.0175,-1.54687 -2.914,-3.39728 -4.2148,-4.11133 -3.913,-2.14809 -12.0515,-10.57205 -14.3399,-14.84179 l -2.1445,-4.00196 0.6426,-3.36718 0.6445,-3.36524 -2.6856,0 z m -82.6074,12.49805 0,1.80273 c 0,0.99068 -0.636,2.19493 -1.414,2.67578 l -1.4141,0.87305 -1.1484,-2.05078 -1.1465,-2.05078 -2.1699,0 -2.17,0 -0.2949,7.05664 c -0.1624,3.88074 0.037,8.09949 0.4414,9.375 l 0.7363,2.31836 4.6036,-0.0176 4.6015,-0.0195 -1.5976,-1.01367 -1.5977,-1.01563 -0.3574,-4.52929 -0.3555,-4.5293 3.8281,-0.375 3.8301,-0.375 0.3926,-4.0625 0.3926,-4.0625 -2.5801,0 -2.5801,0 z m -28.4785,1.25195 -0.8203,3.27149 -0.8223,3.27148 1.9356,2.13867 c 2.4859,2.74685 2.4488,4.92863 -0.1328,7.78125 l -2.0684,2.28516 5.1094,0 5.1094,0 0.7851,-2.47461 0.7871,-2.47461 -2.2636,-6.89062 -2.2657,-6.89063 -2.6758,-0.01 -2.6777,-0.008 z"
       id="path13894" />
  </g>
</svg>
