<?xml version="1.0" encoding="UTF-8" standalone="no"?>
<!-- Created with Inkscape (http://www.inkscape.org/) -->

<svg
   xmlns:dc="http://purl.org/dc/elements/1.1/"
   xmlns:cc="http://creativecommons.org/ns#"
   xmlns:rdf="http://www.w3.org/1999/02/22-rdf-syntax-ns#"
   xmlns:svg="http://www.w3.org/2000/svg"
   xmlns="http://www.w3.org/2000/svg"
   xmlns:sodipodi="http://sodipodi.sourceforge.net/DTD/sodipodi-0.dtd"
   xmlns:inkscape="http://www.inkscape.org/namespaces/inkscape"
   width="210mm"
   height="297mm"
   viewBox="0 0 744.09448819 1052.3622047"
   id="svg4143"
   version="1.1"
   inkscape:version="0.91 r13725"
   sodipodi:docname="F.svg">
  <defs
     id="defs4145" />
  <sodipodi:namedview
     id="base"
     pagecolor="#ffffff"
     bordercolor="#666666"
     borderopacity="1.0"
     inkscape:pageopacity="0.0"
     inkscape:pageshadow="2"
     inkscape:zoom="0.35"
     inkscape:cx="-145"
     inkscape:cy="520"
     inkscape:document-units="px"
     inkscape:current-layer="layer1"
     showgrid="false"
     inkscape:window-width="1920"
     inkscape:window-height="1055"
     inkscape:window-x="0"
     inkscape:window-y="25"
     inkscape:window-maximized="1" />
  <metadata
     id="metadata4148">
    <rdf:RDF>
      <cc:Work
         rdf:about="">
        <dc:format>image/svg+xml</dc:format>
        <dc:type
           rdf:resource="http://purl.org/dc/dcmitype/StillImage" />
        <dc:title></dc:title>
      </cc:Work>
    </rdf:RDF>
  </metadata>
  <g
     inkscape:label="Layer 1"
     inkscape:groupmode="layer"
     id="layer1">
    <path
       inkscape:connector-curvature="0"
       style="fill:#000000"
       d="m 204.46429,291.722 0,2.08398 0,2.08203 1.3438,-0.44726 c 0.7391,-0.24635 1.3437,-0.98164 1.3437,-1.63477 0,-0.65311 -0.6046,-1.39036 -1.3437,-1.63671 l -1.3438,-0.44727 z m 274.93949,7.70898 -1.2481,3.2793 -1.2461,3.2793 2.2149,1.67968 c 1.2184,0.92447 2.7164,1.69881 3.3281,1.72071 1.6658,0.0595 4.4277,-4.02057 4.4727,-6.60743 l 0.039,-2.27148 -2.5,0.79492 -2.5,0.79297 0,-1.33398 c 0,-0.73384 -0.5746,-1.33399 -1.2793,-1.33399 l -1.2812,0 z m -265.92579,5.88086 -2.0059,0.76953 -2.0078,0.76953 0.055,4.72657 c 0.03,2.5997 0.5982,7.25976 1.2617,10.35351 l 1.2071,5.625 0.6464,20.625 c 0.3556,11.34375 0.8235,24.84375 1.0411,30 0.2177,5.15625 -0.2579,20.0625 -1.0586,33.125 l -1.4571,23.75 0.211,24.375 0.2109,24.375 -0.8848,6.02149 -0.8847,6.02148 1.5058,1.50586 1.5059,1.50586 -1.043,8.09766 c -0.9979,7.75473 -1.9773,24.97742 -2.9511,51.84765 -0.249,6.875 -0.9603,20.375 -1.5801,30 l -1.127,17.5 1.0957,1.4375 1.0957,1.4375 -1.4004,5.5625 -1.4003,5.56055 0.414,3.625 0.4121,3.62695 2.8867,0.40821 2.8848,0.4082 -1.5547,1.875 -1.5547,1.87304 1.795,1.13672 1.7929,1.13477 -1.6465,0.0195 -1.6464,0.0176 0.7929,2.5 0.7949,2.5 -1.9589,0 -1.961,0 0,1.875 0,1.875 1.25,0 1.25,0 0,1.875 c 0,1.03125 -0.4377,1.875 -0.9746,1.875 -0.5367,0 -1.6444,1.77034 -2.4609,3.93359 l -1.4844,3.9336 0.668,1.08007 c 0.367,0.5939 0.926,5.99543 1.2441,12.00391 0.3182,6.00849 0.7866,12.89258 1.0391,15.29883 0.2527,2.40625 0.8212,8.59375 1.2656,13.75 0.4443,5.15625 1.1062,12.32966 1.4707,15.93945 l 0.6641,6.5625 1.75,1.75195 1.75,1.75 -2.0059,4.02149 -2.0059,4.02344 1.5606,6.97656 1.5625,6.97851 0.2851,14.86719 0.2833,14.86719 1.7578,1.11133 c 0.9664,0.61179 4.0058,1.17972 6.7558,1.26172 12.2844,0.36598 26.043,1.15371 26.4141,1.51172 0.819,0.79873 31.427,-0.48715 40.6601,-1.70899 l 9.57429,-1.26758 3.0175,0.75782 3.0176,0.75781 1.3008,-1.64258 1.3008,-1.64258 0.9219,-7.5 c 1.2323,-10.01818 1.2226,-10.60332 -0.4297,-24.91992 l -1.4336,-12.41992 -0.039,-33.83008 c -0.023,-18.60674 -0.045,-34.67383 -0.045,-35.70508 0,-1.03125 0.2577,-11.4375 0.5762,-23.125 l 0.5781,-21.25 2.3926,-6.875 2.3925,-6.875 -0.3496,-11.52929 -0.3496,-11.52735 1.1875,-0.73437 1.1856,-0.73243 0,-3.60156 0,-3.60351 1.0449,-0.64454 1.043,-0.64453 4.3789,1.3418 4.3769,1.34375 4.9375,4.54102 c 2.7155,2.49708 5.958,6.15435 7.2051,8.12695 l 2.2676,3.58594 8.3105,-0.80469 c 9.9501,-0.96311 20.6943,-1.64703 40.7617,-2.5957 l 14.9512,-0.70704 2.7754,-2.60546 2.7734,-2.60743 0.9864,-5.17578 c 0.5418,-2.8469 1.0166,-5.73828 1.0566,-6.42578 0.04,-0.6875 0.4895,-1.91469 0.9981,-2.72656 l 0.9238,-1.47656 -1.2695,-0.78516 c -0.6987,-0.43183 -1.2715,-1.59526 -1.2715,-2.58594 l 0,-1.80078 2.3613,0 2.3613,0 0.8965,-4.6875 0.8965,-4.6875 -0.1895,-19.96289 -0.1914,-19.96094 -1.5039,-0.98828 c -0.8276,-0.54263 -2.8191,-1.33452 -4.4258,-1.76172 l -2.9218,-0.77734 -5.8282,2.52539 -5.83,2.52734 -8.75,1.30274 -8.75,1.30078 -5,-1.00781 c -6.1664,-1.24477 -9.4384,-2.48702 -11.875,-4.50782 l -1.875,-1.55468 -7.4141,-1.51563 -7.4141,-1.51562 -6.9921,0.79101 -6.9942,0.79102 -2.1523,-1.59375 -2.1543,-1.5918 -1.6113,-5.59765 -1.6114,-5.59571 -4.9316,-3.34961 -4.9317,-3.34961 -1.6191,-11.67968 -1.6191,-11.67774 0.1796,-10 c 0.099,-5.5 0.2805,-14.5 0.4043,-20 l 0.2247,-10 -1.2305,-2.08594 -1.2324,-2.08789 1.4882,-1.79101 1.4864,-1.79297 12.1875,-1.12109 c 11.3157,-1.04172 38.1009,-1.86625 49.6875,-1.5293 24.8234,0.72189 51.319,-0.20399 54.0449,-1.88867 l 1.3926,-0.86133 3.1445,1.43359 3.1465,1.4336 5.6269,-1.41797 5.627,-1.41602 8.668,0 8.6679,0 1.5508,-1.86914 1.5508,-1.86914 -0.7441,-2.81836 -0.7461,-2.81836 2.3964,-1.875 2.3985,-1.875 0.8301,-3.41992 0.832,-3.41797 -3.1348,-1.1914 c -1.7239,-0.65543 -3.5424,-1.85338 -4.041,-2.66016 l -0.9062,-1.4668 1.4531,-0.89648 1.4531,-0.89844 -0.8379,-2.18359 -0.8379,-2.1836 -2.9551,-1.12304 c -1.625,-0.61783 -2.955,-1.66147 -2.955,-2.32032 l 0,-1.19726 3.4375,-0.39649 3.4375,-0.39453 0.834,-5.625 c 0.4589,-3.09375 0.853,-12.80344 0.873,-21.57617 0.021,-8.77274 0.3773,-16.50104 0.793,-17.17383 l 0.7558,-1.22265 -2.0293,-4.2754 -2.0293,-4.27539 -2.9199,-0.73437 c -1.6061,-0.40312 -7.3307,-1.03325 -12.7226,-1.40039 -5.3918,-0.36715 -13.7996,-1.23865 -18.6836,-1.9375 l -8.8809,-1.27149 -10.4925,1.22853 c -13.1025,1.53204 -39.7278,2.71208 -64.2461,2.84961 l -18.75,0.10547 -14.0351,-1.42969 c -7.7197,-0.78634 -15.3135,-1.8811 -16.875,-2.43359 l -2.8399,-1.00391 -8.74999,0.65625 c -11.8212,0.88883 -36.3819,0.85567 -49.375,-0.0684 -5.8437,-0.41557 -13.5179,-1.46573 -17.0547,-2.33203 l -6.4316,-1.57422 z m 142.23629,54.95117 0.834,0.83399 0.834,0.83203 -1.668,0 -1.666,0 0.834,-0.83203 0.832,-0.83399 z m -32.2441,7.91602 1.3008,0 -1.5567,1.875 c -1.7652,2.12699 -3.2806,2.39581 -4.2929,0.75781 l -0.6914,-1.11914 1.9687,-0.75586 c 1.0836,-0.41579 2.5561,-0.75781 3.2715,-0.75781 z m 85.9941,0 3.75,0 3.75,0 0,1.25 0,1.25 -3.75,0 -3.75,0 0,-1.25 0,-1.25 z m -46.6113,3.61328 3.2559,0.81641 c 1.79,0.44926 3.909,1.60457 4.7089,2.56836 l 1.4532,1.75195 -5.0782,0 -5.08,0 -0.8399,-1.35742 -0.8398,-1.35938 1.2109,-1.21094 1.209,-1.20898 z m -45.3301,3.88672 c 0.3805,0 0.6914,1.575 0.6914,3.5 l 0,3.5 -1.5,1.5 c -0.825,0.825 -2.0906,1.43517 -2.8125,1.35547 -2.9905,-0.33039 -5.6875,-1.34107 -5.6875,-2.13281 2e-4,-0.92624 8.1919,-7.72266 9.3086,-7.72266 z m -54.39449,15.57031 c 0.8247,0.0135 1.3359,0.0695 1.3359,0.16602 0,0.19308 -0.5483,1.79509 -1.2187,3.55859 l -1.2188,3.20508 -2.2187,-0.0371 c -1.2202,-0.0209 -3.2112,-0.61706 -4.4258,-1.32422 l -2.209,-1.28516 1.0957,-1.95703 1.0957,-1.95703 4.5508,-0.27734 c 1.2513,-0.076 2.3881,-0.10534 3.2129,-0.0918 z m 14.9394,0.67969 2.6465,0 2.6485,0 -0.7735,1.25 c -0.4248,0.6875 -1.2686,1.25 -1.875,1.25 -0.6064,0 -1.4501,-0.5625 -1.875,-1.25 l -0.7715,-1.25 z m 8.8965,10.83398 0.834,0.83399 0.834,0.83203 -1.668,0 -1.666,0 0.834,-0.83203 0.832,-0.83399 z m -45.5996,5.41602 c 0.5432,0 -0.083,1.18562 -1.3926,2.63281 -1.3098,1.44718 -2.212,2.99405 -2.0039,3.4375 0.2083,0.44344 -0.4949,0.98672 -1.5625,1.20899 -1.0675,0.22229 -1.9414,0.11068 -1.9414,-0.24805 0,-1.08207 5.8385,-7.03125 6.9004,-7.03125 z m 13.0996,3.56836 2.1875,0.41992 2.1875,0.42188 0,1.7539 c 0,1.97357 -2.2054,3.08955 -3.5156,1.7793 -0.4726,-0.47266 -0.8594,-1.65011 -0.8594,-2.61719 l 0,-1.75781 z m 31.25,0.18164 c 0.6875,0 1.25,0.5625 1.25,1.25 0,0.6875 -0.5625,1.25 -1.25,1.25 -0.6875,0 -1.25,-0.5625 -1.25,-1.25 0,-0.6875 0.5625,-1.25 1.25,-1.25 z m 2.3535,3.75 2.5743,0 2.5722,0 0,1.25 0,1.25 -1.8008,0 c -0.9907,0 -2.1493,-0.5625 -2.5742,-1.25 l -0.7715,-1.25 z m -44.2285,2.80273 3.0957,1.16211 3.0957,1.16406 -1.8457,1.16797 -1.8457,1.16602 -4.6875,0.0195 c -2.5781,0.0105 -4.6875,-0.24812 -4.6875,-0.57422 0,-0.3261 1.5469,-1.38347 3.4375,-2.34961 l 3.4375,-1.75586 z m 11.875,12.19727 1.25,0 1.25,0 0,1.875 0,1.875 -1.25,0 -1.25,0 0,-1.875 0,-1.875 z m 6.1035,2.5 1.9493,0 1.9472,0 0,1.25 c 0,0.6875 -0.5288,1.25 -1.1758,1.25 -0.6469,0 -1.5243,-0.5625 -1.9492,-1.25 l -0.7715,-1.25 z m 33.27149,13.75 1.875,0 0,1.875 c 0,1.95196 -1.4778,2.48127 -2.91599,1.04297 -1.4384,-1.43828 -0.911,-2.91797 1.04099,-2.91797 z m -29.37499,7.5 c 0.6875,0 1.25,0.5625 1.25,1.25 0,0.6875 -0.5625,1.25 -1.25,1.25 -0.6875,0 -1.25,-0.5625 -1.25,-1.25 0,-0.6875 0.5625,-1.25 1.25,-1.25 z m -11.6621,6.33594 c 0.4485,0.0307 1.133,0.27097 2.1778,0.67187 l 1.9707,0.75586 -0.6915,1.11914 c -0.3803,0.61546 -1.5015,1.11719 -2.4921,1.11719 l -1.8028,0 0,-1.875 c 0,-1.31431 0.091,-1.84028 0.8379,-1.78906 z m 14.1621,3.66406 c 0.6875,0 1.25,0.5625 1.25,1.25 0,0.6875 -0.5625,1.25 -1.25,1.25 -0.6875,0 -1.25,-0.5625 -1.25,-1.25 0,-0.6875 0.5625,-1.25 1.25,-1.25 z m -13.75,2.08398 0.834,0.83399 0.834,0.83203 -0.834,0.83398 -0.834,0.83399 0,-1.66797 0,-1.66602 z m 51.26959,24.89844 1.8457,1.8457 1.8457,1.84766 -2.5079,1.56445 -2.5097,1.56641 -0.7617,-1.98633 -0.7637,-1.98828 1.4258,-1.42383 1.4258,-1.42578 z m 37.373,13.95898 1.9297,0.74024 c 1.0609,0.4071 1.9277,1.32021 1.9277,2.0293 l 0,1.28906 -1.8008,0 c -0.9906,0 -2.1718,-0.59879 -2.625,-1.33203 l -0.8242,-1.33399 0.6973,-0.69531 0.6953,-0.69727 z m 82.4609,1.56055 0.7715,1.25 c 0.4249,0.6875 1.0211,1.25 1.3242,1.25 0.3032,0 0.5508,-0.5625 0.5508,-1.25 0,-0.6875 -0.5942,-1.25 -1.3222,-1.25 l -1.3243,0 z m -99.5683,12.49805 1.1465,0 c 0.6309,0 1.4738,0.85258 1.873,1.89258 l 0.7266,1.89062 -1.543,1.85938 c -0.8485,1.0225 -1.9395,1.85742 -2.4238,1.85742 l -0.8809,0 0.5508,-3.75 0.5508,-3.75 z m -71.42579,4.6914 0.7988,0.80079 0.8008,0.80078 -1.1777,1.17578 -1.1758,1.17773 -1.8301,-1.13086 -1.8301,-1.13086 2.2071,-0.8457 2.207,-0.84766 z m -2.6094,39.0586 1.875,0 1.875,0 0,1.25 0,1.25 -1.875,0 -1.875,0 0,-1.25 0,-1.25 z m 40.2832,5.51758 c 0.5851,0.0167 1.2507,0.11816 1.9864,0.31054 l 2.70309,0.70704 -0.6856,1.10742 -0.6836,1.10742 -3.05069,0 -3.0528,0 0,-1.17578 c 0,-1.38534 1.0281,-2.10661 2.7832,-2.05664 z m 144.89069,5.69336 -0.8125,1.31445 c -0.447,0.7231 -1.4226,6.92578 -2.168,13.7832 l -1.3555,12.4668 2.9238,3.11328 c 3.2836,3.49524 5.2866,3.89218 7.3125,1.45117 l 1.377,-1.66015 -0.4551,-8.65235 c -0.2505,-4.75831 -0.5196,-10.19727 -0.5996,-12.08789 l -0.1465,-3.4375 -1.875,0 -1.875,0 0,-2.42773 c 0,-1.33442 -0.5221,-2.74899 -1.1621,-3.14453 l -1.164,-0.71875 z m -188.76759,14.77929 0.7558,0.75586 0.7559,0.75391 -2.3965,-0.0977 -2.3965,-0.0996 1.6407,-0.65625 1.6406,-0.65625 z m 5.6777,4.00977 0.9004,0.90039 c 0.495,0.49497 2.1251,0.9169 3.623,0.9375 l 2.7247,0.0371 0.4257,2.1875 0.4258,2.1875 -2.3418,0 c -1.2878,0 -2.9724,-0.63053 -3.7441,-1.40234 l -1.4043,-1.4043 -5.666,-0.37696 -5.666,-0.3789 -2.2422,-1.30664 -2.2442,-1.30469 7.6055,-0.0371 7.6035,-0.0391 z m 16.666,10 c 0.6875,0 1.25,0.5625 1.25,1.25 0,0.6875 -0.5625,1.25 -1.25,1.25 -0.6875,0 -1.25,-0.5625 -1.25,-1.25 0,-0.6875 0.5625,-1.25 1.25,-1.25 z m -17.5,8.25 1.5,1.5 1.5,1.5 3.5,0 3.5,0 0,1.875 0,1.875 -4.289,0 -4.2911,0 -0.7578,2.38476 c -0.4163,1.31149 -1.5599,2.6931 -2.5429,3.07032 l -1.7891,0.6875 -0.8047,-1.30469 -0.8066,-1.30469 -2.4317,0.63672 -2.4316,0.63477 0.4297,-2.08985 0.4297,-2.08984 4.7695,0.38281 4.7715,0.38281 -0.5332,-1.59765 -0.5313,-1.59766 -2.9414,-0.69531 -2.9394,-0.69336 -0.5489,-1.64844 -0.5507,-1.65039 2.4531,1.3125 2.4531,1.31445 1.4414,-1.4414 1.4414,-1.44336 z m -8.2011,13.04883 1.2246,1.22656 c 0.6746,0.67456 2.3036,1.22461 3.6191,1.22461 l 2.3926,0 -0.5274,3.5957 -0.5273,3.59375 3.4941,-1.00195 3.4942,-1.00195 2.1172,3.58593 2.1191,3.58594 1.457,-1.99219 1.4571,-1.99218 0.8105,1.31054 0.8106,1.31055 -0.7149,3.56641 -0.7129,3.5664 -5.2187,0.10742 c -2.8701,0.0597 -5.9219,-0.12715 -6.7813,-0.41601 l -1.5625,-0.52539 0,-2.14649 c 0,-1.18021 0.6671,-2.81146 1.4805,-3.625 l 1.4785,-1.47851 -0.957,-0.95703 -0.9551,-0.95508 -1.5547,2.125 -1.5547,2.125 -2.5761,-0.67383 -2.5782,-0.67383 -0.8398,1.35938 -0.8399,1.35742 -3.0898,0 -3.0918,0 -0.752,-1.95899 -0.7519,-1.95898 1.5019,-1.47852 1.5,-1.47851 1.7911,2.42773 1.789,2.42578 0,-1.9707 0,-1.96875 -3.125,-2.04883 c -1.7187,-1.12618 -3.107,-2.45531 -3.084,-2.95507 0.022,-0.49978 2.1141,-1.88208 4.6485,-3.07227 l 4.6094,-2.16406 z m -10.6954,19.95117 2.5743,0 2.5722,0 0,1.25 0,1.25 -1.8008,0 c -0.9907,0 -2.1493,-0.5625 -2.5742,-1.25 l -0.7715,-1.25 z m 37.9336,1.05664 3.6172,3.4668 3.6192,3.46679 -0.7578,4.44336 -0.7579,4.44141 -2.5175,2.1875 c -2.7538,2.39375 -4.3847,2.60951 -7.2403,0.95508 -1.0312,-0.59747 -3,-1.45208 -4.375,-1.89844 l -2.5,-0.81055 3.2735,-1.73242 3.2714,-1.73242 0.7598,-3.79688 0.7578,-3.79687 1.9063,0 1.9062,0 0,-1.11719 0,-1.11914 -4.4433,1.00195 -4.4453,1.00391 0.3925,-2.07227 0.3926,-2.07226 3.5703,-0.4082 3.5703,-0.41016 z m -28.7422,2.69531 1.5743,0 c 0.8671,0 2.275,0.84375 3.1308,1.875 l 1.5567,1.875 6.4101,0.0371 6.4082,0.0371 -2.3574,1.37109 -2.3574,1.3711 -7.2676,0.32031 c -3.9966,0.1762 -7.4941,0.0899 -7.7734,-0.18945 -0.2791,-0.27935 -0.2414,-1.90093 0.084,-3.60352 l 0.5918,-3.09375 z m 132.04499,3.55469 0.5918,4.16016 c 0.3251,2.288 0.6601,4.4414 0.7461,4.78515 0.086,0.34375 1.2815,-0.72599 2.6562,-2.37695 l 2.5,-3.00195 -0.4531,-1.37305 -0.4512,-1.37305 -2.7949,-0.41015 -2.7949,-0.41016 z m -125.77349,12.43164 1.0723,1.69336 c 0.5905,0.93185 1.0817,2.65895 1.0937,3.83789 l 0.018,2.14258 -2.416,1.29492 c -4.5209,2.4195 -4.9157,1.34743 -1.8008,-4.89648 l 2.0332,-4.07227 z m 8.4336,2.76172 0,1.125 0,1.125 4.6133,0 4.6133,0 1.7812,2.3125 1.7793,2.3125 0.586,-1.5625 0.5859,-1.5625 3.1113,0 3.1094,0 1.7852,1.78711 c 0.9821,0.98215 1.7851,2.40623 1.7851,3.16601 0,0.75979 -1.7525,3.09556 -3.8945,5.18946 l -3.8945,3.80664 -2.8594,-0.7168 -2.8613,-0.71875 -1.3047,3.74414 -1.3047,3.74219 -2.3262,0 c -1.2792,0 -3.4173,-0.81473 -4.7519,-1.8125 l -2.4278,-1.81445 3.3711,0.25195 3.3692,0.25 0.1406,-1.25 0.1426,-1.25 -2.4864,-0.625 -2.4863,-0.625 1.6328,-2.21484 1.6328,-2.21485 3.4883,1.32617 3.4883,1.32618 0.9922,-1.60352 0.9902,-1.60352 -3.9453,-4.07031 -3.9453,-4.07031 -2.0156,0 c -1.1088,0 -3.1068,-0.82461 -4.4414,-1.83399 l -2.4278,-1.83593 2.1875,-0.0391 2.1875,-0.041 z m 118.74999,9.58398 0,1.66797 0,1.66602 0.834,-0.83399 0.834,-0.83203 -0.834,-0.83398 -0.834,-0.83399 z m -125.84569,4.29492 2.334,1.24805 2.332,1.25 -0.7324,1.1875 c -0.9903,1.60223 -3.1164,1.42746 -6.6777,-0.54687 l -2.9668,-1.64453 2.8555,-0.7461 2.8554,-0.74805 z m -5.4004,7.17383 4.0606,0.86914 c 2.2336,0.47761 4.7575,1.42922 5.6094,2.11524 l 1.5488,1.24805 -0.6836,1.10742 c -0.8295,1.34204 -2.7827,1.30509 -6.3027,-0.11719 l -2.6368,-1.06445 -0.7988,-2.08008 -0.7969,-2.07813 z m 0.2539,5.36133 c 0.2703,0.0257 0.7266,0.32227 1.2422,0.83789 l 1.5,1.5 3.1875,0.0176 c 1.7532,0.0105 3.9455,0.49933 4.8711,1.08594 l 1.6836,1.0664 -4.0566,1.41407 c -2.2314,0.77785 -4.1895,1.41601 -4.3516,1.41601 -0.5603,0 -4.334,-6.16623 -4.334,-7.08203 0,-0.18954 0.096,-0.27129 0.2578,-0.25586 z m -5.2578,0.66992 0.834,0.83399 0.834,0.83203 -1.668,0 -1.666,0 0.834,-0.83203 0.832,-0.83399 z m 32.5,18.90039 0,2.00782 0,2.00976 -1.5625,0.0156 c -0.8594,0.009 -2.8281,0.35693 -4.375,0.77148 l -2.8125,0.75391 0,-2.02149 0,-2.01953 2.3985,0 c 1.3187,0 3.2875,-0.34244 4.375,-0.75976 l 1.9765,-0.75782 z m -43.6699,0.375 1.8359,0.70508 c 1.0093,0.38728 1.834,0.92511 1.834,1.19531 0,0.27019 -1.1567,0.49024 -2.5722,0.49024 l -2.5743,0 0.7383,-1.19531 0.7383,-1.19532 z m 30.5449,2.39063 1.875,0 0,1.17773 c 0,0.64693 -0.4826,1.47421 -1.0742,1.83985 l -1.0762,0.66601 -0.7988,-0.80078 c -1.4077,-1.40774 -0.8588,-2.88281 1.0742,-2.88281 z m -8.125,2.5 1.9492,0 1.9493,0 -0.7735,1.25 c -0.4248,0.6875 -1.3004,1.25 -1.9472,1.25 -0.647,0 -1.1778,-0.5625 -1.1778,-1.25 l 0,-1.25 z m -33.75,34.85351 1.25,0.77149 c 0.6875,0.4249 1.25,1.02105 1.25,1.32422 0,0.30318 -0.5625,0.55078 -1.25,0.55078 -0.6875,0 -1.25,-0.5942 -1.25,-1.32227 l 0,-1.32422 z m 157.63479,5.8418 -0.877,2.46485 c -0.4823,1.35572 -1.6318,4.35373 -2.5566,6.66015 l -1.6816,4.19336 0.7871,3.30664 c 0.4336,1.81858 1.3742,4.04723 2.0898,4.95313 l 1.3008,1.64648 1.4297,-2.67187 1.4316,-2.67383 0.1875,-7.09961 0.1875,-7.09961 -1.1504,-1.83984 -1.1484,-1.83985 z m 80.1152,47.43164 -0.2969,1.25 -0.2968,1.25 2.7773,1.41602 c 1.5277,0.77977 3.4048,2.04539 4.1719,2.8125 1.7529,1.75292 4.2507,1.79708 5.3047,0.0918 l 0.8066,-1.30664 -1.3984,-1.68359 -1.3985,-1.68359 -3.3964,-0.57422 c -1.8685,-0.31592 -4.0453,-0.79974 -4.836,-1.07422 l -1.4375,-0.49805 z m -169.31829,13.14453 c -1.0703,0.0671 -2.4392,0.65815 -3.2676,1.65625 l -1.3906,1.67774 0.8222,0.82226 c 0.4524,0.45237 1.1778,0.82422 1.6133,0.82422 1.1273,0 3.791,-2.81071 3.791,-4 0,-0.60484 -0.4671,-0.91833 -1.1308,-0.97656 -0.1383,-0.0121 -0.2846,-0.0135 -0.4375,-0.004 z"
       id="path13862" />
  </g>
</svg>
