<?xml version="1.0" encoding="UTF-8" standalone="no"?>
<!-- Created with Inkscape (http://www.inkscape.org/) -->

<svg
   xmlns:dc="http://purl.org/dc/elements/1.1/"
   xmlns:cc="http://creativecommons.org/ns#"
   xmlns:rdf="http://www.w3.org/1999/02/22-rdf-syntax-ns#"
   xmlns:svg="http://www.w3.org/2000/svg"
   xmlns="http://www.w3.org/2000/svg"
   xmlns:sodipodi="http://sodipodi.sourceforge.net/DTD/sodipodi-0.dtd"
   xmlns:inkscape="http://www.inkscape.org/namespaces/inkscape"
   width="210mm"
   height="297mm"
   viewBox="0 0 744.09448819 1052.3622047"
   id="svg4143"
   version="1.1"
   inkscape:version="0.91 r13725"
   sodipodi:docname="G.svg">
  <defs
     id="defs4145" />
  <sodipodi:namedview
     id="base"
     pagecolor="#ffffff"
     bordercolor="#666666"
     borderopacity="1.0"
     inkscape:pageopacity="0.0"
     inkscape:pageshadow="2"
     inkscape:zoom="0.35"
     inkscape:cx="-145"
     inkscape:cy="520"
     inkscape:document-units="px"
     inkscape:current-layer="layer1"
     showgrid="false"
     inkscape:window-width="1920"
     inkscape:window-height="1055"
     inkscape:window-x="0"
     inkscape:window-y="25"
     inkscape:window-maximized="1" />
  <metadata
     id="metadata4148">
    <rdf:RDF>
      <cc:Work
         rdf:about="">
        <dc:format>image/svg+xml</dc:format>
        <dc:type
           rdf:resource="http://purl.org/dc/dcmitype/StillImage" />
        <dc:title></dc:title>
      </cc:Work>
    </rdf:RDF>
  </metadata>
  <g
     inkscape:label="Layer 1"
     inkscape:groupmode="layer"
     id="layer1">
    <path
       inkscape:connector-curvature="0"
       style="fill:#000000"
       d="m 175.68684,274.46138 -1.7715,2.66602 -1.7715,2.66797 2.0195,2.01953 c 2.4902,2.49019 3.6103,2.53424 5.5352,0.21484 l 1.5,-1.80664 -0.4082,-2.88086 -0.4102,-2.88086 -2.3457,0 -2.3476,0 z m 61.4218,4.375 0.7715,1.25 c 0.4249,0.6875 1.7242,1.24047 2.8867,1.23047 l 2.1133,-0.0195 -1.875,-1.21094 c -1.0312,-0.66645 -2.3286,-1.22242 -2.8847,-1.23242 l -1.0118,-0.0176 z m 105.7715,15.10352 -8.9648,1.17187 -8.9649,1.17188 -4.1601,1.79883 c -2.2878,0.9896 -8.6602,2.73698 -14.1602,3.88281 -5.5,1.14584 -12.8125,3.12766 -16.25,4.4043 -3.4375,1.27664 -9.625,2.94982 -13.75,3.71874 -4.125,0.76896 -9.4687,2.1356 -11.875,3.03516 -2.4062,0.89956 -7.0674,2.02797 -10.3593,2.50781 -3.292,0.47983 -7.8822,1.66466 -10.1993,2.63282 l -4.2129,1.75976 -6.8808,6.59375 c -3.7845,3.6264 -11.75,11.09375 -17.7031,16.59375 -5.953,5.5 -11.4494,11.125 -12.2129,12.5 l -1.3887,2.5 0.2363,3.26367 0.2344,3.26368 -2.6797,6.11132 c -1.4742,3.36124 -4.2887,8.16084 -6.2559,10.66602 l -3.5781,4.55469 0,1.93359 c 0,1.06362 -0.5625,2.28213 -1.25,2.70703 l -1.25,0.77149 0,4.16406 c 0,5.77617 -3.3206,23.44396 -6.2383,33.18945 -4.4397,14.82823 -9.9173,49.98811 -14.5078,93.125 l -3.3242,31.25 0.1914,20.625 c 0.1059,11.34375 0.508,23.15625 0.8926,26.25 0.3846,3.09375 2.0252,10.6875 3.6465,16.875 1.6214,6.1875 4.0371,16.03125 5.3672,21.875 1.3301,5.84375 3.3324,12.59375 4.4492,15 1.1167,2.40625 5.6749,8.875 10.1308,14.375 4.456,5.5 10.8697,13.97143 14.252,18.82617 6.9597,9.98978 12.3612,15.1261 21.0293,20 3.2929,1.85157 7.3926,4.32993 9.1113,5.50586 5.623,3.84712 39.5705,17.60618 48.125,19.50586 2.0625,0.45801 5.0939,1.67517 6.7364,2.70313 l 2.9882,1.86914 7.7774,0.96484 7.7773,0.96289 3.2949,2.86524 c 3.7953,3.29997 11.16,6.12514 16.0411,6.15234 l 3.3632,0.0195 0.7715,1.25 0.7735,1.25 2.9765,0 2.9785,0 0.7715,1.25 0.7735,1.25 4.0214,0 4.0235,0 2.9512,-2.0664 2.9531,-2.06836 2.0137,1.16797 2.0136,1.16796 6.875,-0.24609 c 8.9954,-0.32293 15.1361,-1.66351 17.2344,-3.76172 l 1.6934,-1.69336 2.5429,0 c 1.3985,0 6.0003,-0.90301 10.2246,-2.00586 4.2241,-1.10283 8.8099,-2.13545 10.1914,-2.29492 3.3913,-0.39143 8.1133,-3.00527 8.1133,-4.49219 l 0,-1.20703 2.3321,0 2.33,0 3.1797,-2.5 c 1.748,-1.375 4.08,-2.5 5.1817,-2.5 l 2.0019,0 5.9746,-4.19922 c 3.2855,-2.30935 8.0561,-4.95065 10.6016,-5.87109 l 4.6269,-1.67383 3.8204,-4.75391 3.8183,-4.75195 1.8477,0 1.8476,0 1.1875,-3.125 1.1875,-3.125 2.5821,0 2.582,0 3.6992,-2.73437 c 2.0346,-1.50429 3.6992,-3.35034 3.6992,-4.10157 l 0,-1.36523 3.7481,-1.41406 3.7461,-1.41602 0.8496,-2.29687 c 0.467,-1.26342 1.3675,-2.64552 2.0019,-3.07227 2.7001,-1.81628 13.0223,-10.8385 17.3985,-15.20703 l 4.7402,-4.73242 2.3887,-4.94336 2.3886,-4.94531 0.7969,-6.57227 c 0.4377,-3.61553 1.0989,-8.65492 1.4688,-11.19922 l 0.6718,-4.62695 -4.1621,-1.07813 -4.1621,-1.07812 0,-2.42188 0,-2.41992 3.75,-0.14453 c 2.0625,-0.0793 4.3394,-0.2199 5.0606,-0.3125 l 1.3125,-0.16797 1.5,-4.15039 c 0.8256,-2.28318 1.5019,-5.26443 1.5019,-6.625 0,-1.36056 0.5512,-3.0259 1.2246,-3.69922 l 1.2246,-1.22461 1.3711,-9.86718 c 0.7548,-5.4269 1.6068,-13.56625 1.8926,-18.08789 0.2856,-4.52166 0.9527,-11.59778 1.4824,-15.72461 0.5294,-4.12684 0.7743,-8.48622 0.543,-9.6875 l -0.4219,-2.1836 -4.1816,0 c -2.2997,0 -5.0707,-0.3405 -6.1582,-0.75781 l -1.9766,-0.75977 0,-1.63671 c 0,-0.90042 -0.7031,-1.92081 -1.5625,-2.26758 l -1.5625,-0.63086 7.8125,-0.0977 7.8125,-0.0996 0.1309,-0.9375 c 0.2838,-2.03958 1.1391,-11.01084 1.1621,-12.1875 0.013,-0.6875 -0.4353,-3.5 -0.9961,-6.25 l -1.0195,-5 -6.711,0.36914 -6.7129,0.36914 -4.4882,-1.79297 c -2.4693,-0.98573 -9.834,-2.67779 -16.3653,-3.76171 l -11.875,-1.97071 -13.3711,-0.35742 -13.3711,-0.35547 -1.5371,1.53321 -1.539,1.53515 4.5976,1.91992 4.5957,1.91993 0,1.23437 0,1.23242 3.7989,0 3.8007,0 5.045,-2.57422 5.0468,-2.57422 1.7793,1.47852 1.7793,1.47656 0,2.34571 0,2.34765 -4.0625,0.0879 c -2.2344,0.0483 -5.1875,0.57125 -6.5625,1.16211 l -2.5,1.07422 3.75,0.17969 3.75,0.17773 3.5996,2.11524 3.6016,2.11523 -0.4766,1.23047 -0.4746,1.23242 -5,0 -5,0 -1.8672,1.19922 -1.8691,1.20117 -4.5469,0.11328 -4.5469,0.11524 -0.098,-2.56446 c -0.054,-1.4103 -0.1882,-3.4082 -0.2969,-4.43945 -0.1089,-1.03125 0.1562,-2.71875 0.5899,-3.75 l 0.789,-1.875 -6.8027,0.1543 c -3.7414,0.0853 -8.2128,0.5105 -9.9375,0.94336 l -3.1367,0.78711 -0.7871,-1.27539 -0.7891,-1.27539 -1.2227,0.75586 -1.2246,0.75781 1.5528,1.87109 c 0.8542,1.02915 4.0968,3.06732 7.207,4.5293 l 5.6562,2.6582 -3.0859,0.73633 -3.084,0.73828 -3.125,-1.62109 -3.125,-1.61914 -7.8906,-0.008 -7.8926,-0.008 0.3926,2.8125 0.3906,2.8125 -6.4629,-0.0488 -6.4629,-0.0488 -3.2128,-1.71875 -3.211,-1.71875 -5.0508,1.66796 -5.0507,1.66602 -1.461,-1.46289 c -0.8043,-0.80435 -2.4292,-1.46094 -3.6094,-1.46094 l -2.1445,0 -0.4746,-1.42187 -0.4727,-1.41992 -2.5683,1.60351 -2.5664,1.60352 -3.1641,-0.79493 -3.164,-0.79296 -0.7012,-2.67774 -0.6992,-2.67578 -2.2618,0.96289 c -1.2443,0.52875 -4.3341,1.10326 -6.8671,1.27734 l -4.6055,0.31641 -0.668,-1.74023 -0.668,-1.74024 -3.6562,0 -3.6543,0 -0.6738,1.75391 -0.6739,1.7539 0.6856,2.6211 0.6855,2.62109 3.6036,0 3.6054,0 0,1.8125 0,1.8125 -2.0527,1.14844 -2.0527,1.14844 -2.1387,-0.5586 -2.1387,-0.56054 -0.9277,6.03515 c -0.5093,3.31943 -1.2,15.03711 -1.5352,26.03711 -0.3351,11 -0.704,21.94989 -0.8203,24.33399 l -0.209,4.33398 3.7012,0.29883 3.7031,0.29883 6.1797,3.36328 6.1777,3.36133 -0.7011,-2.6836 c -0.3856,-1.47591 -0.5367,-2.68164 -0.336,-2.68164 0.2009,0 1.976,0.85223 3.9453,1.89453 l 3.5801,1.89453 19.375,-0.18554 c 10.6563,-0.10229 24.4668,0.2423 30.6895,0.76562 l 11.3125,0.95117 3.9101,-2.02148 3.9102,-2.02344 3.8652,0.77344 c 2.1255,0.42508 4.1327,1.20884 4.461,1.74023 l 0.5976,0.96485 -4.2812,2.52734 -4.2832,2.52539 -0.8594,5.73047 -0.8594,5.73047 -4.0371,1.91602 c -7.1606,3.39789 -30.5844,25.49839 -30.6484,28.91601 l -0.027,1.47461 2.8125,0.40039 2.8125,0.40039 0.4004,2.8125 0.3985,2.8125 -1.0235,-0.041 c -0.5635,-0.0219 -2.0456,-0.81215 -3.293,-1.75782 l -2.2675,-1.7207 -3.1543,1.63672 c -1.7341,0.89968 -3.9796,2.81496 -4.9903,4.25781 l -1.8379,2.625 -3.5253,0 -3.5254,0 -1.4414,-1.73633 -1.4395,-1.73437 0.7969,-4.98438 0.7969,-4.98242 -1.3926,-0.85937 -1.3906,-0.85938 -5.2969,3.55664 -5.2969,3.55664 -0.3809,1.97657 -0.3789,1.97656 5.1075,0.8164 5.1074,0.81836 1.0137,2.74219 1.0156,2.74414 -0.7012,2.54688 -0.6992,2.54687 -0.4551,-2.1875 -0.4551,-2.1875 -1.8984,0 c -1.0443,0 -3.3282,-1.125 -5.0762,-2.5 -1.7481,-1.375 -3.8779,-2.5 -4.7324,-2.5 -0.8546,0 -3.7054,0.89778 -6.334,1.9961 l -4.7793,1.99609 2.127,1.19141 c 2.6434,1.47928 2.684,2.82966 0.1621,5.35156 l -1.9629,1.96484 -4.8438,0 -4.8418,0 -1.6308,3.34375 -1.6309,3.3457 -1.875,0.48243 -1.875,0.48437 2.168,-1.76562 2.168,-1.76368 -0.8145,-0.81445 c -0.4476,-0.44764 -2.8575,-0.8125 -5.3555,-0.8125 l -4.541,0 -1.375,1.375 -1.3769,1.37695 -3.8731,-0.85156 -3.875,-0.84961 0,-1.77539 0,-1.77734 2.584,0 2.5859,0 -0.7773,-2.44727 -0.7773,-2.44726 2.4004,-1.49805 2.3984,-1.49805 -0.6016,-2.30468 -0.6035,-2.30469 -1.6484,0 c -0.9064,0 -3.0449,0.53188 -4.7539,1.18164 l -3.1075,1.18164 0.6719,2.56836 0.6719,2.56836 -1.252,0 c -0.6886,0 -2.199,-1.44228 -3.3554,-3.20703 l -2.1016,-3.20899 1.6406,-1.97851 1.6426,-1.97852 -3.7461,0.69531 c -2.0603,0.3824 -5.0994,1.11647 -6.7539,1.63282 l -3.0078,0.93945 0.7793,-3.89844 0.7793,-3.89843 -1.1113,-0.6875 c -0.6121,-0.37831 -1.5072,-2.50983 -1.9883,-4.73633 l -0.875,-4.04883 -5.7559,-5.3125 c -3.1661,-2.92187 -6.3326,-5.32008 -7.0351,-5.33008 l -1.2774,-0.0195 1.875,-1.18555 1.875,-1.18554 -2.207,-2.20899 -2.207,-2.20703 -2.1856,1.36328 -2.1855,1.36524 -4.0606,-0.59571 c -2.2329,-0.32772 -4.3662,-1.09293 -4.7422,-1.70117 l -0.6836,-1.10742 -3.2461,0 -3.2441,0 2.2617,-2.5 c 1.2444,-1.375 3.0206,-2.5 3.9453,-2.5 l 1.6797,0 0,-1.22461 0,-1.22656 -3.3711,-0.84571 -3.3711,-0.84765 -0.5117,1.53125 c -0.2807,0.84224 -1.7301,2.95068 -3.2207,4.68359 l -2.709,3.15039 -4.7129,-0.88476 -4.7109,-0.88282 0.4629,-1.41406 0.4629,-1.41406 4.2578,-0.41211 4.2578,-0.41406 4.082,-4.58594 c 2.2451,-2.5226 4.0835,-4.9429 4.084,-5.37695 5e-4,-0.43405 -1.8081,-2.55668 -4.0195,-4.71875 l -4.0215,-3.93164 -1.916,0.17578 c -3.4923,0.32186 -5.043,-0.0965 -5.043,-1.36133 l 0,-1.25 2.5313,0 2.5312,0 1.2188,-3.20508 c 1.7331,-4.5585 1.5139,-8.31727 -0.7481,-12.85156 l -1.9648,-3.94336 -1.7852,0 -1.7832,0 0,-2.01953 0,-2.02149 2.4199,0.63282 2.42,0.63281 0.705,-1.83985 c 0.3882,-1.0115 0.7051,-2.84744 0.7051,-4.08203 l 0,-2.24609 -1.8613,-1.54492 -1.8633,-1.54688 -1.0176,2.75391 -1.0195,2.75195 -1.6465,-1.98437 -1.6465,-1.98633 -3.0546,0 c -1.6798,0 -4.1787,-0.60049 -5.5528,-1.33594 l -2.498,-1.33789 1.4824,-1.78711 1.4844,-1.78906 3.5234,0 3.5234,0 0.8028,-1.30078 0.8047,-1.30078 2.3945,0.76172 2.3945,0.75976 -0.016,-4.77148 c -0.01,-2.62446 -0.3498,-6.01249 -0.7559,-7.52735 l -0.7382,-2.7539 -3.1289,-2.04883 -3.127,-2.05078 -1.3672,1.36718 c -0.7515,0.75151 -2.426,1.36524 -3.7207,1.36524 l -2.3535,0 0.5137,-1.5625 0.5156,-1.5625 2.7148,-0.39844 2.7129,-0.40039 0,-1.16211 0,-1.16406 -1.6777,0 -1.6777,0 -2.3848,-4.45313 -2.3848,-4.45507 2.3047,-1.29883 2.3047,-1.29688 1.832,-4.38281 c 1.0071,-2.41035 1.5943,-4.62044 1.3047,-4.91016 -0.9205,-0.92044 -7.6333,-0.7831 -10.7383,0.21875 l -2.9921,0.96485 2.9921,-4.25586 c 1.6459,-2.34045 3.6953,-4.70412 4.5547,-5.25391 0.8594,-0.54979 1.5625,-1.57489 1.5625,-2.27734 0,-1.93886 3.3234,-4.84961 5.5371,-4.84961 l 1.9629,0 0,-1.19336 0,-1.19336 -4.6875,-0.95117 c -2.5781,-0.52363 -8.4844,-0.90389 -13.125,-0.84571 -4.6406,0.0583 -8.4375,-0.16204 -8.4375,-0.48828 0,-0.32622 1.4114,-1.70343 3.1367,-3.06054 l 3.1387,-2.4668 -0.6719,-1.08789 -0.6718,-1.08594 -4.3809,0.39258 c -2.4086,0.21613 -4.7223,0.73609 -5.1426,1.15625 l -0.7636,0.76562 1.4882,1.79297 1.4903,1.79493 -1.5782,0.9746 c -0.8676,0.53618 -3.4259,1.16468 -5.6855,1.39649 l -4.1094,0.41992 0,-3.16015 0,-3.16016 3.6055,0 3.6035,0 0.6035,-2.30664 0.6035,-2.30664 5.9219,-0.8125 5.9219,-0.81055 1.1719,0.72461 1.1718,0.72266 -0.7617,2.39453 -0.7597,2.39453 1.2539,0 c 0.6891,0 2.8163,-0.59334 4.7285,-1.32031 l 3.4765,-1.32227 -1.832,-1.17773 -1.834,-1.17969 2.7559,-0.75391 2.7539,-0.75586 2.5586,-4.9082 c 2.9514,-5.66243 3.1852,-6.88252 0.9941,-5.1582 -0.8594,0.67629 -3.6362,1.54849 -6.1718,1.9375 l -4.6094,0.70703 -1.3535,-1.63086 -1.3555,-1.63086 2.8398,-0.76172 c 1.5614,-0.41833 5.3973,-0.76734 8.5254,-0.77734 l 5.6875,-0.0156 1.5,-1.5 c 0.825,-0.825 1.5,-2.20237 1.5,-3.05859 l 0,-1.55664 -3.3437,-1.63086 c -1.8398,-0.8969 -3.5514,-2.26337 -3.8028,-3.03711 l -0.457,-1.40625 3.4902,-0.70313 3.4883,-0.70312 1.5293,1.98828 1.5274,1.99023 0.5859,-1.7539 c 0.3221,-0.96491 0.7632,-4.42579 0.9805,-7.69141 l 0.3965,-5.9375 -1.5723,0 -1.5723,0 0,-1.875 0,-1.875 -2.3652,0 -2.3672,0 -0.7187,-1.875 -0.7188,-1.875 -4.7891,0 -4.791,0 -1.5,-1.5 c -0.825,-0.825 -1.5,-1.95 -1.5,-2.5 l 0,-1 5.666,0 5.6641,0 0.668,1.74414 0.6699,1.74414 3.2324,-0.86523 3.2305,-0.86328 1.0371,-2.80274 1.0371,-2.80468 -1.8789,-0.72071 c -1.0335,-0.39657 -5.4313,-0.49328 -9.7734,-0.21679 l -7.8946,0.50195 -1.4316,-1.53125 -1.4297,-1.5332 2.1641,-0.62696 c 1.1908,-0.34577 3.8531,-0.78187 5.916,-0.96875 l 3.75,-0.33984 1.541,0.95117 1.541,0.95313 4.4102,-0.82813 c 2.4256,-0.45504 4.7025,-1.3015 5.0605,-1.88086 l 0.6504,-1.05273 -2.9883,-1.95899 -2.9883,-1.95703 -0.1074,-7.57422 -0.1074,-7.57226 -1.4727,-1.77344 c -0.8098,-0.97568 -2.2811,-1.77344 -3.2714,-1.77344 l -1.8008,0 0.2226,-2.1875 c 0.123,-1.20313 0.1574,-2.93559 0.078,-3.84961 l -0.1446,-1.66211 -3.6308,0.79688 -3.6309,0.79687 -0.8164,-1.32226 -0.8184,-1.32227 -2.2929,0 -2.293,0 -0.7617,-1.98828 -0.7637,-1.98828 0.6699,-1.08203 0.67,-1.08399 1.6328,0.62891 1.6347,0.62695 1.6914,-2.03711 1.6895,-2.03711 -1.4922,-2.08203 c -0.8211,-1.1455 -2.0758,-3.44079 -2.7871,-5.09961 l -1.293,-3.01562 -1.4531,1.45312 c -0.7993,0.79945 -1.9812,1.45508 -2.625,1.45508 l -1.1699,0 3.1719,-3.17383 3.1718,-3.17187 4.2344,0.28515 4.2324,0.28516 1.5157,-0.9375 1.5136,-0.93555 0,2.57422 0,2.57422 1.625,0 c 0.8938,0 2.3,-0.675 3.125,-1.5 l 1.5,-1.5 0,1.64453 0,1.64649 2.5,-0.6543 2.5,-0.6543 0,1.09766 0,1.09766 -4.0625,1.10547 -4.0625,1.10546 0.3574,1.5625 c 0.196,0.85911 -0.2412,2.28114 -0.9707,3.16016 l -1.3261,1.59766 4.4707,0.83789 4.4707,0.83984 -0.8008,2.51758 -0.7988,2.51953 2.6113,0.68359 2.6113,0.6836 0,1.25 0,1.25 -3.1855,-0.60938 -3.1856,-0.60937 -2.7519,2.23047 -2.752,2.23047 0.8946,0.89843 0.8945,0.89649 6.8594,-0.0606 c 3.7724,-0.0339 8.01,-0.42818 9.4179,-0.875 l 2.5586,-0.8125 0,-2.41602 0,-2.41406 2.1875,0 2.1875,-0.002 3.4922,-4.37305 3.4902,-4.375 2.293,0 2.2949,0 1.5137,-1.82422 1.5117,-1.82422 -3.2343,-0.81054 -3.2364,-0.8125 0,-2.21875 0,-2.21875 2.8125,-0.61133 c 1.5469,-0.33549 3.7969,-1.02358 5,-1.5293 l 2.1875,-0.91797 0,2.05274 0,2.05273 2.1875,-1.15039 c 1.2032,-0.63254 5.1264,-1.54645 8.7168,-2.03125 l 6.5274,-0.88281 -0.2774,-2.5625 -0.2793,-2.56055 1.5625,-0.55468 1.5625,-0.55469 0,1.99609 0,1.9961 4.4864,-1.875 4.4863,-1.875 16.4512,0.48632 c 17.3456,0.51267 22.3936,1.28516 26.4179,4.04102 l 2.4649,1.68945 5.3437,0 5.3457,0 6.1582,4.42383 6.1582,4.42383 2.5528,4.32617 2.5507,4.32617 2.9571,0 2.955,0 1.6524,3.08789 1.6543,3.08789 6.8926,5.1543 c 3.7908,2.83496 9.278,6.31513 12.1953,7.73242 l 5.3047,2.57617 1.3925,3.0586 1.3946,3.05664 3.1035,-0.7793 3.1055,-0.7793 3.6132,1.86914 3.6133,1.86915 1.5274,-1.8418 1.5293,-1.8418 3.0547,0 c 4.4819,0 7.0176,-1.73392 11.0488,-7.55078 l 3.6035,-5.19922 -0.2461,-3.3125 -0.2441,-3.3125 3.6172,-2.06055 3.6171,-2.05859 1.2696,1.26953 1.2695,1.26953 6.6641,-7.13867 c 3.6656,-3.92601 7.3508,-8.42623 8.1894,-10 0.8386,-1.57376 2.3682,-3.18472 3.3985,-3.58008 l 1.873,-0.71875 1.8516,-4.42968 1.8496,-4.42774 2.541,0 2.539,0 0.7676,-3.05469 0.7657,-3.05468 -0.8165,-1.32032 c -0.449,-0.72658 -1.6001,-1.32031 -2.5585,-1.32031 -0.9582,0 -3.1891,-0.65929 -4.9571,-1.46484 l -3.2148,-1.46485 -2.6348,-4.26367 c -1.4493,-2.34481 -4.102,-5.62301 -5.8945,-7.28515 l -3.2578,-3.02149 -2.336,0 -2.334,0 0.7676,-1.99805 0.7676,-1.99804 -3.8516,-4.86133 c -2.1175,-2.6736 -5.3906,-5.77068 -7.2734,-6.88281 -1.8826,-1.11214 -4.5115,-3.6576 -5.8437,-5.65625 l -2.4239,-3.63477 -10.8476,-7.4043 -10.8457,-7.40429 -5.4043,-1.83985 c -2.9712,-1.01149 -10.1836,-4.00063 -16.0274,-6.64257 l -10.625,-4.80274 -33.125,-0.26172 -33.125,-0.25976 z m -25.625,18.4375 1.4844,0.49414 c 0.8164,0.27213 1.7084,1.16405 1.9805,1.98047 l 0.4941,1.48437 -1.9785,0 -1.9805,0 0,-1.98047 0,-1.97851 z m -5.8008,4.68554 c 0.6786,-0.006 1.3143,0.0617 1.7461,0.20704 l 1.5704,0.52929 -0.7051,1.14258 c -0.9041,1.46301 -5.2001,1.48763 -6.0977,0.0352 l -0.6836,-1.10742 2.1738,-0.5625 c 0.5979,-0.15505 1.3176,-0.23773 1.9961,-0.24415 z m 104.5508,26.93555 c 0.5664,0 1.1329,0.0864 1.5625,0.25977 l 1.5625,0.63086 -3.125,0 -3.125,0 1.5625,-0.63086 c 0.4297,-0.17338 0.9961,-0.25977 1.5625,-0.25977 z m 48.6543,2.61133 c 0.2048,-0.0213 0.3928,-0.0189 0.5567,0.01 0.1872,0.0327 0.3418,0.10157 0.4511,0.21093 0.3043,0.30424 -0.6207,1.17988 -2.0547,1.94727 l -2.6074,1.39648 0,-1.16015 c 0,-0.98361 2.2211,-2.25538 3.6543,-2.4043 z m -181.1543,2.22656 1.1778,0 c 0.6469,0 1.4846,0.49782 1.8613,1.10742 l 0.6836,1.10938 -1.8613,1.54297 -1.8614,1.54492 0,-2.65234 0,-2.65235 z m 112.5,3.75 1.5625,0.0176 c 0.8594,0.0105 2.4063,0.56597 3.4375,1.23242 l 1.875,1.21094 -3.4375,0.0195 -3.4375,0.0195 0,-1.25 0,-1.25 z m -143.75,4.58203 0.834,0.83399 0.834,0.83398 -0.834,0.83203 -0.834,0.83399 0,-1.66602 0,-1.66797 z m 72.3535,1.66797 1.3243,0 c 0.728,0 1.3222,0.5625 1.3222,1.25 0,0.6875 -0.2476,1.25 -0.5508,1.25 -0.3031,0 -0.8993,-0.5625 -1.3242,-1.25 l -0.7715,-1.25 z m 78.8965,7.22071 0,1.41406 0,1.41211 3.4375,-0.85547 3.4375,-0.85742 -1.6523,2.00781 -1.6543,2.00976 -1.9883,-0.76367 -1.9902,-0.76367 0.8203,1.32617 0.8183,1.32617 -3.0703,2.01172 c -1.6886,1.10645 -3.2298,2.00274 -3.4258,1.99024 -0.1961,-0.0119 -1.7081,-1.44537 -3.3593,-3.18555 l -3,-3.16406 1.125,-1.09375 c 0.6199,-0.60071 3.2363,-1.47938 5.8144,-1.95313 l 4.6875,-0.86132 z m 43.7578,4.32226 c 1.2775,-0.0537 1.2837,1.04561 0.051,3.34961 -0.7674,1.43389 -1.9381,2.60742 -2.6015,2.60742 l -1.2071,0 0,-2.36719 0,-2.36523 2.0547,-0.78906 c 0.7094,-0.27222 1.2773,-0.41766 1.7031,-0.43555 z m -24.9336,0.95703 1.3243,0 -0.7735,1.25 c -0.4248,0.6875 -1.0191,1.25 -1.3222,1.25 -0.3033,0 -0.5528,-0.5625 -0.5528,-1.25 0,-0.6875 0.5962,-1.25 1.3242,-1.25 z m -181.7089,0.0176 c 0.8187,-0.0105 1.8349,0.54492 2.2597,1.23242 0.9592,1.55191 0.5264,1.55191 -1.875,0 l -1.875,-1.21289 1.4903,-0.0195 z m 6.791,0.9707 0.7558,0.75586 0.7559,0.75586 -2.3965,-0.0996 -2.3965,-0.0977 1.6407,-0.65821 1.6406,-0.65625 z m 119.8437,0.26172 1.875,0 1.875,0 0,1.25 0,1.25 -1.875,0 -1.875,0 0,-1.25 0,-1.25 z m -107.5,3.75 c 1.2939,0 2.7002,0.5625 3.125,1.25 l 0.7735,1.25 -3.8985,0 -3.8965,0 0.7715,-1.25 c 0.4249,-0.6875 1.8312,-1.25 3.125,-1.25 z m 178.1992,3.75 c 0.3032,0 0.5508,0.5625 0.5508,1.25 0,0.6875 -0.5942,1.25 -1.3222,1.25 l -1.3243,0 0.7715,-1.25 c 0.4249,-0.6875 1.0211,-1.25 1.3242,-1.25 z m -168.1992,4.58203 0.834,0.83399 0.834,0.83398 -1.668,0 -1.666,0 0.834,-0.83398 0.832,-0.83399 z m -77.5,29.16797 2.5742,0 2.5743,0 -0.7735,1.25 c -0.4248,0.6875 -1.5816,1.25 -2.5722,1.25 l -1.8028,0 0,-1.25 0,-1.25 z m 60.6992,2.5 c 0.3032,0 0.5508,0.5625 0.5508,1.25 0,0.6875 -0.5942,1.25 -1.3222,1.25 l -1.3243,0 0.7715,-1.25 c 0.4249,-0.6875 1.0211,-1.25 1.3242,-1.25 z m 11.7129,1.25 c -0.7366,0 -2.1835,0.84375 -3.2148,1.875 l -1.875,1.875 3.2148,0 3.2129,0 0,-1.875 0,-1.875 -1.3379,0 z m -38.6621,2.08203 0.834,0.83399 0.834,0.83398 -1.668,0 -1.666,0 0.834,-0.83398 0.832,-0.83399 z m -36.1894,2.56055 0.7734,0.77344 0.7734,0.77343 -1.582,1.9043 c -0.8698,1.04787 -2.0744,1.90625 -2.6777,1.90625 -1.7218,0 -1.2853,-2.03763 0.8086,-3.77539 l 1.9043,-1.58203 z m 20.9824,1.60742 4.791,0.0918 c 2.6354,0.051 7.3242,0.51912 10.418,1.04101 l 5.625,0.94922 -3.6875,1.52149 -3.6856,1.52343 5.834,3.99805 5.832,4 0.041,1.5625 0.039,1.5625 -3.6758,0 -3.6757,0 -0.6446,1.04102 -0.6425,1.04101 -3.7657,-0.55273 -3.7636,-0.55274 -1.375,-1.65429 -1.3731,-1.65625 -2.4453,2.44531 -2.4453,2.44531 -2.4707,-1.32226 -2.4727,-1.32227 0,-1.83203 0,-1.83008 -3.125,0 -3.125,0 0,1.76953 0,1.77149 1.502,0.5 1.5019,0.5 -1.3008,0.80469 -1.3007,0.80468 -1.4512,-1.45117 c -0.7976,-0.79755 -1.4492,-2.44293 -1.4492,-3.65625 l 0,-2.20508 2.4179,-1.29492 c 1.3298,-0.71168 3.3482,-1.29297 4.4864,-1.29297 l 2.0703,0 2.3066,2.8125 2.3067,2.8125 1.7636,-2.37695 1.7657,-2.37695 4.1445,1.44531 c 2.279,0.7945 4.3413,1.24476 4.584,1.00195 0.2429,-0.24283 -0.3471,-2.31591 -1.3106,-4.60742 l -1.75,-4.16602 -4.7207,-0.0859 -4.7187,-0.084 -0.5274,-1.5625 -0.5273,-1.5625 z m 41.5312,1.25 c 0.647,0 1.1758,0.5625 1.1758,1.25 l 0,1.25 -1.9472,0 -1.9493,0 0.7715,-1.25 c 0.4249,-0.6875 1.3023,-1.25 1.9492,-1.25 z m 61.3204,16.12695 -5.1192,3.23243 -5.1211,3.23242 -1.0722,2.81836 c -0.5892,1.54965 -1.9733,3.56517 -3.0762,4.48047 l -2.0059,1.66406 0,2.13867 c 0,1.17624 0.3811,2.51975 0.8457,2.98438 l 0.8457,0.84375 2.5918,-2.32422 c 1.426,-1.27885 3.5338,-2.65639 4.6836,-3.06055 l 2.0899,-0.73437 0.4101,-2.80469 0.4102,-2.80469 3.6426,-0.96875 c 3.6782,-0.9779 5.6778,-2.96458 5.7128,-5.67773 l 0.018,-1.47852 -2.4277,-0.77148 -2.4277,-0.76954 z m -81.3946,3.69336 1.875,1.875 c 1.0313,1.03125 1.875,2.47825 1.875,3.21485 0,1.49734 -1.64,1.78186 -2.916,0.50586 -0.4584,-0.45833 -0.834,-1.90532 -0.834,-3.21485 l 0,-2.38086 z m 30.6992,0.17969 c -0.3031,0 -0.8993,0.5625 -1.3242,1.25 l -0.7715,1.25 1.3243,0 c 0.728,0 1.3222,-0.5625 1.3222,-1.25 0,-0.6875 -0.2476,-1.25 -0.5508,-1.25 z m -63.1171,0.10742 1.8339,0.70508 1.834,0.70508 0,1.66602 c 0,0.91712 -0.4218,1.92416 -0.9375,2.23632 l -0.9375,0.56641 -1.625,-1.75977 -1.6269,-1.75976 0.7285,-1.17969 0.7305,-1.17969 z m 31.3164,17.39258 3.1562,0 3.1543,0 -0.5137,1.5625 -0.5156,1.5625 -2.4531,0.36524 c -1.3494,0.20088 -2.8379,-0.0196 -3.3067,-0.48829 l -0.8515,-0.85156 0.666,-1.07617 0.6641,-1.07422 z m -13.1993,2.5 c 0.3032,0 0.5508,0.5625 0.5508,1.25 0,0.6875 -0.5942,1.25 -1.3222,1.25 l -1.3243,0 0.7715,-1.25 c 0.4249,-0.6875 1.0211,-1.25 1.3242,-1.25 z m 1.8711,6.24414 4.4922,1.87696 4.4942,1.8789 -1.5567,1.875 -1.5547,1.875 -3.5976,0 -3.5977,0 0,1.99024 0,1.99218 2.5528,0.66797 2.5507,0.66797 -0.4628,1.40235 -0.4649,1.40429 -8.3379,0.36914 -8.3379,0.36914 0,-2.48242 0,-2.48437 -1.2695,-0.78516 -1.2695,-0.78516 0.7187,-1.16406 0.7188,-1.16211 5.1757,0 5.1758,0 -1.4687,-1.4707 -1.4688,-1.46875 3.7539,-2.2832 3.7539,-2.28321 z m -15.0703,22.50586 6.291,0 6.2891,0 0.7402,1.92774 c 0.4071,1.0609 0.5304,2.10861 0.2735,2.32812 -0.2567,0.21951 -2.8057,0.6981 -5.6641,1.0625 l -5.1973,0.66211 -1.3652,-1.36523 c -0.751,-0.75105 -1.3672,-2.09649 -1.3672,-2.99024 l 0,-1.625 z m 6.25,12.19336 0,0 0,2.16992 0,2.16993 3.75,-0.55079 3.75,-0.55078 -0.09,0.72071 c -0.048,0.39657 -0.4701,1.62279 -0.9375,2.7246 l -0.8496,2.00391 -4.3008,-1.46484 c -2.3648,-0.80543 -4.4922,-2.04313 -4.7285,-2.75196 l -0.4297,-1.28906 1.9161,-1.59179 1.9179,-1.58985 z m 10.4199,3.18164 3.5411,1.33594 c 1.9474,0.73508 3.539,1.7094 3.539,2.16601 0,0.45664 -1.3566,1.09107 -3.0156,1.40821 l -3.0156,0.57617 -0.5254,-2.74414 -0.5235,-2.74219 z m 204.5801,7.11914 c -12.5676,0.0992 -43.9767,2.31659 -44.8242,3.16407 -0.3251,0.32513 3.2995,0.6866 8.0547,0.80273 7.5745,0.18492 30.7402,0.86844 37.1777,1.09766 l 2.2813,0.082 -1.4512,1.75 -1.4531,1.75 0.8066,1.30468 c 0.4435,0.71761 1.1551,1.30469 1.5801,1.30469 0.425,0 2.2697,-1.7945 4.0996,-3.98633 l 3.3262,-3.98437 3.8379,1.58984 3.8379,1.58985 2.6484,-1.41797 2.6484,-1.41797 -0.6289,-1.01758 c -0.9841,-1.59234 -10.3124,-2.70313 -21.9414,-2.61133 z m -55.9824,2.50586 -0.7187,1.875 -0.7188,1.875 2.9824,0 c 3.7917,0 6.9375,-1.1954 6.9375,-2.63476 l 0,-1.11524 -4.2402,0 -4.2422,0 z m -15.8516,0.11914 c -1.1956,0.051 -2.3841,0.82687 -3.748,2.33399 l -2.2207,2.45312 0.7383,1.92188 0.7363,1.92187 3.7891,0 3.789,0 0,-1.77148 0,-1.77149 1.418,-0.47265 1.418,-0.47266 -2.1329,-2.13086 c -1.3895,-1.38956 -2.5914,-2.06276 -3.7871,-2.01172 z m 136.834,4.88086 1.875,0 1.875,0 0,1.25 0,1.25 -1.875,0 -1.875,0 0,-1.25 0,-1.25 z m -93.834,0.10156 -6.1914,0.26172 -6.1933,0.26172 0.6972,2.19336 0.6954,2.19336 -2.1465,0.82227 -2.1446,0.82422 -3.2793,-1.23829 c -3.4642,-1.30765 -6.3535,-0.92324 -6.3535,0.84571 0,0.5824 1.2657,1.33865 2.8125,1.67968 1.5469,0.34103 6.9471,0.41906 11.9981,0.17383 l 9.1836,-0.44531 0.8164,-0.88281 0.8144,-0.88477 -1.5625,-0.55664 c -0.8593,-0.30692 -1.5625,-1.07488 -1.5625,-1.70508 l 0,-1.14453 1.9492,0 1.9493,0 -0.7403,-1.19922 -0.7422,-1.19922 z m 104.7481,0.90039 7.3125,1.51758 7.3144,1.51953 -2.9082,2.35547 -2.9082,2.35547 -3.9238,0.0391 -3.9258,0.0391 -2.4258,1.83593 -2.4257,1.83594 -4.1368,0 -4.1367,0 0,-1.65039 0,-1.65039 3.211,-2.79101 c 1.7654,-1.53497 4.5008,-3.37811 6.08,-4.09766 l 2.8731,-1.3086 z m -78.2363,5.24805 c -0.7369,0 -1.9419,1.125 -2.6778,2.5 l -1.3379,2.5 1.92,0 c 1.0555,0 1.9179,-0.23592 1.9179,-0.52344 0,-0.28752 0.3424,-1.41252 0.7598,-2.5 l 0.7578,-1.97656 -1.3398,0 z m -187.5411,0.0176 2.9434,3.42187 2.9414,3.41993 -0.584,0.94531 c -0.3212,0.51977 -1.3051,0.94531 -2.1855,0.94531 l -1.5996,0 -1.4668,-3.21875 -1.4668,-3.21875 0.709,-1.14844 0.7089,-1.14648 z m 227.4375,1.23242 c -0.6469,0 -1.5243,0.5625 -1.9492,1.25 l -0.7715,1.25 1.9493,0 1.9472,0 0,-1.25 c 0,-0.6875 -0.5288,-1.25 -1.1758,-1.25 z m 48.0411,4.25586 c 1.0232,-0.014 1.8059,0.0692 2.1015,0.25195 l 1.0742,0.66407 -0.7187,1.16406 -0.7188,1.16406 -4.9257,0 -4.9278,0 0,-1.08789 0,-1.08594 4.5703,-0.74218 c 1.2568,-0.20391 2.5217,-0.31415 3.545,-0.32813 z m -263.0547,3.39063 c -0.3993,0.0101 -0.7203,0.0972 -0.9043,0.28125 -0.3608,0.36078 -0.2854,1.25505 0.1679,1.98828 l 0.8243,1.33398 2.4257,0 2.4258,0 0,-1.16601 c 0,-1.09181 -3.2091,-2.48141 -4.9394,-2.4375 z m 223.5429,3.60351 3.1993,0 3.1972,0 0,1.25 0,1.25 -2.4258,0 -2.4257,0 -0.7735,-1.25 -0.7715,-1.25 z m -248.6035,9.58203 0.834,0.83399 0.834,0.83398 -1.668,0 -1.666,0 0.834,-0.83398 0.832,-0.83399 z m -8.6015,1.66797 1.25,0 -0.7735,1.25 c -0.4248,0.6875 -1.334,1.25 -2.0215,1.25 l -1.25,0 0.7715,-1.25 c 0.4249,-0.6875 1.336,-1.25 2.0235,-1.25 z m -7.7559,13.43945 2.0078,0.77149 2.0098,0.77148 -0.7793,1.25782 c -1.0132,1.63937 -2.7687,1.60524 -3.8067,-0.0742 l -0.8242,-1.33399 0.6973,-0.69531 0.6953,-0.69727 z m 21.2109,12.81055 2.0215,0 2.0235,0 -0.7735,1.25 c -0.4248,0.6875 -0.9873,1.25 -1.25,1.25 -0.2626,0 -0.8251,-0.5625 -1.25,-1.25 l -0.7715,-1.25 z m 214.625,2.5 1.7715,0 0,1.74024 0,1.74218 -1.9765,0.75782 c -1.0875,0.41731 -2.775,0.75976 -3.75,0.75976 l -1.7735,0 0,-1.74219 0,-1.74023 1.9785,-0.75977 c 1.0875,-0.41731 2.775,-0.75781 3.75,-0.75781 z m -233.8535,1.66602 0,0 3.4668,1.42969 3.4668,1.42773 -0.8926,0.89062 -0.8906,0.89258 2.7363,1.91797 c 1.5054,1.05443 2.7363,2.37228 2.7363,2.92969 l 0.01,0 0,1.01367 -6.0098,1.1875 -6.0097,1.18945 -1.2422,-1.33593 -1.2442,-1.33399 0,-4.60742 0,-4.60742 1.9375,-0.4961 1.9336,-0.49804 z m 241.877,0.66015 2.5488,0.39844 2.5488,0.40039 0.018,1.25 c 0.02,1.52137 -3.0247,2.29944 -4.2402,1.08399 -0.482,-0.4821 -0.875,-1.38512 -0.875,-2.00586 l 0,-1.12696 z m -16.7285,2.67383 1.875,0 -0.7735,1.25 c -0.4248,0.6875 -1.6152,1.25 -2.6465,1.25 l -1.875,0 0.7715,-1.25 c 0.4249,-0.6875 1.6173,-1.25 2.6485,-1.25 z m -40.625,1.25 4.6132,0.12305 c 2.5376,0.0685 6.0196,0.52522 7.7383,1.01367 l 3.125,0.88867 -4.2187,0.86133 c -4.3665,0.8925 -5.1107,0.89165 -9.8614,-0.0215 l -2.832,-0.54493 0.7188,-1.16015 0.7168,-1.16016 z m 59.705,3.75 1.9493,0 1.9472,0 0,1.25 c 0,0.6875 -0.5288,1.25 -1.1758,1.25 -0.6469,0 -1.5243,-0.5625 -1.9492,-1.25 l -0.7715,-1.25 z m -43.8867,6.32422 c 0.6346,0 1.5715,0.39271 2.7832,1.17578 l 1.875,1.21094 -2.8125,0.0195 -2.8125,0.0195 0,-1.25 c 0,-0.78307 0.3323,-1.17578 0.9668,-1.17578 z m -209.7168,4.85156 5.9375,0.58594 c 3.2657,0.32237 7.86,0.62071 10.209,0.66211 l 4.2715,0.0762 -0.6856,0.6836 c -0.8679,0.86795 -11.7519,1.4316 -16.2949,0.84375 l -3.4375,-0.44336 0,-1.20508 0,-1.20313 z m 22.836,2.63282 1.082,0.66796 c 0.5957,0.36811 1.082,1.48004 1.082,2.47071 l 0,1.80273 -3.3183,0 -3.3184,0 2.2363,-2.4707 2.2364,-2.4707 z m 235.914,6.04296 1.25,0.77344 c 0.6875,0.4249 1.25,1.0191 1.25,1.32227 0,0.30318 -0.5625,0.55273 -1.25,0.55273 -0.6875,0 -1.25,-0.59614 -1.25,-1.32422 l 0,-1.32422 z m 5,1.25 1.25,0.77344 c 0.6875,0.4249 1.25,1.0191 1.25,1.32227 0,0.30318 -0.5625,0.55273 -1.25,0.55273 -0.6875,0 -1.25,-0.59614 -1.25,-1.32422 l 0,-1.32422 z m -5.625,16.39844 1.875,0 0,1.875 c 0,1.95196 -1.4777,2.47932 -2.916,1.04102 -1.4384,-1.43828 -0.911,-2.91602 1.041,-2.91602 z m -181.875,14.18164 3.7383,0.54883 3.7363,0.54883 -0.6855,1.10937 -0.6856,1.11133 -3.0507,0 -3.0528,0 0,-1.66015 0,-1.65821 z m -18.9355,1.75391 4.5605,0.85547 4.5586,0.85547 -1.4941,1.80078 -1.4942,1.80273 -3.5234,0 -3.5234,0 -0.8399,-1.35937 -0.8398,-1.35938 1.2969,-1.29687 1.2988,-1.29883 z m 25.1855,3.89062 2.7149,0.39844 2.7148,0.40039 0.5156,1.5625 0.5137,1.5625 -2.3965,0 c -2.5943,0 -4.0625,-1.0118 -4.0625,-2.79687 l 0,-1.12696 z m 133.6035,2.67383 1.875,0 c 1.0313,0 2.2217,0.5625 2.6465,1.25 l 0.7735,1.25 -1.875,0 c -1.0312,0 -2.2236,-0.5625 -2.6485,-1.25 l -0.7715,-1.25 z m -114.8535,4.58203 0.834,0.83399 0.834,0.83398 -0.834,0.83203 -0.834,0.83399 0,-1.66602 0,-1.66797 z m -11.25,2.91797 1.211,0 1.2109,0 -0.7148,1.86524 -0.7168,1.86718 2.9433,1.17969 2.9414,1.17774 -2.6035,0.0801 c -3.1877,0.097 -4.2715,-0.88665 -4.2715,-3.8789 l 0,-2.29102 z m 16.2481,2.07813 0.7812,0.78125 0.7813,0.78125 -0.7403,1.92968 -0.7402,1.92969 -3.1641,0 -3.166,0 0,-1.03906 c 0,-0.57132 1.4072,-1.79165 3.125,-2.71094 l 3.1231,-1.67187 z m -60.1446,4.17187 2.0215,0 2.0235,0 -0.7735,1.25 c -0.4248,0.6875 -0.9873,1.25 -1.25,1.25 -0.2626,0 -0.8251,-0.5625 -1.25,-1.25 l -0.7715,-1.25 z m 81.3965,0 0,1.15821 c 0,0.63709 0.9844,1.41058 2.1875,1.7207 2.983,0.76894 4.4406,0.3661 5.0274,-1.39453 l 0.4941,-1.48438 -3.8535,0 -3.8555,0 z m -66.6367,1.25 3.8106,0 3.8085,0 0.6739,1.75195 0.6718,1.75196 -0.746,0.74804 c -1.414,1.41409 -3.6993,0.74279 -5.9571,-1.75195 l -2.2617,-2.5 z m 17.7148,3.70899 0.7325,1.18359 0.7304,1.18359 -1.1836,0.73243 -1.1835,0.73046 -0.7325,-1.18359 -0.7304,-1.18359 1.1836,-0.73243 1.1835,-0.73046 z m 32.6719,3.74414 0,1.73828 0,1.73828 -5.3125,0.81836 c -2.9218,0.45005 -7.1406,1.14699 -9.375,1.54883 l -4.0625,0.73047 0,-1.23633 c 0,-0.67984 0.72,-1.83204 1.5977,-2.56055 l 1.5957,-1.32422 7.7793,-0.72656 7.7773,-0.72656 z m 78.3633,3.17187 3.6309,0.24414 c 1.997,0.13456 6.1621,0.69707 9.2558,1.25 l 5.625,1.00586 0,1.25 0,1.25 -5,0.21094 -5,0.21289 -4.7441,-1.28711 -4.7461,-1.28906 0.4902,-1.42383 0.4883,-1.42383 z m -117.1133,4.74805 0,1.01953 c 0,0.56074 -1.0862,1.60082 -2.416,2.3125 -2.8823,1.54254 -4.7158,1.64906 -5.5371,0.32031 l -0.6035,-0.97461 4.2793,-1.33984 4.2773,-1.33789 z m 7.5,0.95508 0,1.83593 c 0,2.12463 -0.071,2.14759 -2.291,0.74024 l -1.668,-1.05664 1.9805,-0.75977 1.9785,-0.75976 z m 35,1.17187 2.5742,0 2.5743,0 -0.7735,1.25 c -0.4248,0.6875 -1.5816,1.25 -2.5722,1.25 l -1.8028,0 0,-1.25 0,-1.25 z m 7.5742,2.5 c 0.647,0 1.1758,0.5625 1.1758,1.25 l 0,1.25 -1.9472,0 -1.9493,0 0.7715,-1.25 c 0.4249,-0.6875 1.3023,-1.25 1.9492,-1.25 z m 63.9864,4.89063 0.6992,0.70117 0.6992,0.69922 -1.5527,1.54101 -1.5528,1.54297 0.8536,-2.24219 0.8535,-2.24218 z m -85.3106,1.21093 1.25,0.77344 c 0.6875,0.4249 1.25,1.30035 1.25,1.94727 l 0,1.17773 -1.8008,0 c -0.9906,0 -2.124,-0.52408 -2.5195,-1.16406 l -0.7187,-1.16406 1.2695,-0.78516 1.2695,-0.78516 z m 44.8535,1.39844 2.5743,0 2.5722,0 0,1.25 0,1.25 -1.8008,0 c -0.9906,0 -2.1493,-0.5625 -2.5742,-1.25 l -0.7715,-1.25 z m -10.0937,0.99024 2.3086,1.34179 2.3066,1.3418 -3.6875,0.0371 -3.6875,0.0391 1.3809,-1.38086 1.3789,-1.3789 z m -8.5098,2.61132 1.25,0.77344 c 0.6875,0.4249 1.25,1.0191 1.25,1.32227 0,0.30318 -0.5625,0.55273 -1.25,0.55273 -0.6875,0 -1.25,-0.59615 -1.25,-1.32422 l 0,-1.32422 z m -8.0508,1.39844 c 0.3032,0 0.5508,0.5625 0.5508,1.25 0,0.6875 -0.5942,1.25 -1.3222,1.25 l -1.3243,0 0.7715,-1.25 c 0.4249,-0.6875 1.0211,-1.25 1.3242,-1.25 z m 121.8692,65.8164 -3.1582,1.43945 -3.1602,1.43945 0,1.4336 0,1.43164 3.9727,-0.79297 c 4.9079,-0.98157 5.6385,-1.65836 3.791,-3.50586 l -1.4453,-1.44531 z m -212.5684,40.01562 -0.832,0.83399 -0.834,0.83398 1.666,0 1.668,0 -0.834,-0.83398 -0.834,-0.83399 z m -5.9941,0.22071 c -2.6382,-0.0207 -8.0762,0.0398 -14.0059,0.16406 l -14.375,0.30273 -2.5,1.3711 c -1.375,0.75426 -3.3786,1.23846 -4.4531,1.07617 l -1.9531,-0.29492 -11.1719,5.00781 -11.1719,5.00976 9.0625,0.0293 9.0625,0.0293 0,-1.1582 c 0,-0.63715 1.6152,-1.9632 3.5879,-2.94727 l 3.586,-1.78906 -0.5899,2.25586 -0.5898,2.25586 -2.0586,0.54687 c -1.1326,0.30083 16.5019,0.53589 39.1894,0.52149 l 41.25,-0.0273 -8.125,-0.93359 c -4.4687,-0.51437 -8.5468,-0.68612 -9.0625,-0.38086 l -0.9375,0.55469 0,-1.94141 0,-1.94141 -9.7871,0.30469 -9.789,0.30664 -3.295,-1.75195 -3.2929,-1.75 -1.6563,1.375 -1.6562,1.375 -7.1739,-0.74024 -7.1718,-0.74023 -0.6231,-1.00977 -0.623,-1.00781 2.5019,-1.33984 2.502,-1.33789 7.2207,0.64453 7.2187,0.64648 1.875,-1.22656 1.875,-1.22461 -1.25,-0.18555 c -0.1719,-0.0255 -0.7397,-0.0419 -1.6191,-0.0488 z m 16.5625,1.55273 c -0.5326,0.003 -0.9643,0.0298 -1.2539,0.0859 l -2.2305,0.43359 -0.5469,1.63867 -0.5449,1.63868 7.9414,-0.86719 c 4.3682,-0.47709 8.1342,-1.03136 8.3692,-1.23242 0.6573,-0.56281 -8.006,-1.71823 -11.7344,-1.69727 z m 18.1816,2.39453 -2.8125,0.0176 -2.8125,0.0195 1.875,1.21289 c 2.4235,1.56615 3.75,1.56615 3.75,0 l 0,-1.25 z m -60,2.08203 0.834,0.83399 0.834,0.83398 -1.668,0 -1.666,0 0.834,-0.83398 0.832,-0.83399 z"
       id="path13860" />
  </g>
</svg>
