<?xml version="1.0" encoding="UTF-8" standalone="no"?>
<!-- Created with Inkscape (http://www.inkscape.org/) -->

<svg
   xmlns:dc="http://purl.org/dc/elements/1.1/"
   xmlns:cc="http://creativecommons.org/ns#"
   xmlns:rdf="http://www.w3.org/1999/02/22-rdf-syntax-ns#"
   xmlns:svg="http://www.w3.org/2000/svg"
   xmlns="http://www.w3.org/2000/svg"
   xmlns:sodipodi="http://sodipodi.sourceforge.net/DTD/sodipodi-0.dtd"
   xmlns:inkscape="http://www.inkscape.org/namespaces/inkscape"
   width="210mm"
   height="297mm"
   viewBox="0 0 744.09448819 1052.3622047"
   id="svg4143"
   version="1.1"
   inkscape:version="0.91 r13725"
   sodipodi:docname="H.svg">
  <defs
     id="defs4145" />
  <sodipodi:namedview
     id="base"
     pagecolor="#ffffff"
     bordercolor="#666666"
     borderopacity="1.0"
     inkscape:pageopacity="0.0"
     inkscape:pageshadow="2"
     inkscape:zoom="0.35"
     inkscape:cx="-145"
     inkscape:cy="520"
     inkscape:document-units="px"
     inkscape:current-layer="layer1"
     showgrid="false"
     inkscape:window-width="1920"
     inkscape:window-height="1055"
     inkscape:window-x="0"
     inkscape:window-y="25"
     inkscape:window-maximized="1" />
  <metadata
     id="metadata4148">
    <rdf:RDF>
      <cc:Work
         rdf:about="">
        <dc:format>image/svg+xml</dc:format>
        <dc:type
           rdf:resource="http://purl.org/dc/dcmitype/StillImage" />
        <dc:title></dc:title>
      </cc:Work>
    </rdf:RDF>
  </metadata>
  <g
     inkscape:label="Layer 1"
     inkscape:groupmode="layer"
     id="layer1">
    <path
       inkscape:connector-curvature="0"
       style="fill:#000000"
       d="m 552.34413,245.04904 -3.5214,1.41015 -3.5235,1.41016 -37.5,0.52734 c -20.625,0.29023 -63.3269,0.63959 -94.8945,0.77735 l -57.3965,0.25195 -0.4805,1.44141 -0.4804,1.4414 5.3066,0.89649 c 2.9189,0.49313 8.2941,1.92409 11.9434,3.17968 l 6.6347,2.28321 3.8203,-1.33203 3.8223,-1.33204 16.4883,1.34766 c 9.0684,0.74111 19.2988,1.9002 22.7363,2.57617 3.4375,0.67596 12.8747,1.86194 20.9707,2.63672 l 14.7207,1.41016 5.9043,1.95312 c 3.2477,1.07481 6.4387,2.44296 7.0918,3.03907 0.6531,0.59612 2.2142,1.08398 3.4688,1.08398 l 2.2812,0 1.1973,-3.14844 1.1953,-3.14648 3.2305,-1.22852 3.2285,-1.22656 6.3828,0 6.3828,0 2.1699,1.96289 2.17,1.96484 5.7851,-1.96484 c 3.1815,-1.08015 6.5072,-1.96289 7.3906,-1.96289 0.8835,0 3.9056,1.96875 6.7168,4.375 2.8112,2.40625 5.7421,4.375 6.5137,4.375 0.7717,0 1.7273,-0.84375 2.1231,-1.875 0.3958,-1.03125 1.2078,-1.875 1.8046,-1.875 l 1.084,0 -0.7636,3.82617 -0.7657,3.82422 4.2344,4.36719 4.2324,4.36719 0,20.24414 c 0,11.13465 -0.47,32.33984 -1.0469,47.12109 l -1.0488,26.875 1.9414,5.66406 1.9434,5.66407 1.3203,11.65625 1.3203,11.65625 1.2227,2.28515 1.2226,2.28321 0,8.625 0,8.62304 0.9375,0.94336 0.9375,0.94141 2.1524,-4.91602 2.1504,-4.91601 0.6523,-13.63086 c 0.3586,-7.4967 1.2307,-16.89746 1.9395,-20.89063 0.7087,-3.99319 1.0144,-7.70236 0.6796,-8.24414 -0.3348,-0.54178 -0.1126,-4.02519 0.4922,-7.74023 l 1.0996,-6.75391 -1.7988,-2.8125 -1.7988,-2.8125 1.789,-2.8125 1.7891,-2.8125 2.6524,-30 2.6523,-30 1.9609,-9.23633 1.961,-9.23632 2.0644,-3.35938 c 1.135,-1.84765 3.605,-5.1802 5.4883,-7.40625 l 3.4238,-4.04688 4.0762,0.39258 4.0742,0.39258 0.3867,3.33008 0.3848,3.33203 1.916,0.73633 c 1.0533,0.40412 2.3726,0.4502 2.9336,0.10351 l 1.0196,-0.63085 -0.6739,-2.57618 -0.6738,-2.57812 2.7559,-1.92969 c 1.5157,-1.06171 3.1847,-3.08606 3.707,-4.49805 l 0.9492,-2.5664 -2.2324,-4.6211 -2.2324,-4.62109 -7.8692,-0.80469 -7.8711,-0.80664 -4.3593,1.25 -4.3614,1.25195 -3.7636,-1.13672 c -2.0703,-0.62499 -6.9603,-1.46905 -10.8672,-1.875 l -7.1036,-0.73632 z m 17.211,18.21484 0.8633,0.86328 0.8632,0.86328 -2.6796,7.9375 c -1.4745,4.36512 -3.2952,11.26871 -4.045,15.3418 -0.7499,4.07308 -1.8132,7.96875 -2.3632,8.65625 -0.55,0.6875 -1.2262,2.375 -1.502,3.75 l -0.5019,2.5 -1.627,-2.95703 -1.6289,-2.95508 0.6894,-3.29492 c 0.3794,-1.81167 1.217,-5.82422 1.8614,-8.91797 0.6444,-3.09375 2.2171,-8.66535 3.4941,-12.38086 l 2.3203,-6.75586 2.1289,-1.32617 2.127,-1.32422 z m -401.1309,13.03711 0,9.375 0,9.375 2.5,2.5 c 1.375,1.375 3.0625,2.5 3.75,2.5 l 1.25,0 0,-1.875 0,-2.8125 c 0,-0.51562 -0.5142,-0.9375 -1.1445,-0.9375 -0.6301,0 -1.4899,-0.34534 -1.9102,-0.76562 l -0.7636,-0.76367 1.2539,-3.29883 1.2539,-3.29688 2.5312,0 2.5293,0 0.018,-0.9375 c 0.01,-0.51562 0.3288,-2.0961 0.709,-3.51172 l 0.6914,-2.57422 -3.2676,-1.48828 c -1.797,-0.81875 -4.6475,-1.48828 -6.334,-1.48828 l -3.0664,0 z m 165.1699,1.09766 -1.4335,2.67969 -1.4356,2.67968 2.1973,2.42578 2.1953,2.42774 1.2519,-0.41797 c 0.6885,-0.22952 1.851,-1.36904 2.584,-2.53125 l 1.334,-2.11133 -1.3769,-2.1875 c -0.7576,-1.20312 -2.2647,-2.36282 -3.3477,-2.57617 l -1.9688,-0.38867 z m -47.2636,0.0312 -1.5918,1.91992 -1.5938,1.91797 0.7578,1.97461 0.7579,1.97461 3.4453,-0.39649 3.4433,-0.39453 0,-3.125 0,-3.125 -2.6093,-0.37305 -2.6094,-0.37304 z m -94.4102,1.36719 -4.6269,0.004 0.6699,6.5625 c 0.6553,6.41887 2.1467,15.29569 4.2539,25.3125 l 1.0527,5 -1.2617,4.375 -1.2598,4.375 1.7754,11.12305 1.7774,11.125 -1.4727,4.99023 -1.4746,4.99024 0.9902,6.26367 0.9922,6.26562 -0.6894,1.11329 -0.6875,1.11328 1.8281,2.78906 1.8281,2.78906 0.8985,8.96094 0.9004,8.96094 -1.836,2.62109 -1.834,2.62109 0.6602,5.88672 0.6621,5.88672 1.8262,1.33985 1.8261,1.33984 -2.0722,4.00976 -2.0742,4.00782 0.7656,1.23828 0.7656,1.23828 -1.4531,4.39844 -1.4512,4.39844 1.4492,1.74609 1.4493,1.74805 -1.3145,2.45507 -1.3125,2.45508 1.7695,5.88477 1.7715,5.88281 -1.2422,3.26563 -1.2422,3.26757 1.9493,1.42383 c 1.0719,0.78372 1.9492,1.78478 1.9492,2.22461 0,0.43983 -1.125,1.92578 -2.5,3.30078 l -2.5,2.5 0,3.67578 0,3.67578 1.334,0.82618 1.3359,0.82421 -0.873,2.06055 c -0.48,1.13359 -0.7832,4.03125 -0.6719,6.4375 l 0.2011,4.375 1.6563,1.25586 1.6563,1.25586 -1.3301,2.10742 -1.3301,2.10938 1.959,2.25976 c 1.0773,1.24338 2.2688,3.53675 2.6484,5.09571 l 0.6914,2.83398 -1.7636,1.76367 c -2.2949,2.29491 -2.229,4.47292 0.2441,8.00391 l 2.0078,2.86719 -2.8574,3.04297 -2.8574,3.04101 -0.3711,9.68164 -0.3692,9.68164 1.9883,7.96875 1.9883,7.96875 -0.9063,5.15625 c -0.4981,2.83577 -0.8883,6.5625 -0.8671,8.28125 0.057,4.78545 1.8246,27.28732 2.5214,32.0996 l 0.2149,1.47656 2.8125,0.48828 2.8125,0.48829 -3.4375,1.4414 -3.4375,1.44336 -0.1446,3.46875 c -0.079,1.90764 0.021,4.59375 0.2227,5.96875 0.2026,1.375 0.3444,3.625 0.3184,5 -0.2481,12.78412 -0.4017,33.50117 -0.4297,57.5 -0.018,15.8125 -0.096,29.875 -0.1719,31.25 -0.077,1.375 -0.042,5.3125 0.078,8.75 0.12,3.4375 -0.1553,8.91571 -0.6133,12.17578 l -0.8339,5.92774 1.6757,2.01953 1.6758,2.01758 5.6738,-0.90235 c 7.0355,-1.12011 5.6577,-1.1089 28.2422,-0.22656 l 18.8204,0.73438 4.9296,-1.68946 4.9317,-1.6914 0.3906,-1.92969 c 0.2154,-1.0614 -0.1863,-3.01014 -0.8926,-4.33008 l -1.2832,-2.40039 1.3067,-11.70703 1.3066,-11.70703 2.0039,-3.39258 2.002,-3.39063 -1.3399,-6.0039 -1.3398,-6.00586 0.6445,-7.24805 0.6465,-7.25 -2.791,-2.9707 -2.791,-2.9707 0.8281,-1.3418 c 0.4563,-0.7384 1.6421,-1.34375 2.6328,-1.34375 l 1.8008,0 0,-1.16406 c 0,-0.64117 -1.125,-1.52452 -2.5,-1.96094 l -2.5,-0.79297 0,-1.65625 0,-1.6582 2.0527,-0.78711 2.0547,-0.78907 -0.7988,-0.79687 -0.7969,-0.79883 3.1523,-4.13476 3.1543,-4.13282 -1.5976,-2.61523 -1.5957,-2.61328 1.9375,-1.48633 1.9394,-1.48828 4.0176,-16.2168 4.0195,-16.21875 3.418,-2.79883 c 1.88,-1.53928 5.788,-3.938 8.6856,-5.33006 l 5.2695,-2.53125 9.1055,-0.19727 9.1074,-0.19922 1.3125,-1.01172 1.3144,-1.01367 18.6856,-0.8457 18.6875,-0.84571 1.4472,-1.14062 1.4473,-1.14063 5.4277,0.125 c 2.985,0.0679 9.3653,-0.11943 14.1778,-0.41406 4.8125,-0.2946 11.7402,-0.2415 15.3965,0.11719 l 6.6484,0.65234 3.8555,2.63086 3.8554,2.63086 1.6661,5.625 1.664,5.62499 0.019,10.0625 0.02,10.0625 1.3652,1.36524 1.3652,1.36523 -1.3378,2.50195 c -0.7365,1.37627 -2.2487,7.76535 -3.3594,14.19727 -1.1108,6.43192 -2.539,14.22656 -3.1738,17.32031 -0.6348,3.09375 -1.4096,7.875 -1.7207,10.625 -0.3113,2.75 -1.1596,9.78125 -1.8848,15.625 -0.7251,5.84375 -1.5241,16.45011 -1.7754,23.57031 l -0.457,12.94532 -2.6602,3.59961 c -1.4632,1.97925 -3.1709,4.94065 -3.7949,6.58203 l -1.1348,2.98437 1.1016,1.10157 1.1015,1.10156 15.0372,-0.22852 c 8.2712,-0.1249 16.1851,-0.59055 17.5859,-1.03515 l 2.5469,-0.8086 28.1464,-0.41992 28.1485,-0.41992 1.8242,-1.51563 1.8262,-1.51367 -0.02,-3.28515 c -0.01,-1.80647 -0.8296,-5.53321 -1.8203,-8.28321 l -1.8007,-5 -0.1,-10.625 -0.1015,-10.625 -1.9375,-8.125 c -1.0666,-4.46875 -2.6727,-13.1875 -3.5684,-19.375 -0.8959,-6.1875 -2.4823,-14.0625 -3.5254,-17.5 -1.0431,-3.4375 -3.0849,-11.875 -4.5351,-18.75 -1.4503,-6.875 -4.5995,-20.75133 -7,-30.83594 -2.4005,-10.08459 -4.7066,-20.83293 -5.125,-23.88475 l -0.7617,-5.54883 2.1367,-3.25976 2.1367,-3.26172 8.1387,-4.55078 8.1386,-4.55079 -0.6933,-3.46289 -0.6914,-3.46093 -4.125,-6.0918 -4.125,-6.0918 0.3906,-40.02344 0.3926,-40.02343 -3.2617,-11.22657 c -1.7936,-6.17474 -3.8717,-15.16406 -4.6172,-19.97656 l -1.3555,-8.75 3.2793,-18.75 c 1.8034,-10.3125 4.1425,-21.84375 5.1992,-25.625 1.0566,-3.78125 2.5125,-12.21875 3.2344,-18.75 0.7217,-6.53125 1.4814,-13.28125 1.6875,-15 0.206,-1.71875 0.7342,-13.25 1.1738,-25.625 l 0.7988,-22.5 -2.4101,-2.8125 -2.4121,-2.8125 -5.1778,0 c -2.8479,0 -8.9443,-0.79256 -13.5488,-1.75976 -16.0813,-3.37802 -29.685,-5.67658 -37.748,-6.38086 -4.4688,-0.39032 -11.9745,-1.31008 -16.6797,-2.04297 l -8.5547,-1.33203 -1.2813,1.27929 -1.2793,1.28125 2.0098,9.16407 c 2.6595,12.12101 4.3453,24.591 5.2149,38.56445 0.3915,6.28934 1.2266,12.78787 1.8554,14.44141 0.6286,1.65354 1.4782,6.80875 1.8887,11.45703 l 0.7461,8.45312 1.7578,5 1.7559,5 1.1308,18.125 c 0.6223,9.96875 1.2918,18.6875 1.4883,19.375 0.1965,0.6875 -0.087,2.83959 -0.6309,4.78321 l -0.9902,3.5332 1.3125,2.7168 c 0.7219,1.49387 1.6367,5.06117 2.0332,7.92773 l 0.7207,5.21289 -2.5273,5.89648 -2.5293,5.89844 0.8574,2.64063 c 0.4718,1.45202 0.9305,8.02733 1.0195,14.61133 l 0.1602,11.9707 2.7734,3.52734 2.7754,3.52735 -2.3457,1.64257 -2.3476,1.64258 -0.8536,5.35938 -0.8554,5.35937 -1.8946,2.89258 -1.8925,2.89258 0.7382,3.36523 0.7403,3.36524 -3.586,4.29492 -3.5839,4.29297 -4.2618,-2.46094 -4.2597,-2.46094 -14.9746,0.0957 -14.9766,0.0957 -0.959,5.5625 -0.959,5.56445 2.1114,1.5625 2.1113,1.5625 4.1367,0 4.1348,0 0,1.72656 0,1.72657 -4.375,3.33593 -4.375,3.33789 -4.1797,-3.18945 -4.1797,-3.1875 -1.9941,0 -1.9922,0 0.2363,-3.05859 0.2344,-3.05664 -0.9375,-0.0684 c -0.5156,-0.0374 -2.2654,-0.0664 -3.8887,-0.0664 l -2.9512,0 0.5742,3.00195 0.5723,3.00196 -2.6074,0.82812 -2.6094,0.82813 -2.791,-1.95508 -2.791,-1.95508 -3.3887,0 -3.3867,0 -0.7305,2.29883 -0.7304,2.30078 -3.1856,1.70313 -3.1855,1.70507 -0.9532,-1.54101 -0.9531,-1.54297 -6.7773,0.19336 c -3.7279,0.10684 -8.3874,-0.23336 -10.3535,-0.75781 l -3.5743,-0.95508 0.7989,3.63867 0.7988,3.63867 -5.6777,1.67578 -5.6778,1.67774 -3.1601,-0.60547 -3.1602,-0.60352 -5.1074,1.75977 -5.1094,1.76172 -0.7676,-0.76758 -0.7675,-0.76758 2.1855,-1.22461 2.1856,-1.22265 -1.3028,-2.4336 -1.3027,-2.43164 1.6699,0 c 0.918,0 2.2955,0.62554 3.0606,1.39063 l 1.3906,1.39062 1.3047,-0.80664 1.3027,-0.80469 -0.7266,-1.89648 -0.7265,-1.89453 2.2207,-1.625 2.2226,-1.625 -2.6894,-2.68946 c -1.4797,-1.4796 -2.6914,-3.22557 -2.6914,-3.8789 0,-0.65334 0.9338,-1.70944 2.0742,-2.34766 l 2.0742,-1.16015 -4.8867,-4.85547 c -2.6872,-2.67079 -6.4336,-5.53959 -8.3242,-6.375 l -3.4375,-1.51953 0,-2.43946 0,-2.43945 -2.7149,-0.40039 -2.7129,-0.39844 -0.5156,-1.5625 -0.5137,-1.5625 2.545,0 c 1.4,0 3.9607,-0.64698 5.6914,-1.43555 l 3.1465,-1.43359 1.9433,1.61328 1.9414,1.61133 0.8242,-0.82422 0.8243,-0.82422 -1.4493,-1.44922 -1.4492,-1.44921 1.3731,-1.6543 1.373,-1.6543 -2.3945,0 -2.3945,0 -1.1954,-4.0625 -1.1972,-4.0625 -2.8418,-0.40429 -2.8438,-0.4043 -1.9394,-2.95899 -1.9395,-2.95898 -2.5898,-0.38672 -2.5899,-0.38672 -1.3769,-2.22461 -1.3789,-2.22265 1.875,-1.20118 1.875,-1.20117 1.875,0.78125 c 1.0313,0.42946 3,0.84483 4.375,0.92383 l 2.5,0.14453 0.4082,-2.88281 0.4101,-2.88086 -1.3691,-1.64844 -1.3672,-1.64648 0.7813,-2.0332 0.7793,-2.03321 -2.3204,-0.041 c -3.283,-0.0562 -6.3776,-2.70575 -7.9316,-6.79297 l -1.332,-3.50391 1.9375,-2.95703 1.9375,-2.95703 -3.4668,-0.0391 -3.4668,-0.0391 2.3984,-1.81445 2.3965,-1.81445 1.3535,1.10547 c 0.7439,0.60807 3.5942,1.30136 6.334,1.54101 l 4.9824,0.43555 -0.3789,-4.56055 -0.3809,-4.56055 1.2188,-0.7539 1.2168,-0.75195 -0.625,-2.39258 -0.627,-2.39258 -3.0058,-0.75586 -3.0078,-0.75391 0,-1.19336 c 0,-0.65674 1.6875,-2.0682 3.75,-3.13476 l 3.75,-1.9375 0,-1.2793 c 0,-0.70267 -1.4876,-2.65585 -3.3067,-4.3418 l -3.3086,-3.0664 2.6836,0 2.6817,0 0,-1.70508 c 0,-0.93854 -1.125,-3.13674 -2.5,-4.88476 -1.375,-1.74803 -2.5,-3.51078 -2.5,-3.91797 0,-0.40719 1.0873,-0.74219 2.416,-0.74219 l 2.416,0 0.7695,-2.42188 0.7676,-2.41992 -1.5898,-2.54883 -1.5918,-2.54687 1.5312,-1.53125 1.5313,-1.53125 0,-2.80078 0,-2.80078 -1.2852,-0.79493 -1.2832,-0.79296 -2.3574,2.9082 -2.3574,2.90625 1.2832,1.54883 1.2812,1.54687 -1.7031,0.63867 c -0.9367,0.35095 -4.7968,1.71853 -8.5781,3.03907 l -6.875,2.40039 -0.4043,1.98242 -0.4063,1.98242 2.8203,1.04102 2.8184,1.04297 -3.9531,1.3789 -3.9532,1.37891 -3.83,-3.83008 c -2.106,-2.10605 -3.6618,-3.97293 -3.459,-4.14844 0.2027,-0.1755 2.7204,-1.50539 5.5957,-2.95508 2.8751,-1.44968 5.5807,-3.20501 6.0117,-3.90234 l 0.7832,-1.26953 -1.4883,0 c -0.8189,0 -3.3353,1.14246 -5.5918,2.53711 -2.2567,1.39463 -4.6751,2.37901 -5.373,2.1875 l -1.2676,-0.34961 -1.875,2.5 -1.873,2.5 -0.9121,-2.35156 -0.9122,-2.35352 1.4903,-2.38476 1.4902,-2.38672 -0.7031,-1.13477 -0.7012,-1.13672 2.5332,-1.35742 2.5352,-1.35742 0,2.33594 c 0,1.2846 0.3687,2.70283 0.8183,3.15234 l 0.8164,0.81836 3.8711,-2.36719 3.8711,-2.36523 6.5625,0.37304 6.5625,0.37305 0,-2.36523 0,-2.36524 1.1524,0 c 0.6347,0 2.8848,-1.45646 5,-3.23633 l 3.8476,-3.23632 0,-2.38868 0,-2.38867 -1.3847,0 -1.3829,0 0.8594,-2.1875 c 0.4725,-1.20313 1.1264,-7.59914 1.4551,-14.21289 l 0.5996,-12.02539 -2.0742,-2.07227 -2.0723,-2.07226 1.2461,-1.52734 1.2442,-1.52735 0.914,-15 0.916,-15 1.168,-3.125 c 0.6431,-1.71875 2.5915,-4.61486 4.3281,-6.43555 l 3.1563,-3.31054 -1.3985,-2.61328 -1.3964,-2.61133 -3.3731,-0.84766 -3.373,-0.8457 -15.1348,1.42578 -15.1328,1.42773 -3.6445,-1.16015 c -4.9119,-1.5619 -28.7534,-5.03754 -34.5215,-5.0332 l 0,0 z m 36.5039,20.83593 0.834,0.83399 0.834,0.83398 -1.668,0 -1.666,0 0.834,-0.83398 0.832,-0.83399 z m 331.0742,11.04297 0.088,2.8125 c 0.048,1.54688 0.1326,3.22031 0.1836,3.71875 0.052,0.49844 -0.5109,1.10717 -1.25,1.35352 l -1.3437,0.44726 0.086,-1.66601 c 0.048,-0.91666 0.5712,-2.79102 1.1621,-4.16602 l 1.0742,-2.5 z m -326.625,41.875 c 0.3032,0 0.5508,0.5625 0.5508,1.25 0,0.6875 -0.5942,1.25 -1.3222,1.25 l -1.3243,0 0.7715,-1.25 c 0.4249,-0.6875 1.021,-1.25 1.3242,-1.25 z m 1.4668,3.8086 2.1661,2.39062 2.164,2.39258 -0.8222,1.32812 -0.8204,1.33008 -2.4257,0 -2.4278,0 0,-3.05273 0,-3.05078 1.084,-0.66993 1.082,-0.66796 z m -37.0918,2.4414 1.3243,0 -0.7735,1.25 c -0.4249,0.6875 -1.019,1.25 -1.3222,1.25 -0.3032,0 -0.5528,-0.5625 -0.5528,-1.25 0,-0.6875 0.5963,-1.25 1.3242,-1.25 z m 47.2793,5 2.5743,0 2.5722,0 0,1.25 0,1.25 -1.8008,0 c -0.9906,0 -2.1493,-0.5625 -2.5742,-1.25 l -0.7715,-1.25 z m -14.8535,8.33203 0.834,0.83399 0.834,0.83398 -1.668,0 -1.666,0 0.834,-0.83398 0.832,-0.83399 z m 14.836,0.41797 4.457,0 4.457,0 0,0.97071 c 0,0.5347 -1.1308,1.94094 -2.5136,3.125 -2.5253,2.1621 -3.2378,2.27035 -8.4239,1.27148 l -2.8125,-0.54102 0,-1.11914 c 0,-0.61549 1.0881,-1.70238 2.418,-2.41406 l 2.418,-1.29297 z m -38.586,2.5 1.875,0 1.875,0 0,1.25 0,1.25 -1.875,0 -1.875,0 0,-1.25 0,-1.25 z m 46.3672,23.44922 0.6914,0.69141 0.6934,0.6914 -0.8242,1.33399 c -1.004,1.62463 -3.1881,1.68346 -5.6114,0.15039 l -1.8105,-1.14453 3.4316,-0.86133 3.4297,-0.86133 z m -37.7637,2.80078 1.3243,0 c 0.7281,0 1.3222,0.5625 1.3222,1.25 0,0.6875 -0.2475,1.25 -0.5508,1.25 -0.3031,0 -0.8993,-0.5625 -1.3242,-1.25 l -0.7715,-1.25 z m 27.1739,16.42383 c 1.0761,0.0273 1.9839,0.13696 2.4668,0.32227 l 1.7558,0.67382 0,1.91602 0,1.91406 -3.125,0 -3.125,0 0,-1.10547 c 0,-0.60731 -1.2656,-1.53625 -2.8125,-2.06445 l -2.8125,-0.96094 4.1817,-0.52343 c 1.1499,-0.14396 2.3945,-0.19913 3.4707,-0.17188 z m -13.168,8.26562 0.8477,0.84766 0.8457,0.84766 -1.8379,1.16406 c -2.4197,1.53031 -3.7149,1.49775 -3.7149,-0.0898 0,-0.70909 0.8688,-1.6222 1.9297,-2.0293 l 1.9297,-0.74024 z m 118.7227,52.7129 -6.334,0.83984 -6.3321,0.83984 2.0821,2.30274 c 1.1455,1.26575 3.1738,2.6469 4.5078,3.07031 l 2.4258,0.76953 -0.6289,1.64063 -0.6289,1.63867 0.746,0.74804 c 1.2156,1.21565 2.5309,0.86937 4.6172,-1.21679 l 1.9629,-1.96485 0,-3.58593 0,-3.58789 -1.209,-0.7461 -1.2089,-0.74804 z m -112.5821,20.09765 1.875,0 1.875,0 0,1.25 0,1.25 -1.875,0 -1.875,0 0,-1.25 0,-1.25 z m 38.75,0.83203 -0.832,0.83399 -0.834,0.83398 1.666,0 1.668,0 -0.834,-0.83398 -0.834,-0.83399 z m 30.3477,12.91797 0.5976,3.125 0.5977,3.125 1.1035,0 c 0.6073,0 1.1035,-0.51717 1.1035,-1.14844 0,-0.63127 0.3424,-2.03752 0.7598,-3.125 l 0.7578,-1.97656 -2.459,0 -2.4609,0 z m 27.3008,0 -0.6641,1.07422 -0.666,1.07617 0.7383,0.73828 c 0.8016,0.80163 6.8867,0.82892 11.3808,0.0508 l 2.8125,-0.48828 0,-1.22656 0,-1.22461 -6.8008,0 -6.8007,0 z m -4.9121,6.24219 -2.7618,1.02148 -2.7597,1.02149 1.9472,1.94726 1.9473,1.94727 3.5078,-0.56641 c 1.9295,-0.3116 4.3049,-0.82032 5.2793,-1.13086 l 1.7715,-0.56445 -1.2539,-1.25586 c -0.6901,-0.69011 -2.7002,-1.51562 -4.4668,-1.83594 l -3.2109,-0.58398 z m -40.8008,10.00781 c -0.999,0 -3.2815,0.66544 -5.0703,1.48047 l -3.252,1.48242 2.8809,1.59961 c 1.5845,0.87936 3.1902,1.61818 3.5683,1.64258 1.2604,0.0812 3.6875,-2.93318 3.6875,-4.58008 l 0,-1.625 -1.8144,0 z m -9.4356,23.75 1.9492,0 1.9493,0 -0.7735,1.25 c -0.4249,0.6875 -1.3003,1.25 -1.9472,1.25 -0.647,0 -1.1778,-0.5625 -1.1778,-1.25 l 0,-1.25 z m 26.4121,80.27538 -2.58,1.8086 -2.5821,1.80664 0,2.58984 0,2.58984 6.541,-0.86718 c 3.5968,-0.47715 6.7814,-1.10763 7.0762,-1.40235 0.8949,-0.89487 -3.622,-5.26156 -6.1172,-5.91406 l -2.3379,-0.61133 z m 3.752,54.55274 -4.1328,0.39843 -4.1348,0.39844 -0.3828,2.02539 -0.3848,2.02539 2.8731,0.89844 c 1.5801,0.49386 9.0605,1.62433 16.623,2.51367 15.4114,1.81235 20.7959,1.98068 26.2364,0.81641 l 3.7343,-0.79883 0.3985,-2.07226 0.3984,-2.07032 -2.2578,-0.67383 c -1.2422,-0.37023 -9.8536,-0.80086 -19.1348,-0.95703 l -16.875,-0.2832 -1.4804,-1.10938 -1.4805,-1.11132 z m -10.2344,23.45508 -2.039,2.03906 -2.0391,2.04101 -0.1133,5.38086 -0.1133,5.38086 11.5762,0.11719 11.5762,0.11719 0.9238,0.93554 0.9238,0.9375 4.375,-0.71484 c 9.3519,-1.52906 15.2487,-3.01832 16.3594,-4.12891 l 1.1602,-1.1582 0.3027,-4.92773 0.3027,-4.92774 -14.375,-0.4375 c -7.9062,-0.24006 -17.6254,-0.48492 -21.5976,-0.54492 l -7.2227,-0.10937 z m 72.9531,94.99219 c -10.8307,-0.14643 -37.535,2.42771 -41.6328,4.01367 l -3.125,1.20899 1.875,0.70312 c 1.0313,0.38612 3.8438,0.86414 6.25,1.0625 2.4062,0.19838 12.3952,0.53757 22.1953,0.75391 l 17.8184,0.39258 3.8398,-2.73438 3.8399,-2.73437 -1.2754,-1.27539 -1.2773,-1.27735 -8.5079,-0.11328 z"
       id="path13896" />
  </g>
</svg>
