<?xml version="1.0" encoding="UTF-8" standalone="no"?>
<!-- Created with Inkscape (http://www.inkscape.org/) -->

<svg
   xmlns:dc="http://purl.org/dc/elements/1.1/"
   xmlns:cc="http://creativecommons.org/ns#"
   xmlns:rdf="http://www.w3.org/1999/02/22-rdf-syntax-ns#"
   xmlns:svg="http://www.w3.org/2000/svg"
   xmlns="http://www.w3.org/2000/svg"
   xmlns:sodipodi="http://sodipodi.sourceforge.net/DTD/sodipodi-0.dtd"
   xmlns:inkscape="http://www.inkscape.org/namespaces/inkscape"
   width="210mm"
   height="297mm"
   viewBox="0 0 744.09448819 1052.3622047"
   id="svg4143"
   version="1.1"
   inkscape:version="0.91 r13725"
   sodipodi:docname="I.svg">
  <defs
     id="defs4145" />
  <sodipodi:namedview
     id="base"
     pagecolor="#ffffff"
     bordercolor="#666666"
     borderopacity="1.0"
     inkscape:pageopacity="0.0"
     inkscape:pageshadow="2"
     inkscape:zoom="0.35"
     inkscape:cx="-145"
     inkscape:cy="520"
     inkscape:document-units="px"
     inkscape:current-layer="layer1"
     showgrid="false"
     inkscape:window-width="1920"
     inkscape:window-height="1055"
     inkscape:window-x="0"
     inkscape:window-y="25"
     inkscape:window-maximized="1" />
  <metadata
     id="metadata4148">
    <rdf:RDF>
      <cc:Work
         rdf:about="">
        <dc:format>image/svg+xml</dc:format>
        <dc:type
           rdf:resource="http://purl.org/dc/dcmitype/StillImage" />
        <dc:title></dc:title>
      </cc:Work>
    </rdf:RDF>
  </metadata>
  <g
     inkscape:label="Layer 1"
     inkscape:groupmode="layer"
     id="layer1">
    <path
       inkscape:connector-curvature="0"
       style="fill:#000000"
       d="m 358.24501,241.80719 -1.8516,1.16992 -1.8496,1.16992 6.875,0.14453 c 3.7812,0.079 8.2812,0.59409 10,1.14453 l 0,-0.002 c 4.0226,1.28837 5.0898,1.29489 8.125,0.0469 l 2.5,-1.02734 -1.875,-0.6543 c -1.0313,-0.35973 -6.3864,-0.95439 -11.9004,-1.32226 l -10.0234,-0.66992 z m 37.0722,1.1289 -1.0117,0.0879 c -0.5562,0.0483 -2.1367,0.57125 -3.5117,1.16211 l 0,-0.002 -2.5,1.07617 2.7402,0.0879 2.7383,0.0879 0.7715,-1.25 0.7734,-1.25 z m -83.207,27.70313 -4.9316,1.69922 -4.9317,1.69726 -3.3711,-0.67383 -3.373,-0.67383 -0.7832,3.11719 -0.7813,3.11524 2.041,4.82031 c 1.1232,2.65016 2.4473,6.55798 2.9414,8.68555 l 0.8985,3.86914 -1.0508,23.63086 -1.0527,23.63281 -1.9004,13.125 c -1.0454,7.21875 -2.4809,16.78125 -3.1914,21.25 l -1.293,8.125 0.582,2.29883 c 0.3199,1.26503 0.103,5.48378 -0.4824,9.375 -0.5855,3.89121 -1.3747,16.91995 -1.7539,28.95115 -0.3792,12.0313 -1.2643,37.0625 -1.9668,55.625 -0.7025,18.5625 -1.8588,57.9375 -2.5684,87.5 -0.7097,29.5625 -1.5535,57.4063 -1.875,61.875 -0.3215,4.4688 -1.1566,17.2071 -1.8574,28.3086 l -1.2754,20.1856 1.1719,3.082 1.1719,3.082 2.0508,0.7871 2.0507,0.7871 -0.7597,1.2286 c -0.4178,0.6759 -1.0624,6.3974 -1.4317,12.7148 -0.3693,6.3173 -1.3662,15.1895 -2.2148,19.7168 l -1.543,8.2324 0.7598,3.125 0.7598,3.125 4.3222,0.625 c 2.3773,0.3437 16.1348,0.5728 30.5723,0.5078 l 26.25,-0.1172 7.1797,-0.9941 7.1797,-0.9941 1.1972,-1.4434 c 0.6591,-0.7943 2.3712,-6.709 3.8047,-13.1445 1.4335,-6.4357 2.8906,-12.1596 3.2363,-12.7188 0.6424,-1.0395 1.1822,-15.0048 2.4102,-62.2148 0.3826,-14.7099 1.0104,-27.2537 1.3945,-27.875 0.384,-0.6214 1.2494,-6.0227 1.9219,-12.0039 0.6724,-5.9812 1.7402,-15.375 2.3731,-20.875 0.6328,-5.5 1.7236,-17.5938 2.4238,-26.875 1.6275,-21.5707 4.4193,-53.3433 6.0976,-69.375 0.7197,-6.875 1.989,-18.9688 2.8204,-26.875 l 1.5117,-14.375 -0.3535,-18.125 c -0.1945,-9.9688 -0.2909,-20.93753 -0.2149,-24.37503 0.076,-3.4375 0.4074,-24.53125 0.7363,-46.875 0.3289,-22.34375 0.837,-43.15625 1.1289,-46.25 0.894,-9.47698 3.2188,-29.1169 4.0176,-33.93945 l 0.7559,-4.56445 -2.3106,-0.5918 c -1.2705,-0.32534 -5.123,-0.78082 -8.5605,-1.01172 -6.7458,-0.45315 -41.8226,-0.37386 -50,0.11328 -2.75,0.16383 -8.3596,-0.006 -12.4668,-0.37695 l -7.4668,-0.67383 0,-0.002 z m -63.8164,88.41406 -0.4316,2.08398 -0.4317,2.08594 1.6817,-0.56055 c 1.9464,-0.64878 2.287,-3.44496 0.4316,-3.54296 l -1.25,-0.0664 z m -0.9395,11.47656 c -0.4284,-0.0622 -1.2636,1.69219 -2.1367,4.73633 l -1.123,3.91992 1.0176,0 c 1.0471,0 2.511,-4.26133 2.541,-7.39648 0.01,-0.82842 -0.1041,-1.2315 -0.2989,-1.25977 z m -4.2636,16.15625 -1.5332,5.9375 -1.5332,5.9375 -0.3399,11.25003 c -0.1876,6.1875 -0.7898,13.7813 -1.3379,16.875 l -0.9961,5.625 1.1914,-1.25 c 1.8359,-1.9244 3.9301,-10.4349 4.6543,-18.916 0.3599,-4.21605 1.3208,-10.15591 2.1348,-13.19926 l 1.4805,-5.53321 -0.8457,-3.36328 c -0.4643,-1.85003 -1.3008,-3.36328 -1.8594,-3.36328 l -1.0156,0 z m -8.9766,38.12503 -1.2246,1.25 c -1.7965,1.8333 -5.2207,12.6821 -5.2207,16.5429 l 0,3.3321 0.9961,-1.1875 c 1.3511,-1.6127 3.587,-8.8577 4.6094,-14.9375 l 0.8398,-5 z m 2.3848,13.125 0.7187,1.875 c 0.3957,1.0313 0.9408,1.875 1.211,1.875 0.2702,0 0.4902,-0.8437 0.4902,-1.875 l 0,-1.875 -1.209,0 -1.2109,0 z m -6.3301,109.791 0,4.584 0,0 0,4.582 1.5625,-0.5234 1.5625,-0.5215 -0.059,-3.5606 -0.059,-3.5586 -1.5039,-0.5 -1.5059,-0.5019 z m 1.25,28.8105 -1.25,0.7735 -1.25,0.7715 0.088,3.3632 0.088,3.3653 1.0742,-2.5 c 0.5909,-1.375 1.1141,-3.2368 1.1621,-4.1367 l 0.088,-1.6368 z m 0,149.6465 -1.1094,1.1875 c -0.6102,0.6532 -1.4828,2.5938 -1.9394,4.3125 l -0.8301,3.125 1.9394,-2.4277 c 1.0668,-1.3347 1.9395,-3.2753 1.9395,-4.3125 l 0,-1.8848 z"
       id="path12392" />
  </g>
</svg>
