<?xml version="1.0" encoding="UTF-8" standalone="no"?>
<!-- Created with Inkscape (http://www.inkscape.org/) -->

<svg
   xmlns:dc="http://purl.org/dc/elements/1.1/"
   xmlns:cc="http://creativecommons.org/ns#"
   xmlns:rdf="http://www.w3.org/1999/02/22-rdf-syntax-ns#"
   xmlns:svg="http://www.w3.org/2000/svg"
   xmlns="http://www.w3.org/2000/svg"
   xmlns:sodipodi="http://sodipodi.sourceforge.net/DTD/sodipodi-0.dtd"
   xmlns:inkscape="http://www.inkscape.org/namespaces/inkscape"
   width="210mm"
   height="297mm"
   viewBox="0 0 744.09448819 1052.3622047"
   id="svg4143"
   version="1.1"
   inkscape:version="0.91 r13725"
   sodipodi:docname="J-2.svg">
  <defs
     id="defs4145" />
  <sodipodi:namedview
     id="base"
     pagecolor="#ffffff"
     bordercolor="#666666"
     borderopacity="1.0"
     inkscape:pageopacity="0.0"
     inkscape:pageshadow="2"
     inkscape:zoom="0.35"
     inkscape:cx="-145"
     inkscape:cy="520"
     inkscape:document-units="px"
     inkscape:current-layer="layer1"
     showgrid="false"
     inkscape:window-width="1920"
     inkscape:window-height="1055"
     inkscape:window-x="0"
     inkscape:window-y="25"
     inkscape:window-maximized="1" />
  <metadata
     id="metadata4148">
    <rdf:RDF>
      <cc:Work
         rdf:about="">
        <dc:format>image/svg+xml</dc:format>
        <dc:type
           rdf:resource="http://purl.org/dc/dcmitype/StillImage" />
        <dc:title></dc:title>
      </cc:Work>
    </rdf:RDF>
  </metadata>
  <g
     inkscape:label="Layer 1"
     inkscape:groupmode="layer"
     id="layer1">
    <path
       inkscape:connector-curvature="0"
       style="fill:#000000"
       d="m 481.25774,193.79272 -7.0665,4.6875 c -13.2685,8.8013 -14.9018,9.9823 -16.5488,11.9668 l -1.6484,1.9843 0.8066,1.3047 0.8067,1.3047 3.9882,0 c 2.1939,-6e-4 7.9258,-0.8108 12.7383,-1.8008 4.8125,-0.99 11.5031,-2.1121 14.8672,-2.4941 l 6.1172,-0.6953 1.8887,-1.5664 c 2.3182,-1.9224 5.2519,-8.7114 5.2519,-12.1524 l 0,-2.539 -10.5996,0 z m 20.9648,34.8535 -3.8848,0.8516 -3.8847,0.8535 -5.2969,5.2968 -5.2949,5.295 1.4238,1.4238 1.4238,1.4258 4.1699,0 4.17,0 3.0175,-1.9785 3.0176,-1.9766 1.4024,-4.2481 1.4004,-4.248 -0.8321,-1.3477 z m -7.2637,38.8965 0,1.25 0,1.25 1.8028,0 c 0.9906,0 2.1474,-0.5625 2.5722,-1.25 l 0.7735,-1.25 -2.5743,0 z m -230.5898,19.375 -0.4649,2.416 -0.4668,2.418 2.2735,1.6621 c 1.2502,0.914 2.8589,1.467 3.5742,1.2285 l 1.2988,-0.4336 0,-3.6465 0,-3.6445 -3.1074,0 z m 26.9883,0.625 -0.8164,1.3203 -0.8164,1.3203 0.7167,2.7422 c 0.3943,1.5079 1.8456,4.5703 3.2247,6.8047 1.3791,2.2344 2.991,4.0625 3.582,4.0625 1.9465,0 4.8552,-4.3076 5.6055,-8.2989 l 0.7382,-3.9218 -2.2265,-2.0157 -2.2266,-2.0136 -3.8906,0 z m 37.1347,0.9668 -1.2832,1.2832 -1.2812,1.2812 0.8398,1.3594 c 0.462,0.7474 1.65,1.3594 2.6406,1.3594 l 1.8008,0 0,-1.8028 c 0,-0.9907 -0.6101,-2.1786 -1.3574,-2.6406 z m 142.0938,4.0039 -29.4102,0.014 -29.4082,0.016 -2.7793,1.9453 -2.7773,1.9453 -0.02,3.9922 c -0.01,2.1953 -0.8149,6.279 -1.789,9.0742 -0.9742,2.7951 -2.0546,7.2951 -2.4004,10 -0.346,2.7048 -1.198,7.1526 -1.8926,9.8848 l -1.2617,4.9668 -0.3809,36.2832 c -0.7422,70.6852 0.5918,208.0515 2.1778,224.1465 l 0.8301,8.41992 -2.4727,4.3574 -2.4746,4.3594 -1.4922,11.25 -1.4922,11.25 -4.1484,12.5 c -2.2819,6.875 -5.1882,14.2931 -6.459,16.4863 l -2.3106,3.9883 -5.5195,1.3906 -5.5215,1.3887 -7.5215,7.5703 -7.5234,7.5683 -5.7266,2.4727 -5.7285,2.4746 -6.5136,0.6875 -6.5157,0.6875 -7.8593,-2.918 c -4.3228,-1.6042 -12.0801,-4.9894 -17.2364,-7.5234 l -9.375,-4.6074 -3.2871,-3.293 -3.289,-3.2929 -0.545,-7.5157 -0.5429,-7.5156 -2.1075,-2.1094 -2.1093,-2.1074 -13.7032,6.834 -13.7011,6.834 -0.045,2.1875 -0.045,2.1875 -1.8008,0 c -0.9906,0 -2.1493,-0.5625 -2.5742,-1.25 l -0.7715,-1.25 -3.7265,0 -3.7266,0 -4.6953,2.3945 c -2.5826,1.3177 -6.9187,2.7998 -9.6367,3.293 -4.1261,0.7483 -11.1427,3.4859 -12.9004,5.0332 -0.252,0.2219 0.68,3.3832 2.0703,7.0273 1.3902,3.6438 3.1663,9.7208 3.9473,13.502 0.7811,3.7813 2.0637,9.125 2.8515,11.875 l 1.4336,5 9.545,9.375 9.5468,9.375 8.0039,4.6875 8.002,4.6875 4.5644,0 4.5625,0 1.6309,1.9648 c 0.8976,1.0814 5.0458,3.5384 9.2168,5.459 4.171,1.9207 13.1606,7.2227 19.9766,11.7832 6.8158,4.5603 12.8627,8.293 13.4375,8.293 l 1.0429,0 0,-1.959 0,-1.957 3.3418,0.3945 3.3418,0.3965 0.5117,1.5625 0.5137,1.5625 -2.084,0 -2.082,0 0.5215,1.5625 0.5215,1.5625 6.1445,0.166 c 8.9575,0.244 20.7185,1.4899 21.5059,2.2773 l 0.6816,0.6817 -2.084,0 -2.084,0 0,1.3945 0,1.3945 8.4375,-0.9023 c 4.6406,-0.4965 12.6464,-1.9778 17.791,-3.293 l 9.3536,-2.3926 1.6777,-1.6757 1.6758,-1.6778 -3.9961,-0.7988 -3.9961,-0.7988 1.5566,-1.875 1.5567,-1.877 2.7324,0 2.7324,0 2.4277,1.836 c 1.3345,1.0094 3.588,1.854 5.0098,1.875 l 2.5859,0.041 5.2266,-4.0176 5.2285,-4.0176 0,-1.6074 0,-1.6074 -3.125,0 -3.125,0 0,-1.875 0,-1.875 7.8125,-0.027 7.8125,-0.027 3.125,-2.4453 c 1.7187,-1.3444 3.491,-2.4557 3.9375,-2.4707 0.4465,-0.015 3.7369,-1.998 7.3125,-4.4043 3.5756,-2.4062 7.2734,-4.375 8.2168,-4.375 0.9434,0 4.8229,-1.4722 8.6231,-3.2715 l 6.9101,-3.2715 0,-1.1328 c 0,-0.624 1.3228,-1.6393 2.9395,-2.2539 l 2.9394,-1.1172 2.7559,-5.8633 2.7578,-5.8652 -0.3789,-2.8926 -0.3789,-2.8906 2.625,-2.9082 c 2.6605,-2.9461 5.4513,-8.054 10.3105,-18.8789 l 2.6797,-5.9707 0,-4.0918 0,-4.0918 1.1797,-1.1875 c 0.6493,-0.6531 1.9893,-4.8437 2.9766,-9.3125 0.9873,-4.4687 2.4161,-9.8125 3.1758,-11.875 0.7595,-2.0625 2.5907,-7.8245 4.0703,-12.8047 l 2.6914,-9.0547 -0.6387,-7.9473 -0.6367,-7.9453 1.2988,-2.3222 1.2988,-2.3223 0.3457,-22.55272 0.3457,-22.5508 -4.9296,-2.0938 -4.9278,-2.0957 0,-1.9668 0,-1.9687 1.8008,0 c 0.9907,0 2.1493,0.5625 2.5742,1.25 0.4249,0.6875 1.5278,1.25 2.4512,1.25 l 1.6797,0 1.123,-3.4375 1.125,-3.4375 -0.3711,-8.75 c -0.2034,-4.8125 -0.628,-19.6901 -0.9453,-33.0625 l -0.5781,-24.3145 1.3477,-1.623 1.3496,-1.625 -1.545,-1.8614 -1.5449,-1.8613 -1.1094,0.6856 -1.1074,0.6855 0,-1.3242 0,-1.3242 1.875,0 1.875,0 0.2442,-5.9356 c 0.1342,-3.2656 0.4259,-7.9062 0.6484,-10.3125 0.2225,-2.4062 0.6747,-33.481 1.0059,-69.0547 l 0.6035,-64.6797 1.873,-13.3496 c 1.0307,-7.3429 1.875,-14.567 1.875,-16.0527 l 0,-2.7012 -15.3125,-1.4707 -15.3125,-1.4707 0,0 z m -36.0313,66.2676 3.9532,1.9726 c 2.1741,1.0847 3.9511,2.4918 3.9511,3.1289 0,1.627 -1.4773,1.3791 -4.2383,-0.7109 -1.3006,-0.9847 -2.9881,-2.0147 -3.75,-2.2891 l -1.3867,-0.498 0.7364,-0.8028 z m -196.3164,8.7617 c -0.947,0 -2.2684,0.7031 -2.9355,1.5625 -1.4626,1.8843 -5.7415,9.9248 -8.4824,15.9375 -1.0969,2.4063 -3.638,7.1875 -5.6465,10.625 -2.0085,3.4375 -4.1983,7.4716 -4.8653,8.9648 -0.6671,1.4932 -3.119,5.4307 -5.4492,8.75 -3.8611,5.4997 -9.6504,15.8902 -9.6504,17.3223 0,0.3226 0.7691,0.5879 1.709,0.5879 l 1.709,0 3.5039,-5.3125 c 1.9271,-2.9219 7.4861,-10.0326 12.3535,-15.8008 4.8674,-5.7681 10.7127,-12.7814 12.9883,-15.584 l 4.1367,-5.0957 -0.5703,-2.1816 -0.5703,-2.1836 1.7441,-1.4493 1.7461,-1.4492 0,-7.3476 0,-7.3457 z m 206.7207,43.75 0,1.248 c 0,1.5639 -1.3276,1.5634 -3.75,0 l -1.875,-1.2109 2.8125,-0.02 2.8125,-0.017 z m -209.5781,12.498 -4.0508,5.9375 c -2.2279,3.2656 -5.9793,8.7441 -8.3359,12.1738 l -4.2852,6.2364 0,2.7519 0,2.7539 -1.25,0.7715 -1.25,0.7735 0,3.3222 c 0,3.9112 3.6739,14.231 5.5625,15.627 l 1.3125,0.9707 3.7344,-0.6875 3.7324,-0.6856 1.7852,-1.7851 1.7851,-1.7832 -1.5273,-1.8399 -1.5274,-1.8398 2.4317,0.6348 2.4297,0.6367 0.8418,-1.3633 0.8418,-1.3613 0.6172,-20.6211 0.6191,-20.6231 -1.7344,0 z m 229.9121,96.2207 1.709,1.418 c 0.9398,0.78 1.707,2.1936 1.707,3.1406 l 0,1.7227 -2.8125,-0.1328 c -1.5468,-0.073 -4.5,-1.0255 -6.5625,-2.1153 l -3.75,-1.9804 4.8555,-1.0254 z m -25.334,22.5313 1.7227,0 c 0.947,0 2.3805,0.7935 3.1855,1.7636 l 1.4649,1.7637 -1.0254,0.6328 -1.0254,0.6328 -2.1602,-1.2089 c -1.1884,-0.6651 -2.1621,-1.7432 -2.1621,-2.3965 z m 17.6992,4.375 0,0 0,0 0.6543,1.6367 0.6562,1.6406 -0.7539,0.7539 -0.7558,0.7559 0.1,-2.3965 0.1,-2.3906 0,0 z m 13.5508,31.375 1.4805,1.4785 c 0.8133,0.8136 1.1873,1.7699 0.832,2.125 -0.8342,0.8343 -2.3125,-0.644 -2.3125,-2.3125 z m -43.75,3.832 0.834,0.834 0.834,0.834 -1.668,0 -1.666,0 0.834,-0.834 z m 48.125,1.668 1.875,0 0,1.875 c 0,1.952 -1.4777,2.4794 -2.916,1.041 -1.4384,-1.4382 -0.911,-2.916 1.041,-2.916 z m -54.2265,5 2.9765,0 2.9785,0 0.7012,1.1328 0.7012,1.1347 -0.9942,2.6876 -0.9941,2.6855 -3.3945,-2.6699 -3.3965,-2.6719 0.7109,-1.1504 z m 39.8515,0.832 0.834,0.834 0.834,0.834 -1.668,0 -1.666,0 0.834,-0.834 z m -20.625,5.6406 1.5528,1.2813 1.5507,1.2832 3.7618,-0.5528 3.7597,-0.5527 0,1.8242 0,1.8223 -5.1426,-0.6895 -5.1425,-0.6894 -0.627,2.4004 -0.6289,2.40042 -2.0937,0 -2.0938,0 -1.873,-4.13482 -1.875,-4.1348 4.4257,-0.1289 z m -28.125,0.8672 4.0196,0.3926 4.0175,0.3926 0.8243,4.0625 0.8242,4.06252 -0.7793,-0.1641 c -0.4288,-0.089 -2.6094,-1.0336 -4.8438,-2.09962 l -4.0625,-1.9375 0,-2.3535 z m 45,1.4121 1.5977,0 c 0.8783,0 2.8375,0.8698 4.3535,1.9317 l 2.7559,1.9297 2.4394,-1.3047 c 1.3419,-0.7181 2.8981,-1.3028 3.459,-1.3028 l 1.0195,0 0.1348,3.7461 0.1328,3.74812 -1.1523,0 c -0.634,0 -2.2425,-0.5831 -3.5723,-1.2949 l -2.418,-1.295 0,1.295 0,1.2949 -1.7207,0 c -0.947,0 -2.3856,0.7977 -3.1953,1.7734 l -1.4726,1.7734 2.0742,1.1602 2.0722,1.1602 -0.4511,2.3789 -0.4512,2.3789 -3.7402,0.3047 -3.7403,0.3066 -2.7871,-2.3613 -2.7871,-2.3594 1.8438,-1.5313 1.8437,-1.5292 2.3867,0.625 2.3867,0.623 0.5508,-4.5391 0.5489,-4.53902 -1.0547,-0.416 c -0.5804,-0.2293 -1.0567,-1.2137 -1.0567,-2.1875 z m 18.75,0.8301 0.834,0.834 0.834,0.834 -1.668,0 -1.666,0 0.834,-0.834 z m -9.0742,8.92192 2.3496,0.4472 2.3496,0.4493 0.4004,2.7988 0.3985,2.8008 -1.7227,0 c -0.9477,0 -2.6628,-0.7031 -3.8125,-1.5625 l -2.0918,-1.5625 1.0645,-1.6856 z m -39.0508,1.4961 1.875,0 0,1.1758 c 0,0.6469 -0.4826,1.4741 -1.0742,1.8398 l -1.0762,0.666 -0.7988,-0.8008 c -1.4077,-1.4076 -0.8588,-2.8808 1.0742,-2.8808 z m 49.375,1.25 1.875,0 1.875,0 0,1.25 0,1.25 -1.875,0 -1.875,0 0,-1.25 z m -70,0.832 0.834,0.834 0.834,0.834 -0.834,0.832 -0.834,0.834 0,-1.666 z m 28.75,0.1113 1.875,1.5567 c 1.0313,0.8559 1.875,1.7678 1.875,2.0273 0,0.2596 -0.8437,0.4727 -1.875,0.4727 l -1.875,0 0,-2.0293 z m -21.25,0.1407 3.4278,0.3945 3.4277,0.3965 0.4141,2.1855 0.414,2.1856 -1.6543,-0.037 c -2.3994,-0.055 -6.0293,-2.3776 -6.0293,-3.8575 l 0,-1.2675 z m 20.3125,6.1601 2.6563,1.2227 c 5.0279,2.313 9.6511,4.0332 10.8398,4.0332 l 1.1914,0 0,-1.7305 0,-1.7285 3.4375,0.2598 c 1.8907,0.1425 4.8438,0.8746 6.5625,1.6269 1.7188,0.7523 4.25,1.7938 5.625,2.3145 l 2.5,0.9472 -2.957,0.5098 -2.9551,0.5117 -1.3574,-1.3555 -1.3555,-1.3554 -3.291,0 c -1.8105,0 -3.5873,0.2944 -3.9473,0.6543 -0.3594,0.3599 -0.3951,2.0022 -0.08,3.6504 l 0.5722,2.9961 3.7793,1.5644 3.7774,1.5664 -1.8477,1.3516 c -1.0165,0.7434 -2.2246,2.534 -2.6836,3.9804 l -0.834,2.6289 -14.1152,-0.1347 -14.1152,-0.1348 -3.3575,-1.1777 c -1.8464,-0.6484 -3.3574,-1.6072 -3.3574,-2.1309 l 0,-0.9531 4.6875,-0.7773 c 6.5794,-1.0935 7.8125,-1.5741 7.8125,-3.045 l 0,-1.291 -2.1875,-0.1953 c -1.2031,-0.109 -3.0031,-0.1523 -4,-0.098 -2.3871,0.1311 -8.8125,-3.2227 -8.8125,-4.5997 l 0,-1.0781 4.5196,-0.8476 4.5175,-0.8477 2.75,2.584 2.75,2.584 4.4493,0 c 2.4479,0 6.209,-0.3516 8.3574,-0.7813 l 3.9062,-0.7812 0,-1.25 0,-1.25 -3.5371,0.707 -3.5351,0.707 -4.6289,-1.5918 c -2.5458,-0.8751 -5.2335,-2.1962 -5.9727,-2.9355 l -1.3438,-1.3438 2.7891,-1.4921 2.791,-1.4942 z m -201.3945,6.2539 -1.3535,0.8379 -1.3535,0.8359 0.7851,1.2715 0.7871,1.2735 1.3379,-1.3379 1.3379,-1.3379 -0.7715,-0.7715 z m 210.7773,9 -2.0351,0.041 -2.0352,0.039 2.4278,1.8359 c 1.3346,1.0093 2.9496,1.834 3.5898,1.834 l 1.1641,0 -1.5567,-1.875 -1.5547,-1.875 z m 17.8047,9.584 0.834,0.834 0.834,0.834 -1.668,0 -1.666,0 0.834,-0.834 z m -158.1347,4.5703 c -0.047,-0.01 -0.092,-0.01 -0.1348,0 -0.049,0.013 -0.094,0.039 -0.1348,0.08 -0.3276,0.3277 -0.2248,1.1964 0.2285,1.9297 1.2327,1.9942 1.9528,1.607 1.1075,-0.5957 -0.3117,-0.8122 -0.737,-1.3554 -1.0664,-1.418 z m 145.2871,5.9121 0,0 0.7988,0.8008 c 0.4396,0.4396 0.7988,1.2668 0.7988,1.8398 0,1.4096 -2.1769,1.3226 -3.0703,-0.123 l -0.7187,-1.1641 1.0957,-0.6777 1.0957,-0.6778 z m -12.1524,8.6856 1.875,0 1.875,0 0,1.25 0,1.25 -1.875,0 -1.875,0 0,-1.25 z m 8.1387,1.0625 4.9941,0.4062 4.9922,0.4063 0.4004,2.8125 0.3985,2.8125 -2.3672,0 -2.3692,0 -3.0254,-3.2188 z m -19.3887,10.1875 3.75,0 3.75,0 0,1.25 0,1.25 -3.75,0 -3.75,0 0,-1.25 z m 22.2676,0.416 c 0.9164,-0.076 2.0699,0.3904 3.4082,1.4023 l 2.4492,1.8535 -4.166,0.039 -4.166,0.041 0.4941,-1.4844 c 0.385,-1.155 1.0641,-1.7736 1.9805,-1.8496 l 0,0 z m 23.9824,0.834 c 0.6875,0 1.25,0.5625 1.25,1.25 0,0.6875 -0.5625,1.25 -1.25,1.25 -0.6875,0 -1.25,-0.5625 -1.25,-1.25 0,-0.6875 0.5625,-1.25 1.25,-1.25 z m -105,3.75 1.1699,0 c 0.6427,0 2.7521,0.6438 4.6875,1.4316 l 3.5176,1.4336 3.3145,-0.2637 3.3144,-0.2656 0.7676,1.2461 0.7695,1.2441 -0.957,0.5391 c -0.5269,0.2962 -2.4698,0.8985 -4.3183,1.3399 l -3.3614,0.8027 -0.6758,-1.0918 c -0.3717,-0.6011 -2.3742,-1.4343 -4.4511,-1.8496 l -3.7774,-0.7539 0,-1.9063 z m 37.8184,2.2402 1.0097,1.6328 c 0.5548,0.8975 0.7297,2.0804 0.3907,2.6289 -0.8568,1.3862 -5.164,1.2517 -6.0547,-0.1894 l -0.7324,-1.1875 2.6933,-1.4414 z m 23.4316,2.7598 c 0.6875,0 1.25,0.5625 1.25,1.25 0,0.6875 -0.5625,1.25 -1.25,1.25 -0.6875,0 -1.25,-0.5625 -1.25,-1.25 0,-0.6875 0.5625,-1.25 1.25,-1.25 z m 15.3731,0.1367 3.5644,0.7129 c 1.9603,0.3921 3.5625,1.1492 3.5625,1.6836 0,0.5343 -1.7705,1.5889 -3.9355,2.3437 -6.1092,2.1296 -8.5645,1.6102 -8.5645,-1.8144 l 0,-1.5215 2.6875,-0.7031 z m -63.834,7.123 -0.5606,1.6817 -0.5605,1.6836 -2.2266,0.4316 -2.2285,0.4317 0.5606,-1.6817 0.5605,-1.6816 2.2266,-0.4336 z m -99.0391,2.7403 c 0.6875,0 1.25,0.5625 1.25,1.25 0,0.6875 -0.5625,1.25 -1.25,1.25 -0.6875,0 -1.25,-0.5625 -1.25,-1.25 0,-0.6875 0.5625,-1.25 1.25,-1.25 z m 118.8594,0.9414 0.8477,0.8457 0.8457,0.8476 -1.8379,1.1641 c -2.4196,1.5314 -3.7149,1.5 -3.7149,-0.088 0,-0.709 0.8688,-1.6222 1.9297,-2.0293 l 1.9297,-0.7402 z m 27.4707,0.3086 3.1895,0 3.1894,0 -0.5195,1.5625 c -0.2862,0.8594 -1.3877,1.7299 -2.4473,1.9355 l -1.9258,0.3731 -0.7441,-1.9356 z m -5.7168,4.1113 c 0.6345,0.015 2.7771,0.6798 5.1738,1.6211 l 4.9805,1.957 1.502,2.4043 1.5019,2.4063 -1.6582,0 c -1.6639,0 -12.3697,-7.6596 -11.6758,-8.3535 0.025,-0.025 0.085,-0.037 0.1758,-0.035 z m -55.6133,2.1387 2.4278,0 2.4257,0 0.7715,1.25 0.7735,1.25 -3.1993,0 -3.1992,0 0,-1.25 z m 46.7813,26.2461 c 2.0344,0 8.2187,4.7704 8.2187,6.3398 0,1.5364 -0.9892,1.2933 -6.5703,-1.6113 l -4.6953,-2.4434 0.707,-1.1426 c 0.3887,-0.6287 1.4419,-1.1425 2.3399,-1.1425 z m -124.2813,13.332 0.834,0.834 0.834,0.834 -1.668,0 -1.666,0 0.834,-0.834 z m 111.25,2.5 0.834,0.834 0.834,0.834 -1.668,0 -1.666,0 0.834,-0.834 z m -35,23.668 1.5,1.5 1.5,1.5 -3,0 -3,0 1.5,-1.5 z"
       id="path10258"
       sodipodi:nodetypes="cccccccscccscccccccccccccccccccccscccccccsccccccccccssccccccccccscsccccccccccccsccccccccccccccccccccccccccccccscccccccscccccccccccsscccccccccccccccccccccccccccccccccccccccccccscsccsccccccccccccscccccccccccccssscccccccccccccccccscccscccccccscccccscssccssccsccccccccscsccccccsscccccsccccccccccccccccccscccccccscccccscccccccccccccccsccccccccscscsccccccccccccccccccccccccccccccccccccccccccccccscccscccsccccscccccccccccccccccscccccccccccccsccccscscccsccccccccccccccccccsscccccccccsccccscccccccccccscccccccccccsccscccscccccscccccccccccccccccccccccccscccccccccccccccccccccscccccccccccccccccccccccccccccccccccccccccssssscscccccccccccccccccccccsssssccscsccccccccccccsssssccccsccccccccccccccccsscccccccccccsscccsccccccccccccccccccccc" />
  </g>
</svg>
