<?xml version="1.0" encoding="UTF-8" standalone="no"?>
<!-- Created with Inkscape (http://www.inkscape.org/) -->

<svg
   xmlns:dc="http://purl.org/dc/elements/1.1/"
   xmlns:cc="http://creativecommons.org/ns#"
   xmlns:rdf="http://www.w3.org/1999/02/22-rdf-syntax-ns#"
   xmlns:svg="http://www.w3.org/2000/svg"
   xmlns="http://www.w3.org/2000/svg"
   xmlns:sodipodi="http://sodipodi.sourceforge.net/DTD/sodipodi-0.dtd"
   xmlns:inkscape="http://www.inkscape.org/namespaces/inkscape"
   width="210mm"
   height="297mm"
   viewBox="0 0 744.09448819 1052.3622047"
   id="svg4143"
   version="1.1"
   inkscape:version="0.91 r13725"
   sodipodi:docname="J.svg">
  <defs
     id="defs4145" />
  <sodipodi:namedview
     id="base"
     pagecolor="#ffffff"
     bordercolor="#666666"
     borderopacity="1.0"
     inkscape:pageopacity="0.0"
     inkscape:pageshadow="2"
     inkscape:zoom="0.35"
     inkscape:cx="-145"
     inkscape:cy="520"
     inkscape:document-units="px"
     inkscape:current-layer="layer1"
     showgrid="false"
     inkscape:window-width="1920"
     inkscape:window-height="1055"
     inkscape:window-x="0"
     inkscape:window-y="25"
     inkscape:window-maximized="1" />
  <metadata
     id="metadata4148">
    <rdf:RDF>
      <cc:Work
         rdf:about="">
        <dc:format>image/svg+xml</dc:format>
        <dc:type
           rdf:resource="http://purl.org/dc/dcmitype/StillImage" />
        <dc:title></dc:title>
      </cc:Work>
    </rdf:RDF>
  </metadata>
  <g
     inkscape:label="Layer 1"
     inkscape:groupmode="layer"
     id="layer1">
    <path
       inkscape:connector-curvature="0"
       style="fill:#000000"
       d="m 298.87821,248.38908 -0.9531,0.95117 -0.9531,0.95313 -4.1836,-0.78516 -4.1856,-0.78515 0.6699,11.53515 c 0.3683,6.34388 0.8804,11.89293 1.1368,12.33203 0.2563,0.43909 -0.029,4.17382 -0.6328,8.29882 -1.7056,11.65924 -3.7822,36.14292 -3.6524,43.0625 l 0.082,4.3125 1.1777,0.72852 1.1778,0.72851 -1.8067,5.2461 -1.8066,5.24609 -0.01,10.33789 c -0.01,5.68588 0.044,11.74414 0.1133,13.46289 0.1578,3.96011 -0.9853,23.95983 -1.4649,25.62503 -0.198,0.6875 0.3575,3.7657 1.2344,6.8418 l 1.5938,5.5937 -1.2579,4.0977 -1.2578,4.0976 1.7188,0.961 1.7168,0.9609 0.582,7.043 0.582,7.0449 -2.3125,2.0918 -2.3105,2.0918 0.062,7.0723 0.062,7.0722 1.873,1.3692 1.8731,1.3691 -2.2149,3.3809 -2.2128,3.3789 -0.1641,9.6425 -0.1641,9.6407 2.5254,2.9843 2.5254,2.9825 -1.5625,0.5586 -1.5625,0.5566 0,1.7715 0,1.7715 1.832,0 1.8301,0 1.3379,2.5 1.3379,2.5 -3.0156,0 -3.0157,0 -1.5566,1.875 -1.5566,1.875 1.4257,1.7168 1.4239,1.7168 -0.8086,2.1074 -0.8086,2.1074 2.6621,0.6973 c 1.4643,0.383 2.6621,1.1051 2.6621,1.6054 0,0.5004 -1.3558,2.4876 -3.0137,4.4161 l -3.0136,3.5078 0.5507,1.4375 0.5528,1.4375 -4.2305,2.0175 -4.2285,2.0157 0.6016,29.8593 0.6035,29.8575 -2.1348,4.1289 -2.1348,4.1269 1.5879,3.9336 c 0.8732,2.1637 2.3551,4.4015 3.293,4.9727 l 1.7051,1.039 -1.3184,1.5879 -1.3183,1.5879 -0.6407,13 c -0.3524,7.149 -0.7757,20.3106 -0.9394,29.2481 l -0.2969,16.25 -1.25,0.9453 -1.25,0.9472 3.125,2.5977 3.125,2.5977 -3.0605,-0.6797 -3.0606,-0.6797 -1.6269,1.3516 -1.627,1.3496 -0.01,3.9101 -0.01,3.9102 -1.8672,3.5801 -1.8691,3.58 0,4.209 0,4.209 -4.875,10.5547 -4.875,10.5527 -5.2461,3.3125 -5.2461,3.3106 0.6367,2.4375 0.6367,2.4355 -4.1445,1.7324 -4.1445,1.7325 -0.8301,2.6152 -0.8301,2.6152 -2.416,1.293 -2.416,1.293 0,3.3046 0,3.3047 -4.6875,4.4121 c -2.5781,2.4273 -6.7543,5.3745 -9.2813,6.5489 l -4.5937,2.1347 -0.4063,3.4844 -0.4062,3.4844 -7.9336,3.9629 c -4.3636,2.179 -9.0712,5.1006 -10.4629,6.4922 l -2.5313,2.5293 0.8829,1.4277 0.8808,1.4277 2.3828,-0.7558 2.3809,-0.7559 2.791,1.9551 2.791,1.9551 2.5781,0 2.5782,0 2.2148,3.7519 2.2168,3.752 -0.6797,1.1015 -0.6797,1.0997 2.2032,2.9589 c 1.2118,1.6277 3.0318,4.6061 4.0449,6.6172 l 1.8418,3.6563 3.3047,1.2539 3.3027,1.2539 0.6465,4.8262 0.6465,4.8261 1.5156,1.8262 0.01,0 c 0.8335,1.0043 1.8693,1.8203 2.3008,1.8203 0.4314,0 3.0351,-1.3921 5.7851,-3.0859 2.75,-1.6937 5.8956,-3.0982 6.9922,-3.1192 l 1.9942,-0.039 2.2343,-2.4688 c 1.2284,-1.3574 3.4247,-2.8396 4.8809,-3.2949 1.4562,-0.4554 4.1356,-2.0731 5.9551,-3.5938 l 3.3086,-2.7636 6.4101,-0.7598 c 3.5249,-0.4175 7.0043,-1.1262 7.7324,-1.5762 0.7282,-0.45 3.2804,-3.8786 5.6719,-7.6171 l 4.3477,-6.7969 2.8847,-1.0957 c 1.5862,-0.603 4.0123,-2.5322 5.3926,-4.2871 l 2.5098,-3.1914 3.1484,-1.1954 3.1485,-1.1972 6.3808,-8.4766 6.3828,-8.4765 0,-3.2012 0,-3.2012 2.1875,-3.0918 c 2.5985,-3.6713 5.1789,-12.7166 5.2559,-18.4199 0.03,-2.2436 0.5528,-5.0561 1.1601,-6.25 0.6073,-1.1937 1.8338,-3.7271 2.7247,-5.6309 l 1.6191,-3.4629 0.2031,-7.1621 c 0.1122,-3.94 0.6666,-8.2307 1.2305,-9.5332 l 1.0254,-2.3672 -2.3184,-1.6953 c -1.274,-0.9319 -1.8582,-1.6933 -1.2988,-1.6933 l 1.0156,0 -1.5547,-1.875 -1.5566,-1.875 1.7148,-0.1485 c 0.9435,-0.082 2.4607,-0.048 3.3711,0.076 0.9103,0.1232 2.4215,-0.4106 3.3575,-1.1875 l 1.7011,-1.4141 0.8692,-3.957 c 0.4781,-2.1769 1.5552,-5.0915 2.3925,-6.4766 l 1.5215,-2.5175 1.4942,-15.9688 1.4941,-15.9687 -0.8008,-1.295 c -0.4407,-0.7128 -2.1875,-1.8229 -3.8808,-2.4667 l -3.0782,-1.1719 0.7735,-1.252 0.7734,-1.2519 4.3008,0 4.3027,0 0.055,-4.6875 0.055,-4.6875 1.8008,-5 1.8008,-5 0.027,-5 0.027,-5 1.957,-3.75 1.959,-3.75 -0.5898,-10.5371 -0.5899,-10.5352 1.1934,-8.2148 c 0.6565,-4.5175 1.2774,-11.3916 1.3809,-15.2754 l 0.1894,-7.0606 -1.7051,-2.0547 -1.705,-2.0547 1.1855,-9.3574 1.1875,-9.3574 -0.8184,-1.3223 -0.8164,-1.3222 -2.8691,0.4219 -2.8672,0.4199 -0.4961,-1.4492 -0.4941,-1.4493 3.8261,-0.8398 3.8262,-0.8399 1.2813,-2.3945 1.2812,-2.3926 -0.6035,-7.1933 c -0.3318,-3.956 -0.631,-7.5691 -0.666,-8.0293 l -0.062,-0.836 -4.3418,1.1993 -4.3418,1.1972 -3.7832,-1.9551 -3.7832,-1.957 0,-1.8437 0,-1.8418 1.5625,-0.1485 c 0.8594,-0.081 2.125,0 2.8125,0.1758 0.6875,0.1787 2.8752,0.2309 4.8633,0.1152 l 3.6152,-0.2089 2.3223,2.1015 2.3242,2.1016 0.1347,-1.1309 c 0.075,-0.6222 0.2986,-8.1621 0.4961,-16.7558 l 0.3594,-15.625 -1.8457,-2.084 -1.8437,-2.084 1.039,-2.291 1.041,-2.291 -0.3261,-17.5 c -0.1798,-9.625 -0.3642,-19.1875 -0.4102,-21.25 -0.046,-2.0625 -0.09,-10.7813 -0.09,-19.375 0,-8.5938 -0.1137,-26.59378 -0.2461,-40.00003 l -0.2402,-24.375 -0.8027,-1.27148 -0.8028,-1.26953 1.3125,-6.23047 c 0.722,-3.42631 1.4284,-10.72852 1.5703,-16.22852 0.1418,-5.5 0.6945,-18.66212 1.2286,-29.24804 l 0.9707,-19.24609 -2.961,0.80078 -2.9609,0.80274 -6.5625,-1.44141 c -3.6093,-0.79274 -6.5624,-1.77347 -6.5625,-2.17969 l 0,-0.73828 -19.8946,0 -19.8945,0 z m 44.9317,189.37502 3.6757,0 3.6758,0 0,1.25 c 0,0.6875 -0.5728,1.25 -1.2734,1.25 l -1.2735,0 0.7852,3.125 c 0.4314,1.7187 0.5663,3.125 0.3008,3.125 -0.2655,0 -1.3882,-1.058 -2.4942,-2.3496 -1.1059,-1.2917 -2.7357,-2.5891 -3.623,-2.8848 l -1.6133,-0.5391 0.9199,-1.4882 0.92,-1.4883 z m -8.7305,34.6679 1.293,1.293 1.2929,1.291 3.9082,-1.1191 3.9063,-1.1211 2.2168,0.7031 2.2148,0.7031 0,1.6563 0,1.6582 -1.9765,0.7578 c -3.449,1.3235 -8.3866,0.4688 -13.9434,-2.4141 l -3.3145,-1.7187 2.2012,-0.8457 2.2012,-0.8438 z m 9.0273,25.9844 c 1.4807,0.013 2.0883,0.782 1.3223,2.0215 -0.8678,1.4045 -3.9296,1.3844 -4.8047,-0.031 l -0.6836,-1.1093 2.4141,-0.6309 c 0.669,-0.1749 1.2584,-0.2541 1.7519,-0.25 z m -12.998,3.2481 2.4394,0.1836 2.4414,0.1835 -0.6132,0.9922 c -0.8306,1.344 -2.6573,1.2495 -3.543,-0.1836 l -0.7246,-1.1757 z m 10.0527,18.4257 2.8125,0.3985 2.8125,0.4004 0,1.25 0,1.25 -2.8125,0.3984 -2.8125,0.4004 0,-2.0488 0,-2.0489 z m -58.75,8.5059 0.834,0.834 0.834,0.834 -1.668,0 -1.666,0 0.834,-0.834 0.832,-0.834 z m 58.125,1.4805 c 0.6531,0 1.3904,0.6047 1.6367,1.3437 l 0.4473,1.3438 -2.084,0 -2.082,0 0.4473,-1.3438 c 0.2463,-0.739 0.9816,-1.3437 1.6347,-1.3437 z m -32.4258,2.6875 c 0.3031,0 0.5508,0.5625 0.5508,1.25 0,0.6875 -0.5941,1.25 -1.3222,1.25 l -1.3243,0 0.7715,-1.25 c 0.4249,-0.6875 1.021,-1.25 1.3242,-1.25 z m -15.6992,32.082 0.834,0.834 0.834,0.834 -1.668,0 -1.666,0 0.834,-0.834 0.832,-0.834 z m 29.0235,95.418 1.2441,0 -0.7578,1.9765 c -0.4173,1.0875 -0.7598,2.2125 -0.7598,2.5 0,0.2875 -1.5469,0.5035 -3.4375,0.4805 l -3.4375,-0.041 2.9512,-2.457 c 1.623,-1.3522 3.5124,-2.459 4.1973,-2.459 z m 7.2265,15 2.5,0 2.5,0 0,1.7402 0,1.7422 -1.7519,0.6719 -1.752,0.6738 -0.748,-0.748 c -0.411,-0.4111 -0.7481,-1.4973 -0.7481,-2.4141 l 0,-1.666 z m -120,148.5664 -2.082,0.4043 c -1.1462,0.2222 -2.3194,1.1074 -2.6055,1.9668 l -0.5195,1.5625 2.6035,0 2.6035,0 0,-1.9668 0,-1.9668 z"
       id="path12350" />
  </g>
</svg>
