<?xml version="1.0" encoding="UTF-8" standalone="no"?>
<!-- Created with Inkscape (http://www.inkscape.org/) -->

<svg
   xmlns:dc="http://purl.org/dc/elements/1.1/"
   xmlns:cc="http://creativecommons.org/ns#"
   xmlns:rdf="http://www.w3.org/1999/02/22-rdf-syntax-ns#"
   xmlns:svg="http://www.w3.org/2000/svg"
   xmlns="http://www.w3.org/2000/svg"
   xmlns:sodipodi="http://sodipodi.sourceforge.net/DTD/sodipodi-0.dtd"
   xmlns:inkscape="http://www.inkscape.org/namespaces/inkscape"
   width="210mm"
   height="297mm"
   viewBox="0 0 744.09448819 1052.3622047"
   id="svg4143"
   version="1.1"
   inkscape:version="0.91 r13725"
   sodipodi:docname="K.svg">
  <defs
     id="defs4145" />
  <sodipodi:namedview
     id="base"
     pagecolor="#ffffff"
     bordercolor="#666666"
     borderopacity="1.0"
     inkscape:pageopacity="0.0"
     inkscape:pageshadow="2"
     inkscape:zoom="0.35"
     inkscape:cx="-145"
     inkscape:cy="520"
     inkscape:document-units="px"
     inkscape:current-layer="layer1"
     showgrid="false"
     inkscape:window-width="1920"
     inkscape:window-height="1055"
     inkscape:window-x="0"
     inkscape:window-y="25"
     inkscape:window-maximized="1" />
  <metadata
     id="metadata4148">
    <rdf:RDF>
      <cc:Work
         rdf:about="">
        <dc:format>image/svg+xml</dc:format>
        <dc:type
           rdf:resource="http://purl.org/dc/dcmitype/StillImage" />
        <dc:title></dc:title>
      </cc:Work>
    </rdf:RDF>
  </metadata>
  <g
     inkscape:label="Layer 1"
     inkscape:groupmode="layer"
     id="layer1">
    <path
       inkscape:connector-curvature="0"
       style="fill:#000000"
       d="m 415.81646,215.72453 -0.83203,0.83399 -0.83398,0.83398 1.66601,0 1.66797,0 -0.83398,-0.83398 -0.83399,-0.83399 z m -129.05469,0.41797 1.5547,1.875 c 0.8559,1.03125 2.2621,1.875 3.12499,1.875 0.86291,0 2.2691,-0.84375 3.125,-1.875 l 1.55665,-1.875 -4.68165,0 -4.67969,0 z m 210.92969,0.0156 -14.375,0.01 -14.375,0.0117 1.875,1.21289 c 1.03121,0.66645 3.5625,1.229 5.625,1.25 2.0625,0.021 4.59372,0.58988 5.625,1.26563 l 1.875,1.22851 3.52344,-0.74023 c 1.9369,-0.40734 5.0307,-1.52802 6.875,-2.49024 l 3.35156,-1.74804 z m -73.36328,0.002 c -1.1626,-0.0105 -2.46182,0.54492 -2.88672,1.23242 l -0.77148,1.25 1.01172,-0.0195 c 0.5562,-0.0105 1.85357,-0.56402 2.88476,-1.23047 l 1.875,-1.21289 -2.11328,-0.0195 z m 39.84571,0 -17.83203,0.0586 -17.83204,0.0586 -1.49804,1.80664 -1.5,1.80859 2.33984,0.14649 c 1.2873,0.0814 2.90235,0.0228 3.58984,-0.13086 0.6875,-0.1537 1.93785,-0.39231 2.77735,-0.5293 0.8395,-0.13699 1.91828,-0.63895 2.39648,-1.11719 0.4783,-0.47823 1.61856,-0.86914 2.53516,-0.86914 l 1.66601,0 0,1.94922 0,1.95117 8.75,-0.86133 8.75,-0.86328 0,1.26563 0,1.26562 -2.625,0.6875 -2.625,0.68555 0.82422,1.33398 0,0.002 c 0.4535,0.73377 1.65177,1.33398 2.66407,1.33398 l 1.84179,0 0.71875,-1.875 c 0.3958,-1.03125 1.22204,-1.875 1.83594,-1.875 l 1.11523,0 0,1.875 0,1.875 1.78516,0 1.7832,0 0.47852,-2.1875 0.48047,-2.1875 -1.20899,-2.80469 -1.21093,-2.80273 z m 55.39257,0.11914 c -1.47266,0 -2.94533,0.0703 -4.0625,0.20899 l -4.0625,0.5039 8.125,0 8.125,0 -4.0625,-0.5039 c -1.1172,-0.13865 -2.58982,-0.20899 -4.0625,-0.20899 z m -112.5,0.0254 c -0.56638,0 -1.13279,0.0864 -1.5625,0.25977 l -1.5625,0.63086 3.125,0 3.125,0 -1.5625,-0.63086 c -0.4297,-0.17338 -0.99609,-0.25977 -1.5625,-0.25977 z m -161.87499,4.8086 -4.8945,4.17382 -4.8926,4.17383 0.9922,1.60547 0.9902,1.60547 6.4043,-0.8418 c 3.5212,-0.46303 6.8681,-1.30193 7.4375,-1.86328 l 1.0352,-1.02148 -0.4102,-3.58789 -0.4121,-3.58985 -3.125,-0.32812 -3.125,-0.32617 z m 175.62499,52.11132 -0.83203,0.83399 -0.83398,0.83398 1.66601,0 1.66797,0 -0.83398,-0.83398 -0.83399,-0.83399 z m 27.51172,9.16602 0,2.42773 0,2.42578 1.25,0.77149 1.25,0.77344 0,3.05078 0,3.05078 -1.74023,0 -1.73828,0 -2.00195,5 -2,5 -1.22071,0 -1.2207,0 0.65625,1.71484 0.6582,1.71289 -4.77148,3.59961 -4.77149,3.59766 0.41211,2.8125 0.41211,2.8125 -2.43555,0 -2.43359,0 -1.50976,1.82031 -1.51172,1.82031 0.85547,1.38477 0.85546,1.38281 -2.25976,2.49805 -2.26172,2.49609 1.68164,1.04102 1.68164,1.03906 -2.76758,1.48047 c -3.6567,1.95701 -7.27595,4.85365 -11.65625,9.32617 l -3.58593,3.66211 0.52148,2 0.52344,1.99805 -1.63282,1.52539 c -0.89828,0.83908 -2.15898,1.52539 -2.80078,1.52539 l -1.16601,0 -2.00195,5 -2,5 -1.25977,0 -1.25977,0 -0.0117,1.5625 c -0.006,0.85938 -2.0745,3.73991 -4.5957,6.40039 -4.5867,4.83985 -10.39453,12.74157 -10.39453,14.14258 0,0.4093 0.9844,1.53148 2.1875,2.49414 l 2.1875,1.75 -2.5,-0.39649 -2.5,-0.39843 -1.62109,1.28515 c -3.6998,2.93466 -7.75391,7.60403 -7.75391,8.93164 0,0.78221 -0.8438,2.12266 -1.875,2.97852 l -1.875,1.55665 0,2.97266 0,2.9707 -1.06836,0 c -0.26891,0 -1.27772,1.03541 -2.5625,2.5 l 1.76758,0 1.91601,0 1.13868,2.99414 c 0.626,1.64664 1.87745,3.28881 2.78125,3.65039 l 1.64257,0.6582 -1.875,0.0801 c -2.43638,0.10336 -4.01006,-1.10691 -5.94726,-4.57031 l -1.51367,-2.70899 c -3.39996,3.89059 -8.7793,10.89832 -8.7793,11.78512 0,0.2943 0.7031,0.2758 1.5625,-0.039 l 1.5625,-0.5721 1.72266,1.0976 1.72265,1.0957 -0.85742,1.3905 -0.85937,1.3908 -2.73829,0.018 c -1.50629,0.01 -3.58403,0.564 -4.61523,1.2305 l -1.875,1.2129 1.52344,0.019 1.52344,0.018 -0.69336,1.8067 -0.69141,1.8066 6.01953,3.7461 6.02149,3.748 -2.07813,0.7969 -2.07812,0.7988 -3.89844,-2.8847 -3.90039,-2.8828 -1.10938,1.7949 -1.10937,1.7949 -2.39844,-2.168 -2.39648,-2.1699 -1.58204,1.9063 -1.58203,1.9062 2.02735,0 2.02734,0 0,1.9199 0,1.918 -2.45508,-1.3125 -2.45508,-1.3144 -5.0332,1.5703 -5.0332,1.5703 0.69726,2.1992 0.69922,2.1992 -3.73242,0 c -2.0526,0 -4.62148,0.3425 -5.70898,0.7598 l -1.97852,0.7578 0,-1.8633 0,-1.8613 -2.36133,-0.6192 -2.36133,-0.6171 -1.64062,1.0136 c -1.937,1.1972 -3.63672,0.3927 -3.63672,-1.7226 l 0,-1.5039 2.80664,-1.2344 2.80469,-1.2344 0.36523,-1.9433 0.36328,-1.9454 -2.3789,-2.7421 -2.37891,-2.7442 -2.11328,0 -2.11523,0 0.74609,-1.209 0.74805,-1.2089 3.54883,0.7109 3.54882,0.709 2.48047,-1.3282 2.48242,-1.3281 1.64844,-3.9785 1.64649,-3.97661 -2.86524,-2.32031 -2.86328,-2.32031 2.01367,0 2.01172,0 0,-2.04883 0,-2.05078 -2.06836,-1.51172 -2.07031,-1.51367 -0.1543,-4.875 -0.15625,-4.87501 -2.77539,-1.23242 -2.77539,-1.23438 0,-1.57812 0,-1.58008 2.61133,0 2.60937,0 -0.70703,-4.6875 c -0.389,-2.57812 -0.83142,-9.75 -0.98242,-15.9375 l -0.27539,-11.25 -1.23437,-1.65625 -1.23438,-1.6582 1.38281,-0.85547 c 0.7606,-0.47011 1.77195,-2.4076 2.24805,-4.30469 l 0.86523,-3.44922 -1.63867,-3.95508 -1.63672,-3.95508 1.50391,-0.50195 1.50391,-0.50195 -0.67188,-1.08789 -0.67383,-1.08985 -1.83398,0.70508 -1.83594,0.70313 0,-1.38282 0,-1.38476 -3.82227,0 -3.82421,0 0.67382,-1.0918 0.67579,-1.0918 5.50586,0.36915 5.50585,0.36718 1.50977,-7.67383 1.50977,-7.67578 -1.36719,-0.45507 -1.36719,-0.45508 0,-3.64649 0,-3.64648 1.25,0 1.25,0 -0.14453,-2.8125 -0.14453,-2.8125 -0.58594,2.25781 -0.58398,2.25586 -1.45703,-0.53711 -1.45899,-0.53906 0.3125,-1.40625 0.3125,-1.40625 -1.875,0 -1.875,0 0,-2.53906 0,-2.53907 1.79688,-0.68945 1.79687,-0.68945 -0.67578,-1.75977 -0.67578,-1.76172 2.3164,-0.87695 c 1.2745,-0.48264 4.84761,-2.67775 7.94141,-4.87695 l 5.625,-3.99805 5.36328,-0.60156 c 2.9495,-0.33069 5.71569,-0.95402 6.14649,-1.38477 l 0.7832,-0.7832 -8.79102,0 -8.78906,0 -2.98047,2.32812 c -1.6396,1.28042 -4.24802,2.72434 -5.79492,3.20899 -1.5469,0.48465 -2.8125,1.40569 -2.8125,2.04687 l 0,1.16602 -1.76953,0 -1.77148,0 -0.47461,1.42773 -0.47657,1.42774 -8.87109,0.33203 -8.87305,0.33398 -2.47855,1.32618 -2.4785,1.32812 -20.8183,-0.51758 c -11.4503,-0.2838 -21.9744,-0.88181 -23.3868,-1.33008 l -2.5683,-0.81445 -2.3906,2.56641 -2.3926,2.5664 0,2.61328 c 0,1.43789 -0.9604,4.41562 -2.1367,6.61524 l -2.1387,4 -0.6738,13.43945 -0.6758,13.43945 2.1133,-0.002 c 1.1626,-10e-4 2.4714,0.57648 2.9082,1.28321 l 0.7949,1.28515 -2.9082,2.35547 -2.9082,2.35742 -0.2207,17.92188 c -0.1216,9.85683 -0.2229,23.53752 -0.2227,30.40234 l 0,12.48048 1.3965,1.68359 1.3965,1.68164 -1.3965,2.23828 -1.3984,2.23829 1.4629,1.46289 1.4629,1.46289 -1.7129,1.05661 -1.7129,1.0586 0.7265,1.1778 0.7286,1.1757 -1.7657,5.8672 -1.7656,5.8672 0.959,2.5938 0.959,2.5918 -0.8555,6.4414 -0.8555,6.4394 1.3594,1.6992 1.3613,1.6973 -2.2734,1.6621 -2.2715,1.6602 0.793,6.0156 c 0.4358,3.3086 0.7873,7.7031 0.7773,9.7656 -0.045,11.831 0.1698,14.8069 1.2754,17.7149 l 1.2227,3.2148 -1.25,1.5059 -1.2481,1.5039 0.4356,8.7265 0.4336,8.7246 1.7246,2.9063 1.7246,2.9062 -1.5703,0.5684 -1.5703,0.5684 0.6269,1.0117 0.625,1.0137 -1.8594,3.5683 -1.8613,3.5664 -0.01,3.4375 -0.01,3.4375 2.3653,0 2.3671,0 0.7188,1.875 0.7207,1.875 -1.5859,0 c -0.8722,0 -2.2015,-0.6136 -2.9532,-1.3652 l -1.3672,-1.3672 -0.6484,6.0547 c -0.3572,3.3298 -0.676,7.1777 -0.709,8.5527 -0.033,1.375 -0.683,7.2813 -1.4453,13.125 -0.7623,5.8438 -1.3259,13.7188 -1.2519,17.5 0.074,3.7813 0.1024,19.25 0.064,34.375 -0.038,15.125 0.046,30.875 0.1875,35 0.4362,12.6749 0.3155,27.22 -0.2754,33.125 l -0.5625,5.625 3.4375,0.3965 3.4375,0.3945 0,1.0938 c 0,0.6012 -0.5625,1.4404 -1.25,1.8652 -0.6875,0.4249 -1.25,1.3023 -1.25,1.9492 l 0,1.1758 1.875,0 1.875,0 0,1.8145 c 0,0.9971 -0.7031,2.2628 -1.5625,2.8125 -0.8594,0.5498 -2.3095,1.9509 -3.2207,3.1152 l -1.6563,2.1172 -0.5605,7.8828 c -0.3081,4.3357 -1.0682,10.6953 -1.6895,14.1328 -0.6214,3.4375 -1.4591,9.1104 -1.8613,12.6055 l -0.7305,6.3555 2.6445,2.3945 2.6465,2.3945 21.4317,0 21.4336,0 15.625,-2.3457 c 18.37935,-2.761 19.69551,-2.8468 23.59761,-1.5195 l 2.97266,1.0117 -0.91016,-7.3223 c -0.5009,-4.0276 -1.24434,-7.8681 -1.65234,-8.5332 -0.9137,-1.4895 -1.90007,-17.7669 -1.91407,-31.5742 l -0.01,-10.2851 -2.81445,0.707 -2.81446,0.707 -1.50195,-2.8047 -1.5,-2.8047 2.95898,-2.2343 2.96094,-2.2325 0.89649,2.4278 0.89843,2.4277 1.38086,0 1.37891,0 -0.22656,-2.8125 c -0.1257,-1.5468 -0.1106,-3.0937 0.0351,-3.4375 0.1459,-0.3437 0.45836,-2.7343 0.69336,-5.3125 l 0.42774,-4.6875 -2.11719,-0.1445 -2.11719,-0.1445 2.1875,-0.5723 c 2.4675,-0.6449 2.66148,-1.4536 0.98438,-4.1055 l -1.16407,-1.8418 1.39649,-0.8633 1.39648,-0.8613 0.13672,-3.1289 0.13672,-3.1289 -2.14258,1.1445 c -1.1782,0.6305 -2.74191,1.1465 -3.47461,1.1465 l -1.33203,0 0,-1.5625 0,-1.5625 4.28906,-3.4199 4.28711,-3.4199 -0.041,-4.0801 c -0.0392,-3.9097 0.25507,-6.6176 2.20117,-20.1777 l 0.87695,-6.0996 -2.11133,-1.1817 -2.11132,-1.1816 0.76367,-2.4063 0.76562,-2.4082 -1.96093,0 -1.95899,0 0,-1.1758 c 0,-0.6469 0.5625,-1.5243 1.25,-1.9492 0.6875,-0.4248 1.25,-1.5816 1.25,-2.5722 l 0,-1.8028 -4.2207,0 -4.22266,0 -1.64062,-1.9746 -1.63867,-1.9766 4.53124,0.8497 4.5293,0.8496 1.12305,-0.6934 1.12305,-0.6934 -0.54883,-3.7382 -0.54883,-3.7403 -2.05469,-0.498 -2.05664,-0.4981 2.1875,-0.8183 c 1.2031,-0.4502 3.07169,-1.0952 4.15039,-1.4356 l 1.96094,-0.6191 -0.72656,-2.2852 -0.72461,-2.2851 1.82031,-8.6582 c 1.0009,-4.7622 2.17773,-10.3477 2.61523,-12.4102 0.4376,-2.0625 1.12048,-4.5937 1.51758,-5.625 0.3972,-1.0312 0.68277,-2.1562 0.63477,-2.5 -0.048,-0.3437 1.7384,-2.0046 3.9707,-3.6914 2.2322,-1.6867 5.5946,-5.2024 7.4707,-7.8125 l 3.41016,-4.7461 1.79492,0 1.79297,0 0,1.1328 0,1.1328 6.33985,0.8731 6.33789,0.8711 1.03515,2.6836 1.03711,2.6816 0.88477,-2.1875 c 0.4862,-1.2031 1.38008,-2.1875 1.98828,-2.1875 l 1.10742,0 -0.42383,3.8711 -0.42383,3.8711 -1.57812,0.9746 -1.57617,0.9746 -0.63086,5.5977 -0.63086,5.5957 2.64258,0.6914 2.64062,0.6914 0,2.8281 0,2.8301 8.4375,8.8496 c 4.6406,4.8675 9.1406,9.0316 10,9.2539 0.8594,0.2223 1.5625,0.9254 1.5625,1.5625 l 0,1.1582 2.8125,0.031 c 1.5469,0.011 3.6562,0.573 4.6875,1.25 l 1.875,1.2304 -2.8125,0.7715 -2.8125,0.7696 0,1.2226 0,1.2207 2.55274,0.666 2.55078,0.668 -0.34571,2.0469 -0.34765,2.0449 2.48242,2.6348 c 1.3654,1.4495 5.01362,5.7979 8.10742,9.6621 3.0937,3.8644 6.22122,7.0351 6.94922,7.0351 0.728,0 2.4155,0.8411 3.75,1.8594 l 2.42578,1.8516 -1.4043,0.9609 -1.40625,0.9609 1.18946,2.5 c 0.6536,1.375 2.97259,5.875 5.15429,10 l 3.9668,7.5 2.39844,0 2.39844,0 0.48242,1.4532 0.48437,1.4511 -2.16797,0.418 -2.16601,0.418 2.03516,2.0351 c 1.12009,1.1201 2.37576,3.3701 2.78906,5 l 0.75195,2.9649 6.73633,7.2226 6.73828,7.2246 0.83789,2.7754 c 0.4608,1.5265 2.0795,4.1836 3.5957,5.9024 2.393,2.7125 3.87512,4.7558 8.50782,11.7363 1.446,2.1786 14.70312,30.6464 14.70312,31.5723 0,0.4561 1.46385,2.7476 3.25195,5.0918 l 3.25,4.2617 0.6836,7.5293 0.68164,7.5293 2.9414,1.3398 2.94141,1.3399 0.19922,2.6113 c 0.1046,1.4365 0.10256,3.6494 -0.01,4.916 l -0.20312,2.3027 2.49023,0.6504 2.49219,0.6524 2.61524,4.2324 0.0117,0 2.61524,4.2344 9.13867,0 9.14063,0 0.59961,-1.5684 0.60156,-1.5664 4.34765,-1.5723 4.34571,-1.5722 7.37304,-6.8418 c 4.0553,-3.7633 7.79234,-6.8484 8.30274,-6.8614 1.2204,-0.025 6.77923,-4.6121 11.86133,-9.7871 l 4.06836,-4.1406 2.19531,0.2227 c 1.2078,0.122 3.60356,0.1564 5.32226,0.072 l 3.125,-0.1543 2.73828,-4.0527 2.74024,-4.0547 -0.24024,-2.4687 -0.23828,-2.4707 1.45704,-0.029 c 0.80201,-0.016 1.832,-0.4025 2.2871,-0.8575 l 0.82618,-0.8281 -3.84765,-2.8457 c -2.11661,-1.5649 -3.84767,-3.4663 -3.84767,-4.2265 0,-0.7603 -2.17568,-3.444 -4.83398,-5.9629 l -4.83398,-4.5801 -0.75196,-3.7637 -0.75195,-3.7637 -2.68555,-2.6836 -2.68554,-2.6855 -2.40821,-6.8535 c -2.3849,-6.7855 -6.03072,-12.8513 -9.95312,-16.5606 -1.1158,-1.0553 -2.98314,-4.4512 -4.14844,-7.5449 -1.1652,-3.0938 -3.69635,-7.6131 -5.62695,-10.0449 l -3.51172,-4.4219 -6.60547,-14.9531 c -3.6336,-8.2245 -6.99455,-15.2364 -7.46875,-15.5801 -1.1968,-0.8675 -2.42323,-6.9554 -2.89453,-14.375 l -0.39649,-6.25 -1.68945,-4.375 c -3.0382,-7.8674 -11.53292,-24.3167 -13.91992,-26.9551 l -2.33399,-2.58 0,-2.584 0,-2.584 -3.66406,-3.5859 -3.66406,-3.586 -1.37695,-3.625 c -0.7569,-1.9939 -4.45194,-8.5969 -8.21094,-14.6738 -3.759,-6.0768 -6.83399,-11.2897 -6.83399,-11.584 0,-1.0123 -11.45438,-19.9059 -17.49218,-28.8535 -3.3255,-4.9282 -6.90338,-11.012 -7.95118,-13.5195 -1.0477,-2.5076 -3.00826,-5.7435 -4.35546,-7.1895 l -2.44922,-2.6289 -0.59961,-3.1387 -0.59961,-3.1386 1.26562,-3.9493 c 0.6963,-2.1718 1.72049,-4.8729 2.27539,-6.0019 l 1.00782,-2.0528 -0.69922,-0.6992 -0.69922,-0.6972 -3.91406,0.7734 -3.91407,0.7754 1.71485,-2.0859 1.71484,-2.086 2.9082,0 2.90821,0 3.68359,-7.8125 c 2.0263,-4.2969 4.82033,-10.3438 6.20703,-13.4375 1.3866,-3.0938 3.83481,-7.2148 5.44141,-9.1582 1.6065,-1.9434 10.39224,-11.13014 19.52344,-20.416 9.1311,-9.28586 17.55274,-18.38356 18.71484,-20.21681 5.0428,-7.95501 25.16031,-32.30658 38.38281,-46.45898 2.2482,-2.40625 4.45836,-5.55996 4.91016,-7.00977 l 0.82031,-2.63672 -1.75586,-1.45898 -1.75781,-1.45703 -0.73242,1.90625 -0.73047,1.90625 -2.40625,0 -2.4043,0 -0.70702,-1.8418 -0.70704,-1.8418 2.13477,-1.24414 2.13672,-1.24609 -2.1875,-0.0371 -2.1875,-0.0391 0,-1.72656 0,-1.72657 -4.29296,-3.27343 -4.29103,-3.27344 -2.01366,0 -2.01367,0 0.36718,-2.1875 0.36914,-2.1875 -4.04687,-0.39063 -4.04688,-0.39062 -1.57812,-2.19922 c -0.8683,-1.21007 -3.40623,-2.99919 -5.64063,-3.97656 l -4.0625,-1.77735 0,-1.46484 0,-1.46484 -4.86914,-3.85547 -4.86718,-3.85547 -3.57032,-0.0176 c -4.0786,-0.0219 -5.47782,-0.83468 -7.51562,-4.35742 -0.7954,-1.375 -1.93094,-2.40207 -2.52344,-2.2832 -0.5924,0.11886 -2.64093,0.60808 -4.55273,1.08789 l -3.47657,0.87304 0.82227,-3.27539 0.82227,-3.27734 -2.63477,0 -2.63477,0 z M 364.60553,414.9941 c 0.0285,-0.0327 0.0616,-0.0713 0.0898,-0.10351 l -0.14844,0 0.0586,0.10351 z m 236.21093,-123.85157 0,2.5 0,2.5 1.25,0 1.25,0 0,-2.5 0,-2.5 -1.25,0 -1.25,0 z m -48.85937,14.42969 c -1.01954,0.002 -2.21096,0.0865 -3.32813,0.25195 l -4.0625,0.60157 0,1.80664 0,1.80859 4.64063,5.55078 4.64063,5.54883 1.64843,0 1.65039,0 0.48047,-1.5625 c 0.2647,-0.85937 0.82008,-3.10937 1.23438,-5 l 0.7539,-3.4375 -1.89843,0 -1.9004,0 0,-2.36524 0,-2.36718 -1.5625,-0.59375 c -0.4297,-0.16279 -1.27733,-0.24377 -2.29687,-0.24219 z m -232.94141,18.06836 c 0.3031,0 0.55078,0.5625 0.55078,1.25 0,0.6875 -0.59416,1.25 -1.32226,1.25 l -1.32422,0 0.77148,-1.25 c 0.4249,-0.6875 1.02102,-1.25 1.32422,-1.25 z m 109.30078,10.83398 0.83399,0.83203 0.83398,0.83399 -1.66797,0 -1.66601,0 0.83398,-0.83399 0.83203,-0.83203 z m 126.25,2.91797 0,1.875 0,1.875 1.25,0 1.25,0 0,-1.875 0,-1.875 -1.25,0 -1.25,0 z m -97.38085,23.79688 -0.75782,1.22461 -0.75781,1.22656 -3.60352,0 c -1.9814,0 -3.85952,-0.42187 -4.17382,-0.9375 l -0.57032,-0.9375 4.93164,-0.28906 4.93165,-0.28711 z m -31.22852,6.42773 c 0.31051,-0.0132 0.51918,0.0172 0.59766,0.0957 0.3139,0.31387 0.2167,1.4934 -0.2168,2.62305 l -0.78711,2.05469 -1.42969,-0.125 c -0.7858,-0.0685 -2.83598,-0.52836 -4.55469,-1.02149 l -3.125,-0.89648 4.77149,-1.60352 c 1.96815,-0.66138 3.81261,-1.08732 4.74414,-1.12695 z m 16.47266,4.80078 2.94336,3.17578 c 1.6189,1.7468 2.94335,3.42801 2.94335,3.73633 0,0.30832 -1.93518,0.56055 -4.30078,0.56055 l -4.30078,0 -0.82031,-1.32813 -0.82227,-1.33007 2.17969,-2.40625 2.17774,-2.40821 z m -196.61328,3.30664 0.834,0.83203 0.834,0.83399 -1.668,0 -1.666,0 0.834,-0.83399 0.832,-0.83203 z m 186.24999,7.91602 1.875,0 c 1.0313,0 1.875,0.222 1.875,0.49219 0,0.2702 -0.84369,0.81519 -1.875,1.21093 l -1.875,0.71875 0,-1.21093 0,-1.21094 z m 13.75,4.58398 0.83399,0.83203 0.83398,0.83399 -0.83398,0.83398 -0.83399,0.83203 0,-1.66601 0,-1.66602 z m -141.25,0.41602 2.57422,0 2.57422,0 -0.77344,1.25 c -0.42489,0.6875 -1.58156,1.25 -2.57226,1.25 l -1.80274,0 0,-1.25 0,-1.25 z m 0.8125,7.59766 c 0.59306,0.0361 1.34234,0.1711 2.25586,0.40039 l 3.18164,0.79882 0,1.72071 0,1.71875 -3.10937,-0.18164 -3.10937,-0.17969 -0.66993,-1.74219 c -0.7131,-1.85565 -0.32798,-2.64359 1.45117,-2.53515 z m 98.63672,1.15234 1.80078,0 0,1.25 0,1.25 -2.57226,0 -2.57422,0 0.77148,-1.25 c 0.4249,-0.6875 1.58352,-1.25 2.57422,-1.25 z m -105.69922,0.0781 0,2.46094 0,2.46094 -1.875,0 -1.875,0 0,-1.74024 0,-1.74218 1.875,-0.71875 1.875,-0.72071 z m -24.93159,13.74806 c 0.7628,-0.1125 1.1816,0.2256 1.1816,1.02734 l 0,1.10547 -3.4121,0.65235 -3.4141,0.65234 2.4024,-1.75586 c 1.3734,-1.0043 2.4793,-1.56913 3.2422,-1.68164 z m 139.30659,1.52149 1.25,0.71679 c 0.6867,0.39437 2.22483,0.73807 3.41993,0.76367 l 2.17383,0.0469 0.32812,1.25 0.32812,1.25 -6.4121,0.2539 -6.41407,0.25196 -0.80273,-0.80274 -0.80469,-0.80273 3.4668,-1.46484 3.46679,-1.46289 z m -13.125,1.73632 0.83399,0.83203 0.83398,0.83399 -1.66797,0 -1.66601,0 0.83398,-0.83399 0.83203,-0.83203 z m -164.99999,1.25 0.834,0.83203 0.834,0.83399 -0.834,0.83398 -0.834,0.83203 0,-1.66601 0,-1.66602 z m 208.74999,1.66602 1.14844,0 c 0.6312,0 2.03369,0.34001 3.11719,0.75586 l 1.9707,0.75586 -0.6914,1.11914 c -0.3804,0.61546 -1.78279,1.11914 -3.11719,1.11914 l -2.42774,0 0,-1.875 0,-1.875 z m -21.04296,0.0703 c 0.98025,-0.0626 2.46398,0.1764 4.48046,0.7168 1.54692,0.41454 2.8125,1.25205 2.8125,1.85937 0,0.60731 -0.4219,1.01902 -0.9375,0.91602 -0.51558,-0.10301 -2.4844,-0.42063 -4.375,-0.70703 l -3.4375,-0.52149 0,-1.16601 c 0,-0.66916 0.47679,-1.03507 1.45704,-1.09766 z m -15.2793,1.17969 c 0.647,0 1.52238,0.5625 1.94726,1.25 l 0.77344,1.25 -1.94922,0 -1.94922,0 0,-1.25 c 10e-6,-0.6875 0.53084,-1.25 1.17774,-1.25 z m -132.27143,0.99023 0.7558,0.75391 0.7559,0.75586 -2.3965,-0.0996 -2.3965,-0.0977 1.6406,-0.65625 1.6407,-0.65625 z m 123.37495,2.47852 1.64062,0.54687 1.63867,0.54688 -2.95898,0.77344 -2.96094,0.77344 1.32031,-1.32032 1.32032,-1.32031 z m 26.32421,1.83984 -1.80664,2.75779 c -0.9939,1.5168 -1.57241,2.9943 -1.28711,3.2832 0.2853,0.2889 -3.32915,0.5682 -8.03125,0.6192 l -8.54882,0.094 -2.05469,-2.4004 -2.05469,-2.4004 0.7168,-0.7168 c 0.3943,-0.3944 5.74628,-0.8337 11.89258,-0.9765 l 11.17382,-0.25979 z m -103.60547,0.94139 c 0.6875,0 1.25,0.5625 1.25,1.25 0,0.6875 -0.5625,1.25 -1.25,1.25 -0.6875,0 -1.25,-0.5625 -1.25,-1.25 0,-0.6875 0.5625,-1.25 1.25,-1.25 z m -52.49999,1.25 1.9492,0 1.9492,0 -0.7734,1.25 c -0.4249,0.6875 -1.3003,1.25 -1.9473,1.25 -0.6469,0 -1.1777,-0.5625 -1.1777,-1.25 l 0,-1.25 z m 156.26757,3.75 2.98242,0 2.98438,0 0.75781,1.9766 c 0.4173,1.0875 0.75781,2.4938 0.75781,3.125 0,2.0446 -1.98492,1.2215 -4.76562,-1.9766 l -2.7168,-3.125 z m -25.18945,1.209 0.73242,1.1836 0.73047,1.1855 -1.18359,0.7305 -1.1836,0.7324 -0.73242,-1.1836 -0.73047,-1.1855 1.1836,-0.7305 1.18359,-0.7324 z m -95.92969,2.541 1.25,0 -0.77344,1.25 c -0.42489,0.6875 -1.33398,1.25 -2.02148,1.25 l -1.25,0 0.77148,-1.25 c 0.4249,-0.6875 1.33594,-1.25 2.02344,-1.25 z m 121.10156,0.078 1.875,0.7207 c 1.0313,0.3958 1.875,1.2201 1.875,1.834 0,0.6139 -0.46801,1.1172 -1.04101,1.1172 -1.3219,0 -2.70898,-1.3672 -2.70899,-2.6699 l 0,-1.002 z m -60.55078,2.4219 1.80078,0 0,1.25 0,1.25 -2.57226,0 -2.57422,0 0.77148,-1.25 c 0.4249,-0.6875 1.58352,-1.25 2.57422,-1.25 z m 35.55078,3.75 0,1.25 c 0,1.5245 -0.141,1.5245 -2.5,0 l -1.875,-1.2129 2.1875,-0.018 2.1875,-0.019 z m 13.75,2.084 0.83399,0.832 0.83398,0.834 -0.83398,0.834 -0.83399,0.832 0,-1.666 0,-1.666 z m -114.82617,1.625 1.16407,0.7188 c 0.64,0.3955 1.1621,0.9682 1.1621,1.2714 10e-6,0.3031 -0.87536,0.5508 -1.94726,0.5508 l -1.94922,0 0.78516,-1.2695 0.78515,-1.2715 z m 72.17969,1.291 1.25,0 c 0.6875,0 1.5966,0.5625 2.02148,1.25 l 0.77344,1.25 -1.25,0 c -0.6875,0 -1.59854,-0.5625 -2.02344,-1.25 l -0.77148,-1.25 z m -88.25971,1.25 1.1152,0 -0.5137,1.5625 -0.5156,1.5625 -3.0274,0.3496 -3.0273,0.3496 2.4277,-1.9121 c 1.3345,-1.0514 2.9276,-1.9121 3.5411,-1.9121 z m 144.65619,0.1621 c 0.56641,0 1.1328,0.086 1.5625,0.2598 l 1.5625,0.6309 -3.125,0 -3.125,0 1.5625,-0.6309 c 0.42972,-0.1734 0.99612,-0.2598 1.5625,-0.2598 z m -41.28906,3.5879 1.28906,0 0,2.4903 0,2.4882 2.5,1.5625 c 1.375,0.8587 2.5,1.9876 2.5,2.5098 l 0,0.9492 -2.1875,-0.078 c -3.2598,-0.118 -7.05951,-1.8841 -8.94531,-4.1563 l -1.67187,-2.0156 1.89453,0 1.89453,0 0.71875,-1.875 c 0.3958,-1.0313 1.29871,-1.875 2.00781,-1.875 z m 7.07813,1.1602 3.04297,1.3242 3.04296,1.3223 -3.4375,-0.6758 -3.4375,-0.6778 0,1.2735 c 0,0.7006 -0.5625,1.2734 -1.25,1.2734 -1.83019,0 -1.52616,-2.4719 0.39454,-3.209 l 1.64453,-0.6308 z m -46.16992,0.09 1.63085,0 0,1.4043 0,1.4024 1.66602,-1.3829 1.66406,-1.3808 2.28907,1.6738 2.28711,1.6719 -0.78711,2.0566 -0.78907,2.0547 -2.46875,0 -2.46875,0 -1.91015,-2.7265 -1.90821,-2.7266 -2.32226,2.1016 -2.32227,2.1015 -2.33203,0 -2.33203,0 4.23437,-3.125 c 2.32962,-1.7188 4.97155,-3.125 5.86915,-3.125 z m -69.61914,4.584 0.834,0.832 0.834,0.834 -1.668,0 -1.666,0 0.834,-0.834 0.832,-0.832 z m 87.49999,0 0.83399,0.832 0.83398,0.834 -0.83398,0.834 -0.83399,0.832 0,-1.666 0,-1.666 z m 40.95313,0.125 1.94727,1.0898 1.94726,1.0899 -3.04883,1.4375 -3.04687,1.4394 0.0176,-0.8203 c 0.0106,-0.451 0.50646,-1.588 1.10156,-2.5273 l 1.08203,-1.709 z m -120.79682,0.029 0,0 0.7558,0.7539 0.7559,0.7539 -2.3965,-0.098 -2.3965,-0.1 1.6406,-0.6563 1.6407,-0.6562 z m -15.1563,0.3398 1.875,0.7207 c 1.0312,0.3958 1.875,1.2221 1.875,1.836 0,0.614 -0.4681,1.1152 -1.041,1.1152 -1.3219,0 -2.709,-1.3654 -2.709,-2.6679 l 0,-1.004 z m 99.37499,1.461 2.8125,1.0644 2.8125,1.0664 0,1.9161 0,1.914 -4.375,0 -4.375,0 0,-1.7207 c 0,-0.947 0.7031,-2.2899 1.5625,-2.9824 l 1.5625,-1.2578 z m -26.71874,0.7012 0.75585,0.7558 0.75586,0.7559 -2.39648,-0.1 -2.39649,-0.1 1.64063,-0.6563 1.64063,-0.6562 z m 39.84374,1.5097 0.9375,0.019 c 0.51562,0.011 1.71461,0.5113 2.66211,1.1114 l 1.72071,1.0898 -0.85742,1.3906 c -0.4724,0.7643 -1.66946,1.3887 -2.66016,1.3887 l -1.80274,0 0,-2.5 0,-2.5 z m 31.10352,3.75 2.57422,0 2.57226,0 0,1.25 0,1.25 -1.80078,0 c -0.9907,0 -2.14932,-0.5625 -2.57422,-1.25 l -0.77148,-1.25 z m -15.47852,0.01 3.65235,3.1387 3.65039,3.1367 2.40234,-0.7617 2.40039,-0.7617 -0.4375,2.3066 -0.4375,2.3086 -3.15039,0.3692 -3.15039,0.3691 -2.86133,-3.8691 c -1.5731,-2.1277 -2.68069,-4.4015 -2.46289,-5.0528 l 0.39453,-1.1836 z m 8.125,0.8262 0.83399,0.834 0.83398,0.832 -1.66797,0 -1.66601,0 0.83398,-0.832 0.83203,-0.834 z m -32.32226,1.4102 5.84961,0.9609 5.84765,0.9629 -2.24804,0.5195 -2.24805,0.5196 0.37305,2.6777 0.37304,2.6797 -1.875,0.2246 -1.875,0.2246 -3.5625,-3.4785 -3.56445,-3.4805 1.46485,-0.9062 1.46484,-0.9043 z m 44.94141,1.2089 0.68164,0.6797 0.67968,0.6797 -1.05273,1.7852 -1.05274,1.7871 -1.55078,-0.543 -1.55078,-0.543 1.92383,-1.9218 1.92188,-1.9239 z m -25.11915,0.1133 0,1.8653 c 10e-6,1.0254 0.34247,2.7544 0.75977,3.8418 l 0.75781,1.9765 -3.17187,0 -3.17383,0 0.36523,-3.4375 0.36329,-3.4375 2.05078,-0.4043 2.04882,-0.4043 z m -90.25,4.9356 2.625,0.834 c 1.44421,0.4584 2.625,1.3381 2.625,1.955 10e-6,0.617 -1.06438,1.6915 -2.36718,2.3887 l -2.36914,1.2676 -1.57813,-1.9004 -1.57812,-1.9024 1.32031,-1.3203 1.32226,-1.3222 z m 43.88477,3.998 2.38281,0 -0.65429,2.5 c -0.785,3.0016 -2.31102,3.2403 -3.35352,0.5235 -1.0961,-2.8565 -1.0061,-3.0235 1.625,-3.0235 z m 45.11523,1.25 2.60547,0 2.60352,0 -0.51953,1.5625 c -0.2862,0.8594 -1.45927,1.7446 -2.60547,1.9668 l -2.08399,0.4043 0,-1.9668 0,-1.9668 z m 7.58985,0 1.92187,0 1.92188,0 -0.41602,2.1875 -0.41797,2.1875 -2.89648,0.4121 -2.89648,0.4121 1.39062,-2.5996 1.39258,-2.5996 z m -107.18164,0.012 c 0.48756,0.056 0.8418,0.4154 0.84179,1.1368 10e-6,0.6313 0.34247,2.0376 0.75977,3.125 l 0.75781,1.9765 -1.07031,-0.02 c -0.5892,-0.01 -1.85681,-0.5155 -2.81636,-1.1231 l -1.7442,-1.1054 0.7676,-2 c 0.5114,-1.3326 1.6913,-2.0836 2.5039,-1.9903 z m 119.66601,1.2383 2.42578,0 0,1.8028 c 0,2.5324 -1.55593,3.1997 -4.11523,1.7675 l -2.18555,-1.2226 0.72461,-1.1739 c 0.3988,-0.6453 1.81589,-1.1738 3.15039,-1.1738 z m 4.92578,0 1.25,0 1.25,0 0,1.875 0,1.875 -1.25,0 -1.25,0 0,-1.875 0,-1.875 z m -145.95699,1.25 1.8164,0 1.8164,0 -0.4004,2.7149 -0.4004,2.7148 -1.3281,0.4356 c -0.7305,0.2401 -1.6529,0.1127 -2.0508,-0.2852 l -0.7227,-0.7246 0.6348,-2.4277 0.6348,-2.4278 z m 42.20699,0.834 0.83399,0.834 0.83398,0.832 -1.66797,0 -1.66601,0 0.83398,-0.832 0.83203,-0.834 z m -28.56639,1.8145 1.7832,0.6855 1.7832,0.6836 0,1.7422 0,1.7402 -1.5625,-0.098 c -0.8594,-0.054 -2.2877,-0.3897 -3.1758,-0.7461 l -1.6152,-0.6485 1.3945,-1.6797 1.3926,-1.6796 z m 52.77929,0.5312 c 0.87973,0.01 1.87645,0.091 2.9746,0.2539 l 4.0625,0.6016 0,1.1074 c 10e-6,0.6094 -0.51518,1.1074 -1.14648,1.1074 -0.6312,0 -1.8969,0.202 -2.8125,0.4492 -2.4197,0.6533 -7.29101,-0.4504 -7.29102,-1.6523 0,-1.2283 1.5737,-1.8884 4.2129,-1.8672 z m 58.2871,0.5703 1.25,0 1.25,0 0,1.9063 0,1.9062 2.95508,1.1231 2.95508,1.123 0.68555,1.7891 0.6875,1.791 4.5957,0.7461 c 2.5274,0.4101 5.38948,1.4041 6.35938,2.209 l 1.76171,1.4629 0,2.9726 0,2.9707 -3.55078,0 c -1.9533,0 -6.29007,0.8242 -9.63867,1.8321 l -6.08984,1.8339 -2.75781,-0.6933 -2.75586,-0.6914 -1.55664,2.9218 c -0.8563,1.6073 -2.45022,3.6079 -3.54102,4.4454 -1.0908,0.8375 -2.68747,1.5405 -3.54688,1.5625 l -1.5625,0.039 0,-1.875 0,-1.875 -3.4375,-0.02 c -1.89058,-0.01 -4.20523,-0.5045 -5.14453,-1.0996 l -1.70703,-1.0821 1.23047,-2.2011 1.23242,-2.2032 -0.60742,-2.3222 -0.60742,-2.3223 0.98437,0 c 0.5417,0 2.00375,0.9227 3.24805,2.0488 l 2.26172,2.0469 1.92187,-1.5937 1.91993,-1.5938 5.91601,0.7071 c 3.2534,0.3893 6.89847,1.0884 8.10156,1.5546 l 2.1875,0.8477 0,-2.0078 0,-2.0098 -1.39062,0 -1.39258,0 0.5586,-3.8027 0.55859,-3.8028 -3.85352,0.8301 -3.85547,0.8301 -0.99804,1.7227 c -0.5498,0.9476 -1.5342,1.7226 -2.1875,1.7226 l -1.18946,0 0,-3.1875 0,-3.1894 4.375,-1.8282 4.375,-1.8281 0,-1.8574 0,-1.8594 z m -33.99804,1.0879 0.76172,1.2305 0.75976,1.2304 -1.97461,1.9766 c -2.2778,2.2778 -2.65611,2.3719 -3.57031,0.8926 l -0.66797,-1.084 2.34571,-2.123 2.3457,-2.1231 z m 49.1543,1.1524 0.75585,0.7558 0.75586,0.7559 -2.39648,-0.1 -2.39649,-0.1 1.64063,-0.6563 1.64063,-0.6562 z m -41.40626,2.7597 0,1.25 0,1.25 -1.5625,-0.02 c -0.8594,-0.01 -2.40628,-0.564 -3.4375,-1.2305 l -1.875,-1.2109 3.4375,-0.02 3.4375,-0.019 z m 1.10352,0 2.5,0 2.5,0 0.77148,1.25 0.77344,1.25 -2.5,0 -2.5,0 -0.77344,-1.25 -0.77148,-1.25 z m -127.04691,1.25 2.4395,0 2.4375,0 -0.416,2.1875 -0.418,2.1875 -2.5371,0.3653 c -1.3963,0.2009 -2.9327,-0.028 -3.4141,-0.5098 l -0.875,-0.875 1.3907,-1.6777 1.3925,-1.6778 z m 79.69339,2.084 0.83399,0.834 0.83398,0.832 -1.66797,0 -1.66601,0 0.83398,-0.832 0.83203,-0.834 z m 58.75,0.416 1.11719,0 c 0.6139,0 1.41915,0.7898 1.78907,1.7539 l 0.67187,1.752 -0.74609,0.748 c -0.4109,0.4109 -1.21617,0.7461 -1.78907,0.7461 l -1.04297,0 0,-2.5 0,-2.5 z m -50,0.5195 7.8125,0.1973 c 4.29691,0.1083 8.85807,0.2721 10.13477,0.3653 l 2.32031,0.1679 -0.67187,1.752 -0.67188,1.7519 2.53907,0.6641 2.53906,0.6641 -0.6543,1.0605 c -0.3607,0.5836 -2.38715,1.1944 -4.50195,1.3555 l -3.84571,0.2929 0,-1.8965 0,-1.8945 -1.5625,-0.072 c -4.84189,-0.2232 -11.15109,-1.1622 -12.21289,-1.8184 -0.6729,-0.4159 -1.22461,-1.1694 -1.22461,-1.6738 l 0,-0.9161 z m -36.7246,0.2813 2.19726,0.8437 2.19531,0.8418 -0.39648,3.4454 -0.39649,3.4433 -4.85351,0.3985 -4.85348,0.3984 0.791,-2.0625 c 0.4353,-1.1344 0.791,-2.5796 0.791,-3.2109 l 0,-1.1485 1.77148,0 1.77148,0 0.49219,-1.4746 0.49024,-1.4746 z m 17.0371,0.1367 -0.54687,1.6406 c -0.3008,0.9023 -1.2851,1.8867 -2.1875,2.1875 l -1.64063,0.5469 0.54688,-1.6406 c 0.3008,-0.9024 1.2851,-1.8868 2.1875,-2.1875 l 1.64062,-0.5469 z m 47.1875,1.5625 3.125,0 3.125,0 0,1.25 0,1.25 -3.125,0 -3.125,0 0,-1.25 0,-1.25 z m -126.24999,3.75 2.5,0 2.5,0 0,1.875 0,1.875 -1.666,0 c -1.8926,0 -3.334,-1.1692 -3.334,-2.707 l 0,-1.043 z m 133.80078,3.3008 1.52734,1.5273 1.52734,1.5274 -1.86523,1.1777 c -1.0255,0.6484 -3.13082,1.1892 -4.67774,1.1992 l -2.8125,0.018 0,-1.039 c 0,-0.5713 1.4177,-1.7975 3.1504,-2.7247 l 3.15039,-1.6855 z m 56.71484,3.0449 c 2.14532,0.067 3.73484,0.7772 4.14453,2.0078 l 0.49219,1.4786 -2.5,1.3378 -2.5,1.3379 -0.70117,-1.1367 -0.70313,-1.1367 -2.49805,0.6543 -2.5,0.6543 0,-1.9981 0,-1.9961 3.02735,-0.7597 c 0.97407,-0.2445 1.91414,-0.386 2.78711,-0.4317 0.32736,-0.017 0.6447,-0.021 0.95117,-0.012 z m -144.26562,1.1543 c 0.6875,0 1.25,0.5625 1.25,1.25 0,0.6875 -0.5625,1.25 -1.25,1.25 -0.6875,0 -1.25,-0.5625 -1.25,-1.25 0,-0.6875 0.5625,-1.25 1.25,-1.25 z m 118.64257,2.1914 1.92969,0.7403 c 1.0609,0.4071 1.92774,1.3202 1.92773,2.0293 0,1.5876 -1.29319,1.6179 -3.71289,0.088 l -1.83789,-1.1621 0.84571,-0.8476 0.84765,-0.8477 z m -105.51758,2.1641 2.8125,1.7168 c 1.5469,0.9441 2.8125,2.2138 2.8125,2.8222 l 0,1.1075 -2.1875,-0.1934 c -1.20308,-0.1065 -5.15129,-0.7735 -8.77539,-1.4824 l -6.5898,-1.2891 0.4336,-1.3008 0.4336,-1.3007 5.5312,-0.039 5.52929,-0.041 z m 115.37305,0.2812 2.31445,0.9395 2.3125,0.9394 -2.8125,1.3086 -2.8125,1.3086 0,1.6836 0,1.6856 1.29102,0 c 0.7091,0 1.61146,-0.8414 2.00586,-1.8692 l 0.7168,-1.8691 4.71093,0.7539 4.71289,0.7519 0.7129,-1.1542 0.71484,-1.1563 9.12109,1.3731 9.1211,1.371 0.41211,2.1485 0.41406,2.1504 -1.3418,0 -1.3418,0 0,1.875 c 0,1.8721 -0.2219,1.9415 -3.75,1.1797 -1.0312,-0.2227 -5.79453,-0.7785 -10.58593,-1.2344 l -8.71094,-0.8281 2.14844,-1.5723 c 2.8212,-2.0629 2.72003,-3.1699 -0.28907,-3.1699 l -2.4375,0 -1.07031,1.914 -1.07226,1.9141 -4.80274,0.7793 -4.80273,0.7793 -1.74219,-2.3809 c -0.9577,-1.3099 -2.12485,-2.198 -2.59375,-1.9746 -0.4688,0.2235 -1.03852,-0.1527 -1.26562,-0.834 l -0.41211,-1.2382 2.25586,-0.584 2.25585,-0.586 -2.88476,-0.1445 -2.88672,-0.1445 0.7207,-1.168 0.72266,-1.168 4.47656,0.7266 4.47852,0.7266 0.99804,-1.6172 0.99805,-1.6153 z m -79.74805,1.1973 0.83399,0.834 0.83398,0.832 -0.83398,0.834 -0.83399,0.834 0,-1.668 0,-1.666 z m -26.25,0.416 3.19922,0 3.19922,0 -0.77344,1.25 -0.77148,1.25 -2.42578,0 -2.42774,0 0,-1.25 0,-1.25 z m 50.625,0.4453 0,0 5.3125,0.5332 5.3125,0.5332 0,1.1172 0,1.1172 -9.0625,-0.049 -9.0625,-0.049 3.75,-1.6035 3.75,-1.6016 z m 40.48438,0.5703 1.32031,0.8165 c 2.3598,1.4583 1.41511,2.868 -3.71679,5.5429 -5.6615,2.9509 -6.97649,3.1753 -8.0879,1.377 l -0.77148,-1.25 -2.5,0 -2.5,0 0.77148,-1.25 0.77344,-1.25 2.97656,0 2.97852,0 0.77148,1.25 c 0.42491,0.6875 1.36851,1.25 2.09571,1.25 l 1.32226,0 -0.65625,-2.5059 -0.65429,-2.5058 2.9375,-0.7364 2.93945,-0.7383 z m -117.35937,6.4864 c 0.6875,0 1.25,0.5625 1.25,1.25 0,0.6875 -0.5625,1.25 -1.25,1.25 -0.6875,0 -1.25,-0.5625 -1.25,-1.25 0,-0.6875 0.5625,-1.25 1.25,-1.25 z m 28.74999,0.062 0,2.8945 0,2.8965 -5.3125,0.047 c -2.92189,0.026 -6.43749,-0.4063 -7.8125,-0.9629 l -2.49999,-1.0117 2.56249,-0.088 c 1.40941,-0.048 3.09691,-0.5773 3.75,-1.1739 0.65312,-0.5966 3.01561,-1.4262 5.25,-1.8437 l 4.0625,-0.7578 z m 62.7754,1.9082 0,0 1.73632,2.377 1.73828,2.375 -3.89257,1.6367 c -4.5264,1.9033 -6.10743,2.0529 -6.10743,0.5781 0,-0.5824 -1.26558,-1.67 -2.8125,-2.416 l -2.8125,-1.3574 2.75391,-0.084 c 1.5145,-0.046 4.24782,-0.7655 6.07422,-1.5977 l 3.32227,-1.5136 z m 42.2246,0.5293 2.5,0 2.5,0 0,1.875 c 0,1.0312 -0.4219,1.8294 -0.9375,1.7754 -2.1053,-0.2216 -4.0625,-1.4291 -4.0625,-2.5059 l 0,-1.1445 z m -2.5,4.582 0.83399,0.834 0.83398,0.834 -1.66797,0 -1.66601,0 0.83398,-0.834 0.83203,-0.834 z m -14.88085,0.5215 0.71875,1.8691 0.71679,1.8692 -2.2207,2.4531 c -1.2212,1.3494 -3.00931,2.4551 -3.97461,2.4551 l -1.75586,0 0.68555,1.1074 0.68359,1.1094 -1.99023,1.6523 c -1.0953,0.909 -2.48118,2.9405 -3.08008,4.5156 l -1.08985,2.8653 -2.45703,0 -2.45703,0 -0.77344,1.25 c -1.0958,1.773 -2.56786,1.5511 -4.40624,-0.6641 l -1.5879,-1.9141 2.35743,-1.7265 c 1.2976,-0.9488 2.72492,-1.4997 3.16992,-1.2246 l 0.80859,0.5 0.69336,-2.6485 0.69141,-2.6484 1.82617,0.7012 1.82617,0.7011 -0.26562,-1.8183 c -0.1468,-1.0003 -1.49851,-2.682 -3.00391,-3.7363 l -2.73828,-1.918 -1.24805,0.7715 -1.24805,0.7715 0,2.8007 0,2.8008 -4.3457,-0.5078 -4.34765,-0.5078 1.32226,-2.4746 1.32422,-2.4727 0.75,0.75 0.75,0.7481 3.44336,-3.2989 3.44336,-3.2988 8.89062,-0.416 8.88868,-0.416 z m 19.88085,1.1465 1.29102,0 c 0.7091,0 1.62872,0.8861 2.04492,1.9707 l 0.75782,1.9726 -2.04688,2.045 -2.04688,2.0468 0,-4.0176 0,-4.0175 z m 7.5,0.832 0.83399,0.834 0.83398,0.834 -0.83398,0.832 -0.83399,0.834 0,-1.666 0,-1.668 z m -136.78319,1.043 2.4551,0.4297 c 3.1227,0.5487 3.5225,0.9663 2.5058,2.6113 l -0.8242,1.334 -2.5176,0 -2.5175,0 0.4492,-2.1875 0.4492,-2.1875 z m 145.53319,1.7265 0,1.9493 0,1.9492 -1.25,0 c -0.6875,0 -1.25,-0.5309 -1.25,-1.1778 0,-0.647 0.5625,-1.5223 1.25,-1.9472 l 1.25,-0.7735 z m -73.67578,2.6485 c 0.6469,0 1.17578,0.5625 1.17578,1.25 l 0,1.25 -1.94726,0 -1.94922,0 0.77148,-1.25 c 0.4249,-0.6875 1.30222,-1.25 1.94922,-1.25 z m 64.92578,0 1.94922,0 1.94922,0 -0.77344,1.25 c -0.42489,0.6875 -1.30026,1.25 -1.94726,1.25 -0.6469,0 -1.17773,-0.5625 -1.17774,-1.25 l 0,-1.25 z m -73.66015,5 3.00586,0 3.00781,0 0.77148,1.25 0.77344,1.25 2.89844,0 2.89844,0 1.60742,1.9375 1.60937,1.9375 -2.81054,0.7363 -2.8125,0.7344 1.66797,1.0312 1.66796,1.0313 -1.98242,1.9843 -1.98047,1.9825 -1.68164,-2.0254 -1.67968,-2.0235 -2.39258,0.625 -2.39063,0.625 -4.22851,-2.1015 c -4.4482,-2.2106 -5.53853,-3.9746 -2.45703,-3.9746 l 1.83007,0 1.33789,-2.5 1.33985,-2.5 z m 44.91015,0.9804 1.97852,0.7598 c 1.0875,0.4173 3.4781,0.8034 5.3125,0.8574 l 3.33398,0.1 -1.5625,0.6289 -1.5625,0.6309 0,2.3965 0,2.3965 -1.25,0 c -0.6875,0 -1.25,0.5625 -1.25,1.25 l 0,1.25 2.5,0 2.5,0 0,1.8652 0.002,0 0,1.8652 -4.99805,-0.1953 c -2.748,-0.1076 -5.2808,-0.48 -5.62891,-0.8281 -0.34819,-0.3481 0.2259,-1.9452 1.2754,-3.5469 l 1.9082,-2.9121 -1.94336,0 -1.94336,0 -0.71875,1.875 -0.71875,1.875 -4.86719,0 -4.86523,0 0.0312,-0.9375 c 0.0178,-0.5156 2.25505,-1.9621 4.97265,-3.2148 l 4.94141,-2.2774 1.27734,0.7891 1.27539,0.7891 0,-2.7071 0,-2.709 z m 28.90626,1.2579 0.75585,0.7558 0.75586,0.7559 -2.39648,-0.1 -2.39649,-0.1 1.64063,-0.6563 1.64063,-0.6562 z m -92.82032,0.2617 4.30469,0 4.30469,0 1.43359,1.7285 1.43555,1.7285 -2.00977,0.7715 c -1.1051,0.424 -3.91043,0.7715 -6.23633,0.7715 l -4.22851,0 -1.33985,2.5 -1.33789,2.5 -1.83007,0 -1.83204,0 0,-1.291 c 10e-6,-0.7091 0.80898,-1.5995 1.79688,-1.9786 l 1.79688,-0.6875 -0.64454,-1.6757 -0.64257,-1.6758 2.51562,-1.3457 2.51367,-1.3457 z m 110.3125,0 5.44922,0 c 2.997,0 6.33838,0.3405 7.42578,0.7578 l 1.97656,0.7597 0,1.711 0,1.7129 -4.9375,-0.2832 c -2.716,-0.1561 -6.37581,-0.7539 -8.13281,-1.3281 l -3.19531,-1.045 0.70703,-1.1426 0.70703,-1.1425 z m -167.30663,0.061 c 0.9438,0.01 2.1845,0.389 3.373,1.1406 2.3488,1.4851 1.4421,2.1484 -2.1523,1.5743 l -2.8125,-0.4493 0,-1.164 c 0,-0.7426 0.648,-1.1088 1.5918,-1.1016 z m 29.65819,4.2481 5.34961,0.1 c 2.9415,0.055 6.03877,0.528 6.88477,1.0508 l 1.53906,0.9511 2.80078,-0.7871 2.80078,-0.7871 -1.875,1.3242 -1.875,1.3242 -7.24414,-0.2578 c -7.0635,-0.2518 -8.38086,-0.5908 -8.38086,-2.1562 l 0,-0.7617 z m 67.5,1.5234 0.83399,0.834 0.83398,0.834 -1.66797,0 -1.66601,0 0.83398,-0.834 0.83203,-0.834 z m -82.65819,0.2441 2.8633,1.5332 2.8652,1.5332 -2.4726,0.9649 c -3.4059,1.3305 -5.3265,1.3413 -6.1348,0.033 l -0.6836,-1.1074 1.7812,-1.4785 1.7813,-1.4786 z m 8.90819,1.0059 0.83399,0.834 0.83398,0.834 -0.83398,0.832 -0.83399,0.834 0,-1.666 0,-1.668 z m 114.0293,2.918 1.23828,0 -0.76367,1.9902 -0.76367,1.9902 2.50586,0.6543 c 1.3779,0.3603 2.50391,1.1525 2.5039,1.7598 l 0,1.1055 -4.16601,0 c -2.2916,0 -4.51305,-0.3471 -4.93555,-0.7696 l -0.76758,-0.7675 1.95313,-2.9825 c 1.0746,-1.64 2.51331,-2.9804 3.19531,-2.9804 z m -20.11133,2.25 0.81836,0.8164 0.81641,0.8183 -1.63086,1.0078 -1.63086,1.0098 2.07031,0.793 2.07032,0.7949 2.32812,-1.2461 c 3.2832,-1.7571 3.74024,-1.5876 3.74023,1.3731 l 0,2.6171 2.5,0.6524 c 2.6451,0.6917 3.47756,2.8633 1.09766,2.8633 l -1.40234,0 1.55468,1.875 1.55665,1.875 -1.32813,0 c -0.7311,0 -1.66196,-0.5378 -2.06836,-1.1953 l -0.74023,-1.1954 -2.14649,0.6875 -2.14844,0.6875 1.8418,-1.3007 1.83985,-1.2989 -2.15235,-0.8261 -2.1543,-0.8262 -1.92773,0.7402 -1.92969,0.7403 -5.02734,-3.1739 -5.02734,-3.1738 0.5039,-1.4961 0.50586,-1.4941 2.38867,0 c 1.3143,0 3.12996,-0.4781 4.03516,-1.0625 l 1.64648,-1.0625 z m 46.40821,0.9316 c 1.70264,0.018 2.17382,0.8972 2.17382,3.1426 l 0,2.1582 -1.67578,0.6426 -1.67578,0.6425 -1.22656,-0.8222 c -0.6753,-0.452 -1.56963,-1.7466 -1.98633,-2.8789 l -0.75781,-2.0586 3.00781,-0.5762 c 0.86908,-0.1661 1.57308,-0.256 2.14063,-0.25 z m -15.47266,0.5684 2.64648,0 2.64844,0 -0.77344,1.25 c -0.42489,0.6875 -1.26868,1.25 -1.875,1.25 -0.60639,0 -1.4501,-0.5625 -1.875,-1.25 l -0.77148,-1.25 z m -151.45121,2.5664 0.7989,0.8008 c 0.4397,0.4397 0.7988,1.2668 0.7988,1.8398 0,1.4101 -2.1769,1.3245 -3.0703,-0.1211 l -0.7188,-1.1641 1.0957,-0.6777 1.0957,-0.6777 z m 26.45121,1.1836 1.875,0 c 1.0312,0 2.2216,0.5625 2.64648,1.25 l 0.77344,1.25 -1.875,0 c -1.0312,0 -2.22353,-0.5625 -2.64844,-1.25 l -0.77148,-1.25 z m 3.89648,3.75 c 0.6875,0 1.25,0.5625 1.25,1.25 0,0.6875 -0.5625,1.25 -1.25,1.25 -0.6875,0 -1.25,-0.5625 -1.25,-1.25 0,-0.6875 0.5625,-1.25 1.25,-1.25 z m 169.03516,0.074 c 0.63458,0 0.96485,0.3927 0.96484,1.1758 l 0,1.25 -2.8125,-0.02 -2.8125,-0.019 1.875,-1.2109 c 1.2117,-0.7831 2.15059,-1.1758 2.78516,-1.1758 z m -45.21094,2.4258 1.32422,0 -0.77344,1.25 c -0.42489,0.6875 -1.01906,1.25 -1.32226,1.25 -0.3031,0 -0.55273,-0.5625 -0.55274,-1.25 0,-0.6875 0.59612,-1.25 1.32422,-1.25 z m 9.30078,0.1797 1.71094,1.664 1.71094,1.666 -0.84766,1.3692 c -0.4656,0.7535 -1.51518,1.335 -2.33398,1.291 -2.6794,-0.1426 -7.11523,-2.3144 -7.11524,-3.4844 l 0,-1.1445 3.4375,-0.6817 3.4375,-0.6796 z m -46.875,3.8613 4.0625,0.3418 c 2.23442,0.1879 5.1875,0.4446 6.5625,0.5683 l 2.5,0.2247 -2.5,1.0742 c -4.8151,2.0691 -10.62499,1.3512 -10.625,-1.3125 l 0,-0.8965 z m -12.49609,1.584 4.68555,0.1308 c 2.5773,0.072 5.38865,0.2125 6.24804,0.3125 l 1.5625,0.1817 0,1.4238 c 0,0.7836 0.93513,2.1095 2.07813,2.9453 l 2.07813,1.5195 -0.70899,1.8477 0.004,0 -0.70899,1.8496 -4.18164,0.082 c -5.0206,0.099 -7.30664,-0.6673 -7.30664,-2.4472 0,-0.7263 0.9844,-2.0751 2.1875,-2.9981 l 2.1875,-1.6797 -4.0625,0.7598 -4.0625,0.7598 0,-2.3438 0,-2.3437 z m 29.99609,0.207 0.83399,0.834 0.83398,0.834 -1.66797,0 -1.66601,0 0.83398,-0.834 0.83203,-0.834 z m 8.33399,1.043 2.08398,0 2.08203,0 0.3125,1.25 0.3125,1.25 -2.95117,0.4179 -2.95117,0.4161 0.55664,-1.6661 0.55469,-1.6679 z m -3.33399,1.457 0.83399,0.834 0.83398,0.834 -1.66797,0 -1.66601,0 0.83398,-0.834 0.83203,-0.834 z m 36.00586,6.3086 5.38868,0.8613 c 2.9635,0.4739 5.67383,1.1485 6.02343,1.4981 0.3497,0.3497 -0.19182,1.1592 -1.20312,1.7988 -1.0114,0.6396 -2.97006,1.1716 -4.35156,1.1816 l -2.51172,0.02 -1.67188,-2.6797 -1.67383,-2.6797 z m -35.16406,0.9844 5.51758,0 5.51562,0 0,1.7695 0,1.7715 -1.25,0.1953 c -0.6875,0.1075 -3.39287,-0.023 -6.01367,-0.2891 l -4.76562,-0.4824 0.49805,-1.4824 0.49804,-1.4824 z m 67.3125,1.875 2.94922,0 0.69141,1.1191 0.6914,1.1192 -1.9707,0.7558 c -1.0836,0.4157 -3.61089,0.7559 -5.61719,0.7559 l -3.64844,0 0,-1.1172 c 0,-1.4347 3.1438,-2.6328 6.9043,-2.6328 z m -189.40429,1.25 1.25,0 1.25,0 0,1.875 0,1.875 -1.25,0 -1.25,0 0,-1.875 0,-1.875 z m 152.49999,1.25 2.60547,0 2.60352,0 -0.51953,1.5625 c -0.2862,0.8594 -1.45927,1.7445 -2.60547,1.9668 l -2.08399,0.4043 0,-1.9668 0,-1.9668 z m -169.93949,9.5586 1.4708,1.4707 1.4687,1.4707 2.875,0 2.875,0 0,1.25 0,1.25 -3.6465,0 c -2.0062,0 -4.3969,0.2748 -5.3125,0.6113 l -1.666,0.6113 -1.5918,-1.0156 -1.5918,-1.0176 2.5586,-2.3144 2.5605,-2.3164 z m 174.93949,0.4414 1.94922,0 1.94922,0 -0.77344,1.25 c -0.42489,0.6875 -1.30026,1.25 -1.94726,1.25 -0.6469,0 -1.17773,-0.5625 -1.17774,-1.25 l 0,-1.25 z m -9.30078,7.5 c 0.3031,0 0.55078,0.5625 0.55078,1.25 10e-6,0.6875 -0.59416,1.25 -1.32226,1.25 l -1.32422,0 0.77148,-1.25 c 0.4249,-0.6875 1.02102,-1.25 1.32422,-1.25 z m -201.86911,0.1093 1.8359,0.7032 c 1.0093,0.3872 1.834,1.2063 1.834,1.8203 0,1.2826 -2.9396,1.5076 -4.1309,0.3164 -0.4396,-0.4397 -0.517,-1.2587 -0.1699,-1.8203 l 0.6309,-1.0196 z m 37.4199,3.2227 0.834,0.834 0.834,0.834 -1.668,0 -1.666,0 0.834,-0.834 0.832,-0.834 z m 202.45898,2.459 0.69922,0.6992 0.70117,0.7012 -2.24219,0.8535 -2.24219,0.8516 1.54297,-1.5528 1.54102,-1.5527 z m -204.95898,0.459 c 0.6875,0 1.25,0.5625 1.25,1.25 0,0.6875 -0.5625,1.25 -1.25,1.25 -0.6875,0 -1.25,-0.5625 -1.25,-1.25 0,-0.6875 0.5625,-1.25 1.25,-1.25 z m 219.85351,0 1.94922,0 1.94726,0 0,1.25 c 10e-6,0.6875 -0.52878,1.25 -1.17578,1.25 -0.6469,0 -1.52432,-0.5625 -1.94922,-1.25 l -0.77148,-1.25 z m -2.35352,11.25 2.1875,0.017 c 1.2031,0.011 3.03122,0.6227 4.0625,1.3594 l 1.875,1.3399 -2.76562,-0.6055 -2.76562,-0.6035 -1.44922,1.7461 -1.44922,1.7461 -2.66016,-0.084 -2.66016,-0.086 2.8125,-1.3555 c 1.54682,-0.746 2.8125,-1.8337 2.8125,-2.416 l 0,-1.0586 z m -40,2.082 0.83399,0.834 0.83398,0.834 -1.66797,0 -1.66601,0 0.83398,-0.834 0.83203,-0.834 z m -179.99999,1.25 0.834,0.834 0.834,0.834 -0.834,0.832 -0.834,0.834 0,-1.666 0,-1.668 z m 202.49999,1.25 0.83399,0.834 0.83398,0.834 -1.66797,0 -1.66601,0 0.83398,-0.834 0.83203,-0.834 z m 2.5,0.418 1.875,0 1.875,0 0,1.25 0,1.25 -1.875,0 -1.875,0 0,-1.25 0,-1.25 z m -185.91409,1.1992 4.3067,0.8086 4.3086,0.8066 0.67965,1.7715 c 0.9167,2.389 0.22055,2.7905 -2.75585,1.5938 -1.375,-0.5529 -4.3281,-1.0428 -6.5625,-1.0918 l -4.0625,-0.088 0,-1.1172 c 0,-0.614 0.9195,-1.4693 2.043,-1.9004 l 2.0429,-0.7832 z m 152.20706,0.8418 1.47852,1.4785 c 0.8136,0.8135 2.38413,1.4805 3.49023,1.4805 1.1061,0 3.103,0.8246 4.4375,1.834 l 2.42578,1.8359 -2.5,-0.1309 c -4.94979,-0.2582 -7.96893,-1.2216 -9.46093,-3.0195 l -1.51953,-1.8301 0.82422,-0.8242 0.82421,-0.8242 z m -160.51956,0.459 1.875,0 -0.7734,1.25 c -0.4249,0.6875 -1.6153,1.25 -2.6465,1.25 l -1.875,0 0.7715,-1.25 c 0.4249,-0.6875 1.6172,-1.25 2.6484,-1.25 z m 154.84964,4.0859 c 1.51241,0.065 3.94278,0.6516 5.79297,1.4297 l 3.84375,1.6172 -1.69141,0.5097 c -0.9306,0.2799 -3.80275,0.3284 -6.38086,0.1075 l -4.6875,-0.4024 0,-1.5332 0,-1.5332 2.53516,-0.1914 c 0.17428,-0.013 0.37183,-0.013 0.58789,0 l 0,0 z m -163.26364,0.6777 1.3203,0.8165 1.3203,0.8164 0,3.2832 0,3.2832 2.7188,2.8925 2.7187,2.8946 -5.7695,0 -5.7696,0 -0.8593,-1.3907 -0.8594,-1.3886 1.4707,-0.9082 1.4687,-0.9082 -1.9336,-1.6055 -1.9355,-1.6055 0,-2.3222 0,-2.3243 3.0547,-0.7656 3.0547,-0.7676 z m 19.3125,2.334 -0.7383,1.9239 -0.7363,1.9238 1.2578,1.2598 1.2597,1.2597 -6.6699,-0.1269 -6.6699,-0.125 2.2793,-0.4668 2.2793,-0.4649 -0.6758,-1.7656 -0.6777,-1.7656 1.5234,-0.018 c 0.8378,-0.01 2.8821,-0.3813 4.5449,-0.8262 l 3.0235,-0.8086 z m -59.3184,1.6524 1.3242,0 c 0.7281,0 1.3223,0.5625 1.3223,1.25 0,0.6875 -0.2477,1.25 -0.5508,1.25 -0.3032,0 -0.8993,-0.5625 -1.3242,-1.25 l -0.7715,-1.25 z m 77.02149,3.789 2.84766,0.7598 2.84766,0.7598 -0.78516,2.6582 c -0.4324,1.4617 -1.71395,3.4007 -2.84766,4.3086 l -2.0625,1.6504 0.37891,1.3593 0.37891,1.3594 -1.62891,1.0332 c -2.0827,1.3211 -4.59003,1.2272 -8.45703,-0.3164 -3.96257,-1.5817 -3.99847,-1.6295 -3.06637,-4.0586 l 0.7871,-2.0527 1.60739,0 1.60938,0 0.71875,1.875 0.71875,1.875 2.63867,0 2.63867,0 -0.75976,-3.4629 -0.75977,-3.461 1.59766,-2.1445 1.59765,-2.1426 z m -11.87499,2.043 0.83398,0.834 0.83398,0.834 -1.66796,0 -1.666,0 0.834,-0.834 0.832,-0.834 z m -9.6367,1.6074 2.2715,2.0567 2.2734,2.0566 1.9219,-0.7383 1.9199,-0.7363 0,1.2109 0,1.211 -4.1348,0 -4.1367,0 -2.289,-1.6739 -2.2891,-1.6738 2.2305,-0.8574 2.2324,-0.8555 z m 155.88669,2.9922 3.76563,0.5527 c 2.0709,0.3038 4.07332,1.05 4.44922,1.6582 l 0.68359,1.1075 -3.61523,0 c -3.5292,0 -5.28321,-0.8272 -5.28321,-2.4922 l 0,-0.8262 z m 67.5,0.8184 1.875,0 c 1.03121,0 1.87501,0.2201 1.875,0.4902 10e-6,0.2702 -0.84378,0.8152 -1.875,1.2109 l -1.875,0.7188 0,-1.209 0,-1.2109 z m -222.49999,3.75 c 0.6875,0 1.25,0.5625 1.25,1.25 0,0.6875 -0.5625,1.25 -1.25,1.25 -0.6875,0 -1.25,-0.5625 -1.25,-1.25 0,-0.6875 0.5625,-1.25 1.25,-1.25 z m 210.62499,0.334 4.12305,1.1328 4.1211,1.1347 0.70507,1.8399 0.70704,1.8398 -1.54297,1.8594 c -1.7956,2.1635 -3.27508,2.3701 -4.36329,0.6094 l -0.77148,-1.25 -2.46484,0 -2.4668,0 -0.75586,-1.9727 -0.75781,-1.9726 1.73437,-1.6094 1.73242,-1.6113 z m -231.87499,0.7675 1.25,0.7735 c 0.6875,0.4249 1.25,1.0191 1.25,1.3222 0,0.3032 -0.5625,0.5528 -1.25,0.5528 -0.6875,0 -1.25,-0.5962 -1.25,-1.3242 l 0,-1.3243 z m 30.1348,2.6485 c 0.61396,0 1.11519,0.4536 1.11519,1.0097 l 0.002,0 c 0,0.556 -0.82649,2.1029 -1.83589,3.4375 l -1.836,2.4278 -0.039,-1.461 c -0.065,-2.3747 1.3915,-5.414 2.5938,-5.414 z m 194.75777,0.9414 1.92969,0.7402 c 1.0609,0.4071 1.92774,1.3203 1.92773,2.0293 l 0,1.2891 -1.80078,0 c -0.9906,0 -2.1719,-0.6007 -2.625,-1.334 l -0.82422,-1.332 0.69727,-0.6973 0.69531,-0.6953 z m -22.47851,2.8222 2.97461,1.3555 2.97265,1.3535 -0.57812,3.0254 -0.57813,3.0254 2.33594,-0.2109 c 1.2845,-0.1158 3.31839,-0.1202 4.52148,-0.012 l 2.1875,0.1992 0,1.25 0,1.25 -2.5,0 -2.5,0 -0.14648,1.5625 c -0.0813,0.8594 -0.057,2.2656 0.0547,3.125 l 0.20117,1.5625 -1.30469,0 c -0.7176,0 -1.30469,-0.5625 -1.30469,-1.25 l 0,-1.25 -2.5,0 -2.5,0 0,-3.6875 0,-3.6875 -1.72265,-1 -1.72266,-1 1.05469,-2.8047 1.05469,-2.8067 z m -236.16406,1.668 3.75,0.5508 3.75,0.5508 0,1.1074 0,1.1094 -2.916,0 c -2.9,0 -4.584,-0.9154 -4.584,-2.4922 l 0,-0.8262 z m 28.3203,0.7149 3.3399,1.2714 c 1.8373,0.6986 3.3398,1.565 3.3398,1.9258 0,0.9814 -5.2706,0.6248 -8.125,-0.5488 l -2.5,-1.0274 1.9727,-0.8105 1.9726,-0.8105 z m 229.37696,1.4628 c 0.44167,0.013 0.87617,0.047 1.27539,0.1036 l 2.90234,0.4121 0,1.25 0,1.25 -3.94335,0.3828 -3.94532,0.3828 -0.82226,-1.3301 -0.82227,-1.3281 1.86328,-0.7168 c 0.76868,-0.2954 2.16718,-0.4449 3.49219,-0.4063 z m -29.09375,1.1407 1.32422,0 c 0.7281,0 1.32227,0.5625 1.32226,1.25 10e-6,0.6875 -0.24758,1.25 -0.55078,1.25 -0.3031,0 -0.89932,-0.5625 -1.32422,-1.25 l -0.77148,-1.25 z m -158.60352,1.25 c 0.6875,0 1.25,0.5625 1.25,1.25 0,0.6875 -0.5625,1.25 -1.25,1.25 -0.6875,0 -1.25,-0.5625 -1.25,-1.25 0,-0.6875 0.5625,-1.25 1.25,-1.25 z m 163.75,3.332 0.83399,0.834 0.83398,0.834 -1.66797,0 -1.66601,0 0.83398,-0.834 0.83203,-0.834 z m 33.75,0 0.83399,0.834 0.83398,0.834 -0.83398,0.832 -0.83399,0.834 0,-1.666 0,-1.668 z m -45,0.418 4.6875,0.017 4.6875,0.02 -1.875,1.2129 c -1.03129,0.6665 -3.14069,1.2174 -4.6875,1.2304 l -2.8125,0.02 0,-1.25 0,-1.25 z m 26.875,3.125 1.8379,0 1.83593,0 0.20508,4.0625 0.20508,4.0625 -2.14649,0 c -1.17998,0 -2.50365,-0.3612 -2.94335,-0.8008 l -0.80079,-0.7988 0.8711,-1.3887 c 0.4787,-0.7635 0.88629,-2.2305 0.9043,-3.2617 l 0.0312,-1.875 z m -214.37499,3.125 c 0.6875,0 1.25,0.5625 1.25,1.25 0,0.6875 -0.5625,1.25 -1.25,1.25 -0.6875,0 -1.25,-0.5625 -1.25,-1.25 0,-0.6875 0.5625,-1.25 1.25,-1.25 z m 241.24999,1.25 3.19922,0 3.19922,0 -0.77344,1.25 -0.77148,1.25 -2.42578,0 -2.42774,0 0,-1.25 0,-1.25 z m -10,3.75 1.80274,0 c 0.9907,0 2.14738,0.5625 2.57226,1.25 l 0.77344,1.25 -2.57422,0 -2.57422,0 0,-1.25 0,-1.25 z m -2.5,0 0,0.9961 c 0,0.55 -0.67498,1.675 -1.5,2.5 l -1.5,1.5 1.45704,1.4551 1.45703,1.457 -2.14453,1.6289 0,0.01 -2.14454,1.6289 -7.11328,0.039 -7.11328,0.041 -0.84765,-1.3711 -0.84571,-1.3691 1.71094,-1.6523 c 0.9407,-0.9091 3.09145,-1.8404 4.78125,-2.0684 l 3.07422,-0.4141 1.37305,2.7227 1.37304,2.7227 1.625,-1.004 1.625,-1.0039 -1.26562,-0.7832 -1.26563,-0.7812 1.44532,-3.1153 1.44335,-3.1132 2.1875,-0.014 2.1875,-0.012 z m 14.30274,2.4961 3.05078,0 0.73828,1.1953 0.73828,1.1953 1.83594,-0.7051 1.83398,-0.7031 0,1.5215 0,1.5234 -4.375,-0.8203 -4.375,-0.8203 0,1.3066 0,1.3067 -2.00781,0 -2.00781,0 0.75781,-1.9785 c 0.4173,-1.0875 0.75781,-2.2125 0.75781,-2.5 0,-0.2875 1.37454,-0.5215 3.05274,-0.5215 z m -36.60547,1.875 0.6582,1.6406 -0.002,0 0.65625,1.6406 -0.75391,0.7539 -0.75586,0.7559 0.0996,-2.3965 0.0977,-2.3945 z m -12.76953,1.875 c 0.6469,0 1.52238,0.5625 1.94726,1.25 l 0.77344,1.25 -1.94922,0 -1.94922,0 0,-1.25 c 10e-6,-0.6875 0.53084,-1.25 1.17774,-1.25 z m 46.94726,2.5371 1.875,0 c 1.03121,0 2.71871,0.5464 3.75,1.2129 l 1.875,1.2109 -1.875,0 c -1.03129,0 -2.71879,-0.5444 -3.75,-1.2109 l -1.875,-1.2129 z m 29.44922,1.2129 1.32422,0 -0.77344,1.25 c -0.42489,0.6875 -1.01906,1.25 -1.32226,1.25 -0.3032,0 -0.55273,-0.5625 -0.55274,-1.25 10e-6,-0.6875 0.59622,-1.25 1.32423,-1.25 z m -67.7207,3.75 1.94922,0 1.94726,0 0,1.25 c 10e-6,0.6875 -0.52878,1.25 -1.17578,1.25 -0.6469,0 -1.52432,-0.5625 -1.94922,-1.25 l -0.77148,-1.25 z m 25.14648,3.332 0.83399,0.834 0.83398,0.834 -1.66797,0 -1.66601,0 0.83398,-0.834 0.83203,-0.834 z m 44.85352,1.668 2.02148,0 2.02344,0 -0.77344,1.25 c -0.42489,0.6875 -0.98738,1.25 -1.25,1.25 -0.2626,0 -0.8251,-0.5625 -1.25,-1.25 l -0.77148,-1.25 z m -82.35352,11.25 1.875,0 1.875,0 0,1.1152 c 0,0.614 -0.84378,1.4401 -1.875,1.8359 l -1.875,0.7188 0,-1.8359 0,-1.834 z m 94.83204,42.166 -1.30664,1.3066 -1.30664,1.3067 0.83984,1.3593 c 1.1534,1.8663 2.60059,1.702 4.42969,-0.5019 l 1.54492,-1.8594 -2.09961,-0.8066 -2.10156,-0.8047 z m 33.91796,0.025 -1.875,1.5566 c -1.03129,0.8559 -1.87499,2.3984 -1.875,3.4297 l 0,1.875 1.875,-1.5547 c 1.03121,-0.8558 1.87501,-2.4003 1.875,-3.4316 l 0,-1.875 z"
       id="path12422" />
  </g>
</svg>
