<?xml version="1.0" encoding="UTF-8" standalone="no"?>
<!-- Created with Inkscape (http://www.inkscape.org/) -->

<svg
   xmlns:dc="http://purl.org/dc/elements/1.1/"
   xmlns:cc="http://creativecommons.org/ns#"
   xmlns:rdf="http://www.w3.org/1999/02/22-rdf-syntax-ns#"
   xmlns:svg="http://www.w3.org/2000/svg"
   xmlns="http://www.w3.org/2000/svg"
   xmlns:sodipodi="http://sodipodi.sourceforge.net/DTD/sodipodi-0.dtd"
   xmlns:inkscape="http://www.inkscape.org/namespaces/inkscape"
   width="210mm"
   height="297mm"
   viewBox="0 0 744.09448819 1052.3622047"
   id="svg4143"
   version="1.1"
   inkscape:version="0.91 r13725"
   sodipodi:docname="L.svg">
  <defs
     id="defs4145" />
  <sodipodi:namedview
     id="base"
     pagecolor="#ffffff"
     bordercolor="#666666"
     borderopacity="1.0"
     inkscape:pageopacity="0.0"
     inkscape:pageshadow="2"
     inkscape:zoom="0.35"
     inkscape:cx="-145"
     inkscape:cy="520"
     inkscape:document-units="px"
     inkscape:current-layer="layer1"
     showgrid="false"
     inkscape:window-width="1920"
     inkscape:window-height="1055"
     inkscape:window-x="0"
     inkscape:window-y="25"
     inkscape:window-maximized="1" />
  <metadata
     id="metadata4148">
    <rdf:RDF>
      <cc:Work
         rdf:about="">
        <dc:format>image/svg+xml</dc:format>
        <dc:type
           rdf:resource="http://purl.org/dc/dcmitype/StillImage" />
        <dc:title></dc:title>
      </cc:Work>
    </rdf:RDF>
  </metadata>
  <g
     inkscape:label="Layer 1"
     inkscape:groupmode="layer"
     id="layer1">
    <path
       inkscape:connector-curvature="0"
       style="fill:#000000"
       d="m 304.03678,295.50276 -3.32813,0.83399 -3.32617,0.83593 -25.81054,0.17969 -25.81055,0.17773 -4.0625,2.2461 -4.0625,2.24414 0.01,5.2207 0.01,5.22266 1.81445,3.47461 1.8125,3.47656 -0.56054,1.52344 c -0.3083,0.83812 -0.80035,4.61914 -1.09375,8.40039 l -0.53321,6.875 1.27735,9.375 c 0.7024,5.15625 1.39029,14.33615 1.52929,20.40039 l 0.25196,11.02539 1.75586,1.08594 1.75586,1.08398 -2.13672,2.36328 -2.13868,2.36133 0,2.71485 0,2.71484 2.5,0 2.5,0 0,1.28906 c 1e-5,0.70908 -0.73667,1.57186 -1.63867,1.91797 l -1.64062,0.62891 0.0781,4.64453 c 0.0427,2.55418 0.5487,5.37332 1.125,6.26562 l 1.04883,1.62305 -0.90234,2.12695 c -0.4966,1.1702 -1.13241,4.02395 -1.41211,6.3418 -0.2797,2.31786 -0.55147,4.56786 -0.60547,5 -0.0531,0.43215 -0.0302,2.34433 0.0508,4.24805 l 0.14844,3.46093 3.125,-0.78515 3.125,-0.78321 0,1.30274 0,1.30273 -3.40039,0.39453 -3.40039,0.39647 -0.15821,7.8184 -0.15625,7.8183 1.65625,1.375 1.65625,1.375 -1.28125,2.3946 -1.2832,2.3945 0.79102,1.2793 0.79101,1.2793 -1.29101,1.5547 -1.29102,1.5547 -1.01367,11.8281 -1.01563,11.8281 1.43164,4.375 1.43165,4.375 -0.97266,0.625 -0.9707,0.625 -0.73243,6.875 c -0.4023,3.7812 -0.76936,7.9761 -0.81836,9.3242 l -0.0879,2.4512 2.75196,2.0781 2.7539,2.0762 -0.78125,2.0352 -0.78125,2.0351 -1.8125,0 -1.81445,0 -0.0352,7.4727 -0.0371,7.4746 1.99414,1.1152 1.99219,1.1153 -2.05859,2.9394 c -1.132,1.6162 -2.05664,3.924 -2.05664,5.1289 l 0,2.1914 3.59765,-0.7207 3.59766,-0.7187 0.67383,1.0879 0.67187,1.0898 -4.26953,4.7988 c -2.3493,2.64 -4.27148,5.0562 -4.27148,5.3692 0,0.313 0.60094,1.6945 1.33594,3.0683 l 1.33593,2.4961 -1.58398,1.9102 -1.58399,1.9082 -0.27539,12.6992 c -0.1513,6.9843 -0.59302,15.0614 -0.98242,17.9492 l -0.70898,5.25 1.29101,0.7988 1.29297,0.7989 -1.14062,1.4511 c -0.627,0.7981 -1.50583,3.8491 -1.95313,6.7813 l -0.81445,5.332 8.45508,-0.6582 8.45507,-0.6582 -2.87304,2.4512 -2.87305,2.4512 -2.75195,-1.0176 -2.75196,-1.0176 -2.70703,1.2324 -2.70703,1.2344 -0.91211,7.6602 c -0.5017,4.2129 -1.04528,10.4726 -1.20898,13.9101 -0.1637,3.4375 -0.43592,6.25 -0.60352,6.25 -1.003,0 -1.454,8.3478 -1.25,23.1172 l 0.23243,16.8691 1.27539,0.7872 1.27343,0.789 -1.22851,0.7578 -1.22852,0.7598 -0.21289,12.834 -0.21289,12.8359 -2.29492,11.875 c -1.2617,6.5312 -2.2932,14.125 -2.2832,16.875 l 0.0117,5 -2.07812,4.375 c -1.1434,2.4062 -2.93517,5.9229 -3.98047,7.8164 l -1.90039,3.4434 0.76953,1.2441 -0.006,0 c 1.0149,1.642 1.31665,1.601 5.99805,-0.8398 4.7918,-2.4987 12.62196,-4.4072 17.66016,-4.3047 l 3.6621,0.074 1.6504,-1.3691 c 0.90809,-0.7537 1.65234,-1.8656 1.65234,-2.4688 l 0,-1.0957 -2.75,0 -2.75,0 1.39453,-1.4004 1.39258,-1.3945 4.16406,2.0762 4.16406,2.0781 5.00391,-0.7598 c 2.7525,-0.4175 6.58292,-1.3685 8.51172,-2.1133 l 3.50781,-1.3535 1.42969,1.4297 1.43164,1.4317 3.99023,0 3.99219,0 0.75391,-1.9649 0.75195,-1.9629 3.6543,2.6016 3.65429,2.6015 2.42969,-3.0878 2.42969,-3.0899 2.35937,1.9043 2.35938,1.9043 -1.5625,0.6504 c -0.8594,0.3577 -1.5625,1.1523 -1.5625,1.7656 l 0,1.1153 3.29883,-1.2539 3.30078,-1.2559 2.30078,2.084 2.30273,2.082 1.58594,-1.25 c 0.8723,-0.6876 3.09681,-1.6097 4.94531,-2.0508 l 3.36133,-0.8027 0.72656,1.1758 0.72657,1.1758 4.99414,-0.068 4.99219,-0.07 0.73437,-1.1895 0.73633,-1.1914 5.18359,0.8555 c 2.8513,0.47 5.88172,1.415 6.73242,2.1016 l 1.54493,1.25 2.20507,-0.9571 c 1.2118,-0.5263 3.22075,-0.8297 4.46485,-0.6738 l 2.26172,0.2832 1.71484,-1.4238 1.71484,-1.4239 4.77344,1.3262 c 2.62502,0.7289 5.47657,1.332 6.33594,1.332 l 1.5625,0.014 0,-1.875 c 0,-1.0313 0.19352,-1.875 0.43164,-1.875 0.23813,0 2.19725,0.8795 4.35352,1.9551 l 3.92187,1.9551 4.08397,-0.3926 4.084,-0.3926 0.3946,-3.4375 0.3964,-3.4375 2.7286,0.057 c 1.5012,0.03 5.2282,0.5358 8.2812,1.125 l 5.5508,1.0722 1.3242,1.8008 1.3242,1.8027 4.6113,1.5196 4.6094,1.5175 3.668,-1.8964 3.668,-1.8965 0.6582,-2.5195 0.6601,-2.5196 3.1699,-1.4453 3.17,-1.4434 2.0332,0.7793 2.0351,0.7813 -0.7793,1.2578 -0.7773,1.2598 -3.4668,0 c -1.9073,0 -3.8058,0.3351 -4.2168,0.7461 l -0.7461,0.748 0.6816,1.7774 0.6817,1.7773 6.4199,-0.8164 c 3.5308,-0.4485 7.1148,-1.3646 7.9648,-2.0371 l 1.545,-1.2227 9.2324,0 9.2324,0 4.4883,1.6231 4.4902,1.623 2.4531,-2.2187 2.4512,-2.2188 -0.4707,-5.1465 -0.4726,-5.1484 1.1972,-1.4434 c 0.6587,-0.7936 1.4245,-3.7922 1.7012,-6.664 0.2766,-2.872 0.9819,-5.9046 1.5664,-6.7383 l 1.0625,-1.5156 -0.098,-5.625 c -0.054,-3.0938 -0.5282,-6.9182 -1.0527,-8.4981 l -0.9531,-2.873 1.166,-1.502 c 0.6414,-0.8264 1.8636,-4.8888 2.7148,-9.0293 l 1.5469,-7.5293 -0.4238,-3.7207 -0.4219,-3.7226 -2.6113,0 -2.6094,0 -2.1152,-1.7461 -2.1133,-1.7461 -3.3223,1.5137 -3.3222,1.5136 -14.9434,0.5391 -14.9433,0.5391 -1.6973,1.4082 -1.6973,1.4101 -1.6601,-1.3789 -1.6602,-1.3769 -4.2773,1.2578 -4.2774,1.2578 -6.875,-0.1211 c -3.7812,-0.066 -11.3315,0.2126 -16.7773,0.6172 l -9.9004,0.7363 -1.3496,1.0156 -1.3477,1.0176 -28.75,-0.2363 -28.75,-0.2383 -3.21875,-0.8848 -3.2168,-0.8847 -1.53125,1.8437 -1.5293,1.8457 1.33008,0.8223 1.33203,0.8222 -0.70117,1.1329 -0.69922,1.1308 -5.88281,-0.7441 -5.88281,-0.7442 -1.54102,-1.9336 -1.54101,-1.9335 1.08398,-1.3536 1.08399,-1.3515 -1.06446,-2.8125 -1.0664,-2.8125 -1.36328,0 -1.36524,0 0.89453,1.4453 0.89453,1.4472 -2.69531,-0.8222 c -1.4825,-0.452 -3.76707,-1.1539 -5.07617,-1.5606 l -2.37891,-0.7402 0.19141,2.168 0.19336,2.1679 -1.76172,0.6172 -1.76172,0.6172 0.83789,-2.1836 0.83789,-2.1855 -2.20117,0.9336 c -1.2109,0.5132 -3.60737,0.9004 -5.32617,0.8574 l -3.125,-0.076 1.57031,0.6387 1.57031,0.6387 -0.70703,1.1425 -0.70703,1.1446 -8.05078,0 -8.05078,0 0,-1.9903 c 0,-1.0947 1.125,-3.4219 2.5,-5.1699 l 2.5,-3.1777 0,-2.957 0,-2.9551 -2.5,0 -2.5,0 0,1.25 0,1.25 -2.71484,0 -2.7129,0 -2.2871,-2.0684 c -1.25731,-1.1378 -2.28516,-2.4901 -2.28516,-3.0039 0,-0.5136 1.7861,-1.5568 3.9707,-2.3184 l 3.97266,-1.3847 -2.41016,-1.7793 -2.4082,-1.7774 1.25,-1.1836 c 0.6875,-0.6508 3.3594,-1.8579 5.9375,-2.6816 l 4.6875,-1.4961 0,-1.4316 0,-1.4317 1.85156,2.6446 1.85352,2.6445 4.70898,0.6309 c 2.5906,0.3469 6.8225,1.1928 9.4043,1.8789 l 4.69531,1.248 0.83203,-1.3477 c 0.4581,-0.7411 1.02411,-3.0744 1.25781,-5.1835 0.859,-7.7508 1.59994,-15.2313 2.08204,-21.0215 l 0.49414,-5.9375 -2.96485,0 -2.96484,0 0,-2.5 0,-2.5 2.99023,0 2.99219,0 0.75781,-1.9785 c 0.4173,-1.0875 0.75977,-4.0687 0.75977,-6.625 l 0,-4.6465 1.13476,-1.1875 1.13477,-1.1875 0.69336,-6.875 c 0.9302,-9.2223 0.91925,-8.1736 0.18945,-18.75 -0.3559,-5.1562 -1.28731,-12.6093 -2.07031,-16.5625 l -1.42383,-7.1875 -2.25586,0 c -1.2405,0 -2.60244,-0.5625 -3.02734,-1.25 l -0.77344,-1.25 -2.97656,0 -2.97852,0 -0.77148,-1.25 -0.77344,-1.25 1.63672,0.053 c 0.8999,0.03 4.05407,0.5224 7.00977,1.0938 l 5.375,1.039 -0.38477,-2.0312 -0.38477,-2.0293 -3.73632,-0.4258 -3.73438,-0.4258 -0.85937,-1.3906 c -0.4725,-0.7645 -0.58119,-1.8383 -0.24219,-2.3867 l 0.61523,-0.9961 4.30274,0 4.30078,0 0.17773,-5.9375 c 0.4186,-13.9622 -0.29049,-68.2333 -0.90429,-69.2266 l -0.67188,-1.0859 0.83984,-1.3575 c 0.46131,-0.7463 1.08818,-5.2462 1.39258,-10 l 0.55274,-8.6425 -4.44336,0 -4.44336,0 0,-1.25 0,-1.25 4.26562,0 4.26563,0 0.64648,-4.6875 c 0.3558,-2.5781 0.66546,-7.7813 0.68946,-11.5625 0.0241,-3.7813 0.67501,-14.46878 1.44531,-23.75003 0.7702,-9.28125 1.59594,-22.67657 1.83594,-29.76562 0.2399,-7.08903 0.7795,-14.4525 1.19922,-16.36328 l 0.76367,-3.47461 -1.79883,-1.49219 c -0.9895,-0.82116 -2.49209,-1.33271 -3.33789,-1.13672 l -1.53711,0.35742 -0.52344,-1.41406 -0.52344,-1.41406 3.13672,-0.78711 3.13477,-0.78711 -0.71485,-1.86133 -0.71484,-1.86133 1.22461,0 1.22266,0 0.82812,-5.16797 0.82617,-5.16797 -1.4707,-4.45703 -1.4707,-4.45508 2.67773,-1.77929 2.67969,-1.7793 0,-3.49219 0,-3.49414 -1.5625,-0.52539 -1.5625,-0.52539 1.61523,-1.95703 1.61328,-1.95703 -1.61328,-0.66797 -1.61523,-0.66797 2.1875,-1.7793 2.1875,-1.77929 0,-2.58985 0,-2.58984 -2.8125,-0.95703 c -1.5468,-0.52629 -3.21418,-0.85257 -3.70508,-0.72461 l -0.89258,0.23242 0.71485,-1.85937 c 0.8616,-2.24532 1.95322,-2.35142 3.92382,-0.38086 l 1.48047,1.47851 0.79883,-0.80078 0.80078,-0.79883 -0.67969,-1.77148 -0.67968,-1.77149 -4.40039,-0.82421 -4.39844,-0.82618 0,-0.002 z m 48.45117,1.53125 -0.80078,2.08985 c -0.9357,2.4385 -0.9855,5.48889 -0.5,31.46679 l 0.36328,19.375 1.01367,-2.5 c 0.558,-1.375 1.69555,-8.6875 2.52735,-16.25 0.8318,-7.5625 2.04401,-16.18014 2.69531,-19.15039 l 1.18555,-5.40234 -0.78321,-4.17188 -0.7832,-4.17187 -2.45898,-0.64258 -2.45899,-0.64258 z m 1.36524,60.43164 -1.2129,1.875 c -0.6665,1.03125 -1.22046,2.29688 -1.23046,2.8125 -0.0105,0.51563 0.54297,0.9375 1.23046,0.9375 l 1.25,0 -0.0176,-2.8125 -0.0195,-2.8125 z m 0.0371,11.375 -1.40624,1.40625 -1.40626,1.40625 0.8379,4.46875 c 0.461,2.45761 1.09365,4.46875 1.40625,4.46875 0.3126,0 0.56835,-2.64375 0.56835,-5.875 l 0,-5.875 z m 1.07618,15.17383 -1.05469,1.09961 c -1.0015,1.04422 -1.7086,5.52215 -1.4082,8.91406 0.1691,1.90994 2.1879,2.05007 3.3125,0.23047 l 0.82226,-1.33203 -0.83594,-4.45508 -0.83593,-4.45703 z m -78.72266,50.3242 1.16992,0 c 0.6439,0 1.74853,0.7032 2.45313,1.5625 l 1.28125,1.5625 -2.78711,2.0821 -2.78711,2.082 -1.63477,-1.0098 -1.63476,-1.0117 2.70312,-1.4473 2.70313,-1.4472 -0.73242,-1.1875 -0.73438,-1.1856 z m 11.78906,1.25 1.16407,0 -1.55665,1.875 -1.55468,1.875 -2.03516,-0.041 -2.03516,-0.039 2.42774,-1.8359 c 1.3345,-1.0094 2.94964,-1.834 3.58984,-1.834 z m -30.53906,7.5 1.94922,0 1.94726,0 0,1.25 c 1e-5,0.6875 -0.52878,1.25 -1.17578,1.25 -0.6469,0 -1.52432,-0.5625 -1.94922,-1.25 l -0.77148,-1.25 z m 31.39648,8.3321 0.83399,0.8339 0.83398,0.834 -1.66797,0 -1.66601,0 0.83398,-0.834 0.83203,-0.8339 z m -1.4746,5.4042 0,0 1.98828,0.7636 c 1.0933,0.4196 1.98632,1.2649 1.98632,1.8789 0,1.406 -2.59841,1.4078 -4.82031,0 l -1.69531,-1.0742 1.26953,-0.7851 1.27149,-0.7872 z m -14.7461,0.014 2.48633,0 2.48437,0 0,2.3653 0,2.3671 -1.97656,0.7579 c -2.8055,1.0766 -6.51326,0.9403 -7.25976,-0.2676 l -0.63477,-1.0274 2.45117,-2.0976 2.44922,-2.0977 z m 13.8418,4.4629 2.05273,1.2949 c 1.1293,0.7123 2.27492,1.9574 2.54493,2.7676 l 0.49023,1.4746 -2.64258,0 -2.64453,0 -0.74023,-1.9297 -0.74024,-1.9297 0.83985,-0.8378 0.83984,-0.8399 z m -18.8711,1.8652 0,1.211 0,1.2109 -1.875,0 c -1.03129,0 -1.87499,-0.222 -1.875,-0.4922 1e-5,-0.2702 0.84372,-0.8152 1.875,-1.2109 l 1.875,-0.7188 z m 7.5,1.1719 3.23047,0 3.22852,0 -0.51953,1.5625 c -0.97,2.9131 -5.93945,2.4767 -5.93946,-0.5215 l 0,-1.041 z m -7.38867,3.834 4.00782,0.7441 4.00585,0.7422 2.16016,2.6524 c 1.1878,1.4585 2.1725,3.0742 2.1875,3.5898 0.0153,0.5157 -0.58599,0.9375 -1.33789,0.9375 l -1.36719,0 -0.65429,-2.5 -0.6543,-2.5 -3.4707,0 -3.47071,0 -0.70312,-1.834 -0.70313,-1.832 z m -4.80468,3.666 2.03515,0.1445 2.0332,0.1446 -2.1875,0.5722 c -1.2032,0.3144 -2.18749,1.0934 -2.1875,1.7305 0,0.6371 -0.63064,1.1582 -1.40234,1.1582 l -1.40234,0 1.55468,-1.875 1.55665,-1.875 z m 0.94335,5.0274 2.98633,0.2461 2.98633,0.248 -0.58203,1.5176 c -0.3202,0.8345 -1.32738,1.8027 -2.23828,2.1523 l -1.65625,0.6348 -0.74805,-0.7461 c -0.411,-0.411 -0.74804,-1.4914 -0.74805,-2.4004 l 0,-1.6523 z m -3.75,4.8242 1.25,0.7734 c 0.6875,0.4249 1.25,1.0191 1.25,1.3223 0,0.3032 -0.5625,0.5527 -1.25,0.5527 -0.6875,0 -1.25,-0.5962 -1.25,-1.3242 l 0,-1.3242 z m 26.54688,0.072 2.66406,0.8028 c 1.4655,0.4415 3.15084,1.2544 3.74414,1.8047 l 1.07813,1 -0.83985,1.3593 -0.83984,1.3594 -2.97852,0 -2.97656,0 -0.70312,-1.1387 -0.70313,-1.1367 0.77735,-2.0254 0.77734,-2.0254 z m -18.43555,0.1524 c 1.03483,0.04 2.34434,0.6122 3.83789,1.7168 l 2.42578,1.7949 -4.52148,-0.2324 -4.52344,-0.2305 0.59375,-1.5625 c 0.39235,-1.0319 1.15268,-1.5262 2.1875,-1.4863 z m 15.63867,4.9238 c 0.6875,0 1.25,0.5625 1.25,1.25 0,0.6875 -0.5625,1.25 -1.25,1.25 -0.6875,0 -1.25,-0.5625 -1.25,-1.25 0,-0.6875 0.5625,-1.25 1.25,-1.25 z m -17.5,1.25 4.375,0 4.375,0 0,1.875 0,1.875 -1.5625,-0.1719 c -0.8594,-0.094 -2.82819,-0.413 -4.375,-0.7109 l -2.8125,-0.541 0,-1.1641 0,-1.1621 z m 12.35352,6.25 2.57422,0 c 1.4156,0 2.57226,0.2201 2.57226,0.4903 0,0.2702 -0.82478,0.808 -1.83398,1.1953 l -1.83594,0.705 -0.73828,-1.1953 -0.73828,-1.1953 z m -17.35547,2.7344 0.58594,0.9473 c 0.3224,0.5217 -0.10653,1.8969 -0.95313,3.0546 l -1.53906,2.1036 -1.54492,-1.545 c -2.1714,-2.1713 -1.93167,-3.1538 0.95312,-3.9082 l 2.49805,-0.6523 z m 2.48438,2.1094 5.94726,0.8613 c 3.2707,0.4743 6.36712,1.1056 6.88281,1.4023 1.7719,1.0197 0.93241,2.4932 -2.24609,3.9414 -4.1778,1.9035 -7.0651,1.832 -9.9043,-0.2441 l -2.3164,-1.6934 0.81836,-2.1347 0.81836,-2.1328 z m 15.01757,9.7383 0.83399,0.8339 0.83398,0.834 -0.83398,0.8321 -0.83399,0.8339 0,-1.666 0,-1.6679 z m -6.16992,18.0253 1.83594,0.7051 c 1.0092,0.3873 1.83399,0.9251 1.83398,1.1953 1e-5,0.2702 -1.15666,0.4922 -2.57226,0.4922 l -2.57422,0 0.73828,-1.1953 0.73828,-1.1973 z m -0.86914,9.3985 0.43946,1.3144 0.4375,1.3164 3.39453,-0.5254 3.39257,-0.5253 -2.5,1.914 c -1.37499,1.0529 -3.17936,2.496 -4.00976,3.2071 -0.8304,0.7109 -1.84637,1.2929 -2.25977,1.2929 l -0.75195,0 0.77148,-1.25 0.77344,-1.25 -1.94922,0 c -2.4479,0 -2.43826,0.5894 0.0703,4.418 l 2.01953,3.082 1.73047,0 1.73046,0 0,1.2793 0,1.2813 -3.20507,1.2187 c -1.7635,0.6705 -4.1542,1.2027 -5.3125,1.1817 -2.9019,-0.052 -6.48243,-2.2827 -6.48243,-4.0391 0,-0.7994 1.54692,-2.7742 3.4375,-4.3887 l 3.4375,-2.9355 -1.5625,-0.6543 c -2.60108,-1.0871 -1.77453,-2.5525 2.41797,-4.2891 l 3.98047,-1.6484 z m 27.03906,4.2441 0,1.875 0,1.875 -3.67578,0 -3.67578,0 -0.68554,-1.1094 -0.6836,-1.1074 2.79883,-0.75 c 1.5392,-0.4126 3.49998,-0.7576 4.35937,-0.7676 l 1.5625,-0.016 z m -18.75,4.5821 0.83399,0.8339 0.83398,0.834 -1.66797,0 -1.66601,0 0.83398,-0.834 0.83203,-0.8339 z m 1.51368,2.9316 1.11718,0.6914 c 0.6155,0.3804 1.11914,1.2203 1.11914,1.8672 l 0,1.1777 -1.83398,0 -1.83594,0 0.7168,-1.8691 0.7168,-1.8672 z m -35.26368,0.9687 1.97852,0.7579 c 1.0875,0.4173 2.2125,0.7597 2.5,0.7597 0.2875,0 0.52149,0.8438 0.52148,1.875 0,1.9262 -0.71739,2.1445 -3.4375,1.0469 l -1.5625,-0.6309 0,-1.9043 0,-1.9043 z m 33.89844,9.0176 1.25,0 -0.77344,1.25 c -0.42489,0.6875 -1.33398,1.25 -2.02148,1.25 l -1.25,0 0.77148,-1.25 c 0.4249,-0.6875 1.33594,-1.25 2.02344,-1.25 z m -10.69922,2.5 1.80078,0 0,1.875 0,1.875 -1.66601,0 c -0.9167,0 -2.02524,-0.3612 -2.46484,-0.8008 l -0.80079,-0.7988 0.66602,-1.0762 c 0.3657,-0.5916 1.47424,-1.0742 2.46484,-1.0742 z m 32.30664,4.7598 -1.65625,1.9941 c -0.9107,1.0973 -2.47606,1.9961 -3.48046,1.9961 l -1.82618,0 0.51368,-1.5625 0.51562,-1.5625 2.9668,-0.4336 2.96679,-0.4316 z m -29.25586,0.2402 c 0.6875,0 1.25,0.5625 1.25,1.25 0,0.6875 -0.5625,1.25 -1.25,1.25 -0.6875,0 -1.25,-0.5625 -1.25,-1.25 0,-0.6875 0.5625,-1.25 1.25,-1.25 z m 17.6543,1.25 2.3457,0 0,1.2891 c 0,0.7091 -0.85745,1.617 -1.90624,2.0195 l -1.90626,0.7324 1.3125,1.584 1.31446,1.5821 -2.00977,0.7714 c -2.5821,0.9908 -4.26918,0.8785 -7.74219,-0.5175 l -2.8125,-1.1309 0,-1.2734 0,-1.2735 4.5293,-1.8926 c 2.4902,-1.0405 5.584,-1.8906 6.875,-1.8906 z m -49.05078,10 1.94922,0 1.94726,0 0,1.25 c 1e-5,0.6875 -0.52878,1.25 -1.17578,1.25 -0.6469,0 -1.52432,-0.5625 -1.94922,-1.25 l -0.77148,-1.25 z m 14.52148,10.2012 10.90626,0.8672 10.90624,0.8672 1.42188,1.4218 0.002,0 1.42188,1.4239 -0.66797,1.6718 -0.66602,1.6719 -0.0996,-1.5625 -0.0996,-1.5625 -5.55078,0 -5.55078,0 -0.80468,-1.3008 -0.80274,-1.3007 -2.42383,0.7675 -2.42187,0.7696 -3.84571,-0.8438 -3.8457,-0.8457 1.06055,-1.0215 1.06054,-1.0234 z m 37.03126,4.5371 0.75585,0.7559 0.75586,0.7558 -2.39648,-0.1 -2.39649,-0.098 1.64063,-0.6583 1.64063,-0.6562 z m 3.28906,0.2617 2.65234,0 2.65234,0 0,1.1758 c 1e-5,0.6469 -0.49782,1.4846 -1.10742,1.8613 l -1.10937,0.6856 -1.54297,-1.8614 -1.54492,-1.8613 z m -22.11524,2.6074 1.83594,0.7051 c 1.0092,0.3873 1.83399,0.9251 1.83398,1.1953 1e-5,0.2702 -1.15666,0.4922 -2.57226,0.4922 l -2.57422,0 0.73828,-1.1953 0.73828,-1.1973 z m -15.08008,1.9747 0.83399,0.8339 0.83398,0.834 -1.66797,0 -1.66601,0 0.83398,-0.834 0.83203,-0.8339 z m -9.18164,11.0917 2.87891,1.2852 2.88086,1.2852 -2.12891,2.1269 -2.12695,2.1289 -2.78516,0 -2.78711,0 -1.5,-1.5 c -0.82498,-0.825 -1.5,-2.0121 -1.5,-2.6367 l 0,-1.1348 3.02149,0.7578 3.02344,0.7579 0.51172,-1.5352 0.51171,-1.5352 z m 36.68164,1.6426 2.1875,0.4199 2.1875,0.4219 -0.24609,1.2324 c -0.1356,0.678 -1.1199,1.4164 -2.1875,1.6387 l -1.94141,0.4024 0,-2.0567 0,-2.0586 z m -28.75,6.4336 c 0.6875,0 1.25,0.5625 1.25,1.25 0,0.6875 -0.5625,1.25 -1.25,1.25 -0.6875,0 -1.25,-0.5625 -1.25,-1.25 0,-0.6875 0.5625,-1.25 1.25,-1.25 z m 26.14258,8.5039 1.61719,0.5313 1.61523,0.5293 1.16407,4.6152 1.16406,4.6172 -1.40625,1.4062 -1.4082,1.4082 -0.69336,-3.3066 c -0.3818,-1.8181 -0.99925,-4.7666 -1.37305,-6.5527 l -0.67969,-3.2481 z m -27.39258,2.5977 1.25,0.7734 c 0.6875,0.4249 1.25,1.3004 1.25,1.9473 0,0.647 -0.5625,1.1777 -1.25,1.1777 l -1.25,0 0,-1.9492 0,-1.9492 z m 36.14258,6.0879 2.00782,0.7715 2.00976,0.7714 -0.7793,1.2579 c -1.0132,1.6398 -2.76874,1.6048 -3.80664,-0.074 l -0.82422,-1.3339 0.69727,-0.6954 0.69531,-0.6972 z m -30.51758,7.8476 1.875,0 c 1.03121,0 2.71871,0.5464 3.75,1.2129 l 1.875,1.211 -1.875,0 c -1.03129,0 -2.71879,-0.5445 -3.75,-1.211 l -1.875,-1.2129 z m 28.125,0.795 0.83399,0.8339 0.83398,0.834 -1.66797,0 -1.66601,0 0.83398,-0.834 0.83203,-0.8339 z m -16.39648,0.4179 2.57422,0 2.57226,0 0,1.25 0,1.25 -1.80078,0 c -0.9906,0 -2.14932,-0.5625 -2.57422,-1.25 l -0.77148,-1.25 z m 10.44336,9.5742 1.96484,1.2383 c 1.0809,0.6819 2.18704,1.9026 2.45704,2.7129 l 0.49023,1.4746 -4.79102,-0.02 c -2.6354,-0.01 -5.53365,-0.4902 -6.43945,-1.0645 l -1.64648,-1.0429 3.98242,-1.6504 3.98242,-1.6485 z m -35.16016,9.5274 c 0.84065,-0.011 2.10048,0.2289 3.78907,0.7148 l 4.19921,1.2071 -2.08398,0.1132 c -1.1469,0.062 -2.91755,0.4317 -3.93555,0.8223 l -1.85156,0.7109 -0.87695,-1.4179 c -0.87825,-1.421 -0.64132,-2.1327 0.75976,-2.1504 z m 27.47852,7.8691 -0.86133,0.8594 -0.85937,0.8613 1.4082,1.6953 1.40625,1.6954 -1.81445,2.3964 -1.81446,2.3985 -0.0391,3.3965 -0.0391,3.3984 1.76172,-0.6758 1.76172,-0.6758 0.74023,-2.9472 0.74023,-2.9493 2.76368,-0.3984 2.76367,-0.3984 0.82617,-4.0625 0.82617,-4.0625 -0.77929,0.017 c -0.42881,0.011 -1.57327,0.5229 -2.54297,1.1368 l -1.76368,1.1152 -2.24218,-1.4004 -2.24219,-1.4004 z m -21.51172,14.2793 2.57422,0 2.57226,0 0,1.25 0,1.25 -1.80078,0 c -0.9906,0 -2.14932,-0.5625 -2.57422,-1.25 l -0.77148,-1.25 z m 198.97066,5 1.3243,0 -0.7735,1.25 c -0.4249,0.6875 -1.0191,1.25 -1.3222,1.25 -0.3032,0 -0.5528,-0.5625 -0.5528,-1.25 0,-0.6875 0.5961,-1.25 1.3242,-1.25 z m -140.45894,0.8653 0.89062,1.4433 c 0.4906,0.7938 1.14026,1.4434 1.44336,1.4434 1.0427,0 0.55038,-1.1056 -0.89062,-1.9961 l -1.44336,-0.8906 z m -17.11524,1.6347 1.875,0 1.875,0 0,1.25 0,1.25 -1.875,0 -1.875,0 0,-1.25 0,-1.25 z m -8.89648,5 2.02148,0 2.02344,0 -0.77344,1.25 c -0.42489,0.6875 -0.98738,1.25 -1.25,1.25 -0.2626,0 -0.8251,-0.5625 -1.25,-1.25 l -0.77148,-1.25 z m 163.89646,52.291 0,1.9785 0,1.9805 -1.9785,0 -1.9785,0 0.4941,-1.4844 c 0.2721,-0.8164 1.162,-1.7082 1.9786,-1.9804 l 1.4843,-0.4942 z m -11.3965,2.709 1.9493,0 1.9472,0 0,1.25 c 0,0.6875 -0.5289,1.25 -1.1758,1.25 -0.6469,0 -1.5243,-0.5625 -1.9492,-1.25 l -0.7715,-1.25 z m -27.6367,2.5742 c 0.6346,0 1.5715,0.3928 2.7832,1.1758 l 1.875,1.2129 -2.8125,0.019 -2.8125,0.02 0,-1.25 c 0,-0.783 0.3322,-1.1758 0.9668,-1.1758 l 0,0 z"
       id="path12360" />
  </g>
</svg>
