<?xml version="1.0" encoding="UTF-8" standalone="no"?>
<!-- Created with Inkscape (http://www.inkscape.org/) -->

<svg
   xmlns:dc="http://purl.org/dc/elements/1.1/"
   xmlns:cc="http://creativecommons.org/ns#"
   xmlns:rdf="http://www.w3.org/1999/02/22-rdf-syntax-ns#"
   xmlns:svg="http://www.w3.org/2000/svg"
   xmlns="http://www.w3.org/2000/svg"
   xmlns:sodipodi="http://sodipodi.sourceforge.net/DTD/sodipodi-0.dtd"
   xmlns:inkscape="http://www.inkscape.org/namespaces/inkscape"
   width="210mm"
   height="297mm"
   viewBox="0 0 744.09448819 1052.3622047"
   id="svg4143"
   version="1.1"
   inkscape:version="0.91 r13725"
   sodipodi:docname="M.svg">
  <defs
     id="defs4145" />
  <sodipodi:namedview
     id="base"
     pagecolor="#ffffff"
     bordercolor="#666666"
     borderopacity="1.0"
     inkscape:pageopacity="0.0"
     inkscape:pageshadow="2"
     inkscape:zoom="0.35"
     inkscape:cx="-145"
     inkscape:cy="520"
     inkscape:document-units="px"
     inkscape:current-layer="layer1"
     showgrid="false"
     inkscape:window-width="1920"
     inkscape:window-height="1055"
     inkscape:window-x="0"
     inkscape:window-y="25"
     inkscape:window-maximized="1" />
  <metadata
     id="metadata4148">
    <rdf:RDF>
      <cc:Work
         rdf:about="">
        <dc:format>image/svg+xml</dc:format>
        <dc:type
           rdf:resource="http://purl.org/dc/dcmitype/StillImage" />
        <dc:title></dc:title>
      </cc:Work>
    </rdf:RDF>
  </metadata>
  <g
     inkscape:label="Layer 1"
     inkscape:groupmode="layer"
     id="layer1">
    <path
       inkscape:connector-curvature="0"
       style="fill:#000000"
       d="m 199.48808,234.88279 c -1.6362,0 -5.8203,3.13048 -5.8203,4.35547 0,0.23517 1.5117,0.023 3.3574,-0.4707 l 3.3555,-0.89649 0.4981,-1.49414 0.498,-1.49414 -1.8887,0 z m -33.3183,42.49805 0,0.002 0,2.36524 0,2.36718 1.7187,0.65821 1.7188,0.66015 0.02,3.53711 0.019,3.53711 -1.3457,1.65625 -1.3437,1.6582 1.5879,0.98047 1.5859,0.98243 -2.7305,9.16406 -2.7285,9.16601 0,4.36914 0,4.36719 -1.916,2.92188 -1.9141,2.92187 1.8301,2.15625 1.8281,2.15625 2.1661,10.40039 2.166,10.40039 -0.8047,3.66211 -0.8047,3.66211 2.5996,0 2.5996,0 0,1.91406 0,1.91407 -2.1875,0.80664 c -1.2031,0.4439 -2.5713,1.38141 -3.039,2.08203 l -0.8496,1.27344 1.2324,2.30078 1.2304,2.30078 -1.9414,3.89062 -1.9414,3.89063 1.5137,1.82422 1.5117,1.82226 -2.2148,1.61914 -2.2149,1.6211 1.3243,0.81836 1.3261,0.81836 0,4.88281 0,4.88281 2.5,1.33797 c 1.375,0.7359 2.5,1.8641 2.5,2.5078 l 0,1.1699 -4.0625,1.0606 -4.0625,1.0605 0.2461,7.2559 0.2481,7.2539 -1.8907,1.8906 -1.8906,1.8887 1.1035,1.1035 1.1035,1.1035 -0.8671,6.5391 -0.8692,6.5409 1.2481,1.5625 1.248,1.5625 -1.3906,1.6777 -1.3926,1.6758 0.8457,0.8476 0.8477,0.8458 0.2929,20.289 c 0.1612,11.1586 0.3376,22.055 0.3926,24.2129 l 0.1,3.922 2.0528,-0.172 2.0527,-0.1738 0.5195,1.4629 0.5176,1.4648 -2.5723,-0.6719 -2.5703,-0.6738 0,5.6895 0,5.6894 1.2696,3.3438 1.2714,3.3418 1.8848,-1.5645 1.8848,-1.5645 0.7187,0.7208 0.7207,0.7208 -0.8242,1.332 c -0.4532,0.7332 -1.6485,1.334 -2.6562,1.334 l -1.8321,0 -1.0429,2.8125 -1.043,2.8125 -0.086,21.7109 -0.086,21.7109 2.0977,2.1504 c 1.1539,1.1833 3.1185,2.5198 4.3652,2.9688 l 2.2656,0.8164 -0.7773,1.2578 -0.7774,1.2598 -3.6777,0 -3.6758,0 -0.018,4.6875 c -0.01,2.5782 -0.3348,5.8759 -0.7246,7.3281 l -0.7089,2.6387 2.6054,0.6816 2.6074,0.6816 -0.7168,1.8672 -0.7168,1.8692 -2.4707,0.6445 -2.4707,0.6465 0.2872,4.8496 0.2851,4.8516 -0.9277,1.5019 -0.9278,1.502 2.5723,0 2.5742,0 0,1.25 c 0,0.6875 -1.1691,2.4196 -2.5996,3.8496 l -2.6015,2.6015 2.289,1.7344 2.2871,1.7344 -2.1875,0.039 -2.1875,0.041 0,1.1758 c 0,0.6469 0.5625,1.5244 1.25,1.9492 0.6875,0.4249 1.25,1.3003 1.25,1.9472 l 0,1.1778 -1.7402,0 -1.7422,0 -0.7793,2.0332 -0.7812,2.0332 1.5097,1.8183 1.5078,1.8184 -1.541,2.4668 -1.541,2.4668 2.7539,2.2285 2.752,2.2285 -0.8985,1.4531 -0.8965,1.4531 -2.4277,0 -2.4258,0 0,2.9785 0,2.9785 2.5,0.6543 2.5,0.6543 0,1.3672 0,1.3672 -3.1445,0 -3.1445,0 0.088,3.4375 c 0.076,2.9869 -2.9307,26.2629 -6.1758,47.8125 l -1.0352,6.875 0.9766,1.8418 0.9746,1.8437 -0.9805,1.9063 c -0.5387,1.049 -1.3588,4.0176 -1.8242,6.5957 l -0.8477,4.6875 1.3067,0 c 0.7187,0 1.3066,0.5625 1.3066,1.25 l 0,1.25 -1.875,0 -1.875,0 0,1.2051 c 0,0.6632 0.9994,1.7412 2.2207,2.3945 l 2.2207,1.1875 29.9668,-0.4492 29.9688,-0.4512 4.6406,1.2168 4.6406,1.2168 3.2032,-0.8047 3.205,-0.8047 1.3633,-2.5469 1.3633,-2.5449 0.166,-20.8633 0.168,-20.8633 -1.6739,-2.0214 -1.6738,-2.0196 0.8008,-3.6425 0.8008,-3.6426 -2.252,-0.9082 -2.2519,-0.9082 3.125,-1.2481 3.125,-1.248 -3.125,-1.2403 -3.125,-1.2402 2.8125,-1.9141 2.8125,-1.914 0,-3.3477 0,-3.3476 -1.5313,-1.5313 -1.5312,-1.5312 1.4609,-2.3418 1.4629,-2.3418 -2.4316,-0.6348 -2.4297,-0.6367 0,-1.3652 0,-1.3672 2.8183,0 2.8204,0 1.625,-3.6699 1.625,-3.6719 -0.6133,-6.6407 c -0.3376,-3.6531 -0.6503,-10.4393 -0.6953,-15.08 l -0.082,-8.4375 -0.9375,0.1465 c -0.5156,0.081 -2.9062,0.075 -5.3125,-0.018 l -4.375,-0.168 1.875,-1.2031 1.875,-1.2012 2.0332,0.6309 2.0332,0.6308 0.8594,-2.8476 c 0.4725,-1.5661 1.0025,-9.3144 1.1777,-17.2207 l 0.3164,-14.375 -0.996,-3.6543 -0.9961,-3.6524 1.25,-1.5058 1.25,-1.5078 -2.8379,-0.7481 -2.8399,-0.7461 2.8125,-1.9765 2.8125,-1.9766 0,-2.2949 0,-2.295 -2.1875,-0.9394 c -1.2031,-0.516 -3.8064,-0.8064 -5.7871,-0.6465 l -3.6015,0.291 0.7792,-3.1074 0.7793,-3.1055 -2.1777,-0.8476 -2.1797,-0.8496 2.9297,-2.3887 2.9277,-2.3887 2.3028,1.2324 c 1.266,0.6776 3.6032,1.1926 5.1953,1.1446 l 2.8945,-0.088 -2.4433,-0.957 -2.4453,-0.9571 2.0195,-1.1426 2.0195,-1.1425 0.4004,-5.6192 0.4004,-5.6191 -4.3496,0.3262 -4.3516,0.3281 -1.8633,-1.2188 -1.8652,-1.2187 1.5,-1.5 1.4981,-1.4981 1.8867,1.5645 c 1.0373,0.8609 2.4482,1.3717 3.1367,1.1348 l 1.2519,-0.4297 -1.0937,-1.7637 -1.0957,-1.7617 -6.9688,-0.5781 -6.9687,-0.5782 0.6777,-1.0976 0.6778,-1.0957 3.83,0 3.8282,0 -1.7149,-2.1094 -1.7168,-2.1094 2.3047,0.8633 c 1.267,0.4754 3.7406,1.2269 5.4981,1.668 l 3.1953,0.8008 -0.8907,-1.4415 -0.8906,-1.4414 2.0801,-0.7968 2.082,-0.7989 0.9668,1.5664 0.9668,1.5645 0.6739,-1.0879 c 0.3703,-0.599 0.8623,-5.775 1.0937,-11.5019 l 0.4199,-10.4122 0.9375,-0.582 c 1.5553,-0.9631 1.0591,-4.2418 -0.9472,-6.248 l -1.8868,-1.8868 0.709,-1.1484 c 0.3906,-0.6321 1.8023,-1.1484 3.1367,-1.1484 l 2.4258,0 0,-2.6699 0,-2.67 3.1895,-2.955 c 1.7543,-1.6258 3.6608,-2.9551 4.2363,-2.9551 l 1.0469,0 0.8418,-4.4942 0.8437,-4.4922 -2.2656,-1.6699 -2.2676,-1.6719 5.5039,0.7286 5.5039,0.7285 -0.7695,-1.2461 -0.7695,-1.2461 6.4101,1.0137 c 3.5262,0.5574 6.9449,1.5462 7.5957,2.1972 l 1.1836,1.1836 -0.8398,1.3594 c -0.462,0.7474 -1.65,1.3594 -2.6406,1.3594 l -1.8028,0 0,1.875 0,1.875 -1.8008,0 c -0.9906,0 -2.1205,0.5173 -2.5117,1.1504 l -0.7109,1.1504 6.8984,3.9492 6.9004,3.9472 -0.7109,1.1504 -0.711,1.1524 1.4571,0 c 0.801,0 2.5319,1.3683 3.8476,3.041 l 2.3926,3.041 2.7871,0.3965 2.7871,0.3965 0.1446,2.8379 0.1425,2.8398 2.045,2.2598 c 1.1243,1.2425 2.0429,2.9174 2.0429,3.7226 0,0.8053 0.5555,1.4649 1.2344,1.4649 0.6789,0 2.6491,2.2376 4.377,4.9746 l 3.1406,4.9765 3.125,0.7852 3.123,0.7832 0,1.1152 c 0,0.613 -0.7031,1.1304 -1.5625,1.1504 l -1.5625,0.037 3.9453,3.5918 c 2.1697,1.9751 6.9239,7.4424 10.5645,12.1504 6.2639,8.1004 12.4701,15.6095 19.1523,23.1739 1.6341,1.8499 3.6149,5.3149 4.4024,7.7011 l 1.4316,4.3399 1.6895,0.6465 1.6875,0.6484 1.9687,-2.0996 c 2.9596,-3.1563 8.8207,-10.4577 11.1504,-13.8906 l 2.0625,-3.0391 -1.3535,-1.6328 -1.3555,-1.6309 0.7774,-2.0234 0.7754,-2.0235 2.9199,0.7325 2.918,0.7324 3.8437,-5.9297 c 2.1134,-3.2615 6.1374,-8.0542 8.9434,-10.6504 2.806,-2.5962 5.1015,-5.3649 5.1015,-6.1523 0,-0.7873 1.1735,-2.6807 2.6074,-4.2071 l 2.6075,-2.7754 -1.2852,-2.4023 -1.2871,-2.4023 5.4004,-5.0821 c 2.9699,-2.7949 6.595,-5.4605 8.0547,-5.9238 3.5253,-1.1188 3.3607,-2.725 -0.3731,-3.6621 l -3.0254,-0.7598 -1.9746,0.7578 -1.9746,0.7578 0,-1.3847 0,-1.3828 1.4043,0 1.4024,0 -1.3536,-1.6328 -1.3554,-1.6309 7.7637,0.092 7.7636,0.094 2.1875,-1.7793 c 1.2032,-0.9785 2.1875,-2.3346 2.1875,-3.0117 0,-0.677 0.9316,-1.9111 2.0684,-2.7422 l 2.0664,-1.5097 -3.9414,-1.375 -3.9434,-1.3731 0,-2.5664 0,-2.5644 1.3672,0 c 0.7509,0 2.8556,1.172 4.6777,2.6054 l 3.3125,2.6075 0.7481,-3.6543 c 0.9817,-4.7993 2.1463,-6.5586 4.3437,-6.5586 l 1.8008,0 0,-1.1465 c 0,-0.6302 -0.7031,-1.4305 -1.5625,-1.7793 l -1.5625,-0.6348 1.6973,-1.1875 1.6953,-1.1894 -1.3828,-0.8555 c -0.761,-0.4703 -1.3848,-1.4445 -1.3848,-2.166 l 0,-1.3125 2.9922,0.7519 2.9922,0.75 0.7754,-3.0898 0.7773,-3.0918 3.7325,-2.7598 3.7304,-2.7597 0,-1.6387 0,-1.6406 1.3828,0 c 0.7603,0 3.5728,1.7351 6.25,3.8554 l 4.8672,3.8555 0,5.0137 0,5.0137 2.586,3.6308 2.5859,3.6309 -1.0234,0.1445 c -0.5625,0.079 -2.0078,0.042 -3.211,-0.08 l -2.1875,-0.2226 0,1.955 0,1.9532 1.2246,0 1.2246,0 2.4727,4.8457 2.4727,4.8437 -0.75,0.75 -0.7481,0.7481 2.9785,2.4121 2.9785,2.4121 -2.2734,2.5137 -2.2754,2.5136 2.1172,3.2305 2.1172,3.2305 1.8047,0 1.8047,0 -0.7735,1.25 c -0.4248,0.6875 -1.7693,1.25 -2.9883,1.25 l -2.2168,0 -1.3144,4.2832 -1.3145,4.2832 2.3555,3.8711 c 1.2951,2.1296 2.3535,4.1397 2.3535,4.4668 0,0.3271 -1.125,0.5957 -2.5,0.5957 l -2.5,0 0,2.25 c 0,1.2375 0.6515,2.9013 1.4473,3.6972 l 1.4473,1.4473 -1.711,2.0625 -1.7129,2.0625 2.3789,1.7402 c 1.3085,0.9569 2.8347,1.7403 3.3907,1.7403 0.5561,0 1.0097,0.8437 1.0097,1.875 l 0,1.875 -3.125,0 -3.125,0 -0.2129,2.8125 c -0.1175,1.5469 -0.2841,5.0625 -0.3691,7.8125 l -0.1543,5 1.3066,1.7656 1.3047,1.7656 -1.5683,0.5274 -1.5723,0.5293 0.793,1.2832 0.7929,1.2832 -1.7226,1.0644 -1.7227,1.0645 -0.1406,9.7324 -0.1406,9.7344 1.9843,2.2832 1.9844,2.2832 -2.8691,2.164 -2.8692,2.1641 0.2813,9.6309 0.2812,9.6308 -0.8183,0.8164 c -0.4498,0.4497 -0.8184,3.8176 -0.8184,7.4844 l 0,6.668 3.1992,0 3.1993,0 -0.7735,1.25 c -0.4248,0.6875 -1.7906,1.25 -3.0351,1.25 l -2.2618,0 -0.7246,4.4629 -0.7246,4.4629 1.2129,3.1875 1.2129,3.1894 -1.2578,1.5156 -1.2578,1.5176 0.1601,12.125 0.1602,12.127 1.3828,-0.4493 c 0.7608,-0.247 2.1168,-1.9552 3.0137,-3.7949 0.8969,-1.8399 2.0943,-3.3437 2.6601,-3.3437 0.5658,0 1.722,0.8336 2.5684,1.8535 l 1.5391,1.8535 -2.9493,1.2285 c -1.6216,0.675 -4.1954,2.3049 -5.7187,3.6231 l -2.7695,2.3965 -0.6953,6.0839 c -0.3835,3.3464 -0.954,12.9766 -1.2676,21.3985 l -0.5703,15.3125 1.2226,0 1.2246,0 0,1.8359 0,1.834 -1.664,-0.6387 -1.6661,-0.6387 -1.6054,8.9844 -1.6055,8.9844 2.0215,1.1309 2.0195,1.1308 0,1.8438 0,1.8437 3.2071,1.2188 3.207,1.2207 5.8555,-0.088 c 3.2209,-0.048 6.9804,-0.5279 8.3554,-1.0645 l 2.5,-0.9746 0,-1.4375 c 0,-0.7901 0.4219,-1.4355 0.9375,-1.4355 l 3.3985,0 2.4609,0 -0.6836,1.7832 -0.6855,1.7832 5.4121,0.6601 c 2.9761,0.3637 10.1914,1.1642 16.0351,1.7793 5.8438,0.6151 12.5938,1.1932 15,1.2852 l 4.375,0.168 1.6973,-1.0743 1.6953,-1.0742 -1.4844,-0.918 -1.4843,-0.9179 0.7792,-3.1074 0.7813,-3.1094 -1.4063,-1.6934 -1.4062,-1.6933 -0.5957,-24.125 c -0.3282,-13.2684 -0.7349,-28.0606 -0.9043,-32.8731 l -0.3086,-8.75 1.1465,-1.5469 1.1465,-1.5468 -0.7617,-1.9805 -0.7598,-1.9824 1.4043,-5.5742 1.4023,-5.5723 -2.1308,-2.3555 -2.1309,-2.3554 2.1211,-3.2383 2.1231,-3.2383 -1.5352,-3.7031 -1.5352,-3.7051 1.3868,-3.9746 1.3847,-3.9746 0,-5.9903 0,-5.9902 -1.2519,-0.7734 -1.2539,-0.7754 1.1953,-2.2324 1.1953,-2.2325 -1.2832,-1.2832 -1.2832,-1.2832 1.4004,-5.1953 1.3984,-5.1953 -0.8769,-7.7754 -0.8789,-7.7754 -1.7481,-1.2832 -1.748,-1.2832 0.8261,-2.1543 c 0.4546,-1.185 1.2986,-2.1543 1.875,-2.1543 l 1.0489,0 -0.1465,-7.8125 c -0.08,-4.2969 0.2934,-9.3682 0.832,-11.2676 l 0.9785,-3.4531 -0.8594,-5.7363 -0.8613,-5.7363 -2.7168,0.5918 c -1.4943,0.3254 -3.6074,0.9695 -4.6972,1.4316 l -1.9825,0.8418 -2.5957,-2.2422 c -1.4285,-1.2332 -2.9526,-3.4621 -3.3847,-4.9531 l -0.7852,-2.711 2.2402,-0.4726 c 1.2318,-0.2593 4.166,0.1012 6.5215,0.8008 l 4.2832,1.2734 0.5078,-1.5273 0.5098,-1.5274 2.6465,0 2.6445,0 -1.5,-1.5 c -0.825,-0.825 -1.5,-2.2924 -1.5,-3.2597 l 0,-1.7579 1.875,0.7188 1.875,0.7187 0,-1.5351 0,-1.5332 -2.5469,-1.5918 -2.5488,-1.5918 0.7461,-1.209 c 0.411,-0.665 1.7751,-1.209 3.0293,-1.209 l 2.2793,0 0.8399,-7.8437 0.8398,-7.8418 -0.8281,-2.1582 c -0.4554,-1.1867 -1.3294,-2.1563 -1.9434,-2.1563 -0.6139,0 -1.1172,-0.5625 -1.1172,-1.25 l 0,-1.25 1.6856,0 1.6855,0 0.1055,-3.7285 0.1055,-3.7285 -1.0801,-0.668 -1.0801,-0.6679 1.7383,-3.3497 1.7383,-3.3515 -1.1719,-1.4121 -1.1719,-1.4102 1.4824,-3.9258 1.4805,-3.9238 -2.8418,-3.0234 -2.8418,-3.0254 0.8457,-4.5039 0.8457,-4.5059 -2.0644,-0.791 -2.0645,-0.793 0.334,-2.0332 c 0.1836,-1.1185 -0.189,-2.8692 -0.8281,-3.8906 l -1.1621,-1.8574 0.3437,-4.002 0.3457,-4.0019 -3.8398,-1.9864 c -2.1113,-1.0919 -3.8379,-2.3261 -3.8379,-2.7441 0,-0.418 1.4916,-2.0434 3.3164,-3.6113 l 3.3183,-2.8516 0.4786,-7.918 0.4804,-7.9199 -0.9941,-6.8222 -0.9942,-6.82031 -3.1152,-0.83789 -3.1152,-0.83789 4.0625,-1.52734 4.0625,-1.5254 0,-11.06445 0,-11.0664 -2.1621,-1.20899 -2.1621,-1.20898 2.1621,-2.38868 2.1621,-2.38867 0,-2.46484 c 0,-1.35523 -0.5806,-3.0435 -1.2891,-3.75195 l -1.2871,-1.28711 1.1094,-2.99805 1.1074,-2.99805 -1.5234,-6.55273 c -0.8378,-3.60433 -1.2343,-6.8438 -0.8809,-7.19727 0.9981,-0.99805 1.9258,-18.41187 1.9258,-36.03711 l 0,-15.98242 -1.3145,-1.3125 -1.3125,-1.31445 -2.6406,2.26172 c -1.4526,1.24384 -2.6426,2.91971 -2.6426,3.72461 l 0,1.46484 -1.875,0.71875 -1.875,0.71875 0,1.91602 0,1.91406 -2.3437,0 -2.3438,0 -0.7539,3.77539 -0.7558,3.77539 -3.9043,0.78125 -3.9063,0.78125 -2.3183,3.81445 -2.3204,3.81446 1.2793,1.54101 1.2793,1.54102 -2.5039,1.34179 -2.5058,1.33985 -0.7754,-1.25391 -0.7735,-1.25195 0.9629,-1.5625 0.9629,-1.5625 -3.7011,2.35156 c -5.3853,3.4232 -9.3282,7.23194 -9.3282,9.01172 l 0,1.55273 -3.4375,2.60352 -3.4375,2.60547 2.4278,1.875 2.4257,1.875 -1.9707,0 c -3.0011,0 -8.1573,3.00706 -11.6894,6.81836 l -3.1738,3.42383 1.4824,1.7832 1.4805,1.78516 -0.7735,0.77148 -0.7734,0.77344 -1.9043,-1.58203 c -1.878,-1.55853 -2.0657,-1.44455 -2.375,1.42773 l -0.1563,1.44922 -3.9023,1.36328 -3.9024,1.36133 -5.1269,5.625 -5.125,5.625 -0.035,2.30469 -0.033,2.30273 -2.5,0.6543 c -1.375,0.35958 -2.5,1.15049 -2.5,1.75781 0,0.60731 -0.6124,1.10547 -1.3613,1.10547 -0.7489,0 -3.722,2.42762 -6.6055,5.39453 -2.8835,2.96691 -7.1279,6.48253 -9.4336,7.8125 -2.3056,1.32996 -6.9155,5.08985 -10.2441,8.35547 -3.3285,3.26562 -6.6279,5.9375 -7.3301,5.9375 l -1.2754,0 0,1.57422 0,1.57422 -4.4121,3.73819 c -2.4265,2.0559 -5.7826,4.9597 -7.459,6.4532 -1.6763,1.4936 -4.2322,3.0913 -5.6797,3.5507 l -2.6328,0.836 2.1602,2.3867 2.1602,2.3867 -3.0059,0.2129 c -1.6535,0.1176 -4.1309,0.2661 -5.5059,0.3301 l -2.5,0.1152 -0.3965,3.4219 -0.3945,3.4199 -3.0039,0 -3.0019,0 0.6601,1.7207 0.6602,1.7227 -4.3282,0.8125 -4.3281,0.8105 -1.9238,2.9375 -1.9258,2.9375 -3.3164,0.834 -3.3164,0.832 -1.8613,-1.5468 c -1.0242,-0.8501 -2.6869,-3.6038 -3.6934,-6.1192 l -1.8301,-4.5722 -6.2812,-2.9434 -6.2813,-2.9414 -1.1992,-2.2383 -1.1973,-2.2383 -4.6464,-2.5547 c -4.8933,-2.6903 -12.014,-7.6322 -15.3555,-10.6562 -1.0927,-0.9889 -2.3964,-1.7969 -2.8984,-1.7969 l -0.9141,0 0.8476,1.3692 0.8458,1.3711 -2.2305,-0.4336 -2.2324,-0.4317 -0.5215,-1.5625 -0.5196,-1.56243 1.9786,0 1.9804,0 0,-1.48242 c 0,-2.02467 -5.0673,-7.26758 -7.0234,-7.26758 -0.8725,0 -2.3233,-0.98437 -3.2246,-2.1875 -2.2009,-2.93779 -9.2507,-7.8125 -11.2988,-7.8125 -0.9061,0 -2.9554,-0.91684 -4.5547,-2.03711 l -2.9082,-2.03711 -7.0586,0.56445 c -3.8816,0.31026 -8.7442,0.23334 -10.8067,-0.16992 l -3.75,-0.73242 0,-3.10742 0,-3.10547 -4.9882,-0.625 -4.9883,-0.625 -0.416,-2.1875 -0.4161,-2.1875 1.2676,0 c 0.6973,0 1.6162,0.5625 2.041,1.25 l 0.7715,1.25 3.9903,0.0176 c 2.1938,0.0105 4.7635,0.51122 5.7109,1.11132 l 1.7226,1.0918 -0.8593,1.38867 -0.8594,1.39063 5.3867,-0.125 c 2.9624,-0.0685 6.793,-0.57456 8.5117,-1.125 l 3.125,-1.00195 -2.1875,-0.125 -2.1875,-0.12305 0,-2.41211 0,-2.41016 -4.2109,-4.46484 c -2.3155,-2.4552 -4.8467,-4.46289 -5.625,-4.46289 l -1.4141,0 0,1.97851 0,1.97852 -1.5625,-0.51953 -1.5625,-0.52149 -0.076,-1.77148 c -0.042,-0.97397 0.3892,-2.4016 0.9589,-3.17383 l 1.0352,-1.4043 -0.6895,-1.7207 c -0.3789,-0.94652 -2.9198,-3.37593 -5.6464,-5.39844 -2.7267,-2.0225 -4.9571,-4.16552 -4.9571,-4.76171 l 0,-1.08399 -1.25,0.77344 -1.25,0.77148 -0.012,-3.51172 -0.014,-3.50976 -7.4882,-6.80664 -7.4883,-6.80664 0,-1.56836 0,-1.56641 -4.0625,-3.13086 c -2.2343,-1.72161 -6.0312,-5.66578 -8.4375,-8.76562 l -4.375,-5.63672 -2.1875,-0.0469 -2.1875,-0.0469 0,-1.32422 0,-1.32422 1.5625,0.94727 c 1.8872,1.14432 -10.7141,-14.01494 -14.9512,-17.98633 l -3,-2.8125 -2.4297,0 -2.4316,0 z m 36.248,38.75 0,1.25 c 0,0.6875 -0.1406,1.21051 -0.3125,1.16211 -0.1718,-0.0483 -1.4375,-0.57125 -2.8125,-1.16211 l -2.5,-1.07422 2.8125,-0.0879 2.8125,-0.0879 z m 94.1582,27.60547 -2.7031,1.89453 c -1.4871,1.04157 -2.7051,2.42375 -2.7051,3.07226 l 0,1.17969 2.4571,0 2.455,0 1.2989,-2.42578 1.2968,-2.42383 -1.0488,-0.64844 -1.0508,-0.64843 z m -75.459,5.08789 c 0.3709,-0.0379 0.6918,0.0276 0.8711,0.20703 0.3588,0.35878 0.4613,1.62819 0.2286,2.82031 l -0.4239,2.16797 -1.623,-1.95898 -1.6231,-1.95899 1.3946,-0.86133 c 0.3833,-0.2369 0.8049,-0.37811 1.1757,-0.41601 z m -47.5566,6.99609 1.9297,0.74024 c 1.0609,0.4071 1.9277,1.3202 1.9277,2.02929 l 0,1.29102 -1.8008,0 c -0.9907,0 -2.1718,-0.60076 -2.625,-1.33399 l -0.8242,-1.33398 0.6973,-0.69531 0.6953,-0.69727 z m 258.7852,9.06055 2.4257,0 0.8399,1.35742 0.8398,1.35938 -1.0781,1.05664 -1.0801,1.05664 -2.1875,-1.61524 c -2.8535,-2.10824 -2.7698,-3.21484 0.2403,-3.21484 z m 30.3339,1.0918 -0.541,1.64062 -0.539,1.64258 -5.3457,0.39062 -5.3457,0.39063 0.539,-1.64063 0.541,-1.64062 5.3457,-0.39258 5.3457,-0.39062 z m 5.2657,2.71679 c 0.6566,-0.033 0.2992,0.54449 -0.9727,1.81641 -2.1251,2.12505 -3.3047,2.39479 -3.3047,0.75781 0,-0.61395 0.891,-1.4577 1.9785,-1.875 1.147,-0.44013 1.9049,-0.67941 2.2989,-0.69922 z m -1.7774,12.02344 0.834,0.83398 0.834,0.83399 -1.668,0 -1.666,0 0.834,-0.83399 0.832,-0.83398 z m -225.3965,1.89844 1.4903,0.92187 1.4922,0.92188 -0.8008,2.08789 c -0.9492,2.47332 -1.997,2.62607 -4.0352,0.58789 -1.9482,-1.94826 -1.8949,-3.08156 0.1778,-3.87695 l 1.6757,-0.64258 z m -23.3535,0.60156 0.834,0.83398 0.834,0.83399 -0.834,0.83203 -0.834,0.83398 0,-1.66601 0,-1.66797 z m 242.25,0.47266 c 0.7751,0.0578 1.9661,0.65754 3.4492,1.77929 l 2.4258,1.83594 -2.6035,0.0391 c -2.7335,0.0417 -4.2715,-0.91828 -4.2715,-2.66797 0,-0.58778 0.2451,-0.91154 0.6934,-0.97851 0.093,-0.014 0.1959,-0.0161 0.3066,-0.008 z m -208.5,0.77734 0.834,0.83398 0.834,0.83399 -1.668,0 -1.666,0 0.834,-0.83399 0.832,-0.83398 z m 190.5,0.66797 3.1875,1.30859 c 1.7535,0.71895 5.1478,1.36425 7.543,1.43555 l 4.3555,0.13086 0.4238,2.1875 0.4238,2.1875 -1.9668,0 -1.9668,0 0,1.25 c 0,0.6875 -0.5625,1.25 -1.25,1.25 l -1.25,0 0,-1.91602 0,-1.91406 -2,-0.76758 -2.0019,-0.76758 -0.9805,1.5879 -0.9824,1.58984 -3.5801,-0.0195 c -1.9688,-0.0102 -4.1606,0.44903 -4.8711,1.02148 l -1.291,1.04102 -1.834,-1.27344 -1.834,-1.27344 1.5625,-0.63476 1.5625,-0.63282 0,-2.25 0,-2.25 3.375,-0.64648 3.375,-0.64453 z m -273,3.5 1.875,0 c 1.0313,0 1.875,0.22004 1.875,0.49023 0,0.2702 -0.8437,0.8152 -1.875,1.21094 l -1.875,0.71875 0,-1.21094 0,-1.20898 z m 290.6328,0.76562 7.4727,0.34571 c 7.7677,0.35981 9.3945,0.80935 9.3945,2.59765 l 0,1.0625 -8.834,0.084 -8.8359,0.082 0.4004,-2.08594 0.4023,-2.08594 z m -210.6328,0.0664 0.834,0.83398 0.834,0.83399 -1.668,0 -1.666,0 0.834,-0.83399 0.832,-0.83398 z m -75.1465,0.41797 1.9493,0 1.9472,0 0,1.25 c 0,0.6875 -0.5289,1.25 -1.1758,1.25 -0.6469,0 -1.5243,-0.5625 -1.9492,-1.25 l -0.7715,-1.25 z m 38.4454,0.25586 1.455,3.85156 c 0.7998,2.11867 1.322,3.96 1.1621,4.0918 -0.1599,0.1318 -1.509,0.61318 -2.998,1.07031 l -2.707,0.83203 -0.5879,-0.98828 -0.5879,-0.98828 2.1328,-3.93555 2.1309,-3.93359 z m 49.2011,0.57617 0.834,0.83398 0.834,0.83399 -1.668,0 -1.666,0 0.834,-0.83399 0.832,-0.83398 z m -63.0039,0.17773 2.8028,0.43164 2.8007,0.4336 0.045,1.2168 0,0.002 c 0.075,2.10186 -2.1969,2.07442 -3.959,-0.0488 l -1.6895,-2.03516 z m 306.5098,5.41211 0.748,0.7461 c 0.411,0.41096 0.7461,1.21613 0.7461,1.78906 0,1.32264 -1.4036,1.30215 -3.541,-0.0527 l -1.668,-1.05664 1.8575,-0.7129 1.8574,-0.71289 z m -49.7559,4.67972 1.25,0.7734 c 0.6875,0.4249 1.25,1.3023 1.25,1.9492 0,0.6469 -0.5625,1.1758 -1.25,1.1758 l -1.25,0 0,-1.9492 0,-1.9492 z m -268.75,0.707 5.3125,0.5527 5.3125,0.5547 -3.125,0.918 c -1.7187,0.5048 -4.1093,0.973 -5.3125,1.041 l -2.1875,0.125 0,-1.5957 0,-1.5957 z m 284.8281,1.9004 0.7325,1.1855 0.7304,1.1836 -1.1836,0.7305 -1.1835,0.7324 -0.7325,-1.1836 -0.7304,-1.1836 1.1836,-0.7324 1.1835,-0.7324 z m -268.3789,1.4707 15.2735,0.2871 15.2715,0.2871 3.0312,2.1231 3.0313,2.123 -5.5899,0.1485 c -3.0749,0.081 -6.1543,0 -6.8418,-0.1895 -0.6875,-0.1854 -3.5,-0.3284 -6.25,-0.3184 -2.75,0.01 -7.8925,0.4197 -11.4277,0.9122 l -6.4258,0.8945 -0.7656,-1.2363 -0.7637,-1.2344 0.7285,-1.8985 0.7285,-1.8984 z m 46.0508,0.6543 0.834,0.832 0.834,0.834 -1.668,0 -1.666,0 0.834,-0.834 0.832,-0.832 z m -6.25,5 0.834,0.832 0.834,0.834 -1.668,0 -1.666,0 0.834,-0.834 0.832,-0.832 z m 230,2.5 0.834,0.832 0.834,0.834 -1.668,0 -1.666,0 0.834,-0.834 0.832,-0.832 z m 32.668,0.084 1.3965,1.3965 c 1.9255,1.9255 0.8907,2.4409 -2.8145,1.4043 l -3.125,-0.875 2.2715,-0.9629 2.2715,-0.9629 z m -278.918,0.1855 1.25,0.7715 c 0.6875,0.4249 1.25,1.3023 1.25,1.9492 0,0.6469 -0.5625,1.1758 -1.25,1.1758 l -1.25,0 0,-1.9492 0,-1.9473 z m 28.7012,0.07 7.4824,0.4317 7.4824,0.4316 2.2305,1.916 c 1.2264,1.0543 3.2129,2.2667 4.416,2.6934 1.2032,0.4267 2.1875,1.3554 2.1875,2.0645 0,0.7091 -0.1406,1.2102 -0.3125,1.1132 -0.1718,-0.097 -3.4062,-0.602 -7.1875,-1.123 l -6.875,-0.9473 -3.8301,0.5938 -3.83,0.5937 -1.6211,-1.9551 -1.6231,-1.955 0.7403,-1.9278 0.7402,-1.9297 z m -43.9941,1.1211 5.3613,1.0606 5.3633,1.0605 0.5136,1.543 0.5137,1.541 -3.2285,0 -3.2305,0 0,-1.25 0,-1.25 -4,0 -4,0 1.3535,-1.3515 1.3536,-1.3536 z m 36.3378,0.2637 c 0.4253,-0.01 1.0053,0.06 1.7676,0.168 l 2.8125,0.3984 0,1.8574 0,1.8594 -2.0293,0.3906 -2.0293,0.3907 -0.7832,-2.0391 c -0.883,-2.3013 -1.014,-3.0015 0.2617,-3.0254 z m 221.9336,4.9414 -2.4257,1.836 c -2.7299,2.0648 -5.5528,2.4767 -5.5528,0.8105 0,-1.0204 4.0597,-2.5889 6.8028,-2.6289 l 1.1757,-0.018 z m -247.8691,0.9414 0.6953,0.6973 0.6973,0.6953 -0.8242,1.334 c -1.038,1.6791 -2.7934,1.7138 -3.8067,0.074 l -0.7793,-1.2598 2.0078,-0.7695 2.0098,-0.7715 z m 5.9941,1.5586 1.9493,0 1.9472,0 0,1.25 c 0,0.6875 -0.5288,1.25 -1.1758,1.25 -0.6469,0 -1.5243,-0.5625 -1.9492,-1.25 l -0.7715,-1.25 z m 15.1622,1.25 1.2421,0 c 0.6831,0 1.2422,0.5561 1.2422,1.2344 l 0,1.2324 4.6231,1.9317 4.6211,1.9296 1.9062,-0.7304 1.9063,-0.7324 -1.8399,-1.1817 -1.8418,-1.1836 1.8477,-1.1855 1.8457,-1.1875 1.9668,1.7793 1.9668,1.7793 4.9297,1.0254 4.9316,1.0234 0.3887,2.0273 0.3906,2.0254 -2.5703,0.8164 -2.5723,0.8164 0,1.7891 0,1.791 1.25,0 1.25,0 0,1.875 c 0,2.2603 -1.4585,2.4165 -3.5,0.375 l -1.5,-1.5 0,2.125 0,2.125 3.75,0 3.75,0 0,-1.875 0,-1.875 1.7735,0 c 0.975,0 2.5219,-0.1888 3.4375,-0.4199 0.9156,-0.2312 1.2641,-0.1905 0.7734,0.09 l -0.8926,0.5098 1.4863,2.3789 1.4864,2.3809 -2.4688,1.8652 c -2.9067,2.1973 -4.3457,2.427 -4.3457,0.6953 l 0,-1.25 -3.0429,0 c -1.674,0 -4.5343,-0.5654 -6.3555,-1.2578 l -3.3106,-1.2598 -2.2656,2.7969 -2.2637,2.7969 0.5176,4.1797 0.5176,4.1777 -2.5234,-0.8008 -2.5235,-0.8007 0,1.3339 0,1.334 -2.5,0 -2.5,0 0,-1.3613 c 0,-0.7492 -1.0784,-2.2961 -2.3965,-3.4375 l -2.3964,-2.0762 0.6796,-4.166 0.6778,-4.168 2.2129,0.5782 2.2129,0.58 1.2812,-2.6621 1.2832,-2.6621 -0.1113,-4.0078 -0.1094,-4.0098 -1.666,-0.6386 -1.668,-0.6387 0,1.0644 c 0,0.5859 -1.1261,1.3585 -2.5039,1.7188 l -2.5058,0.6562 0.7636,1.9903 0.7637,1.9902 -1.25,0 c -0.6875,0 -1.5729,-0.8438 -1.9687,-1.875 l -0.7188,-1.875 -2.8516,-0.123 -2.8535,-0.1211 5.4102,-1.4473 5.4101,-1.4473 -0.9629,-0.9628 c -0.5294,-0.5293 -1.1327,-2.0724 -1.3398,-3.4297 l -0.3769,-2.4688 z m 224.8027,1.3985 1.4023,1.6894 1.4024,1.6895 -0.9981,0.5175 c -1.4825,0.7668 -5.375,-0.3208 -5.375,-1.5019 0,-0.5635 0.8042,-1.3325 1.7852,-1.709 l 1.7832,-0.6855 z m -230.9121,0.8418 0.7558,0.7558 0.7559,0.7559 -2.3965,-0.1 -2.3965,-0.1 1.6407,-0.6563 1.6406,-0.6562 z m -16.4063,0.2597 1.9492,0 1.9493,0 -0.7735,1.25 c -0.4248,0.6875 -1.3003,1.25 -1.9472,1.25 -0.647,0 -1.1778,-0.5625 -1.1778,-1.25 l 0,-1.25 z m 83.75,0.834 0.834,0.834 0.834,0.832 -1.668,0 -1.666,0 0.834,-0.832 0.832,-0.834 z m -16.8008,1.666 1.8008,0 0,1.25 0,1.25 -2.5722,0 -2.5743,0 0.7715,-1.25 c 0.4249,-0.6875 1.5836,-1.25 2.5742,-1.25 z m 172.5,2.5 c 0.3032,0 0.5508,0.5625 0.5508,1.25 0,0.6875 -0.5942,1.25 -1.3222,1.25 l -1.3243,0 0.7715,-1.25 c 0.4249,-0.6875 1.0211,-1.25 1.3242,-1.25 z m -250.6992,0.078 1.875,0.7207 c 1.0313,0.3957 1.875,0.9408 1.875,1.211 0,0.2702 -0.8437,0.4902 -1.875,0.4902 l -1.875,0 0,-1.2109 0,-1.211 z m 70.0625,0.2168 c 0.1607,-0.013 0.3052,-0.013 0.4258,0 0.1609,0.017 0.2822,0.058 0.3477,0.1231 0.262,0.2619 -0.3317,1.1459 -1.3184,1.9648 l -1.7949,1.4883 -0.7285,-1.1797 -0.7285,-1.1797 2.0468,-0.7851 c 0.6332,-0.243 1.2681,-0.3934 1.75,-0.4317 z m 191.1875,3.4551 1.875,0 1.875,0 0,1.25 0,1.25 -1.875,0 -1.875,0 0,-1.25 0,-1.25 z m -12.3261,1.209 1.164,0.7207 c 0.64,0.3955 1.1621,0.9663 1.1621,1.2695 0,0.3032 -0.8755,0.5508 -1.9472,0.5508 l -1.9493,0 0.7852,-1.2695 0.7852,-1.2715 z m -264.0313,2.2324 1.9297,0.7403 c 1.0608,0.4071 1.9277,1.3202 1.9277,2.0293 l 0,1.289 -1.8008,0 c -0.9906,0 -2.1719,-0.5987 -2.625,-1.332 l -0.8242,-1.334 0.6973,-0.6953 0.6953,-0.6973 z m 181.3574,1.291 1.9785,0.7598 c 1.0875,0.4173 2.5275,0.7578 3.1993,0.7578 l 1.2207,0 -0.7735,1.25 -0.7715,1.25 -2.4257,0 -2.4278,0 0,-2.0078 0,-2.0098 z m -188.8789,1.5469 1.9395,0.7442 c 1.0668,0.4094 1.9394,0.9661 1.9394,1.2363 0,1.0124 -2.3812,0.4436 -3.1152,-0.7442 l -0.7637,-1.2363 z m -17.3711,0.8047 0.834,0.834 0.834,0.832 -1.668,0 -1.666,0 0.834,-0.832 0.832,-0.834 z m 157.6485,2.916 2.5,0 2.5,0 -0.7735,1.25 -0.7715,1.25 -2.5,0 -2.5,0 0.7715,-1.25 0.7735,-1.25 z m 127.205,0 1.25,0 c 0.6875,0 1.5967,0.5625 2.0215,1.25 l 0.7735,1.25 -1.25,0 c -0.6875,0 -1.5986,-0.5625 -2.0235,-1.25 l -0.7715,-1.25 z m 30.4395,0 2.7695,0 c 1.524,0 3.1414,0.3699 3.5938,0.8223 l 0.8222,0.8222 -1.3906,1.6778 -1.3926,1.6777 -2.8554,0 -2.8555,0 0.6543,-2.5 0.6543,-2.5 z m -149.668,1.3086 c 0.6875,-0.011 2.0786,0.503 3.0899,1.1426 l 1.8379,1.1641 -0.6797,0.6796 -0.6797,0.6797 -2.4082,-1.8222 -2.4102,-1.8223 1.25,-0.021 z m -38.2148,0.055 2.6875,3.7734 2.6855,3.7735 1.8242,-0.7012 1.8243,-0.6992 2.6347,1.4101 2.6348,1.4102 -2.3398,1.7109 -2.3379,1.709 -3.5118,0 c -1.9312,0 -3.5572,-0.1406 -3.6152,-0.3125 -0.057,-0.1719 -0.2499,-1.6493 -0.4277,-3.2832 l -0.3242,-2.9707 -2.8497,-2.1484 -2.8496,-2.1504 1.9825,-0.7598 1.9824,-0.7617 z m -73.4903,0.8887 0.6954,0.6953 0.6953,0.6953 -0.7403,1.9297 c -0.864,2.2517 -1.2695,2.2585 -7.0703,0.1387 l -4.375,-1.5977 5.3985,-0.9316 5.3964,-0.9297 z m 31.1543,0.248 c -0.728,0 -1.3242,0.5625 -1.3242,1.25 0,0.6875 0.2495,1.25 0.5528,1.25 0.3031,0 0.8974,-0.5625 1.3222,-1.25 l 0.7735,-1.25 -1.3243,0 z m 136.1758,0 c 0.6875,0 1.25,0.5625 1.25,1.25 0,0.6875 -0.5625,1.25 -1.25,1.25 -0.6875,0 -1.25,-0.5625 -1.25,-1.25 0,-0.6875 0.5625,-1.25 1.25,-1.25 z m -185.5508,5 c 0.3032,0 0.5508,0.5625 0.5508,1.25 0,0.6875 -0.5942,1.25 -1.3222,1.25 l -1.3243,0 0.7715,-1.25 c 0.4249,-0.6875 1.0211,-1.25 1.3242,-1.25 z m 134.3008,0 3.959,0 c 2.177,0 3.7239,0.2021 3.4375,0.4492 -0.2865,0.247 -2.0683,0.8199 -3.959,1.2735 l -3.4375,0.8261 0,-1.2753 0,-1.2735 z m -3.75,1.1035 1.25,0.7715 c 0.6875,0.4249 1.25,1.021 1.25,1.3242 0,0.3032 -0.5625,0.5508 -1.25,0.5508 -0.6875,0 -1.25,-0.5961 -1.25,-1.3242 l 0,-1.3223 z m -62.5117,1.6153 0.7715,1.25 0.7734,1.25 -1.0781,0.9746 c -0.5933,0.5367 -2.8446,1.3049 -5.002,1.707 l -3.9218,0.7305 -2.209,-2.4395 -2.209,-2.4414 2.3809,-0.1777 c 1.3097,-0.098 4.2066,-0.3298 6.4375,-0.5156 l 4.0566,-0.3379 z m 178.7617,0.088 5.9375,0.6523 5.9375,0.6523 0.9199,1.3829 c 0.5051,0.76 0.9245,1.8026 0.9375,2.3183 0.026,1.2829 -2.4876,1.0495 -6.2324,-0.5801 -1.7187,-0.7479 -4.1093,-1.239 -5.3125,-1.0918 l -2.1875,0.2676 0,-1.8008 0,-1.8007 z m -212.6465,0.9433 3.1993,0 3.1972,0 0,1.25 0,1.25 -2.4258,0 -2.4257,0 -0.7735,-1.25 -0.7715,-1.25 z m 230,2.5 1.875,0 c 1.0313,0 2.2217,0.5625 2.6465,1.25 l 0.7735,1.25 -1.875,0 c -1.0312,0 -2.2236,-0.5625 -2.6485,-1.25 l -0.7715,-1.25 z m -110,1.25 3.5118,0.019 3.5097,0.02 -1.875,1.2109 c -2.4016,1.5521 -3.4157,1.5521 -4.375,0 l -0.7715,-1.25 z m 16.0118,0.019 c 0.8187,-0.01 1.8349,0.543 2.2597,1.2305 0.9592,1.5519 0.5264,1.5519 -1.875,0 l -1.875,-1.2109 1.4903,-0.02 z m 37.7558,0.01 1.9395,0.7442 c 1.0668,0.4094 1.9394,0.9661 1.9394,1.2363 0,1.0124 -2.3812,0.4416 -3.1152,-0.7461 l -0.7637,-1.2344 z m -43.4648,0.959 0,0 0.7558,0.7539 0.7559,0.7539 -2.3965,-0.098 -2.3965,-0.1 1.6407,-0.6563 1.6406,-0.6562 z m -168.9063,0.2617 4.6875,0.018 c 2.5782,0.01 5.9472,0.3551 7.4864,0.7676 l 2.7988,0.75 -0.6856,1.1074 -0.6836,1.1074 -5.2382,-0.098 c -5.9339,-0.1117 -8.3653,-0.8401 -8.3653,-2.5059 l 0,-1.1465 z m 101.0703,0.1367 c 0.1304,-0.01 0.2596,0 0.3907,0.014 0.6293,0.081 1.2926,0.4436 2.2402,1.043 l 1.8262,1.1543 -2.3321,2.5761 -2.332,2.5762 -2.2324,0 -2.2324,0 -0.8985,-1.4531 -0.8965,-1.4512 2.8379,-2.2988 c 1.7652,-1.4294 2.7162,-2.1039 3.6289,-2.1602 z m 162.7032,0.7461 2.5703,2.3262 2.5703,2.3262 -2.2695,0.8945 c -2.721,1.0745 -3.872,1.0753 -7.6563,0.01 l -2.8848,-0.8125 -0.021,-1.25 -0.02,-1.25 3.8555,-1.1211 3.8555,-1.1211 0,0 z m -88.7735,1.418 0,1.7246 c 0,0.9484 -0.675,2.3996 -1.5,3.2246 -0.825,0.825 -2.4513,1.5 -3.6152,1.5 l -2.1172,0 -0.7871,-2.0547 c -0.4332,-1.1296 -0.6355,-2.1885 -0.4473,-2.3535 0.188,-0.1651 2.17,-0.6913 4.4043,-1.1699 l 4.0625,-0.8711 z m -177.2343,1.1055 0.8046,1.1113 c 0.4429,0.6115 2.7735,2.0633 5.1797,3.2246 l 4.375,2.1113 -3.125,-0.1035 c -1.7187,-0.056 -4.5312,0.2633 -6.25,0.711 l -3.125,0.8144 -1.8574,-1.207 -1.8574,-1.2071 2.9277,-2.7265 2.9278,-2.7285 z m 45.7675,0.062 1.3594,0.8398 1.3574,0.8399 0,2.4257 0,2.4258 -1.7402,0 -1.7422,0 -0.7988,-2.084 -0.8008,-2.0839 1.1836,-1.1817 1.1816,-1.1816 z m 142.6524,1.4297 3.1582,2.0703 c 1.7369,1.138 3.1562,2.5011 3.1562,3.0293 0,0.5283 -0.9843,1.2188 -2.1875,1.5332 l -2.1875,0.5703 -4.8984,-1.375 -4.9004,-1.375 -0.4668,-1.4024 -0.4668,-1.4004 4.3965,-0.8242 4.3965,-0.8261 z m 93.375,0.1621 1.4707,1.4687 c 0.8086,0.8086 1.4687,2.2019 1.4687,3.0957 l 0,1.625 2.084,0 2.084,0 -0.7109,0.709 c -0.3903,0.3903 -2.8735,0.8857 -5.5196,1.0996 -2.6462,0.214 -6.2977,0.7849 -8.1133,1.2676 l -3.3007,0.8769 -0.834,-1.3515 -0.836,-1.3516 0.8555,-1.3847 0.8555,-1.3848 5.0332,0.8047 5.0351,0.8047 -1.457,-1.7539 -1.4551,-1.7539 1.67,-1.3868 1.6699,-1.3847 z m -293.3106,1.1894 2.6055,0 2.6035,0 -0.4941,1.4844 c -0.9397,2.8194 -4.7149,2.4642 -4.7149,-0.4434 l 0,-1.041 z m 85.0449,0 1.2051,0 0,1.7227 c 0,0.9471 0.8438,2.4214 1.875,3.2773 1.0313,0.8558 1.875,2.0491 1.875,2.6524 0,1.5041 -2.6153,1.2535 -5.625,-0.5391 -1.375,-0.8189 -2.6846,-1.5804 -2.9121,-1.6934 -0.8651,-0.4295 2.433,-5.4199 3.582,-5.4199 z m -37.5449,0.7149 0,2.1425 0,2.1426 1.875,0 1.875,0 0,1.25 0,1.25 -3.0508,0 -3.0507,0 -0.8457,-1.3691 -0.8477,-1.3711 2.0234,-2.0215 2.0215,-2.0234 z m 104.9278,0.5351 c 0.6469,0 1.5224,0.5625 1.9472,1.25 l 0.7735,1.25 -1.9493,0 -1.9492,0 0,-1.25 c 0,-0.6875 0.5308,-1.25 1.1778,-1.25 z m 116.4902,1 0.7695,0.7715 0.7715,0.7695 -1.3379,1.3399 -1.3379,1.3379 -0.7871,-1.2735 -0.7851,-1.2715 1.3535,-0.8378 1.3535,-0.836 z m -131.418,0.066 0,1.5176 c 0,0.834 0.9301,2.1946 2.0664,3.0254 l 2.0664,1.5117 -0.8886,1.4395 -0.8907,1.4394 -2.7382,-0.088 c -1.5064,-0.048 -3.8653,-0.5498 -5.2403,-1.1152 l -2.5,-1.0274 2.211,-0.9023 2.2089,-0.9023 -0.3339,-2 -0.336,-1.9981 2.1875,-0.4512 2.1875,-0.4492 z m -109.8261,0.1426 1.164,0.7188 c 0.64,0.3956 1.1621,0.9683 1.1621,1.2714 0,0.3032 -0.8755,0.5508 -1.9472,0.5508 l -1.9493,0 0.7852,-1.2695 0.7852,-1.2715 z m 79.8261,0.041 1.9668,0 1.9668,0 -0.4043,2.084 c -0.2223,1.1461 -1.1074,2.3174 -1.9668,2.6035 l -1.5625,0.5215 0,-2.6055 0,-2.6035 z m -38.1406,0.4375 c -0.444,0.067 -1.1682,0.606 -1.834,1.4082 l -1.5801,1.9063 1.3282,0 c 1.5107,0 3.2731,-2.3735 2.4062,-3.2403 -0.039,-0.039 -0.09,-0.062 -0.1484,-0.074 -0.051,-0.01 -0.1085,-0.01 -0.1719,0 z m 44.3906,3.2149 0,2.5488 0,2.5488 -1.1758,0 c -0.6469,0 -1.4319,-0.4219 -1.7441,-0.9375 l -0.5664,-0.9375 1.7441,-1.6113 1.7422,-1.6113 z m 46.25,0.098 1.875,0 1.875,0 0,1.25 0,1.25 -1.875,0 -1.875,0 0,-1.25 0,-1.25 z m -5.5742,0.035 c 0.9163,0.061 1.7594,0.316 2.2305,0.7871 l 0.8222,0.8222 -1.3906,1.6778 c -1.6423,1.9787 -4.3721,2.1925 -5.4629,0.4277 l -0.7715,-1.25 0.7715,-1.25 c 0.5434,-0.8792 2.2736,-1.3167 3.8008,-1.2148 z m 29.1309,2.123 1.9726,0.7578 c 1.0845,0.4162 1.9707,1.3359 1.9707,2.045 l 0,1.289 -4.0176,0 -4.0175,0 2.0468,-2.0449 2.045,-2.0469 z m 30.0468,0.3418 1.3243,0 c 0.728,0 1.3222,0.5625 1.3222,1.25 0,0.6875 -0.2476,1.25 -0.5508,1.25 -0.3031,0 -0.8993,-0.5625 -1.3242,-1.25 l -0.7715,-1.25 z m 56.25,1.25 1.9493,0 1.9472,0 0,1.25 c 0,0.6875 -0.5288,1.25 -1.1758,1.25 -0.6469,0 -1.5243,-0.5625 -1.9492,-1.25 l -0.7715,-1.25 z m 13.9707,0 2.4258,0 0,1.25 0,1.25 3.75,0 3.75,0 0,-1.25 0,-1.25 3.0235,0 c 1.6625,0 3.9125,0.3425 5,0.7598 l 1.9765,0.7578 0,1.7422 0,1.7402 -2.8125,0.09 c -1.5468,0.049 -4.7812,0.2535 -7.1875,0.455 -5.3432,0.4473 -10.1029,-0.3575 -12.1719,-2.0566 l -1.5488,-1.2715 0.6836,-1.1074 c 0.3768,-0.6096 1.7769,-1.1094 3.1113,-1.1094 z m -116.3242,1.25 2.5918,0 2.5918,0 -0.4179,2.1738 -0.418,2.1739 -2.1738,0.4179 -2.1739,0.418 0,-2.5918 0,-2.5918 z m -17.5,1.2285 7.1875,0.834 7.1875,0.836 1.6348,2.3007 1.6328,2.3008 1.8047,0 1.8027,0 0,1.875 0,1.875 -2.25,0 c -1.2375,0 -2.925,-0.675 -3.75,-1.5 l -1.5,-1.5 -1.5,1.5 c -1.7911,1.7911 -2.2227,1.8044 -5.0625,0.1504 l -2.1875,-1.2734 0,-2.4395 0,-2.4375 -2.5,0 -2.5,0 0,-1.2597 0,-1.2618 z m 53.1992,2.5215 c 0.3032,0 0.5508,0.5625 0.5508,1.25 0,0.6875 -0.5942,1.25 -1.3222,1.25 l -1.3243,0 0.7715,-1.25 c 0.4249,-0.6875 1.0211,-1.25 1.3242,-1.25 z m -76.3242,2.4844 4.9043,0.3203 4.9043,0.3203 0.5117,1.5625 0.5137,1.5625 -2.291,-0.043 c -1.2604,-0.024 -3.6992,-0.8732 -5.418,-1.8848 l -3.125,-1.8379 z m 48.3047,3.1406 1.6113,2.1875 c 0.886,1.2032 2.1111,2.2065 2.7227,2.2285 0.6117,0.022 2.2339,0.8874 3.6055,1.9239 l 2.4941,1.8847 -1.8691,1.1817 c -3.1287,1.978 -7.4942,0.8671 -7.4942,-1.9063 l 0,-1.666 -1.4746,-0.4922 -1.4746,-0.4922 0.9395,-2.4238 0.9394,-2.4258 z m -146.5762,1.875 1.3243,0 c 0.728,0 1.3222,0.5625 1.3222,1.25 0,0.6875 -0.2476,1.25 -0.5508,1.25 -0.3031,0 -0.8993,-0.5625 -1.3242,-1.25 l -0.7715,-1.25 z m 259.0704,1.209 1.164,0.7207 c 0.64,0.3955 1.1621,0.9663 1.1621,1.2695 0,0.3031 -0.8755,0.5508 -1.9472,0.5508 l -1.9493,0 0.7852,-1.2695 0.7852,-1.2715 z m -143.9239,0.875 0.834,0.834 0.834,0.832 -0.834,0.834 -0.834,0.834 0,-1.668 0,-1.666 z m -7.5,0.416 1.9492,0 1.9493,0 -0.7735,1.25 c -0.4248,0.6875 -1.3003,1.25 -1.9472,1.25 -0.647,0 -1.1778,-0.5625 -1.1778,-1.25 l 0,-1.25 z m 166.3985,1.25 3.0507,0 3.0508,0 0,1.875 0,1.875 -2.916,0 c -1.6042,0 -3.2752,-0.3591 -3.7148,-0.7988 l -0.8008,-0.7988 0.666,-1.0762 0.6641,-1.0762 z m 16.5078,0.1582 c 0.9563,0.038 1.9609,0.1648 2.7832,0.3711 l 2.9902,0.752 1.3281,2.4843 1.3321,2.4864 -2.4707,0 -2.4707,0 -0.8204,-1.3282 c -0.451,-0.7299 -2.313,-1.9439 -4.1367,-2.6972 l -3.3164,-1.3692 2.2871,-0.539 c 0.6288,-0.1482 1.5378,-0.1985 2.4942,-0.1602 z m -25.4063,1.4395 3.125,0.5976 c 1.7188,0.3285 3.125,0.8126 3.125,1.0762 0,0.2636 -1.4062,0.4785 -3.125,0.4785 l -3.125,0 0,-1.0762 0,-1.0761 z m -291.25,0.9023 c 0.6875,0 1.25,0.5625 1.25,1.25 0,0.6875 -0.5625,1.25 -1.25,1.25 -0.6875,0 -1.25,-0.5625 -1.25,-1.25 0,-0.6875 0.5625,-1.25 1.25,-1.25 z m 13.1992,2.502 c 0.3032,0 0.5508,0.5625 0.5508,1.25 0,0.6875 -0.5942,1.25 -1.3222,1.25 l -1.3243,0 0.7715,-1.25 c 0.4249,-0.6875 1.0211,-1.25 1.3242,-1.25 z m 290.4473,2.7422 1.4551,1.7539 1.4551,1.7539 -1.9532,0 c -1.0749,0 -2.3151,0.5821 -2.7558,1.2949 l -0.8008,1.2969 4.1641,-0.2715 4.164,-0.2695 2.8125,1.5175 c 1.5469,0.835 2.8125,1.995 2.8125,2.5782 0,0.5831 -1.2656,1.3999 -2.8125,1.8144 -3.8267,1.0256 -4.4117,0.9765 -4.8945,-0.4043 l -0.418,-1.1914 -7.5,-0.6191 c -4.125,-0.3413 -8.2031,-0.6486 -9.0625,-0.6836 l -1.5625,-0.062 0,-1.4649 c 0,-0.8052 -0.9843,-2.5593 -2.1875,-3.8965 l -2.1875,-2.4296 2.5,0.5312 2.5,0.5332 -0.3008,1.4531 -0.3007,1.4551 4.0507,-0.7402 c 2.2282,-0.4071 5.5755,-1.4612 7.4375,-2.3438 l 3.3848,-1.6054 z m -279.8965,1.8398 0.834,0.834 0.834,0.834 -1.668,0 -1.666,0 0.834,-0.834 0.832,-0.834 z m 147.4121,1.668 1.3379,0 0,1.7715 c 0,0.9751 0.3424,2.6626 0.7598,3.75 l 0.7578,1.9785 -1.918,0 c -1.0556,0 -2.8043,-0.8845 -3.8847,-1.9649 l -1.9649,-1.9648 1.7871,-1.7852 c 0.9821,-0.9821 2.3884,-1.7851 3.125,-1.7851 z m -31.2812,1.0273 1.4433,0.8926 1.4434,0.8926 -1.6953,1.0742 c -0.9328,0.5911 -2.4004,1.0837 -3.2598,1.0937 l -1.5625,0.02 0,-1.291 c 0,-0.7091 0.8181,-1.6013 1.8164,-1.9844 l 1.8145,-0.6973 z m 21.3691,1.4727 c 0.6875,0 1.25,0.5625 1.25,1.25 0,0.6875 -0.5625,1.25 -1.25,1.25 -0.6875,0 -1.25,-0.5625 -1.25,-1.25 0,-0.6875 0.5625,-1.25 1.25,-1.25 z m -136.2304,0.7304 2.0136,2.0157 2.0137,2.0136 -0.8477,1.3692 c -1.1697,1.8926 -2.6064,1.7134 -4.4921,-0.5586 l -1.5997,-1.9278 1.4551,-1.455 1.4571,-1.4571 z m 293.5839,3.0196 1.9493,0 1.9472,0 0,1.25 c 0,0.6875 -0.5288,1.25 -1.1758,1.25 -0.6469,0 -1.5243,-0.5625 -1.9492,-1.25 l -0.7715,-1.25 z m -322.3535,3.75 1.8028,0 c 0.9906,0 2.1474,0.5625 2.5722,1.25 l 0.7735,1.25 -2.5743,0 -2.5742,0 0,-1.25 0,-1.25 z m 307.6699,0.2968 c 1.4387,0.1771 3.5801,1.3857 3.5801,2.336 l 0,1.1172 -1.8008,0 c -1.8764,0 -3.8703,-2.2449 -2.8769,-3.2383 0.218,-0.218 0.6181,-0.2739 1.0976,-0.2149 z m -289.1523,2.6192 c 0.9164,-0.076 2.0699,0.3904 3.4082,1.4023 l 2.4492,1.8535 -4.166,0.039 -4.166,0.041 0.4941,-1.4863 c 0.385,-1.1549 1.0641,-1.7717 1.9805,-1.8477 l 0,0 z m 165.2324,2.084 c 0.6875,0 1.25,0.5625 1.25,1.25 0,0.6875 -0.5625,1.25 -1.25,1.25 -0.6875,0 -1.25,-0.5625 -1.25,-1.25 0,-0.6875 0.5625,-1.25 1.25,-1.25 z m -141.25,1.041 0,1.9785 0,1.9805 1.9805,0 1.9785,0 -0.4941,-1.4844 c -0.2721,-0.8164 -1.1641,-1.7084 -1.9805,-1.9805 l -1.4844,-0.4941 z m 246.25,1.041 0.834,0.834 0.834,0.834 -1.668,0 -1.666,0 0.834,-0.834 0.832,-0.834 z m -101.25,1.668 c 0.6875,0 1.25,0.5625 1.25,1.25 0,0.6875 -0.5625,1.25 -1.25,1.25 -0.6875,0 -1.25,-0.5625 -1.25,-1.25 0,-0.6875 0.5625,-1.25 1.25,-1.25 z m -46.498,0.664 c 0.7924,-0.097 1.5154,0.2833 1.5644,1.211 l 0.066,1.25 -2.0839,0.4316 -2.086,0.4317 0.5606,-1.6817 c 0.3243,-0.9732 1.186,-1.546 1.9785,-1.6426 z m -179.752,0.4375 -1.25,0.7735 -1.25,0.7715 0,4.375 0,4.375 1.25,-0.7715 1.25,-0.7735 0,-4.375 0,-4.375 z m 358.9239,0.1075 1.164,0.7187 c 0.64,0.3955 1.1621,0.9663 1.1621,1.2695 0,0.3031 -0.8755,0.5528 -1.9472,0.5528 l -1.9493,0 0.7852,-1.2715 0.7852,-1.2695 z m -317.0489,0 -2.4258,1.8945 -2.4257,1.8946 -2.5118,0 -2.5117,0 1.1875,-1.0899 c 0.6532,-0.5988 2.875,-1.4514 4.9375,-1.8945 l 3.75,-0.8047 z m 129.375,0.039 0,1.248 c 0,1.564 -1.3276,1.5635 -3.75,0 l -1.875,-1.2109 2.8125,-0.02 2.8125,-0.017 z m 21.3242,1.25 1.3243,0 -0.7735,1.25 c -0.4248,0.6875 -1.0191,1.25 -1.3222,1.25 -0.3033,0 -0.5528,-0.5625 -0.5528,-1.25 0,-0.6875 0.5962,-1.25 1.3242,-1.25 z m 153.6758,0.9785 0,1.3418 c 0,0.7378 -1.0137,1.8832 -2.2539,2.5469 l -2.2558,1.207 -1.7696,-1.0938 c -2.1864,-1.3512 -1.5703,-2.0323 2.8457,-3.1406 l 3.4336,-0.8613 z m -291.25,2.7715 c 0.6875,0 1.25,0.5625 1.25,1.25 0,0.6875 -0.5625,1.25 -1.25,1.25 -0.6875,0 -1.25,-0.5625 -1.25,-1.25 0,-0.6875 0.5625,-1.25 1.25,-1.25 z m -57.5,7.5 0,1.875 c 0,1.0313 0.222,1.875 0.4922,1.875 0.2702,0 0.8152,-0.8437 1.2109,-1.875 l 0.7188,-1.875 -1.2109,0 -1.211,0 z m 77.6524,2.1152 1.7558,1.7559 1.7559,1.7558 -5.5664,0.2149 -5.5684,0.2148 -0.7636,-1.2363 c -1.1211,-1.8136 -0.01,-2.4677 4.4316,-2.5938 l 3.9551,-0.1113 z m 284.8476,2.7363 1.25,0.7735 c 0.6875,0.4249 1.25,1.0191 1.25,1.3222 0,0.3032 -0.5625,0.5528 -1.25,0.5528 -0.6875,0 -1.25,-0.5961 -1.25,-1.3242 l 0,-1.3243 z m -8.5898,1.0684 3.0449,1.3887 3.0449,1.3867 0,1.6367 0,1.6367 -5.1015,0.2031 -5.0996,0.2032 1.4023,-1.6914 1.4043,-1.6914 -1.6152,-0.6016 -1.6153,-0.5996 2.2676,-0.9356 2.2676,-0.9355 z m -353.7403,3.4551 0.014,6.25 0.016,6.25 1.2911,-3.5508 1.2929,-3.5488 -1.3066,-2.7012 -1.3067,-2.6992 z m 366.0801,0.207 0.834,0.834 0.834,0.834 -0.834,0.832 -0.834,0.834 0,-1.666 0,-1.668 z m -24.2539,3.543 2.4395,0.3984 2.4394,0.3984 1.5996,2.0762 1.5977,2.0781 -0.3477,1.7618 -0.3496,1.7617 -3.2246,0.3418 -3.2265,0.3418 -1.7286,-1.0684 -1.7285,-1.0683 1.2637,-3.5118 1.2656,-3.5097 z m -15.8926,0.625 1.25,0 c 0.6875,0 1.5967,0.5625 2.0215,1.25 l 0.7735,1.25 -1.25,0 c -0.6875,0 -1.5986,-0.5625 -2.0235,-1.25 l -0.7715,-1.25 z m -267.3535,0.832 0.834,0.834 0.834,0.834 -1.668,0 -1.666,0 0.834,-0.834 0.832,-0.834 z m -9.6816,0.3145 1.4043,0.4628 1.4023,0.461 0.4004,2.7148 0.3985,2.7149 -1.752,0 c -0.9645,0 -2.0676,-0.3138 -2.4512,-0.6973 l -0.6972,-0.6992 0.6484,-2.4785 0.6465,-2.4785 z m 304.6816,1.3535 3.2168,0 3.2168,0 -0.4043,2.084 c -0.2223,1.1461 -0.988,2.2782 -1.7012,2.5156 -1.4007,0.4663 -4.3281,-1.9684 -4.3281,-3.5996 l 0,-1 z m -317.6093,0.416 3.8046,0.5586 3.8047,0.5586 0,1.1074 0,1.1094 -2.1875,-0.1465 c -1.2031,-0.08 -3.177,-0.4028 -4.3886,-0.7188 l -2.2032,-0.5742 0.584,-0.9472 0.586,-0.9473 z m 27.7187,4.2754 0.6953,0.6953 0.6973,0.6973 -0.8242,1.332 c -1.038,1.6791 -2.7934,1.7138 -3.8067,0.074 l -0.7793,-1.2578 2.0078,-0.7715 2.0098,-0.7695 z m 12.3906,1.5586 c 0.6875,0 1.25,0.5625 1.25,1.25 0,0.6875 -0.5625,1.25 -1.25,1.25 -0.6875,0 -1.25,-0.5625 -1.25,-1.25 0,-0.6875 0.5625,-1.25 1.25,-1.25 z m 283.1992,0 c 0.3032,0 0.5508,0.5625 0.5508,1.25 0,0.6875 -0.5942,1.25 -1.3222,1.25 l -1.3243,0 0.7715,-1.25 c 0.4249,-0.6875 1.0211,-1.25 1.3242,-1.25 z m -305.6992,2.082 0.834,0.834 0.834,0.834 -1.668,0 -1.666,0 0.834,-0.834 0.832,-0.834 z m -7.457,0.2969 1.3848,0.8554 1.3847,0.8555 -4.8437,1.6856 c -5.7546,2.0033 -7.5734,2.1231 -8.5391,0.5605 l -0.7187,-1.1641 0.957,-0.5468 c 0.5269,-0.301 3.0762,-0.9291 5.666,-1.3965 l 4.709,-0.8496 z m -45.918,3.2461 0,6.875 0,6.875 0.5215,-3.4375 c 0.2865,-1.8906 0.2865,-4.9843 0,-6.875 l -0.5215,-3.4375 z m 361.9297,1.0273 c 0.3064,0.051 0.098,0.8987 -0.5625,2.6192 -0.4173,1.0875 -1.261,1.9785 -1.875,1.9785 -1.637,0 -1.3672,-1.1797 0.7578,-3.3047 0.8904,-0.8904 1.4414,-1.3326 1.6797,-1.293 z m -296.2012,0.8477 4.4493,0 4.4472,0 0,1.25 0,1.25 -3.6758,0 -3.6757,0 -0.7735,-1.25 -0.7715,-1.25 z m 293.8965,7.082 0.834,0.834 0.834,0.834 -1.668,0 -1.666,0 0.834,-0.834 0.832,-0.834 z m -17.5683,2.5332 0.7714,2.0078 0.7696,2.0059 -0.8731,1.4121 -0.8711,1.4101 -2.9882,-0.75 -2.9903,-0.75 0,1.2012 c 0,0.6601 0.5625,1.5478 1.25,1.9727 0.6875,0.4249 1.25,1.3003 1.25,1.9472 l 0,1.1778 -2.4258,0 -2.4257,0 -0.7735,1.25 c -1.1346,1.8359 -3.0976,1.523 -3.9219,-0.625 l -0.7207,-1.875 0.7207,-1.875 0.7188,-1.875 -3.0859,0 c -3.639,0 -3.908,-0.9753 -0.8985,-3.2598 l 2.1875,-1.6601 3.8125,-0.041 3.8125,-0.039 1.586,1.5625 1.5839,1.5625 1.7559,-2.3809 1.7559,-2.3789 z m 9.0586,1.3457 -0.4317,2.2285 -0.4336,2.2285 -1.6816,0.5586 -1.6817,0.5606 0.4317,-2.2285 0.4316,-2.2266 1.6836,-0.5605 1.6817,-0.5606 z m -286.9356,4.4883 c 0.8088,0 2.3623,0.3478 3.9922,0.916 l 3.9512,1.377 -0.6973,1.1289 -0.6973,1.1289 -3.0898,0 -3.0918,0 -0.7402,-1.9297 c -0.4071,-1.0609 -0.4793,-2.1887 -0.1621,-2.5059 0.079,-0.079 0.2655,-0.1162 0.5351,-0.1152 z m -22.3164,0.8144 0.7559,1.9707 c 0.4157,1.0836 0.7558,2.2046 0.7558,2.4922 0,0.2875 -0.8437,0.5235 -1.875,0.5235 l -1.875,0 0,-1.8028 c 0,-0.9907 0.5037,-2.1117 1.1192,-2.4921 l 1.1191,-0.6915 z m 282.9297,0.9043 1.3086,1.3067 1.3066,1.3066 -0.8398,1.3594 c -1.1535,1.8664 -2.6006,1.7019 -4.4297,-0.502 l -1.5449,-1.8593 2.0996,-0.8067 2.0996,-0.8047 z m -272.5938,1.5821 c 0.647,0 1.1758,0.5625 1.1758,1.25 l 0,1.25 -1.9472,0 -1.9493,0 0.7715,-1.25 c 0.4249,-0.6875 1.3023,-1.25 1.9492,-1.25 z m 312.4258,3.332 0.834,0.834 0.834,0.834 -0.834,0.832 -0.834,0.834 0,-1.666 0,-1.668 z m -35.4297,2.8145 3.3399,1.2714 3.3398,1.2696 0,2.4648 0,2.4649 -5,-0.1993 -5,-0.1992 0,-2.8984 0,-2.8985 1.6602,-0.6386 1.6601,-0.6367 z m -272.0703,0.1035 3.75,0 3.75,0 0,1.25 0,1.25 -3.75,0 -3.75,0 0,-1.25 0,-1.25 z m -21.25,2.082 0.834,0.834 0.834,0.834 -1.668,0 -1.666,0 0.834,-0.834 0.832,-0.834 z m 27.5,5 0.834,0.834 0.834,0.834 -1.668,0 -1.666,0 0.834,-0.834 0.832,-0.834 z m -13.4824,0.418 1.7422,0 1.7402,0 0,2.5 0,2.5 -1.666,0 c -0.9167,0 -2.0032,-0.3371 -2.4141,-0.7481 l -0.746,-0.7461 0.6718,-1.7539 0.6719,-1.7519 z m 275.9824,3.332 0.834,0.834 0.834,0.834 -1.668,0 -1.666,0 0.834,-0.834 0.832,-0.834 z m -260.1465,0.418 3.2715,0 3.2735,0 -0.7735,1.25 c -0.4248,0.6875 -1.5498,1.25 -2.5,1.25 -0.9501,0 -2.0751,-0.5625 -2.5,-1.25 l -0.7715,-1.25 z m 266.1231,0 0,0 2.6367,0 2.6367,0 0,1.166 0,1.168 3.4375,0.3945 3.4375,0.3965 0,1.8183 0,1.8184 -3.125,0.7539 -3.125,0.7559 0.037,3.2187 0.035,3.2207 -1.4727,-0.5664 -1.4746,-0.5664 -0.8261,1.3359 -0.8262,1.336 -2.4805,0 -2.4824,0 0.3691,-2.1875 0.3672,-2.1875 -3.5117,-0.4043 -3.5117,-0.4024 0.4805,-1.4414 0.4804,-1.4394 4.9766,0.3593 4.9766,0.3594 -0.5196,-4.4531 -0.5195,-4.4531 z m -255.9766,2.084 0.834,0.832 0.834,0.834 -1.668,0 -1.666,0 0.834,-0.834 0.832,-0.832 z m 252.668,0.166 0.7695,0.7695 0.7715,0.7715 -1.3379,1.3379 -1.3379,1.3379 -0.7871,-1.2715 -0.7851,-1.2735 1.3535,-0.8359 1.3535,-0.8359 z m 11.082,2.332 -0.832,0.834 -0.834,0.834 1.666,0 1.668,0 -0.834,-0.834 -0.834,-0.834 z m -289.7324,0.5664 6.4297,0.6152 c 3.5358,0.3378 8.5371,1.2377 11.1152,2 l 4.6875,1.3848 0,1.0274 c 0,0.5644 -1.4096,1.38 -3.1328,1.8125 l -3.1328,0.7851 -4.2207,-0.791 -4.2227,-0.793 -0.7304,1.9063 -0.7305,1.9043 -2.7793,0 -2.7773,0 2.2714,-1.6621 2.2696,-1.6602 -3.2383,-2.5488 -3.2402,-2.5488 0.7168,-0.7149 0.7148,-0.7168 z m -7.875,7.041 1.9297,0.7403 c 1.0608,0.4071 1.9277,1.3203 1.9277,2.0293 l 0,1.291 -1.8008,0 c -0.9907,0 -2.1718,-0.6008 -2.625,-1.334 l -0.8242,-1.334 0.6973,-0.6953 0.6953,-0.6973 z m 302.5352,0.3106 c 0.6469,0 1.5224,0.5625 1.9472,1.25 l 0.7735,1.25 -1.9493,0 -1.9492,0 0,-1.25 c 0,-0.6875 0.5308,-1.25 1.1778,-1.25 z m -266.6016,3.664 2.0879,0.8008 c 2.693,1.0335 2.6534,2.9535 -0.1016,5.0449 l -2.1875,1.6602 -4.0625,0.039 c -2.2343,0.022 -4.0625,-0.2773 -4.0625,-0.6661 0,-0.389 0.6075,-1.8395 1.3477,-3.2226 l 1.3457,-2.5156 1.9902,0.7656 1.9922,0.7637 0.8242,-1.334 0.8262,-1.336 z m -12.4609,0.9493 1.4433,0.8906 c 0.7938,0.4905 1.4414,1.1402 1.4414,1.4433 0,1.0428 -1.1036,0.5502 -1.9941,-0.8906 l -0.8906,-1.4433 z m 266.4336,0.875 5.9394,0.6933 5.9375,0.6934 0.5176,1.5625 0.5156,1.5625 -2.916,0.027 -2.918,0.027 -3.125,2.4453 c -1.7187,1.3444 -3.4379,2.4576 -3.8222,2.4726 -0.3841,0.015 -1.6858,-0.6957 -2.8926,-1.5781 l -2.1953,-1.6035 2.4804,-3.1524 2.4786,-3.1503 z m -272.4649,0.5937 2.584,2.584 c 1.421,1.421 3.0039,2.5937 3.5195,2.5937 0.5157,0.01 1.6258,1.4874 2.4649,3.295 l 1.5254,3.2871 -2.4258,3.4082 -2.4278,3.4062 0.6954,0.6953 0.6953,0.6953 -2.7051,1.4473 -2.7051,1.4473 -1.6094,-0.6172 -1.6113,-0.6191 1.3965,3.0234 1.3945,3.0254 2.1407,0.6914 2.1406,0.6933 2.6933,-1.4414 2.6934,-1.4414 1.9961,1.9961 1.998,1.9981 -3.08,0.1465 c -1.6942,0.081 -3.7852,0.057 -4.6446,-0.055 -2.7957,-0.363 -1.6482,1.1859 1.875,2.5312 l 3.4375,1.3125 -2.4258,1.7813 c -1.3347,0.9798 -3.5032,1.7832 -4.8203,1.7832 l -2.3965,0 0.6817,1.7715 0.6797,1.7714 -1.8985,0.7286 c -2.4281,0.9318 -8.921,0.7319 -12.9453,-0.3985 l -3.125,-0.8789 2.5,-1.414 2.5,-1.4122 -2.2324,-0.8613 -2.2344,-0.8613 -1.8574,-4.4434 -1.8574,-4.4453 0.9668,-0.9316 c 0.5315,-0.5129 2.6523,-1.1169 4.7148,-1.3418 l 3.75,-0.4082 0.3887,-2.7285 0.3887,-2.7286 -2.6563,-1.4218 -2.6562,-1.4219 1.4648,-1.7637 1.4649,-1.7656 2.6425,1.8516 c 1.4542,1.0186 3.5923,1.8535 4.75,1.8535 l 2.1055,0 -0.6543,-2.5 -0.6543,-2.5 3.8223,0 3.8222,0 0.7715,-1.25 0.7735,-1.25 -2.2618,-0.1778 c -1.2436,-0.097 -3.6679,-0.2375 -5.3867,-0.3125 l -3.125,-0.1347 -0.3711,-2.6094 -0.373,-2.6094 1.8515,-1.5371 1.8516,-1.5371 z m 303.916,2.25 0.834,0.834 0.834,0.834 -0.834,0.832 -0.834,0.834 0,-1.666 0,-1.668 z m -11.25,0.209 1.4844,0.4941 c 0.8164,0.2721 1.7084,1.1641 1.9805,1.9805 l 0.4941,1.4844 -1.9785,0 -1.9805,0 0,-1.9805 0,-1.9785 z m -316.7246,1.0078 2.1914,0.8418 2.1934,0.8418 -0.7793,1.2578 -0.7774,1.2598 1.9493,0 1.9472,0 0,1.1777 0,1.1797 -6.2539,-0.1426 c -3.4402,-0.078 -6.5195,-0.4063 -6.8418,-0.7285 -1.0983,-1.0984 0.7381,-2.7363 3.0664,-2.7363 l 2.3223,0 0.4902,-1.4766 0.4922,-1.4746 z m 321.7246,0.033 0.834,0.834 0.834,0.834 -0.834,0.832 -0.834,0.834 0,-1.666 0,-1.668 z m -307.4336,1.8359 c 1.0634,0.1352 2.4336,1.2983 2.4336,2.4043 0,0.647 -0.5288,1.1778 -1.1758,1.1778 -1.4748,0 -3.0516,-2.4386 -2.1562,-3.334 0.2238,-0.2239 0.544,-0.2931 0.8984,-0.2481 z m 303.3086,6.086 3.9883,0.4648 c 2.1933,0.2554 4.3261,0.8028 4.7402,1.2168 l 0.7539,0.7539 -1.582,1.9043 c -1.8514,2.2308 -3.1514,2.2546 -7.916,0.1465 l -3.5156,-1.5547 1.7656,-1.4668 1.7656,-1.4648 z m -308.5215,4.9941 0,0 0.8399,1.3574 0.8398,1.3574 -1.3906,1.3926 -1.3926,1.3906 0,-2.0215 0,-2.0195 -1.5625,-0.6309 -1.5625,-0.6308 2.1153,-0.1 2.1132,-0.098 z m 261.3965,0.08 1.875,0.7187 c 1.0313,0.3957 1.875,0.9408 1.875,1.211 0,0.2702 -0.8437,0.4922 -1.875,0.4922 l -1.875,0 0,-1.211 0,-1.2109 z m 13.959,1.1719 2.291,0 0,1.25 0,1.25 2.5,0 2.5,0 0,1.25 0,1.25 -4.2207,0 -4.2226,0 -1.3926,-1.6778 -1.3906,-1.6777 0.8222,-0.8223 c 0.4523,-0.4524 1.8528,-0.8222 3.1133,-0.8222 z m -282.5527,0.9883 0.7558,0.7558 0.7559,0.7559 -2.3965,-0.1 -2.3965,-0.1 1.6407,-0.6563 1.6406,-0.6562 z m -7.8028,5.2617 1.9493,0 1.9472,0 0,1.25 c 0,0.6875 -0.5289,1.25 -1.1758,1.25 -0.6469,0 -1.5243,-0.5625 -1.9492,-1.25 l -0.7715,-1.25 z m 23.3457,2.5 c -0.3031,0 -0.8993,0.5625 -1.3242,1.25 l -0.7715,1.25 1.3243,0 c 0.728,0 1.3222,-0.5625 1.3222,-1.25 0,-0.6875 -0.2476,-1.25 -0.5508,-1.25 z m 286.8008,1.25 2.5742,0 2.5743,0 -0.7735,1.25 c -0.4248,0.6875 -1.5816,1.25 -2.5722,1.25 l -1.8028,0 0,-1.25 0,-1.25 z m -305.9316,12.4551 1.7168,1.4257 c 0.9441,0.7835 1.7148,1.9182 1.7148,2.5215 l 0,1.0977 -1.5625,-0.1465 c -5.7135,-0.5303 -7.7231,-2.6509 -3.9023,-4.1172 l 2.0332,-0.7812 z m -10.3184,2.1269 0.834,0.834 0.834,0.834 -1.668,0 -1.666,0 0.834,-0.834 0.832,-0.834 z m 17.3535,1.668 3.125,0 3.125,0 0.7715,1.25 0.7735,1.25 -3.125,0 -3.125,0 -0.7735,-1.25 -0.7715,-1.25 z m 23.6719,1.0683 3.8633,1.9981 c 2.1246,1.0986 3.8613,2.5449 3.8613,3.2148 l 0,1.2168 -2.8125,-0.078 c -1.5468,-0.043 -4.0781,-0.5871 -5.625,-1.209 l -2.8125,-1.1308 0,-1.3301 c 0,-0.7311 0.7945,-1.6341 1.7637,-2.0059 l 1.7617,-0.6758 z m -13.5254,5.1817 1.9805,0 1.9785,0 -0.4941,1.4843 c -0.2721,0.8163 -1.1641,1.7065 -1.9805,1.9786 l -1.4844,0.4941 0,-1.9785 0,-1.9785 z m 187.9258,47.4121 -2.0879,0.8008 c -1.1483,0.4406 -2.0879,1.2724 -2.0879,1.8476 0,0.5752 -3.375,4.4849 -7.5,8.6875 l -7.5,7.6406 0,2.4903 0,2.4883 4.0625,1.7656 c 5.2658,2.2887 6.5765,2.2729 11.6875,-0.1524 l 4.25,-2.0175 0,-1.4825 c 0,-0.8155 -0.6494,-2.1337 -1.4453,-2.9296 l -1.4473,-1.4473 1.4454,-1.7422 1.4453,-1.7422 0.6797,-5.498 0.6816,-5.4981 -1.0918,-1.6055 -1.0918,-1.6054 z m 85.8242,5.1582 6.8614,3.4023 6.8613,3.4024 -0.3965,1.25 c -0.218,0.6875 -1.4777,1.3838 -2.7988,1.5488 l -2.4024,0.3008 -2.1875,-1.3008 -2.1875,-1.2988 0,-1.8516 0,-1.8535 -1.875,-0.7188 c -1.0312,-0.3958 -1.875,-1.2061 -1.875,-1.8007 l 0,-1.0801 z m 25,1.9297 1.3926,1.3906 1.3906,1.3906 -0.8398,1.3594 -0.8399,1.3594 -3.9882,-0.1 c -4.8958,-0.1212 -7.1153,-0.9515 -7.1153,-2.6621 l 0,-1.3008 3.5684,0.7129 3.5683,0.7129 1.4317,-1.4317 1.4316,-1.4316 z m -49.8261,2.959 1.164,0.7187 c 0.64,0.3955 1.1621,0.9664 1.1621,1.2695 0,0.3033 -0.8755,0.5528 -1.9472,0.5528 l -1.9493,0 0.7852,-1.2715 0.7852,-1.2695 z m -37.6739,2.539 0,2.291 c 0,1.2605 0.3756,2.6667 0.834,3.125 0.4583,0.4583 1.302,0.834 1.875,0.834 l 1.041,0 0,-3.125 0,-3.125 -1.875,0 -1.875,0 z m 87.5,3.334 0.834,0.834 0.834,0.834 -1.668,0 -1.666,0 0.834,-0.834 0.832,-0.834 z m -181.25,1.666 c -0.6875,0 -1.25,0.5625 -1.25,1.25 0,0.6875 0.5625,1.25 1.25,1.25 0.6875,0 1.25,-0.5625 1.25,-1.25 0,-0.6875 -0.5625,-1.25 -1.25,-1.25 z m 163.75,4.584 0.834,0.834 0.834,0.834 -0.834,0.832 -0.834,0.834 0,-1.666 0,-1.668 z"
       id="path12388" />
  </g>
</svg>
