<?xml version="1.0" encoding="UTF-8" standalone="no"?>
<!-- Created with Inkscape (http://www.inkscape.org/) -->

<svg
   xmlns:dc="http://purl.org/dc/elements/1.1/"
   xmlns:cc="http://creativecommons.org/ns#"
   xmlns:rdf="http://www.w3.org/1999/02/22-rdf-syntax-ns#"
   xmlns:svg="http://www.w3.org/2000/svg"
   xmlns="http://www.w3.org/2000/svg"
   xmlns:sodipodi="http://sodipodi.sourceforge.net/DTD/sodipodi-0.dtd"
   xmlns:inkscape="http://www.inkscape.org/namespaces/inkscape"
   width="210mm"
   height="297mm"
   viewBox="0 0 744.09448819 1052.3622047"
   id="svg4143"
   version="1.1"
   inkscape:version="0.91 r13725"
   sodipodi:docname="N.svg">
  <defs
     id="defs4145" />
  <sodipodi:namedview
     id="base"
     pagecolor="#ffffff"
     bordercolor="#666666"
     borderopacity="1.0"
     inkscape:pageopacity="0.0"
     inkscape:pageshadow="2"
     inkscape:zoom="0.35"
     inkscape:cx="-145"
     inkscape:cy="520"
     inkscape:document-units="px"
     inkscape:current-layer="layer1"
     showgrid="false"
     inkscape:window-width="1920"
     inkscape:window-height="1055"
     inkscape:window-x="0"
     inkscape:window-y="25"
     inkscape:window-maximized="1" />
  <metadata
     id="metadata4148">
    <rdf:RDF>
      <cc:Work
         rdf:about="">
        <dc:format>image/svg+xml</dc:format>
        <dc:type
           rdf:resource="http://purl.org/dc/dcmitype/StillImage" />
        <dc:title></dc:title>
      </cc:Work>
    </rdf:RDF>
  </metadata>
  <g
     inkscape:label="Layer 1"
     inkscape:groupmode="layer"
     id="layer1">
    <path
       inkscape:connector-curvature="0"
       style="fill:#000000"
       d="m 537.94855,221.57379 -32.3965,0.20313 -32.39649,0.20312 6.875,0.77344 c 3.7813,0.42478 18.02789,0.66398 31.65819,0.5332 l 24.7832,-0.23633 0.7383,-0.73828 0.7383,-0.73828 z m -318.5449,33.76366 -3.7461,1.01954 -3.75,1.02148 -0.3848,2 -0.3848,2.00195 2.6739,0.40821 2.6738,0.41015 0.6035,13.125 0.6055,13.125 1.7949,1.38672 c 0.9868,0.7633 1.793,2.02893 1.793,2.8125 l 0,1.42578 -1.8594,0 -1.8613,0 -0.043,2.8125 c -0.023,1.54688 -0.1698,19.60044 -0.3262,40.1211 l -0.2851,37.31054 2.1875,1.17188 2.1875,1.17187 0,1.78711 0,1.78711 -2.4395,1.30469 -2.4394,1.30469 0.5097,4.05078 0.5098,4.05273 2.582,2.09571 2.5821,2.09765 -1.2774,0.78906 -1.2773,0.78907 -1.25,-0.77149 -1.25,-0.77344 0,5.59375 0,5.59571 1.4707,0.49023 1.4726,0.49024 -1.125,1.80078 c -2.1503,3.44703 -2.1957,4.28347 -1.4062,25.55276 0.3062,8.25 0.98,29.8859 1.498,48.082 l 0.9434,33.084 2.9473,2.3203 c 1.6219,1.2757 2.9492,2.8409 2.9492,3.4785 l 0,1.1602 -3.125,0 -3.125,0 0,3.6445 0,3.6465 1.5625,0.5254 1.5625,0.5254 -1.5742,1.9101 -1.5743,1.9082 0.2832,9.5157 0.2832,9.5136 1.6036,0.6153 c 0.8818,0.3384 1.6035,1.1952 1.6035,1.9043 l 0,1.291 -2.1524,0 -2.1543,0 2.7989,1.959 2.7988,1.9609 -0.7715,1.25 -0.7715,1.25 -1.8828,-0.7227 -1.8808,-0.7207 0.5449,5.3243 0.5429,5.3242 -1.1445,3.3984 -1.1465,3.4004 1.5137,4.5898 1.5156,4.5879 -1.8906,1.0567 -1.8887,1.0586 -0.049,8.1406 -0.047,8.1426 2.334,0 c 1.283,0 2.6786,0.5586 3.1016,1.2441 l 0.7695,1.2461 -3.1973,1.4551 -3.1953,1.4551 0,2.3789 0,2.3769 2.1875,-0.3594 c 2.8346,-0.4664 5.3125,1.121 5.3125,3.4024 l 0,1.8008 -2.6035,0 -2.6035,0 0.5664,1.5625 0.5645,1.5625 -1.9317,2.2168 -1.9316,2.2168 1.373,1.375 1.3731,1.373 -1.3633,2.9922 -1.3633,2.9941 2.3184,1.6954 2.3203,1.6953 -2.8594,0.9062 -2.8594,0.9082 1.375,1.377 c 0.7568,0.7568 1.375,2.3875 1.375,3.625 l 0,2.25 1.5625,0.078 1.5625,0.08 -2.6894,1.0859 -2.6914,1.086 0.1035,4.7714 0.1074,4.7735 1.3359,0.9375 1.334,0.9375 -1.3613,0.9375 -1.3613,0.9375 0.2929,5.2695 0.2911,5.2676 -1.7422,1.4472 -1.7442,1.4454 0,2.1953 0,2.1933 1.875,1.5567 c 2.009,1.6674 2.5599,5 0.8262,5 -0.5772,0 -1.7216,1.4746 -2.543,3.2773 l -1.4922,3.2774 5.1954,4.7968 5.1953,4.7969 -0.8184,2.1348 -0.8203,2.1347 -1.459,-1.4589 -1.459,-1.459 -2.875,0 -2.875,0 0,2.5 0,2.5 2.4278,0 c 1.3344,0 2.748,0.5217 3.1425,1.1601 l 0.7168,1.1602 -2.8183,0.4023 -2.8164,0.4024 -0.4453,2.334 c -0.2449,1.2839 -0.073,4.8124 0.3808,7.8418 l 0.8242,5.5078 6.4825,-0.3418 6.4804,-0.3418 0,1.875 0,1.875 -8.75,-0.459 -8.75,-0.457 3.086,2.5019 3.0839,2.502 1.2911,-0.4746 c 0.7099,-0.2608 5.789,-0.9558 11.289,-1.545 l 10,-1.0722 0.625,0.9316 0.625,0.9316 15.625,0.7715 c 8.5938,0.4251 20.125,1.2992 25.625,1.9414 5.5,0.6421 11.9934,1.1964 14.42971,1.2344 l 4.4297,0.068 1.6387,-7.3809 1.6367,-7.3789 -1.3789,-6.4316 -1.3809,-6.4317 0,-7.8261 0,-7.8243 -1.7734,-2.4257 -1.7754,-2.4258 0.6367,-15.1699 0.6367,-15.17 -1.3613,-0.8418 -1.3633,-0.8418 0,-2.4257 0,-2.4258 -1.25001,0 -1.25,0 0,-1.875 0,-1.875 1.25,0 1.25001,0 0,-3.0528 0,-3.0507 -1.30081,-0.8047 -1.3007,-0.8028 0.7304,-2.3007 0.7305,-2.3008 -2.8672,-0.4063 -2.8672,-0.4062 0.625,-1.25 c 0.3438,-0.6875 1.3076,-1.2527 2.1407,-1.2657 0.8329,-0.01 2.08,-0.58 2.7714,-1.2714 l 1.25781,-1.2578 -0.73041,-2.7891 -0.7305,-2.791 -1.7285,0 -1.7305,0 0,-1.3672 0,-1.3672 2.5,-0.6543 2.50001,-0.6543 0,-4.2285 0,-4.2285 -3.43751,-0.08 -3.4375,-0.078 2.6348,-1.0645 2.6328,-1.0644 0.7246,-5.3946 0.72271,-5.3945 -1.07421,-0.6641 -1.0743,-0.664 -0.2675,-9.3614 -0.2676,-9.3593 0.9316,-2.1875 0.9297,-2.1875 -1.8555,0 -1.8554,0 -1.7051,-2.0567 -1.7051,-2.0547 2.9336,0.9317 2.9336,0.9316 -0.8984,-5.4394 c -0.4937,-2.9911 -1.8129,-7.0081 -2.9317,-8.9278 l -2.0351,-3.4902 1.7129,-1.0586 1.7109,-1.0586 -1.9395,-3.8887 -1.9394,-3.8886 1.0801,0 c 0.5943,0 1.4579,0.6119 1.9199,1.3593 l 0.8398,1.3575 1.1543,-1.1543 1.1563,-1.1563 -1.2285,-3.2285 -1.2266,-3.2305 -2.6973,0.7051 -2.6972,0.7051 -1,-1.6191 -1.002,-1.6211 -4.1836,-0.3907 c -9.0317,-0.8457 -13.2464,-1.7625 -17.2305,-3.75 l -4.1503,-2.0722 2.1132,-1.1817 2.1153,-1.1836 4.2851,2.0332 4.2871,2.0332 9.3829,0.336 9.3828,0.3359 -2.4961,-2.6562 c -1.373,-1.4615 -2.4981,-3.2367 -2.4981,-3.9453 0,-0.7085 -1.0872,-2.2721 -2.416,-3.4747 l -2.416,-2.1875 -3.5449,0.7793 -3.545,0.7793 -2.4765,-1.8711 -2.4766,-1.871 7.8965,-0.041 7.8945,-0.039 2.5137,-1.3477 2.5156,-1.3457 -0.7363,-1.918 -0.7363,-1.9179 2.0273,0.7793 2.0293,0.7773 -0.666,-1.7363 -0.668,-1.7363 1.4024,-1.4024 1.4023,-1.4023 -1.9121,0 -1.914,0 -1.6915,-3.1602 -1.6894,-3.1582 -2.8965,-0.7265 -2.8965,-0.7266 0,-1.6406 0,-1.6407 3.875,-0.8496 3.8731,-0.8515 1.3769,1.3769 c 0.7572,0.7571 1.8954,1.377 2.5313,1.377 l 1.1562,0 -0.7851,-3.9297 -0.7852,-3.9297 1.4063,-1.6953 1.4082,-1.6953 -1.5996,-1.9297 -1.5997,-1.9278 1.4473,-1.4472 1.4453,-1.4453 0,-2.9688 0,-2.9687 -4.9746,-2.0938 -4.9746,-2.0937 -1.209,-3.4375 -1.2109,-3.4375 1.7363,0 c 0.9549,0 2.0506,0.5085 2.4356,1.1308 l 0.7011,1.1328 2.5684,-0.6718 2.5703,-0.6719 -0.6953,-1.8125 c -0.3826,-0.9971 -0.6973,-2.5202 -0.6973,-3.3848 l 0,-1.5722 -3.125,-1.4239 c -1.7187,-0.7831 -3.125,-1.9286 -3.125,-2.5449 l 0,-1.1211 4.0293,-0.8047 4.0274,-0.8066 3.97851,-3.8555 3.9785,-3.8554 5.0332,0.8515 5.0352,0.8496 2.2714,5.5254 2.2715,5.5235 2.2735,0.012 2.2714,0 -0.7695,2.4238 -0.7695,2.4238 2.4785,1.3262 2.4766,1.3262 5.0683,0 5.0684,0 -0.2129,3.4375 c -0.117,1.8906 -0.7189,4.1118 -1.3379,4.9375 l -1.125,1.5019 3.5391,4.4356 c 1.9469,2.4399 4.022,4.4375 4.6113,4.4375 l 1.0703,0 -0.7441,1.9394 -0.7442,1.9414 2.0039,3.0586 2.0059,3.0606 -1.8848,0 -1.8867,0 -0.7187,-1.875 c -0.3957,-1.0313 -1.3196,-1.875 -2.0528,-1.875 l -1.334,0 1.295,2.416 c 0.7118,1.3298 1.2929,3.5481 1.2929,4.9277 l 0,2.5078 1.2364,0.7637 1.2363,0.7637 -0.8242,-2.1446 -0.8223,-2.1445 1.4785,0.9121 1.4785,0.9141 3.9258,-1.959 c 2.1594,-1.0772 4.6447,-1.957 5.5234,-1.957 l 1.5977,0 2.6699,3.75 2.6719,3.75 -2.1133,0 -2.1133,0 1.5547,1.875 1.5567,1.875 -2.6524,0 c -1.4591,0 -2.6543,0.1935 -2.6543,0.4316 0,0.2382 0.907,2.2481 2.0137,4.4668 l 2.0117,4.0352 2.0508,0.7226 c 1.1276,0.3977 2.8926,1.4236 3.9238,2.2793 1.0313,0.8558 3,1.7614 4.375,2.0137 l 2.5,0.459 0,1.8008 0,1.8027 -3.125,0.7734 -3.125,0.7735 2.6485,0.8769 c 1.4562,0.4826 3.6425,1.9778 4.8593,3.3223 l 2.2129,2.4453 -1.3867,1.6699 -1.3867,1.6719 1.9648,2.8066 1.9668,2.8047 2.9297,1.1153 2.9278,1.1132 -0.6817,4.2051 -0.6816,4.2051 3.2519,2.1309 3.25,2.1308 0,2.3359 0,2.336 5.4434,6.0723 c 2.9936,3.34 6.4328,8.0429 7.6406,10.4492 1.2077,2.4062 3.2865,5.5 4.6191,6.875 12.6335,13.0319 21.9421,23.5084 26.3692,29.6777 8.9225,12.4337 14.8351,19.6973 16.0351,19.6973 l 1.1426,0 0,2.8984 0,2.9004 4.0684,4.9121 c 4.8976,5.914 14.0719,19.7136 26.9531,40.5391 6.192,10.0107 16.03,27.7743 22.28709,40.2422 2.9998,5.9771 5.982,11.1932 6.627,11.5918 0.6449,0.3985 3.4319,4.7898 6.1914,9.7578 l 5.0156,9.0332 9.4902,10.9375 -0.01,0 c 5.2188,6.0156 10.0852,10.9375 10.8144,10.9375 l 1.3262,0 -0.8145,-3.2461 -0.8144,-3.2442 1.3672,-1.6464 1.3691,-1.6485 -2.2187,-14.1699 -2.2207,-14.1699 -0.2891,-19.375 c -0.1599,-10.6562 -0.6109,-27.8125 -1.0019,-38.125 -0.8207,-21.6472 -0.7962,-20.0167 -0.5,-33.4825 l 0.2265,-10.3574 -1.6406,-3.08 c -0.903,-1.6944 -2.4962,-3.7097 -3.5391,-4.4786 l -1.8945,-1.3984 2.7402,-1.4668 2.7422,-1.4668 -1.3105,-2.4473 -1.3106,-2.4472 1.1778,0 1.1777,0 -0.625,-2.3848 -0.6231,-2.3848 -2.3847,-0.623 -2.3848,-0.6231 0,-1.9062 0,-1.9043 2.8125,-0.4004 2.8125,-0.3984 0.2129,-3.75 c 0.1168,-2.0625 0.3374,-7.2859 0.4902,-11.6075 l 0.2774,-7.8574 -2.3477,-1.7168 -2.3496,-1.7187 2.3633,-2.6094 2.3613,-2.6094 0.9805,-11.5664 0.9805,-11.5644 -0.7032,-3.125 -0.7031,-3.125 -2.6562,-2.1602 -2.6563,-2.1601 2.2188,-0.027 2.2187,-0.027 1.2207,-3.211 1.2207,-3.2089 -0.7988,-4.9942 -0.7988,-4.9922 -1.3282,1.3281 c -0.7302,0.7303 -2.3786,1.3282 -3.664,1.3282 l -2.3379,0 0.4004,-2.8125 0.3984,-2.8125 2.8164,-0.4004 2.8145,-0.4004 1.2031,-2.2481 1.2031,-2.248 -0.789,-0.7891 c -0.4341,-0.4342 -2.6633,-0.789 -4.9551,-0.789 l -4.168,0 0,-1.211 0,-1.2109 1.75,0.6699 1.7481,0.6719 0.8242,-1.3359 0.8262,-1.334 2.6191,0 2.6211,0 -2.2891,-2.5313 -2.289,-2.5293 1.4687,-1.4707 c 2.1411,-2.1411 1.8217,-3.0865 -1.3203,-3.9082 l -2.791,-0.7304 1.2285,-1.168 c 0.6757,-0.6433 2.2216,-1.3649 3.4355,-1.6035 l 2.209,-0.4336 -2.9609,-5.5196 -2.9609,-5.5175 1.5859,-5.2735 1.5879,-5.2734 -1.4473,-1.4473 -1.4492,-1.4492 1.8164,-1.123 1.8164,-1.1211 -3.3887,-2.6661 -3.3906,-2.666 0,-1.7285 0,-1.7265 4.375,-0.8223 c 2.4062,-0.4514 4.375,-1.1423 4.375,-1.5371 0,-0.3948 -1.1962,-1.9927 -2.6582,-3.5488 l -2.6582,-2.8282 0.7441,-1.9394 0.7442,-1.9375 2.539,0 c 2.8965,0 3.0483,-0.4666 1.2461,-3.834 l -1.2949,-2.416 1.2949,0 1.293,0 0,-2.9805 0,-2.9785 -2.5,-0.6543 -2.5,-0.6543 0,-1.3672 0,-1.3652 1.3457,0 1.3457,0 -0.2676,-4.0625 c -0.1479,-2.2344 0.1913,-5.1545 0.7539,-6.48831 l 1.0235,-2.42578 -1.4766,-0.49023 -1.4746,-0.49219 0,-2.26172 0,-2.26367 -1.7207,-0.66016 -1.7187,-0.66016 0.5918,-3.0996 0.5918,-3.09961 -2.6211,-0.83399 -2.6231,-0.83203 0,-2.94336 0,-2.94531 3.8477,-3.8457 3.8457,-3.84571 1.7793,0 c 0.9784,0 1.7675,-0.42188 1.7675,-0.9375 -0.013,-1.25205 -6.1792,-4.0625 -8.914,-4.0625 -1.1974,0 -2.5053,-0.53092 -2.9063,-1.17969 l -0.7304,-1.17968 5.9687,-3.41797 c 3.2823,-1.87985 6.1636,-3.56058 6.4024,-3.73438 0.2389,-0.1738 -0.6053,-2.07501 -1.875,-4.22461 l -2.3086,-3.9082 2.9902,-2.25586 2.9902,-2.25586 -0.8261,-3.29687 -0.8282,-3.29688 1.8985,0 1.8984,0 0,-1.09375 0,-1.09375 -3.75,-0.75 -3.75,-0.75 0,-1.3125 0,-1.3125 3.125,-1.1875 c 1.7187,-0.65347 3.125,-1.46745 3.125,-1.80664 0,-0.33914 -0.7526,-0.32606 -1.6738,0.0273 l -1.6758,0.64257 -1.6484,-1.98828 -1.6485,-1.98633 2.6367,-1.84765 c 4.0342,-2.82564 6.517,-5.56458 6.504,-7.19336 l 0,-1.47266 -4.4961,-0.23437 c -5.0515,-0.26122 -6.1168,-0.86883 -4.918,-2.8086 l 0.8242,-1.33203 2.2246,0 2.2266,0 1.7168,-3.4375 c 0.9441,-1.89062 1.8722,-4.84375 2.0644,-6.5625 0.1921,-1.71875 0.6894,-5.45507 1.1035,-8.30078 l 0.752,-5.17383 -1.4121,-2.63867 -1.4121,-2.63672 -2.7051,0 -2.707,0 1.5,-1.5 c 3.7196,-3.71964 -0.04,-4.70823 -6.0625,-1.59375 -2.0283,1.0489 -3.6875,2.45515 -3.6875,3.125 l 0,1.21875 2.584,0 2.5839,0 -0.8769,2.8125 c -0.4828,1.54688 -1.5047,3.25694 -2.2715,3.80078 l -1.3945,0.98828 -4.5957,-0.54492 -4.5977,-0.54492 -2.7031,1.89258 -2.7031,1.89453 -3.0704,-1.40039 c -1.6893,-0.76973 -3.6462,-1.39844 -4.3476,-1.39844 l -1.2754,0 0.7891,2.48438 0.789,2.48437 -4.1425,-0.76367 -4.14259,-0.76563 -1.541,-1.92968 -1.5411,-1.93164 -3.4082,1.55273 -3.4082,1.55274 -1.6132,-2.20508 -1.6133,-2.20703 0,1.48828 0,1.49023 -2.8457,0 -2.8477,0 -3.0898,-2.11523 c -1.6998,-1.16327 -3.4956,-2.71015 -3.9903,-3.4375 l -0.9004,-1.32227 -2.5,1.54883 -2.5019,1.55078 -1.2637,-2.36328 -1.2656,-2.36328 5.666,-0.45117 5.666,-0.45117 1.6778,0.93945 c 1.8402,1.02975 10.8866,1.44827 26.32029,1.21679 5.5,-0.0824 11.3489,-0.0324 12.998,0.11133 l 3,0.26172 0.543,-1.5625 0.543,-1.5625 -7.9161,0.0176 c -4.3541,0.0101 -16.91789,-0.65027 -27.91789,-1.4668 l -20,-1.48437 -3.6602,1.22851 -3.6601,1.22852 -1.2989,2.05664 -1.2968,2.05664 2.7714,2.94922 2.7696,2.94922 0,2.81445 c 0,1.54776 0.6528,4.0315 1.4492,5.51953 l 1.4473,2.70508 0.4238,9.40039 c 0.2335,5.16989 0.6344,21.6287 0.8906,36.57617 l 0.4668,27.17774 1.6074,1.9375 1.6094,1.93945 -1.4473,1.44727 -1.4472,1.44726 0,4.67578 0,4.67578 1.3105,0.81055 1.3106,0.8086 -1.4629,1.76562 -1.4649,1.76367 1.0918,0.14649 c 0.5998,0.0814 1.5118,0.0814 2.0274,0 1.7656,-0.27878 0.9391,2.22836 -1.1133,3.37695 l -2.0508,1.14648 0.877,1.41993 0.8769,1.41801 3.2129,-0.8047 3.2109,-0.80667 -0.6132,1.73827 -0.6133,1.7403 -2.7168,-0.3067 -2.7168,-0.3047 -0.7207,1.877 -0.7207,1.8769 0.8047,4.2833 0.8027,4.2812 2.0566,0.3965 2.0586,0.3965 -2.0996,2.0976 c -1.154,1.1541 -2.0976,2.3008 -2.0976,2.5489 0,0.2481 1.5469,0.4293 3.4375,0.4023 l 3.4375,-0.049 0,1.875 0,1.875 -3.4375,0.3945 -3.4375,0.3965 0,5.4687 0,5.4668 1.25,0.7735 1.25,0.7715 0,2.9785 0,2.9765 -1.3008,0.8047 -1.3008,0.8047 0.7227,2.2774 c 1.137,3.5825 3.0937,23.6708 3.0527,31.3339 l -0.037,6.9473 -1.6602,7.1387 -1.6601,7.1406 0.9707,0.5977 0.9687,0.5996 1.3067,-3.7481 c 1.3774,-3.9513 2.2311,-4.3951 5.0351,-2.6191 l 1.7227,1.0918 -0.7442,1.2031 -0.7441,1.2051 4.6465,1.3984 4.6465,1.3965 1.6035,2.5898 1.6055,2.5879 -0.7403,1.1993 -0.7422,1.1992 -3.6015,0 -3.6035,0 -0.7754,-1.2559 -0.7754,-1.2539 -2.877,0.7227 -2.8789,0.7226 -0.9277,-2.9062 -0.9278,-2.9043 -0.6269,2.5 c -0.3448,1.375 -1.1424,3.1369 -1.7734,3.916 l -1.1485,1.416 1.9063,0.7324 1.9082,0.7324 0,1.7793 0,1.7813 -1.875,0.7187 -1.875,0.7207 0,2.0743 0,2.0761 -6.5313,-0.8671 -6.5312,-0.8653 -1.5938,-1.3242 c -0.8766,-0.7275 -1.5937,-2.096 -1.5937,-3.043 l 0,-1.7226 1.875,0 1.875,0 0,-1.7305 0,-1.7285 -2.5,-0.6543 -2.5,-0.6524 0,-5.1171 0,-5.1172 -3.2598,0 -3.2578,0 0.7012,-1.8301 0.7031,-1.8281 -3.2383,-2.5469 c -1.7801,-1.4003 -4.0048,-2.5449 -4.9434,-2.5449 l -1.705,0 0,-2.2891 0,-2.2871 -4.9824,-5.5254 c -2.7403,-3.0385 -4.9871,-5.9747 -5,-6.5254 -0.01,-0.5507 -1.9863,-1.8227 -4.3926,-2.8281 l -4.375,-1.8281 0,-1.2344 c 0,-0.6782 -0.4701,-1.2324 -1.043,-1.2324 l -1.041,0 0,2.0273 0,2.0254 6.043,4.3418 6.0429,4.3418 -0.7011,1.1309 c -0.3849,0.6227 -1.65,1.1318 -2.8125,1.1308 l -2.1133,0 -4.4981,-4.7793 -4.4961,-4.7812 -0.8144,-3.2383 -0.8125,-3.2402 1.5605,-0.6309 1.5606,-0.6289 -2.6797,-0.1 -2.6777,-0.098 -0.7208,-1.875 -0.7187,-1.875 -2.5391,0 -2.539,0 0,-1.25 0,-1.25 -2.6348,0 -2.6328,0 0.6562,-1.7129 0.6563,-1.7109 -2.3965,-3.9434 c -1.319,-2.1689 -2.3984,-5.0149 -2.3984,-6.3242 0,-1.3093 -0.7172,-3.1247 -1.5938,-4.0332 -3.6944,-3.8289 -13.4062,-17.4205 -13.4062,-18.7617 0,-2.7185 -9.3297,-15.3566 -16.7403,-22.67777 l -7.3769,-7.28906 -2.9414,-1.11719 c -3.0862,-1.17334 -3.8037,-2.99921 -1.6914,-4.30469 0.6875,-0.42489 1.25,-1.49272 1.25,-2.37304 l 0,-1.60156 -3.1836,-1.44922 -3.1817,-1.45118 -2.1308,-3.78515 -2.1289,-3.78516 -3.125,-0.76367 c -1.7188,-0.41934 -3.8035,-1.29538 -4.6328,-1.94726 l -1.5079,-1.18555 -1.1914,0.73828 -1.1933,0.73633 -1.9863,-0.76367 c -1.0932,-0.41954 -1.9883,-1.33129 -1.9883,-2.02539 l 0,-1.26172 3.125,0.59765 3.125,0.59766 0,-2.50391 0,-2.5039 -3.793,-3.62305 -3.791,-3.625 0.584,-0.94531 c 0.3217,-0.52032 0.088,-1.74807 -0.5176,-2.72852 l -1.1016,-1.7832 -2.7617,-0.0332 -2.7598,-0.0313 -1.4531,-4.30078 -1.4531,-4.29882 -1.4766,-0.49219 -1.4765,-0.49219 0,-3.02148 0,-3.01954 -2.3574,0 -2.3575,0 -2.0429,-4.30468 -2.043,-4.30469 -2.96091,-2.33008 -2.9629,-2.32812 -0.461,-2.39258 -0.459,-2.39063 -5.3027,-1.04882 -5.3027,-1.04883 0.018,-1.48828 c 0.034,-3.0001 1.5528,-7.11329 2.6269,-7.11329 0.6074,0 2.2768,1.17124 3.7109,2.60352 l 2.6036,2.60352 0.7421,-0.74219 0.7422,-0.74219 -3.4511,-3.60351 -3.4532,-3.60352 -4.8945,0.65625 -4.8926,0.65625 0,-1.41406 0,-1.41407 -1.914,0 -1.9161,0 -0.7246,-1.89257 -0.7265,-1.89063 1.5429,-1.85937 1.543,-1.85743 -1.1504,0 c -1.5076,0 -11.2194,-9.35092 -12.8222,-12.3457 l -1.2461,-2.33008 -4.418,-2.0957 c -4.2607,-2.02179 -5.447,-3.69672 -3.4805,-4.91211 l 0.9375,-0.57812 -0.1113,-3.86133 -0.1113,-3.85938 -2.2696,-2.50976 c -1.2487,-1.37986 -2.795,-2.50782 -3.4355,-2.50782 -0.6405,0 -4.3483,-3.23437 -8.2383,-7.1875 l -7.0723,-7.1875 -2.1445,-4.71484 -2.1445,-4.71289 0.7051,-1.83984 0.705,-1.83789 -1.6914,-0.62891 -1.6933,-0.62891 z m 315.6269,12.06836 -0.832,0.83399 -0.834,0.83398 1.666,0 1.668,0 -0.834,-0.83398 -0.834,-0.83399 z m -393.2988,0.41797 c -0.9698,0 -4.1052,4.00335 -4.1602,5.3125 l -0.041,0.9375 2.5,0 2.5,0 0,-3.125 c 0,-1.71875 -0.3589,-3.125 -0.7988,-3.125 z m -8.4473,5 c -0.9337,0 -2.2558,0.70312 -2.9394,1.5625 l -1.2442,1.5625 1.0547,8.125 1.0547,8.125 -0.6816,3.40625 -0.6817,3.40625 0.791,1.28125 c 1.2627,2.04314 3.0528,1.50696 6.1563,-1.8418 l 2.8926,-3.12109 -0.5996,-3.12891 -0.5977,-3.12695 2.0957,0 2.0938,0 -0.7735,-1.25 -0.7715,-1.25 -2.457,0 -2.457,0 -1.086,-2.85742 -1.0878,-2.85742 0.4687,-4.01758 0.4668,-4.01758 -1.6973,0 z m -0.6718,30.83203 -0.836,2.17969 -0.8359,2.17969 0.7949,8.54883 c 0.437,4.702 1.1348,9.44035 1.5527,10.52929 0.4179,1.08895 1.2281,1.98047 1.7989,1.98047 l 1.0371,0 -0.5899,-11.54492 -0.5918,-11.54492 -1.164,-1.16406 -1.166,-1.16407 z m 394.7714,9.16797 1.3243,0 c 0.728,0 1.3222,0.5625 1.3222,1.25 0,0.6875 -0.2476,1.25 -0.5508,1.25 -0.3032,0 -0.8993,-0.5625 -1.3242,-1.25 l -0.7715,-1.25 z m -22.5,1.25 0.7715,1.25 0.7735,1.25 2.4257,0 2.4258,0 0,-1.25 0,-1.25 -3.1972,0 -3.1993,0 z m -8.6035,2.5 c -0.6875,0 -1.25,0.5625 -1.25,1.25 0,0.6875 0.5625,1.25 1.25,1.25 0.6875,0 1.25,-0.5625 1.25,-1.25 0,-0.6875 -0.5625,-1.25 -1.25,-1.25 z m 24.375,3.94141 3.6074,0.70703 3.6075,0.70703 -2.9825,1.65234 c -3.6898,2.04526 -4.487,2.10068 -5.5488,0.38282 l -0.8398,-1.35938 1.0781,-1.04492 1.0781,-1.04492 z m -244.7597,3.17187 0.8906,1.44336 c 0.8905,1.44094 1.9941,1.93331 1.9941,0.89063 0,-0.30317 -0.6476,-0.95281 -1.4414,-1.44336 l -1.4433,-0.89063 z m -140.8633,19.13672 0.018,3.4375 0.019,3.4375 1.2129,-1.875 c 0.6665,-1.03125 1.2174,-2.57812 1.2304,-3.4375 l 0.02,-1.5625 -1.25,0 -1.25,0 z m 177.49801,42.5 1.25,0 1.25,0 0,1.875 0,1.875 -1.25,0 -1.25,0 0,-1.875 0,-1.875 z m -88.75001,7.5 1.875,0 1.875,0 0,1.25 0,1.25 -1.875,0 -1.875,0 0,-1.25 0,-1.25 z m 49.8535,13.75 0.7715,1.24805 0,0.002 0.7735,1.24805 -1.6368,-0.0176 c -0.8999,-0.0105 -2.4804,-0.56402 -3.5117,-1.23047 l -1.875,-1.21289 2.7403,-0.0195 2.7382,-0.0176 z m 245.92,8.75 1.875,0 -0.7735,1.25 c -0.4248,0.6875 -1.6152,1.25 -2.6465,1.25 l -1.875,0 0.7715,-1.25 c 0.4249,-0.6875 1.6173,-1.25 2.6485,-1.25 z m -238.2735,1.25 3.166,0 3.1641,0 0.7188,1.875 0.7187,1.875 2.9531,0 2.95121,0 -0.71881,1.875 c -0.3957,1.03125 -1.0813,1.79012 -1.5234,1.6875 -0.442,-0.10268 -3.1953,-0.77335 -6.1172,-1.49023 l -5.3125,-1.30274 0,-2.25976 0,-2.25977 z m -25,1.25 1.7871,0 c 0.9821,0 2.629,0.84375 3.6602,1.875 1.0313,1.03125 2.7594,1.875 3.8398,1.875 l 1.9629,0 0,-1.17187 0,-1.17188 5,0.0684 5,0.0684 0,1.00195 c 0,0.55022 -0.3404,1.8891 -0.7578,2.97657 l -0.7598,1.97851 -1.6367,0 c -0.9004,0 -1.8512,0.64341 -2.1133,1.42969 l -0.4765,1.42773 -3.166,0.33789 -3.166,0.3379 -1.7735,-1.14258 -1.7754,-1.14063 1.7774,-1.14453 1.7773,-1.14453 -4.5898,-1.91602 -4.5899,-1.91797 0,-1.31445 0,-1.3125 z m 18.75,16.25003 2.5,0 2.5,0 0,1.1758 c 0,0.6469 -0.4218,1.4135 -0.9375,1.705 -1.354,0.7656 -4.0625,-0.3918 -4.0625,-1.7363 l 0,-1.1445 z m 15,2.082 0.834,0.834 0.834,0.834 -0.834,0.832 -0.834,0.834 0,-1.666 0,-1.668 z m 176.10351,1.668 2.5743,0 2.5722,0 0,1.25 0,1.25 -1.8008,0 c -0.9907,0 -2.1493,-0.5625 -2.5742,-1.25 l -0.7715,-1.25 z m -202.35351,2.3867 4.6875,0.7773 c 2.5782,0.4285 5.4271,1.0136 6.3301,1.2989 l 1.6426,0.5175 -0.7793,1.2598 -0.7774,1.2598 -2.7382,-0.1543 c -3.3329,-0.1868 -8.3653,-2.5621 -8.3653,-3.9492 l 0,-1.0098 z m -9.3457,0.1816 c 1.0721,0.1064 2.3516,0.6502 3.666,1.6114 l 2.2969,1.6777 -3.8125,0.1094 c -4.1065,0.1167 -5.6282,-0.6808 -4.5703,-2.3926 0.4837,-0.7827 1.3479,-1.1122 2.4199,-1.0059 z m 79.34571,4.5137 0.834,0.834 0.834,0.834 -0.834,0.832 -0.834,0.834 0,-1.666 0,-1.668 z m -43.75001,2.5 0.834,0.834 0.834,0.834 -1.668,0 -1.666,0 0.834,-0.834 0.832,-0.834 z m -26.082,8.8359 1.25,1.25 1.25,1.25 -1.7598,0.6739 -1.7597,0.6757 -1.7266,-1.0664 -1.7266,-1.0683 2.2364,-0.8574 2.2363,-0.8575 z m 7.5508,11.2989 1.25,1.25 1.25,1.25 -1.1055,0.6836 -1.1074,0.6836 -1.6348,-1.0118 -1.6367,-1.0097 1.4922,-0.9239 1.4922,-0.9218 z m 69.70901,1.5332 c 0.6469,0 1.5224,0.5625 1.9472,1.25 l 0.7735,1.25 -1.9493,0 -1.9492,0 0,-1.25 c 0,-0.6875 0.5308,-1.25 1.1778,-1.25 z m 8.8222,0.832 0.834,0.834 0.834,0.834 -0.834,0.832 -0.834,0.834 0,-1.666 0,-1.668 z m -82.50001,2.5 0.834,0.834 0.834,0.834 -0.834,0.832 -0.834,0.834 0,-1.666 0,-1.668 z m 218.12501,13.543 1.25,0.3125 1.25,0.3125 0,2.082 0,2.084 -1.666,0.5547 -1.668,0.5566 0.418,-2.9512 0.416,-2.9511 z m -218.76561,9.4062 c 0.9895,0.08 2.0995,0.5422 2.584,1.3262 l 0.8398,1.3594 -1.1406,1.1406 -1.1426,1.1426 -1.5,-1.5 c -0.825,-0.825 -1.5,-1.95 -1.5,-2.5 0,-0.7448 0.8699,-1.0487 1.8594,-0.9688 z m 219.27151,0.9961 1.3105,0.8106 c 0.7204,0.4452 1.3086,1.3373 1.3086,1.9843 l 0,1.1778 -2.4258,0 -2.4257,0 -0.7774,-1.2598 -0.7793,-1.2598 1.8946,-0.7265 1.8945,-0.7266 z m -262.38091,1.0547 0.834,0.834 0.834,0.834 -0.834,0.832 -0.834,0.834 0,-1.666 0,-1.668 z m 32.7324,0.8672 c 0.4165,0.02 0.7462,0.1114 0.9278,0.293 0.3539,0.3539 -0.1839,1.167 -1.1953,1.8066 -2.3393,1.4795 -4.9649,1.5291 -4.9649,0.096 0,-1.0301 3.4279,-2.2815 5.2324,-2.1953 z m 16.0176,4.1328 0.834,0.834 0.834,0.834 -1.668,0 -1.666,0 0.834,-0.834 0.832,-0.834 z m 219.37501,3.1231 0.4258,1.1738 c 0.234,0.6454 2.06209,2.0182 4.06249,3.0527 2.0005,1.0344 3.6367,2.4117 3.6367,3.0606 l 0,1.1816 -4.0625,-0.2012 c -2.23439,-0.1099 -5.60939,-0.9663 -7.49999,-1.9043 l -3.4375,-1.705 0,-1.6622 0,-1.6601 3.4375,-0.668 3.4375,-0.6679 z m -216.87501,3.5449 2.3985,0 c 3.2659,0 6.3515,1.2788 6.3515,2.6328 l 0,1.1172 -1.5625,-0.1719 c -0.8593,-0.094 -2.8281,-0.4129 -4.375,-0.7109 l -2.8125,-0.5411 0,-1.164 0,-1.1621 z m 246.5352,4.9433 c 0.5151,-0.087 0.9812,0.2156 1.0586,0.9629 0.052,0.4985 -0.5813,1.1313 -1.4063,1.4063 l -1.5,0.5 0.5,-1.5 c 0.2686,-0.8057 0.8326,-1.2822 1.3477,-1.3692 z m -277.7852,2.5567 1.1485,0 c 2.1629,0 5.1015,1.5164 5.1015,2.6328 l 0,1.1172 -3.125,0 -3.125,0 0,-1.875 0,-1.875 z m 231.39851,1.25 5.5507,0 5.5508,0 0,1.0937 0,1.0938 -3.9062,0.7812 c -4.3272,0.8657 -4.7764,0.8628 -7.0371,-0.049 l -1.5723,-0.6328 0.707,-1.1426 0.7071,-1.1426 0,0 z m 23.60149,2.5 2.5,0 2.5,0 0,1.25 0,1.25 -2.5,0 -2.5,0 0,-1.25 0,-1.25 z m -80.55079,1.25 c 0.3032,0 0.5508,0.5625 0.5508,1.25 0,0.6875 -0.5942,1.25 -1.3222,1.25 l -1.3243,0 0.7715,-1.25 c 0.4249,-0.6875 1.021,-1.25 1.3242,-1.25 z m -155.84571,1.25 2.0215,0 2.0235,0 -0.7735,1.25 c -0.4248,0.6875 -0.9873,1.25 -1.25,1.25 -0.2626,0 -0.8251,-0.5625 -1.25,-1.25 l -0.7715,-1.25 z m 142.50001,1.25 3.1993,0 3.1972,0 0,1.25 0,1.25 -2.4258,0 -2.4257,0 -0.7735,-1.25 -0.7715,-1.25 z m 23.8965,2.082 0.834,0.834 0.834,0.834 -0.834,0.832 -0.834,0.834 0,-1.666 0,-1.668 z m -176.52541,3.0781 2.8223,0.7383 2.8242,0.7383 -1.8574,1.3691 -1.8574,1.3692 0.4883,1.4472 0.4882,1.4473 -1.0039,0.5176 c -0.5518,0.2841 -2.6914,0.1631 -4.7539,-0.2676 l -3.75,-0.7832 2.6778,-0.9102 2.6777,-0.9101 0.623,-2.377 0.6211,-2.3789 z m -5.8535,10.5528 2.127,1.3418 c 1.1702,0.7381 2.0165,1.8424 1.8808,2.455 -0.1355,0.6126 -1.1218,1.2969 -2.1914,1.5196 l -1.9433,0.4043 -0.7774,-2.0215 -0.7754,-2.0215 0.8399,-0.8379 0.8398,-0.8398 z m 262.1172,1.8379 1.3711,1.6523 1.3691,1.6504 -0.8222,0.8223 c -1.2304,1.2303 -5.154,0.9929 -5.9922,-0.3633 l -0.7324,-1.1875 2.4023,-1.2871 2.4043,-1.2871 z m -87.23829,0.2949 3.2403,0.6191 3.2402,0.6192 -1.6777,1.0644 c -0.9226,0.5848 -2.0053,1.072 -2.4063,1.082 -0.9901,0.026 -2.3965,-1.45 -2.3965,-2.5156 l 0,-0.8691 z m 57.5,0.9043 1.875,0 1.875,0 0,1.25 0,1.25 -1.875,0 -1.875,0 0,-1.25 0,-1.25 z m 36.25389,0.2343 2.4981,0.6524 c 1.3742,0.3594 2.498,0.8692 2.498,1.1328 0,0.2635 -1.438,0.4805 -3.1972,0.4805 l -3.1993,0 0.6993,-1.1328 0.7011,-1.1329 z m -15.1504,1.0157 1.3243,0 c 0.728,0 1.3222,0.5625 1.3222,1.25 0,0.6875 -0.2476,1.25 -0.5508,1.25 -0.3032,0 -0.8993,-0.5625 -1.3242,-1.25 l -0.7715,-1.25 z m -261.25,2.5 1.0118,0.017 c 0.5561,0.011 1.8535,0.566 2.8847,1.2325 l 1.875,1.2109 -2.1133,0.018 c -1.1625,0.011 -2.4618,-0.541 -2.8867,-1.2285 l -0.7715,-1.25 z m 203.75001,1.25 1.9493,0 1.9472,0 0,1.25 c 0,0.6875 -0.5288,1.25 -1.1758,1.25 -0.6469,0 -1.5243,-0.5625 -1.9492,-1.25 l -0.7715,-1.25 z m 22.6934,0.059 c 0.5154,0 1.2171,0.064 2.1406,0.1699 l 3.4375,0.3965 0,1.875 0,1.875 -2.6523,0.3769 -2.6543,0.3789 -0.7832,-2.0429 c -0.8972,-2.3377 -1.0344,-3.0155 0.5117,-3.0293 z m -237.43951,0.7968 1.3379,1.3379 1.3379,1.3379 -0.8398,1.3594 c -1.0125,1.6382 -4.029,1.7894 -4.9805,0.25 l -0.6836,-1.1074 1.9141,-1.5899 1.914,-1.5879 z m 258.64261,2.4766 0.834,0.834 0.834,0.834 -0.834,0.832 -0.834,0.834 0,-1.666 0,-1.668 z m -47.2324,1.668 2.1582,0 c 1.1869,0 2.5281,0.3698 2.9805,0.8222 l 0.8222,0.8223 -1.3906,1.6777 c -1.4601,1.7593 -3.9,2.1978 -5.168,0.9297 l -0.746,-0.748 0.6718,-1.752 0.6719,-1.7519 z m 9.9941,0.3144 3.5723,1.3496 c 1.9644,0.7414 3.4523,1.4348 3.3067,1.5411 -0.1458,0.1061 -1.676,0.5296 -3.4004,0.9414 l -3.1348,0.748 -1.8652,-1.1973 -1.8653,-1.1972 1.6934,-1.0938 1.6933,-1.0918 z m 73.48829,3.0176 0.834,0.834 0.834,0.834 -0.834,0.832 -0.834,0.834 0,-1.666 0,-1.668 z m -86.64649,0.6484 1.7618,1.1348 1.7597,1.1348 -1.875,1.2304 c -1.0312,0.677 -2.5781,1.24 -3.4375,1.25 l -1.5625,0.02 0,-1.7422 0,-1.7403 1.6778,-0.6445 1.6757,-0.6426 z m -202.10351,4.3516 0.834,0.834 0.834,0.834 -1.668,0 -1.666,0 0.834,-0.834 0.832,-0.834 z m 12.5,1.25 0.834,0.834 0.834,0.834 -0.834,0.832 -0.834,0.834 0,-1.666 0,-1.668 z m 210.00001,0 0.834,0.834 0.834,0.834 -1.668,0 -1.666,0 0.834,-0.834 0.832,-0.834 z m -26.25,0.418 c 0.6875,0 1.25,0.5625 1.25,1.25 0,0.6875 -0.5625,1.25 -1.25,1.25 -0.6875,0 -1.25,-0.5625 -1.25,-1.25 0,-0.6875 0.5625,-1.25 1.25,-1.25 z m 42.3535,5 2.5,0 2.5,0 0.7715,1.25 0.7735,1.25 -2.5,0 -2.5,0 -0.7735,-1.25 -0.7715,-1.25 z m -2.3535,3.332 0.834,0.834 0.834,0.834 -1.668,0 -1.666,0 0.834,-0.834 0.832,-0.834 z m -246.35541,1.2734 1.7695,1.4688 1.7695,1.4687 1.7207,-0.6347 1.7207,-0.6328 1.7227,1.0976 1.7226,1.0957 -0.8574,1.3906 c -1.0044,1.6252 -3.0797,1.6818 -5.7129,0.1563 -1.0312,-0.5975 -2.9533,-1.4259 -4.2715,-1.8418 l -2.3964,-0.7559 1.4062,-1.4062 1.4063,-1.4063 z m 22.2871,0.062 6.0976,0.9082 c 3.3534,0.4992 6.2945,1.0984 6.5352,1.3321 0.2407,0.2337 0.067,1.0246 -0.3867,1.7578 l -0.8243,1.334 -2.1132,-0.125 c -1.1626,-0.068 -3.4787,-0.5066 -5.1465,-0.9727 l -3.0332,-0.8476 -0.5645,-1.6934 -0.5644,-1.6934 z m 15.1718,1.5821 1.9493,0 1.9472,0 0,1.25 c 0,0.6875 -0.5288,1.25 -1.1758,1.25 -0.6469,0 -1.5243,-0.5625 -1.9492,-1.25 l -0.7715,-1.25 z m -11.25,8.75 1.9493,0 1.9472,0 0,1.25 c 0,0.6875 -0.5288,1.25 -1.1758,1.25 -0.6469,0 -1.5243,-0.5625 -1.9492,-1.25 l -0.7715,-1.25 z m -2.5,6.25 1.9493,0 1.9472,0 0,1.25 c 0,0.6875 -0.5288,1.25 -1.1758,1.25 -0.6469,0 -1.5243,-0.5625 -1.9492,-1.25 l -0.7715,-1.25 z m 222.64651,3.6015 1.25,0.7735 c 0.6875,0.4249 1.25,1.019 1.25,1.3222 0,0.3031 -0.5625,0.5528 -1.25,0.5528 -0.6875,0 -1.25,-0.5961 -1.25,-1.3242 l 0,-1.3243 z m 16.3242,1.3985 1.3243,0 -0.7735,1.25 c -0.4248,0.6875 -1.0191,1.25 -1.3222,1.25 -0.3033,0 -0.5528,-0.5625 -0.5528,-1.25 0,-0.6875 0.5962,-1.25 1.3242,-1.25 z m -243.82421,1.1015 1.2715,0.7852 1.2695,0.7851 -0.7187,1.1641 c -0.3955,0.6399 -1.2159,1.1641 -1.8223,1.1641 -0.6063,0 -1.4248,-0.5242 -1.8203,-1.1641 l -0.7187,-1.1641 1.2695,-0.7851 1.2695,-0.7852 z m 11.25,2.5 1.5625,0.9668 c 0.8594,0.5321 3.8125,1.2688 6.5625,1.6368 l 5,0.6699 0,1.25 0,1.25 -5.6699,0.3691 -5.6719,0.3711 -0.8906,-0.8926 c -0.4901,-0.4901 -0.8926,-1.9548 -0.8926,-3.2558 l 0,-2.3653 z m -4.5898,3.4961 2.9844,3.4688 2.9824,3.4707 3.6875,-0.7383 3.6855,-0.7363 0,1.8437 0,1.8438 -1.875,0 -1.875,0 0,1.3222 0,1.3243 -1.1621,-0.7188 -1.164,-0.7187 -0.7852,1.2695 c -0.4319,0.6987 -1.1896,1.2695 -1.6836,1.2695 -0.7482,0 -5.5315,-2.9016 -7.668,-4.6523 -0.3239,-0.2653 0.2386,-1.0069 1.25,-1.6465 l 1.8379,-1.1621 -1.5625,-0.02 -1.5625,-0.017 0,-1.8028 c 0,-0.9907 0.655,-2.2047 1.4551,-2.6992 l 1.4551,-0.9004 z m -6.8321,16.6114 0.836,1.3535 c 1.1481,1.8576 0.2364,2.5151 -1.7695,1.2754 l -1.6602,-1.0254 1.2969,-0.8028 1.2968,-0.8007 z m 5.2793,7.1464 1.3379,1.3379 1.3379,1.3379 -0.8398,1.3594 c -1.0125,1.6383 -4.029,1.7894 -4.9805,0.25 l -0.6836,-1.1074 1.9141,-1.5899 1.914,-1.5879 z m 16.1426,6.2266 0.834,0.834 0.834,0.834 -1.668,0 -1.666,0 0.834,-0.834 0.832,-0.834 z m 255,0 0.834,0.834 0.834,0.834 -1.668,0 -1.666,0 0.834,-0.834 0.832,-0.834 z m -279.6758,4.2188 1.0879,0.6738 c 0.5988,0.37 1.0879,1.3608 1.0879,2.2031 l 0,1.5332 -3.6289,2.1445 c -1.9968,1.1795 -3.9337,2.1446 -4.3027,2.1446 -0.369,0 -1.0839,-0.6714 -1.5899,-1.4903 l -0.9199,-1.4882 1.3555,-0.4512 c 0.7456,-0.2485 2.6055,-1.5366 4.1328,-2.8613 l 2.7773,-2.4082 z m 281.7637,12.5332 c 0.4485,0.031 1.133,0.2709 2.1778,0.6718 l 1.9707,0.7559 -0.6915,1.1191 c -0.3803,0.6155 -1.5015,1.1192 -2.4921,1.1192 l -1.8028,0 0,-1.875 c 0,-1.3143 0.09,-1.8423 0.8379,-1.791 z m -267.0879,2.25 3.3418,0.3945 3.3418,0.3965 0.5117,1.5625 0.5137,1.5625 -3.8535,0 -3.8555,0 0,-1.959 0,-1.957 z m -21.25,1.2324 2.1875,0.4199 2.1875,0.4219 -0.2461,1.2324 c -0.1355,0.6781 -1.1198,1.4145 -2.1875,1.6367 l -1.9414,0.4043 0,-2.0566 0,-2.0586 z m 14.0957,1.5293 2.3946,1.2812 c 1.3171,0.7049 3.8681,1.395 5.6679,1.5332 l 3.2715,0.252 0.5781,1.7324 0.5782,1.7344 -2.7403,-0.7168 -2.7383,-0.7168 -1.3105,2.875 -1.3086,2.875 -2.4219,-0.6328 -2.4218,-0.6328 0.3652,1.5664 0.3652,1.5664 -1.373,0.5097 -1.375,0.5098 -1.7031,-2.0508 -1.7032,-2.0527 2.4473,-1.7891 2.4453,-1.789 -1.8691,-1.2246 -1.8692,-1.2247 2.3614,-1.8027 2.3593,-1.8027 z m -11.7422,14.9023 2.2618,0.125 c 1.2436,0.069 3.666,0.5765 5.3847,1.127 l 3.125,0.998 -4.6133,0.125 -4.6132,0.125 -0.7735,-1.25 -0.7715,-1.25 z m 9.5215,7.8301 2.8067,2.1973 2.8047,2.1972 -3.0743,2.0117 c -1.6904,1.1077 -3.2337,2.0015 -3.4297,1.9825 -0.1961,-0.018 -1.9042,-0.9938 -3.7949,-2.166 l -3.4375,-2.1309 0,-1.4434 0,-1.4433 4.0625,-0.6035 4.0625,-0.6016 z m -10.625,13.2383 2.084,0.4043 c 1.1463,0.2222 2.3193,1.1074 2.6055,1.9668 l 0.5195,1.5625 -2.6035,0 -2.6055,0 0,-1.9668 0,-1.9668 z m -11.3965,7.6836 1.25,0 c 0.6875,0 1.5967,0.5625 2.0215,1.25 l 0.7735,1.25 -1.25,0 c -0.6875,0 -1.5986,-0.5625 -2.0235,-1.25 l -0.7715,-1.25 z m 8.8965,8.75 5.8496,0 5.8496,0 4.1504,1.5 4.1504,1.5019 0,1.5274 0,1.5293 -5.3125,-0.2168 c -2.9218,-0.1194 -7.4218,-0.7381 -10,-1.375 l -4.6875,-1.1582 0,-1.6543 0,-1.6543 z m 61.25,17.5 c 0.6875,0 1.25,0.5625 1.25,1.25 0,0.6875 -0.5625,1.25 -1.25,1.25 -0.6875,0 -1.25,-0.5625 -1.25,-1.25 0,-0.6875 0.5625,-1.25 1.25,-1.25 z m -30.1172,3.4492 3.1836,0.7988 3.1836,0.7988 0,1.2032 0,1.2011 -3.0078,0.7559 -3.0078,0.7539 -2.541,-1.3594 -2.541,-1.3593 -0.7735,1.2539 -0.7754,1.2539 1.4122,0 c 0.7771,0 2.2215,0.8076 3.2089,1.7949 l 1.795,1.7949 -0.9473,0.5352 c -1.0064,0.5695 -3.1289,0.097 -7.1973,-1.6035 -1.375,-0.575 -3.5805,-1.398 -4.9023,-1.8282 l -2.4043,-0.7812 2.5586,-1.791 2.5566,-1.791 5.0996,-0.8165 5.0996,-0.8144 z m -44.8828,1.5508 2.4278,0 2.4257,0 0.7715,1.25 0.7735,1.25 -3.1993,0 -3.1992,0 0,-1.25 0,-1.25 z m 61.5235,3.5566 -0.545,1.6582 -0.5449,1.6602 -3.4785,0.4082 -3.4766,0.4082 0.545,-1.6582 0.5449,-1.6582 3.4785,-0.4102 3.4766,-0.4082 z m 2.8515,0.8184 2.5,0 2.5,0 0.4004,2.8125 0.3985,2.8125 -3.2989,0 -3.2988,0 0.4004,-2.8125 0.3984,-2.8125 z m 225.625,0.459 3.3418,0.3945 3.3418,0.3965 0.5117,1.5625 0.5137,1.5625 -1.9785,0 -1.9805,0 0,1.7402 0,1.7422 1.7813,0.6816 1.7812,0.6836 2.1328,4.4961 c 1.1733,2.4724 1.8628,4.7642 1.5332,5.0938 -0.3295,0.3296 -2.1687,-0.9564 -4.0878,-2.8574 -3.6066,-3.5726 -6.8907,-10.0038 -6.8907,-13.4981 l 0,-1.998 z m -358.9453,6.2714 -1.3555,0.4532 -1.3535,0.4511 -1.5468,6.8067 c -0.8503,3.744 -2.2593,10.1836 -3.1309,14.3086 -1.8664,8.8322 -3.6956,12.8808 -7.2891,16.1328 l -2.6289,2.3789 0,1.8945 c 0,1.0425 0.9362,2.9294 2.0801,4.1934 l 2.0801,2.2988 10.1074,-0.7402 c 5.5592,-0.4071 10.8106,-0.9573 11.6699,-1.2227 l 1.5625,-0.4824 0,-3.1328 0,-3.1328 -3.75,-1.9375 -3.75,-1.9395 0,-2.8554 0,-2.8536 -1.75,-2.3925 -1.75,-2.3946 1.75,-2.498 1.75,-2.4981 0,-4.0078 0,-4.0078 -1.7187,-1.7207 -1.7207,-1.7207 0.3711,-4.6895 0.373,-4.6914 z m 423.9453,27.6446 0,15.5508 0,15.5507 1.0899,0.6739 c 0.5988,0.37 1.4164,2.3168 1.8183,4.3261 l 0.7305,3.6524 3.4941,1.2734 c 6.7442,2.4599 7.0812,1.4836 1.4786,-4.2969 l -3.8907,-4.0156 0.9063,-1.4668 0.9062,-1.4668 1.3594,1.3594 c 0.7473,0.7474 2.1247,1.3594 3.0605,1.3594 l 1.7012,0 -0.7812,-5.9375 c -0.4296,-3.2656 -1.6422,-8.1875 -2.6934,-10.9375 -2.8873,-7.5528 -7.1308,-15.625 -8.2148,-15.625 l -0.9649,0 z m -364.834,3.4863 -1.6445,0.5801 -1.6465,0.5801 0.3028,4.7832 0.3027,4.7832 1.5723,1 c 2.3644,1.501 4.2209,1.2438 5.9355,-0.8223 l 1.543,-1.8594 -0.7266,-1.8906 -0.7246,-1.8906 -1.7695,0 -1.7676,0 -0.6895,-2.6328 -0.6875,-2.6309 z m 368.584,10.2637 1.25,0 1.25,0 0,1.875 0,1.875 -1.25,0 -1.25,0 0,-1.875 0,-1.875 z m -248.74999,0.078 0,1.8359 0,1.836 1.875,0 1.875,0 0,-1.1172 c 0,-0.614 -0.8437,-1.4403 -1.875,-1.836 l -1.875,-0.7187 z"
       id="path12414" />
  </g>
</svg>
