<?xml version="1.0" encoding="UTF-8" standalone="no"?>
<!-- Created with Inkscape (http://www.inkscape.org/) -->

<svg
   xmlns:dc="http://purl.org/dc/elements/1.1/"
   xmlns:cc="http://creativecommons.org/ns#"
   xmlns:rdf="http://www.w3.org/1999/02/22-rdf-syntax-ns#"
   xmlns:svg="http://www.w3.org/2000/svg"
   xmlns="http://www.w3.org/2000/svg"
   xmlns:sodipodi="http://sodipodi.sourceforge.net/DTD/sodipodi-0.dtd"
   xmlns:inkscape="http://www.inkscape.org/namespaces/inkscape"
   width="210mm"
   height="297mm"
   viewBox="0 0 744.09448819 1052.3622047"
   id="svg4143"
   version="1.1"
   inkscape:version="0.91 r13725"
   sodipodi:docname="O.svg">
  <defs
     id="defs4145" />
  <sodipodi:namedview
     id="base"
     pagecolor="#ffffff"
     bordercolor="#666666"
     borderopacity="1.0"
     inkscape:pageopacity="0.0"
     inkscape:pageshadow="2"
     inkscape:zoom="0.35"
     inkscape:cx="-145"
     inkscape:cy="520"
     inkscape:document-units="px"
     inkscape:current-layer="layer1"
     showgrid="false"
     inkscape:window-width="1920"
     inkscape:window-height="1055"
     inkscape:window-x="0"
     inkscape:window-y="25"
     inkscape:window-maximized="1" />
  <metadata
     id="metadata4148">
    <rdf:RDF>
      <cc:Work
         rdf:about="">
        <dc:format>image/svg+xml</dc:format>
        <dc:type
           rdf:resource="http://purl.org/dc/dcmitype/StillImage" />
        <dc:title></dc:title>
      </cc:Work>
    </rdf:RDF>
  </metadata>
  <g
     inkscape:label="Layer 1"
     inkscape:groupmode="layer"
     id="layer1">
    <path
       inkscape:connector-curvature="0"
       style="fill:#000000"
       d="m 114.46096,60.845333 0,1.25 c 0,0.6875 0.5308,1.25 1.1778,1.25 0.6469,0 1.5224,-0.5625 1.9472,-1.25 l 0.7735,-1.25 -1.9493,0 -1.9492,0 z m 402.6485,13.75 -0.7735,1.25 -0.7715,1.25 2.5,0 2.5,0 0.7715,-1.25 0.7735,-1.25 -2.5,0 -2.5,0 z m -311.7461,20.06641 -1.0957,0.67773 -1.0957,0.67774 0.7187,1.16406 c 0.3955,0.63998 1.2476,1.16406 1.8945,1.16406 1.3439,0 1.5655,-1.69432 0.377,-2.88281 l -0.7988,-0.80078 z m 74.205,18.291007 -4.1074,1.17774 -4.1074,1.17773 -0.4277,2.21875 -0.4278,2.22071 4.795,-0.85352 c 2.6366,-0.46926 5.3273,-1.34706 5.9804,-1.95117 l 1.1875,-1.09766 -1.4453,-1.44726 -1.4473,-1.44532 z m 21.2989,0.13086 -1.6406,0.65625 -1.6407,0.65821 2.3965,0.0976 2.3965,0.0996 -0.7559,-0.75586 -0.7558,-0.75586 z m -36.3653,3.63672 -12.207,5.3418 c -6.7146,2.93785 -12.7715,5.75958 -13.459,6.27148 -0.6875,0.5119 -4.2662,1.9159 -7.9531,3.11914 -3.687,1.20324 -8.1807,2.95383 -9.9863,3.89063 -3.563,1.84847 -22.4976,18.19272 -33.9317,29.29101 -3.9183,3.80314 -7.8577,8.28434 -8.7539,9.95899 -1.7287,3.22991 -1.8934,3.42561 -17.082,20.17578 -5.3862,5.93979 -10.5235,11.71066 -11.416,12.82422 l -1.6231,2.02539 -0.7402,6.55078 -0.7422,6.55078 -2.3223,4.63672 c -1.2777,2.55074 -2.3242,5.4357 -2.3242,6.41016 0,0.97445 -0.7571,2.40095 -1.6836,3.16992 l -1.6855,1.39844 -0.1133,3.97461 -0.1113,3.9746 -1.9532,1.0918 -1.9511,1.0918 0,2.36523 c 0,1.30026 -0.5625,2.71182 -1.25,3.13672 -0.6875,0.4249 -1.25,1.60916 -1.25,2.63281 l 0,1.86133 -3.4375,3.06836 -3.4375,3.06836 2.1875,1.30859 c 1.2031,0.71971 2.1875,1.84471 2.1875,2.49805 l 0,1.18753 -2.541,0 -2.5391,0 -0.7812,2.041 -0.7833,2.0391 1.4883,2.3867 1.4903,2.3847 -0.793,1.2832 -0.7949,1.2852 -1.6563,-0.6367 -1.6582,-0.6348 -1.2129,1.4883 c -0.6668,0.8185 -1.9348,3.9225 -2.8183,6.8984 l -1.6055,5.4102 1.6465,1.0176 1.6465,1.0175 -2.67,1.4297 -2.6679,1.4278 0,3.455 0,3.4571 1.4609,1.4609 1.4629,1.4629 -2.9297,1.082 -2.9277,1.084 -0.3457,3.0176 c -0.1901,1.6594 -0.6039,6.9543 -0.918,11.7656 l -0.5723,8.7481 1.4415,0.8886 1.4394,0.8907 -2.2637,1.6562 -2.2656,1.6563 -1.291,9.33 c -0.7099,5.1319 -1.1467,11.0196 -0.9707,13.0821 0.1766,2.0625 0.2833,5.1562 0.2383,6.875 -0.4266,16.1871 -0.5767,42.0762 -0.2793,48.125 l 0.3672,7.5 1.6582,3.9785 c 0.9119,2.1884 2.6501,4.7269 3.8632,5.6406 4.2611,3.2095 5.2596,6.0241 10.336,29.1309 0.7553,3.4375 1.9707,8.9616 2.6992,12.2773 l 1.3242,6.0293 3.1641,5.8457 c 4.9151,9.0802 11.6536,19.041 17.1601,25.3652 9.2642,10.6398 13.7616,16.5978 15.3907,20.3907 0.8899,2.0716 2.4216,4.6545 3.4043,5.7402 0.9826,1.0859 3.8544,5.8857 6.3808,10.6641 5.7081,10.7967 12.3123,20.6211 19.6094,29.1699 3.0855,3.6147 7.3309,9.7662 9.4336,13.6699 l 3.8223,7.0977 6.6152,7.1386 6.6172,7.1387 7.1289,4.2461 7.1308,4.2441 5.9942,1.5801 c 3.2974,0.8692 8.2461,2.5781 10.9961,3.7969 l 5,2.2168 16.875,0.7344 16.875,0.7344 5.9785,1.8496 5.9805,1.8515 2.9609,-1.1269 c 1.6287,-0.6191 3.3302,-1.7233 3.7812,-2.4532 l 0.8204,-1.3261 3.1308,0 3.1289,0 -0.2226,2.1875 c -0.123,1.2031 -0.1574,2.6094 -0.078,3.125 l 0.1446,0.9375 6.5625,-0.1 c 3.6094,-0.055 9.0938,-0.7584 12.1875,-1.5625 l 5.625,-1.4629 -0.3594,-2.6192 -0.3574,-2.6191 4.1074,-4.0508 c 2.2597,-2.2279 5.5873,-4.8247 7.3945,-5.7715 1.8074,-0.9467 3.618,-2.5859 4.0235,-3.6426 l 0.7383,-1.9218 4.164,0 4.1641,0 1.3906,1.3906 1.3906,1.3926 1.3594,-0.8399 1.3594,-0.8398 0,-3.5762 0,-3.5742 4.4668,-2.7598 4.4668,-2.7597 1.4082,1.4082 c 0.7746,0.7746 2.4207,1.4082 3.6582,1.4082 l 2.25,0 0,-2.25 c 0,-1.2375 -0.665,-2.915 -1.4785,-3.7285 l -1.4805,-1.4805 0.6816,-0.6797 0.6797,-0.6816 3.5156,1.3359 3.5137,1.3359 1.7442,-0.6699 1.7461,-0.6699 -0.836,-2.6328 -0.8359,-2.6328 3.8691,0.8496 3.8672,0.8496 1.1895,-3.1231 1.1875,-3.125 2.5742,0.6739 2.5762,0.6738 1.5546,-1.2578 c 0.8558,-0.692 6.0567,-3.6378 11.5567,-6.5449 5.5,-2.907 13.2173,-7.6098 17.1504,-10.4512 l 7.1523,-5.166 0.035,-2.0957 0.035,-2.0977 3.2949,-2.5898 c 1.8113,-1.4248 3.8337,-2.5918 4.4942,-2.5918 0.6605,0 2.8408,-1.1681 4.8457,-2.5957 l 3.6465,-2.5957 -0.7871,-1.2735 -0.7871,-1.2734 2.5586,-3.4609 2.5585,-3.459 0.8536,-4.8594 0.8535,-4.8574 3.1582,-5.625 c 1.7373,-3.0938 3.9924,-6.5881 5.0117,-7.7657 l 1.8535,-2.1406 -0.8008,-2.0879 -0.8008,-2.0859 2.211,-4.8027 2.2109,-4.8028 2.1875,-0.031 2.1875,-0.033 0,-2.3555 0,-2.3535 2.1875,-0.5801 2.1875,-0.5801 5.9375,-11.9179 5.9375,-11.918 0,-2.9707 0,-2.9727 2.6485,-1.6543 2.6464,-1.6523 -1.3964,-1.3984 -1.3985,-1.3965 0,-2.875 0,-2.875 1.7422,0 1.7402,0 0.7598,-1.9785 c 0.4174,-1.0874 0.7578,-3.0562 0.7578,-4.375 l 0,-2.3965 -1.25,0 c -2.2115,0 -1.3319,-1.8693 1.4864,-3.1407 l 2.7265,-1.2343 3.0137,-8.75 3.0156,-8.75 -0.623,-4.6992 -0.6231,-4.6993 2.4492,-1.7148 2.4473,-1.7149 0.1465,-2.9609 0.1465,-2.9609 3.2109,-3.5059 3.2109,-3.5058 0.209,-8.9942 0.2071,-8.9941 -2.3067,-2.502 -2.3066,-2.5 -0.2227,-3.75 c -0.1227,-2.062 -0.2597,-7.6855 -0.3047,-12.498 l -0.082,-8.75 0.9824,-2.7422 0.9825,-2.7422 -3.252,-3.252 -3.252,-3.2519 0,-4.2461 0,-4.2441 -1.2539,-0.7735 -1.2519,-0.7734 0.7851,-6.6699 0.7832,-6.668 -2.0468,-4.1035 -2.0469,-4.1035 0.7226,-3.8496 0.7227,-3.8516 -1.9492,-3.7402 -1.9512,-3.7383 -0.012,-3.3633 -0.012,-3.3652 -1.3164,-0.8125 -1.3164,-0.8125 0.498,-1.4493 c 0.5679,-1.6504 -3.135,-15.38649 -5.1308,-19.03121 -3.1858,-5.81805 -5.0625,-10.81609 -5.8848,-15.6836 -0.4858,-2.8753 -1.67,-7.11356 -2.6328,-9.41797 l -1.752,-4.18945 -1.3672,0 -1.3691,0 0.7031,-2.8125 0.7012,-2.8125 -1.1016,-4.87109 -1.1015,-4.86914 -1.3184,-0.81641 c -0.7251,-0.44818 -2.0396,-2.90029 -2.9219,-5.44922 l -1.6054,-4.63476 -8.17,-8.42969 c -4.493,-4.63669 -10.6082,-11.4141 -13.5898,-15.06055 l -5.4199,-6.6289 -1.8614,0.71289 -1.8613,0.71484 -1.7148,-1.42578 -1.7168,-1.42383 0,-2.27734 0,-2.27735 -2.8145,-3.27148 -2.8144,-3.27148 -5.3418,-0.7168 -5.3418,-0.7168 -0.7539,-1.2207 -0.7539,-1.2207 1.6113,-0.9961 1.6133,-0.99805 -3.6406,-3.19921 -3.6387,-3.19922 -2.5781,-0.0391 c -1.4177,-0.0217 -4.906,-1.16406 -7.752,-2.53906 -2.8459,-1.375 -6.0132,-2.5 -7.0371,-2.5 -1.0239,0 -2.1964,-0.544 -2.6074,-1.20898 l -0.7481,-1.20899 -3.6191,0.72266 -3.6211,0.72461 -4.1426,-3.88477 -4.1445,-3.88476 -4.375,-0.69922 c -2.4063,-0.38386 -5.3532,-1.22897 -6.5469,-1.87891 -3.9499,-2.15042 -3.8776,-1.23137 0.2109,2.67578 2.22,2.12155 3.7685,4.12606 3.4395,4.45508 -0.3291,0.32904 -2.53,0.23584 -4.8906,-0.20703 l -4.293,-0.80469 -2.2383,-3.79101 -2.2402,-3.79102 -6.0586,0.80274 -6.0567,0.80468 -2.539,-2.53906 c -1.3959,-1.39591 -3.3127,-2.53711 -4.2598,-2.53711 -0.947,0 -2.4214,-0.84375 -3.2773,-1.875 l -1.5567,-1.875 -8.4941,0 c -4.672,0 -9.3812,-0.34007 -10.4648,-0.75586 l -1.9707,-0.75586 0.6914,-1.11914 0.6914,-1.11914 -2.3243,0 c -1.278,0 -2.9546,0.63139 -3.7285,1.4043 l -1.4062,1.40625 -4.0313,-1.40625 c -2.2171,-0.77291 -4.5088,-1.4043 -5.0937,-1.4043 l -1.0645,0 0.3125,1.40625 0.3125,1.40625 -1.6933,0.61719 -1.6934,0.61523 0.8398,-2.64648 0.8399,-2.64844 -2.2793,0 c -1.254,0 -4.2006,0.55116 -6.5488,1.22461 l -4.2696,1.22461 -1.3476,-0.99414 -1.3477,-0.99414 -9.0195,0.15039 -9.0195,0.14844 -3.6993,3.29492 -3.6972,3.29687 -4.4707,0.83789 -4.4688,0.8379 0,1.24414 0,1.24609 -1.8554,-0.71289 -1.8555,-0.71094 -3.6875,2.11719 -3.6895,2.11719 -0.8613,-0.86133 -0.8594,-0.85938 0.7266,-1.89257 0.7246,-1.89063 3.4922,-0.75391 c 5.4424,-1.17375 11.8893,-4.19385 15.9414,-7.46875 l 3.7012,-2.99218 -0.8672,-0.86719 -0.8692,-0.86719 z m -36.1777,19.125 1.4434,0 -1.4551,1.75195 -1.4551,1.75391 3.4902,1.27344 3.4883,1.27344 -8.5097,0.0976 -8.5118,0.0996 0.8516,-1.3789 c 0.9226,-1.49297 8.315,-4.8711 10.6582,-4.8711 z m 106.1367,0 c 0.6875,0 1.25,0.5625 1.25,1.25 0,0.6875 -0.5625,1.25 -1.25,1.25 -0.6875,0 -1.25,-0.5625 -1.25,-1.25 0,-0.6875 0.5625,-1.25 1.25,-1.25 z m -124.7109,12.5 2.9805,0 2.9804,0 0,1.8418 0,1.84375 -3.6875,1.90625 c -3.755,1.94174 -6.3125,2.44349 -6.3125,1.23828 0,-0.36794 0.9093,-2.05544 2.0196,-3.75 l 2.0195,-3.08008 z m 118.2793,45.55274 0,0.004 c 1.75,0.0588 5.2794,0.54479 9.084,1.28125 5.0728,0.98195 14.0058,2.43158 19.8496,3.22266 11.3875,1.54152 19.4052,3.55207 29.375,7.36719 3.4375,1.31542 8.0781,3.06417 10.3125,3.88476 l 4.0625,1.49219 0,2.82226 0,2.82227 5,5.15234 5,5.15235 0,3.04883 0,3.05078 1.1172,0.6914 1.1191,0.69141 0.7168,-1.86719 0.7168,-1.86914 1.8262,0 1.8242,0 4.4648,4.21094 4.4649,4.20898 0,2.67774 0,2.67773 -2.3711,2.0293 -2.3692,2.0293 1.5782,3.75195 1.5781,3.75391 2.1894,1.22656 2.1915,1.22461 0.875,-1.41602 0.875,-1.41406 4.1875,5.95703 c 2.3035,3.27667 5.4164,7.08206 6.9179,8.45706 l 2.7305,2.5 1.6367,11.875 1.6367,11.875 -0.2285,10.1133 -0.2285,10.1113 2.5215,3.2051 2.5195,3.205 -0.094,2.9336 c -0.052,1.6131 0.4692,6.4427 1.1582,10.7344 l 1.2519,7.8047 1.9688,3.9453 1.9687,3.9473 -1.0801,1.375 -1.08,1.375 0.2441,23.125 c 0.1337,12.7187 -0.1202,27.9062 -0.5625,33.75 l -0.8027,10.625 1.0175,0.4179 c 1.8763,0.7678 1.0436,3.341 -1.6191,5.0039 l -2.6367,1.6465 0.7305,3.6543 0.7304,3.6524 -2.332,0 -2.334,0 -0.8379,3.3437 -0.8398,3.3438 1.9531,1.0937 c 1.0746,0.6013 1.9531,1.628 1.9531,2.2813 l 0,1.1875 -2.5,0 -2.5,0 0,1.7324 0,1.7305 -3.125,2.0468 -3.125,2.0489 0,1.8457 0,1.8457 2.2227,0 2.2226,0 2.1407,2.5 2.1406,2.5 2.5117,0 2.5117,0 0,1.289 c 0,0.709 -0.7454,1.5776 -1.6582,1.9278 l -1.6601,0.6367 -3.6524,-1.5 c -2.0091,-0.8242 -5.4766,-1.6579 -7.7051,-1.8535 l -4.0527,-0.3555 -3.7598,3.1641 c -2.0684,1.7405 -3.7617,3.7646 -3.7617,4.498 0,0.7334 -1.4439,3.2283 -3.2109,5.5449 l -3.2129,4.2129 -1.1738,8.4063 c -0.6455,4.6233 -1.7964,10.373 -2.5567,12.7793 l -1.3828,4.375 -3.918,4.2148 -3.9199,4.2149 -7.5,3.5976 -7.5,3.5957 -4.7597,0 -4.7618,0 -4.6132,3.7129 -4.6153,3.7109 -3.1211,5.0606 -3.1211,5.0605 -10.0039,4.8829 -10.0039,4.8828 -10.625,0.4961 -10.625,0.4941 -7.5,-1.0645 c -7.9741,-1.1327 -23.1184,-3.5815 -37.5,-6.0625 -9.2481,-1.5955 -14.1756,-3.549 -16.7383,-6.6367 l -1.5586,-1.8769 -3.9707,-0.8731 -3.9707,-0.8711 -11.2558,-9.4922 c -12.4513,-10.4994 -14.7088,-12.9415 -23.3828,-25.2929 -3.2781,-4.6677 -6.7113,-8.9427 -7.6289,-9.4981 -0.9177,-0.5555 -3.727,-4.3847 -6.2422,-8.5097 l -4.5723,-7.5 0.7188,-2.7188 0.7207,-2.7207 -2.6211,-2.2461 -2.6231,-2.2441 0,-2.2852 c 0,-1.2564 -0.9516,-4.083 -2.1152,-6.2832 l -2.1152,-4.0019 -0.4122,-4.375 c -0.2268,-2.4062 -0.6543,-7.1875 -0.9492,-10.625 -0.8349,-9.7317 -2.5321,-18.4881 -4.164,-21.4766 l -1.4903,-2.7266 -1.3047,-9.7734 c -0.7173,-5.3751 -1.578,-12.0234 -1.914,-14.7734 -0.336,-2.75 -1.424,-7.8125 -2.418,-11.25 -0.994,-3.4375 -2.1221,-8.3259 -2.5058,-10.8653 l -0.6973,-4.6172 -2.3926,-0.7597 -2.3926,-0.7598 0.6953,-1.8105 0.6934,-1.8125 1.7422,0 1.7402,0 0.016,-3.4375 c 0.01,-1.8906 0.3546,-5.4978 0.7714,-8.0176 l 0.7559,-4.582 -2.959,-0.418 -2.957,-0.4199 0.3847,-1.25 c 0.4084,-1.3235 1.6274,-1.3097 6.1778,0.066 l 2.8125,0.8515 0,-6.6191 0,-6.6211 1.4023,-4.4629 c 0.7718,-2.455 1.9599,-5.5405 2.6387,-6.8555 l 1.2324,-2.3906 -2.9492,-2.2265 -2.9492,-2.2286 4.6875,-1.9609 c 2.5781,-1.0783 4.6875,-2.3116 4.6875,-2.7422 0,-0.4306 -0.9844,-1.532 -2.1875,-2.4453 l -2.1875,-1.6602 -5.0625,-0.039 -5.0625,-0.041 -1.5,-1.5 c -2.0275,-2.0275 -1.8873,-3.083 0.5332,-4.0118 l 2.0332,-0.7812 1.4043,1.0996 c 0.7723,0.6045 2.9152,1.4593 4.7637,1.9004 l 3.3613,0.8027 0.8535,-1.3808 0.8535,-1.3809 3.5547,0.711 3.5566,0.7128 1.9297,-2.7558 1.9297,-2.7559 1.5274,-7.3984 1.5273,-7.3965 2.1523,-0.5625 2.1524,-0.5625 1.959,-2.9902 1.957,-2.98832 -0.7969,-3.18164 -0.7988,-3.17968 1.8457,-2.13672 c 1.0158,-1.17543 2.1583,-3.41093 2.5371,-4.9668 l 0.6875,-2.82812 -2.4023,-1.28711 -2.4043,-1.28516 1.3769,-2.57227 1.377,-2.57226 2.8965,0.55273 2.8984,0.55469 0.7402,-3.70117 0.7403,-3.70117 2.2246,0.58398 2.2265,0.58203 1.5352,-1.64453 1.5352,-1.64258 1.6328,0.62696 1.6308,0.625 2.3106,-2.55274 2.3105,-2.55273 -3.7988,0.75976 -3.8008,0.75977 -0.8848,-1.42969 -0.8847,-1.43164 1.4199,-1.70898 1.4199,-1.71094 6.0352,-1.44727 6.0332,-1.44922 -0.1582,-2.05078 -0.1582,-2.05273 2.5,-0.5 c 1.375,-0.27486 2.9482,-1.27977 3.498,-2.23438 0.5497,-0.95461 1.6314,-1.73632 2.4024,-1.73632 0.7711,0 2.2896,-0.79844 3.375,-1.77539 2.6626,-2.39666 13.1959,-7.60817 20.0996,-9.94532 3.0937,-1.04736 9.4376,-2.29284 14.0976,-2.76758 l 8.4707,-0.86328 0.6641,-1.07422 0.6641,-1.07421 -1.3243,0 c -0.728,0 -1.3222,-0.47976 -1.3222,-1.06641 l 0,-1.06641 15.1269,-0.1875 c 8.3202,-0.10357 15.5608,-0.45621 16.0899,-0.7832 0.1322,-0.0818 0.5162,-0.10939 1.0996,-0.0898 z m 132.5351,5.69726 3.8243,0 3.8222,0 0,1.25 0,1.25 -3.0508,0 -3.0507,0 -0.7735,-1.25 -0.7715,-1.25 z m -206.6543,6.25 c 0.3032,0 0.5508,0.5625 0.5508,1.25 0,0.6875 -0.5942,1.25 -1.3222,1.25 l -1.3243,0 0.7715,-1.25 c 0.4249,-0.6875 1.0211,-1.25 1.3242,-1.25 z m 219.3008,18.75 1.875,0 1.875,0 0,1.25 0,1.25 -1.875,0 -1.875,0 0,-1.25 0,-1.25 z m -298.75,4.58203 0.834,0.83399 0.834,0.83398 -1.668,0 -1.666,0 0.834,-0.83398 0.832,-0.83399 z m 10.625,1.66797 1.875,0 0,1.17578 c 0,0.64692 -0.4826,1.47421 -1.0742,1.83985 l -1.0762,0.66601 -0.7988,-0.80078 c -1.4077,-1.40774 -0.8588,-2.88086 1.0742,-2.88086 z m 250.625,9.73242 2.1543,0.82618 2.1524,0.82421 -1.8399,1.16407 c -2.4158,1.52787 -4.6302,1.50555 -5.5957,-0.0566 l -0.7793,-1.25782 1.9551,-0.75 1.9531,-0.75 z m -257.4336,6.68555 c 1.0634,0.13511 2.4336,1.29818 2.4336,2.4043 0,0.64692 -0.5288,1.17773 -1.1758,1.17773 -1.4748,0 -3.0516,-2.43858 -2.1562,-3.33398 0.2238,-0.22385 0.544,-0.29309 0.8984,-0.24805 z m -18.8164,29.41406 0.834,0.834 0.834,0.834 -1.668,0 -1.666,0 0.834,-0.834 0.832,-0.834 z m 35,0.2695 1.25,0.7735 c 0.6875,0.4249 1.25,1.3002 1.25,1.9472 l 0,1.1778 -1.8008,0 c -0.9906,0 -2.124,-0.5241 -2.5195,-1.1641 l -0.7187,-1.1641 1.2695,-0.7851 1.2695,-0.7852 z m -25.1465,27.6485 1.875,0 c 1.0313,0 2.2217,0.5625 2.6465,1.25 l 0.7735,1.25 -1.875,0 c -1.0312,0 -2.2236,-0.5625 -2.6485,-1.25 l -0.7715,-1.25 z m -18.6132,1.3105 c 1.2682,-0.098 2.8466,0.7398 4.3847,2.4395 l 2.2637,2.498 -1.7559,-0.078 c -0.966,-0.043 -3.0594,-0.6021 -4.6504,-1.2402 l -2.8925,-1.1602 0.7793,-1.2598 c 0.4608,-0.7457 1.1101,-1.1407 1.8711,-1.1992 z m -14.0704,14.875 3.2911,1.25 c 1.8096,0.688 3.289,1.5475 3.289,1.9082 0,0.3608 -2.2163,0.6563 -4.9258,0.6563 l -4.9257,0 -0.7168,-1.1602 -0.7168,-1.1601 2.3535,-0.7481 2.3515,-0.7461 z m 19.0801,1.3145 1.875,0 1.875,0 0,1.25 0,1.25 -1.875,0 -1.875,0 0,-1.25 0,-1.25 z m 17.3985,2.5 4.3945,2.1875 4.3965,2.1875 0.031,1.4277 0.029,1.4297 -1.9765,0.7578 c -3.8961,1.4951 -5.5235,0.5127 -5.5235,-3.334 l 0,-2.4258 -1.625,0.625 -1.625,0.6231 -3.0625,-1.6953 -3.0625,-1.6953 4.0117,-0.045 4.0118,-0.043 z m -19.8985,1.25 c 0.6875,0 1.25,0.5625 1.25,1.25 0,0.6875 -0.5625,1.25 -1.25,1.25 -0.6875,0 -1.25,-0.5625 -1.25,-1.25 0,-0.6875 0.5625,-1.25 1.25,-1.25 z m 12.3535,8.75 2.5743,0 2.5722,0 0,1.25 0,1.25 -1.8008,0 c -0.9906,0 -2.1493,-0.5625 -2.5742,-1.25 l -0.7715,-1.25 z m -5.914,16.0215 0.8066,0.8066 0.8067,0.8066 -1.8379,1.1641 c -1.0113,0.6396 -2.543,1.1716 -3.4024,1.1816 -2.5333,0.031 -1.7842,-2.2425 1.0332,-3.1367 l 2.5938,-0.8222 z m -20.1094,0.2285 1.1504,0 c 0.6336,0 2.5849,0.6514 4.3359,1.4492 l 3.1836,1.4512 0,1.5 0,1.5 -6.5625,0.789 c -3.6093,0.4335 -8.1775,0.7889 -10.1523,0.7989 l -3.5899,0.012 1.5547,-1.875 1.5567,-1.875 4.9804,0 4.9805,0 -0.7187,-1.875 -0.7188,-1.875 z m 19.918,4.8398 3.9687,0.3926 3.9668,0.3906 0.5117,1.5625 0.5137,1.5625 -5.0293,0 -5.0312,0 -0.7735,1.25 -0.7715,1.25 3.5118,0.051 3.5097,0.049 -4.0625,1.7657 -4.0625,1.7656 0,1.3105 0,1.3106 -2.4258,0 -2.4257,0 -0.8243,1.332 -0.8242,1.334 2.0235,1.4785 2.0254,1.4805 -1.9708,2.8125 -1.9687,2.8105 -2.7422,-0.037 c -1.5079,-0.021 -3.7591,-0.6314 -5.0039,-1.3555 l -2.2637,-1.3164 -1.7988,0.6914 -1.8008,0.6895 0,-1.0762 c 0,-0.5923 0.8802,-1.4157 1.9551,-1.8281 l 1.9551,-0.7481 -0.8164,-1.3203 -0.8164,-1.3203 -1.7617,1.4649 -1.7657,1.4629 0,-2.0274 0,-2.0293 1.875,0 1.875,0 2.5,2.5 c 1.375,1.375 3.0117,2.5 3.6348,2.5 l 1.1328,0 -0.668,-2.8125 c -0.3671,-1.5468 -1.2987,-3.375 -2.0703,-4.0625 -0.7715,-0.6875 -2.2206,-2.375 -3.2187,-3.75 l -1.8145,-2.5 1.6543,1.4649 1.6543,1.4648 1.7227,-0.6602 1.7226,-0.6601 0,-2.293 0,-2.2929 1.3907,-0.8594 1.3906,-0.8594 1.0371,1.6816 1.039,1.6797 5.0704,-2.8496 5.0703,-2.8496 z m 6.2519,13.9102 1.875,0 1.875,0 0,1.875 c 0,1.0312 -0.1406,1.8294 -0.3125,1.7754 -2.2747,-0.7183 -3.4375,-1.5662 -3.4375,-2.5059 l 0,-1.1445 z m 340,20 3.1992,0 3.1993,0 -0.7735,1.25 -0.7715,1.25 -2.4257,0 -2.4278,0 0,-1.25 0,-1.25 z m -341.459,25 1.9786,0 1.9804,0 0,1.2695 0,1.2695 3.4375,0.057 c 2.9352,0.049 14.6565,0.8153 16.5625,1.082 0.3438,0.048 -0.9859,0.9261 -2.9551,1.9531 l -3.58,1.8672 -5.1739,0 -5.1738,0 -3.5391,-3.75 -3.5371,-3.748 z m 298.9336,2.3398 2.7911,1.9551 2.791,1.9551 -3.0899,-0.088 c -1.6999,-0.048 -4.2168,-0.529 -5.5918,-1.0664 l -2.5,-0.9766 2.8008,-0.8906 2.7988,-0.8887 z m 18.7754,18.4922 0.834,0.834 0.834,0.834 -1.668,0 -1.666,0 0.834,-0.834 0.832,-0.834 z m 12.543,8.709 1.3379,1.3379 1.3379,1.3379 -1.2735,0.7871 -1.2714,0.7851 -0.836,-1.3535 -0.8379,-1.3535 0.7715,-0.7695 0.7715,-0.7715 z m -13.793,35.459 c 0.6875,0 1.25,0.5625 1.25,1.25 0,0.6875 -0.5625,1.25 -1.25,1.25 -0.6875,0 -1.25,-0.5625 -1.25,-1.25 0,-0.6875 0.5625,-1.25 1.25,-1.25 z m -283.0156,96.2558 c 0.7088,-0.076 1.7434,0.6301 2.2187,1.8692 l 0.7188,1.875 -1.002,0 c -1.3028,0 -2.6699,-1.3871 -2.6699,-2.709 0,-0.6629 0.3091,-0.9895 0.7344,-1.0352 z m 16.9395,13.7032 1.164,0.7187 c 0.64,0.3955 1.1621,0.9684 1.1621,1.2715 0,0.3033 -0.8755,0.5508 -1.9472,0.5508 l -1.9493,0 0.7852,-1.2715 0.7852,-1.2695 z m 9.2011,3.791 4.375,0 0,1.875 0,1.875 -1.5625,-0.08 c -2.1847,-0.1107 -7.1875,-2.203 -7.1875,-3.0059 0,-0.3658 1.9688,-0.664 4.375,-0.664 z m 94.2285,36.25 2.5743,0 2.5722,0 0,1.25 0,1.25 -1.8008,0 c -0.9906,0 -2.1493,-0.5625 -2.5742,-1.25 l -0.7715,-1.25 z m -198.7285,2.4297 -1.1875,0.7343 -1.1875,0.7325 0,4.7441 0,4.7441 3.0664,3.3067 3.0645,3.3066 1.9355,0 1.9336,0 0,-1.7187 0,-1.7188 -4.0625,-2.0019 -4.0625,-2.002 1.5625,-0.029 1.5625,-0.029 0,-2.582 c 0,-1.4203 -0.5905,-3.6862 -1.3125,-5.0352 l -1.3125,-2.4511 z"
       id="path12412" />
  </g>
</svg>
