<?xml version="1.0" encoding="UTF-8" standalone="no"?>
<!-- Created with Inkscape (http://www.inkscape.org/) -->

<svg
   xmlns:dc="http://purl.org/dc/elements/1.1/"
   xmlns:cc="http://creativecommons.org/ns#"
   xmlns:rdf="http://www.w3.org/1999/02/22-rdf-syntax-ns#"
   xmlns:svg="http://www.w3.org/2000/svg"
   xmlns="http://www.w3.org/2000/svg"
   xmlns:sodipodi="http://sodipodi.sourceforge.net/DTD/sodipodi-0.dtd"
   xmlns:inkscape="http://www.inkscape.org/namespaces/inkscape"
   width="210mm"
   height="297mm"
   viewBox="0 0 744.09448819 1052.3622047"
   id="svg4143"
   version="1.1"
   inkscape:version="0.91 r13725"
   sodipodi:docname="P.svg">
  <defs
     id="defs4145" />
  <sodipodi:namedview
     id="base"
     pagecolor="#ffffff"
     bordercolor="#666666"
     borderopacity="1.0"
     inkscape:pageopacity="0.0"
     inkscape:pageshadow="2"
     inkscape:zoom="0.35"
     inkscape:cx="-145"
     inkscape:cy="520"
     inkscape:document-units="px"
     inkscape:current-layer="layer1"
     showgrid="false"
     inkscape:window-width="1920"
     inkscape:window-height="1055"
     inkscape:window-x="0"
     inkscape:window-y="25"
     inkscape:window-maximized="1" />
  <metadata
     id="metadata4148">
    <rdf:RDF>
      <cc:Work
         rdf:about="">
        <dc:format>image/svg+xml</dc:format>
        <dc:type
           rdf:resource="http://purl.org/dc/dcmitype/StillImage" />
        <dc:title></dc:title>
      </cc:Work>
    </rdf:RDF>
  </metadata>
  <g
     inkscape:label="Layer 1"
     inkscape:groupmode="layer"
     id="layer1">
    <path
       inkscape:connector-curvature="0"
       style="fill:#000000"
       d="m 489.06155,240.61001 -10.2129,0.89453 c -5.6172,0.49212 -13.5899,1.00185 -17.7149,1.13282 l -7.5,0.23828 -2.5,1.5 -2.5,1.50195 3.75,0.22656 c 4.327,0.2616 7.4721,0.57782 21.25,2.13477 5.5,0.62152 11.125,1.06407 12.5,0.98437 l 2.5,-0.14453 -0.3711,-2.20703 -0.3711,-2.20508 2.8711,-1.10742 2.8711,-1.10547 -2.2851,-0.92187 -2.2871,-0.92188 z m -175.4844,21.61914 0,0.004 c -6.3433,0.002 -12.9817,0.25995 -17.8945,0.77344 l -7.6836,0.80273 0,1.07227 0,1.07226 2.4258,0 2.4258,0 0.7734,1.25 0.7715,1.25 -3.3184,0 -3.3183,0 -3.7305,2.65625 -3.7324,2.6582 -2.711,-1.29492 c -1.4911,-0.71158 -3.6953,-1.60767 -4.8984,-1.99218 -1.2032,-0.38452 -2.1875,-1.2792 -2.1875,-1.98829 l 0,-1.28906 3.043,0 c 1.674,0 4.6094,-0.59529 6.5215,-1.32226 l 3.4765,-1.32227 -1.7519,-1.08203 -1.75,-1.08203 -20.0821,0.6289 c -11.045,0.34605 -22.4592,0.73976 -25.3632,0.87305 l -5.2793,0.24219 -1.5743,1.57226 -1.5722,1.57422 2.8965,0.75782 2.8964,0.75586 -1.6679,1.05859 c -0.9175,0.5816 -3.2752,1.06617 -5.2403,1.07617 l -3.5742,0.0195 0.7852,-3.125 0.7832,-3.125 -2.3301,0 -2.3301,0 -2.1562,2.38281 -2.1563,2.38282 1.9903,7.93359 1.9902,7.93359 0.5781,11.8711 c 0.3185,6.52878 1.0643,16.49075 1.6582,22.13867 l 1.0801,10.26953 1.3672,1.64844 1.3691,1.64844 -1.1211,1.8125 -1.1211,1.81445 2.6075,2.77734 2.6093,2.77735 -1.9668,5.97461 -1.9667,5.97656 1.8632,2.06055 1.8653,2.06054 0.1054,11.08008 c 0.057,6.0946 -0.3115,12.97706 -0.8203,15.29297 l -0.9258,4.21094 1.6172,3.01959 1.6172,3.0215 -1.5879,4.3925 -1.5879,4.3907 1.5371,1.8515 1.5352,1.8516 -1.3633,2.9922 -1.3633,2.9941 1.6641,1.3809 1.666,1.3828 -0.9414,4.1699 -0.9394,4.1719 1.1562,2.0664 1.1563,2.0684 -0.7325,2.3105 -0.7343,2.3125 3.7832,0.7559 3.7812,0.7578 0,1.248 c 0,0.6871 -1.6147,2.086 -3.5898,3.1074 l -3.5918,1.8575 -0.7676,2.8613 c -0.4218,1.5744 -0.7712,3.8619 -0.7832,5.082 l -0.018,2.2188 3.4375,1.3144 3.4375,1.3164 -2.8125,2.291 -2.8125,2.2911 0,4.414 0,4.4121 1.2695,0.7852 1.2715,0.7851 -0.8261,1.336 c -0.4543,0.735 -1.0255,3.6496 -1.2696,6.4765 l -0.4453,5.1407 2.1133,1.5625 2.1133,1.5625 -2.4258,1.9531 -2.4258,1.9531 1.5625,0.6504 1.5625,0.6504 0,3.7285 c 0,2.0504 -0.6027,4.8528 -1.3379,6.2266 l -1.3359,2.498 1.1445,1.4824 1.1445,1.4825 -0.25,6.2519 c -0.1372,3.4386 -0.6652,7.5578 -1.1718,9.1543 l -0.9199,2.9024 1.5371,3.7148 1.539,3.7129 -1.4316,3.1406 -1.4297,3.1406 1.1973,2.2364 1.1972,2.2383 -1.4453,4.7089 -1.4453,4.711 2.1289,1.5566 c 2.573,1.8813 2.7061,3.6218 0.4219,5.5176 l -1.7071,1.416 0.1446,14.2305 0.1445,14.2305 2.0859,2.3183 2.0879,2.3184 -2.4003,2.9511 -2.3985,2.9512 0.012,3.2988 0.014,3.2989 1.9102,3.666 1.9121,3.666 -1.7832,4.459 -1.7813,4.459 -0.1387,26.875 c -0.076,14.7812 -0.2783,28.2648 -0.4492,29.9648 l -0.3105,3.0918 3.6465,0.6582 3.6464,0.6602 0.5196,1.5625 0.5195,1.5625 -3.1543,0 c -1.7355,0 -3.4156,0.4219 -3.7324,0.9375 -0.5635,0.9169 -2.4023,21.0294 -2.5977,28.4101 l -0.1,3.7246 3.75,0.7676 3.75,0.7676 -2.1875,0.8203 c -1.2031,0.4518 -3.0312,1.0861 -4.0625,1.4082 l -1.875,0.5859 0,1.9532 0,1.9551 2.8125,1.1308 2.8125,1.1309 -1.6972,0.078 -1.6973,0.08 0.7168,2.8593 0.7187,2.8614 -1.832,3.5312 c -1.0078,1.9426 -1.834,4.0318 -1.834,4.6406 0,0.6089 1.1543,2.2597 2.5645,3.67 l -0.01,0 2.5625,2.5625 2.125,-0.6035 c 2.973,-0.8465 45.5333,-2.7048 54.6231,-2.3848 4.125,0.1452 13.2235,0.6093 20.2187,1.0312 l 12.7188,0.7676 1.5117,-2.8281 1.5136,-2.8262 -3.1425,-2.5781 -3.1407,-2.5801 -1.6308,-4.6269 -1.6309,-4.625 1.5117,-3.3184 1.5118,-3.3184 -1.5039,-4.1601 -1.5059,-4.1621 1.2441,-1.6446 1.2442,-1.6445 -0.3945,-10.625 -0.3946,-10.625 1.9629,-5.2832 1.9649,-5.2832 -0.7305,-1.1816 -0.7285,-1.1797 1.4004,-9.1621 1.4004,-9.1602 1.7382,-3.3183 1.7364,-3.3184 0,-5.1914 c 0,-2.8551 0.6215,-7.6565 1.3808,-10.6719 l 1.3809,-5.4824 -2.1387,-5.6016 -2.1387,-5.5996 0.8321,-1.3457 0.83,-1.3457 3.0528,0 3.0508,0 0,-3.2539 0,-3.2519 3.289,-5.8536 3.2891,-5.8515 6.8847,-0.1 6.8829,-0.1016 1.3515,3.582 1.3516,3.5762 2.1504,0 c 1.1838,0 2.4612,-0.496 2.8379,-1.1055 0.3767,-0.6096 2.801,-1.5026 5.3867,-1.9824 l 4.7012,-0.8711 2.1562,-1.9336 2.1543,-1.9336 3.1582,2.0684 3.1582,2.0703 10.3125,0.8711 c 5.6712,0.481 13.3458,0.7621 17.0567,0.6211 l 6.748,-0.2559 2.8516,-1.8691 c 3.191,-2.0907 19.723,-6.931 23.6289,-6.918 2.547,0.01 23.5536,-5.4575 29.4648,-7.666 l 3.1914,-1.1914 3.375,-5.2051 c 1.8563,-2.8627 6.4921,-8.7351 10.3028,-13.0488 l 6.9277,-7.8418 11.8125,-7.6543 11.8125,-7.6504 3.5957,-4.5625 c 1.9774,-2.5098 5.3716,-8.0988 7.543,-12.416 l 3.9492,-7.8496 4.5781,-5.0684 c 2.5186,-2.7879 7.027,-6.751 10.0176,-8.8086 l 5.4375,-3.7402 -0.7598,-2.3926 -0.7578,-2.3867 1.9551,-2.793 1.9551,-2.791 0,-5.084 0,-5.082 2.5,-4.9043 2.5,-4.9004 0,-13.334 0,-13.332 1.7519,-1.4551 c 0.9638,-0.7999 2.1138,-2.89 2.5547,-4.6465 l 0.8008,-3.1953 -1.916,-6.5918 -1.916,-6.5918 -1.8887,-1.5664 -1.8867,-1.5664 0,-4.1406 c 0,-5.7915 -1.9918,-10.4588 -6.6387,-15.5547 -4.142,-4.5423 -6.1127,-7.58513 -9.707,-14.99807 l -2.1211,-4.375 -0.8907,-8.75 -0.8925,-8.75 -2.6875,-7.41993 -2.6875,-7.41992 -9.2266,-7.58008 c -5.0743,-4.16906 -13.6479,-11.93945 -19.0527,-17.26757 -5.4049,-5.32813 -10.2638,-9.6875 -10.7969,-9.6875 -0.5331,0 -2.9283,-1.32754 -5.3223,-2.94922 -2.3939,-1.62168 -5.7578,-3.37391 -7.4765,-3.89453 -1.7188,-0.52061 -4.8143,-2.21144 -6.8789,-3.75586 -2.0645,-1.5444 -6.3656,-3.99657 -9.5586,-5.45118 -3.1932,-1.45462 -7.41,-3.99433 -9.3711,-5.64453 -1.9611,-1.65019 -6.6343,-4.81208 -10.3848,-7.02343 l -6.8203,-4.01954 -3.1797,-0.19336 -3.1816,-0.19335 -10.625,-5.22461 c -5.8438,-2.87419 -12.8845,-6.13489 -15.6465,-7.2461 l -5.0215,-2.02344 -11.2285,-0.2539 c -6.1755,-0.1395 -18.7154,-0.11133 -27.8653,0.0606 l -16.6367,0.3125 0.8106,1.31054 0.8086,1.3086 2.0781,-0.20508 c 1.1423,-0.1121 2.813,-0.13769 3.7129,-0.0586 l 1.6347,0.14258 -0.6816,1.10547 -0.6836,1.10547 -12.7773,0.13281 -12.7774,0.13282 2.7754,-1.94336 2.7735,-1.94336 2.4882,0.79101 2.4864,0.78906 0,-1.78906 0,-1.79101 -5.7989,-0.79493 c -3.7312,-0.51099 -9.7796,-0.7653 -16.123,-0.76367 z m -15.6192,3.60742 2.5254,1.35157 c 1.3893,0.74347 2.5254,1.61403 2.5254,1.93359 0,0.31957 -1.3725,0.58203 -3.0508,0.58203 l -3.0507,0 -0.7188,-1.16406 -0.7187,-1.16406 1.2441,-0.76953 1.2441,-0.76954 z m 16.3008,0.11719 c 1.2939,0 2.7001,0.5625 3.125,1.25 l 0.7735,1.25 -3.8985,0 -3.8965,0 0.7715,-1.25 c 0.4249,-0.6875 1.8311,-1.25 3.125,-1.25 z m -69.8515,1.25 3.9882,0.041 3.9883,0.041 -2.9492,2.45899 c -3.3075,2.75548 -4.6695,3.03947 -5.8008,1.20898 l -0.7715,-1.25 0.7715,-1.25 0.7735,-1.25 z m 139.6464,0.82813 c 1.5267,-0.0229 2.8596,0.0349 3.629,0.17968 l 2.7988,0.52735 -0.6856,1.10742 c -0.7306,1.1822 -1.7589,1.1753 -10.5371,-0.0625 l -5.625,-0.79297 5.625,-0.65234 c 1.5469,-0.17947 3.2683,-0.28378 4.7949,-0.30664 z m -147.8457,0.42187 1.8008,0 0,1.25 0,1.25 -2.5722,0 -2.5743,0 0.7715,-1.25 c 0.4249,-0.6875 1.5836,-1.25 2.5742,-1.25 z m 135.5508,0 0,1.25 c 0,0.6875 -0.1406,1.21051 -0.3125,1.16211 -0.1719,-0.0483 -1.4375,-0.57125 -2.8125,-1.16211 l -2.5,-1.07422 2.8125,-0.0879 2.8125,-0.0879 z m -112.8125,0.0176 c 2.9219,-0.0105 5.3125,0.19912 5.3125,0.46484 0,0.26572 -1.6742,0.72893 -3.7207,1.0293 l -3.7207,0.54492 -1.5918,-1.00976 -1.5918,-1.00977 5.3125,-0.0195 z m 140.166,1.23242 2.5743,0 2.5722,0 0,1.25 0,1.25 -1.8008,0 c -0.9906,0 -2.1493,-0.5625 -2.5742,-1.25 l -0.7715,-1.25 z m -177.3535,8.75 3.125,0 3.125,0 0,1.20508 c 0,0.66331 -1.0494,1.76953 -2.334,2.45703 l -2.3359,1.25 -0.7891,-0.79101 c -0.4341,-0.43415 -0.791,-1.5384 -0.791,-2.45508 l 0,-1.66602 z m 347.2071,62.5 c -1.304,0 -3.4594,0.58128 -4.7891,1.29297 l -2.418,1.29492 0,2.80274 0,2.80273 1.9473,2.77735 1.9453,2.77929 1.4922,-0.0703 c 0.8203,-0.038 2.8307,-1.76267 4.4687,-3.83398 l 2.9786,-3.76758 -1.627,-3.03907 -1.627,-3.03906 -2.371,0 z m -223.6329,0.86914 11.1661,1.52735 11.166,1.52539 7.5547,-1.36914 7.5547,-1.3711 5.4296,0.8418 5.4297,0.8418 9.375,4.82226 c 5.1563,2.65222 10.3956,5.6091 11.6407,6.57227 l 2.2636,1.75195 0.9473,3.55664 0.9492,3.55664 3.0371,1.5586 3.0371,1.56054 5.1367,-0.73828 5.1368,-0.73828 4.8632,2.50977 4.8633,2.50976 4.7168,4.875 4.7168,4.87695 4.3711,11.13275 4.3711,11.1348 3.4492,3.7832 c 6.4337,7.057 11.6604,14.4537 14.0801,19.9238 l 2.4121,5.4512 -0.7988,6.0801 -0.7969,6.0801 -2.2246,4.375 c -1.2233,2.4062 -4.9402,7.2426 -8.2598,10.748 l -6.0371,6.3731 -2.2031,6.1347 c -1.212,3.3742 -3.335,7.9961 -4.7188,10.2715 l -2.5156,4.1367 -7.0058,3.0996 -7.0059,3.0977 -7.0566,7.166 -7.0547,7.166 -3.3887,5.7813 -3.3867,5.7812 -5.2656,3.8711 -5.2657,3.8731 -6.5468,0 -6.5469,0 -3.2051,-1.2188 -3.2031,-1.2187 -6.3067,1.1972 c -3.4691,0.6579 -12.1065,1.5038 -19.1933,1.8809 l -12.8848,0.6855 -1.5879,-1.914 c -0.8735,-1.0526 -2.2619,-1.9121 -3.084,-1.9121 -0.822,0 -3.7992,-1.7738 -6.6171,-3.9395 l -5.1231,-3.9375 -0.7715,-4.1055 c -0.4236,-2.2581 -2.4852,-7.8892 -4.582,-12.5136 l -3.8125,-8.4063 1.3301,-2.6113 1.3281,-2.6113 1.0215,-12.5 1.0195,-12.5 -0.2871,-16.875 c -0.158,-9.2813 -0.6446,-27 -1.0801,-39.375 l -0.791,-22.50001 1.6934,-3.125 1.6914,-3.125 6.5176,0 c 3.5851,0 6.5175,-0.33609 6.5175,-0.74609 0,-1.67691 -4.0115,-8.62891 -4.9726,-8.62891 -0.5699,0 -1.5915,-1.5936 -2.2696,-3.53906 l -1.2324,-3.53711 1.4903,-5.86914 1.4902,-5.87109 2.6582,-2.65625 2.6562,-2.65821 z m -12.3242,4.96289 0.834,0.83399 0.834,0.83398 -1.668,0 -1.666,0 0.834,-0.83398 0.832,-0.83399 z m 251.25,44.99998 0,1.668 0,1.666 0.834,-0.834 0.834,-0.832 -0.834,-0.834 -0.834,-0.834 z m -303.75,51.25 0.834,0.834 0.834,0.834 -1.668,0 -1.666,0 0.834,-0.834 0.832,-0.834 z m 17.5,112.5 0.834,0.834 0.834,0.834 -1.668,0 -1.666,0 0.834,-0.834 0.832,-0.834 z m 37.5,35.418 2.5,0 2.5,0 0,1.25 0,1.25 -2.5,0 -2.5,0 0,-1.25 0,-1.25 z m -100.707,12.6425 1.5898,1.3204 1.5899,1.3203 -0.6836,1.1074 c -0.9592,1.552 -3.9718,1.3826 -5,-0.2813 l -0.8574,-1.3906 1.6797,-1.0371 1.6816,-1.0391 z m -0.8008,54.9434 c 0.6659,-0.021 1.502,0.3439 2.6777,1.0879 l 1.795,1.1348 -1.6348,1.9707 c -2.0402,2.458 -3.6983,2.513 -4.6035,0.1543 l -0.6973,-1.8145 0.8106,-1.3105 c 0.4922,-0.7964 0.9864,-1.2018 1.6523,-1.2227 z m 0.2578,11.9961 0.834,0.834 0.834,0.834 -1.668,0 -1.666,0 0.834,-0.834 0.832,-0.834 z m 0,37.7695 0,2.5743 0,2.5742 -1.25,0 -1.25,0 0,-1.8028 c 0,-0.9906 0.5625,-2.1473 1.25,-2.5722 l 1.25,-0.7735 z"
       id="path12368" />
  </g>
</svg>
