<?xml version="1.0" encoding="UTF-8" standalone="no"?>
<!-- Created with Inkscape (http://www.inkscape.org/) -->

<svg
   xmlns:dc="http://purl.org/dc/elements/1.1/"
   xmlns:cc="http://creativecommons.org/ns#"
   xmlns:rdf="http://www.w3.org/1999/02/22-rdf-syntax-ns#"
   xmlns:svg="http://www.w3.org/2000/svg"
   xmlns="http://www.w3.org/2000/svg"
   xmlns:sodipodi="http://sodipodi.sourceforge.net/DTD/sodipodi-0.dtd"
   xmlns:inkscape="http://www.inkscape.org/namespaces/inkscape"
   width="210mm"
   height="297mm"
   viewBox="0 0 744.09448819 1052.3622047"
   id="svg4143"
   version="1.1"
   inkscape:version="0.91 r13725"
   sodipodi:docname="Q.svg">
  <defs
     id="defs4145" />
  <sodipodi:namedview
     id="base"
     pagecolor="#ffffff"
     bordercolor="#666666"
     borderopacity="1.0"
     inkscape:pageopacity="0.0"
     inkscape:pageshadow="2"
     inkscape:zoom="0.35"
     inkscape:cx="-145"
     inkscape:cy="520"
     inkscape:document-units="px"
     inkscape:current-layer="layer1"
     showgrid="false"
     inkscape:window-width="1920"
     inkscape:window-height="1055"
     inkscape:window-x="0"
     inkscape:window-y="25"
     inkscape:window-maximized="1" />
  <metadata
     id="metadata4148">
    <rdf:RDF>
      <cc:Work
         rdf:about="">
        <dc:format>image/svg+xml</dc:format>
        <dc:type
           rdf:resource="http://purl.org/dc/dcmitype/StillImage" />
        <dc:title></dc:title>
      </cc:Work>
    </rdf:RDF>
  </metadata>
  <g
     inkscape:label="Layer 1"
     inkscape:groupmode="layer"
     id="layer1">
    <path
       inkscape:connector-curvature="0"
       style="fill:#000000"
       d="m 107.0648,177.00616 1.5898,1.916 1.5918,1.916 1.2969,-0.4316 c 0.7132,-0.2377 1.5189,-1.0998 1.791,-1.9161 l 0.4941,-1.4843 -3.3808,0 -3.3828,0 z m 137.9511,0 -17.8847,0.037 -17.8848,0.037 2.1875,1.2754 2.1875,1.2734 0,3.4102 0,3.4101 1.9453,2.7774 c 1.0702,1.528 2.5064,2.7773 3.1914,2.7773 0.685,0 3.3144,-1.4062 5.8438,-3.125 2.5294,-1.7187 5.3721,-3.125 6.3164,-3.125 0.9443,0 3.387,-1.4062 5.4297,-3.125 2.0426,-1.7187 4.482,-3.125 5.4199,-3.125 0.938,0 2.0536,-0.5625 2.4785,-1.25 l 0.7695,-1.248 z m -53.8945,22.5 0,1.7695 0,1.7715 1.5625,0.6308 c 0.8594,0.3468 1.9844,0.6746 2.5,0.7286 l 0.9375,0.1 0,-2.5 0,-2.5 -2.5,0 -2.5,0 z m 168.8965,32.498 -0.6934,1.1231 -0.6933,1.123 -9.0684,0.8965 c -10.0533,0.9945 -21.9744,3.3681 -28.0156,5.5781 l -3.9473,1.4453 -0.9394,3.3535 -0.9395,3.3555 -0.5176,-2.1875 c -0.2841,-1.2031 -0.8354,-2.1875 -1.2246,-2.1875 -0.3892,0 -3.4487,1.6875 -6.8007,3.75 -3.352,2.0625 -6.6487,3.75 -7.3243,3.75 -0.6756,0 -3.9671,1.9687 -7.3164,4.375 -3.3493,2.4062 -6.6398,4.375 -7.3105,4.375 -0.6708,0 -2.2899,1.2074 -3.5996,2.6817 -1.3096,1.4741 -4.9862,4.4272 -8.1699,6.5625 -3.1837,2.1351 -10.7103,8.0995 -16.7247,13.2558 -15.8511,13.5894 -29.7065,25.0066 -36.2871,29.9004 l -5.7461,4.2734 -3.6601,5.3184 c -2.0127,2.9254 -5.3408,6.6353 -7.3965,8.2441 l -3.7383,2.9258 -1.084,5.8086 -1.0859,5.8067 -4.1094,7.2988 c -2.2598,4.0144 -6.0275,9.2675 -8.373,11.6738 -2.3455,2.4062 -5.8507,7.1875 -7.791,10.625 l -3.5293,6.25 -0.9356,7.5 c -0.5152,4.125 -1.1329,8.9062 -1.373,10.625 -0.3764,2.6941 -6.6349,22.797 -10.7012,34.375 -1.4957,4.2587 -2.8014,11.6562 -4.6875,26.5664 l -1.3047,10.3164 -2.0586,3.9825 -2.0586,3.9804 1.3946,26.3262 1.3925,26.32807 1.1602,4.375 c 2.0528,7.7411 5.2526,19.1172 8.2637,29.375 1.6145,5.5 3.2967,11.9688 3.7382,14.375 0.4416,2.4062 2.7786,11.4062 5.1934,20 l 4.3906,15.625 2.2442,3.75 c 1.2344,2.0625 2.6592,5.1562 3.166,6.875 1.5998,5.4264 11.8549,27.2102 16.6406,35.3477 2.5291,4.3002 6.2852,9.9889 8.3477,12.6406 8.4886,10.9131 17.1023,20.7617 18.1562,20.7617 0.6181,0 3.8174,2.6234 7.1094,5.8281 3.292,3.2047 7.4824,6.7389 9.3125,7.8555 1.8301,1.1166 7.0084,5.3858 11.5078,9.4863 9.7083,8.8477 15.1256,13.0801 16.7383,13.0801 0.6475,0 3.6507,1.8053 6.6758,4.0117 6.7968,4.9575 28.177,16.5406 32.5605,17.6407 1.7783,0.4464 5.9788,2.7003 9.3359,5.0078 7.7129,5.3014 13.4682,7.1901 25.379,8.332 l 0.01,0 c 5.2117,0.4995 10.039,0.9709 10.7265,1.0449 0.6875,0.074 2.3413,-0.6917 3.6758,-1.7011 l 2.4258,-1.834 6.4492,0 c 3.5473,0 8.081,-0.4957 10.0742,-1.1016 1.9932,-0.6059 6.9122,-2.148 10.9317,-3.4258 l 7.3085,-2.3222 2.3262,2.8711 2.3262,2.873 2.8652,-1.5215 c 1.5763,-0.8365 3.6028,-2.5603 4.5039,-3.8301 0.9011,-1.2698 3.4324,-3.2326 5.625,-4.3632 l 3.9883,-2.0567 8.125,-8.4199 8.125,-8.4219 5.2266,-0.7676 5.2285,-0.7675 2.7187,-3.8164 c 4.0695,-5.7153 18.196,-14.7573 23.2344,-14.8711 l 2.6602,-0.059 1.4883,-1.7949 1.4902,-1.795 3.5781,-0.7851 c 1.9675,-0.4321 4.1962,-1.5331 4.9531,-2.4453 l 1.375,-1.6582 3.0801,1.4257 3.0781,1.4278 1.9395,4.0625 c 1.0672,2.2344 2.3806,4.0625 2.918,4.0625 0.5373,0 3.6363,1.761 6.8867,3.914 l 5.9101,3.9141 -0.6562,1.7109 -0.6563,1.711 1.5235,0.017 1.5234,0.02 -1.875,1.2109 -1.875,1.2129 2.8262,0.018 2.8281,0.019 9.6719,9.3848 c 5.32,5.1612 10.1351,9.9032 10.6992,10.5371 0.5642,0.634 3.246,3.5192 5.9609,6.4121 l 4.9375,5.2598 2.4434,-2.211 c 1.344,-1.2164 2.7676,-3.2333 3.1641,-4.4824 l 0.7207,-2.2715 7.748,-5.5625 c 4.2617,-3.059 9.4006,-7.3069 11.4199,-9.4394 l 3.6719,-3.877 4.7656,0 4.7676,0 0,-2.7305 0,-2.7324 2.7168,-2.8926 2.7188,-2.8945 2.2812,0 2.2832,0 0,-4.375 0,-4.375 2.4551,0 2.457,0 1.293,-2.4179 c 0.7117,-1.3298 1.2949,-4.1004 1.2949,-6.1583 l 0,-3.7421 -2.8203,-2.2774 c -4.2558,-3.4389 -21.1648,-23.8343 -26.3809,-31.8203 -2.5298,-3.8731 -5.8909,-8.3731 -7.4687,-10 -1.5777,-1.6268 -4.4855,-5.209 -6.4629,-7.959 -1.9774,-2.75 -5.2312,-6.772 -7.2305,-8.9375 l -3.6347,-3.9375 0.789,-2.4844 c 0.4339,-1.3671 2.1763,-3.9836 3.8731,-5.8144 l 3.0859,-3.3301 0,-3.5508 0,-3.5527 1.8086,-0.6934 1.8106,-0.6953 2.1015,-4.1269 c 1.1563,-2.2696 6.5305,-10.1757 11.9414,-17.5703 l 9.8379,-13.4454 0,-2.2285 c 0,-1.2258 1.125,-4.4358 2.5,-7.1328 l 2.5,-4.9023 -0.012,-3.7989 c 0,-2.089 0.8097,-6.33 1.8067,-9.4238 0.997,-3.0937 3.0184,-10.4062 4.4902,-16.25 1.4718,-5.8437 3.8485,-13.2996 5.2832,-16.5683 l 2.6094,-5.9414 -2.7578,-13.98047 c -1.517,-7.6886 -3.2466,-14.5765 -3.8438,-15.3067 -0.5972,-0.7301 -1.7555,-3.8593 -2.5742,-6.9531 -0.8187,-3.0937 -2.3364,-6.5725 -3.3711,-7.7324 l -1.8809,-2.1094 1.0137,-1.6406 1.0137,-1.6406 -0.3535,-3.75 -0.3536,-3.752 -1.8632,-1.4414 -1.8614,-1.4433 1.4043,-0.8672 1.4024,-0.8672 -0.5762,-14.9746 -0.5762,-14.9727 -2.5722,-2.7383 -2.5703,-2.7363 0.1894,-2.5176 c 0.1042,-1.3839 -0.9962,-6.4364 -2.4453,-11.2285 -5.1627,-17.0719 -7.7434,-27.5685 -8.5938,-34.9629 -0.4744,-4.125 -1.6857,-9.75 -2.6933,-12.5 -1.0077,-2.75 -2.4868,-7.8125 -3.2871,-11.25 l -1.4571,-6.25 -2.8593,-0.4082 -2.8614,-0.4101 1.5,-1.8086 1.502,-1.8086 -0.8164,-0.8145 -0.8164,-0.8164 -1.6445,2.2481 -1.6446,2.25 -2.7168,-0.8614 -2.7168,-0.8632 0,-1.9239 0,-1.9258 1.7715,0.6797 1.7715,0.6817 0.6582,-1.7168 0.6582,-1.7168 -2.5215,-3.2051 -2.5215,-3.207 -2.8789,0.7226 -2.8808,0.7246 -3.8985,-4.1601 c -2.144,-2.2876 -3.9023,-4.6235 -3.9023,-5.1895 l -0.012,-1.0293 2.1797,0.4199 2.1777,0.42 1.6504,3.4472 1.6523,3.4453 1.2012,-0.7402 1.1992,-0.7422 -3.4668,-6.4707 -3.4687,-6.4707 -5.2481,0 -5.248,0 -1.4551,-1.4531 -1.4551,-1.4531 0.8418,-1.3633 0.8438,-1.3633 2.9121,0.7305 2.9121,0.7304 0.7305,-1.1836 0.7324,-1.1835 -4.4648,-5.7305 -4.4629,-5.7305 -9.3868,-7.0644 c -5.1624,-3.8855 -11.7142,-9.3257 -14.5605,-12.0879 -5.7667,-5.5963 -14.9469,-12.2227 -16.9336,-12.2227 -0.7114,0 -1.8749,-1.0855 -2.5859,-2.414 l -1.293,-2.4161 -2.3574,-0.748 -2.3574,-0.7481 -3.2696,1.4883 c -1.7977,0.8192 -3.2695,1.9619 -3.2695,2.5391 0,0.5771 -0.5625,1.0488 -1.25,1.0488 l -1.25,0 0,-1.7285 0,-1.7285 -2.8125,-0.7539 c -1.5469,-0.4146 -4.3594,-0.7585 -6.25,-0.7715 l -3.4375,-0.019 0,-1.25 0,-1.25 -2.75,0 -2.75,0 1.5,1.5 c 0.825,0.825 1.5,1.99 1.5,2.5879 l 0,1.0859 -2.8125,-0.3984 -2.8125,-0.4004 0.3769,-3.5371 0.375,-3.5391 -2.5976,-0.6777 -2.5977,-0.6797 0.7071,-2.2285 0.707,-2.2325 -11.1387,-2.6132 c -6.1269,-1.4385 -12.8712,-2.6172 -14.9863,-2.6172 l -3.8457,0 -1.1582,2.0683 -1.1563,2.0684 -2.0293,-0.7793 -2.0312,-0.7774 0,-2.6933 0,-2.6914 -1.5625,1.2344 c -0.8594,0.6794 -3.1739,1.5268 -5.1445,1.8828 l -3.584,0.6465 -2.2696,-2.2676 -2.2714,-2.2735 -1.4864,1.7911 -1.4863,1.791 -2.1387,0 c -1.1763,0 -2.5086,0.3718 -2.9609,0.8242 l -0.8223,0.8222 1.4707,1.7715 1.4707,1.7735 -1.7949,1.1347 c -0.987,0.6246 -2.277,1.1433 -2.8672,1.1563 l -1.0722,0.02 0.7832,-3.125 0.7851,-3.125 -2.4394,0 -2.4395,0 -0.7461,2.3516 -0.7461,2.3515 -3.8418,0.7676 -3.8418,0.7696 -1.1211,-0.6934 c -0.6169,-0.3812 -1.123,-1.2886 -1.123,-2.0156 l 0,-1.3223 2.6211,0.6855 2.6211,0.6856 2.0664,-0.8184 2.0664,-0.8183 -3.75,-0.7051 -3.75,-0.7051 0.2988,-2.7656 0.2969,-2.7676 -3.6602,0 -3.6621,0 z m 55,7.5 4.9258,0 4.9258,0 0,1.1055 c 0,0.6072 1.125,1.3983 2.5,1.7578 1.375,0.3597 2.5,1.127 2.5,1.707 l 0,1.0547 -6.9805,0 -6.9805,0 -1.2519,-1.5078 -1.252,-1.5078 0.8067,-1.3047 0.8066,-1.3047 z m -81.5059,0.9414 1.9297,0.7403 c 1.0609,0.4071 1.9278,1.3203 1.9278,2.0293 l 0,1.289 -1.8008,0 c -0.9907,0 -2.1718,-0.5988 -2.625,-1.332 l -0.8242,-1.334 0.6972,-0.6953 0.6953,-0.6973 z m 102.6075,1.4121 1.2714,0.7852 1.2696,0.7851 -0.7188,1.1641 c -0.3955,0.64 -1.2159,1.1621 -1.8222,1.1621 -0.6063,0 -1.4249,-0.5221 -1.8204,-1.1621 l -0.7187,-1.1641 1.2695,-0.7851 1.2696,-0.7852 z m -7.4258,5.1465 c 0.6469,0 1.1758,0.5625 1.1758,1.25 l 0,1.25 -1.9473,0 -1.9492,0 0.7715,-1.25 c 0.4249,-0.6875 1.3022,-1.25 1.9492,-1.25 z m 28.3574,6.3653 0,0 c 0.8462,0.064 2.3291,1.0307 4.6934,2.9688 l 3.75,3.0722 -1.875,-0.1074 c -1.0313,-0.06 -3.1406,-0.7358 -4.6875,-1.502 l -2.8125,-1.3925 0,-1.5782 c 0,-1.0144 0.2735,-1.5124 0.9316,-1.4628 z m -335.582,3.1503 -1.5117,2.8223 -1.5098,2.8242 1.3047,1.5703 1.3047,1.5723 -0.7481,6.3164 -0.748,6.3145 -2.3457,-0.6133 -2.3438,-0.6133 -0.1543,2.334 c -0.1433,2.183 -0.069,23.1916 0.084,23.9141 0.1879,0.8849 17.8535,-9.1509 21.1817,-12.0333 l 3.8085,-3.2968 0.754,-3.2578 0.7558,-3.2579 -5.0898,-5.8808 -5.0899,-5.8809 0,-2.4629 0,-2.4629 -2.1875,-0.7812 c -1.2031,-0.4286 -3.3749,-2.2072 -4.8261,-3.9531 l -2.6387,-3.1739 z m 352.1504,2.5684 0.8339,0.834 0.834,0.832 -0.834,0.834 -0.8339,0.834 0,-1.668 0,-1.666 z m 9.1718,0.9941 c 0.5098,-0.1097 1.5106,0.2999 2.795,1.2715 l 2.4082,1.8223 -2.1133,0.041 c -1.1626,0.022 -2.4843,-0.5598 -2.9375,-1.293 -0.6809,-1.1017 -0.6621,-1.7301 -0.1524,-1.8398 l 0,0 z m 17.0782,17.7559 0.8339,0.834 0.834,0.832 -1.6679,0 -1.6661,0 0.834,-0.832 0.8321,-0.834 z m 10,6.25 0.8339,0.834 0.834,0.832 -0.834,0.834 -0.8339,0.834 0,-1.668 0,-1.666 z m 1.0019,34.832 c 0.7925,-0.097 1.5155,0.2813 1.5645,1.209 l 0.066,1.25 -2.084,0.4317 -2.086,0.4336 0.5606,-1.6836 c 0.3244,-0.9732 1.186,-1.5441 1.9785,-1.6407 z m -146.6269,2.5098 22.5,0.2168 22.5,0.2168 8.75,2.7012 c 4.8125,1.4856 9.3125,3.1135 10,3.6172 0.6875,0.5035 4.9062,2.2486 9.375,3.8789 4.4687,1.6304 10.0329,4.2527 12.3632,5.8281 l 4.2364,2.8652 2.2363,0 c 1.23,0 2.9802,0.7031 3.8887,1.5625 0.9085,0.8594 3.9668,3.1344 6.7968,5.0547 2.8299,1.9205 9.63,7.8268 15.1114,13.125 l 9.9668,9.6328 5.4824,8.75 c 3.0153,4.8125 6.7622,9.7744 8.3262,11.0274 l 2.8418,2.2793 0,1.7734 0,1.7734 2.5,1.5606 2.5,1.5625 0,2.375 c 0,1.3062 1.088,4.6864 2.416,7.5117 1.328,2.8253 2.7446,6.6836 3.1484,8.5742 l 0.7344,3.4375 3.1016,0 3.0996,0 0,2.3653 0,2.3671 -2.0059,0.7696 -2.0078,0.7715 0.8262,3.4257 0.8261,3.4258 1.8809,1.4414 1.8809,1.4434 -1.3497,0.834 -1.3515,0.8359 0.8457,8.3477 0.8457,8.3476 2.4219,4.668 2.4218,4.6699 0.6114,5.3301 c 0.3363,2.9322 0.9059,6.1757 1.2656,7.207 0.3595,1.0312 0.5577,6.2375 0.4414,11.5703 l -0.2109,9.6973 1.955,0.75 c 2.759,1.0587 2.4246,2.5677 -0.7519,3.3984 l -2.7051,0.7071 1.5703,1.8925 1.5723,1.8946 -2.1035,8.38467 c -1.1567,4.6121 -2.9972,9.7504 -4.0899,11.418 l -1.9863,3.0313 1.4746,2.3613 c 1.9155,3.0673 1.8585,3.6445 -0.3574,3.6445 l -1.8301,0 -1.4375,2.6856 -1.4375,2.6836 4.0723,-0.8145 4.0722,-0.8144 1.8477,1.5351 1.8476,1.5332 -5.9882,1.2832 -5.9883,1.2832 -0.5176,1.5625 -0.5176,1.5625 1.8262,0 c 1.0043,0 2.525,0.8438 3.3809,1.875 l 1.5566,1.875 -1.0898,0.098 c -2.8463,0.2496 -5.7468,1.068 -9.211,2.6015 l -3.7832,1.6739 0.6817,1.7773 0.6816,1.7754 -1.6055,1.0195 -1.6054,1.0176 2.1875,0.019 2.1875,0.018 0,1.25 0,1.25 -2.8789,0 -2.879,0 -4.0488,4.1778 -4.0508,4.1777 1.9883,1.6504 1.9883,1.6484 -1.6211,1.0293 c -0.892,0.5657 -2.8275,1.0358 -4.3008,1.0488 l -2.6797,0.018 -0.7187,1.875 -0.7188,1.875 -3.0761,0 -3.0743,0 -1.7812,1.7813 -1.7813,1.7812 -5.2695,-0.707 -5.2695,-0.707 -2.0352,-3.2618 c -1.1193,-1.7937 -2.1887,-3.4775 -2.375,-3.7422 -0.1863,-0.2646 -1.6208,-0.6141 -3.1894,-0.7773 -1.5687,-0.1632 -3.3071,-0.37 -3.8633,-0.457 l -1.0117,-0.1602 0.8066,-1.3047 0.8067,-1.3047 -1.5118,-1.8203 -1.5097,-1.8203 -3.0567,0 -3.0566,0 0.793,-2.5 0.7949,-2.5 -2.6289,0 -2.6289,0 -3.3926,-2.123 c -1.8664,-1.1683 -4.3728,-3.1074 -5.5684,-4.3086 l -2.1738,-2.1836 0.7461,-1.9414 0.7441,-1.9434 -1.5351,0 -1.5371,0 1.6562,-1.9961 1.6563,-1.9961 -2.1289,-1.1894 -2.1289,-1.1914 0,-1.5606 0,-1.5586 -4.7403,-4.6289 -4.7383,-4.6289 -1.9414,0 -1.9414,0 -1.9707,2.1875 c -1.0842,1.2031 -2.3614,3.7494 -2.8379,5.6582 l -0.8671,3.4707 -14.5137,13.7168 c -7.9827,7.5443 -15.0891,13.7185 -15.793,13.7305 -0.7038,0.01 -4.0937,2.2509 -7.5312,4.9863 -3.4375,2.7354 -7.0066,4.9753 -7.9317,4.9883 -0.9252,0.01 -3.3158,1.1759 -5.3125,2.5977 l -3.6308,2.5839 0,1.6231 c 0,0.8918 1.1473,3.0777 2.5488,4.8594 l 2.5488,3.2402 9.9512,6.4648 c 5.4735,3.5564 9.9512,6.9689 9.9512,7.5821 0,0.6133 1.3452,1.728 2.9882,2.4765 l 2.9864,1.3594 1.3379,2.9375 1.3379,2.9356 4.8847,2.4921 c 2.6867,1.3707 7.9131,5.2399 11.6133,8.5977 3.7002,3.3576 9.3801,7.6436 12.6211,9.5254 l 5.8926,3.4219 2.5449,4.1172 c 1.3997,2.2647 2.543,4.4717 2.543,4.9043 0,0.4324 -2.073,3.0813 -4.6075,5.8867 l -4.6074,5.1015 -6.0117,3.045 -6.0098,3.0468 0.3067,1.4121 0.3047,1.4121 -3.9161,1.0684 -3.9179,1.0664 -1.9258,2.9395 -1.9238,2.9375 -5.4082,1.3554 c -2.9742,0.7456 -8.9142,2.0301 -13.2012,2.8555 l -7.7949,1.5 -5.3301,-0.8574 c -2.9317,-0.4725 -5.8945,-0.8215 -6.582,-0.7735 -0.6875,0.047 -3.5,0.3673 -6.25,0.711 l -5,0.623 -1.9864,-1.2187 c -1.0926,-0.6704 -4.7489,-1.8332 -8.125,-2.584 -8.7899,-1.9549 -41.6389,-17.0651 -55.5136,-25.5352 l -6.877,-4.1972 -12.1855,-12.5586 -12.1875,-12.5586 0,-1.8418 0,-1.8418 -6.2911,-7.2871 -6.2929,-7.2891 -4.9414,-10 -4.9414,-10 -3.1407,-15.625 c -1.7269,-8.5937 -4.0508,-18.7187 -5.164,-22.5 -2.1998,-7.4724 -2.7658,-12.2702 -6.1699,-52.20307 l -2.2657,-26.5781 1.3907,-14.0469 c 0.7647,-7.7258 2.238,-17.7031 3.2753,-22.1719 2.1465,-9.247 6.4737,-21.7157 10.5293,-30.3437 1.5199,-3.2332 2.7855,-6.5882 2.8145,-7.4551 0.1611,-4.8468 10.0178,-16.4615 30.1035,-35.4727 l 8.0781,-7.6464 2.5938,-0.8243 c 1.4261,-0.4526 3.5977,-1.9316 4.8262,-3.289 l 2.2343,-2.4688 2.3496,0 c 2.2237,0 8.3753,-3.2744 9.793,-5.2129 0.3603,-0.4926 3.4541,-1.5738 6.875,-2.4023 3.421,-0.8285 7.9301,-2.2374 10.0215,-3.1309 2.0913,-0.8935 6.5913,-2.2902 10,-3.1035 3.4086,-0.8131 9.0098,-2.7906 12.4473,-4.3945 3.4375,-1.6039 9.0625,-3.5308 12.5,-4.2813 l 6.25,-1.3633 3.125,-2.0918 3.125,-2.0937 z m -257.9551,4.1738 -1.4297,2.6739 -1.4297,2.6718 -1.9394,-0.7441 -1.9375,-0.7422 -1.7149,1.4238 -1.7168,1.4239 0,3.5976 0,3.5977 -1,0 c -0.55,0 -1.675,-0.675 -2.5,-1.5 l -1.5,-1.5 0,9.875 0,9.875 1.3828,-1.3848 c 0.7613,-0.7613 1.7713,-3.2644 2.2442,-5.5625 l 0.8593,-4.1777 3.6954,0 3.6933,0 0.625,-4.375 0.625,-4.375 2.6211,0.3574 2.6211,0.3594 1.5313,-1.8457 1.5312,-1.8457 -0.4023,-3.5137 -0.4024,-3.5117 -2.7285,-0.3887 -2.7285,-0.3887 z m -15.168,54.8809 0.051,12.3223 0,0 0.051,12.3242 2.3945,-4.375 c 1.3167,-2.4062 3.3245,-7.0985 4.461,-10.4258 l 2.0664,-6.0488 -1.0762,-1.0489 c -0.5913,-0.5772 -2.6211,-1.4315 -4.5117,-1.8984 l -3.4375,-0.8496 z m 443.7481,143.87297 1.25,0.7715 c 0.6875,0.4249 1.25,1.3023 1.25,1.9492 0,0.647 -0.5625,1.1758 -1.25,1.1758 l -1.25,0 0,-1.9472 0,-1.9493 z m -85,31.3965 c -0.6875,0 -1.25,0.5625 -1.25,1.25 0,0.6875 0.5625,1.25 1.25,1.25 0.6875,0 1.25,-0.5625 1.25,-1.25 0,-0.6875 -0.5625,-1.25 -1.25,-1.25 z m 67.8398,19.6035 2.0176,1.2715 c 1.1097,0.7 1.9071,1.774 1.7715,2.3867 -0.1355,0.6124 -0.9895,1.2712 -1.8985,1.4629 l -1.6523,0.3477 -2.4766,-1.8203 -2.4765,-1.8223 2.3574,-0.9141 2.3574,-0.9121 z m -418.3105,25.3067 -1.8184,0.3574 c -0.9996,0.1973 -2.44,1.3757 -3.2012,2.6191 l -1.3847,2.2618 2.4277,1.8007 c 2.8307,2.1018 3.2211,2.146 5.6406,0.6153 l 1.8164,-1.1504 -1.7402,-3.252 -1.7402,-3.2519 z m 218.5136,1.3398 c -2.6538,0 -11.7929,6.9506 -11.7929,8.9688 l 0,1.0312 3.6601,0 3.6602,0 2.5898,-3.2929 c 2.4387,-3.1005 3.4508,-6.7071 1.8828,-6.7071 z m 174.4571,13.75 2.3476,0 2.3477,0 1.4629,1.7637 1.4648,1.7637 -0.998,0.582 c -1.3088,0.7622 -6.625,-1.6842 -6.625,-3.0488 l 0,-1.0606 z m -238.918,178.752 0.8633,2.8125 c 0.4743,1.5469 1.4238,3.5156 2.1113,4.375 0.6876,0.8594 2.0058,1.5625 2.9297,1.5625 l 1.6797,0 -2.5801,-4.375 c -1.4198,-2.4063 -3.1271,-4.375 -3.793,-4.375 l -1.2109,0 z m 37.668,8.332 -0.8321,0.834 -0.834,0.834 1.6661,0 1.6679,0 -0.834,-0.834 -0.8339,-0.834 z m -183.75,36.668 0,1.25 0,1.248 4.6875,-0.018 4.6875,-0.019 -1.875,-1.2129 c -1.0313,-0.6665 -3.1406,-1.2174 -4.6875,-1.2305 l -2.8125,-0.017 z"
       id="path11064" />
  </g>
</svg>
