<?xml version="1.0" encoding="UTF-8" standalone="no"?>
<!-- Created with Inkscape (http://www.inkscape.org/) -->

<svg
   xmlns:dc="http://purl.org/dc/elements/1.1/"
   xmlns:cc="http://creativecommons.org/ns#"
   xmlns:rdf="http://www.w3.org/1999/02/22-rdf-syntax-ns#"
   xmlns:svg="http://www.w3.org/2000/svg"
   xmlns="http://www.w3.org/2000/svg"
   xmlns:sodipodi="http://sodipodi.sourceforge.net/DTD/sodipodi-0.dtd"
   xmlns:inkscape="http://www.inkscape.org/namespaces/inkscape"
   width="210mm"
   height="297mm"
   viewBox="0 0 744.09448819 1052.3622047"
   id="svg4143"
   version="1.1"
   inkscape:version="0.91 r13725"
   sodipodi:docname="R.svg">
  <defs
     id="defs4145" />
  <sodipodi:namedview
     id="base"
     pagecolor="#ffffff"
     bordercolor="#666666"
     borderopacity="1.0"
     inkscape:pageopacity="0.0"
     inkscape:pageshadow="2"
     inkscape:zoom="0.35"
     inkscape:cx="-145"
     inkscape:cy="520"
     inkscape:document-units="px"
     inkscape:current-layer="layer1"
     showgrid="false"
     inkscape:window-width="1920"
     inkscape:window-height="1055"
     inkscape:window-x="0"
     inkscape:window-y="25"
     inkscape:window-maximized="1" />
  <metadata
     id="metadata4148">
    <rdf:RDF>
      <cc:Work
         rdf:about="">
        <dc:format>image/svg+xml</dc:format>
        <dc:type
           rdf:resource="http://purl.org/dc/dcmitype/StillImage" />
        <dc:title></dc:title>
      </cc:Work>
    </rdf:RDF>
  </metadata>
  <g
     inkscape:label="Layer 1"
     inkscape:groupmode="layer"
     id="layer1">
    <path
       inkscape:connector-curvature="0"
       style="fill:#000000"
       d="m 208.45617,240.75942 -0.98047,1.5625 c -0.5392,0.8594 -0.81909,2.5469 -0.62109,3.75 l 0.36133,2.1875 -2.16211,0 -2.16211,0 0.79883,0.7969 0.79687,0.7988 -3.08984,3.6719 c -1.6995,2.0198 -3.08984,4.4038 -3.08985,5.2968 1e-5,0.893 -1.35807,4.693 -3.01757,8.4453 l -3.01758,6.8223 -0.69531,5.5215 c -1.44,11.4281 -2.64454,44.0041 -2.64454,71.5039 l 0,28.4844 1.82618,1.1269 1.82422,1.127 -2.25586,2.4922 -2.25586,2.4941 0.76953,3.5215 c 0.4224,1.9369 0.98886,5.209 1.25976,7.2715 0.271,2.0625 0.88318,4.7344 1.35938,5.9375 l 0.86523,2.1875 -1.15234,0 -1.15039,0 -0.082,22.1875 -0.0801,22.1875 0.78711,1.25 c 0.4326,0.6875 0.86017,4.9062 0.95117,9.375 0.091,4.4687 0.57643,23.3125 1.07813,41.875 1.1591,42.87607 1.24147,77.88637 0.20507,87.49997 -0.4447,4.125 -1.03901,21.8437 -1.32031,39.375 -0.2813,17.5312 -0.85037,39.6502 -1.26367,49.1543 l -0.75,17.2793 -1.24414,2.3261 c -1.451,2.7113 -1.61346,8.7417 -0.28906,10.7696 l 0.91796,1.4062 7.5,-1.3437 7.5,-1.3457 22.5,0 c 12.375,7e-4 25.3125,0.3916 28.75,0.8691 3.4375,0.4774 10.77188,1.1898 16.29688,1.5821 l 10.04492,0.7128 2.26758,-2.5058 2.26758,-2.5059 -2.75,-11.0117 c -1.5124,-6.0571 -3.56078,-14.3887 -4.55078,-18.5137 l -1.79883,-7.5 -0.81641,-19.375 c -0.7142,-16.9633 -0.69198,-32.6555 0.0664,-47.5 l 0.22265,-4.375 1.74805,-1.3691 1.7461,-1.3672 -0.79688,-3.1758 -0.79687,-3.1777 1.99609,-1.6563 1.99609,-1.6562 -0.75,-5.4844 -0.75195,-5.4844 0.75195,-3.0019 0.75391,-3.002 1.42773,-0.014 c 0.7848,0 3.55155,-0.5973 6.14845,-1.3184 l 4.7207,-1.3105 4.28125,-3.7579 4.2793,-3.7578 4.74805,1.3145 4.74804,1.3164 3.45704,-3.6914 3.45507,-3.6895 8.41993,0.7481 c 4.6308,0.4115 9.36553,1.2331 10.52343,1.8261 l 2.10547,1.0782 5.47461,0 5.47266,0 3.67187,3.8613 c 2.0193,2.1239 5.19038,4.6552 7.04688,5.625 l 3.375,1.7637 4.4375,0 4.43554,0 2.5,2.5 c 1.375,1.375 2.5,2.9717 2.5,3.5488 0,0.5771 1.53651,1.7489 3.41211,2.6035 l 3.41016,1.5528 -2.16016,1.2089 -2.16211,1.209 0,1.8496 0,1.8477 6.89063,6.4121 6.88867,6.4121 3.60547,5.7402 c 1.98342,3.1573 5.46394,7.7091 7.73438,10.1153 l 4.12893,4.375 11.1406,19.375 c 6.1275,10.6563 11.7818,20.1566 12.5644,21.1133 2.5082,3.0659 12.9514,22.6422 23.9141,44.8242 l 10.6563,21.5605 1.5976,0 1.5996,0 8.0293,-7.5 c 4.4164,-4.125 8.3719,-7.5 8.791,-7.5 0.8071,0 12.5837,-9.3105 23.836,-18.8437 3.7114,-3.1445 9.2792,-7.1934 12.373,-8.9981 3.0937,-1.8045 7.2392,-4.6021 9.211,-6.2187 l 3.5839,-2.9395 -3.2031,-6.3222 -3.2031,-6.3223 -14.7578,-16.1426 c -16.1724,-17.6915 -19.3495,-21.7522 -30.4375,-38.9004 l -7.4766,-11.5625 -3.1699,0 -3.1719,0 1.2071,-2.1562 1.205,-2.1543 -1.1875,-2.2207 -1.1875,-2.2188 -1.9648,0 -1.9649,0 0.7247,-1.8906 0.7265,-1.8887 -2.4297,-4.0488 c -1.3363,-2.2264 -3.2825,-5.9257 -4.3242,-8.2207 -1.0418,-2.295 -3.5899,-6.3133 -5.6621,-8.9297 l -3.7676,-4.7578 0,-1.9082 c 0,-1.0505 -2.5398,-5.6981 -5.6445,-10.3281 l -5.6445,-8.418 0.7851,-4.1934 0.7871,-4.1933 1.4219,-0.90627 c 1.7709,-1.1275 2.2683,-1.2175 7.6973,-1.4101 l 4.4043,-0.1563 5.4726,-5.0449 5.4727,-5.0449 0.7344,-2.9278 0.7343,-2.9296 5.584,-1.4063 5.584,-1.4062 2.2441,-3.2715 c 1.2335,-1.8001 3.3672,-4.5022 4.7422,-6.0039 1.375,-1.5018 4.0259,-4.9486 5.8907,-7.6602 1.8646,-2.7117 5.1054,-7.3528 7.2031,-10.3125 4.3557,-6.1459 10.3043,-17.5815 13.2539,-25.4824 l 2.0097,-5.3848 0.6641,-14.6875 0.6621,-14.6875 -2.9336,0 -2.9316,0 2.7793,-1.9472 2.7773,-1.9454 -0.07,-16.4921 -0.07,-16.4903 -1.5059,-4.375 -1.5058,-4.375 -2.7988,0.3906 -2.7989,0.3907 0,-1.5039 c 0,-0.8267 0.957,-2.2031 2.127,-3.0586 l 2.1269,-1.5547 -2.1289,-6.707 c -4.0653,-12.8087 -6.829,-22.9892 -7.7617,-28.5821 l -0.9375,-5.623 -6.9453,-7.1797 -6.9434,-7.1797 -2.6797,-5.3223 -2.6777,-5.3203 -3.6523,-0.791 -3.6524,-0.7891 2.1875,-0.1484 c 2.327,-0.1572 2.7265,-1.225 1.2305,-3.2891 -1.5287,-2.1094 -13.128,-11.362 -17.793,-14.1933 l -4.375,-2.6563 -3.4941,0 -3.4942,0 -3.0234,-3.0234 -3.0234,-3.0234 -7.6875,-0.037 -7.6875,-0.035 -2.045,-1.7344 c -1.1246,-0.9535 -3.8352,-2.4416 -6.0234,-3.3066 l -3.9785,-1.5723 0.6504,-1.6953 0.6504,-1.6953 -4.7969,-2.0215 -4.79688,-2.0234 -2.37695,1.4648 -2.3789,1.4629 -1.0918,-1.9512 -1.09375,-1.9531 -1.8418,0.707 -1.8418,0.7071 0,-2.0098 0,-2.0078 -1.25,0 -1.25,0 0,1.791 0,1.7891 -2.58984,0.8222 -2.58984,0.8223 -3.34766,-0.834 c -1.841,-0.4594 -4.30671,-1.6999 -5.47851,-2.7559 l -2.13086,-1.9199 -4.10547,1.4317 -4.10742,1.4316 -0.42969,-1.2891 -0.42969,-1.289 -2.51172,0 -2.51367,0 -0.63281,2.4199 -0.63282,2.4199 -4.875,-0.068 -4.875,-0.066 0,-1 c 0,-0.5499 2.07845,-2.0314 4.61915,-3.2911 2.5407,-1.2598 4.81995,-2.9394 5.06445,-3.7324 l 0.44531,-1.4414 -4.75195,-0.7344 -4.75196,-0.7343 -20.625,0.5019 c -11.34379,0.2755 -21.0469,0.5513 -21.5625,0.6133 -0.51559,0.062 -0.7969,0.727 -0.625,1.4785 l 0.3125,1.3672 -1.875,0.9395 c -1.03129,0.5167 -3.22535,1.6461 -4.87695,2.5117 l -3.0039,1.5742 -1.1211,-2.0039 -1.12305,-2.0039 -1.84374,0 -1.84376,0 -1.1875,-3.125 -1.1875,-3.125 -4.71874,-0.211 c -2.59511,-0.1151 -7.53127,-0.4687 -10.96877,-0.7871 -3.43749,-0.3185 -12.15629,-0.6465 -19.375,-0.7285 l -13.125,-0.1484 0.36719,2.1875 0.36719,2.1875 -6.92969,0 -6.92969,0 0,1.9785 0,1.9785 -1.5625,-0.5215 -1.5625,-0.5215 0.40626,-3.9609 0.4082,-3.959 -2.02344,-0.7773 -2.02344,-0.7774 -0.80078,0.8008 -0.80078,0.8008 1.48047,1.4785 c 0.8136,0.8135 1.47851,2.0882 1.47851,2.832 l 0,1.3516 -2.99218,0.2481 -2.99219,0.248 -1.62109,-1.9512 -1.61914,-1.9511 1.41406,-2.2637 1.41406,-2.2637 -0.75976,-0.7598 c -0.41791,-0.4177 -3.44612,-0.7597 -6.72852,-0.7597 l -5.9668,0 z m 0.95508,4.9922 1.01172,0.02 c 0.5562,0.01 1.85348,0.564 2.88476,1.2305 l 1.875,1.2129 -2.11328,0.017 c -1.1625,0.011 -2.46181,-0.5429 -2.88672,-1.2304 l -0.77148,-1.25 z m 50.07422,2.5 c 0.6469,0 1.52238,0.5625 1.94726,1.25 l 0.77344,1.25 -1.94922,0 -1.94922,0 0,-1.25 c 1e-5,-0.6875 0.53084,-1.25 1.17774,-1.25 z m -10.39258,0.039 c 0.7752,-0.022 2.10895,0.8048 2.96484,1.836 1.97601,2.3811 1.16984,2.3966 -1.94726,0.039 l -2.42774,-1.8339 1.41016,-0.041 z m 27.33984,0.01 1.5625,2.0899 c 0.8593,1.1497 1.56251,2.5456 1.5625,3.1016 0,1.7397 -3.36602,1.104 -5.07812,-0.959 l -1.63477,-1.9707 1.79493,-1.1309 1.79296,-1.1309 z m 95.62697,1.2032 0,1.25 c 0,0.6875 0.52888,1.25 1.17578,1.25 0.6469,0 1.52432,-0.5625 1.94922,-1.25 l 0.77148,-1.25 -1.94922,0 -1.94726,0 z m -39.00391,0.8867 1.98047,0.7598 1.98047,0.7597 -0.73828,1.9219 -0.73633,1.9219 3.88281,0 3.88281,0 0,-1.25 c 0,-0.6875 0.6026,-1.25 1.3379,-1.25 l 1.33593,0 -0.39843,2.8125 -0.4004,2.8125 -3.23046,0.375 -3.23243,0.3769 -1.34961,-1.6269 -1.3496,-1.625 -3.63868,0.1054 c -2.0018,0.058 -4.21281,0.4585 -4.91211,0.8907 l -1.27148,0.7851 -4.68359,-1.2929 -4.6836,-1.293 -1.87304,0.7187 -1.875,0.7188 -1.14649,-0.709 -1.14648,-0.709 1.57226,-1.5527 c 0.8646,-0.854 2.56169,-1.9266 3.77149,-2.3848 l 2.19922,-0.834 6.46875,1.2285 6.4707,1.2266 0.89062,-1.4433 0.89258,-1.4434 z m -50.99806,0.1973 3.4375,0.3964 3.43751,0.3946 0,2.3965 0,2.3945 -1.33984,0.4473 -1.34181,0.4472 -2.0957,-2.3164 c -1.1529,-1.274 -2.09765,-2.731 -2.09766,-3.2383 l 0,-0.9218 z m 103.92384,0.125 -0.78515,1.2695 -0.78516,1.2715 1.94922,0 c 2.1957,0 2.51896,-0.7508 0.78516,-1.8223 l -1.16407,-0.7187 z m -122.91016,50.0566 4.18164,0.7969 c 4.8553,0.9255 6.10601,1.7897 3.78711,2.6152 -0.9038,0.3217 -2.15515,1.9315 -2.78125,3.5781 l -1.13868,2.9942 -3.0664,0 -3.06641,0 -1.97656,-1.9766 -1.97461,-1.9746 0.76172,-1.2344 0.76367,-1.2343 1.625,0.623 1.625,0.623 0.62891,-2.4043 0.63086,-2.4062 z m 10.41015,6.1934 1.16407,0.7187 c 0.64,0.3955 1.1621,0.9683 1.1621,1.2715 0,0.3032 -0.87546,0.5508 -1.94726,0.5508 l -1.94922,0 0.78516,-1.2696 0.78515,-1.2714 z m -25.79883,1.291 1.875,0 0,1.1758 c 0,0.6468 -0.48261,1.476 -1.07421,1.8417 l -1.07618,0.6641 -0.79882,-0.7988 c -1.4077,-1.4076 -0.85877,-2.8828 1.07421,-2.8828 z m 51.87501,0 c 0.6875,0 1.25,0.5625 1.25,1.25 0,0.6875 -0.5625,1.25 -1.25,1.25 -0.6875,0 -1.25,-0.5625 -1.25,-1.25 0,-0.6875 0.5625,-1.25 1.25,-1.25 z m 57.5,1.25 c 0.6875,0 1.25,0.5625 1.25,1.25 0,0.6875 -0.5625,1.25 -1.25,1.25 -0.6875,0 -1.25,-0.5625 -1.25,-1.25 0,-0.6875 0.5625,-1.25 1.25,-1.25 z m -121.25001,4.6933 2.1875,1.6758 c 1.20312,0.9208 2.42249,1.8329 2.70899,2.0274 0.2865,0.1946 -0.6979,0.3535 -2.1875,0.3535 l -2.70899,0 0,-2.0274 0,-2.0293 z m 36.375,1.5567 4.15626,0 c 2.2862,0 5.91408,0.3516 8.0625,0.7812 l 3.90625,0.7813 0,1.6445 c 0,3.3667 -5.39724,4.6721 -11.89844,2.877 l -4.52149,-1.25 -1.52148,1.2636 -1.51953,1.2617 -4.33203,-0.1035 c -2.3823,-0.057 -5.53266,0.3049 -7.00196,0.8047 l -2.67187,0.9082 -0.90821,-1.4668 -0.90624,-1.4687 1.07812,-1.043 c 0.5932,-0.5742 3.18742,-1.4325 5.76562,-1.9062 l 4.6875,-0.8614 0,1.4746 0,1.4727 2.8125,-0.8731 c 1.5468,-0.4802 3.2627,-1.6426 3.8125,-2.5839 l 1,-1.711 0,0 z m -26.29492,2.5 1.21094,0 1.20898,0 0,1.875 c 0,1.0313 -0.22003,1.875 -0.49023,1.875 -0.2702,0 -0.81514,-0.8437 -1.21094,-1.875 l -0.71875,-1.875 z m 212.27341,0 1.0118,0.02 c 0.5562,0.01 1.8535,0.564 2.8847,1.2305 l 1.875,1.2129 -2.1133,0.017 c -1.1625,0.011 -2.4618,-0.5429 -2.8867,-1.2304 l -0.7715,-1.25 z m -150.95504,1.25 -0.77344,1.25 c -0.9125,1.4763 -2.81438,1.4763 -6.25,0 l -2.5,-1.0742 4.76172,-0.088 4.76172,-0.088 z m 87.41406,6.25 2.33008,0 2.33008,0 -0.0566,1.5625 c -0.0319,0.8594 0.0303,3.0205 0.13867,4.8008 l 0.19531,3.2363 2.89844,1.3203 2.89844,1.3203 3.33789,-0.6367 3.33587,-0.6387 0.752,1.9629 0.7519,1.9609 6.4512,3.711 c 3.5476,2.0405 7.945,5.2988 9.7734,7.2422 1.8283,1.9435 4.9243,5.2656 6.8789,7.3828 l 3.5547,3.8496 3.3848,8.2422 c 1.8617,4.5332 4.2699,12.066 5.3535,16.7383 l 1.9707,8.4941 -0.1719,11.2891 c -0.094,6.2085 -0.024,11.8496 0.1543,12.5371 0.1783,0.6875 -0.092,2.1945 -0.5996,3.3476 -0.5109,1.1532 -0.736,3.3942 -0.5097,4.9805 l 0.4101,2.8848 2.7969,0.017 2.7969,0.02 0.3281,1.25 0.3281,1.25 -3.8906,1.1484 -3.8906,1.1465 -1.9258,3.8535 c -2.576,5.1545 -3.8576,8.6444 -3.6055,9.8164 0.1142,0.5306 -1.0633,1.4642 -2.6152,2.0742 -1.5519,0.6101 -7.041,5.1591 -12.1973,10.1094 l -9.375,9 -5.9375,3.0098 c -3.26551,1.655 -5.93744,3.5174 -5.93744,4.1386 l 0,1.129 -3.73437,0.8203 c -2.05463,0.4512 -4.05701,1.3401 -4.44922,1.9746 l -0.71289,1.1543 -4.36328,0 -4.36328,0 -3.96485,2.0508 -3.96484,2.0488 -8.98047,-0.2363 -8.98242,-0.2383 -10.42969,2.5175 c -5.7363,1.3844 -15.27672,3.0669 -21.20312,3.7383 l -10.77539,1.2207 -2.58399,-0.6757 -2.58203,-0.6758 -7.58398,2.625 c -4.1716,1.4437 -8.91381,2.625 -10.53711,2.625 l -2.95117,0 -3.60547,-2.7325 c -1.9833,-1.5028 -3.84512,-2.9137 -4.13672,-3.1347 -0.29171,-0.221 -0.73328,-6.4427 -0.98048,-13.8281 -0.8904,-26.6067 -0.86512,-28.1813 1.51759,-94.0547 0.2114,-5.8437 0.66265,-11.4687 1.00195,-12.5 0.3393,-1.0312 1.26449,-6.6562 2.05469,-12.5 l 1.43554,-10.625 -0.25585,-7.2422 -0.25782,-7.2422 1.13282,-1.0977 1.13085,-1.0976 9.375,-0.6016 c 5.15631,-0.3305 16.4063,-0.5218 25,-0.4258 8.5938,0.097 20.34102,0.034 26.10352,-0.1406 l 10.47656,-0.3183 14.2168,1.9668 14.21484,1.9648 1.3711,-0.8457 1.36914,-0.8477 -0.71875,-3.5976 -0.72071,-3.5996 z m 14.9375,0.834 0.83399,0.832 0.83399,0.834 -1.66798,0 -1.66601,0 0.83398,-0.834 0.83203,-0.832 z m 41.40428,2.916 1.0957,0 0,1.875 0,1.875 1.25,0 c 0.6875,0 1.25,0.5625 1.25,1.25 l 0,1.25 -3.0508,0 -3.0507,0 -0.8067,-1.3047 -0.8066,-1.3047 1.5117,-1.8203 c 0.8308,-1.0012 2.0041,-1.8203 2.6074,-1.8203 z m -190.11132,0.791 1.45703,1.459 c 1.88861,1.8886 0.8345,2.9428 -1.5,1.5 l -1.80078,-1.1133 0.92188,-0.9238 0.92187,-0.9219 z m 168.15622,1.709 1.8008,0 0,1.25 0,1.25 -2.5722,0 -2.5743,0 0.7715,-1.25 c 0.4249,-0.6875 1.5835,-1.25 2.5742,-1.25 z m -143.19919,8.334 0.83399,0.832 0.83399,0.834 -1.66798,0 -1.66601,0 0.83398,-0.834 0.83203,-0.832 z m 168.74999,0.3867 0,1.9199 0,1.9219 -3.2051,1.2187 c -1.7635,0.6704 -4.2265,1.2188 -5.4726,1.2188 l -2.2656,0 -1.543,-1.8594 -1.5449,-1.8613 1.7031,-0.5352 c 0.9368,-0.2945 4.0938,-0.8702 7.0156,-1.2793 l 5.3125,-0.7441 z m 44.8535,20.0293 1.25,0 c 0.6875,0 1.5966,0.5625 2.0215,1.25 l 0.7735,1.25 -1.25,0 c -0.6875,0 -1.5986,-0.5625 -2.0235,-1.25 l -0.7715,-1.25 z m -17.3535,4.584 0.834,0.832 0.834,0.834 -1.668,0 -1.666,0 0.834,-0.834 0.832,-0.832 z m -243.05077,0.416 c 0.3032,0 0.55078,0.5625 0.55078,1.25 1e-5,0.6875 -0.59416,1.25 -1.32226,1.25 l -1.32422,0 0.77148,-1.25 c 0.42491,-0.6875 1.02112,-1.25 1.32422,-1.25 z m -8.82422,1.6386 2.8125,1.8243 2.8125,1.8242 0,1.6269 c 0,0.8949 0.66346,1.8475 1.47266,2.1172 l 1.4707,0.4922 -0.91992,1.4883 -0.91992,1.4883 -2.11328,-0.049 -2.11524,-0.047 -1.71874,-1.9434 -1.72071,-1.9414 -2.96679,0.5664 -2.96876,0.5684 0,-1.7032 0,-1.7011 1.875,0 1.875,0 0,-1.7715 0,-1.7695 1.5625,-0.5352 1.5625,-0.5352 z m -11.875,0.4454 0.83399,0.832 0.83398,0.834 -0.83398,0.834 -0.83399,0.832 0,-1.666 0,-1.666 z m -9.95703,7.457 1.33789,1.3379 1.3379,1.3398 -1.27344,0.7852 -1.27149,0.7871 -0.83593,-1.3535 -0.8379,-1.3535 0.77149,-0.7715 0.77148,-0.7715 z m 259.79692,3.8691 1.955,1.9551 c 1.0754,1.0754 1.9551,2.2177 1.9551,2.5371 0,0.3193 -0.8022,0.8891 -1.7832,1.2656 l -1.7832,0.6836 -1.539,-1.8535 -1.5372,-1.8535 1.3653,-1.3672 1.3672,-1.3672 z m -235.46489,0.3789 10,0.1895 10,0.1914 -5,0.5078 -5,0.5078 -0.9746,1.7383 -0.97461,1.7383 -3.30079,-1.5039 -3.30078,-1.5039 -0.51562,1.5488 c -0.6412,1.9234 -2.38023,1.9996 -3.51953,0.1562 l -0.85938,-1.3886 1.72266,-1.0918 1.72265,-1.0899 z m 255.84379,9.6797 1.3906,1.3906 1.3906,1.3907 -1.3027,1.3027 -1.3027,1.3027 -1.5079,-1.8164 -1.5078,-1.8164 1.42,-0.8769 1.4199,-0.877 z m 23.6406,3.7227 0.7988,0.8008 0.8008,0.7988 -1.1777,1.1777 -1.1758,1.1778 -1.8301,-1.1309 -1.8301,-1.1309 2.2071,-0.8476 2.207,-0.8457 z m -266.35939,1.9414 c 3.4375,0.052 6.25,0.4367 6.25,0.8555 0,0.4186 -0.67498,1.4367 -1.5,2.2617 -0.82498,0.825 -1.80939,1.4781 -2.1875,1.4511 -1.3422,-0.096 -8.8125,-3.589 -8.8125,-4.121 0,-0.2977 2.8125,-0.4983 6.25,-0.4473 z m 214.99999,0.4512 0.834,0.832 0.834,0.834 -1.668,0 -1.666,0 0.834,-0.834 0.832,-0.832 z m -218.74999,9.916 1.5,1.5 1.5,1.5 -3,0 -3,0 1.5,-1.5 1.5,-1.5 z m 6.33008,0.5 1.83594,0 1.83398,0 0,1.1758 c 0,0.6468 -0.50364,1.4887 -1.11914,1.8691 l -1.11718,0.6914 -0.7168,-1.8691 -0.7168,-1.8672 z m -18.83008,3.334 0.83399,0.832 0.83398,0.834 -1.66797,0 -1.66601,0 0.83398,-0.834 0.83203,-0.832 z m -7.5,4.166 1.98047,0 1.97852,0 -0.49414,1.4843 c -0.2721,0.8164 -1.16397,1.7065 -1.98047,1.9786 l -1.48438,0.4961 0,-1.9805 0,-1.9785 z m 17.5,1.25 c 0.6875,0 1.25,0.5625 1.25,1.25 0,0.6875 -0.5625,1.25 -1.25,1.25 -0.6875,0 -1.25,-0.5625 -1.25,-1.25 0,-0.6875 0.5625,-1.25 1.25,-1.25 z m -3.75,3.75 c 0.6875,0 1.25,0.5625 1.25,1.25 0,0.6875 -0.5625,1.25 -1.25,1.25 -0.6875,0 -1.25,-0.5625 -1.25,-1.25 0,-0.6875 0.5625,-1.25 1.25,-1.25 z m 6.39844,1.25 3.20508,0 3.20313,0 -1.55665,1.875 c -1.6268,1.9601 -4.01815,2.4389 -5.38085,1.0761 l -0.80079,-0.8007 0.66602,-1.0743 0.66406,-1.0761 z m 14.85156,2.5 1.94922,0 1.94922,0 -0.77344,1.25 c -0.42489,0.6875 -1.30036,1.25 -1.94726,1.25 -0.6469,0 -1.17773,-0.5625 -1.17774,-1.25 l 0,-1.25 z m 7.35352,0 2.57422,0 c 1.4156,0 2.57226,0.222 2.57226,0.4922 0,0.2702 -0.82478,0.8081 -1.83398,1.1953 l -1.83594,0.7031 -0.73828,-1.1953 -0.73828,-1.1953 z m 189.99997,0 1.9493,0 1.9472,0 0,1.25 c 0,0.6875 -0.5289,1.25 -1.1758,1.25 -0.6469,0 -1.5243,-0.5625 -1.9492,-1.25 l -0.7715,-1.25 z m 31.3965,10 c 0.6875,0 1.25,0.5625 1.25,1.25 0,0.6875 -0.5625,1.25 -1.25,1.25 -0.6875,0 -1.25,-0.5625 -1.25,-1.25 0,-0.6875 0.5625,-1.25 1.25,-1.25 z m -6.6406,1.4531 c 0.5891,-0.035 1.0434,0.032 1.2187,0.207 0.3509,0.3508 -0.5023,1.2471 -1.8945,1.9922 l -2.5312,1.3535 -0.7188,-1.1621 -0.7187,-1.164 2.6113,-0.8282 c 0.7184,-0.228 1.4441,-0.3637 2.0332,-0.3984 z m -247.10939,1.0469 2.5,0 0,2.5 0,2.5 -0.9375,-0.047 c -1.0492,-0.053 -4.06249,-3.2247 -4.0625,-4.2754 0,-0.3728 1.125,-0.6777 2.5,-0.6777 z m 281.94919,0 c 0.3032,0 0.5508,0.5625 0.5508,1.25 0,0.6875 -0.5942,1.25 -1.3222,1.25 l -1.3243,0 0.7715,-1.25 c 0.4249,-0.6875 1.021,-1.25 1.3242,-1.25 z m -259.29293,2.2383 0,0 0.75585,0.7539 0.75586,0.7539 -2.39648,-0.098 -2.39649,-0.1 1.64063,-0.6563 1.64063,-0.6562 z m 219.84373,2.7617 1.875,0 1.875,0 0,1.25 0,1.25 -1.875,0 -1.875,0 0,-1.25 0,-1.25 z m 10,1.4121 c 0.5664,0 1.1329,0.086 1.5625,0.2597 l 1.5625,0.6309 -3.125,0 -3.125,0 1.5625,-0.6309 c 0.4297,-0.1733 0.9961,-0.2597 1.5625,-0.2597 z m 9.0489,3.2969 1.0175,1.6484 1.0196,1.6484 -2.5528,1.7871 -2.5547,1.7891 -1.1367,-1.7285 -1.1387,-1.7285 -1.6757,2.1875 c -1.9065,2.4875 -3.1058,2.6751 -5.7774,0.9082 l -1.875,-1.2383 3.086,-2.3906 3.0839,-2.3887 1.9473,1.043 1.9492,1.041 2.3028,-1.2891 2.3047,-1.289 z m -32.7989,2.791 1.875,0 1.875,0 0,1.25 0,1.25 -1.875,0 -1.875,0 0,-1.25 0,-1.25 z m -214.99999,3.334 0.83399,0.832 0.83398,0.834 -0.83398,0.834 -0.83399,0.832 0,-1.666 0,-1.666 z m -12.67187,4.125 0.73242,1.1835 0.73047,1.1856 -1.18359,0.7305 -1.1836,0.7324 -0.73242,-1.1836 -0.73047,-1.1856 1.1836,-0.7304 1.18359,-0.7324 z m -4.82813,2.125 0.83399,0.832 0.83398,0.834 -1.66797,0 -1.66601,0 0.83398,-0.834 0.83203,-0.832 z m 25,5.416 2.5,0 2.5,0 0,1.1758 c 1e-5,0.6468 -0.59968,1.5481 -1.33398,2.0019 l -1.33594,0.8242 0.67188,1.75 0.66992,1.7481 -1.70117,0 -1.70313,0 -0.71875,1.875 c -0.3957,1.0312 -1.26057,1.875 -1.92187,1.875 l -1.20313,0 -0.39843,-2.8125 -0.4004,-2.8125 -3.125,-0.1348 c -1.71879,-0.075 -3.6875,-0.2245 -4.375,-0.332 l -1.25,-0.1973 1.875,-1.2109 1.875,-1.2129 4.6875,-0.018 4.6875,-0.02 0,-1.25 0,-1.25 z m 16.10352,7.5 1.94922,0 1.94726,0 0,1.25 c 1e-5,0.6875 -0.52878,1.25 -1.17578,1.25 -0.6469,0 -1.52432,-0.5625 -1.94922,-1.25 l -0.77148,-1.25 z m 188.89647,3.7285 2.4688,1.543 2.4687,1.541 1.4356,-1.4336 1.4316,-1.4336 1.7227,0.6601 1.7226,0.6621 0,1.7422 0,1.7403 -2.4551,0 -2.455,0 -1.3399,2.5 -1.3379,2.5 -1.83,0 c -2.2202,0 -2.3604,-1.4716 -0.3321,-3.5 l 1.5,-1.5 -1.5,-1.5 c -0.825,-0.825 -1.5,-1.954 -1.5,-2.5098 l 0,-1.0117 z m -213.21678,2.9238 c 0.1929,0.01 0.32623,0.039 0.38086,0.094 0.2185,0.2185 -0.33928,1.0078 -1.23828,1.7539 l -1.63282,1.3574 -1.62695,-1.0059 -1.62695,-1.0039 2.86328,-0.75 c 1.18125,-0.3086 2.30214,-0.4736 2.88086,-0.4453 z m 6.96679,2.9317 0.83399,0.832 0.83398,0.834 -1.66797,0 -1.66601,0 0.83398,-0.834 0.83203,-0.832 z m 200.07419,2.916 c 0.6469,0 1.1758,0.5625 1.1758,1.25 l 0,1.25 -1.9472,0 -1.9493,0 0.7715,-1.25 c 0.4249,-0.6875 1.3023,-1.25 1.9492,-1.25 z m -16.541,3.4687 1.6719,1.0469 c 0.9193,0.5759 2.6894,0.8787 3.9336,0.6738 l 2.2617,-0.3711 1.8008,1.4942 1.7988,1.4941 0,2.3457 0,2.3477 -1.1035,0 c -0.6073,0 -1.3982,1.125 -1.7578,2.5 l -0.6543,2.5 -1.293,0 c -0.7113,0 -1.6327,-0.5514 -2.0488,-1.2246 l -0.7578,-1.2246 1.4375,-2.6836 1.4375,-2.6856 -1.6914,-1.1074 -1.6934,-1.1074 -2.1855,0.5254 -2.1856,0.5234 -0.7675,-1.2422 -0.7676,-1.2422 1.2812,-1.2812 1.2832,-1.2813 z m 22.8653,6.5313 -0.7735,1.25 c -0.929,1.5031 -0.799,1.5031 -3.125,0 l -1.875,-1.2129 2.8867,-0.018 2.8868,-0.02 z m -26.9922,0.045 c 1.0089,0.028 2.0223,0.4811 2.5566,1.3457 l 0.8574,1.3887 -1.7226,1.0918 c -2.2586,1.4298 -3.2821,1.4008 -4.2227,-0.1211 l -0.7715,-1.25 0.7715,-1.25 c 0.5165,-0.8357 1.5224,-1.2328 2.5313,-1.2051 z m 34.2636,7.5644 0.7403,1.1954 0.7383,1.1953 -0.7735,1.25 c -0.4249,0.6875 -1.5816,1.25 -2.5722,1.25 l -1.8028,0 0,-1.7403 0,-1.7422 1.836,-0.705 1.8339,-0.7032 z m -211.16989,6.1407 c 0.6875,0 1.25,0.5625 1.25,1.25 0,0.6875 -0.5625,1.25 -1.25,1.25 -0.6875,0 -1.25,-0.5625 -1.25,-1.25 0,-0.6875 0.5625,-1.25 1.25,-1.25 z m -20.3789,3.75 1.8125,0 -0.41797,2.1738 -0.41797,2.1719 -1.92187,0.3711 c -1.0569,0.2035 -2.31101,-0.02 -2.78711,-0.4961 l -0.86524,-0.8653 1.39063,-1.6777 c 0.7657,-0.9226 2.20953,-1.6777 3.20703,-1.6777 z m 165.26563,3.6738 3.18164,0.7988 c 1.75038,0.4393 3.18165,1.1892 3.18164,1.666 l 0,0.8672 -4.375,0.1231 -4.375,0.123 0,-1.0527 c 10e-6,-0.5789 0.53749,-1.3837 1.19336,-1.7891 l 1.19336,-0.7363 z m -178.48829,2.5762 1.25,0 -0.77344,1.25 c -0.42489,0.6875 -1.33398,1.25 -2.02148,1.25 l -1.25,0 0.77148,-1.25 c 0.4249,-0.6875 1.33594,-1.25 2.02344,-1.25 z m 6.72656,1.1308 3.125,0.8399 c 3.36672,0.9047 7.5,4.6113 7.5,6.7265 l 0,1.30277 -2.875,0 -2.875,0 -1.35742,1.3593 -1.35937,1.3594 -0.95703,-1.5488 -0.95703,-1.54877 2.0664,-1.5118 c 2.6643,-1.9482 2.62076,-3.8867 -0.12305,-5.6074 l -2.1875,-1.3711 z m 208.12499,0.1192 1.8028,0 c 0.9906,0 2.1473,0.5625 2.5722,1.25 l 0.7735,1.25 -2.5743,0 -2.5742,0 0,-1.25 0,-1.25 z m -3.6133,0.2441 -0.3808,1.961 c -0.5554,2.8622 -2.4891,3.0361 -5.7676,0.5156 l -2.8887,-2.2207 4.5196,-0.1289 4.5175,-0.127 z m -36.38668,1.8399 0.83399,0.832 0.83398,0.834 -1.66797,0 -1.66601,0 0.83398,-0.834 0.83203,-0.832 z m -107.66601,1.332 4.77148,1.9004 4.76953,1.8984 0.4043,2.01757 0.4043,2.0176 -1.6543,-0.1875 c -0.9098,-0.103 -3.1596,-0.4177 -5,-0.6992 l -3.3457,-0.5118 -1.53907,-1.85347 -1.53711,-1.8535 1.36328,-1.3652 1.36329,-1.3633 z m -37.42774,1.3594 4.50976,1.4882 4.50977,1.4883 0.65625,1.70707 c 0.3605,0.9394 0.46131,2.1492 0.22461,2.6875 l -0.43165,0.9785 -7.40234,-0.625 -7.40234,-0.625 -0.48633,-1.4825 -0.48828,-1.4824 3.15429,-2.06827 3.15626,-2.0664 z m 121.67579,0.1601 2.40234,0.7637 2.4043,0.7637 -0.47852,1.455 -0.48047,1.45707 -2.40234,0.2109 c -1.3212,0.1156 -3.80863,-0.2289 -5.52735,-0.7637 l -3.125,-0.97067 3.60352,-1.457 3.60352,-1.459 z m 23.27148,3.81447 1.32422,0 c 0.72808,0 1.32226,0.5625 1.32226,1.25 10e-6,0.6875 -0.24761,1.25 -0.55078,1.25 -0.30318,0 -0.89931,-0.5625 -1.32422,-1.25 l -0.77148,-1.25 z m -159.85353,8.334 0.83399,0.832 0.83398,0.834 -1.66797,0 -1.66601,0 0.83398,-0.834 0.83203,-0.832 z m 137.50001,0 0.83399,0.832 0.83398,0.834 -1.66797,0 -1.66601,0 0.83398,-0.834 0.83203,-0.832 z m -146.50001,2.6679 2.69532,0.8555 2.69726,0.8555 -0.40039,2.082 -0.40039,2.0801 -2.57031,0.1308 -2.57031,0.1309 -3.03711,-2.5254 -3.03907,-2.5254 2.03516,0.7344 2.03516,0.7344 1.27734,-1.2774 1.27734,-1.2754 z m 210.24999,3.8242 2.7149,0.3985 2.7148,0.4004 0.5156,1.5625 0.5137,1.5625 -3.2285,0 -3.2305,0 0,-1.9629 0,-1.961 z m -179.99999,0.025 1.25,0.7735 c 0.6875,0.4249 1.25,1.021 1.25,1.3242 0,0.3032 -0.5625,0.5508 -1.25,0.5508 -0.6875,0 -1.25,-0.5962 -1.25,-1.3242 l 0,-1.3243 z m 118.75001,1.3985 1.94922,0 1.94922,0 -0.77344,1.25 c -0.42489,0.6875 -1.30036,1.25 -1.94726,1.25 -0.6469,0 -1.17773,-0.5625 -1.17774,-1.25 l 0,-1.25 z m 16.94922,1.25 c 0.30317,0 0.55079,0.5625 0.55078,1.25 0,0.6875 -0.59418,1.25 -1.32226,1.25 l -1.32422,0 0.77148,-1.25 c 0.4249,-0.6875 1.02104,-1.25 1.32422,-1.25 z m -143.19923,2.4121 2.41797,1.2949 c 1.3298,0.7118 3.4392,1.311 4.6875,1.332 l 2.26953,0.039 2.2461,3.0859 2.24609,3.086 -1.30859,0 c -0.7196,0 -1.30859,-0.4372 -1.3086,-0.9707 0,-0.5334 -2.52608,-2.0802 -5.61328,-3.4375 -3.0873,-1.3571 -5.615,-2.9094 -5.625,-3.4493 l -0.0117,-0.9804 z m -6.01562,5.0879 2.75781,0 2.75781,0 1.5,1.5 c 0.82501,0.825 1.5,1.8908 1.5,2.3672 1e-5,1.228 -2.75589,2.0046 -5.18359,1.4609 l -2.05859,-0.4629 -0.63672,-2.4316 -0.63672,-2.4336 z m -5.23438,3.7519 -0.0176,0.9356 0,0.01 c -0.0105,0.5156 -0.45333,1.6186 -0.98243,2.4512 l -0.96093,1.5137 -3.70703,-2.4414 -3.70704,-2.4434 4.6875,-0.012 4.6875,-0.014 z m 156.25001,2.4981 5,0 5,0 0,1.1172 c 0,0.614 -0.88907,1.4577 -1.97656,1.875 -1.08747,0.4173 -2.3531,0.6932 -2.8125,0.6132 -3.34395,-0.5805 -5.21093,-1.4575 -5.21094,-2.4472 l 0,-1.1582 z m -16.43945,3.2851 1.65821,1.3633 c 0.91178,0.7493 3.01869,1.5571 4.68359,1.7949 l 3.02734,0.4317 0.51563,1.5625 0.51367,1.5625 -4.24023,0 -4.24024,0 -2.08984,-1.5625 -2.0918,-1.5625 1.13281,-1.7949 1.13086,-1.795 z m -16.06055,0.3164 1.25,0.7735 c 0.6875,0.4249 1.25,1.021 1.25,1.3242 0,0.3032 -0.5625,0.5508 -1.25,0.5508 -0.6875,0 -1.25,-0.5962 -1.25,-1.3242 l 0,-1.3243 z m 28.60352,0.1485 1.32422,0 c 0.72808,0 1.32226,0.5625 1.32226,1.25 0,0.6875 -0.24761,1.25 -0.55078,1.25 -0.30318,0 -0.89931,-0.5625 -1.32422,-1.25 l -0.77148,-1.25 z m -151.04298,2.1445 0.75,0.748 0.75,0.75 -0.74023,1.9278 c -0.8162,2.1269 -2.79052,2.5486 -3.85742,0.8222 l -0.6836,-1.1093 1.89063,-1.5703 1.89062,-1.5684 z m -10.06055,1.6055 1.875,0 1.875,0 0,1.25 0,1.25 -1.875,0 -1.875,0 0,-1.25 0,-1.25 z m 177.64845,1.25 1.25,0 -0.77344,1.25 c -0.42489,0.6875 -1.33398,1.25 -2.02148,1.25 l -1.25,0 0.77148,-1.25 c 0.4249,-0.6875 1.33594,-1.25 2.02344,-1.25 z m -7.93164,0.027 1.57031,1.8926 c 2.12999,2.5665 0.93864,3.443 -1.8789,1.3828 l -2.28516,-1.6719 1.29688,-0.8007 1.29687,-0.8028 z m -131.51759,7.4727 c 0.3032,0 0.55078,0.5625 0.55078,1.25 1e-5,0.6875 -0.59416,1.25 -1.32226,1.25 l -1.32422,0 0.77148,-1.25 c 0.42491,-0.6875 1.02112,-1.25 1.32422,-1.25 z m 165.55077,5.0781 0,1.2109 0,1.211 -1.875,0 c -1.0312,0 -1.875,-0.2202 -1.875,-0.4903 0,-0.2703 0.8438,-0.8151 1.875,-1.2109 l 1.875,-0.7207 z m 36.25,10.7559 0.834,0.832 0.834,0.834 -1.668,0 -1.666,0 0.834,-0.834 0.832,-0.832 z m -42.5,5 0.834,0.832 0.834,0.834 -0.834,0.834 -0.834,0.832 0,-1.666 0,-1.666 z m -3.0136,4.1425 0,0 5.9238,2.0196 5.9258,2.0175 -1.4472,1.7442 c -1.5263,1.839 -1.8649,1.8647 -8.377,0.6406 l -4.1113,-0.7734 0,-0.9649 c 0,-0.5301 0.4704,-1.7992 1.0429,-2.8222 l 1.0411,-1.8614 z m -11.9864,0.1016 1.875,0.7207 c 1.0313,0.3958 1.875,0.9406 1.875,1.2109 0,0.2701 -0.8437,0.4903 -1.875,0.4903 l -1.875,0 0,-1.211 0,-1.2109 z m -177.49999,5.7559 0.83399,0.832 0.83398,0.834 -1.66797,0 -1.66601,0 0.83398,-0.834 0.83203,-0.832 z m -14.9414,0.062 -0.78711,2.0527 c -0.433,1.1285 -1.2903,2.0508 -1.9043,2.0508 -1.6074,0 -1.38199,-0.7234 0.78711,-2.5235 l 1.9043,-1.58 z m 9.5332,6.1933 3.00196,3.0039 3.0039,3.002 0.41797,-2.1739 0.41797,-2.1718 1.30469,0 1.30468,0 -0.6289,2.4023 -0.62891,2.4043 3.21289,-0.2168 3.21289,-0.2148 0.86914,4.0976 0.86914,4.0996 -2.03711,1 -2.03711,0.9981 -4.16992,-2.0547 -4.17187,-2.0566 0.12305,-1.168 0.12304,-1.166 -6.88867,-0.375 -6.89063,-0.375 0,-1.1875 0,-1.1875 2.14063,0 2.14063,0 2.65624,-3.3301 2.6543,-3.3301 z m 217.28319,3.5352 1.875,0.4394 c 1.0313,0.2412 3.4079,0.5529 5.2793,0.6934 1.8714,0.1406 3.7556,0.6093 4.1875,1.041 l 0.7852,0.7852 -0.8242,1.332 -0.8243,1.332 -2.1132,-0.125 c -1.1626,-0.068 -3.5215,-0.516 -5.2403,-0.9941 l -3.125,-0.8692 0,-1.8183 0,-1.8164 z m -228.12499,1.7265 0,1.9493 0,1.9492 -1.25,0 c -0.6875,0 -1.25,-0.5288 -1.25,-1.1758 0,-0.6469 0.5625,-1.5243 1.25,-1.9492 l 1.25,-0.7735 z m 41.61915,2.7286 1.08593,0.6718 1.08594,0.6699 -0.71875,1.1641 -0.71875,1.1641 -2.73828,-0.039 -2.74024,-0.041 2.37305,-1.7949 2.3711,-1.7949 z m 5.95507,1.1699 1.32422,0 -0.77344,1.25 c -0.42489,0.6875 -1.01906,1.25 -1.32226,1.25 -0.3032,0 -0.55273,-0.5625 -0.55274,-1.25 1e-5,-0.6875 0.59622,-1.25 1.32422,-1.25 z m -17.57422,1.3281 1.875,0.7187 c 1.03121,0.3958 1.87501,1.222 1.875,1.836 l 0,1.1172 -1.875,0 -1.875,0 0,-1.836 0,-1.8359 z m 207.49999,6.1719 1.0977,0 c 0.6033,0 1.7554,0.7934 2.5605,1.7636 l 0,-0.01 1.4649,1.7636 -0.9981,0.5684 c -0.549,0.3171 -1.7031,0.3197 -2.5625,0.012 l -1.5625,-0.5605 0,-1.7696 0,-1.7675 z m -3.6758,6.25 1.3243,0 -0.7735,1.25 c -0.4249,0.6875 -1.0191,1.25 -1.3222,1.25 -0.3032,0 -0.5528,-0.5625 -0.5528,-1.25 0,-0.6875 0.5961,-1.25 1.3242,-1.25 z m -209.90426,3.7871 c 0.11164,-0.01 0.21665,0 0.31445,0.016 0.46945,0.075 0.76563,0.3943 0.76562,0.9785 1e-5,0.5677 -1.30137,2.2552 -2.89257,3.75 -3.1428,2.9525 -5.26783,3.4306 -6.48633,1.459 l -0.7793,-1.2578 2.26758,-0.8594 c 1.2467,-0.4722 3.00947,-1.5924 3.91797,-2.4902 1.01762,-1.0058 2.11104,-1.5575 2.89258,-1.5957 z m 203.58006,1.2129 2.6348,0 2.6328,0 -0.7363,1.9238 -0.7383,1.9219 2.791,1.123 2.791,1.1231 -2.8242,0.078 -2.8242,0.08 -2.1406,2.5 c -2.387,2.7877 -3.5672,3.1007 -4.711,1.25 l -0.7715,-1.25 1.3243,0 1.3222,0 0,-1.875 0,-1.875 -3.125,0 -3.125,0 0,-1.25 c 0,-1.3004 1.589,-1.6932 5.3125,-1.3145 l 2.1875,0.2227 0,-1.3301 0,-1.3281 z m -205.14647,3.75 1.32422,0 c 0.7281,0 1.32226,0.5625 1.32226,1.25 1e-5,0.6875 -0.24758,1.25 -0.55078,1.25 -0.3031,0 -0.89932,-0.5625 -1.32422,-1.25 l -0.77148,-1.25 z m 26.39648,8.6015 1.25,0.7735 c 0.6875,0.4249 1.25,1.021 1.25,1.3242 0,0.3032 -0.5625,0.5508 -1.25,0.5508 -0.6875,0 -1.25,-0.5962 -1.25,-1.3242 l 0,-1.3243 z m 189.99999,2.6485 c 0.6875,0 1.25,0.5625 1.25,1.25 0,0.6875 -0.5625,1.25 -1.25,1.25 -0.6875,0 -1.25,-0.5625 -1.25,-1.25 0,-0.6875 0.5625,-1.25 1.25,-1.25 z m -232.64647,1.25 1.63672,0.088 c 0.8999,0.048 2.75976,0.5712 4.13476,1.1621 l 2.5,1.0742 -3.36328,0.088 -3.36328,0.088 -0.77344,-1.25 -0.77148,-1.25 z m 107.57814,107.6035 -1.83985,0.707 -1.8418,0.707 0,1.5879 c 10e-6,0.8737 -0.84378,2.2887 -1.875,3.1446 l -1.875,1.5547 0,2.2441 0,2.2422 1.5625,0.6308 c 2.66522,1.0755 6.23898,0.8856 13.01368,-0.6894 l 6.52343,-1.5156 0.65039,-2.4922 c 0.35831,-1.3703 0.42002,-2.7226 0.13672,-3.0059 -0.2833,-0.2833 -3.65087,-1.5496 -7.48437,-2.8144 l -6.9707,-2.3008 z m 41.10937,0.666 -2.00781,1.2656 c -1.1046,0.6968 -2.19944,1.8367 -2.43164,2.5332 l -0.42188,1.2676 2.84766,1.3711 c 1.5663,0.7548 3.55075,1.411 4.41015,1.457 l 1.5625,0.086 0,-2.3477 0,-2.3476 -1.97851,-1.6426 -1.98047,-1.6426 z m -18.70508,1.7305 -2.41797,1.2929 c -1.3298,0.7116 -2.41797,1.7986 -2.41797,2.4141 l 0,1.1191 2.8125,0.5411 c 1.5468,0.2978 3.93751,0.5989 5.3125,0.6699 l 2.5,0.1289 2.8125,-2.3457 c 1.5468,-1.2904 2.81251,-2.6786 2.8125,-3.084 0,-0.4054 -2.56813,-0.7363 -5.70703,-0.7363 l -5.70703,0 z m -160.96485,7.2929 -2.14453,0.4141 c -1.1792,0.2286 -2.34751,1.0258 -2.59571,1.7715 l -0.45117,1.3574 2.84766,1.2832 2.84765,1.2852 1.5625,-0.586 c 2.0631,-0.7744 1.97595,-2.1705 -0.25195,-4.0195 l -1.81445,-1.5059 z m 13.6289,2.8594 c -0.79295,0 -1.58595,0.077 -2.1875,0.2344 l -2.1875,0.5723 4.375,0 4.375,0 -2.1875,-0.5723 c -0.60159,-0.1573 -1.39453,-0.2344 -2.1875,-0.2344 z m 39.7168,1.1719 c -0.63456,0 -0.9668,0.3908 -0.9668,1.1738 l 0,1.25 2.8125,-0.019 2.8125,-0.018 -1.875,-1.2129 c -1.21175,-0.783 -2.14864,-1.1738 -2.7832,-1.1738 z"
       id="path11032" />
  </g>
</svg>
