<?xml version="1.0" encoding="UTF-8" standalone="no"?>
<!-- Created with Inkscape (http://www.inkscape.org/) -->

<svg
   xmlns:dc="http://purl.org/dc/elements/1.1/"
   xmlns:cc="http://creativecommons.org/ns#"
   xmlns:rdf="http://www.w3.org/1999/02/22-rdf-syntax-ns#"
   xmlns:svg="http://www.w3.org/2000/svg"
   xmlns="http://www.w3.org/2000/svg"
   xmlns:sodipodi="http://sodipodi.sourceforge.net/DTD/sodipodi-0.dtd"
   xmlns:inkscape="http://www.inkscape.org/namespaces/inkscape"
   width="210mm"
   height="297mm"
   viewBox="0 0 744.09448819 1052.3622047"
   id="svg4143"
   version="1.1"
   inkscape:version="0.91 r13725"
   sodipodi:docname="S.svg">
  <defs
     id="defs4145" />
  <sodipodi:namedview
     id="base"
     pagecolor="#ffffff"
     bordercolor="#666666"
     borderopacity="1.0"
     inkscape:pageopacity="0.0"
     inkscape:pageshadow="2"
     inkscape:zoom="0.35"
     inkscape:cx="-145"
     inkscape:cy="520"
     inkscape:document-units="px"
     inkscape:current-layer="layer1"
     showgrid="false"
     inkscape:window-width="1920"
     inkscape:window-height="1055"
     inkscape:window-x="0"
     inkscape:window-y="25"
     inkscape:window-maximized="1" />
  <metadata
     id="metadata4148">
    <rdf:RDF>
      <cc:Work
         rdf:about="">
        <dc:format>image/svg+xml</dc:format>
        <dc:type
           rdf:resource="http://purl.org/dc/dcmitype/StillImage" />
        <dc:title></dc:title>
      </cc:Work>
    </rdf:RDF>
  </metadata>
  <g
     inkscape:label="Layer 1"
     inkscape:groupmode="layer"
     id="layer1">
    <path
       inkscape:connector-curvature="0"
       style="fill:#000000"
       d="m 177.50988,274.50506 -0.8281,2.6074 -0.8281,2.6094 0.8105,4.3164 c 0.4454,2.3743 1.9272,6.9252 3.293,10.1113 l 2.4824,5.793 1.8106,-1.8125 1.8105,-1.8106 0.7696,-5.6035 0.7675,-5.6035 -2.2988,-5.3027 -2.2969,-5.3047 -2.7461,0 -2.7461,0 z m 325.6641,0 0.7715,0.7695 c 0.4234,0.4235 2.6251,1.2086 4.8945,1.7461 5.4141,1.2821 7.8718,1.3979 10.2676,0.4785 l 1.9688,-0.7558 -0.6915,-1.1192 -0.6914,-1.1191 -8.2597,0 -8.2598,0 z m -251.0449,3.7461 -4.2695,4.0273 -4.2676,4.0254 0,2.8516 0,2.8496 2.9551,0 2.957,0 3.293,-2.5918 3.2949,-2.5899 0,-3.5254 0,-3.5254 -1.9824,-0.7617 -1.9805,-0.7597 z m 62.9746,5.6269 -2.416,2.1875 c -1.3297,1.2031 -3.1397,2.1875 -4.0215,2.1875 -0.8816,0 -4.4578,2.3906 -7.9473,5.3125 l -6.3457,5.3125 -3.2031,0.3399 c -1.7621,0.1875 -5.4872,0.3133 -8.2773,0.2793 l -5.0723,-0.062 -7.2422,3.8652 c -3.9828,2.1254 -10.6865,6.2784 -14.8965,9.2285 l -7.6543,5.3633 -2.8652,5.4199 c -1.5762,2.9806 -3.6998,6.3408 -4.7188,7.4668 -1.019,1.1261 -1.8535,2.4786 -1.8535,3.0059 0,0.5272 -1.0746,2.469 -2.3886,4.3144 l -2.3887,3.3535 -2.0703,7.4629 c -1.1382,4.1045 -2.6289,9.4316 -3.3145,11.8379 -3.0509,10.7082 -5.0959,19.6634 -5.2793,23.125 -0.1093,2.0625 -0.8651,4.9176 -1.6797,6.3438 l -1.4804,2.5918 1.1132,11.7832 1.1133,11.7812 -0.4922,6.0195 c -0.2704,3.3101 -0.1814,6.8258 0.1973,7.8126 l 0.6875,1.7929 2.0547,0.1 2.0527,0.1016 -1.5625,0.6289 -1.5625,0.6309 0,2.5195 c 0,1.3856 0.7619,4.29254 1.6914,6.45904 1.5338,3.5748 2.4266,6.5734 5.7422,19.2812 l 1.0684,4.0938 3.25,4.2617 c 1.7873,2.3432 3.248,4.8994 3.248,5.6816 0,3.2098 26.3055,31.5803 36.25,39.0957 3.7813,2.8575 8.9248,6.9861 11.4297,9.1739 2.5047,2.1879 7.5672,5.9041 11.25,8.2578 6.451,4.123 34.9937,18.4687 36.7461,18.4687 2.2251,0 41.1742,20.4596 44.9492,23.6114 4.6667,3.8961 14.1538,10.1386 15.4082,10.1386 1.5054,0 13.0687,11.4253 18.4825,18.2617 2.1397,2.7022 5.0714,7.2261 6.5136,10.0528 l 2.6211,5.1387 0.8496,8.2871 0.8496,8.2871 -2.8066,13.4238 -2.8086,13.4238 -4.8672,10.625 -4.8672,10.625 -6.373,5.3125 -6.375,5.3125 -2.2071,0 -2.207,0 -3.0469,2.3965 -3.0468,2.3965 -7.4336,2.1035 c -8.269,2.3405 -22.1848,4.3089 -25.3692,3.5879 -1.1362,-0.2572 -7.5573,-0.9995 -14.2695,-1.6484 l -12.2031,-1.1797 -9.6719,-5.9844 c -16.0417,-9.9252 -26.7272,-17.5822 -35.5195,-25.4512 -4.5918,-4.1098 -8.7653,-7.4707 -9.2735,-7.4707 -0.5083,0 -5.2247,4.3594 -10.4824,9.6875 -16.7802,17.005 -18.4331,18.3288 -30.0215,24.0996 l -1.875,0.9356 0.2481,5.2519 0.248,5.252 5.2617,6.8203 c 6.3212,8.1935 29.4489,31.7031 31.1875,31.7031 0.6777,0 5.263,3.9375 10.1914,8.75 l 8.961,8.75 2.0254,0 c 1.1137,0 3.1164,0.8246 4.4511,1.834 1.3345,1.0093 3.3584,1.854 4.4981,1.875 1.1397,0.022 4.9291,1.5229 8.4199,3.334 l 6.3457,3.291 12.207,1.1289 c 6.7133,0.6208 16.1426,1.603 20.9551,2.1817 9.7649,1.1744 19.2293,0.9463 37.0274,-0.8926 l 12.0254,-1.2422 5.4746,-2.8438 c 3.0106,-1.5639 6.1035,-3.1682 6.875,-3.5664 0.7713,-0.3984 6.5965,-4.2402 12.9433,-8.5371 6.3469,-4.2968 11.7216,-7.8125 11.9434,-7.8125 0.2218,0 4.6489,-2.8125 9.8398,-6.25 5.1908,-3.4375 9.792,-6.25 10.2246,-6.25 0.9547,0 9.8293,-6.7764 14.6407,-11.1797 1.921,-1.758 5.4038,-5.625 7.7402,-8.5937 l 4.2461,-5.3984 -0.7695,-2.0059 -0.7696,-2.0059 1.9746,0.7578 1.9747,0.7559 1.8984,-2.1016 c 3.1167,-3.4526 12.084,-17.0123 12.084,-18.2793 0,-0.6462 2.1998,-4.8649 4.8867,-9.375 l 4.8867,-8.1992 0.8496,-4.1133 0.8496,-4.1152 -1.4258,-1.7187 -1.4257,-1.7188 2.4375,-0.7734 2.4394,-0.7735 0.8008,-5.2695 c 0.4406,-2.8978 1.2009,-9.682 1.6895,-15.0762 l 0.8886,-9.8066 -0.9394,-0.5801 -0.9414,-0.582 1.0703,-2.1113 1.0703,-2.1114 -2.293,-11.5976 c -1.2607,-6.3788 -2.8061,-12.5663 -3.4355,-13.75 -0.6293,-1.1836 -3.2171,-7.6942 -5.75,-14.4668 -7.1506,-19.119 -20.6814,-46.4224 -27.2188,-54.9239 -1.8906,-2.4588 -3.4375,-4.8928 -3.4375,-5.4101 0,-0.5172 -2.1468,-3.5085 -4.7715,-6.6465 -2.6248,-3.138 -5.1295,-6.6663 -5.5664,-7.8418 l -0.7949,-2.1387 -5.2461,-3.7988 c -2.8853,-2.0901 -5.8291,-3.8008 -6.541,-3.8008 -0.7118,0 -2.4538,-1.0827 -3.873,-2.4062 -1.4194,-1.3234 -5.6758,-3.6186 -9.4571,-5.0996 -3.7812,-1.4808 -7.7187,-3.4155 -8.75,-4.3008 -1.0312,-0.8854 -7.0404,-3.377 -13.3554,-5.5371 l -11.4825,-3.9278 -13.3632,-2.0683 -13.3614,-2.0664 -2.3261,1.4531 c -3.1367,1.9588 -3.6114,1.8441 -3.6114,-0.8691 l 0,-2.3204 -9.2519,-3.6621 -9.252,-3.664 -7.7832,-7.1407 -7.7812,-7.1406 -1.7149,0 -1.7168,0 0,-2.2226 c 0,-1.222 -0.7603,-3.3314 -1.6894,-4.6875 l -1.6895,-2.4649 -0.7168,-6.25004 -0.7187,-6.25 -1.7578,-3.3808 -1.7579,-3.3789 0.4004,-9.1211 c 0.2202,-5.016 0.7674,-10.74 1.2168,-12.7207 l 0.8164,-3.6016 -2.0507,-1.1484 c -2.3595,-1.3204 -2.4979,-2.1615 -0.7832,-4.7735 l 1.2304,-1.875 1.293,1.875 1.293,1.875 2.1445,-2.8554 c 1.1796,-1.57 4.6292,-5.4843 7.666,-8.6993 l 5.5215,-5.8457 6.3535,-2.166 c 3.4945,-1.1914 8.5368,-2.5415 11.2051,-3 l 4.8515,-0.834 -1.5468,-0.957 -1.5469,-0.9551 1.0703,-0.6093 c 0.5892,-0.3346 2.6172,-0.9778 4.5078,-1.4297 l 3.4375,-0.8223 0,2.3613 0,2.3594 4.6094,0.748 4.6074,0.7481 1.7051,-1.4141 1.7051,-1.416 0.6504,2.4863 0.6504,2.4864 4.5996,1.6582 c 2.5295,0.9116 6.7323,3.0028 9.3418,4.6465 2.6095,1.6436 9.2417,4.9649 14.7363,7.3808 l 9.9902,4.3926 2.4512,-0.7793 c 1.349,-0.4282 2.4531,-1.2741 2.4531,-1.8809 0,-0.6066 1.6955,-3.6154 3.7676,-6.6855 l 3.7676,-5.582 9.0449,-8.1778 c 4.9748,-4.4973 11.7586,-9.9684 15.0742,-12.1582 l 6.0274,-3.9804 -0.8086,-3.2598 c -0.4447,-1.7928 -1.9897,-4.5255 -3.4336,-6.0723 l -2.625,-2.8125 -2.1289,0 -2.1289,0 -1.6153,-1.9472 c -0.8889,-1.071 -3.4901,-2.7292 -5.7793,-3.6856 l -4.1621,-1.7402 0,-1.7832 0,-1.7813 -3.834,-1.8574 c -2.1089,-1.0214 -3.7779,-2.3573 -3.7109,-2.9687 l 0.123,-1.1114 -3.2187,-0.4004 -3.2207,-0.4023 0.7383,-2.3223 0.7363,-2.3242 -5.7695,-7.5879 -5.7715,-7.5879 -1.6816,0 -1.6817,0 -0.5508,1.5625 -0.5527,1.5625 -4.2402,-2.1543 c -2.3318,-1.1849 -5.8416,-2.7391 -7.7989,-3.4531 l -3.5566,-1.2988 -0.6504,-2.4844 -0.6504,-2.4844 -4.8926,0 -4.8945,0 -0.7461,-1.9472 -0.748,-1.9473 -1.8223,0.7012 -1.8242,0.6992 -6.7149,-1.9531 -6.7148,-1.9512 -15.9883,1.1465 c -8.7934,0.6306 -16.6547,0.8984 -17.4707,0.5957 l -1.4844,-0.5508 0.6602,-1.7188 0.6601,-1.7207 -3.4902,-0.875 c -1.9195,-0.4817 -5.8494,-0.9282 -8.7324,-0.9902 l -5.2422,-0.1133 0,0 z m 22.4102,0.586 -0.7852,1.2695 -0.7852,1.2715 1.9493,0 c 2.1956,0 2.5189,-0.7508 0.7851,-1.8223 l -1.164,-0.7187 z m 83.5761,28.791 c 0.6875,0 1.25,0.5625 1.25,1.25 0,0.6875 -0.5625,1.25 -1.25,1.25 -0.6875,0 -1.25,-0.5625 -1.25,-1.25 0,-0.6875 0.5625,-1.25 1.25,-1.25 z m -108.75,23.75 1.291,0 c 0.709,0 1.6221,0.8668 2.0293,1.9277 0.8806,2.2946 0.3657,2.9302 -1.7578,2.1719 l -1.5625,-0.5586 0,-1.7695 0,-1.7715 z m 46.875,0.123 3.125,2.4102 3.125,2.4101 -1.875,0.014 c -1.0312,0 -2.6466,-0.4806 -3.5898,-1.0781 l -1.7149,-1.086 0.4649,-1.3339 0.4648,-1.3321 0,0 z m 14.6602,4.0059 c 1.7395,-0.034 3.9766,0.099 5.6523,0.3574 l 4.0625,0.627 0,1.1933 0,1.1934 -3.125,0 -3.125,0 0,1.25 c 0,1.3829 -0.4581,1.3942 -5,0.1308 l -3.125,-0.8691 0,-1.7149 0,-1.7148 3.125,-0.3613 c 0.4297,-0.05 0.9553,-0.08 1.5352,-0.092 z m 12.3476,1.207 c 0.4254,0.03 0.9483,0.1572 1.5567,0.3906 l 2.0469,0.7852 -0.6915,1.1191 c -0.9355,1.5138 -2.7161,1.4106 -3.7207,-0.2148 -0.8594,-1.3906 -0.4674,-2.1705 0.8086,-2.0801 z m -85.1328,0.9141 c 0.6875,0 1.25,0.5625 1.25,1.25 0,0.6875 -0.5625,1.25 -1.25,1.25 -0.6875,0 -1.25,-0.5625 -1.25,-1.25 0,-0.6875 0.5625,-1.25 1.25,-1.25 z m -16.709,0.5136 c 0.9513,-0.015 1.9177,-0.015 2.8477,0 l 6.7637,0.1114 0.4355,1.2851 0.4375,1.2852 -3.6426,2.1523 c -3.9474,2.3318 -7.1865,2.625 -10.1328,0.918 -1.0312,-0.5974 -2.8593,-1.3899 -4.0625,-1.7617 -1.2031,-0.3718 -2.1875,-1.1956 -2.1875,-1.8301 l 0,-1.1523 2.8125,-0.5606 c 1.1602,-0.2308 3.8748,-0.402 6.7285,-0.4473 z m 26.5469,3.2344 3.207,1.2207 3.2051,1.2188 0,1.2363 c 0,0.6803 -1.0862,1.8196 -2.416,2.5313 -3.2282,1.7276 -5.228,1.5784 -8.1172,-0.6075 -2.634,-1.9927 -2.5948,-2.1079 1.3906,-4.1797 l 2.7305,-1.4199 z m 35.1621,0.836 0.834,0.832 0.834,0.834 -1.668,0 -1.666,0 0.834,-0.834 0.832,-0.832 z m 42.5,13.748 0.834,0.834 0.834,0.834 -0.834,0.832 -0.834,0.834 0,-1.666 0,-1.668 z m -40.625,1.668 c 0.9502,0 2.0752,0.5625 2.5,1.25 l 0.7735,1.25 -3.2735,0 -3.2715,0 0.7715,-1.25 c 0.4249,-0.6875 1.5499,-1.25 2.5,-1.25 z m -17.7363,1.25 -2.2637,2.5 c -2.5655,2.8349 -3.8471,3.1138 -5.0859,1.1093 l -0.8574,-1.3906 1.7207,-1.0898 c 0.9474,-0.6001 2.7956,-1.0983 4.1054,-1.1114 l 2.3809,-0.017 z m -31.6387,2.5 1.875,0 1.875,0 0,1.373 c 0,0.7554 -1.646,2.9112 -3.6582,4.791 l -3.6582,3.418 -0.7168,-1.9785 c -0.3944,-1.0883 -1.0446,-2.6816 -1.4453,-3.541 l -0.7285,-1.5625 3.2285,0 3.2285,0 0,-1.25 0,-1.25 z m -49.5879,1.3359 c 0.7492,-0.052 0.8379,0.4741 0.8379,1.7891 l 0,1.875 -2.5,0 -2.5,0 0,-1.1172 c 0,-0.614 0.891,-1.4578 1.9785,-1.875 1.0478,-0.4021 1.7342,-0.6406 2.1836,-0.6719 z m 60.8379,1.9961 0.834,0.834 0.834,0.834 -1.668,0 -1.666,0 0.834,-0.834 0.832,-0.834 z m -36.3222,6.668 c 0.6469,0 1.5224,0.5625 1.9472,1.25 l 0.7735,1.25 -1.9493,0 -1.9492,0 0,-1.25 c 0,-0.6875 0.5308,-1.25 1.1778,-1.25 z m 6.3222,3.25 1.5,1.5 1.5,1.5 -3,0 -3,0 1.5,-1.5 1.5,-1.5 z m 18.9903,6.75 c 1.5261,0 1.211,3.0488 -0.4903,4.75 -1.8827,1.8824 -3.1051,1.8999 -4.2422,0.061 l -0.8886,-1.4394 2.3047,-1.6856 c 1.2677,-0.927 2.7604,-1.6855 3.3164,-1.6855 z m 13.5097,0.832 0.834,0.834 0.834,0.834 -1.668,0 -1.666,0 0.834,-0.834 0.832,-0.834 z m -52.5,7.918 0,1.1269 0,1.127 -3.7207,1.2988 -3.7226,1.2969 -0.8125,-1.3145 -0.8125,-1.3164 1.7207,-1.0898 c 0.9474,-0.6001 2.9883,-1.0983 4.5351,-1.1114 l 2.8125,-0.017 z m 51.25,0 2.6055,0 2.6035,0 -0.5195,1.5625 c -0.2862,0.8594 -1.4592,1.7446 -2.6055,1.9668 l -2.084,0.4043 0,-1.9668 0,-1.9668 z m -44.8027,2.5156 0,0 c 0.1608,0.012 0.4646,0.3453 0.9141,1.0547 l 1.0742,1.6953 6.0938,0.1797 6.0937,0.1797 -0.1093,2.9043 -0.1075,2.9062 2.6094,-0.7012 c 1.4351,-0.3854 3.5274,-0.7037 4.6504,-0.7168 l 2.041,-0.017 0.7168,-2.7422 0.7188,-2.7422 2.3378,2.1172 2.3399,2.1172 2.0898,0 2.0879,0 0,1.25 0,1.25 -4.3593,0 -4.3594,0 0.2968,2.8125 0.2989,2.8125 -3.75,0.1699 c -2.0625,0.093 -5.0471,-0.09 -6.6328,-0.4082 l -2.8828,-0.5801 -1.3809,-3.0273 -1.3809,-3.0293 -3.58,0 -3.5801,0 -1.2188,-3.2071 c -1.0274,-2.7026 -1.3734,-4.2859 -1.0234,-4.2773 z m -2.7891,12.041 3.1719,1.4453 3.1699,1.4434 0,1.9023 0,1.9024 -1.875,0 -1.875,0 0,-1.25 0,-1.25 -3.3926,0 -3.3925,0 2.0976,-2.0977 2.0957,-2.0957 z m 38.916,5.4434 1.3243,0 -0.7735,1.25 c -0.4248,0.6874 -1.0191,1.25 -1.3222,1.25 -0.3033,0 -0.5528,-0.5626 -0.5528,-1.25 0,-0.6875 0.5962,-1.25 1.3242,-1.25 z m -31.7382,3.6465 -0.1055,2.8632 -0.1055,2.8653 -1.873,0.8496 c -1.0317,0.467 -3.1394,0.8885 -4.6856,0.9375 l -2.8125,0.088 0,-1.1641 0,-1.1621 2.8125,-0.4004 2.8125,-0.3984 0,-1.8575 0,-1.8593 1.9785,-0.3809 1.9786,-0.3808 z m 16.998,4.7285 0,0 -0.5859,1.7481 -0.584,1.748 -6.5547,0.1035 -6.5547,0.1036 1.7813,-0.9961 c 0.9792,-0.548 4.1914,-1.3822 7.1386,-1.8536 l 5.3594,-0.8554 z m -34.2305,9.125 1.3243,0 c 0.728,0 1.3222,0.5625 1.3222,1.25 0,0.6875 -0.2476,1.25 -0.5508,1.25 -0.3031,0 -0.8993,-0.5625 -1.3242,-1.25 l -0.7715,-1.25 z m 6.6641,6.25 1.7422,0 1.7402,0 0,1.74024 0,1.7422 -1.7519,0.6719 c -2.2401,0.8597 -3.262,-0.1623 -2.4024,-2.4024 l 0.6719,-1.75194 z m 56.5605,1.17774 1.795,0.3477 c 0.9876,0.1917 1.9921,0.9402 2.2324,1.6621 l 0.4375,1.3125 -4.5039,0 -4.5059,0 2.2735,-1.6621 2.2714,-1.6602 z m -41.8281,1.3223 0,1.248 c -1e-4,1.5222 -0.1421,1.5218 -2.5,0 l -1.875,-1.2109 2.1875,-0.02 2.1875,-0.017 z m 38.6778,5 c 0.6469,0 1.5224,0.5625 1.9472,1.25 l 0.7735,1.25 -1.9493,0 -1.9492,0 0,-1.25 c 0,-0.6875 0.5308,-1.25 1.1778,-1.25 z m -28.6778,8.75 c 0.6875,0 1.25,0.5625 1.25,1.25 0,0.6875 -0.5625,1.25 -1.25,1.25 -0.6875,0 -1.25,-0.5625 -1.25,-1.25 0,-0.6875 0.5625,-1.25 1.25,-1.25 z m 44.8535,1.25 2.5743,0 2.5722,0 0,1.25 0,1.25 -1.8008,0 c -0.9906,0 -2.1493,-0.5625 -2.5742,-1.25 l -0.7715,-1.25 z m -60.1367,1.3242 c 0.6346,0 1.5715,0.3927 2.7832,1.1758 l 1.875,1.2129 -2.8125,0.02 -2.8125,0.019 0,-1.25 c 0,-0.7831 0.3323,-1.1758 0.9668,-1.1758 l 0,0 z m 56.5762,0.7168 1.3379,1.3379 1.3379,1.3379 -1.2735,0.7871 -1.2714,0.7851 -0.836,-1.3535 -0.8379,-1.3535 0.7715,-0.7695 0.7715,-0.7715 z m -30.0645,0.8418 c 1.1271,0.045 1.8965,0.8268 1.8965,2.2031 l 0,1.7539 -2.0703,0.3985 -2.0703,0.3984 -0.9023,-1.459 -0.9004,-1.459 1.7207,-1.0898 c 0.8447,-0.5345 1.6499,-0.7729 2.3261,-0.7461 z m -11.2285,0.4492 0.834,0.834 0.834,0.834 -1.668,0 -1.666,0 0.834,-0.834 0.832,-0.834 z m 58.9903,5.416 c 1.2965,0 2.2597,0.1678 2.2597,0.5371 0,0.2946 -0.8825,1.4196 -1.9629,2.5 l -1.9648,1.9649 -2.3359,0 -2.3379,0 -0.8594,-1.3907 -0.8574,-1.3906 1.7207,-1.0898 c 1.0908,-0.691 4.177,-1.1356 6.3379,-1.1309 z m -50.1504,3.752 4.58,0 4.5801,0 -1.3457,1.3457 c -0.741,0.741 -3.3719,1.8034 -5.8457,2.3613 l -4.498,1.0156 1.2636,-2.3613 1.2657,-2.3613 z m 27.4101,13.75 0,1.248 c -1e-4,1.5222 -0.1421,1.5218 -2.5,0 l -1.875,-1.2109 2.1875,-0.02 2.1875,-0.017 z m -40.1465,1.25 3.1993,0 3.1972,0 0,1.25 0,1.25 -2.4258,0 -2.4257,0 -0.7735,-1.25 -0.7715,-1.25 z m 223.6622,1.289 c -0.1586,0.017 -0.2773,0.057 -0.3418,0.1211 -0.2583,0.2583 -0.8703,2.0628 -1.3594,4.0117 l -0.8887,3.543 2.9746,-0.4199 2.9746,-0.4219 0.4004,-2.8164 0.4004,-2.8183 -2.0156,-0.7735 c -0.8318,-0.3192 -1.669,-0.4762 -2.1445,-0.4258 z m -189.6172,8.711 2.9492,0 c 1.622,0 3.8383,0.3404 4.9258,0.7578 l 1.9765,0.7597 0,2.2911 c 0,1.2609 -0.4218,2.529 -0.9375,2.8183 -1.8123,1.0167 -7.8142,2.1628 -7.9687,1.5215 -0.086,-0.3569 -0.2341,-1.0703 -0.3301,-1.5859 -0.096,-0.5156 -0.6224,-1.6406 -1.168,-2.5 l -0.9922,-1.5625 0.7715,-1.25 0.7735,-1.25 z m 20.9023,7.3593 7.6406,1.5782 7.6426,1.58 -0.3672,1.9278 -0.3672,1.9277 -2.4863,0.2481 c -1.368,0.1364 -3.6133,-0.246 -4.9883,-0.8496 -1.375,-0.6037 -4.3281,-1.1366 -6.5625,-1.1856 l -4.0625,-0.086 0,-1.0977 c 0,-0.6032 0.7994,-1.7603 1.7754,-2.5703 l 1.7754,-1.4727 z m 75.1992,5.1407 0,1.248 c -1e-4,1.5222 -0.1421,1.5218 -2.5,0 l -1.875,-1.2109 2.1875,-0.02 2.1875,-0.017 z m -92.2324,1.25 2.3672,0 2.3652,0 0,1 c 0,0.55 -0.675,1.675 -1.5,2.5 -1.6653,1.6654 -2.7118,1.8702 -3.8301,0.7519 l -0.746,-0.748 0.6718,-1.752 0.6719,-1.7519 z m 37.2324,9.582 0.834,0.834 0.834,0.834 -1.668,0 -1.666,0 0.834,-0.834 0.832,-0.834 z m 30,0.418 1.8028,0 c 0.9906,0 2.1474,0.5625 2.5722,1.25 l 0.7735,1.25 -2.5743,0 -2.5742,0 0,-1.25 0,-1.25 z m 131.668,14.916 -2.084,0.8008 -2.084,0.7988 0,4.6172 0,4.6152 1.5,1.5 c 0.825,0.825 1.8942,1.5 2.375,1.5 l 0.875,0 0.543,-5.9375 0.5449,-5.9375 -0.834,-0.9785 -0.8359,-0.9785 z m -111.8145,10.084 1.25,0 c 0.6875,0 1.5967,0.5625 2.0215,1.25 l 0.7735,1.25 -1.25,0 c -0.6875,0 -1.5986,-0.5625 -2.0235,-1.25 l -0.7715,-1.25 z m 48.8965,40 3.125,0 3.125,0 0,1.875 0,1.875 -2.291,0 c -2.4571,0 -3.959,-1.0278 -3.959,-2.709 l 0,-1.041 z m -1.25,13.5976 4.5918,0.3887 4.5918,0.3887 0.5117,1.5625 0.5137,1.5625 -2.916,-0.1465 c -1.6042,-0.08 -3.9023,-0.4024 -5.1055,-0.7168 l -2.1875,-0.5703 0,-1.2344 0,-1.2344 z m -1.3965,6.4024 1.9493,0 1.9472,0 0,1.25 c 0,0.6875 -0.5288,1.25 -1.1758,1.25 -0.6469,0 -1.5243,-0.5625 -1.9492,-1.25 l -0.7715,-1.25 z m -17.5,2.5 1.25,0 c 0.6875,0 1.5967,0.5625 2.0215,1.25 l 0.7735,1.25 -1.25,0 c -0.6875,0 -1.5986,-0.5625 -2.0235,-1.25 l -0.7715,-1.25 z m 20.3028,15.9883 0.7558,0.7558 0.7559,0.7559 -2.3965,-0.1 -2.3965,-0.1 1.6407,-0.6563 1.6406,-0.6562 z m 18.9062,2.7207 7.3145,3.457 c 4.0229,1.9018 7.3277,3.824 7.3437,4.2715 l 0.029,0.8144 -4.3164,-0.123 -4.3164,-0.1231 -2.3437,2.1231 c -1.289,1.1666 -2.6596,2.1211 -3.045,2.1211 -0.3853,0 -1.9299,-0.9973 -3.4336,-2.2149 l -2.7343,-2.2129 0.832,-3.3222 0.834,-3.3203 1.918,-0.7344 1.9179,-0.7363 z m -13.9883,6.291 1.3243,0 -0.7735,1.25 c -0.4248,0.6875 -1.0191,1.25 -1.3222,1.25 -0.3033,0 -0.5528,-0.5625 -0.5528,-1.25 0,-0.6875 0.5962,-1.25 1.3242,-1.25 z m 8.75,17.5 c 0.647,0 1.1758,0.5625 1.1758,1.25 l 0,1.25 -1.9472,0 -1.9493,0 0.7715,-1.25 c 0.4249,-0.6875 1.3023,-1.25 1.9492,-1.25 z m 26.1758,0 1.5625,0.017 c 0.8594,0.011 2.4063,0.5854 3.4375,1.2754 l 1.875,1.2539 -2.1875,1.6758 -2.1875,1.6778 0,2.6738 0,2.6758 -0.9375,-0.041 c -0.5156,-0.022 -2.0163,-0.857 -3.3359,-1.8555 l -2.3985,-1.8145 2.086,-2.3066 c 1.1477,-1.2682 2.0859,-2.9642 2.0859,-3.7695 l 0,-1.4629 z m -52.707,1.25 2.3535,0 c 2.4055,0 5.3535,2.2029 5.3535,4 0,1.2607 -1.7838,1.2987 -3.0195,0.062 -0.5157,-0.5156 -1.5482,-0.9375 -2.293,-0.9375 -0.7447,0 -1.5885,-0.7031 -1.875,-1.5625 l -0.5195,-1.5625 z m -244.6582,2.498 c -0.614,0 -1.4402,0.8438 -1.8359,1.875 l -0.7188,1.875 1.8359,0 1.834,0 0,-1.875 0,-1.875 -1.1152,0 z m 297.3652,9.502 1.5,1.5 1.5,1.5 -3,0 -3,0 1.5,-1.5 1.5,-1.5 z m -46.25,26.332 0.834,0.834 0.834,0.834 -1.668,0 -1.666,0 0.834,-0.834 0.832,-0.834 z m -17.7343,3.543 1.0546,1.3925 c 0.5805,0.767 2.3204,1.7888 3.8672,2.2715 1.5469,0.4828 2.8125,1.3588 2.8125,1.9453 l 0,1.0665 -4.0625,0.8925 -4.0605,0.8926 -1.6348,2.332 c -0.8984,1.2826 -2.164,2.3321 -2.8125,2.3321 l -1.1797,0 0,-2.9746 0,-2.9727 3.666,-1.5195 3.6661,-1.5176 -0.6582,-2.0703 -0.6582,-2.0703 z m -9.7657,0.207 0.834,0.834 0.834,0.834 -0.834,0.832 -0.834,0.834 0,-1.666 0,-1.668 z m 22.5,2.918 2.3477,0 2.3476,0 1.3926,1.6758 1.3906,1.6777 -0.8222,0.8223 c -1.0672,1.066 -4.7512,1.0596 -5.8223,-0.012 -0.4584,-0.4582 -0.834,-1.5832 -0.834,-2.5 l 0,-1.664 z m 76.4414,17.5 c -0.6921,0 -2.4247,1.4814 -3.8496,3.2929 l -2.5918,3.293 0,2.957 0,2.9571 2.416,0 2.4161,0 0.6171,-2.1875 c 0.3388,-1.2031 0.9839,-4.0156 1.4336,-6.25 l 0.8164,-4.0625 -1.2578,0 z m -290.3496,40.0175 -3.3574,1.9004 c -1.847,1.0455 -7.4845,4.4157 -12.5273,7.4903 -5.0429,3.0747 -9.5992,5.5918 -10.125,5.5918 -0.5258,0 -3.179,1.5469 -5.8965,3.4375 -9.1754,6.3835 -12.0267,7.9826 -16.9981,9.5449 l -2.1875,0.6875 0,1.9141 c 0,1.0529 0.1857,1.916 0.4121,1.916 0.2264,0 4.8544,-2.5313 10.2832,-5.625 5.4288,-3.0937 10.5214,-5.625 11.3184,-5.625 l 1.4492,0 2.0488,-3.125 2.0469,-3.125 2.9922,0 c 1.6456,0 3.179,-0.4219 3.4082,-0.9375 0.6943,-1.5621 12.6614,-6.4765 16.666,-6.8438 l 3.75,-0.3437 0.3789,-2.6543 0.3789,-2.6524 -2.0195,-0.7754 -2.0215,-0.7754 z m 175.3145,7.2208 0.7558,0.7558 0.7559,0.7559 -2.3965,-0.1 -2.3965,-0.1 1.6407,-0.6563 1.6406,-0.6562 z m -87.3242,5.2304 1.7089,1.418 c 0.94,0.7801 1.709,2.1936 1.709,3.1406 l 0,1.7227 -2.4258,0 -2.4257,0 -0.8067,-1.3067 -0.8066,-1.3047 1.5234,-1.8339 1.5235,-1.836 z"
       id="path11030" />
  </g>
</svg>
