<?xml version="1.0" encoding="UTF-8" standalone="no"?>
<!-- Created with Inkscape (http://www.inkscape.org/) -->

<svg
   xmlns:dc="http://purl.org/dc/elements/1.1/"
   xmlns:cc="http://creativecommons.org/ns#"
   xmlns:rdf="http://www.w3.org/1999/02/22-rdf-syntax-ns#"
   xmlns:svg="http://www.w3.org/2000/svg"
   xmlns="http://www.w3.org/2000/svg"
   xmlns:sodipodi="http://sodipodi.sourceforge.net/DTD/sodipodi-0.dtd"
   xmlns:inkscape="http://www.inkscape.org/namespaces/inkscape"
   width="210mm"
   height="297mm"
   viewBox="0 0 744.09448819 1052.3622047"
   id="svg4143"
   version="1.1"
   inkscape:version="0.91 r13725"
   sodipodi:docname="T.svg">
  <defs
     id="defs4145" />
  <sodipodi:namedview
     id="base"
     pagecolor="#ffffff"
     bordercolor="#666666"
     borderopacity="1.0"
     inkscape:pageopacity="0.0"
     inkscape:pageshadow="2"
     inkscape:zoom="0.35"
     inkscape:cx="-145"
     inkscape:cy="520"
     inkscape:document-units="px"
     inkscape:current-layer="layer1"
     showgrid="false"
     inkscape:window-width="1920"
     inkscape:window-height="1055"
     inkscape:window-x="0"
     inkscape:window-y="25"
     inkscape:window-maximized="1" />
  <metadata
     id="metadata4148">
    <rdf:RDF>
      <cc:Work
         rdf:about="">
        <dc:format>image/svg+xml</dc:format>
        <dc:type
           rdf:resource="http://purl.org/dc/dcmitype/StillImage" />
        <dc:title></dc:title>
      </cc:Work>
    </rdf:RDF>
  </metadata>
  <g
     inkscape:label="Layer 1"
     inkscape:groupmode="layer"
     id="layer1">
    <path
       inkscape:connector-curvature="0"
       style="fill:#000000"
       d="m 208.43958,341.91607 -2.7656,1.7168 -2.7696,1.7187 -11.4785,1.5762 -11.4805,1.5762 -14.7695,0.1445 -14.7715,0.1426 -4.789,-2.2949 -4.7871,-2.293 -0.795,0.7949 -0.7949,0.793 0.3242,9 c 0.1786,4.9498 0.8479,10.6875 1.4864,12.75 0.6385,2.0625 2.2896,12.3052 3.6699,22.7617 l 2.5097,19.0117 -0.6269,10.584 -0.627,10.5859 0.9786,0.6035 c 0.5386,0.3329 7.7221,1.5084 15.9648,2.6114 8.2425,1.1031 17.5176,2.5377 20.6113,3.1875 l 5.625,1.1816 26.25,0.793 c 14.4375,0.4367 30.5659,0.7702 35.8399,0.7402 l 9.5898,-0.053 1.6543,1.9941 1.6563,1.9942 -0.3731,16.6132 -0.3711,16.6114 -1.2793,4.1386 -1.2793,4.1407 -0.664,29.6875 -0.6621,29.6875 3.2578,0 3.2558,0 0,1.25 0,1.25 -3.0508,0 -3.0507,0 -0.668,1.082 c -0.3676,0.5948 -0.9981,11.423 -1.4004,24.06247 -0.8271,25.9827 -1.2736,36.1163 -2.4141,54.748 l -0.7968,13.0196 -1.1348,2.1172 -1.1328,2.1191 0.7285,4.4883 0.7285,4.4883 -1.3847,7.875 c -1.758,10.0046 -3.0333,29.8294 -4.8907,76 -0.567,14.0938 -0.893,29.7849 -0.7246,34.8691 l 0.3047,9.2442 1.3828,1.3808 1.3809,1.3809 25.875,-0.2266 c 14.2308,-0.1242 30.373,-0.4618 35.873,-0.7519 l 10,-0.5274 9.375,1.5059 c 5.1563,0.8282 10.337,1.5902 11.5137,1.6914 l 2.1406,0.1836 1.3242,-4.9199 c 0.7286,-2.7063 1.2099,-5.378 1.0684,-5.9376 -0.1413,-0.5596 0.3684,-4.1113 1.1328,-7.8925 0.7645,-3.7813 2.0542,-13.3438 2.8672,-21.25 0.813,-7.9063 2.0158,-16.1799 2.6719,-18.3867 l 1.1914,-4.0118 -0.037,-14.7382 c -0.02,-8.1057 0.4572,-20.6446 1.0625,-27.8633 0.6051,-7.2188 1.4429,-18.1217 1.8613,-24.2285 0.4182,-6.107 1.0232,-11.5282 1.3438,-12.0469 1.4156,-2.2905 5.1706,-69.1676 4.6308,-82.47457 -0.07,-1.7188 -0.1782,-12.9688 -0.2422,-25 l -0.1152,-21.875 -1.2402,-9.375 c -1.5844,-11.9785 -1.5667,-11.5542 -0.8868,-21.8555 l 0.5762,-8.7305 -1.3887,-11.8945 -1.3886,-11.8945 0.6445,-4.3614 0.6445,-4.3613 3.5723,-1.709 3.5723,-1.709 4.5527,-0.1132 c 2.5036,-0.062 7.3652,0.074 10.8027,0.3047 3.4375,0.2302 18.3437,-0.016 33.125,-0.5489 l 26.875,-0.9687 9.375,2.0351 9.375,2.0332 8.125,0.3243 8.125,0.3242 -0.4609,-1.875 c -0.2527,-1.0312 -0.563,-2.7187 -0.6914,-3.75 -0.5062,-4.0667 -3.5209,-13.2729 -5.209,-15.9082 l -1.7832,-2.7832 -0.1524,-15.4063 -0.1542,-15.4082 0.8261,-2.5996 0.8242,-2.5977 -1.9414,-0.746 -1.9394,-0.7442 1.125,-2.2148 c 0.6186,-1.2187 1.742,-4.1855 2.4961,-6.5918 2.0619,-6.5812 5.424,-25.1775 4.6855,-25.916 -0.3558,-0.3557 -2.9323,0.2675 -5.7246,1.3847 l -5.0762,2.0313 -6.1503,0 -6.1524,0 -0.8594,-1.3907 -0.8593,-1.3906 -14.3536,0.7403 -14.3554,0.7382 -5.3848,-1.207 -5.3867,-1.207 -29.1621,-0.1504 c -16.0389,-0.083 -30.2852,-0.156 -31.6602,-0.168 -1.375,-0.01 -8.4063,0.086 -15.625,0.2149 l -13.125,0.2363 -5,1.1035 -5,1.1055 -1.1875,-1.1875 c -0.6532,-0.653 -2.3688,-1.1875 -3.8125,-1.1875 l -2.625,0 -1.416,1.416 -1.416,1.416 -2.2715,-0.9648 c -4.3263,-1.837 -7.3729,-2.1031 -29.1465,-2.545 -12.0313,-0.2441 -25.9399,-0.835 -30.9082,-1.3125 l -9.0332,-0.8672 -0.789,2.0528 c -0.4335,1.1296 -1.2903,2.0547 -1.9043,2.0547 l -1.1153,0 0,-1.875 0,-1.875 -1.875,0 -1.875,0 -0.1,2.1875 -0.1,2.1875 -0.6289,-1.5625 -0.6309,-1.5625 -2.3222,0 c -1.2772,0 -2.6708,-0.5625 -3.0957,-1.25 l -0.7715,-1.25 -3.0957,0 -3.0938,0 0,0 z m 12.5898,33.75 3.4375,0.02 c 1.8907,0.01 4.2661,0.5421 5.2774,1.1816 l 1.8379,1.1622 -0.8907,0.8906 -0.8886,0.8906 1.3906,1.6777 1.3926,1.6778 -2.1446,0 -2.1445,0 -0.6504,-2.4883 -0.6523,-2.4883 -2.9825,0.7481 -2.9824,0.75 0,-2.0118 0,-2.0097 z m -36.3769,6.3769 3.8769,1.9356 3.877,1.9336 -0.4707,1.4394 -0.4727,1.4395 -3.6543,0.2422 c -2.0096,0.1336 -4.3574,-0.053 -5.2168,-0.4161 l -1.5625,-0.6601 0,-2.2617 0,-2.2618 1.8125,-0.6953 1.8106,-0.6953 z m 137.6875,0.7656 0.7734,0.7735 0.7734,0.7734 -1.582,1.9043 c -0.8698,1.0479 -1.9338,1.8417 -2.3652,1.7617 -0.4315,-0.08 -1.7695,-0.4025 -2.9727,-0.7168 l -2.1875,-0.5722 0,-1.293 0,-1.291 2.0352,0.7793 2.0332,0.7812 1.7461,-1.4492 1.7461,-1.4512 z m -20.6114,4.1075 c 0.3032,0 0.5508,0.5625 0.5508,1.25 0,0.6875 -0.5942,1.25 -1.3222,1.25 l -1.3243,0 0.7715,-1.25 c 0.4249,-0.6875 1.0211,-1.25 1.3242,-1.25 z m -102.1875,1.6933 c 0.1536,-0.01 0.3256,-0.01 0.5176,0.01 0.5121,0.038 1.1617,0.1593 1.9492,0.3653 l 2.7442,0.7168 -0.6856,1.1093 c -0.9447,1.5284 -3.9638,1.3901 -4.9629,-0.2265 -0.7742,-1.2528 -0.6377,-1.9052 0.4375,-1.9727 z m -5.9179,0.3985 1.1074,1.1425 1.1074,1.1407 -0.6738,3.4375 -0.6758,3.4375 -1.7285,0 -1.7305,0 0,-1.1699 c 0,-0.6429 0.5838,-2.7029 1.2969,-4.5782 l 1.2969,-3.4101 z m 18.5097,0.4082 1.25,0 c 0.6875,0 1.5967,0.5625 2.0215,1.25 l 0.7735,1.25 -1.25,0 c -0.6875,0 -1.5986,-0.5625 -2.0235,-1.25 l -0.7715,-1.25 z m 153.9707,1.25 c 0.647,0 1.1758,0.5625 1.1758,1.25 l 0,1.25 -1.9472,0 -1.9493,0 0.7715,-1.25 c 0.4249,-0.6875 1.3023,-1.25 1.9492,-1.25 z m -117.2148,1.1894 0,0 0.7578,0.8242 0.7578,0.8262 -1.5625,0.5586 c -0.8593,0.307 -1.5625,1.1375 -1.5625,1.8457 l 0,1.2871 4.0625,-0.5977 4.0625,-0.5957 2.834,1.2891 2.834,1.291 -2.7402,2.9141 -2.7383,2.914 -1.9688,-0.074 c -1.0833,-0.041 -2.8144,-0.5381 -3.8457,-1.1055 -1.0312,-0.5674 -3.3891,-1.7374 -5.2402,-2.5996 l -3.3652,-1.5664 2.1152,-2.8984 c 1.1636,-1.5945 2.8997,-3.2183 3.8574,-3.6074 l 1.7422,-0.7071 z m 68.332,0.9531 1.8106,1.5059 1.8125,1.5039 1.6933,-0.3887 c 1.674,-0.3845 2.2422,0.31 2.2422,2.7364 l 0,1.25 -1.7363,0 c -0.9551,0 -3.0645,-1.0768 -4.6875,-2.3926 l -2.9512,-2.3926 0.9082,-0.9101 0.9082,-0.9122 z m -117.3984,1.1485 1.3379,1.3379 1.3379,1.3379 -1.2735,0.7871 -1.2714,0.7871 -0.836,-1.3535 -0.8379,-1.3535 0.7715,-0.7715 0.7715,-0.7715 z m -11.293,3.8203 2.5781,2.332 2.5762,2.3321 1.1211,-1.8145 1.1211,-1.8164 1.5527,1.5527 1.5508,1.5528 -2.125,0 -2.125,0 0,1.1074 0,1.1094 -3.5664,0.5234 -3.5683,0.5234 0.2832,-2.5703 c 0.1557,-1.4132 0.3563,-3.077 0.4433,-3.6992 l 0.1582,-1.1328 z m -2.1875,1.3262 -0.5468,1.6406 c -0.3009,0.9024 -1.2853,1.8868 -2.1876,2.1875 l -1.6406,0.5469 0.5469,-1.6407 c 0.3008,-0.9024 1.2851,-1.8868 2.1875,-2.1875 l 1.6406,-0.5468 z m 125.9375,0.3125 1.875,0 1.875,0 0,1.25 0,1.25 -1.875,0 -1.875,0 0,-1.25 0,-1.25 z m 18.75,2.334 3.1641,0.3945 3.164,0.3965 0,1.25 0,1.25 -3.164,0.3945 -3.1641,0.3965 0,-2.041 0,-2.041 z m 81.25,0.166 c 0.6875,0 1.25,0.5625 1.25,1.25 0,0.6875 -0.5625,1.25 -1.25,1.25 -0.6875,0 -1.25,-0.5625 -1.25,-1.25 0,-0.6875 0.5625,-1.25 1.25,-1.25 z m -180.6601,0.066 c 1.04,-0.09 2.0052,0.3228 2.5879,1.2656 l 0.8242,1.334 -2.3125,1.7519 c -2.8055,2.1255 -3.7934,2.2313 -4.8477,0.5254 l -0.8066,-1.3047 1.5117,-1.8203 c 0.888,-1.07 2.0029,-1.662 3.043,-1.7519 z m 58.1601,0.7656 0.834,0.834 0.834,0.834 -1.668,0 -1.666,0 0.834,-0.834 0.832,-0.834 z m -73.5937,0.1563 0.7558,0.7558 0.7559,0.7559 -2.3965,-0.1 -2.3965,-0.098 1.6407,-0.6562 1.6406,-0.6582 z m 23.5937,0.1132 1.2715,0.7852 1.2695,0.7851 -0.7187,1.1641 c -0.3955,0.64 -1.2159,1.1641 -1.8223,1.1641 -0.6063,0 -1.4248,-0.5241 -1.8203,-1.1641 l -0.7187,-1.1641 1.2695,-0.7851 1.2695,-0.7852 z m 4.9278,1.3985 c 0.6469,0 1.5224,0.5625 1.9472,1.25 l 0.7735,1.25 -1.9493,0 -1.9492,0 0,-1.25 c 0,-0.6875 0.5308,-1.25 1.1778,-1.25 z m -46.1192,0.1445 4.6524,0.2969 4.6523,0.2988 0.4102,2.1289 0.4101,2.1309 -2.5918,0 -2.5918,0 0,1.25 0,1.25 -1.8301,0 -1.83,0 -1.3535,-2.5274 -1.3516,-2.5254 0.7129,-1.1504 0.7109,-1.1523 z m 63.461,1.2852 1.9668,1.4726 1.9687,1.4727 -1.1894,1.875 -1.1876,1.875 -2.4316,-1.5078 -2.4316,-1.5059 -1.5098,1.8184 c -0.8302,1.0005 -2.0503,1.8203 -2.7109,1.8203 l -1.2012,0 0.5,-1.502 c 0.2754,-0.8261 2.2388,-2.4732 4.3633,-3.6601 l 3.8633,-2.1582 z m 28.7656,0.4453 0.7109,0.707 0.711,0.707 -1.4805,3.9219 -1.4805,3.9219 -5.2734,-0.7227 -5.2754,-0.7246 -3.9414,1.375 -3.9414,1.3731 0.5136,-1.5293 c 0.4891,-1.4571 1.1693,-1.6777 6.2344,-2.0118 l 2.1875,-0.1425 0,-2.5 c 0,-3.035 0.9652,-3.1469 3.9395,-0.4551 l 2.2597,2.0449 2.418,-2.9824 2.418,-2.9824 z m 94.5117,0.625 2.8984,0 1.5547,1.875 1.5567,1.875 -4.3203,0 c -2.3759,0 -4.6776,-0.3611 -5.1172,-0.8008 l -0.8008,-0.7988 0.666,-1.0762 c 0.3656,-0.5916 1.9685,-1.0742 3.5625,-1.0742 z m -72.6387,4.375 0.5254,1.5625 0.5254,1.5625 1.7715,0 1.7695,0 0,1.959 0,1.9589 2.5899,-0.8222 2.5898,-0.8223 2.3633,2.1387 2.3652,2.1406 1.6094,-0.5957 1.6074,-0.5977 2.4414,2.3516 2.4395,2.3516 -6.502,-0.2305 -6.5039,-0.2285 0,-1.4453 0,-1.4434 -4.375,-1.7148 c -2.4062,-0.9441 -4.375,-2.2129 -4.375,-2.8184 l 0,-1.1015 -2.5,0.7949 -2.5,0.7929 0,-1.1816 c 0,-0.6497 0.9371,-1.9529 2.0801,-2.8965 l 2.0781,-1.7148 z m -117.7519,0.625 0,0 1.0898,0 0,2.1875 0,2.1875 -4.998,0.3418 -4.9981,0.3418 0,-1.7481 0,-1.748 3.9063,-0.7813 c 2.1456,-0.4291 4.391,-0.7803 4.9961,-0.7812 z m 16.0937,0 0,1.248 c -9e-4,1.4649 -0.9624,1.4644 -4.375,0 l -2.5,-1.0742 3.4375,-0.088 3.4375,-0.086 z m 73.9063,8.4883 0.7558,0.7558 0.7559,0.7559 -2.3965,-0.1 -2.3965,-0.1 1.6407,-0.6563 1.6406,-0.6562 z m 6.0937,0.2617 3.75,0 3.75,0 0,1.875 c 0,1.0312 -0.4218,1.7971 -0.9375,1.7031 -0.5156,-0.094 -2.2031,-0.4131 -3.75,-0.7109 l -2.8125,-0.5411 0,-1.164 0,-1.1621 z m 11.3321,0.1074 1.8339,0.7051 c 1.0093,0.3872 1.834,1.2063 1.834,1.8203 0,1.204 -0.9666,1.2837 -3.4433,0.2851 l -1.5723,-0.6328 0.6738,-1.0879 0.6739,-1.0898 z m 12.4179,1.9746 0.834,0.834 0.834,0.834 -1.668,0 -1.666,0 0.834,-0.834 0.832,-0.834 z m -24.0547,2.916 1.7149,0.018 c 3.1905,0.032 7.3398,1.5181 7.3398,2.6289 l 0,1.1035 -2.9707,0 -2.9726,0 -1.5567,-1.875 -1.5547,-1.875 z m 27.4629,0.1934 5.4844,0.6308 c 3.016,0.3476 6.2507,0.8746 7.1875,1.17 l 1.7031,0.5371 -1.2851,1.5468 -1.2832,1.5489 -8.5235,-0.2442 -8.5215,-0.2441 -1.8964,1.6152 c -2.5428,2.1657 -5.0235,3.5376 -5.0235,2.7774 0,-0.3395 0.5598,-2.0861 1.2422,-3.8809 l 1.2402,-3.2637 1.5723,0.2578 c 0.8645,0.1417 3.0414,-0.3527 4.8379,-1.0976 l 3.2656,-1.3535 z m 40.0254,6.0137 2.0332,0.7812 c 2.5802,0.9903 2.6053,2.5257 0.057,3.5039 -2.7225,1.0447 -4.0065,0.9514 -4.8106,-0.3496 l -0.6836,-1.1074 1.7012,-1.4141 1.7031,-1.414 z m -32.1836,0.8769 0.834,0.834 0.834,0.834 -1.668,0 -1.666,0 0.834,-0.834 0.832,-0.834 z m 38.75,0 0.834,0.834 0.834,0.834 -1.668,0 -1.666,0 0.834,-0.834 0.832,-0.834 z m -52.5,2.918 c 0.6875,0 1.25,0.5625 1.25,1.25 0,0.6875 -0.5625,1.25 -1.25,1.25 -0.6875,0 -1.25,-0.5625 -1.25,-1.25 0,-0.6875 0.5625,-1.25 1.25,-1.25 z m -5,0.832 0.834,0.834 0.834,0.834 -1.668,0 -1.666,0 0.834,-0.834 0.832,-0.834 z m 10,0.5801 c 0.5664,0 1.1329,0.086 1.5625,0.2597 l 1.5625,0.629 -3.125,0 -3.125,0 1.5625,-0.629 c 0.4297,-0.1733 0.9961,-0.2597 1.5625,-0.2597 z m 7.5,6.9199 0.834,0.834 0.834,0.834 -1.668,0 -1.666,0 0.834,-0.834 0.832,-0.834 z m 23.125,3.9805 c 0.6532,0 1.3905,0.6047 1.6367,1.3437 l 0.4473,1.3438 -2.084,0 -2.082,0 0.4473,-1.3438 c 0.2462,-0.739 0.9816,-1.3437 1.6347,-1.3437 z m -34.375,2.6875 1.0977,0 c 0.6033,0 1.7965,0.8438 2.6523,1.875 l 1.5567,1.875 -2.6524,0 -2.6543,0 0,-1.875 0,-1.875 z m 15,9.582 0.834,0.834 0.834,0.834 -1.668,0 -1.666,0 0.834,-0.834 0.832,-0.834 z m -7.5,5 0.7559,0.7559 c 0.4154,0.4154 0.5178,1.4655 0.2285,2.3339 l -0.5254,1.5801 -0.9785,-1.5859 -0.9805,-1.584 0.75,-0.75 0.75,-0.75 z m -7.3515,9.166 0,0 -0.8828,1.5625 -0.8809,1.5625 1.6836,-1.5625 1.6816,-1.5625 3.0098,0 3.0078,0 -0.7598,1.9824 -0.7617,1.9824 5.3145,-0.4199 5.3144,-0.4199 -0.3437,2.0918 -0.3457,2.0937 2.5332,0.8028 c 1.3932,0.4423 2.5312,1.3295 2.5312,1.9707 l 0,1.166 1.875,0 1.875,0 0,1.248 0,1.2481 -1.5625,-0.1485 c -0.8593,-0.082 -3.5312,-0.8942 -5.9375,-1.8047 -2.4062,-0.9104 -5.5492,-1.6875 -6.9863,-1.7265 -1.437,-0.039 -6.1837,-1.8548 -10.5469,-4.0352 l -7.9336,-3.9629 2.4219,-0.9492 c 1.3315,-0.5214 3.1567,-0.9861 4.0566,-1.0351 l 1.6368,-0.086 z m 6.0234,10.627 0.039,3.4375 0.039,3.4375 -1.875,0 c -2.3663,0 -2.3775,-1.3575 -0.039,-4.4492 l 1.8359,-2.4258 z m -18.0469,0.7148 0,0 4.2754,0.2675 4.2793,0.2657 0.5117,1.5605 0.5137,1.5606 -1.041,-0.055 c -0.5729,-0.031 -2.7305,-0.8536 -4.793,-1.8281 l -3.7461,-1.7715 0,0 0,0 z m 23.1992,3.6602 2.4258,0 0,1.1152 c 0,0.614 -0.889,1.4577 -1.9765,1.875 -2.4403,0.9362 -2.4272,0.9363 -3.4043,-0.041 l -0.8008,-0.7988 0.666,-1.0762 c 0.3656,-0.5916 1.7554,-1.0742 3.0898,-1.0742 z m -35.2207,7.5 1.9493,0 1.9472,0 0,1.25 c 0,0.6875 -0.5288,1.25 -1.1758,1.25 -0.6469,0 -1.5243,-0.5625 -1.9492,-1.25 l -0.7715,-1.25 z m 30.1465,3.332 0.834,0.834 0.834,0.834 -1.668,0 -1.666,0 0.834,-0.834 0.832,-0.834 z m 8.2852,0.2246 4.1992,0.4082 4.1992,0.4102 0.5117,1.5625 0.5137,1.5625 -3.0762,0 -3.0761,0 -1.6368,-1.9727 -1.6347,-1.9707 z m 16.7148,3.9434 1.875,0 1.875,0 0,1.25 0,1.25 -1.875,0 -1.875,0 0,-1.25 0,-1.25 z m -31.25,2.5 1.9492,0 1.9493,0 -0.7735,1.25 c -0.4248,0.6875 -1.3003,1.25 -1.9472,1.25 -0.647,0 -1.1778,-0.5625 -1.1778,-1.25 l 0,-1.25 z m 138.625,2.4297 -1.1875,0.7324 -1.1875,0.7344 0,4.7187 c 0,2.5948 0.4074,5.1244 0.9043,5.6211 l 0.9024,0.9023 1.5976,-2.1835 c 1.9404,-2.6538 2.0163,-4.8362 0.2832,-8.0743 l -1.3125,-2.4511 z m -140.0215,1.3203 1.3243,0 c 0.728,0 1.3222,0.5625 1.3222,1.25 0,0.6875 -0.2476,1.25 -0.5508,1.25 -0.3031,0 -0.8993,-0.5625 -1.3242,-1.25 l -0.7715,-1.25 z m -11.1035,7.3515 1.2715,0.7852 1.2695,0.7851 -0.7187,1.1641 c -0.3955,0.64 -1.2159,1.1641 -1.8223,1.1641 -0.6063,0 -1.4248,-0.5241 -1.8203,-1.1641 l -0.7187,-1.1641 1.2695,-0.7851 1.2695,-0.7852 z m 5,0.1485 c 0.6875,0 1.25,0.5625 1.25,1.25 0,0.6875 -0.5625,1.25 -1.25,1.25 -0.6875,0 -1.25,-0.5625 -1.25,-1.25 0,-0.6875 0.5625,-1.25 1.25,-1.25 z m -19.9902,2.3183 2.0937,0.4024 2.0938,0.4043 -0.1289,1.2187 c -0.072,0.6703 -0.6659,1.3972 -1.3203,1.6153 l -1.1895,0.3964 -0.7734,-2.0195 -0.7754,-2.0176 z m 34.9902,5.1817 c 0.6875,0 1.25,0.5625 1.25,1.25 0,0.6875 -0.5625,1.25 -1.25,1.25 -0.6875,0 -1.25,-0.5625 -1.25,-1.25 0,-0.6875 0.5625,-1.25 1.25,-1.25 z m 2.1973,11.1953 3.2773,1.2461 c 3.701,1.4071 4.234,3.1725 1.2989,4.2988 -2.7943,1.0722 -3.5066,0.9697 -6.0215,-0.8691 l -2.2266,-1.6289 1.836,-1.5235 1.8359,-1.5234 z m 14.0527,0.8867 0.834,0.834 0.834,0.834 -1.668,0 -1.666,0 0.834,-0.834 0.832,-0.834 z m -28.75,1.25 0.834,0.834 0.834,0.834 -0.834,0.832 -0.834,0.834 0,-1.666 0,-1.668 z m -6.1797,4.8477 2.0782,1.3125 c 1.1433,0.7212 2.3002,1.9729 2.5703,2.7832 l 0.4902,1.4726 -1.041,-0.078 c -0.5729,-0.044 -2.4031,-0.6242 -4.0664,-1.2891 l -3.0235,-1.207 1.4961,-1.498 1.4961,-1.4961 z m 27.4297,3.0703 1.1485,0 c 2.1629,0 5.1015,1.5163 5.1015,2.6328 l 0,1.1172 -3.125,0 -3.125,0 0,-1.875 0,-1.875 z m -16.25,6.084 3.3418,0.3945 3.3418,0.3965 0.5117,1.5625 0.5137,1.5625 -3.0215,0 c -3.168,0 -4.6875,-0.9065 -4.6875,-2.793 l 0,-1.123 z m 11.25,3.498 0.834,0.834 0.834,0.834 -1.668,0 -1.666,0 0.834,-0.834 0.832,-0.834 z m -38.75,9.16797 2.5,0 2.5,0 0,1.25 0,1.25 -2.5,0 -2.5,0 0,-1.25 0,-1.25 z m -21.3965,2.5 1.25,0 c 0.6875,0 1.5967,0.5625 2.0215,1.25 l 0.7735,1.25 -1.25,0 c -0.6875,0 -1.5986,-0.5625 -2.0235,-1.25 l -0.7715,-1.25 z m 45,1.25 1.3243,0 c 0.728,0 1.3222,0.5625 1.3222,1.25 0,0.6875 -0.2476,1.25 -0.5508,1.25 -0.3031,0 -0.8993,-0.5625 -1.3242,-1.25 l -0.7715,-1.25 z m -16.1035,10 3.75,0 3.75,0 0,1.1152 c 0,0.614 -0.889,1.4577 -1.9765,1.875 -1.0875,0.4173 -2.3995,0.7598 -2.9161,0.7598 -1.2477,0 -2.6074,-1.4125 -2.6074,-2.709 l 0,-1.041 z m 40.1563,0.9883 0.7558,0.7558 0.7559,0.7559 -2.3965,-0.1 -2.3965,-0.1 1.6407,-0.6563 1.6406,-0.6562 z m -21.5528,2.7617 1.3243,0 c 0.728,0 1.3222,0.5625 1.3222,1.25 0,0.6875 -0.2476,1.25 -0.5508,1.25 -0.3031,0 -0.8993,-0.5625 -1.3242,-1.25 l -0.7715,-1.25 z m -12.9785,6.3847 3.125,2.4043 3.125,2.4043 -3.3633,0.027 -3.3632,0.029 -0.8399,-1.3594 -0.8398,-1.3594 1.0781,-1.0742 1.0781,-1.0723 z m -10.625,16.1153 1.875,0 1.875,0 0,1.25 0,1.25 -1.875,0 -1.875,0 0,-1.25 0,-1.25 z m 22.3711,0 1.0332,0 -0.5976,3.125 c -0.5908,3.0906 -1.6465,3.8654 -3.1778,2.334 l -0.789,-0.7891 1.25,-2.3359 c 0.6875,-1.2846 1.7132,-2.334 2.2812,-2.334 z m -1.1211,10.832 0.834,0.834 0.834,0.834 -0.834,0.832 -0.834,0.834 0,-1.666 0,-1.668 z m -16.25,2.918 2.3477,0 2.3476,0 1.5547,1.875 1.5567,1.875 -3.0703,0 c -3.1679,0 -4.7364,-0.8975 -4.7364,-2.709 l 0,-1.041 z m -1.25,13.75 c 0.6875,0 1.25,0.5625 1.25,1.25 0,0.6875 -0.5625,1.25 -1.25,1.25 -0.6875,0 -1.25,-0.5625 -1.25,-1.25 0,-0.6875 0.5625,-1.25 1.25,-1.25 z m -5,8.332 0.834,0.834 0.834,0.834 -1.668,0 -1.666,0 0.834,-0.834 0.832,-0.834 z m -2.6465,11.668 1.3243,0 c 0.728,0 1.3222,0.5625 1.3222,1.25 0,0.6875 -0.2476,1.25 -0.5508,1.25 -0.3031,0 -0.8993,-0.5625 -1.3242,-1.25 l -0.7715,-1.25 z m -2.4257,6.25 c 0.6469,0 1.5224,0.5625 1.9472,1.25 l 0.7735,1.25 -1.9493,0 -1.9492,0 0,-1.25 c 0,-0.6875 0.5308,-1.25 1.1778,-1.25 z m 36.3222,23.334 0.834,0.832 0.834,0.834 -1.668,0 -1.666,0 0.834,-0.834 0.832,-0.832 z m -10.4101,8.0019 c 0.4495,0.031 1.1359,0.2718 2.1836,0.6738 1.0875,0.4172 1.9765,1.261 1.9765,1.875 l 0,1.1153 -2.5,0 -2.5,0 0,-1.875 c 0,-1.315 0.091,-1.8412 0.8399,-1.7891 z m 34.1601,6.9981 0.834,0.832 0.834,0.834 -1.668,0 -1.666,0 0.834,-0.834 0.832,-0.832 z m 3.75,0 0.834,0.832 0.834,0.834 -1.668,0 -1.666,0 0.834,-0.834 0.832,-0.832 z m -37.5,12.5 0.834,0.832 0.834,0.834 -1.668,0 -1.666,0 0.834,-0.834 0.832,-0.832 z m 8.9063,1.4043 0,0 0.7558,0.7539 0.7559,0.7539 -2.3965,-0.098 -2.3965,-0.1 1.6407,-0.6563 1.6406,-0.6562 z m -6.4063,6.0957 0.834,0.832 0.834,0.834 -1.668,0 -1.666,0 0.834,-0.834 0.832,-0.832 z m -6.25,2.916 1.7735,0 c 2.7106,0 5.7265,1.3881 5.7265,2.6347 l 0,1.1153 -3.75,0 -3.75,0 0,-1.875 0,-1.875 z m -1.0801,7.7968 0,0 c 1.4377,0.1769 3.5774,1.3839 3.5801,2.334 l 0,1.1152 -1.8008,0 c -1.8764,0 -3.8703,-2.2448 -2.8769,-3.2383 0.218,-0.218 0.6181,-0.2719 1.0976,-0.2129 z m 7.4864,0.6915 0,0 0.7558,0.7539 0.7559,0.7539 -2.3965,-0.098 -2.3965,-0.1 1.6407,-0.6563 1.6406,-0.6562 z m 1.0937,10.2617 c 0.6875,0 1.25,0.5625 1.25,1.25 0,0.6875 -0.5625,1.25 -1.25,1.25 -0.6875,0 -1.25,-0.5625 -1.25,-1.25 0,-0.6875 0.5625,-1.25 1.25,-1.25 z m -6.25,10 c 0.6875,0 1.25,0.5625 1.25,1.25 0,0.6875 -0.5625,1.25 -1.25,1.25 -0.6875,0 -1.25,-0.5625 -1.25,-1.25 0,-0.6875 0.5625,-1.25 1.25,-1.25 z m 5,0 2.5,0 2.5,0 0,1.25 0,1.25 -2.5,0 -2.5,0 0,-1.25 0,-1.25 z m -5.1074,22.1914 1.9297,0.7402 c 1.0608,0.4071 1.9277,1.3203 1.9277,2.0293 l 0,1.2891 -1.8008,0 c -0.9906,0 -2.1719,-0.6008 -2.625,-1.334 l -0.8242,-1.332 0.6973,-0.6973 0.6953,-0.6953 z"
       id="path10972" />
  </g>
</svg>
