<?xml version="1.0" encoding="UTF-8" standalone="no"?>
<!-- Created with Inkscape (http://www.inkscape.org/) -->

<svg
   xmlns:dc="http://purl.org/dc/elements/1.1/"
   xmlns:cc="http://creativecommons.org/ns#"
   xmlns:rdf="http://www.w3.org/1999/02/22-rdf-syntax-ns#"
   xmlns:svg="http://www.w3.org/2000/svg"
   xmlns="http://www.w3.org/2000/svg"
   xmlns:sodipodi="http://sodipodi.sourceforge.net/DTD/sodipodi-0.dtd"
   xmlns:inkscape="http://www.inkscape.org/namespaces/inkscape"
   width="210mm"
   height="297mm"
   viewBox="0 0 744.09448819 1052.3622047"
   id="svg4143"
   version="1.1"
   inkscape:version="0.91 r13725"
   sodipodi:docname="U.svg">
  <defs
     id="defs4145" />
  <sodipodi:namedview
     id="base"
     pagecolor="#ffffff"
     bordercolor="#666666"
     borderopacity="1.0"
     inkscape:pageopacity="0.0"
     inkscape:pageshadow="2"
     inkscape:zoom="0.35"
     inkscape:cx="-145"
     inkscape:cy="520"
     inkscape:document-units="px"
     inkscape:current-layer="layer1"
     showgrid="false"
     inkscape:window-width="1920"
     inkscape:window-height="1055"
     inkscape:window-x="0"
     inkscape:window-y="25"
     inkscape:window-maximized="1" />
  <metadata
     id="metadata4148">
    <rdf:RDF>
      <cc:Work
         rdf:about="">
        <dc:format>image/svg+xml</dc:format>
        <dc:type
           rdf:resource="http://purl.org/dc/dcmitype/StillImage" />
        <dc:title></dc:title>
      </cc:Work>
    </rdf:RDF>
  </metadata>
  <g
     inkscape:label="Layer 1"
     inkscape:groupmode="layer"
     id="layer1">
    <path
       inkscape:connector-curvature="0"
       style="fill:#000000"
       d="m 252.04069,193.70149 0,2.291 c 0,1.2605 0.3736,2.6668 0.832,3.125 0.4582,0.4584 2.3955,0.834 4.3027,0.834 l 3.4668,0 0.7735,-1.25 0.7715,-1.25 -2.42,0 -2.4218,0 -1.5547,-1.875 c -0.8559,-1.0312 -2.051,-1.875 -2.6543,-1.875 l -1.0957,0 z m 22.5,0.832 -0.834,0.834 -0.834,0.834 1.668,0 1.666,0 -0.834,-0.834 -0.832,-0.834 z m 23.6308,0.7949 c -5.078,0.019 -8.9326,0.1361 -10.8183,0.3692 l -5.3125,0.6562 0,1.086 0,1.0878 2.8125,0.5411 c 1.5469,0.2978 18.3882,0.6169 37.4258,0.7109 l 34.6132,0.1699 0.7735,-1.25 0.7715,-1.25 -1.6368,-0.1172 c -17.1486,-1.2363 -43.3946,-2.0613 -58.6289,-2.0039 z m -7.6152,18.3731 -0.6035,2.3027 -0.6016,2.3027 -6.4687,-0.3281 c -3.5575,-0.1805 -7.7662,-0.3727 -9.3535,-0.4277 l -2.8868,-0.1 0.7735,-1.25 0.7715,-1.25 -1.3243,0 c -0.728,0 -1.3222,0.5625 -1.3222,1.25 l 0,1.25 -6.1074,0 -6.1075,0 -3.58,-1.8672 c -4.7779,-2.4918 -7.5071,-2.3643 -12.2618,0.5742 l -3.9765,2.457 -1.709,3.1934 -1.707,3.1934 1.5234,1.5234 1.5234,1.5234 12.2129,0 12.2149,0 3.5039,-2.2949 3.5019,-2.2949 3.9043,0.5723 3.9024,0.5722 2.2109,-1.3789 2.209,-1.3809 2.1836,1.5567 c 1.2007,0.856 3.5899,2.1658 5.3086,2.9101 l 3.125,1.3536 4.7832,-0.627 4.7851,-0.625 2.4043,-2.1758 2.4063,-2.1777 4.2148,2.2715 4.2168,2.2695 21.7188,-0.7168 21.7207,-0.7168 30.625,1.0547 30.625,1.0566 13.125,1.9317 c 7.2188,1.062 15.375,2.0909 18.125,2.2871 5.323,0.3797 7.9329,-0.06 10.0781,-1.6992 l 1.3301,-1.0156 12.4199,-1.1856 c 6.8314,-0.6521 14.3245,-1.665 16.6504,-2.25 l 4.2285,-1.0625 -2,-1.6602 -2,-1.6601 -15.3535,-0.9961 -15.3535,-0.9981 -1.5821,1.2852 -1.58,1.2832 -9.045,-1.4394 -9.0429,-1.4375 -30.4297,-0.5137 c -16.7364,-0.2823 -30.7527,-0.8367 -31.1465,-1.2305 -0.3939,-0.3937 -2.5576,-0.7148 -4.8086,-0.7148 l -4.0937,0 -0.7071,1.1425 -0.707,1.1446 -9.5859,-0.2383 -9.586,-0.2383 -0.5097,-1.5312 -0.5098,-1.5293 -1.6172,0 c -0.8897,0 -2.3179,0.8438 -3.1738,1.875 l -1.5567,1.875 -7.0976,0 -7.0957,0 -1.4473,-1.4473 -1.4473,-1.4473 -1.9511,1.6192 -1.9512,1.6191 -2.2637,-2.0469 -2.2617,-2.0468 -2.4023,0.043 c -1.3208,0.024 -3.8066,0.8496 -5.5254,1.8321 -1.7187,0.9825 -4.1164,1.805 -5.3262,1.8301 l -2.1992,0.045 -2.1406,-2.5 -2.1407,-2.5 -2.3398,0 -2.3379,0 z m 297.6523,10 c -0.7327,0 -2.4257,0.5838 -3.7617,1.2988 l -2.4297,1.3008 0.7168,2.8555 0.7168,2.8554 -1.955,1.6231 -1.9551,1.6211 0,2.7636 c 0,1.52 0.393,3.1586 0.875,3.6407 0.4822,0.4821 1.7478,0.7112 2.8125,0.5097 l 1.9375,-0.3652 0.3769,-3.7402 c 0.2074,-2.0565 1.1917,-5.5114 2.1875,-7.6778 0.9956,-2.1665 1.8106,-4.5571 1.8106,-5.3125 l 0,-1.373 -1.3321,0 z m -118.6679,7.084 -0.834,0.832 -0.834,0.834 1.668,0 1.666,0 -0.834,-0.834 -0.832,-0.832 z m 91.875,2.7421 -22.2227,0.8868 c -20.1075,0.8013 -24.4308,1.3144 -19.4551,2.3105 0.9224,0.1846 3.0841,0.7054 4.8028,1.1582 1.7188,0.4528 8.0584,1.361 14.0879,2.0176 l 10.9609,1.1933 2.7891,2.004 2.7871,2.0019 5,-0.7637 c 2.75,-0.4201 5.5344,-1.2968 6.1875,-1.9492 l 1.1875,-1.1855 -1.4024,-1.4024 -1.4023,-1.4023 0.5976,-1.5625 0.5997,-1.5606 -2.2598,-0.873 -2.2578,-0.8731 z m 0,22.502 -13.125,0.9609 c -7.2187,0.5285 -18.4687,1.093 -25,1.2539 -6.5312,0.1609 -12.6118,0.33 -13.5117,0.375 l -1.6368,0.082 0.67,1.084 c 0.6742,1.0907 2.5033,1.4452 21.9785,4.2656 l 10.625,1.539 2.5,1.584 2.5,1.586 5.9511,-0.6993 c 3.274,-0.3845 6.7896,-1.0215 7.8126,-1.414 l 1.8613,-0.7129 0,-2.3672 0,-2.3652 -2.5,0 c -3.0783,0 -3.1751,-1.0474 -0.3125,-3.3848 l 2.1875,-1.7871 z m -6.875,6.4219 c 0.6875,0 1.25,0.5625 1.25,1.25 0,0.6875 -0.5625,1.25 -1.25,1.25 -0.6875,0 -1.25,-0.5625 -1.25,-1.25 0,-0.6875 0.5625,-1.25 1.25,-1.25 z m -175.9375,4.6113 -2.1719,0.834 -2.1719,0.834 1.5664,1.8886 1.5664,1.8868 9.1973,-0.3399 9.1973,-0.3398 0,-0.9375 0,-0.9375 -4.5996,0 c -2.5294,0 -6.3953,-0.6511 -8.5918,-1.4453 l -3.9922,-1.4434 z m -156.416,17.8867 -1.002,1.5625 -1.0019,1.5625 0.3808,46.875 0.3809,46.875 -1.2656,8.75 c -1.3361,9.23192 -2.1691,24.21552 -3.2344,58.12502 -0.3564,11.3438 -0.9495,26.8125 -1.3164,34.375 -0.3669,7.5625 -0.9069,23.0671 -1.2012,34.4531 -0.2942,11.3858 -0.8002,21.5108 -1.123,22.5 -0.3228,0.989 -0.9397,11.3594 -1.3711,23.0469 -0.4313,11.6875 -1.0043,22.375 -1.2735,23.75 -0.2694,1.375 -0.8177,9.8125 -1.2187,18.75 l -0.7285,16.25 1.3378,6.25 c 0.7365,3.4375 1.8713,11.2873 2.5215,17.4434 l 1.1836,11.1933 3.0274,10.6817 c 1.6653,5.8751 3.2953,11.8968 3.6211,13.3808 l 0.5918,2.6973 -1.0176,5.4277 -1.0156,5.4258 1.9296,6.25 c 1.0612,3.4375 3.3309,9.1861 5.045,12.7735 l 3.1172,6.5214 6.164,7.6817 c 3.3901,4.2241 7.2928,9.7255 8.6738,12.2265 1.381,2.5009 4.8797,7.8742 7.7754,11.9395 l 5.2657,7.3906 4.3652,1.5762 c 2.4011,0.8668 6.334,1.6388 8.7402,1.7148 5.2392,0.1672 15.9985,2.7138 23.75,5.6211 3.0938,1.1603 9.2813,3.2614 13.75,4.668 l 8.125,2.5566 6.25,4.0098 c 11.329,7.2681 12.6914,7.9858 16.3633,8.6113 2.0006,0.341 10.668,0.3567 19.2617,0.037 8.5938,-0.3195 21.25,-0.7728 28.125,-1.0097 l 12.5,-0.4317 8.75,-3.0898 c 15.469,-5.4644 29.7924,-11.1161 38.0684,-15.0215 l 8.0664,-3.8066 11.0156,-10.6192 11.0156,-10.6191 2.7539,-4.4902 c 1.5138,-2.4694 3.2254,-5.0528 3.8047,-5.7403 4.8211,-5.722 16.3067,-22.1086 17.961,-25.625 1.1319,-2.4062 3.3297,-5.9027 4.8828,-7.7695 l 2.8223,-3.3926 0.8867,-5.3574 c 0.4875,-2.9457 1.241,-5.918 1.6738,-6.6055 0.4327,-0.6875 1.7436,-4.9062 2.9141,-9.375 5.5756,-21.2882 6.6056,-24.7376 8.875,-29.7637 l 2.4316,-5.3886 -0.8867,-7.1114 c -1.4532,-11.6372 -1.6284,-20.4079 -0.5664,-28.3613 0.5508,-4.125 1.1233,-14.25 1.2715,-22.5 0.2345,-13.0453 1.0359,-25.6356 4.2168,-66.25 1.2052,-15.3885 1.7907,-21.039 3.1777,-30.625 0.746,-5.1562 1.5398,-14.2331 1.7637,-20.1719 0.224,-5.9386 0.7214,-11.3063 1.1054,-11.9277 0.8702,-1.408 1.9433,-21.4564 2.7637,-51.6504 l 0.627,-23.12502 1.2421,-6.8906 1.2422,-6.8906 -0.207,-18.7344 -0.207,-18.7344 1.5508,-13.75 1.5507,-13.75 -1.2812,-3.3515 -1.2813,-3.3516 -6.0019,-0.9922 -6.002,-0.9941 -23.75,0.019 c -13.0625,0.011 -27.847,0.1873 -32.8554,0.3926 l -9.1055,0.373 -1.7676,2.7031 -1.7676,2.7012 -0.016,26.875 c -0.01,14.7812 -0.6424,39.25 -1.4082,54.375 -1.5299,30.21402 -2.6653,79.13382 -3.1328,134.93362 -0.1668,19.9006 -0.6336,39.3068 -1.0352,43.125 -0.4017,3.8181 -1.0876,13.1289 -1.5254,20.6914 -0.8125,14.0379 -1.3639,17.9307 -4.8691,34.375 l -1.998,9.375 -3.6016,7.5 c -1.9806,4.125 -5.3887,12 -7.5742,17.5 l -3.9746,10 -5.8086,7.7324 -5.8106,7.7305 -5.3086,2.668 c -2.9202,1.4672 -6.1558,3.5152 -7.1914,4.5508 -1.0356,1.0358 -5.0896,3.8123 -9.0078,6.1718 l -7.125,4.291 -4.3203,-0.8124 -4.3203,-0.8106 -1.6152,2.209 -1.6153,2.209 -5.373,1.1582 c -2.9548,0.6368 -8.2528,1.4733 -11.7735,1.8594 l -6.4004,0.7011 -0.8613,-1.3906 -0.8594,-1.3926 -2.9355,0 -2.9356,0 -6.0527,-3.2265 c -11.4809,-6.121 -17.7306,-9.9104 -22.5098,-13.6485 -8.3318,-6.517 -22.9067,-22.5206 -22.9257,-25.1719 0,-0.5933 -0.8396,-2.6712 -1.8555,-4.6191 -1.016,-1.9477 -2.4017,-5.604 -3.0801,-8.125 l -1.2344,-4.584 -0.791,-21.25 c -0.4353,-11.6875 -1.0663,-26.665 -1.4023,-33.2851 l -0.6113,-12.0371 2.0859,-12.2403 2.084,-12.2383 -0.8145,-10.0996 c -0.4478,-5.5544 -0.9333,-14.212 -1.0801,-19.2383 l -0.2675,-9.1367 -1.8262,-1.1758 -1.8262,-1.1738 1.8594,-1.1933 1.8574,-1.1934 0.7422,-9.1191 0.7402,-9.1192 -1.2675,-1.6562 -1.2696,-1.6582 1.3848,-0.8575 1.3848,-0.8554 0.6269,-18.7364 c 0.3452,-10.3048 0.9285,-19.58 1.2949,-20.6113 0.3662,-1.0312 0.8972,-7.7812 1.1797,-15 0.6945,-17.7369 3.1188,-49.76112 4.6367,-61.25002 0.6811,-5.1562 1.7852,-18.375 2.4532,-29.375 l 1.2148,-20 1.2891,-4.5508 1.291,-4.5507 -1.1856,-3.1172 -1.1855,-3.1192 -8.2988,-1.4453 -8.2989,-1.4453 -17.0996,-0.5996 c -19.4281,-0.6825 -28.9742,-1.9678 -35.7968,-4.8184 -2.603,-1.0876 -5.7554,-1.9785 -7.0059,-1.9785 l -2.2734,0 z m 157.5761,7.2988 -2.9121,0.4141 -2.9101,0.4141 -0.4375,2.289 -0.4356,2.2891 2.9102,-0.4141 2.9121,-0.414 0.4355,-2.2891 0.4375,-2.2891 z m -120.6093,53.5665 1.4433,0.8906 c 0.7938,0.4905 1.4414,1.1401 1.4414,1.4433 0,1.0427 -1.1036,0.5484 -1.9941,-0.8925 l -0.8906,-1.4414 z m 10.2773,20.0761 1.9297,0.7403 c 1.0609,0.4071 1.9277,1.3203 1.9277,2.0293 0,1.5885 -1.2933,1.6178 -3.7129,0.088 l -1.8379,-1.1621 0.8457,-0.8476 0.8477,-0.8477 z m 1.3574,13.9121 1.25,0.7715 c 0.6875,0.4249 1.25,1.021 1.25,1.3242 0,0.3032 -0.5625,0.5508 -1.25,0.5508 -0.6875,0 -1.25,-0.5942 -1.25,-1.3222 l 0,-1.3243 z m -15,70.14652 1.9492,0 1.9493,0 -0.7735,1.25 c -0.4248,0.6875 -1.3004,1.25 -1.9472,1.25 -0.647,0 -1.1778,-0.5625 -1.1778,-1.25 l 0,-1.25 z m 112.1856,102.3789 -2.0293,0.4219 -2.0313,0.4219 0.3614,2.4511 c 0.3186,2.163 0.28,20.7047 -0.057,27.4512 -0.068,1.375 0.026,4.75 0.211,7.5 l 0.3359,5 1.0547,-3.75 c 0.5802,-2.0625 1.6486,-10.8889 2.375,-19.6152 l 1.3203,-15.8672 -0.7695,-2.0059 -0.7715,-2.0078 z m 99.0644,11.1641 1.5625,0.5195 1.5625,0.5215 0,2.291 0,2.293 -1.5625,0.5195 -1.5625,0.5215 0,-3.334 0,-3.332 z m -3.8965,48.957 1.25,0 c 0.6875,0 1.5967,0.5625 2.0215,1.25 l 0.7735,1.25 -1.25,0 c -0.6875,0 -1.5986,-0.5625 -2.0235,-1.25 l -0.7715,-1.25 z m -183.6035,17.3262 2.7149,0.4004 2.7148,0.3984 0.5156,1.5625 0.5137,1.5625 -1.666,-0.1 c -2.7291,-0.1617 -4.793,-1.2787 -4.793,-2.5937 l 0,-1.2305 z m 171.875,21.0019 4.375,0.9317 c 2.4063,0.5117 4.9375,1.0415 5.625,1.1777 0.6875,0.136 3.0782,1.0051 5.3125,1.9317 l 4.0625,1.6855 0,1.7227 0,1.7226 -2.3457,0 -2.3476,0 -1.4473,-1.7441 -1.4473,-1.7442 -4.205,-0.789 -4.2051,-0.7891 -1.6875,-2.0527 -1.6895,-2.0528 z m -93.9687,0.3047 -1.5391,1.8555 -1.5391,1.8535 1.3809,2.5801 c 0.7593,1.4189 1.9225,2.5801 2.5859,2.5801 l 1.2051,0 -0.018,-2.8125 c -0.01,-1.5469 -0.483,-3.5417 -1.0488,-4.4336 l -1.0273,-1.6231 z m 93.3437,4.9102 0,1.9785 0,1.9785 -1.9785,0 -1.9785,0 0.4941,-1.4844 c 0.2722,-0.8163 1.162,-1.7064 1.9786,-1.9785 l 1.4843,-0.4941 z m -201.25,1.457 1.875,0 1.875,0 0,1.25 0,1.25 -1.875,0 -1.875,0 0,-1.25 0,-1.25 z m 207.5,2.5 1.8028,0 c 0.9906,0 2.1474,0.5625 2.5722,1.25 l 0.7735,1.25 -2.5743,0 -2.5742,0 0,-1.25 0,-1.25 z m -13.75,15.834 0.834,0.834 0.834,0.832 -0.834,0.834 -0.834,0.834 0,-1.668 0,-1.666 z m 31.25,5 0.834,0.834 0.834,0.832 -0.834,0.834 -0.834,0.834 0,-1.668 0,-1.666 z m 116.0274,70.2949 -1.7305,1.4375 -1.7305,1.4356 -0.7812,4.1679 -0.7813,4.168 0.8223,1.332 c 0.4525,0.7321 1.5984,1.3301 2.5469,1.3301 l 1.7246,0 0.8301,-5.5351 0.83,-5.5371 -0.8652,-1.3985 -0.8652,-1.4004 z m -23.9024,8.7891 -2.9258,2.748 -2.9277,2.75 0.709,8.8555 c 0.3898,4.8701 1.2897,11.9103 2,15.6445 l 1.291,6.7891 1.2793,-2.2832 1.2773,-2.2832 0.3204,-9.0117 0.3203,-9.0137 1.4609,-2.7285 1.459,-2.7285 -0.8457,-2.7657 c -0.466,-1.5209 -1.4262,-3.4869 -2.1328,-4.3691 l -1.2852,-1.6035 z m 24.2012,13.207 -0.037,1.9805 c -0.021,1.0886 0.3365,2.3543 0.7949,2.8125 1.525,1.525 1.9142,-0.1971 0.5684,-2.5117 l -1.3262,-2.2813 z m -258.8262,4.375 1.875,0 1.875,0 0,1.25 0,1.25 -1.875,0 -1.875,0 0,-1.25 0,-1.25 z m 195.461,8.6602 -3.668,1.9121 c -2.0173,1.0519 -4.2861,1.9219 -5.043,1.9219 -0.7567,0 -4.9755,2.6913 -9.375,5.9726 -4.3994,3.2814 -11.2269,8.1514 -15.1719,10.8223 -3.9448,2.6709 -8.0766,5.857 -9.1835,7.0801 l -2.0137,2.2246 0.8222,1.3281 0.8204,1.3301 5.4707,0 5.4687,0 3.2832,-1.25 c 1.806,-0.6866 7.3276,-1.5957 12.2696,-2.0215 l 8.9843,-0.7734 2.7871,-1.7403 2.7871,-1.7383 1.9512,-3.7754 1.9512,-3.7734 0.7519,-8.0605 0.7539,-8.0606 -1.8222,-0.6992 -1.8242,-0.6992 z m -329.3164,2.1972 -1.3125,1.3125 -1.3125,1.3125 1.4101,2.6348 1.4102,2.6328 1.83,0 1.8301,0 0,-2.3457 0,-2.3476 -1.9277,-1.5996 -1.9277,-1.5997 z m 331.3183,43.8399 -3.9238,0.7832 -3.9258,0.7851 -4.2402,4.3672 -4.2422,4.3692 7.5898,0 7.5918,0 1.2696,-3.3418 1.2714,-3.3399 -0.6953,-1.8125 -0.6953,-1.8105 z"
       id="path11058" />
  </g>
</svg>
