<?xml version="1.0" encoding="UTF-8" standalone="no"?>
<!-- Created with Inkscape (http://www.inkscape.org/) -->

<svg
   xmlns:dc="http://purl.org/dc/elements/1.1/"
   xmlns:cc="http://creativecommons.org/ns#"
   xmlns:rdf="http://www.w3.org/1999/02/22-rdf-syntax-ns#"
   xmlns:svg="http://www.w3.org/2000/svg"
   xmlns="http://www.w3.org/2000/svg"
   xmlns:sodipodi="http://sodipodi.sourceforge.net/DTD/sodipodi-0.dtd"
   xmlns:inkscape="http://www.inkscape.org/namespaces/inkscape"
   width="210mm"
   height="297mm"
   viewBox="0 0 744.09448819 1052.3622047"
   id="svg4143"
   version="1.1"
   inkscape:version="0.91 r13725"
   sodipodi:docname="V.svg">
  <defs
     id="defs4145" />
  <sodipodi:namedview
     id="base"
     pagecolor="#ffffff"
     bordercolor="#666666"
     borderopacity="1.0"
     inkscape:pageopacity="0.0"
     inkscape:pageshadow="2"
     inkscape:zoom="0.35"
     inkscape:cx="-145"
     inkscape:cy="520"
     inkscape:document-units="px"
     inkscape:current-layer="layer1"
     showgrid="false"
     inkscape:window-width="1920"
     inkscape:window-height="1055"
     inkscape:window-x="0"
     inkscape:window-y="25"
     inkscape:window-maximized="1" />
  <metadata
     id="metadata4148">
    <rdf:RDF>
      <cc:Work
         rdf:about="">
        <dc:format>image/svg+xml</dc:format>
        <dc:type
           rdf:resource="http://purl.org/dc/dcmitype/StillImage" />
        <dc:title></dc:title>
      </cc:Work>
    </rdf:RDF>
  </metadata>
  <g
     inkscape:label="Layer 1"
     inkscape:groupmode="layer"
     id="layer1">
    <path
       inkscape:connector-curvature="0"
       style="fill:#000000"
       d="m 359.01612,237.73818 -2.58,0.3809 -2.5801,0.3828 -0.4629,1.4062 -0.4629,1.4063 6.8926,4.5742 c 3.7905,2.516 13.799,8.1401 22.2402,12.498 8.4411,4.3578 19.0175,9.8232 23.5039,12.1446 4.4864,2.3214 13.2051,6.5408 19.375,9.3769 6.1699,2.8362 17.3711,8.0393 24.8907,11.5625 l 13.6718,6.4063 2.5098,0 2.5117,0 -4.3086,-4.4825 -4.3066,-4.4824 -8.1211,-3.705 c -4.4663,-2.0372 -9.5288,-4.9775 -11.25,-6.5352 l -3.1289,-2.832 -7.25,-2.1914 -7.252,-2.1895 -1.1152,-2.9336 -1.1152,-2.9355 -2.4278,-0.7696 -2.4277,-0.7715 -3.127,1.4258 -3.1269,1.4239 -3.0352,-1.6993 c -1.6689,-0.9342 -5.1066,-3.0198 -7.6406,-4.6347 l -4.6074,-2.9356 0,-1.7519 0,-1.75 -4.4375,0 -4.4375,0 -3.6875,-1.9082 -3.6875,-1.9063 0,-2.4687 c 0,-2.8663 -0.4485,-2.9896 -3.625,-1.0059 l -2.3379,1.4609 -3.9277,-1.6269 -3.9258,-1.625 -2.6016,-3.6543 z m 184.6446,16.1211 1.9863,2.0762 1.9883,2.0761 9.2617,2.3067 c 5.0944,1.2687 13.2012,2.717 18.0137,3.2187 l 8.75,0.9121 6.1387,2.4004 c 3.3769,1.3201 8.1582,2.8783 10.625,3.4629 2.4666,0.5845 5.9259,1.1205 7.6874,1.1895 l 3.2032,0.125 5.2344,-2.5293 5.2363,-2.5293 0,-3.0723 0,-3.0723 -2.8125,-0.6289 c -1.5469,-0.3466 -8.4375,-0.8499 -15.3125,-1.1171 -11.5188,-0.4476 -31.873,-2.0221 -51.875,-4.0118 z m -414.2871,24.0176 -1.295,2.4179 c -0.7117,1.3297 -1.2929,2.9744 -1.2929,3.6543 0,0.68 1.4564,2.9669 3.2363,5.0821 l 3.2344,3.8457 4.2051,0 4.205,0 3.1153,-1.4199 c 1.7134,-0.7808 3.4095,-2.1869 3.7695,-3.125 l 0.6543,-1.7051 -0.9395,0 c -0.5173,0 -3.9955,-1.9687 -7.7304,-4.375 l -6.791,-4.375 -2.1856,0 z m 193.9668,3.75 -1.543,1.8593 -1.543,1.8575 0.7266,1.8925 0.7246,1.8907 1.7773,0 c 0.9767,0 3.0528,-1.0353 4.6133,-2.2989 l 2.836,-2.2968 -0.8965,-1.4532 -0.8985,-1.4511 -2.8984,0 z m 259.5468,2.5 0.8516,1.3769 c 0.4686,0.7581 3.7366,2.722 7.2617,4.3633 3.5252,1.6414 7.6056,2.9831 9.0684,2.9961 l 2.6601,0.014 1.5098,-1.8203 1.5117,-1.8204 -0.7441,-1.2031 -0.7442,-1.2051 -6.3007,-1.3515 c -3.4652,-0.7431 -8.2746,-1.3496 -10.6875,-1.3496 l -4.3868,0 z m -90.4765,8.5957 3.1894,3.2383 c 1.7543,1.7808 4.904,4.2053 7,5.3886 2.0961,1.1833 6.4425,3.8399 9.6582,5.9024 18.3349,11.7591 24.7052,15.6632 29.6504,18.1718 3.0255,1.5348 8.5958,5.4444 12.377,8.6875 3.7813,3.243 7.7188,6.2165 8.75,6.6075 3.1031,1.1765 4.0733,1.0006 6.4629,-1.1621 l 2.2871,-2.0684 0,-3.0098 0,-3.0097 -8.043,-3.6465 c -4.4236,-2.0059 -10.3142,-4.1577 -13.0898,-4.7813 l -5.0469,-1.1328 -3.832,-3.2246 c -2.1074,-1.7732 -7.6076,-5.0026 -12.2227,-7.1777 -4.6153,-2.1753 -9.2343,-4.6798 -10.2656,-5.5645 -3.4554,-2.9645 -19.3331,-11.4288 -23.125,-12.3281 z m 92.0215,17.6543 -0.7657,1.2383 -0.7656,1.2402 3.1348,3.1348 3.1347,3.1347 2.5977,0 2.5957,0 0.7813,-2.0351 0.7793,-2.0352 -3.0059,-2.3125 -3.0078,-2.3125 -2.7403,-0.025 -2.7382,-0.027 z m -318.9571,18.2422 0,0 -5.5078,1.4726 c -4.9476,1.3233 -9.6185,3.3373 -31.3692,13.5196 -10.9921,5.146 -32.6037,11.7108 -42.4277,12.8886 l -6.2363,0.7461 -0.4336,2.2735 -0.4336,2.2734 6.2793,12.3223 c 3.454,6.7764 6.9283,14.7514 7.7207,17.7246 0.7925,2.9733 2.7459,8.2187 4.3398,11.6562 1.594,3.4375 3.9827,9.3437 5.3086,13.125 1.326,3.7812 3.1131,8.8437 3.9727,11.25 0.8595,2.40625 4.2974,12.81255 7.6386,23.12505 3.3413,10.3125 7.5619,22.6875 9.379,27.5 1.8171,4.8125 3.7739,10.1562 4.3476,11.875 0.5737,1.7187 2.2427,6.2187 3.709,10 1.4662,3.7812 3.7909,10.5312 5.168,15 1.3772,4.4687 3.6614,11.5 5.0742,15.625 1.4128,4.125 3.6836,10.875 5.0469,15 1.3635,4.125 3.6073,10.3125 4.9863,13.75 1.379,3.4375 2.9662,8.2187 3.5254,10.625 1.6202,6.9696 4.852,16.4784 6.123,18.0098 0.6422,0.7737 2.5887,5.6169 4.3242,10.7617 4.9761,14.7523 10.3067,29.1897 13.1543,35.627 1.44,3.2555 2.6172,6.468 2.6172,7.1386 0,0.6706 2.8648,7.6902 6.3653,15.5977 3.5005,7.9074 7.9609,18.9585 9.9121,24.5586 3.6051,10.3462 6.2703,17.18 9.33,23.9316 0.9346,2.0625 2.9054,6.8437 4.3809,10.625 1.4756,3.7813 3.4004,8 4.2774,9.375 0.8769,1.375 3.1486,6.4375 5.0468,11.25 1.8983,4.8125 4.4702,10.4375 5.7149,12.5 1.2448,2.0625 3.6718,7.6875 5.3945,12.5 1.7228,4.8125 5.7723,14.6562 8.998,21.875 3.2259,7.2188 7.1883,16.4208 8.8067,20.4473 1.6185,4.0265 4.4124,9.8263 6.207,12.8887 l 3.2617,5.5664 2.7149,1.0957 0,-0.01 c 1.4934,0.6019 3.0665,1.1298 3.498,1.1738 1.3761,0.139 3.3617,-2.9437 4.2989,-6.6777 l 0.9082,-3.6211 -5.002,0.8008 -5.0019,0.7988 -2.2286,-2.4609 -2.2285,-2.4629 1.6016,-1.9297 1.6015,-1.9297 2.0079,1.7539 2.0097,1.7539 4.1641,0.5762 4.166,0.5762 1.6875,-2.6114 c 0.928,-1.4361 2.0704,-4.1704 2.5391,-6.0761 1.0487,-4.2651 23.5745,-48.862 27.2929,-54.0352 1.4825,-2.0625 4.3069,-7.4063 6.2774,-11.875 1.9704,-4.4688 6.6047,-14.3125 10.2988,-21.875 3.6942,-7.5625 6.709,-14.2506 6.709,-14.8633 -0.01,-0.6127 2.8575,-7.3627 6.3633,-15 10.0395,-21.8705 11.1269,-24.4569 11.1269,-26.4883 0,-1.0506 1.072,-4.27 2.3828,-7.1543 6.6075,-14.539 9.2209,-20.7371 10.9082,-25.8691 1.0172,-3.0938 3.1553,-8.1563 4.752,-11.25 l 2.9043,-5.625 1.459,-6.875 c 0.8024,-3.7813 2.2668,-8.5625 3.2558,-10.625 0.9891,-2.0625 3.2022,-7.5304 4.918,-12.1504 l 3.1191,-8.4004 -0.6445,-1.6777 -0.6426,-1.6797 2.543,-2.3027 c 1.3992,-1.2662 2.5449,-3.0015 2.5449,-3.8575 0,-0.856 1.8765,-6.2536 4.1719,-11.9941 5.9452,-14.869 7.2804,-18.6952 7.998,-22.9375 0.3489,-2.0625 1.3604,-4.5938 2.2481,-5.625 0.8876,-1.0313 2.7731,-5.1876 4.1894,-9.2363 l 2.5743,-7.3614 -0.7383,-1.1953 -0.7383,-1.1953 2.6465,-3.5801 c 1.456,-1.9692 2.6484,-4.4008 2.6484,-5.4043 0,-1.0033 0.7699,-3.4168 1.7129,-5.3632 0.943,-1.9462 2.8667,-6.9141 4.2735,-11.0391 1.4069,-4.125 3.7523,-10.5938 5.2128,-14.375 5.6783,-14.7012 8.028,-20.9667 11.2461,-30 1.8369,-5.15635 4.5694,-12.11775 6.0723,-15.47075 1.5029,-3.353 2.7324,-6.8866 2.7324,-7.8516 0,-0.9649 2.25,-5.7251 5,-10.5781 2.75,-4.853 5,-8.9994 5,-9.2148 0,-0.2154 -3.0495,-2.4156 -6.7754,-4.8887 l -6.7734,-4.4961 -3.6953,0 -3.6953,0 -6.7188,-2.9394 c -3.6949,-1.6166 -8.3609,-3.3397 -10.3691,-3.8282 -2.0082,-0.4885 -5.0368,-1.9782 -6.7305,-3.3105 -1.6939,-1.3324 -3.5697,-2.4219 -4.168,-2.4219 -0.5981,0 -4.0385,-1.4574 -7.6445,-3.2383 -3.606,-1.7809 -10.211,-4.5127 -14.6797,-6.0722 -4.4688,-1.5595 -10.0938,-4.0382 -12.5,-5.5079 -2.4063,-1.4696 -5.2726,-2.6777 -6.3691,-2.6777 l -1.9942,0 -2.1933,2.4238 -2.1934,2.4239 -2.8633,11.6386 c -1.5751,6.4014 -4.0376,14.1699 -5.4726,17.2637 l -2.6094,5.625 -0.027,5.4043 -0.027,5.4063 -3.1972,9.5937 c -1.7584,5.2775 -4.4797,11.5644 -6.0469,13.9707 -1.5673,2.4062 -3.8888,7.75005 -5.1582,11.87505 -1.2694,4.125 -3.8392,10.875 -5.7129,15 -1.8736,4.125 -4.0619,9.9656 -4.8633,12.9785 -0.8012,3.0129 -1.9423,6.3879 -2.5351,7.5 -0.5927,1.1121 -2.6248,6.2402 -4.5157,11.3965 -1.8908,5.1562 -3.8187,9.9375 -4.2832,10.625 -0.4644,0.6875 -1.2229,2.8331 -1.6855,4.7676 l -0.8399,3.5176 -3.6718,3.9824 c -2.019,2.1905 -5.6487,6.9836 -8.0664,10.6504 l -4.3965,6.666 -0.3008,13.334 -0.3008,13.332 1.1504,10 c 0.6328,5.5 1.1836,16.1875 1.2246,23.75 l 0.074,13.75 -0.957,3.416 -0.9551,3.4141 -3.6523,1.8887 -3.6524,1.8886 -2.2675,-0.8691 c -1.2466,-0.4782 -5.7322,-4.285 -9.9688,-8.459 l -7.7031,-7.5879 -0.8047,-4.9707 c -0.4422,-2.7334 -1.5588,-6.6944 -2.4805,-8.8027 l -1.6758,-3.834 0.6153,-3.2168 0.6152,-3.2148 -2.0488,-3.129 c -2.4164,-3.6878 -8.1439,-21.5702 -8.1719,-25.5117 l -0.019,-2.7383 -1.25,-0.7734 -1.25,-0.7715 0,-3.6933 c 0,-2.0312 -0.4982,-4.6694 -1.1074,-5.8633 -0.6092,-1.1938 -2.3922,-5.1234 -3.9629,-8.7324 -1.5708,-3.609 -3.885,-7.4947 -5.1426,-8.6328 l -2.2871,-2.0684 0,-2.2832 c 0,-1.2559 -2.25,-7.1551 -5,-13.1074 -2.75,-5.9524 -5,-11.4164 -5,-12.1426 0,-0.7263 1.4598,-3.4274 3.2441,-6.002 l 3.2442,-4.6816 -0.8809,-1.4258 c -0.4848,-0.7846 -1.0318,-3.8084 -1.2148,-6.7187 l -0.3321,-5.291 -1.7168,-3.043 c -0.9442,-1.6734 -2.3491,-3.8868 -3.1211,-4.918 l -1.4043,-1.875 -0.5957,-5.6269 -0.5957,-5.6289 -3.7754,-7.60945 c -2.0763,-4.1851 -4.4248,-9.5769 -5.2187,-11.9824 -0.794,-2.4056 -2.8383,-6.2636 -4.543,-8.5743 l -3.0996,-4.2011 0.7266,-2.2891 0.7265,-2.2891 -3.3457,-5.7089 -3.3457,-5.709 -1.0547,-6.4395 c -1.7293,-10.5564 -2.6815,-13.7686 -5.1113,-17.2402 -1.2701,-1.815 -5.3202,-9.1275 -9,-16.25 l -6.6914,-12.9512 -3.3496,-1.1875 -3.3516,-1.1894 z m -114.7539,31.7578 c -1.2723,0 -4.0848,0.6163 -6.25,1.3711 l -3.9355,1.373 0,1.752 0,1.7539 4.2715,0 c 2.35,0 5.1625,-0.3425 6.25,-0.7598 l 1.9785,-0.7578 0,-2.3672 0,-2.3652 z m 72.3125,70.83205 0.834,0.834 0.834,0.832 -1.668,0 -1.666,0 0.834,-0.832 z m -38.8281,312.9202 -0.7129,1.8574 -0.7129,1.8574 2.0293,13.4551 c 2.4106,15.9786 4.1835,24.7071 5.9688,29.3926 l 0.01,0 1.3086,3.4375 4.3067,0 4.3047,0 2.4179,-1.2949 2.418,-1.293 -0.012,-3.3946 c -0.012,-6.0333 -2.5726,-12.8827 -9.3946,-25.1386 -3.6754,-6.6031 -7.0612,-13.5508 -7.5254,-15.4414 l -0.8437,-3.4375 -1.7793,0 -1.7793,0 0,0 z m 68.9336,39.3945 -1.3906,1.3906 -1.3887,1.3887 0.8613,4.5918 0.8614,4.5918 1.414,-0.4629 1.4121,-0.4629 0.3262,-3.6543 0.3262,-3.6523 -1.211,-1.8653 z m -98.1406,1.7207 c -0.7398,0.079 -1.4988,0.7701 -1.7422,1.9395 l -0.4043,1.9355 2.0195,-0.7734 2.0195,-0.7754 -0.3964,-1.1895 c -0.2342,-0.7023 -0.6857,-1.0656 -1.1817,-1.1328 -0.1033,-0.014 -0.2088,-0.015 -0.3144,0 z m 209.2851,42.4863 -1.25,0.7715 c -0.6875,0.4249 -1.25,1.3023 -1.25,1.9492 0,0.647 0.5625,1.1758 1.25,1.1758 l 1.25,0 0,-1.9472 z m -227.5,12.6465 0,1 c 0,0.55 0.6535,1.6538 1.4512,2.4512 l 1.4492,1.4492 1.0508,-0.6484 c 0.5773,-0.3569 1.0488,-1.4586 1.0488,-2.4492 l 0,-1.8028 -2.5,0 z m 15,1.25 c -0.6875,0 -1.25,0.5625 -1.25,1.25 0,0.6875 0.5625,1.25 1.25,1.25 0.6875,0 1.25,-0.5625 1.25,-1.25 0,-0.6875 -0.5625,-1.25 -1.25,-1.25 z m 250.625,11.0645 c -0.6531,0 -1.3883,0.6028 -1.6347,1.3418 l -0.4473,1.3457 2.082,0 2.084,0 -0.4473,-1.3457 c -0.2463,-0.739 -0.9836,-1.3418 -1.6367,-1.3418 z m -263.125,29.7695 -0.832,0.834 -0.834,0.834 1.666,0 1.668,0 -0.834,-0.834 z"
       id="path11052"
       sodipodi:nodetypes="ccccccsscccccccccccccccccccccccccccsccccccccccsccccccccccsccccscccccccscccccccccsccccccccccccccccsccccccscccccccccccccccccccccccccccccccccccccccccsscccscsccccssccccccccccccccccccccccccccscscscsssscccccccccscsccccccsccsssssscccccscssscsccccccccccsccccccccccccccccccccccccccccccccsccccssscccccccccccccccccccccccccsccccsccccscccccccccccccccccccsccccccccccccccccccccccccccccssccccscccscccsssssscccccsccccccc" />
  </g>
</svg>
