<?xml version="1.0" encoding="UTF-8" standalone="no"?>
<!-- Created with Inkscape (http://www.inkscape.org/) -->

<svg
   xmlns:dc="http://purl.org/dc/elements/1.1/"
   xmlns:cc="http://creativecommons.org/ns#"
   xmlns:rdf="http://www.w3.org/1999/02/22-rdf-syntax-ns#"
   xmlns:svg="http://www.w3.org/2000/svg"
   xmlns="http://www.w3.org/2000/svg"
   xmlns:sodipodi="http://sodipodi.sourceforge.net/DTD/sodipodi-0.dtd"
   xmlns:inkscape="http://www.inkscape.org/namespaces/inkscape"
   width="210mm"
   height="297mm"
   viewBox="0 0 744.09448819 1052.3622047"
   id="svg4143"
   version="1.1"
   inkscape:version="0.91 r13725"
   sodipodi:docname="W.svg">
  <defs
     id="defs4145" />
  <sodipodi:namedview
     id="base"
     pagecolor="#ffffff"
     bordercolor="#666666"
     borderopacity="1.0"
     inkscape:pageopacity="0.0"
     inkscape:pageshadow="2"
     inkscape:zoom="0.35"
     inkscape:cx="-145"
     inkscape:cy="520"
     inkscape:document-units="px"
     inkscape:current-layer="layer1"
     showgrid="false"
     inkscape:window-width="1920"
     inkscape:window-height="1055"
     inkscape:window-x="0"
     inkscape:window-y="25"
     inkscape:window-maximized="1" />
  <metadata
     id="metadata4148">
    <rdf:RDF>
      <cc:Work
         rdf:about="">
        <dc:format>image/svg+xml</dc:format>
        <dc:type
           rdf:resource="http://purl.org/dc/dcmitype/StillImage" />
        <dc:title></dc:title>
      </cc:Work>
    </rdf:RDF>
  </metadata>
  <g
     inkscape:label="Layer 1"
     inkscape:groupmode="layer"
     id="layer1">
    <path
       inkscape:connector-curvature="0"
       style="fill:#000000"
       d="m 267.5321,246.73815 0,1.8125 0,1.8125 2.17774,1.2187 c 1.1974,0.6704 2.36826,1.0263 2.60156,0.793 0.7593,-0.7593 -2.33186,-5.6367 -3.57226,-5.6367 l -1.20704,0 z m -147.5,42.5 0,3.5 0,3.5 1.5,1.5 1.5,1.5 2.83204,0 2.83007,0 1.32422,-2.4727 1.32227,-2.4707 -2.5293,-2.5293 -2.5293,-2.5273 -3.125,0 -3.125,0 z m 101.26954,9.7246 -1.57227,0.7539 c -0.8646,0.415 -2.41605,1.2551 -3.44727,1.8672 -1.03129,0.6123 -3.5625,1.8009 -5.625,2.6406 -2.0625,0.8394 -5.5095,2.3636 -7.6621,3.3867 l -3.91407,1.8594 -1.61133,3.0078 -1.60937,3.0098 -1.73633,0 c -0.9554,0 -3.88722,1.7276 -6.51562,3.8398 l -4.7793,3.8399 -5.46094,0.3769 -5.46094,0.377 -4.83984,2.0332 -4.83984,2.0332 -3.45899,0 -3.45898,0 -2.80274,2.2695 -2.80468,2.2695 5.16601,10.4278 5.16406,10.4297 0,2.7382 0,2.7383 4.5879,8.627 c 2.5233,4.7442 5.54925,11.1562 6.72265,14.25 1.1735,3.0937 4.81689,12.6562 8.09571,21.25 9.11429,23.8883 11.27597,29.9392 20.10937,56.25 9.1211,27.1681 19.59176,56.1576 22.34766,61.875 0.9941,2.0625 2.46839,6.5625 3.27539,10 0.807,3.4375 2.20482,7.6562 3.10742,9.375 0.9025,1.7187 3.96193,9.875 6.79883,18.125 2.8369,8.25 5.64543,16.125 6.24023,17.5 0.5948,1.375 2.86066,8.125 5.03516,15 2.1745,6.875 4.43353,13.625 5.01953,15 0.586,1.375 1.98021,5.5937 3.09961,9.375 1.1193,3.7812 2.54497,8 3.16797,9.375 1.4491,3.1986 5.0692,14.7426 8.625,27.5 1.5329,5.5 3.22576,10.5625 3.75976,11.25 0.5339,0.6875 1.35663,3.2187 1.82813,5.625 0.9923,5.0632 3.81149,14.5578 6.58789,22.1875 l 1.93164,5.3125 1.70508,0 1.70507,0 0,1.1758 c 0,0.6469 -0.5625,1.5243 -1.25,1.9492 -0.6875,0.4248 -1.25,1.7947 -1.25,3.0449 l 0,2.2734 1.86133,1.545 1.86133,1.5449 -0.70508,1.1426 -0.70703,1.1425 2.60742,5.3868 2.60743,5.3847 3.42578,1.5996 c 6.5283,3.0485 7.02896,3.3719 7.51758,4.8379 l 0.49023,1.4727 -5.17773,0 -5.17774,0 0.97266,1.5625 c 0.5351,0.8593 0.81926,2.7568 0.63086,4.2168 l -0.34375,2.6543 1.94336,1.9433 c 1.0691,1.0691 1.94335,2.7966 1.94335,3.8379 l 0,1.8926 2.7793,1.9473 2.77735,1.9453 5.66015,0.019 5.6582,0.018 1.73633,1.0996 1.73633,1.0996 -4.23633,4.1934 c -2.3304,2.3067 -5.64332,5.165 -7.36133,6.3515 l -3.125,2.1582 2.1875,1.3418 2.1875,1.3418 0,1.8145 0,1.8125 2.42774,0 2.42578,0 0.88867,1.4394 0.89063,1.4395 -2.21485,1.6191 -2.21484,1.6211 2.29102,6.3692 2.28906,6.371 -1.60156,2.5645 -1.60157,2.5645 1.74805,2.0683 c 2.4521,2.8998 5.92187,12.7417 5.92187,16.7969 l -0.002,0 0,3.3945 1.875,0 c 1.0312,0 1.875,-0.4222 1.875,-0.9394 0,-0.5173 2.8125,-5.7199 6.25,-11.5606 l 6.25,-10.6191 0,-2.3223 0,-2.3242 3.03516,-2.3867 c 1.6696,-1.3134 4.2579,-4.363 5.75,-6.7774 l 2.71289,-4.3906 -1.52734,-1.8398 -1.52735,-1.8399 1.55664,-1.875 c 0.8558,-1.0313 2.29949,-1.875 3.20899,-1.875 l 1.65429,0 1.91211,-3.4375 c 1.0516,-1.8907 2.27375,-4.4219 2.71485,-5.625 0.9835,-2.683 2.49873,-2.8199 3.46093,-0.3125 l 0.72071,1.875 1.76757,0 1.76954,0 -0.38477,-6.9082 -0.38477,-6.9062 2.06446,0.3437 2.06445,0.3457 0.0352,-1.875 0.0332,-1.875 3.65625,-0.049 3.65625,-0.049 0.4668,-1.4004 0.46679,-1.3985 -1.3164,-0.8144 -1.31641,-0.8125 0,-4.3008 0,-4.3027 1.25,0 c 0.6875,0 1.25,-0.5785 1.25,-1.2871 0,-0.7086 1.9687,-3.0164 4.375,-5.1289 l 4.375,-3.8418 0,-1.8458 0,-1.8437 4.0625,0.7969 c 2.2343,0.4384 5.3281,1.4219 6.875,2.1855 l 2.8125,1.3887 0,2.5137 0,2.5136 5.79883,5.4004 c 3.1892,2.97 6.39977,5.4004 7.13477,5.4004 0.7349,0 3.45823,-2.0721 6.05273,-4.6055 2.5945,-2.5335 4.93994,-4.3616 5.21094,-4.0624 0.271,0.2989 0.89396,1.8482 1.38476,3.4433 l 0.89258,2.9004 -2.50976,0.6563 -2.50977,0.6562 -1.59375,3.9434 c -0.8766,2.1689 -2.17231,4.3342 -2.87891,4.8125 l -1.28515,0.8691 0.72851,0.7285 0.72852,0.7285 3.23828,-1.2324 3.23828,-1.2305 -0.46094,1.5079 c -0.2534,0.8299 -0.81028,3.1013 -1.23828,5.0468 l -0.77929,3.5371 2.73828,-0.8691 2.73828,-0.8691 -0.83594,2.1777 -0.83594,2.1797 2.20899,1.6758 c 2.9401,2.231 4.08398,2.169 4.08398,-0.2227 l 0,-1.9805 1.5625,0.543 1.5625,0.543 -0.0957,2.375 c -0.0528,1.3054 -0.51183,3.6352 -1.01953,5.1777 l -0.92383,2.8047 1.95703,-0.752 1.95703,-0.75 0,2.7793 0,2.7813 6.25,6.3164 c 3.4375,3.4739 6.25,6.6931 6.25,7.1543 0,0.4611 2.1093,3.1159 4.6875,5.9004 2.5781,2.7844 7.14133,8.218 10.14063,12.0742 l 5.45312,7.0117 3.01563,0 3.01562,0 0.73438,-3.6699 0.73437,-3.6699 1.73438,-0.666 1.73437,-0.6661 0,-1.6914 c 0,-0.93 1.07573,-3.9006 2.39063,-6.6015 l 2.39062,-4.9102 -1.22656,-1.4824 -1.22852,-1.4824 1.38477,-2.586 1.38281,-2.5839 -0.35937,-3.4336 -0.35938,-3.4317 2.8125,-0.4004 2.8125,-0.3984 0,-1.2832 c 0,-0.7054 1.22034,-2.9947 2.71094,-5.0879 l 2.70898,-3.8066 -2.21289,-1.6172 -2.21289,-1.6192 2.00391,-2.8593 c 1.1015,-1.5726 2.00195,-3.7624 2.00195,-4.8672 l 0,-2.0098 2.73438,0.1 2.73437,0.1 0.70313,-2.7851 c 0.3867,-1.5317 1.6825,-3.9223 2.8789,-5.3125 l 2.17578,-2.5274 -2.38671,0 c -1.3121,0 -3.27579,-0.3423 -4.36329,-0.7597 l -1.97656,-0.7579 0,-1.832 0,-1.8301 3.43164,0.4024 3.43164,0.4023 0.01,-1.6289 c 0.003,-0.896 1.34055,-3.0173 2.97266,-4.7129 l 2.96874,-3.082 1.60743,1.334 1.60937,1.3359 0.87891,-1.4219 c 0.4833,-0.782 1.62189,-4.0435 2.52929,-7.248 0.90741,-3.2045 3.43529,-10.6075 5.61719,-16.4512 2.1819,-5.8438 6.65832,-18.2188 9.94922,-27.5 3.2908,-9.2813 7.51808,-20.8125 9.39258,-25.625 1.8745,-4.8125 4.22235,-11 5.21875,-13.75 0.9963,-2.75 2.33531,-5.5344 2.97461,-6.1875 0.6394,-0.6531 1.16211,-2.1402 1.16211,-3.3047 0,-3.036 9.8023,-27.3424 12.625,-31.3066 1.3068,-1.8353 2.375,-4.1106 2.375,-5.0547 0,-0.944 0.82217,-2.8888 1.82617,-4.3223 1.004,-1.4334 3.00125,-5.5917 4.43945,-9.2402 1.4381,-3.6485 3.61063,-8.929 4.82813,-11.7344 1.2175,-2.8053 3.2152,-7.6308 4.4375,-10.7246 1.2222,-3.0937 3.0088,-7.4728 3.9707,-9.7305 0.9618,-2.2577 1.74805,-5.0983 1.74805,-6.3124 0,-1.2142 0.63721,-2.8444 1.41601,-3.6231 l 1.41602,-1.416 -0.75195,-1.959 -0.75196,-1.959 -3.23828,0 -3.23633,0 0.77149,1.25 0.77344,1.25 -5.69922,0 -5.69922,0 0,0.9492 c 0,0.5221 1.16328,1.6748 2.58398,2.5606 l 2.58203,1.6133 -0.48828,1.4648 -0.48828,1.4668 -3.03125,0.8594 -3.0332,0.8613 2.91797,0.9102 2.91797,0.9101 -1.5625,0.9649 -1.56446,0.9668 0,3.8613 0,3.8594 -1.82031,0 -1.82031,0 1.58203,1.9043 1.58008,1.9062 -0.90625,0.9063 c -0.907,0.907 -1.55562,1.0837 -5.07422,1.3769 l -1.875,0.1563 0,1.25 0,1.25 1.875,0 1.875,0 0,1.25 0,1.25 -2.42578,0 -2.42578,0 -0.77344,1.25 -0.77149,1.25 1.17774,0 1.17773,0 0.65821,2.5156 0.6582,2.5176 -2.30664,1.2324 c -1.2678,0.6785 -3.7839,1.2344 -5.5918,1.2344 l -3.28711,0 0.39258,-4.0625 0.39258,-4.0625 -2.5,0.2422 -2.5,0.2421 -2.98828,-2.2558 -2.98633,-2.2539 2.71875,-2.7188 2.7207,-2.7207 1.91016,1.9102 1.91015,1.9101 -0.85546,1.3848 -0.85547,1.3848 2.84961,-1.5274 2.85156,-1.5254 -2.22461,-1.2441 -2.22656,-1.2461 1.71289,-1.084 c 0.9418,-0.5966 2.41609,-1.0914 3.27539,-1.1035 l 1.5625,-0.02 0,1.875 0,1.875 1.33398,0 1.33399,0 -0.78711,-2.4844 -0.78906,-2.4824 3.82812,0.7636 3.83008,0.7657 0,-2.0293 0,-2.0332 -1.5625,-0.1114 c -5.2532,-0.3745 -10.85046,-0.085 -13.28516,0.6875 l -2.8125,0.8946 0.22852,-1.6739 c 0.125,-0.9196 0.16206,-2.4413 0.0801,-3.3808 l -0.14844,-1.707 -2.58985,0.6777 -2.59179,0.6758 1.81054,-2.7168 1.8125,-2.7207 3.2793,0.4043 3.2793,0.4004 0,-1.6915 0,-1.6894 -3.75,-1.416 -3.75,-1.416 0,-2.0664 0,-2.0664 2.8125,0.7949 c 1.5469,0.4373 4.63141,1.7197 6.85351,2.8535 l 1.13086,0.5801 1.39063,-1.5586 c 0.8594,-0.9638 1.5625,-2.2039 1.5625,-2.7539 l 0,-1 -3.4375,-0.066 -3.4375,-0.07 -2.9082,-3.6796 -2.90626,-3.6817 5.09376,0 5.0957,0 0,-2.4258 0,-2.4257 1.35937,-0.8399 1.35938,-0.8398 1.39062,1.3906 c 1.9225,1.9226 3.39063,1.7397 3.39063,-0.4219 l 0,-1.8125 2.17773,-1.2187 2.17578,-1.2188 -0.86718,-0.8672 -0.86719,-0.8672 -2.0957,2.0957 -2.09571,2.0957 -1.8164,-0.6972 c -0.9989,-0.3833 -2.27143,-0.6973 -2.82813,-0.6973 -0.5568,0 -1.36547,-1.4063 -1.79687,-3.125 l -0.78321,-3.125 -3.20508,0 -3.20703,0 0.52149,-1.5625 c 0.2861,-0.8594 1.45741,-1.7446 2.60351,-1.9668 l 2.08399,-0.4043 3.50781,1.75 3.50586,1.75 2.8457,-1.2695 2.84571,-1.2695 2.51757,1.5722 2.51758,1.5723 2.11328,-1.9141 2.11329,-1.9121 2.76757,0.7227 2.76563,0.7246 -0.0391,-1.084 c -0.066,-1.7975 -2.94212,-4.9343 -5.35352,-5.8398 l -2.26562,-0.8516 0.73828,-1.1953 0.74023,-1.1953 6.21484,0.7363 6.21485,0.7363 0.14844,-1.7383 c 0.0816,-0.9551 0.0668,-2.3975 -0.0332,-3.205 -0.0997,-0.8075 0.36265,-1.804 1.02735,-2.2149 l 1.20898,-0.7461 2.58008,2.7715 2.58203,2.7695 -0.71484,2.2579 -0.7168,2.2558 1.92773,0 1.92774,0 2.41601,-5.3125 c 1.3294,-2.9219 6.44735,-14.5938 11.37305,-25.9375 l 8.95703,-20.625 -1.35351,-2.1875 -1.35157,-2.1875 1.8418,0 1.8418,0 1.40625,-2.6269 1.40625,-2.6289 -0.625,-2.3887 -0.625,-2.3887 2.46875,-1.3203 2.46679,-1.3203 -0.80468,-3.6621 -0.80469,-3.6641 1.66211,-0.021 1.66211,-0.02 2.68359,-6.541 c 1.47562,-3.5976 3.81879,-9.6347 5.20902,-13.416 6.9626,-18.9376 13.766,-34.9667 17.4199,-41.0449 l 4.0625,-6.7598 0,-2.834 0,-2.8359 -5.8477,-2.75 c -3.2161,-1.5117 -12.4889,-7.2343 -20.60739,-12.7168 l -14.76172,-9.9668 -12.90625,-6.0899 c -7.0987,-3.3485 -14.45375,-6.4748 -16.34375,-6.9492 l -3.43555,-0.8633 -0.69531,2.6543 c -0.3818,1.4601 -1.19153,2.6563 -1.79883,2.6563 -0.6073,0 -1.10351,0.7664 -1.10351,1.7051 0,0.9385 -1.1235,3.1339 -2.4961,4.8789 -1.3727,1.745 -4.49961,7.8569 -6.94921,13.58 -2.4496,5.723 -4.9655,10.7205 -5.5918,11.1075 -0.6263,0.3871 -1.95201,3.0089 -2.94531,5.8242 -0.9933,2.8152 -3.26011,7.4214 -5.03711,10.2363 -1.777,2.8149 -3.23047,5.8235 -3.23047,6.6855 0,0.8623 -1.36822,4.3875 -3.04102,7.836 -4.795,9.8846 -8.9679,20.3494 -12.9707,32.5215 -3.574,10.8683 -4.83849,14.0564 -10.90039,27.5 -1.55,3.4375 -3.97547,9.0625 -5.38867,12.5 -1.4132,3.4375 -5.17304,12.5581 -8.35742,20.2695 l -5.79102,14.0215 0.74805,1.2109 0.75,1.211 -2.52539,4.4941 c -1.3882,2.4715 -2.52344,5.4941 -2.52344,6.7168 0,1.2227 -0.82654,3.3138 -1.83594,4.6484 l -1.83398,2.4278 -0.041,2.6582 -0.0391,2.6601 -1.98438,1.6465 -1.98242,1.6445 0.54297,3.8204 c 0.2986,2.1008 0.93115,4.7043 1.40625,5.7851 l 0.86328,1.9649 -3.17187,1.4453 -3.17383,1.4453 0,1.9863 0,1.9844 -3.39453,4.4492 -3.39258,4.4492 -0.22461,5.6504 -0.22461,5.6485 -4.01758,1.6894 -4.01758,1.6895 0.90235,2.1914 c 0.4961,1.205 1.17702,3.1405 1.51172,4.3007 l 0.60742,2.1094 -2,2.8555 -2,2.8555 0,3.1953 0,3.1933 -1.98438,2.8321 -1.98242,2.832 1.2461,1.5078 1.24609,1.5098 -2.70117,3.1914 c -1.485,1.7559 -4.17818,4.1137 -5.98438,5.2402 l -3.2832,2.0488 -0.79102,3.1485 -0.78906,3.1465 2.4375,4.0078 2.43555,4.0058 -1.79883,2.5703 -1.80078,2.5704 0,3.3984 0,3.3984 -1.16797,0.7227 c -0.6425,0.397 -2.02421,3.6631 -3.07031,7.2598 -1.0461,3.5967 -2.68212,7.6076 -3.63672,8.9121 l -1.73633,2.3711 -3.32422,-0.834 -3.32422,-0.834 -2.60351,-5.5371 c -1.4313,-3.045 -3.25654,-6.0739 -4.05664,-6.7305 -0.8001,-0.6566 -2.86138,-1.3873 -4.58008,-1.625 l -3.125,-0.4316 -0.0254,-1.875 c -0.0141,-1.0312 -0.47359,-3.1406 -1.02149,-4.6875 l -0.99609,-2.8125 -2.9668,0 -2.96875,0 -0.77148,1.25 c -0.4249,0.6875 -1.58352,1.25 -2.57422,1.25 l -1.80078,0 0,-1.875 0,-1.875 3.67578,0 3.67578,0 0.71094,-1.1504 0.71094,-1.1504 -3.30469,-2.5996 -3.30664,-2.5996 -2.25781,0 c -1.24172,0 -2.5893,-0.5391 -2.9961,-1.1973 l -0.74023,-1.1973 3.79101,-1.9609 c 4.1385,-2.1401 4.74976,-3.7251 2.03516,-5.2715 l -1.75391,-0.998 -0.43359,-3.125 -0.43164,-3.125 -7.8125,0 -7.81446,0 0.002,-0.8946 c 3e-4,-0.4915 1.11371,-1.4886 2.47461,-2.2168 l 2.47461,-1.3242 3.15039,0.7891 3.15039,0.791 -0.01,-1.0723 c -0.003,-0.5901 -1.1276,-2.915 -2.5,-5.166 -1.3724,-2.251 -2.49609,-4.8566 -2.49609,-5.791 l 0,-1.6992 -2.5,-0.6543 -2.5,-0.6543 0,-1.8789 c 0,-1.0339 -1.64721,-5.3664 -3.66211,-9.627 l -3.66406,-7.7461 -2.63672,-1.8476 -2.63867,-1.8457 0.72656,-2.2891 0.72656,-2.289 -1.21875,-0.7539 -1.2207,-0.754 -3.05469,2.836 c -1.6796,1.56 -4.58578,3.8911 -6.45898,5.1797 l -3.40625,2.3437 -1.67969,4.0215 -1.68164,4.0234 0.75781,2.8946 0.75586,2.8945 -2.48242,-0.6504 -2.48438,-0.6484 -2.32812,1.7011 -2.32617,1.7032 1.48828,0 1.48828,0 0,1.916 0,1.918 -4.14844,2.4472 -4.15039,2.4492 0.33203,5.627 0.33008,5.6269 -2.74414,1.4512 c -1.5095,0.7986 -5.13484,3.4011 -8.05664,5.7832 l -5.3125,4.3321 0,1.5703 c 0,0.8643 -0.79187,2.2298 -1.75977,3.0332 -0.9679,0.8033 -2.68179,3.4027 -3.80859,5.7773 l -2.04883,4.3184 -2.50391,0 -2.50585,0 -1.81055,-4.336 c -0.9962,-2.3841 -1.81641,-5.6185 -1.81641,-7.1875 l 0,-2.8515 -2.42383,-3.9746 c -1.3329,-2.186 -3.00942,-6.1487 -3.7246,-8.8047 l -1.29883,-4.8282 -2.2461,-2.4472 -2.24414,-2.4453 -0.0371,-6.25 c -0.0502,-8.3132 -2.17664,-17.7541 -8.11914,-36.0664 -4.8668,-14.9971 -11.03137,-34.4667 -17.07617,-53.9336 -1.7078,-5.5 -5.79518,-18.1562 -9.08398,-28.125 -3.2889,-9.9687 -6.81514,-21.5 -7.83594,-25.625 -2.5618,-10.3529 -8.61194,-30.0732 -13.80664,-45 -3.9021,-11.2126 -19.74901,-51.6986 -23.97461,-61.25 -0.9124,-2.0625 -3.18759,-7.5835 -5.05469,-12.2676 l -3.39453,-8.5156 -2.95117,-1.9336 -2.95117,-1.9336 z m 332.02929,238.084 -0.17187,0.1933 0.22265,-0.1679 -0.0508,-0.025 z m 0.0508,0.025 2.85743,1.4589 1.50195,-1.5019 1.50195,-1.502 -0.82422,-0.8222 -0.82422,-0.8243 -2.21679,1.6797 -1.9961,1.5118 z m 29.15039,-220.4805 1.25,0.7715 c 0.6875,0.4249 1.25,1.021 1.25,1.3242 0,0.3032 -0.5625,0.5508 -1.25,0.5508 -0.6875,0 -1.25,-0.5962 -1.25,-1.3242 l 0,-1.3223 z m -447.5,5.1465 0,1.875 0,1.875 1.25,0 1.25,0 0,-1.875 0,-1.875 -1.25,0 -1.25,0 z m 477.5,10.834 0.83399,0.832 0.83398,0.834 -1.66797,0 -1.66601,0 0.83398,-0.834 0.83203,-0.832 z m -472.52734,2.914 c -0.6717,0 -1.22266,0.3022 -1.22266,0.6699 1e-5,0.3678 1.36947,5.0084 3.04297,10.3125 1.6735,5.3042 4.45534,14.1426 6.18164,19.6426 1.7263,5.5 3.70434,11.6875 4.39454,13.75 3.6887,11.0226 6.2091,19.1574 6.9707,22.5 0.4699,2.0625 1.59535,5.4375 2.50195,7.5 3.4041,7.7438 11.66681,30.9199 15.82031,44.375 1.3795,4.4688 3.81712,11.5 5.41602,15.625 1.5989,4.125 5.2543,15.0938 8.125,24.375 2.8706,9.2813 6.54506,20.25 8.16406,24.375 1.619,4.125 3.55012,9.4688 4.29102,11.875 4.9979,16.2323 10.16103,31.4458 12.30273,36.25 1.3793,3.0938 3.49663,8.7188 4.70703,12.5 1.2103,3.7813 2.79749,8 3.52539,9.375 l 1.32227,2.5 0.46289,-2.2051 0.46289,-2.207 -2.70312,-9.668 c -1.4867,-5.3177 -3.21761,-10.6461 -3.84571,-11.8398 -0.6282,-1.1939 -1.14258,-3.0433 -1.14258,-4.1113 0,-1.0679 -1.125,-4.1486 -2.5,-6.8438 l -2.5,-4.9004 0,-3.3984 c 0,-3.749 -0.22539,-4.5268 -7.58789,-26.0762 -2.8187,-8.25 -6.39526,-19.5 -7.94726,-25 -3.5961,-12.7438 -8.26593,-25.5093 -9.64453,-26.3613 l -1.07032,-0.6602 0,-3.0254 c 0,-1.6643 -0.80521,-5.148 -1.79101,-7.7402 -0.9858,-2.5919 -3.46376,-10.0566 -5.50586,-16.5879 -3.8424,-12.2891 -15.00131,-44.0683 -20.84961,-59.375 -1.8387,-4.8125 -5.74193,-15.6188 -8.67383,-24.0156 -5.3695,-15.3777 -8.45673,-21.6094 -10.70703,-21.6094 z m 484.88086,71.252 2.02148,0 2.02344,0 -0.77344,1.25 c -0.42489,0.6875 -0.98738,1.25 -1.25,1.25 -0.2626,0 -0.8251,-0.5625 -1.25,-1.25 l -0.77148,-1.25 z m -520.47852,5.625 -0.3457,19.2773 -0.3457,19.2793 1.2832,1.2832 c 0.706,0.7061 1.28321,2.1193 1.2832,3.1406 l 0,1.8575 2.73438,2.9101 2.73438,2.9102 1.20703,-1.209 1.20898,-1.209 -4.87891,-24.1211 -4.88086,-24.1191 z m 476.875,90.207 -0.83203,0.834 -0.83398,0.834 1.66601,0 1.66797,0 -0.83398,-0.834 -0.83399,-0.834 z m 9.61524,1.666 c -0.8999,0 -2.728,0.8266 -4.0625,1.836 l -2.42774,1.8359 -3.32031,0.039 -3.32031,0.041 0.61914,2.8125 c 0.34034,1.5461 0.83256,3.5149 1.09375,4.375 0.26122,0.8586 0.81319,1.5605 1.22461,1.5605 l 0.74805,0 -0.79493,-2.5 -0.79296,-2.5 2.37695,0 c 1.3067,0 2.7969,-0.4219 3.3125,-0.9375 0.9363,-0.9362 1.57371,-1.1121 5.10351,-1.4062 l 1.875,-0.1563 0,-2.5 0,-2.5 -1.63476,0 z m -213.36524,1.252 0,6.25 0,6.25 1.875,0 1.875,0 0,-4.2735 c 10e-6,-4.9633 -1.04391,-8.2265 -2.63281,-8.2265 l -1.11719,0 z m 187.65626,4.7383 -1.64063,0.6562 -1.64063,0.6563 2.39649,0.1 2.39648,0.1 -0.75586,-0.7559 -0.75585,-0.7558 z m 20.24023,1.5117 -1.44727,4.832 c -0.7963,2.6579 -1.44922,5.4704 -1.44922,6.25 l 0,1.418 1.62696,0 1.625,0 2.75,-5.6602 c 1.512,-3.1121 2.74804,-5.9246 2.74804,-6.25 0,-0.3252 -1.31578,-0.5898 -2.92578,-0.5898 l -2.92773,0 z m -33.99023,5.9883 0,0 0.75585,0.7539 0.75586,0.7539 -2.39648,-0.098 -2.39649,-0.1 1.64063,-0.6563 1.64063,-0.6562 z m -15.85743,5.2617 1.35157,0 c 1.9068,0 4.3496,2.6741 4.3496,4.7597 l 0,1.7578 -1.96484,-0.7539 -1.96484,-0.7539 -2.29492,1.2266 -2.29493,1.2285 1.41016,-3.7324 1.4082,-3.7324 z m -32.2832,2.6855 1.49219,2.3906 c 0.821,1.3145 1.49218,2.6783 1.49218,3.0313 0,0.3531 -1.40619,0.6426 -3.125,0.6426 l -3.125,0 0.041,-0.9375 c 0.0219,-0.5156 0.75681,-1.8792 1.63281,-3.0313 l 1.5918,-2.0957 z m 52.91211,1.0625 c -0.6469,0 -1.17774,0.5625 -1.17774,1.25 l 0,1.25 1.94922,0 1.94922,0 -0.77344,-1.25 c -0.42489,-0.6875 -1.30036,-1.25 -1.94726,-1.25 z m -11.17774,2.086 0.83399,0.832 0.83398,0.834 -0.83398,0.834 -0.83399,0.832 0,-1.666 0,-1.666 z m -7.5,1.25 0.75586,0.7539 c 0.4153,0.4154 0.51802,1.4656 0.22852,2.3339 l -0.52539,1.5801 -0.97852,-1.584 -0.98047,-1.5839 0.75,-0.75 0.75,-0.75 z m 11.25,4.998 -0.83203,0.834 -0.83398,0.832 1.66601,0 1.66797,0 -0.83398,-0.832 -0.83399,-0.834 z m -10,5.002 0.83399,0.832 0.83398,0.834 -1.66797,0 -1.66601,0 0.83398,-0.834 0.83203,-0.832 z m 21.32422,0.414 c -0.728,0 -1.32422,0.5625 -1.32422,1.25 0,0.6875 0.24954,1.25 0.55274,1.25 0.3032,0 0.89738,-0.5625 1.32226,-1.25 l 0.77344,-1.25 -1.32422,0 z m -55.3789,0 1.32812,0 c 0.7311,0 1.7011,0.6008 2.1543,1.334 1.3453,2.1769 -0.18784,2.638 -1.90234,0.5722 l -1.58008,-1.9062 z m 23.9082,3.75 1.25,0 c 0.6875,0 1.5966,0.5625 2.02148,1.25 l 0.77344,1.25 -1.25,0 c -0.6875,0 -1.59854,-0.5625 -2.02344,-1.25 l -0.77148,-1.25 z m -23.60352,6.25 1.875,0 1.875,0 0,1.7715 0,1.7695 1.5625,0.6308 1.5625,0.6309 -1.875,0.08 c -2.3387,0.099 -4.27849,-1.2752 -4.6875,-3.3203 l -0.3125,-1.5625 z m 23.88868,0.625 1.24414,2.1875 c 0.6835,1.2031 1.8099,2.1875 2.5039,2.1875 l 1.26172,0 -0.90429,-1.4629 -0.90235,-1.461 2.18164,0.836 c 1.2003,0.4605 3.91631,0.8379 6.03711,0.8379 l 3.85742,0 -0.76953,0.7695 c -0.4234,0.4235 -2.58493,1.1421 -4.80273,1.5957 l -4.03321,0.8242 -0.4746,1.4258 -0.47461,1.4258 2.25586,0.584 2.25585,0.5859 -3.34765,0.1445 -3.34766,0.1446 -1.87304,-1.8731 -1.87305,-1.873 -0.57227,2.1855 -0.57031,2.1856 -0.14453,-2.1075 -0.14649,-2.1093 -4.05078,-0.3907 -4.05273,-0.3925 -0.44727,-2.3535 -0.44531,-2.3536 3.23242,0.8106 3.23438,0.8125 2.58398,-1.584 2.58399,-1.582 z m 25.72656,16.4883 0.89062,1.4414 c 0.4906,0.7937 1.14026,1.4433 1.44336,1.4433 1.0427,0 0.55038,-1.1036 -0.89062,-1.9941 l -1.44336,-0.8906 z m -32.16602,2.7714 2.56055,1.3711 2.56055,1.3692 -0.73242,1.1875 c -0.4036,0.653 -1.76645,1.1875 -3.02735,1.1875 l -2.29297,0 -0.70312,-1.834 -0.70508,-1.8359 1.16992,-0.7227 1.16992,-0.7227 z m -12.24023,0.1153 c 0.5729,0 1.04102,0.8438 1.04101,1.875 0,1.0313 -0.46811,1.875 -1.04101,1.875 -0.5729,0 -1.04102,-0.8437 -1.04102,-1.875 0,-1.0312 0.46812,-1.875 1.04102,-1.875 z m 27.29101,4.584 0.83399,0.832 0.83398,0.834 -1.66797,0 -1.66601,0 0.83398,-0.834 0.83203,-0.832 z m -7.5,1.666 1.94922,0 1.94922,0 -0.77344,1.25 c -0.42489,0.6875 -1.30036,1.25 -1.94726,1.25 -0.6469,0 -1.17773,-0.5625 -1.17774,-1.25 l 0,-1.25 z m -10.21289,1.0468 2.60743,1.3965 2.60546,1.3946 0,1.832 c 0,2.5474 -1.70095,2.2834 -4.38085,-0.6777 l -2.26954,-2.5079 0.71875,-0.7187 0.71875,-0.7188 z m -7.28711,1.4532 c 0.6875,0 1.25,0.5625 1.25,1.25 0,0.6875 -0.5625,1.25 -1.25,1.25 -0.6875,0 -1.25,-0.5625 -1.25,-1.25 0,-0.6875 0.5625,-1.25 1.25,-1.25 z m 35.60547,0.1035 1.04493,1.0469 1.04687,1.0449 -0.41016,3.1582 -0.41211,3.1562 -2.3496,-3.1425 -2.34961,-3.1446 1.71484,-1.0586 1.71484,-1.0605 z m -34.28125,3.6465 1.32422,0 -0.77344,1.25 c -0.42489,0.6875 -1.01906,1.25 -1.32226,1.25 -0.3032,0 -0.55273,-0.5625 -0.55274,-1.25 1e-5,-0.6875 0.59622,-1.25 1.32422,-1.25 z m 8.41016,1.25 0.67188,1.7519 0.67187,1.7539 -0.74609,0.7461 c -0.411,0.411 -1.91927,0.7415 -3.35157,0.7285 l -2.60547,-0.019 1.875,-1.2305 1.875,-1.2304 -1.875,-1.2305 -1.875,-1.2305 2.67969,-0.02 2.67969,-0.019 z m 10.89062,2.4902 0,0 -1.875,1.2343 c -1.03129,0.6789 -2.67053,1.24 -3.64453,1.252 l -1.77148,0.019 0.86523,-0.8652 c 0.4761,-0.4761 2.11729,-1.0405 3.64649,-1.2539 l 2.77929,-0.3887 z m 14.375,3.0664 0,2.2949 0,2.2969 -1.24414,-0.7695 c -0.6849,-0.4233 -2.3615,-0.9856 -3.7246,-1.2481 l -2.47852,-0.4765 -0.72461,1.1718 c -0.3988,0.6452 -1.86416,1.1739 -3.25586,1.1739 l -2.5293,0 0.51563,-1.5625 0.51562,-1.5625 6.46289,-0.6602 6.46289,-0.6582 z m -321.25,1.5254 0,1.666 0,1.668 0.83399,-0.834 0.83398,-0.834 -0.83398,-0.832 -0.83399,-0.834 z m 287.5,2.7715 0,1.3223 0,1.3242 2.5,0 2.5,0 0,4.4668 0,4.4668 -2.1875,-0.4532 -2.1875,-0.4511 0.16797,-2.1055 0.16993,-2.1074 -2.23243,1.1933 -2.23047,1.1954 -0.84179,-2.1661 -0.70703,-1.8125 c -0.17089,0.021 -0.30172,0.032 -0.48828,0.057 l -1.79883,2.0918 c -1.1835,1.375 -3.38453,3.2031 -4.89063,4.0625 -3.5159,2.0061 -4.02343,1.9667 -4.02344,-0.3125 l 0,-1.875 -2.5,0 -2.5,0 0,-1.875 0,-1.875 1.74219,0 1.74219,0 0.71094,-1.8535 0.71094,-1.8536 1.95507,0.75 1.95313,0.75 -1.58985,1.9161 -1.58984,1.916 4.37109,-0.8867 c 1.78772,-0.3623 4.032,-0.7338 5.70704,-0.9551 l 0.35156,-0.4082 0.13672,0.3515 c 0.35803,-0.043 0.73219,-0.09 1.00195,-0.1132 l 2.82617,-0.2383 -0.58594,-1.5215 -0.58398,-1.5234 1.19531,-0.7383 1.19531,-0.7383 z m -20,0.9805 0.83399,0.832 0.83398,0.834 -1.66797,0 -1.66601,0 0.83398,-0.834 0.83203,-0.832 z m 40,5.916 4.26954,0 4.26953,0 0.72461,3.6289 0.72656,3.6269 -0.69336,1.1231 c -1.0285,1.6641 -3.39148,1.3654 -6.51758,-0.8242 l -2.7793,-1.9473 0,-2.8027 0,-2.8047 z m -30.17187,5.709 0.70508,1.1386 0.70312,1.1407 -1.86718,0.7168 -1.86915,0.7167 0,-1.1367 c 0,-0.6253 0.52407,-1.4619 1.16407,-1.8574 l 1.16406,-0.7187 z m 14.16992,0.061 c 0.0961,-0.01 0.18958,-0.01 0.27735,0.01 0.42126,0.068 0.72461,0.4178 0.7246,1.0918 0,0.614 -0.81424,1.4282 -1.81054,1.8105 l -1.81055,0.6953 0.69531,-1.8105 c 0.41492,-1.0814 1.25082,-1.7252 1.92383,-1.793 z m -7.67383,2.4805 c 0.647,0 1.17578,0.5625 1.17578,1.25 l 0,1.25 -1.94726,0 -1.94922,0 0.77148,-1.25 c 0.42491,-0.6875 1.30232,-1.25 1.94922,-1.25 z m 13.24414,1.3476 c 0.52935,0.026 0.23476,0.5089 -0.55859,1.4649 -0.7132,0.8594 -1.20324,2.125 -1.08984,2.8125 l 0.20507,1.25 -2.55078,0.3652 c -2.5484,0.3648 -4.32422,-0.5902 -4.32422,-2.3262 0,-0.5057 1.7724,-1.5363 3.9375,-2.291 2.49875,-0.8711 3.85151,-1.3017 4.38086,-1.2754 z m -25.96484,3.6524 1.94922,0 1.94726,0 0,1.25 c 10e-6,0.6875 -0.52878,1.25 -1.17578,1.25 -0.6469,0 -1.52432,-0.5625 -1.94922,-1.25 l -0.77148,-1.25 z m 11.39648,0 2.5,0 0,2.25 c 0,1.2375 0.61198,2.8619 1.35938,3.6093 l 1.35938,1.3575 -1.10547,0.6836 -1.10743,0.6836 -1.31445,-0.8536 c -1.3107,-0.8517 -4.1914,-5.6782 -4.19141,-7.0234 0,-0.3888 1.12502,-0.707 2.5,-0.707 z m 18.75,0 c 0.6875,0 1.25,0.5625 1.25,1.25 0,0.6875 -0.5625,1.25 -1.25,1.25 -0.6875,0 -1.25,-0.5625 -1.25,-1.25 0,-0.6875 0.5625,-1.25 1.25,-1.25 z m -25,5.834 0.83399,0.832 0.83398,0.834 -1.66797,0 -1.66601,0 0.83398,-0.834 0.83203,-0.832 z m -68.75,3.748 -0.83203,0.834 -0.83398,0.832 1.66601,0 1.66797,0 -0.83398,-0.832 -0.83399,-0.834 z m 76.25,1.668 1.94922,0 1.94922,0 -0.77344,1.25 c -0.42489,0.6875 -1.30036,1.25 -1.94726,1.25 -0.6469,0 -1.17773,-0.5625 -1.17774,-1.25 l 0,-1.25 z m -78.38085,3.8301 1.19921,0.7402 1.19922,0.7422 -1.69531,1.0742 c -0.9328,0.591 -2.54105,1.0667 -3.57227,1.0547 l -1.875,-0.022 2.37305,-1.7949 2.3711,-1.7949 z m 29.63085,8.6699 c 0.6875,0 1.25,0.5625 1.25,1.25 0,0.6875 -0.5625,1.25 -1.25,1.25 -0.6875,0 -1.25,-0.5625 -1.25,-1.25 0,-0.6875 0.5625,-1.25 1.25,-1.25 z m 63.75,2.5 c 0.6875,0 1.25,0.5625 1.25,1.25 0,0.6875 -0.5625,1.25 -1.25,1.25 -0.6875,0 -1.25,-0.5625 -1.25,-1.25 0,-0.6875 0.5625,-1.25 1.25,-1.25 z m -101.35742,0.9414 2.00782,0.7695 2.00976,0.7715 -0.7793,1.2578 c -1.0132,1.6397 -2.76874,1.6049 -3.80664,-0.074 l -0.82422,-1.332 0.69727,-0.6973 0.69531,-0.6953 z m 11.35742,2.3926 0.83399,0.832 0.83398,0.834 -1.66797,0 -1.66601,0 0.83398,-0.834 0.83203,-0.832 z m 6.42383,0.375 1.16407,0.7187 c 0.64,0.3955 1.1621,0.9683 1.1621,1.2715 0,0.3032 -0.87546,0.5508 -1.94726,0.5508 l -1.94922,0 0.78516,-1.2715 0.78515,-1.2695 z m 9.82617,4.625 0.83399,0.832 0.83398,0.834 -0.83398,0.834 -0.83399,0.832 0,-1.666 0,-1.666 z m 50.15626,7.6543 0,0 0.75585,0.7539 0.75586,0.7539 -2.39648,-0.098 -2.39649,-0.1 1.64063,-0.6563 1.64063,-0.6562 z m -54.19336,6.4277 -0.34375,4.1055 c -0.1891,2.2573 -0.40547,4.5254 -0.48047,5.041 l -0.002,0 c -0.0754,0.5156 -0.69922,0.9375 -1.38672,0.9375 l -1.25,0 0.041,-2.8125 0.0391,-2.8125 1.69141,-2.2285 1.69141,-2.2305 z m -329.7129,2.375 0.041,3.541 c 0.0225,1.9479 1.1914,6.6348 2.5957,10.416 1.4043,3.7813 3.89923,10.8125 5.54493,15.625 1.6457,4.8125 3.57245,9.7282 4.28125,10.9219 0.7089,1.1939 1.2871,3.5946 1.2871,5.3359 l 0,3.166 3.4375,-0.8105 c 1.89061,-0.4455 3.94827,-1.276 4.57227,-1.8457 l 1.13477,-1.0352 -1.75977,-2.1308 c -0.9678,-1.1716 -1.76539,-3.0233 -1.77539,-4.1153 -0.0231,-2.8674 -7.45405,-21.3142 -12.21875,-30.332 l -4.07617,-7.7148 -1.53125,-0.5117 -1.53321,-0.5098 z m 357.39258,2.4004 1.92969,0.7402 c 1.0609,0.4071 1.92774,1.3203 1.92773,2.0293 10e-6,1.5865 -1.29319,1.618 -3.71289,0.088 l -1.83789,-1.1641 0.84571,-0.8457 0.84765,-0.8476 z m -56.06836,0.3086 c 0.647,0 1.17578,0.5625 1.17578,1.25 l 0,1.25 -1.94726,0 -1.94922,0 0.77148,-1.25 c 0.42491,-0.6875 1.30232,-1.25 1.94922,-1.25 z m 98.67578,0 1.80274,0 c 0.9907,0 2.14738,0.5625 2.57226,1.25 l 0.77344,1.25 -2.57422,0 -2.57422,0 0,-1.25 0,-1.25 z m -49.17968,2.5 1.67968,0 0,1.25 0,1.25 1.875,0 c 1.03121,0 1.87501,0.4271 1.875,0.9492 0,0.5221 -0.98439,1.5587 -2.1875,2.3027 l -2.1875,1.3516 -1.875,-0.5254 c -1.03129,-0.2895 -2.65442,-0.7745 -3.60742,-1.0781 l -1.73242,-0.5528 2.24024,-2.4726 c 1.2313,-1.3607 2.99522,-2.4746 3.91992,-2.4746 z m 7.7832,6.25 1.94922,0 1.94726,0 0,1.25 c 10e-6,0.6875 -0.52878,1.25 -1.17578,1.25 -0.6469,0 -1.52432,-0.5625 -1.94922,-1.25 l -0.77148,-1.25 z m -35.44336,1.875 1.85742,0 1.85742,0 0,1.8574 0,1.8574 -2.30078,0.4434 -2.30078,0.4433 0.44336,-2.3007 0.44336,-2.3008 z m 17.66992,8.7011 0,0 c 0.50979,0.1097 0.52846,0.7362 -0.15234,1.8379 -0.4532,0.7333 -1.775,1.315 -2.9375,1.293 l -2.11524,-0.041 2.41016,-1.8222 c 1.28435,-0.9716 2.28514,-1.3793 2.79492,-1.2696 z m 31.66992,0.6739 1.94922,0 1.94922,0 -0.77344,1.25 c -0.42489,0.6875 -1.30036,1.25 -1.94726,1.25 -0.6469,0 -1.17773,-0.5625 -1.17774,-1.25 l 0,-1.25 z m -16.25,1.25 c 0.6875,0 1.25,0.5625 1.25,1.25 0,0.6875 -0.5625,1.25 -1.25,1.25 -0.6875,0 -1.25,-0.5625 -1.25,-1.25 0,-0.6875 0.5625,-1.25 1.25,-1.25 z m -11.53906,0.3105 1.83985,2.0313 c 1.0119,1.1179 3.31609,3.0893 5.12109,4.3789 l 3.28125,2.3437 -0.67383,1.0938 c -0.8512,1.3765 -4.27929,1.4378 -4.2793,0.076 0,-0.5582 -1.75258,-2.3114 -3.89648,-3.8964 l -3.89844,-2.8809 -0.96289,1.5566 -0.96093,1.5567 -1.45118,-0.8965 -1.45117,-0.8965 1.35156,-1.6289 c 0.7434,-0.8957 2.39332,-1.9015 3.66602,-2.2344 l 2.31445,-0.6035 z m 45.28906,6.7735 0.83399,0.832 0.83398,0.834 -1.66797,0 -1.66601,0 0.83398,-0.834 0.83203,-0.832 z m -13.125,1.9394 0,0 1.54883,1.2539 1.54883,1.2539 -0.68359,1.1074 -0.68555,1.1074 -3.46875,0 c -3.7755,0 -5.13476,-0.8395 -5.13477,-3.1758 l 0,-1.5117 3.4375,-0.018 3.4375,-0.019 z m -107.5,3.3203 -3.125,1.9082 c -3.72999,2.2786 -3.85739,2.2944 -6.25,0.7481 l -1.875,-1.2129 2.5,-0.035 c 1.37501,-0.02 3.90622,-0.3452 5.625,-0.7226 l 3.125,-0.6856 z m 116.9336,0.7012 3.4082,0.2519 c 1.8746,0.138 3.87827,0.2956 4.45117,0.3516 l 1.04102,0.1016 -0.49805,1.4941 -0.49804,1.4942 -3.20899,0.8593 -3.20703,0.8575 -1.44141,-0.8907 -1.43945,-0.8886 0.69727,-1.8165 0.69531,-1.8144 z m -137.5586,1.5391 0.83399,0.832 0.83398,0.834 -1.66797,0 -1.66601,0 0.83398,-0.834 0.83203,-0.832 z m 6.25,1.666 1.25,0 1.25,0 0,1.875 0,1.875 -1.25,0 -1.25,0 0,-1.875 0,-1.875 z m 80.99805,1.25 1.07617,0 -0.0996,2.8125 -0.0996,2.8125 4.73047,0.625 4.72852,0.625 0.27148,1.25 -0.002,0 0.27148,1.25 -2.5,0.2109 c -1.37499,0.1156 -3.85215,-0.1792 -5.50585,-0.6543 l -3.00782,-0.8633 -1.2539,-1.9902 -1.25586,-1.9883 0.78515,-2.0449 c 0.4316,-1.1247 1.26953,-2.0449 1.86133,-2.0449 z m 11.27539,0.3906 -0.64453,1.6797 -0.64453,1.6797 -2.36719,0 -2.36719,0 0,-1.1035 0,-1.1055 3.01172,-0.5742 3.01172,-0.5762 z m -74.77344,0.7109 1.25,0.7735 c 0.6875,0.4249 1.25,1.021 1.25,1.3242 0,0.3032 -0.5625,0.5508 -1.25,0.5508 -0.6875,0 -1.25,-0.5962 -1.25,-1.3242 l 0,-1.3243 z m 97.5,2.6485 1.80274,0 c 0.9907,0 2.14738,0.5625 2.57226,1.25 l 0.77344,1.25 -2.57422,0 -2.57422,0 0,-1.25 0,-1.25 z m -78.59374,0.9883 0,0 0.75585,0.7539 0.75586,0.7539 -2.39648,-0.098 -2.39649,-0.1 1.64063,-0.6563 1.64063,-0.6562 z m 68.66796,2.7617 1.17578,0 0,2.5 0,2.5 -1.17578,0 c -0.6469,0 -1.52432,-0.5625 -1.94922,-1.25 l -0.77148,-1.25 0.77148,-1.25 c 0.42491,-0.6875 1.30232,-1.25 1.94922,-1.25 z m -154.30078,1.25 c 0.3438,0 0.27647,0.5625 -0.14844,1.25 -0.42489,0.6875 -1.05268,1.25 -1.39648,1.25 -0.3437,0 -0.27841,-0.5625 0.14648,-1.25 0.4249,-0.6875 1.05474,-1.25 1.39844,-1.25 z m 161.72656,0 2.54102,0 2.53906,0 0.69532,1.8144 0.69726,1.8164 -1.01758,1.6211 c -0.5592,0.8924 -0.85415,2.6075 -0.65625,3.8106 l 0.35938,2.1875 -4.38086,0 -4.37891,0 -0.77344,-1.25 -0.77148,-1.25 2.41992,0 2.42188,0 1.59961,-1.9278 1.59961,-1.9277 -1.44727,-1.4473 c -0.7959,-0.7959 -1.44726,-1.8972 -1.44727,-2.4472 l 0,-1 z m -159.46289,4.8808 3.79493,0.3731 3.79296,0.3711 -0.26171,1.25 -0.26368,1.25 -2.54882,0.4004 -2.55079,0.3984 0,2.3398 c 0,1.2867 -0.53179,2.6675 -1.18359,3.0704 l -1.18555,0.7324 0.20313,-5.0918 0.20312,-5.0938 z m 125.82227,1.0586 0,0 0.69531,0.6953 0.69727,0.6973 -0.82422,1.332 c -1.038,1.6792 -2.79344,1.7121 -3.80664,0.072 l -0.7793,-1.2579 2.00977,-0.7714 2.00781,-0.7696 z m 8.64062,0.1621 0,1.9493 0,1.9492 -1.25,0 c -0.6875,0 -1.25,-0.5287 -1.25,-1.1758 0,-0.6468 0.5625,-1.5243 1.25,-1.9492 l 1.25,-0.7735 z m 15.94532,2.7422 c 0.47296,-0.031 0.85027,0.034 1.01562,0.1992 0.3307,0.3306 -0.20676,1.2711 -1.19336,2.0899 l -1.79492,1.4883 -0.81445,-1.3184 -0.81641,-1.3203 2.00977,-0.7715 c 0.5522,-0.2119 1.12079,-0.3365 1.59375,-0.3672 z m -143.44532,0.7403 0.83399,0.832 0.83398,0.834 -0.83398,0.834 -0.83399,0.832 0,-1.666 0,-1.666 z m 12.76758,1.666 2.91797,0 2.91797,0 0.73438,1.1875 0.73242,1.1875 -2.45313,1.3125 c -1.3491,0.7219 -2.6286,1.2669 -2.8457,1.2129 -0.217,-0.054 -1.06797,-0.3711 -1.88867,-0.7051 l -1.49219,-0.6074 0.68945,-1.795 0.6875,-1.7929 z m 96.60742,2.3125 c 0.6531,0 1.39032,0.6046 1.63672,1.3437 l 0.44727,1.3438 -2.08399,0 -2.08203,0 0.44727,-1.3438 c 0.2463,-0.7391 0.98157,-1.3437 1.63476,-1.3437 z m 36.88086,0.4355 4.29493,0.1211 4.29492,0.1211 -0.6211,1.0059 c -0.3414,0.5525 -1.962,1.0039 -3.59961,1.0039 l -2.97656,0 -0.69531,-1.125 -0.69727,-1.127 z m -151.1289,2.252 1.23437,0 -0.36718,2.1035 -0.36915,2.1055 3.11329,0.7617 3.11328,0.7597 -1.86328,1.168 c -1.0244,0.6417 -3.69148,1.2883 -5.92579,1.4375 l -4.0625,0.2715 0,-1.5254 c 10e-6,-2.0927 3.61236,-7.082 5.12696,-7.082 z m 107.99804,8.6172 1.25,0.066 c 0.68695,0.036 1.24909,0.7222 1.25,1.5234 -9.9e-4,0.8015 -0.75737,1.7097 -1.68164,2.0176 l -1.68164,0.5605 0.43164,-2.084 0.43164,-2.0839 z m -13.125,2.6328 2.6543,0 2.65235,0 -1.55665,1.875 c -0.8559,1.0313 -2.04904,1.875 -2.65234,1.875 l -1.09766,0 0,-1.875 0,-1.875 z m 22.08399,2.4023 3.43555,1.3067 3.43554,1.3066 -0.51367,1.5547 -0.51172,1.5547 -2.51172,0.373 -2.51171,0.3731 -1.38086,-1.666 -1.38086,-1.6641 0.96875,-1.5684 0.9707,-1.5703 z m -148.66406,8.8164 -1.76953,1.4668 -1.76758,1.4668 1.62109,1.0293 c 0.8919,0.5657 2.8867,1.0368 4.43359,1.0488 l 2.8125,0.018 0,-1.3222 0,-1.3243 -1.10742,0.6856 -1.10937,0.6836 -1.55664,-1.877 -1.55664,-1.875 z m -192.16993,25.0293 0,3.75 0,3.75 0.97266,0 c 0.5345,0 2.25989,-0.9013 3.83399,-2.0039 l 2.86132,-2.0039 3.66602,0.5371 3.66601,0.5391 0,-0.7832 c 0,-0.4309 -0.675,-1.4602 -1.5,-2.2852 l -1.5,-1.5 -6,0 -6,0 z m 0,36.252 0,1.25 0,1.25 1.875,0 1.875,0 0,-1.25 0,-1.25 -1.875,0 -1.875,0 z"
       id="path10260" />
  </g>
</svg>
