<?xml version="1.0" encoding="UTF-8" standalone="no"?>
<!-- Created with Inkscape (http://www.inkscape.org/) -->

<svg
   xmlns:dc="http://purl.org/dc/elements/1.1/"
   xmlns:cc="http://creativecommons.org/ns#"
   xmlns:rdf="http://www.w3.org/1999/02/22-rdf-syntax-ns#"
   xmlns:svg="http://www.w3.org/2000/svg"
   xmlns="http://www.w3.org/2000/svg"
   xmlns:sodipodi="http://sodipodi.sourceforge.net/DTD/sodipodi-0.dtd"
   xmlns:inkscape="http://www.inkscape.org/namespaces/inkscape"
   width="210mm"
   height="297mm"
   viewBox="0 0 744.09448819 1052.3622047"
   id="svg4143"
   version="1.1"
   inkscape:version="0.91 r13725"
   sodipodi:docname="X.svg">
  <defs
     id="defs4145" />
  <sodipodi:namedview
     id="base"
     pagecolor="#ffffff"
     bordercolor="#666666"
     borderopacity="1.0"
     inkscape:pageopacity="0.0"
     inkscape:pageshadow="2"
     inkscape:zoom="0.35"
     inkscape:cx="-145"
     inkscape:cy="520"
     inkscape:document-units="px"
     inkscape:current-layer="layer1"
     showgrid="false"
     inkscape:window-width="1920"
     inkscape:window-height="1055"
     inkscape:window-x="0"
     inkscape:window-y="25"
     inkscape:window-maximized="1" />
  <metadata
     id="metadata4148">
    <rdf:RDF>
      <cc:Work
         rdf:about="">
        <dc:format>image/svg+xml</dc:format>
        <dc:type
           rdf:resource="http://purl.org/dc/dcmitype/StillImage" />
        <dc:title></dc:title>
      </cc:Work>
    </rdf:RDF>
  </metadata>
  <g
     inkscape:label="Layer 1"
     inkscape:groupmode="layer"
     id="layer1">
    <path
       inkscape:connector-curvature="0"
       style="fill:#000000"
       d="m 269.11305,245.79326 -1.0683,0.6602 c -0.5875,0.3631 -1.0684,1.7412 -1.0684,3.0625 l 0,2.4023 -3.1816,0.7988 c -4.1133,1.0324 -5.2808,-0.1467 -1.9238,-1.9433 1.4339,-0.7674 2.6054,-1.9382 2.6054,-2.6016 l 0,-1.207 -4.125,0 -4.1269,0 -7.6953,5 c -4.2322,2.75 -7.9619,5 -8.2891,5 -0.9551,0 -21.0868,12.1133 -24.5137,14.75 -1.7187,1.3225 -6.058,3.8893 -9.6445,5.7031 l -6.5215,3.2969 -3.0918,0 -3.0937,0 -0.7813,1.2656 -0.7812,1.2656 2.6015,3.4219 c 12.1268,15.9455 21.7217,29.8278 25.6895,37.1719 2.6001,4.8125 5.4918,9.6392 6.4258,10.7246 0.934,1.0854 1.6972,2.3628 1.6972,2.8379 0,0.4751 1.3251,2.9609 2.9434,5.5254 1.6183,2.5644 3.3756,6.0319 3.9062,7.7051 0.5307,1.6734 3.4263,7.2043 6.4336,12.291 3.0073,5.0866 5.4668,9.7673 5.4668,10.4023 0,0.6351 3.375,7.0994 7.5,14.3652 4.125,7.266 7.5,13.7312 7.5,14.3672 0,0.636 0.5625,1.1563 1.25,1.1563 l 1.25,0 0,2.8476 0,2.8477 3.75,7.2266 c 2.0625,3.9752 3.75,8.0392 3.75,9.0293 0,0.9901 1.125,2.9238 2.5,4.2988 1.375,1.375 2.5,3.0447 2.5,3.709 0,0.6641 0.95,3.336 2.1094,5.9375 1.1593,2.6013 3.7285,8.38478 5.709,12.85348 1.9805,4.4688 4.6867,10.172 6.0156,12.6719 1.3289,2.4997 2.435,5.5935 2.457,6.875 0.022,1.2814 0.8656,3.4213 1.875,4.7558 1.0094,1.3346 1.834,3.2081 1.834,4.1641 l 0,1.7383 -6.0644,5.8359 c -3.3362,3.2095 -6.6499,6.9213 -7.3633,8.248 l -1.2969,2.4102 2.5371,4.8691 2.5371,4.8672 1.5235,7.3067 1.5254,7.3066 -0.7618,1.1934 c -0.4187,0.6568 -2.5036,1.5731 -4.6347,2.0351 l -3.875,0.8399 -5.4278,-4.5352 -5.4277,-4.5332 -3.5996,4.1641 c -1.9796,2.2901 -5.7273,6.4145 -8.3281,9.166 -2.6008,2.7515 -5.1427,6.3105 -5.6504,7.9101 l -0.9238,2.9083 -5.1973,5.4277 c -2.8583,2.9842 -6.6035,7.7993 -8.3223,10.7012 -1.7187,2.9019 -4.3925,6.5297 -5.9433,8.0625 -1.5509,1.5327 -4.5653,6.0942 -6.6973,10.1367 -2.1321,4.0425 -5.1212,8.7559 -6.6426,10.4746 -6.5287,7.3756 -15.4669,19.824 -18.2519,25.416 l -3.0078,6.0391 -2.2461,1.2011 c -1.2352,0.6611 -3.6984,3.5018 -5.4727,6.3125 -1.7743,2.8106 -5.7043,8.1514 -8.7324,11.8692 -3.0282,3.7177 -5.5059,7.3224 -5.5059,8.0097 0,0.6873 -2.25,3.5912 -5,6.4532 l -5,5.2031 0,2.7891 0,2.789 -2.4961,0.793 -2.498,0.793 -0.7617,3.041 -0.7637,3.041 -1.6348,0 -1.6347,0 -3.6739,4.6875 c -2.0204,2.5782 -3.8961,5.3826 -4.1679,6.2305 l -0.4942,1.541 -5.625,2.834 -5.625,2.832 -0.414,2.2402 -0.4141,2.2403 5.4141,4.8964 c 2.9778,2.693 6.1172,4.9183 6.9765,4.9473 0.8594,0.028 1.5625,0.5996 1.5625,1.2695 0,0.6699 1.5469,2.0254 3.4375,3.0118 1.8907,0.9863 6.649,4.9373 10.5723,8.7812 3.9233,3.8437 7.5437,6.9883 8.0449,6.9883 0.5012,0 3.4772,2.1265 6.6152,4.7246 3.138,2.5983 7.3926,5.7904 9.4551,7.0937 2.0625,1.3032 4.3125,3.0517 5,3.8848 0.6875,0.8332 5.344,4.9924 10.3457,9.2422 l 9.0938,7.7266 2.1426,-0.4122 2.1425,-0.4121 5.2676,-8.7363 c 2.8974,-4.8045 5.9975,-10.1425 6.8887,-11.8613 2.3895,-4.6081 6.9117,-11.468 9.7519,-14.793 1.3712,-1.6053 2.4922,-3.7088 2.4922,-4.6758 l 0,-1.7597 2.5,-1.5606 2.5,-1.5605 0,-1.9004 0,-1.8985 2.5,-1.5605 2.5,-1.5605 0,-3.1153 0,-3.1152 1.7246,0 1.7227,0 4.334,-6.5625 c 7.3206,-11.0827 10.9692,-17.0892 10.9922,-18.0977 0.012,-0.5304 1.405,-2.2775 3.0976,-3.8828 1.6925,-1.6052 7.1673,-8.6008 12.166,-15.5469 4.9987,-6.9462 11.3406,-15.196 14.0918,-18.332 2.7512,-3.1361 6.3572,-7.6718 8.0137,-10.0781 1.6565,-2.4062 3.7617,-5.2187 4.6797,-6.25 0.9179,-1.0312 4.4037,-5.1693 7.7441,-9.1973 3.3404,-4.0278 8.4835,-9.231 11.4297,-11.5625 l 5.3574,-4.2402 5.7618,-0.012 5.7597,-0.012 3.5821,-1.8671 3.58,-1.8672 4.1582,0 4.1582,0 0.8457,1.3691 0.8457,1.3692 -1.5625,2.9199 -1.5625,2.9219 1.2227,13.5214 1.2227,13.5235 -2.2188,3.7539 -2.2187,3.7539 8.5234,17.0371 c 4.688,9.3702 10.9061,20.6164 13.8164,24.9941 2.9102,4.3775 7.7987,12.7138 10.8652,18.5235 3.0665,5.8098 6.342,11.1535 7.2774,11.875 2.7797,2.1442 23.242,41.3674 22.1504,42.459 -0.3674,0.3674 0.2194,1.0082 1.3027,1.4238 l 1.9688,0.7558 2.123,7.086 c 1.1673,3.8974 3.0003,9.1973 4.0742,11.7754 l 0,0.01 1.9531,4.6875 1.502,0 c 1.7574,0 7.6421,-5.6536 10.9531,-10.5234 l 2.3106,-3.4004 1.5156,0.582 1.5156,0.5821 3.0488,-2.3418 c 1.6765,-1.2885 4.0368,-2.3561 5.2461,-2.3711 l 2.1993,-0.029 3.9238,-3.75 3.9238,-3.75 3.1563,0 3.1562,0 11.9707,-5.8418 11.9707,-5.8418 5.625,-0.2637 5.625,-0.2637 5.541,-1.9511 5.5411,-1.9512 1.0214,0.6309 1.0215,0.6308 0,-3.1953 0,-3.1953 -3.8047,-8.4414 c -4.017,-8.9112 -5.017,-11.0209 -21.2011,-44.6914 -5.6177,-11.6875 -10.9495,-22.9375 -11.8477,-25 -3.7673,-8.6512 -4.4675,-10.3877 -7.4394,-18.4629 -1.7132,-4.6554 -3.9436,-10.2804 -4.9571,-12.5 -1.0137,-2.2196 -3.3404,-7.6933 -5.1699,-12.1621 -1.8294,-4.4687 -6.1706,-13.4687 -9.6465,-20 -3.476,-6.5312 -9.1294,-17.2187 -12.5644,-23.75 -3.4351,-6.5312 -8.7881,-16.6562 -11.8946,-22.5 -3.1066,-5.8437 -6.9872,-13.1562 -8.623,-16.25 -1.6358,-3.0937 -4.3342,-7.875 -5.9981,-10.625 -1.6638,-2.75 -4.4975,-7.9685 -6.2968,-11.5977 -1.7995,-3.6291 -4.6885,-9.1322 -6.42,-12.2304 l -3.1484,-5.6329 -1.6055,1.3301 -1.6035,1.3321 -5.1386,-0.8223 c -2.827,-0.452 -5.1407,-1.1905 -5.1407,-1.6406 l 0,-0.8184 5.8184,-0.2539 5.8183,-0.252 1.9942,-1.746 c 1.0967,-0.9602 3.1989,-2.1126 4.6719,-2.5606 l 2.6796,-0.8144 1.4688,-3.5469 1.4687,-3.5449 2.9512,-1.3457 2.9512,-1.3438 5.4023,-7.0859 c 7.0853,-9.2934 12.0553,-17.0445 12.1778,-18.98828 l 0.1,-1.5625 1.3144,0 1.3145,0 1.2207,-3.5 1.2207,-3.502 3.8008,-2.2461 3.8027,-2.2441 -0.7129,-1.8555 c -0.3915,-1.0204 -0.7109,-2.439 -0.7109,-3.1504 l 0,-1.2929 -2.5,0.6543 -2.5,0.6543 0,-1.6133 0,-1.6113 3.4375,0.1894 c 1.8906,0.1041 4.1034,0.6112 4.9179,1.127 l 1.4805,0.9375 3.207,-4.2032 3.2071,-4.2031 0,-2.1875 0,-2.1855 2.4258,-0.6348 2.4238,-0.6348 1.8848,-5.5312 c 1.0368,-3.0426 3.0406,-6.9999 4.4511,-8.793 l 2.5645,-3.2598 0,-2.9062 0,-2.9063 5.039,-1.5097 5.0391,-1.5098 2.9688,-2.9687 c 1.6329,-1.6329 3.939,-5.0144 5.125,-7.5137 l 2.1562,-4.543 5.4609,-4.9707 5.461,-4.9687 0,-1.7149 0,-1.7148 -3.7774,-0.7539 c -2.0769,-0.4154 -4.1113,-1.2975 -4.5215,-1.961 l -0.7441,-1.207 5.9863,0.4297 5.9864,0.4297 1.1406,-4.375 1.1406,-4.375 3.0195,-3.9785 c 1.6604,-2.1885 3.0196,-4.8396 3.0196,-5.8926 l 0,-1.9141 2.539,-1.3593 2.5391,-1.3594 -0.3223,-1.4981 -0.3203,-1.498 5.2422,-5.625 c 2.8835,-3.0937 7.7828,-8.4375 10.8867,-11.875 l 5.6426,-6.25 0.022,-2.0762 0.019,-2.0762 -3.6894,-2.9238 c -2.0295,-1.608 -6.2911,-4.8925 -9.4707,-7.2988 -11.1032,-8.4025 -21.2806,-16.6588 -29.9649,-24.3125 -11.571,-10.1979 -15.593,-13.1875 -17.7519,-13.1875 l -1.791,0 0.7929,2.5 0.7949,2.5 -1.2617,0 c -0.6932,0 -1.574,-0.508 -1.959,-1.1309 l -0.7011,-1.1328 -2.4981,0.6524 -2.5,0.6543 0,-2.0215 0,-2.0215 -1.5332,0 -1.5351,0 -9.7149,10.1426 -9.7168,10.1425 0,2.9434 0,2.9434 -3.0566,1.6015 -3.0586,1.6016 -7.4395,10.1562 c -4.091,5.5851 -8.1402,11.4914 -9,13.125 -0.8599,1.6338 -4.8557,6.701 -8.8789,11.2618 -4.0234,4.5608 -7.3164,8.8746 -7.3164,9.5859 0,0.7114 -1.9293,3.4479 -4.289,6.082 -2.3597,2.6342 -6.719,8.2743 -9.6875,12.5332 -8.7535,12.5589 -16.0154,21.6309 -17.3125,21.6309 -0.6659,0 -1.211,0.6179 -1.211,1.3711 0,0.7533 -1.1311,2.9601 -2.5156,4.9043 l -2.5176,3.5351 -4.0449,0.8731 c -5.1864,1.1213 -14.9718,6.0437 -17.0898,8.5957 -0.9004,1.0849 -2.4009,1.9707 -3.334,1.9707 l -1.6973,0 -2.5254,-4.9492 c -1.389,-2.7227 -2.5254,-5.7706 -2.5254,-6.7735 0,-1.003 -0.8111,-3.417 -1.8027,-5.3633 -0.9915,-1.9463 -3.0067,-6.7261 -4.4785,-10.623 -1.4716,-3.8968 -4.0355,-8.9272 -5.6973,-11.1797 l -3.0215,-4.0957 0,-2.1738 0,-2.1719 -2.5469,-0.8086 -2.5468,-0.8086 -3.2539,-5.2129 c -7.7608,-12.4285 -12.2591,-19.171 -14.7364,-22.0898 -1.4588,-1.7187 -4.3003,-6.7812 -6.3144,-11.25 -2.0141,-4.4687 -4.4048,-8.9687 -5.3125,-10 -1.7374,-1.9738 -7.2691,-11.0255 -15.6602,-25.625 -2.766,-4.8125 -6.1449,-9.9977 -7.5097,-11.5235 l -2.4825,-2.7734 z m 244.0411,29.9141 c 0.6469,0 1.5224,0.5625 1.9472,1.25 l 0.7735,1.25 -1.9493,0 -1.9492,0 0,-1.25 c 0,-0.6875 0.5308,-1.25 1.1778,-1.25 z m 7.5722,8.75 1.875,0 1.875,0 0,1.875 c 0,1.0313 -0.1406,1.8294 -0.3125,1.7754 -2.2747,-0.7184 -3.4375,-1.5643 -3.4375,-2.5039 l 0,-1.1465 z m -84.7929,21.789 0,0 c 1.1265,-0.062 1.2972,0.738 0.6406,2.4493 -0.3899,1.0158 -1.7918,2.4264 -3.1152,3.1347 l -2.4063,1.2891 -0.7891,-0.7891 c -0.4342,-0.4341 -0.7793,-1.3996 -0.7793,-2.1445 l 0.012,-1.3535 3.3379,-1.5489 c 1.3955,-0.648 2.4172,-0.998 3.0957,-1.0371 z m 14.7929,0.295 0.834,0.832 0.834,0.834 -1.668,0 -1.666,0 0.834,-0.834 0.832,-0.832 z m 15.1739,1.625 1.164,0.7187 c 0.64,0.3955 1.1621,0.9683 1.1621,1.2715 0,0.3032 -0.8755,0.5508 -1.9472,0.5508 l -1.9493,0 0.7852,-1.2715 0.7852,-1.2695 z m -4.1856,2.5546 0.7207,1.8789 0.7227,1.879 -1.1856,3.1132 c -0.6512,1.7127 -1.479,3.1153 -1.8398,3.1153 -0.3608,0 -0.6563,-1.9351 -0.6563,-4.3008 l 0,-4.3027 1.1192,-0.6914 1.1191,-0.6915 z m 16.5703,1.1797 0.7344,1.918 0.7363,1.9199 -0.8008,5.2969 c -0.4407,2.9134 -1.2706,6.052 -1.8457,6.9746 l -1.0468,1.6777 -0.5957,-3.1211 -0.5977,-3.121 1.0449,-1.8653 1.043,-1.8633 -1.8652,-0.7168 -1.8653,-0.7148 0,-1.6133 0,-1.6133 2.5293,-1.58 2.5293,-1.5782 z m -33.1035,3.5176 2.3574,0.457 2.3555,0.4571 0.5215,1.5625 0.5195,1.5625 -1.2012,0 c -0.6606,0 -1.9553,-0.9091 -2.8769,-2.0196 l -1.6758,-2.0195 z m -6.8516,6.5391 2.3965,0 0,1.875 0,1.875 -1.5625,-0.125 c -0.8593,-0.068 -2.9687,-0.5155 -4.6875,-0.9942 l -3.125,-0.8711 2.291,-0.8808 c 1.2594,-0.484 3.3687,-0.8789 4.6875,-0.8789 z m 4.8789,3.4746 3.1348,0.7851 3.1328,0.7871 0,1.2422 0,1.2403 -4.8418,-0.7754 -4.8437,-0.7735 -0.877,1.42 -0.8769,1.4199 2.9082,2.4297 2.9062,2.4316 -3.125,-0.1348 c -1.7187,-0.074 -4.1093,0.2827 -5.3125,0.793 l -2.1875,0.9277 0,-1.1347 c 0,-0.6237 0.675,-1.8078 1.5,-2.6328 l 1.5,-1.5 -1.8574,0 -1.8594,0 -0.2109,-2.7969 -0.2109,-2.7969 1.039,1.6797 1.0371,1.6797 4.5215,-2.1465 4.5234,-2.1445 z m 20.0176,2.7754 1.25,0 1.25,0 0,1.875 0,1.875 -1.25,0 -1.25,0 0,-1.875 0,-1.875 z m 35,6.25 c 0.6875,0 1.25,0.5625 1.25,1.25 0,0.6875 -0.5625,1.25 -1.25,1.25 -0.6875,0 -1.25,-0.5625 -1.25,-1.25 0,-0.6875 0.5625,-1.25 1.25,-1.25 z m -180,2.084 0.834,0.832 0.834,0.834 -1.668,0 -1.666,0 0.834,-0.834 0.832,-0.832 z m 175,1.25 0.834,0.832 0.834,0.834 -1.668,0 -1.666,0 0.834,-0.834 0.832,-0.832 z m -15.625,0.416 c 0.9502,0 2.0752,0.5625 2.5,1.25 l 0.7735,1.25 -3.2735,0 -3.2715,0 0.7715,-1.25 c 0.4249,-0.6875 1.5499,-1.25 2.5,-1.25 z m -43.75,0.625 8.75,0.2168 c 4.8125,0.12 9.7344,0.2615 10.9375,0.3125 l 2.1875,0.096 0,1.0937 0,1.0938 -3.5976,0.7187 -3.5996,0.7207 -1.9375,1.9356 c -2.1476,2.1475 -2.5949,2.2879 -3.7168,1.166 -0.4234,-0.4235 -2.6271,-1.1492 -4.8965,-1.6133 l -4.127,-0.8437 0,-2.4493 0,-2.4472 z m 58.125,3.125 c 0.6875,0 1.25,0.5625 1.25,1.25 0,0.6875 -0.5625,1.25 -1.25,1.25 -0.6875,0 -1.25,-0.5625 -1.25,-1.25 0,-0.6875 0.5625,-1.25 1.25,-1.25 z m -36.666,0.625 2.084,0 2.082,0 0.3125,1.25 0.3125,1.25 -2.9511,0.4179 -2.9512,0.418 0.5566,-1.668 0.5547,-1.6679 z m 18.9492,0.3418 1.2422,0.7675 1.2403,0.7676 -0.6583,2.5176 c -0.3621,1.385 -1.1129,2.7996 -1.6679,3.1426 l -1.0078,0.623 -0.8399,-2.6426 -0.8398,-2.6445 1.2656,-1.2656 1.2656,-1.2656 z m -38.4707,2.5976 3.6328,0.7989 3.6328,0.7968 1.4903,1.795 1.4883,1.7949 4.2226,0 4.2207,0 0,3.125 0,3.125 1.1055,0 c 0.6072,0 1.4511,-1.2656 1.875,-2.8125 l 0.7695,-2.8125 1.0977,1.7011 1.0976,1.6993 -0.5586,2.1367 -0.5586,2.1367 1.961,1.6289 c 1.079,0.8955 1.9609,2.1213 1.9609,2.7246 l 0,1.0977 -3.0508,0 -3.0507,0 -0.7735,-1.25 -0.7715,-1.25 -2.3867,0 -2.3867,0 0.6758,1.7617 0.6758,1.7617 -2.5899,0.8223 -2.5918,0.8222 0,1.7911 0,1.791 -1.834,0 -1.8359,0 0.7188,-1.875 0.7187,-1.875 -2.0977,0 c -1.154,0 -2.887,0.7894 -3.8515,1.7539 l -1.7539,1.7519 1.9453,0.7481 c 1.0698,0.4105 3.3661,0.7461 5.1016,0.7461 l 3.1543,0 2.539,3.2265 2.5371,3.2246 2.2481,-0.5878 2.25,-0.5879 0.707,1.8457 0.707,1.8437 -0.9843,1.7598 -0.9844,1.7597 -2.4551,-1.7168 c -3.9687,-2.7743 -11.8166,-7.0175 -12.9785,-7.0175 l -1.0723,0 0.1738,2.0527 0.1719,2.0527 -1.3359,0.4766 -1.336,0.4746 -1.6621,-3.1055 c -0.9142,-1.7082 -1.719,-4.6751 -1.789,-6.5918 l -0.127,-3.4843 -4.1758,-0.4004 -4.1757,-0.4004 0.8066,-3.3496 c 0.4439,-1.8425 1.6197,-3.9751 2.6133,-4.7383 l 1.8066,-1.3867 0,-2.5879 0,-2.5879 -2.8125,-0.4004 -2.8125,-0.3984 0,-1.875 0,-1.875 3.8086,-0.082 c 2.094,-0.044 4.4972,-0.5073 5.3418,-1.0293 l 1.5371,-0.9492 z m 46.1875,2.2696 0.834,0.832 0.834,0.834 -1.668,0 -1.666,0 0.834,-0.834 0.832,-0.832 z m 2.5,4.166 1.9492,0 1.9493,0 -0.7735,1.25 c -0.4248,0.6875 -1.3003,1.25 -1.9472,1.25 -0.647,0 -1.1778,-0.5625 -1.1778,-1.25 l 0,-1.25 z m -71.5547,3.75 2.5,0 2.5,0 1.5547,1.875 1.5567,1.875 -2.5,0 -2.5,0 -1.5567,-1.875 -1.5547,-1.875 z m 56.5743,3.75 2.4902,0 2.4902,0 0,1.8164 c 0,0.999 -0.6513,3.249 -1.4492,5 -0.7979,1.7512 -1.8304,3.1836 -2.2949,3.1836 l -0.8457,0 -0.1953,-5 -0.1953,-5 z m 13.7304,4.584 0.834,0.832 0.834,0.834 -1.668,0 -1.666,0 0.834,-0.834 0.832,-0.832 z m -3.75,1.25 0.834,0.832 0.834,0.834 -1.668,0 -1.666,0 0.834,-0.834 0.832,-0.832 z m -58.75,12.5 0.834,0.832 0.834,0.834 -1.668,0 -1.666,0 0.834,-0.834 0.832,-0.832 z m 7.9629,0.3261 1.9219,0.7364 1.9219,0.7382 -1.8399,1.1641 -1.8418,1.1621 4.6875,0.019 4.6875,0.02 0,1.1289 0,1.1308 -6.3437,0.049 -6.3438,0.049 1.4981,-1.8047 1.4961,-1.8027 -2.9649,-0.08 -2.9668,-0.078 3.0449,-1.2168 3.043,-1.2149 z m 39.5371,6.0313 0,0 0,2.0274 0,2.0273 -3.4375,-0.1 -3.4375,-0.098 1.875,-0.6954 c 1.0313,-0.3818 2.5782,-1.2483 3.4375,-1.9277 l 1.5625,-1.2363 z m -23.75,2.8086 1.875,0 1.875,0 0,1.25 0,1.25 -1.875,0 -1.875,0 0,-1.25 0,-1.25 z m 10,0 1.25,0 1.25,0 0,1.875 0,1.875 -1.25,0 -1.25,0 0,-1.875 0,-1.875 z m 23.75,1.25 0,1.957 c 0,1.0765 0.5925,3.0612 1.3145,4.4102 l 1.3125,2.4511 1.1113,-0.6875 1.1133,-0.6875 -1.2969,-3.7226 -1.2988,-3.7207 -1.127,0 -1.1289,0 z m -52.5,1.25 1.9492,0 1.9493,0 -0.7735,1.25 c -0.4248,0.6875 -1.3003,1.25 -1.9472,1.25 -0.647,0 -1.1778,-0.5625 -1.1778,-1.25 l 0,-1.25 z m -15.1465,3.75 1.9493,0 1.9472,0 0,1.25 c 0,0.6875 -0.5288,1.25 -1.1758,1.25 -0.6469,0 -1.5243,-0.5625 -1.9492,-1.25 l -0.7715,-1.25 z m -65,2.5 2.0215,0 2.0235,0 -0.7735,1.25 c -0.4248,0.6875 -0.9873,1.25 -1.25,1.25 -0.2626,0 -0.8251,-0.5625 -1.25,-1.25 l -0.7715,-1.25 z m 39.1075,7.2109 1.3945,1.3945 1.3945,1.3946 -2.0215,0 c -1.1125,0 -3.0531,0.351 -4.3125,0.7793 l -2.291,0.7773 2.918,-2.1738 2.918,-2.1719 z m 61.039,2.7891 1.9805,0 1.9785,0 -0.4941,1.4843 c -0.2721,0.8164 -1.1641,1.7065 -1.9805,1.9786 l -1.4844,0.4961 0,-1.9805 0,-1.9785 z m -107.5,0.1621 c 0.5664,0 1.1329,0.086 1.5625,0.2597 l 1.5625,0.6309 -3.125,0 -3.125,0 1.5625,-0.6309 c 0.4297,-0.1733 0.9961,-0.2597 1.5625,-0.2597 z m 107.5,4.4219 0.834,0.832 0.834,0.834 -0.834,0.834 -0.834,0.832 0,-1.666 0,-1.666 z m -68.5937,0.8711 3.6718,0.539 3.6719,0.5391 0,0.9746 c 0,0.5359 -0.889,1.3151 -1.9765,1.7324 -2.7418,1.0521 -2.7861,1.0373 -4.1504,-1.5117 l -1.2168,-2.2734 z m -76.4063,2.0449 c 0.6875,0 1.25,0.5625 1.25,1.25 0,0.6875 -0.5625,1.25 -1.25,1.25 -0.6875,0 -1.25,-0.5625 -1.25,-1.25 0,-0.6875 0.5625,-1.25 1.25,-1.25 z m 127.3535,0 1.9493,0 1.9472,0 0,1.25 c 0,0.6875 -0.5288,1.25 -1.1758,1.25 -0.6469,0 -1.5243,-0.5625 -1.9492,-1.25 l -0.7715,-1.25 z m -14.7793,3.75 1.3243,0 -0.7735,1.25 c -0.4248,0.6875 -1.0191,1.25 -1.3222,1.25 -0.3033,0 -0.5528,-0.5625 -0.5528,-1.25 0,-0.6875 0.5962,-1.25 1.3242,-1.25 z m -47.5742,2.5 1.875,0 1.875,0 0,1.25 0,1.25 -1.875,0 -1.875,0 0,-1.25 0,-1.25 z m 14.8926,5.9394 1.9297,0.7403 c 1.0608,0.4071 1.9277,1.3203 1.9277,2.0293 0,1.5865 -1.2933,1.6179 -3.7129,0.088 l -1.8379,-1.164 0.8457,-0.8477 0.8477,-0.8457 z m 17.6074,0.043 2.1543,0.8262 2.1524,0.8261 -1.8399,1.1641 c -1.012,0.64 -2.123,1.1621 -2.4668,1.1621 -0.3437,0 -1.4528,-0.5221 -2.4648,-1.1621 l -1.8399,-1.1641 2.1524,-0.8261 2.1523,-0.8262 z m -7.2031,1.8047 c 0.8391,0.1017 0.8791,0.9525 0.2246,2.6582 l -0.7891,2.0547 -1.7402,0 -1.7422,0 0,-1.7422 0,-1.7403 2.0547,-0.789 c 0.6498,-0.2494 1.1764,-0.3975 1.584,-0.4395 0.1528,-0.016 0.2883,-0.017 0.4082,0 z m -41.2773,0.7832 -0.543,1.6523 -0.543,1.6524 -4.0996,0.4004 -4.1016,0.4023 0.543,-1.6523 0.543,-1.6504 4.0996,-0.4024 4.1016,-0.4023 z m -12.7696,1.0117 0.834,0.834 0.834,0.832 -1.668,0 -1.666,0 0.834,-0.832 0.832,-0.834 z m 36.7871,0.418 3.0352,0 2.0234,2.0234 c 1.1131,1.1131 1.8571,2.159 1.6524,2.3242 -0.2046,0.1651 -1.7965,0.6408 -3.5371,1.0567 l -3.1641,0.7558 -1.5234,-2.4394 c -0.8375,-1.341 -1.5235,-2.7271 -1.5235,-3.0801 0,-0.3531 1.3675,-0.6406 3.0371,-0.6406 z m 13.3692,4.7383 0.7558,0.7558 0.7559,0.7559 -2.3965,-0.1 -2.3965,-0.1 1.6407,-0.6563 1.6406,-0.6562 z m -16.4063,21.09368 0.834,0.834 0.834,0.834 -1.668,0 -1.666,0 0.834,-0.834 0.832,-0.834 z m -33.75,26.5195 1.2715,0.7852 1.2695,0.7851 -0.7187,1.1641 c -0.3955,0.64 -1.2159,1.1641 -1.8223,1.1641 -0.6063,0 -1.4248,-0.5241 -1.8203,-1.1641 l -0.7187,-1.1641 1.2695,-0.7851 1.2695,-0.7852 z m 63.75,6.3985 2.5,0 2.5,0 0,1.875 c 0,1.0313 -0.4218,1.8294 -0.9375,1.7754 -2.1053,-0.2216 -4.0625,-1.4292 -4.0625,-2.5059 l 0,-1.1445 z m -18.75,5.1621 c 0.5664,0 1.1329,0.086 1.5625,0.2597 l 1.5625,0.629 -3.125,0 -3.125,0 1.5625,-0.629 c 0.4297,-0.1733 0.9961,-0.2597 1.5625,-0.2597 z m 32.3281,13.5469 0.7325,1.1835 0.7304,1.1836 -1.1836,0.7325 -1.1835,0.7304 -0.7325,-1.1836 -0.7304,-1.1836 1.1836,-0.7324 1.1835,-0.7304 z m -15.9218,3.5293 0.7558,0.7558 0.7559,0.7559 -2.3965,-0.1 -2.3965,-0.1 1.6407,-0.6563 1.6406,-0.6562 z m -12.4766,10.2617 2.4102,0 2.4101,0 0,1.7402 0,1.7422 -1.9765,0.7578 c -2.27,0.8711 -6.7735,1.019 -6.7735,0.2227 0,-0.2947 0.8845,-1.4197 1.9649,-2.5 l 1.9648,-1.9629 z m 2.041,15.9297 1.5606,0.9628 1.5605,0.9649 -2.9844,2.293 c -1.6403,1.2613 -3.2636,2.2407 -3.6074,2.1757 -0.3437,-0.065 -1.6093,-0.375 -2.8125,-0.6894 l -2.1875,-0.5703 0,-1.8086 0,-1.8067 3.2598,0.8184 3.2598,0.8184 0.9765,-1.5801 0.9746,-1.5781 z m -17.1894,7.5371 2.7968,0.9414 c 1.5386,0.5177 4.6251,0.9024 6.8594,0.8554 l 4.0625,-0.086 0,1.1992 c 0,0.6602 -0.8627,1.5327 -1.9179,1.9375 l -1.918,0.7364 -2.3399,4.8437 -2.3418,4.8438 3.1719,-0.795 3.1719,-0.7968 -0.5781,1.7382 -0.5801,1.7403 -6.459,0.1269 -6.459,0.127 0,-1.3086 c 0,-0.7201 1.5469,-2.9597 3.4375,-4.9785 l 3.4375,-3.6719 -1.25,-0.4805 c -0.6875,-0.2644 -2.0346,-0.9771 -2.9941,-1.584 l -1.7442,-1.1035 0.8223,-2.1426 0.8223,-2.1425 z m -17.2246,29.0332 2.3476,0 c 1.2909,0 2.336,0.4219 2.336,0.9375 -0.01,0.5156 -1.383,1.5728 -3.0625,2.3515 l -3.0528,1.4161 -0.6758,-0.6758 -0.6757,-0.6758 1.3906,-1.6777 1.3926,-1.6758 z m 63.4433,3.75 1.9492,0 1.9493,0 -0.7735,1.25 c -0.4248,0.6875 -1.3003,1.25 -1.9472,1.25 -0.647,0 -1.1778,-0.5625 -1.1778,-1.25 l 0,-1.25 z m -14.9336,5.1679 c 1.0634,0.1352 2.4336,1.2982 2.4336,2.4043 0,0.647 -0.5288,1.1778 -1.1758,1.1778 -1.4748,0 -3.0516,-2.4386 -2.1562,-3.334 0.2238,-0.2238 0.544,-0.2931 0.8984,-0.2481 z m 6.1836,2.1836 1.25,0.7735 c 0.6875,0.4249 1.25,1.019 1.25,1.3222 0,0.3032 -0.5625,0.5528 -1.25,0.5528 -0.6875,0 -1.25,-0.5962 -1.25,-1.3242 l 0,-1.3243 z m 43.4629,1.1856 2.8574,0.418 2.8594,0.4199 0.5156,1.5625 0.5137,1.5625 -1.9785,0 -1.9805,0 0,1.25 c 0,1.8037 -1.6076,1.4541 -3.582,-0.7774 l -1.709,-1.9316 1.252,-1.252 1.2519,-1.2519 z m -66.1094,16.4629 2.0215,0 2.0235,0 -0.7735,1.25 c -0.4248,0.6875 -0.9873,1.25 -1.25,1.25 -0.2626,0 -0.8251,-0.5625 -1.25,-1.25 l -0.7715,-1.25 z m 78.8965,3.75 1.25,0 1.25,0 0,1.875 0,1.875 -1.25,0 -1.25,0 0,-1.875 0,-1.875 z m -203.5683,5.0078 2.4453,1.3086 2.4433,1.3086 -0.7324,1.1875 -0.7344,1.1875 -2.8437,0 c -4.5175,0 -6.2145,-2.8295 -2.543,-4.2383 l 1.9649,-0.7539 z m -57.8282,1.2422 2.0215,0 2.0235,0 -0.7735,1.25 c -0.4249,0.6875 -0.9874,1.25 -1.25,1.25 -0.2626,0 -0.8251,-0.5625 -1.25,-1.25 l -0.7715,-1.25 z m 203.75,1.25 1.9493,0 1.9472,0 0,1.25 c 0,0.6875 -0.5288,1.25 -1.1758,1.25 -0.6469,0 -1.5243,-0.5625 -1.9492,-1.25 l -0.7715,-1.25 z m -137.3535,3.332 0.834,0.834 0.834,0.834 -1.668,0 -1.666,0 0.834,-0.834 0.832,-0.834 z m -18.75,2.7695 1.25,0.7735 c 0.6875,0.4249 1.25,1.019 1.25,1.3222 0,0.3032 -0.5625,0.5528 -1.25,0.5528 -0.6875,0 -1.25,-0.5962 -1.25,-1.3242 l 0,-1.3243 z m 170,0.1485 1.25,0 1.25,0 0,1.875 0,1.875 -1.25,0 -1.25,0 0,-1.875 0,-1.875 z m -136.25,1.25 4.8672,0 4.8672,0 0.7187,1.875 0.7188,1.875 -2.7734,0.016 c -1.5253,0.01 -4.0391,0.3569 -5.586,0.7715 l -2.8125,0.7539 0,-2.6465 0,-2.6445 z m -49.8261,1.209 1.164,0.7187 c 0.64,0.3955 1.1621,0.9663 1.1621,1.2695 0,0.3032 -0.8754,0.5528 -1.9472,0.5528 l -1.9493,0 0.7852,-1.2715 0.7852,-1.2695 z m 3.4882,1.291 1.8184,0 c 0.9992,0 2.6707,0.3278 3.7148,0.7285 l 1.8985,0.7266 -0.6797,1.7734 -0.6797,1.7715 -1.6973,0 -1.6972,0 -1.3399,-2.5 -1.3379,-2.5 z m 22.5879,0.832 0.834,0.834 0.834,0.834 -0.834,0.832 -0.834,0.834 0,-1.666 0,-1.668 z m -5,1.5195 0,1.9493 c 0,2.1957 -0.7487,2.5188 -1.8203,0.7851 l -0.7187,-1.1641 1.2695,-0.7851 1.2695,-0.7852 z m -59.4121,5.5352 1.3809,2.6191 c 0.7591,1.4406 1.1564,3.041 0.8828,3.5567 -0.2735,0.5156 -1.0269,0.9375 -1.6738,0.9375 l -1.1778,0 0,-1.7422 0,-1.7403 -2.1875,-0.8925 -2.1875,-0.8946 2.4824,-0.9218 2.4805,-0.9219 z m 254.4121,0.4453 0.834,0.834 0.834,0.834 -1.668,0 -1.666,0 0.834,-0.834 0.832,-0.834 z m -27.5,5 0.834,0.834 0.834,0.834 -0.834,0.832 -0.834,0.834 0,-1.666 0,-1.668 z m -222.6465,0.418 1.9493,0 1.9472,0 0,1.25 c 0,0.6875 -0.5289,1.25 -1.1758,1.25 -0.6469,0 -1.5243,-0.5625 -1.9492,-1.25 l -0.7715,-1.25 z m 200.1465,2.082 0.834,0.834 0.834,0.834 -1.668,0 -1.666,0 0.834,-0.834 0.832,-0.834 z m -205,0.209 1.5625,0.5215 1.5625,0.5195 0,1.668 0,1.666 -1.5625,0.5215 -1.5625,0.5195 0,-2.707 0,-2.709 z m 246.25,1.459 2.5,0 2.5,0 0,1.25 0,1.25 -2.5,0 -2.5,0 0,-1.25 0,-1.25 z m -186.1758,1.25 c 0.6469,0 1.1758,0.5625 1.1758,1.25 l 0,1.25 -1.9472,0 -1.9493,0 0.7715,-1.25 c 0.4249,-0.6875 1.3023,-1.25 1.9492,-1.25 z m -46.2285,8.6113 2.5215,0.7988 2.5215,0.8008 -0.4316,1.2949 -0.4317,1.295 -4.6367,0.2812 -4.6387,0.2813 0,-1.0137 c 0,-0.5574 1.148,-1.6253 2.5489,-2.375 l 2.5468,-1.3633 z m 218.9356,6.0684 1.0898,1.7226 c 0.6001,0.9474 1.0983,2.1446 1.1113,2.6602 0.025,1.2332 -0.2005,1.1658 -2.8691,-0.8574 l -2.2617,-1.7168 1.4648,-0.9043 1.4649,-0.9043 z m -236.5313,4.9023 0.834,0.834 0.834,0.834 -1.668,0 -1.666,0 0.834,-0.834 0.832,-0.834 z m 7.5,10 0.834,0.834 0.834,0.834 -1.668,0 -1.666,0 0.834,-0.834 0.832,-0.834 z m 210.1485,1.668 1.25,0 -0.7735,1.25 c -0.4248,0.6875 -1.334,1.25 -2.0215,1.25 l -1.25,0 0.7715,-1.25 c 0.4249,-0.6875 1.336,-1.25 2.0235,-1.25 z m -182.7207,1.25 c 0.6469,0 1.5223,0.5625 1.9472,1.25 l 0.7735,1.25 -1.9493,0 -1.9492,0 0,-1.25 c 0,-0.6875 0.5308,-1.25 1.1778,-1.25 z m 211.039,35.0273 1.5703,1.8906 c 2.13,2.5665 0.9386,3.445 -1.8789,1.3848 l -2.2851,-1.6719 1.2968,-0.8027 1.2969,-0.8008 z m 11.3164,28.4395 1.3594,0.8398 c 0.7473,0.462 1.3574,1.6499 1.3574,2.6406 0,2.0796 -1.1006,2.2516 -3.7383,0.584 l -1.8652,-1.1777 1.4434,-1.4434 1.4433,-1.4433 z"
       id="path10232" />
  </g>
</svg>
