<?xml version="1.0" encoding="UTF-8" standalone="no"?>
<!-- Created with Inkscape (http://www.inkscape.org/) -->

<svg
   xmlns:dc="http://purl.org/dc/elements/1.1/"
   xmlns:cc="http://creativecommons.org/ns#"
   xmlns:rdf="http://www.w3.org/1999/02/22-rdf-syntax-ns#"
   xmlns:svg="http://www.w3.org/2000/svg"
   xmlns="http://www.w3.org/2000/svg"
   xmlns:sodipodi="http://sodipodi.sourceforge.net/DTD/sodipodi-0.dtd"
   xmlns:inkscape="http://www.inkscape.org/namespaces/inkscape"
   width="210mm"
   height="297mm"
   viewBox="0 0 744.09448819 1052.3622047"
   id="svg4143"
   version="1.1"
   inkscape:version="0.91 r13725"
   sodipodi:docname="Y.svg">
  <defs
     id="defs4145" />
  <sodipodi:namedview
     id="base"
     pagecolor="#ffffff"
     bordercolor="#666666"
     borderopacity="1.0"
     inkscape:pageopacity="0.0"
     inkscape:pageshadow="2"
     inkscape:zoom="0.35"
     inkscape:cx="-145"
     inkscape:cy="520"
     inkscape:document-units="px"
     inkscape:current-layer="layer1"
     showgrid="false"
     inkscape:window-width="1920"
     inkscape:window-height="1055"
     inkscape:window-x="0"
     inkscape:window-y="25"
     inkscape:window-maximized="1" />
  <metadata
     id="metadata4148">
    <rdf:RDF>
      <cc:Work
         rdf:about="">
        <dc:format>image/svg+xml</dc:format>
        <dc:type
           rdf:resource="http://purl.org/dc/dcmitype/StillImage" />
        <dc:title></dc:title>
      </cc:Work>
    </rdf:RDF>
  </metadata>
  <g
     inkscape:label="Layer 1"
     inkscape:groupmode="layer"
     id="layer1">
    <path
       inkscape:connector-curvature="0"
       style="fill:#000000"
       d="m 401.63103,246.22314 -0.7812,2.0313 -0.7793,2.0332 1.4336,2.7226 c 0.788,1.4971 2.0501,3.1355 2.8066,3.6406 1.6795,1.1214 4.13,1.0304 8.25,-0.3066 l 3.125,-1.0137 -2.8125,-0.8828 -2.8125,-0.8828 -0.1426,-1.416 c -0.079,-0.7793 -0.2205,-2.2597 -0.3125,-3.291 l -0.1699,-1.875 -3.9023,-0.3809 -3.9024,-0.3789 z m 44.6797,5.9668 -0.832,0.834 -0.834,0.834 1.666,0 1.668,0 -0.834,-0.834 -0.834,-0.834 z m -173.75,0.2441 0,3.002 c 0,1.652 0.3756,3.3797 0.834,3.8379 1.0856,1.0858 1.9233,1.0279 3.9766,-0.2735 l 1.6855,-1.0683 -0.4472,-2.3496 -0.4493,-2.3496 -2.7988,-0.4004 -2.8008,-0.3985 z m 78.6778,2.6739 c -0.647,0 -1.1778,0.5625 -1.1778,1.25 l 0,1.25 1.9492,0 1.9493,0 -0.7735,-1.25 c -0.4248,-0.6875 -1.3003,-1.25 -1.9472,-1.25 z m 2.5742,5 0.018,1.5625 c 0.033,2.6931 1.7416,4.4136 4.9804,5.0156 1.7187,0.3195 3.2793,0.656 3.4688,0.75 0.1895,0.094 -0.5273,-1.5156 -1.5938,-3.5781 l -1.9394,-3.75 -2.4688,0 -2.4648,0 z m -121.252,38.7461 0,0 0,1.9395 0,1.9414 -3.6758,1.2812 -3.6758,1.2813 -3.4863,4.5898 c -1.918,2.5253 -5.6092,6.6796 -8.2012,9.2305 l -4.7109,4.6367 0,2.5059 0,2.5058 -2.3692,1.2676 -2.3691,1.2676 -1.2578,3.6094 -1.2578,3.6113 -2.9356,0.8262 -2.9355,0.8242 -5.625,7.6484 c -3.0938,4.2059 -6.1875,8.8898 -6.875,10.4102 -0.6875,1.5202 -3.9571,5.9289 -7.2656,9.7968 l -6.0157,7.0333 7.2657,7.3046 c 7.7742,7.8167 21.6406,24.3851 21.6406,25.8575 0,0.7899 4.0703,6.0712 15.9023,20.6308 1.9555,2.4062 4.6618,6.5327 6.0137,9.1699 l 2.459,4.795 2.0469,1.1132 c 2.4837,1.3485 11.092,12.9415 13.2324,17.8204 1.4584,3.3246 2.7963,5.2578 10.3457,14.9609 1.7187,2.209 4.25,6.2344 5.625,8.9453 l 2.5,4.9277 6.0371,5.6973 c 3.3206,3.1328 6.9628,6.6814 8.0937,7.8867 2.5997,2.7708 11.4275,22.6285 12.6407,28.4336 0.5028,2.4062 1.5735,5.6006 2.3789,7.0977 l 1.4648,2.7207 -0.7695,2.0058 -0.7696,2.0039 5.1504,-0.8242 5.1485,-0.8222 0.1133,3.5957 c 0.406,12.8165 0.3083,18.8797 -0.4961,31.0976 l -0.9043,13.74996 -0.6602,88.4395 -0.6582,88.4375 -2.3633,7.3984 c -1.2999,4.069 -3.2447,9.1038 -4.3222,11.1875 -1.0776,2.0838 -1.961,4.3365 -1.961,5.0078 l 0,1.2207 2.1875,0.4707 c 1.2031,0.2588 4.4375,0.3313 7.1875,0.1602 2.75,-0.171 12.3125,-0.6712 21.25,-1.1094 8.9375,-0.4384 18.7812,-1.0405 21.875,-1.3379 3.0937,-0.2973 11.4983,-0.5533 18.6778,-0.5683 l 13.0546,-0.027 1.6622,-1.3789 1.6621,-1.3809 -0.7871,2.0528 -0.7872,2.0508 2.3946,0 c 1.3172,0 3.4857,-0.8153 4.8203,-1.8125 l 2.4277,-1.8125 -2.1894,-3.918 c -1.2043,-2.1542 -2.5358,-6.0802 -2.959,-8.7266 l -0.7695,-4.8125 1.4824,-21.0215 c 0.8155,-11.5617 1.4957,-27.4901 1.5117,-35.3964 0.038,-18.4363 0.019,-16.3937 0.3301,-37.5 0.1467,-9.9687 0.01,-20.2874 -0.3125,-22.9317 l -0.5801,-4.8086 -3.6563,0.7325 -3.6543,0.7304 0.3985,-2.7988 0.3984,-2.7988 3.4375,-0.3946 c 1.8906,-0.2176 3.4736,-0.7801 3.5176,-1.25 0.044,-0.47 0.5651,-7.3241 1.1582,-15.2304 0.593,-7.9062 1.9945,-24.7812 3.1152,-37.5 l 2.0372,-23.12496 -0.3829,-11.25 -0.3828,-11.25 1.875,0.291 1.875,0.291 2.2012,-3.8555 2.2031,-3.8574 1.8574,0.7129 1.8575,0.7129 2.1504,-3.3965 c 1.1828,-1.8686 5.4747,-7.0546 9.5371,-11.5234 4.0625,-4.4687 9.658,-11.2187 12.4355,-15 2.7774,-3.7812 6.7848,-8.9481 8.9043,-11.4825 2.1193,-2.5343 5.541,-6.676 7.6035,-9.2031 2.0625,-2.5272 5.4786,-6.3584 7.5918,-8.5156 7.2497,-7.4009 19.2832,-21.6398 19.2832,-22.8164 0,-0.6474 0.9843,-2.0464 2.1875,-3.1094 1.2031,-1.0629 4.8576,-5.547 8.1231,-9.9648 3.2654,-4.418 8.4878,-11.1269 11.6035,-14.9082 3.1157,-3.7812 7.7561,-9.9687 10.3125,-13.75 2.5564,-3.7812 5.2628,-7.4375 6.0156,-8.125 0.7529,-0.6875 2.696,-3.2187 4.3164,-5.625 1.6202,-2.4062 3.32,-4.6562 3.7774,-5 0.4574,-0.3437 2.8073,-3.7187 5.2226,-7.5 2.4152,-3.7812 5.6403,-7.9977 7.168,-9.3711 1.5278,-1.3733 3.4922,-3.9046 4.3652,-5.625 l 1.5879,-3.1289 -0.7773,-2.0196 c -0.7772,-2.0189 -36.4828,-37.1343 -39.584,-38.9297 -0.9021,-0.5222 -3.9768,-3.1941 -6.832,-5.9375 l -5.1915,-4.9882 -1.7109,0 c -0.941,0 -2.1612,-0.7279 -2.7109,-1.6192 -1.337,-2.1673 -10.0176,-7.1308 -12.4727,-7.1308 l -1.957,0 1.5801,1.9062 1.582,1.9043 -0.8594,0.8613 -0.8613,0.8594 -2.4707,-1.543 -2.4727,-1.5449 -0.8086,2.2168 c -0.4451,1.2186 -2.1058,3.7871 -3.6894,5.709 l -2.8789,3.4961 -1.291,4.7969 -1.293,4.7969 -1.8652,1.5488 c -1.0263,0.8518 -1.8653,2.2842 -1.8653,3.1836 0,1.8191 -1.7756,4.8029 -12.6015,21.1836 -11.5701,17.5068 -20.8697,30.6362 -26.8868,37.957 l -5.5117,6.7051 0,1.8398 0,1.8399 -6.5625,6.4668 c -3.6094,3.5567 -8.5313,9.1961 -10.9375,12.5312 -2.4063,3.3352 -6.4134,8.3929 -8.9043,11.2383 -2.491,2.8452 -6.3031,8.0707 -8.4707,11.6133 l -3.9414,6.4414 -1.9219,0.7383 -1.9218,0.7363 0.7793,1.2598 0.7773,1.2578 -1.6367,-0.033 c -0.8999,-0.019 -3.4848,-1.5685 -5.7441,-3.4434 l -4.1075,-3.4082 -1.8945,-8.7441 c -1.0421,-4.8097 -2.2391,-10.7148 -2.6602,-13.1211 l -0.7656,-4.375 -4.0742,-5.9375 -4.0723,-5.9395 -5.3906,-4.1113 -5.3906,-4.1113 -9.6992,-13.0743 c -5.3353,-7.1915 -15.7905,-21.5136 -23.2344,-31.8261 l -13.5352,-18.75 -3.6582,0.4433 -3.6582,0.4434 2.1446,-2.3711 2.1445,-2.3692 -2.4395,-4.0097 c -1.3417,-2.2061 -2.8968,-4.0117 -3.457,-4.0117 -0.5601,0 -1.6926,0.675 -2.5176,1.5 l -1.5,1.5 -1.5,-1.5 -1.5,-1.5 1.8125,-0.1485 c 0.9968,-0.081 2.2343,-0.081 2.75,0 1.7518,0.2766 0.9472,-2.4251 -0.9375,-3.1484 l -1.875,-0.7207 0,-2.293 c 0,-1.2609 -0.5269,-2.6162 -1.1699,-3.0137 -0.6431,-0.3975 -2.6292,-3.6654 -4.4141,-7.2617 -1.785,-3.5962 -4.1183,-8.116 -5.1836,-10.0449 l -1.9355,-3.5078 -2.9023,-1.1035 c -1.5961,-0.6067 -3.2716,-1.6998 -3.7227,-2.4297 -0.4511,-0.7298 -1.6305,-1.3281 -2.6211,-1.3281 l -1.8008,0 z m -53.75,2.5039 0,1.25 0,1.25 2.5,0 2.5,0 0,-1.25 0,-1.25 -2.5,0 -2.5,0 z m 31.6719,55.8828 0,0 c 2.0151,-0.012 3.9936,0.052 5.5156,0.1954 l 2.1875,0.207 -1.875,1.2109 -1.875,1.211 -3.75,-0.068 c -2.0625,-0.038 -4.875,-0.5536 -6.25,-1.1445 l -2.5,-1.0743 2.8125,-0.2753 c 1.6676,-0.1633 3.7193,-0.2513 5.7344,-0.2637 z m 255.8281,4.2773 c 0.5664,0 1.1329,0.086 1.5625,0.2598 l 1.5625,0.6309 -3.125,0 -3.125,0 1.5625,-0.6309 c 0.4297,-0.1734 0.9961,-0.2598 1.5625,-0.2598 z m -236.25,4.4883 5.3692,0.7363 c 2.9525,0.4046 7.0306,1.6026 9.0625,2.6621 l 3.6933,1.9278 -5.2383,0.012 -5.2382,0.012 -0.7735,1.25 0,-0.01 -0.7715,1.25 -2.4257,0 -2.4278,0 0,-1.1153 c 0,-0.614 0.8438,-1.4402 1.875,-1.8359 1.0313,-0.3958 1.875,-1.2478 1.875,-1.8926 l 0,-1.1719 -2.5,0.6543 -2.5,0.6543 0,-1.5664 0,-1.5664 z m 210.7461,5.5156 1.6348,1.0098 1.6367,1.0117 -1.1309,0.6992 -1.1308,0.6993 -1.6348,-1.0118 -1.6367,-1.0117 1.1309,-0.6992 1.1308,-0.6973 z m -196.9219,8.584 2.4258,0 0,1.875 0,1.875 -2.291,0 c -1.2605,0 -2.6502,-0.3591 -3.0898,-0.7988 l -0.8008,-0.7988 0.666,-1.0762 c 0.3656,-0.5916 1.7554,-1.0762 3.0898,-1.0762 z m 217.2793,2.5 1.3243,0 c 0.728,0 1.3222,0.5625 1.3222,1.25 0,0.6875 -0.2476,1.25 -0.5508,1.25 -0.3031,0 -0.8993,-0.5625 -1.3242,-1.25 l -0.7715,-1.25 z m 14.4161,0.037 c 1.1528,-0.033 1.9637,0.2622 1.9277,0.9004 -0.029,0.5156 -2.036,2.2031 -4.4609,3.75 l -4.4083,2.8125 -3.039,0 -3.0391,0 0,-1.039 c 0,-0.5713 1.5469,-1.7608 3.4375,-2.6446 1.8907,-0.8839 4.4157,-2.1035 5.6094,-2.7109 1.3261,-0.6746 2.8198,-1.0358 3.9727,-1.0684 z m -29.2696,1.211 0,0 0,1.25 c 0,1.4127 -0.589,1.4127 -5,0 l -3.125,-1.0019 4.0625,-0.125 4.0625,-0.125 z m -248.8965,0 0.7715,1.25 0.7735,1.25 -1.6368,-0.088 c -0.8999,-0.048 -2.7617,-0.5713 -4.1367,-1.1621 l -2.5,-1.0742 3.3653,-0.088 3.3632,-0.088 z m 26.252,0 1.0098,0.019 c 0.5561,0.011 1.8535,0.564 2.8847,1.2305 l 1.875,1.2129 -2.1133,0.018 c -1.1625,0.011 -2.4618,-0.5449 -2.8867,-1.2324 l -0.7695,-1.2481 z m 223.8945,2.5 1.5625,0.019 c 0.8594,0.011 2.4063,0.564 3.4375,1.2305 l 1.875,1.2129 -3.4375,0.018 -3.4375,0.019 0,-1.25 0,-1.25 z m -207.5,0.834 0.834,0.834 0.834,0.832 -1.668,0 -1.666,0 0.834,-0.832 0.832,-0.834 z m 186.25,4.166 2.8125,0.019 2.8125,0.02 -1.875,1.2109 c -2.4235,1.5662 -3.75,1.5662 -3.75,0 l 0,-1.25 z m 52.5,0 4.6875,0.019 4.6875,0.02 -1.875,1.2109 c -1.0312,0.6665 -3.1406,1.2204 -4.6875,1.2324 l -2.8125,0.018 0,-1.25 0,-1.25 z m 26.25,0 1.25,0 1.25,0 0,1.875 0,1.875 -1.25,0 -1.25,0 0,-1.875 0,-1.875 z m -68.5683,1.2168 0.9082,0.5606 0.9121,0.5625 -0.062,7.25 -0.064,7.2519 -2.0683,0.3985 -2.0743,0.3984 -0.8203,-1.3281 -0.8183,-1.3282 1.875,-0.7187 1.875,-0.7207 -0.6817,-1.7715 -0.6797,-1.7715 -2.291,0 c -1.2608,0 -2.6028,-0.5011 -2.9824,-1.1152 l -0.6894,-1.1172 3.0332,-0.7617 3.0332,-0.7617 0.7968,-2.5157 0.7989,-2.5117 z m -225.7364,1.2813 0,0 2.7774,1.9473 c 1.5267,1.0693 2.7752,2.4738 2.7773,3.123 l 0,1.1778 -3.4375,-0.1114 c -3.2276,-0.1059 -9.8323,-1.6097 -14.0625,-3.2011 l -1.875,-0.7051 2.5,-1.0274 c 1.375,-0.5653 4.4851,-1.0681 6.9102,-1.1171 l 4.4101,-0.088 z m 231.8047,0 1.1172,0 c 0.614,0 1.4402,0.8437 1.8359,1.875 l 0.7188,1.875 -1.8359,0 -1.836,0 0,-1.875 0,-1.875 z m 21.25,3.543 0,1.9785 0,1.9785 -1.9785,0 -1.9785,0 0.4941,-1.4844 c 0.2722,-0.8164 1.1622,-1.7064 1.9786,-1.9785 l 1.4843,-0.4941 z m 27.3535,1.457 1.3243,0 c 0.728,0 1.3222,0.5625 1.3222,1.25 0,0.6875 -0.2476,1.25 -0.5508,1.25 -0.3031,0 -0.8993,-0.5625 -1.3242,-1.25 l -0.7715,-1.25 z m -32.707,5.625 c 1.4987,0.033 3.6583,0.183 5.9785,0.4356 l 7.5,0.8144 0,2.3965 0,2.3965 -1.25,0.375 c -0.6875,0.207 -2.1297,-0.1385 -3.207,-0.7676 -1.0774,-0.629 -3.5606,-1.4342 -5.5176,-1.7891 -3.5186,-0.638 -6.6146,-2.7047 -5.5664,-3.7168 0.074,-0.072 0.3571,-0.1175 0.8027,-0.1386 0.3342,-0.016 0.7603,-0.017 1.2598,-0.01 z m -232.6738,0.7578 6.0976,0.8711 6.0977,0.8731 0.5215,1.5625 0.5195,1.5605 -3.541,0.018 c -1.9479,0.01 -4.668,0.3183 -6.043,0.6855 l -2.5,0.668 -2.2988,-1.6894 -2.3008,-1.6875 1.7246,-1.4317 1.7227,-1.4297 z m 47.6113,0.4922 2.291,0 2.293,0 0.5195,1.5625 0.5215,1.5625 -3.334,0 -3.332,0 0.5195,-1.5625 0.5215,-1.5625 z m 152.5,3.1231 0,0 1.666,0 0,1.8008 c 0,0.9906 -0.4978,2.1077 -1.1074,2.4844 l -1.1094,0.6855 -1.3789,-1.664 -1.3808,-1.6641 0.8222,-0.8223 c 0.4523,-0.4524 1.5716,-0.8222 2.4883,-0.8222 z m 19.166,1.2519 c 0.6875,0 1.25,0.5625 1.25,1.25 0,0.6875 -0.5625,1.25 -1.25,1.25 -0.6875,0 -1.25,-0.5625 -1.25,-1.25 0,-0.6875 0.5625,-1.25 1.25,-1.25 z m 18.75,1.1035 1.25,0.7715 c 0.6875,0.4249 1.25,1.0211 1.25,1.3242 0,0.3032 -0.5625,0.5508 -1.25,0.5508 -0.6875,0 -1.25,-0.5962 -1.25,-1.3242 l 0,-1.3223 z m -32.5,0.1465 1.9805,0 1.9785,0 -0.4941,1.4844 c -0.2721,0.8164 -1.1641,1.7084 -1.9805,1.9805 l -1.4844,0.4941 0,-1.9785 0,-1.9805 z m -180.0508,1.1348 2.8379,1.5664 2.8379,1.5644 -2.1875,0.459 c -1.2031,0.2524 -2.1875,0.9802 -2.1875,1.6172 l 0,1.1582 -3.6758,0 -3.6757,0 -0.7735,1.25 c -0.4248,0.6875 -1.8035,1.25 -3.0644,1.25 l -2.293,0 -0.7187,-1.875 -0.7188,-1.875 0.75,-1.959 0.752,-1.957 4.5566,0.3281 4.5566,0.3282 1.502,-0.9278 1.5019,-0.9277 z m 22.2188,5.4941 c 0.8269,0.067 2.372,0.6109 3.9668,1.4356 l 3.8652,2 0,3.0937 c 0,3.4612 -0.6415,3.8943 -2.125,1.4356 -0.5498,-0.9113 -1.9961,-2.0225 -3.2148,-2.4707 -2.2972,-0.8448 -4.2157,-4.2336 -3.0547,-5.3946 0.091,-0.091 0.2869,-0.1214 0.5625,-0.1 z m 16.6562,0.8711 1.1758,0 0,1.875 c 0,1.933 -1.4732,2.484 -2.8808,1.0762 l -0.8008,-0.7988 0.666,-1.0762 c 0.3656,-0.5916 1.1929,-1.0762 1.8398,-1.0762 z m 160.2149,1.25 1.6562,0 c 0.9117,0 2.0089,0.5681 2.4375,1.2617 l 0.7793,1.2618 -0.789,2.4882 -0.791,2.4883 -2.4161,0 -2.416,0 0,1.7735 c 0,0.9749 -0.3249,2.6215 -0.7226,3.6582 l -0.7227,1.8847 3.4395,0.4043 3.4394,0.4043 0.5117,1.5625 0.5137,1.5625 -2.291,-0.037 c -1.2604,-0.021 -3.2869,-0.6177 -4.5039,-1.3262 l -2.2129,-1.289 -2.7871,0.7832 -2.7891,0.7832 1.3418,-1.0196 c 0.7377,-0.5605 1.6885,-1.9619 2.1133,-3.1152 l 0.7734,-2.0976 -4.1347,0.6718 -4.1348,0.67 -1.9902,-2.8399 -1.9883,-2.8398 0.7129,-1.1563 0.7148,-1.1543 2.6055,0.6817 2.6074,0.6816 1.627,-1.3516 1.6269,-1.3496 1.793,1.4864 1.791,1.4863 2.1016,-3.209 2.1035,-3.209 z m -182.7891,1.2481 0,0 0,1.875 0,1.875 -1.6347,0 c -0.8997,0 -2.7279,-0.8266 -4.0625,-1.8359 l -2.4278,-1.836 4.0625,-0.039 4.0625,-0.041 z m 145.4473,3.748 0,0 1.0703,0 -0.6836,1.7832 -0.6836,1.7852 1.6992,1.4101 1.6993,1.4102 1.1738,-2.0977 1.1758,-2.0996 4.8632,-0.1582 4.8633,-0.1582 0,1.8692 0,1.8711 -5,1.7168 0,-0.01 c -5.6442,1.9397 -10.7707,2.3965 -16.1992,1.4394 l -3.7012,-0.6523 4.3262,-4.0547 c 2.3788,-2.2291 4.8072,-4.0586 5.3965,-4.0586 z m 54.168,0 1.6347,0 0,1.25 0,1.25 -1.7715,0 c -0.975,0 -2.8031,0.3267 -4.0625,0.7266 l -2.291,0.7285 2.4278,-1.9785 c 1.3346,-1.0874 3.1628,-1.9766 4.0625,-1.9766 z m -214.6153,3.5918 4.0528,0.3926 4.0527,0.3906 0.4141,2.1875 0.414,2.1875 -2.2793,-0.039 c -2.4043,-0.042 -6.6543,-2.7503 -6.6543,-4.2403 l 0,-0.8789 z m 172.1387,8.2832 4.6465,0.3789 c 2.5556,0.2079 6.0729,0.9193 7.8164,1.5821 l 3.1719,1.205 -1.5391,1.8555 c -0.8464,1.0198 -1.8928,1.789 -2.3242,1.709 -3.5095,-0.6487 -5.9684,-1.5221 -6.9727,-2.4766 -0.6531,-0.6207 -2.2462,-1.1289 -3.541,-1.1289 l -2.3535,0 0.5488,-1.5625 0.5469,-1.5625 z m -48.9395,1.875 1.8008,0 0,1.875 0,1.875 -1.666,0 c -0.9167,0 -2.0252,-0.3591 -2.4648,-0.7988 l -0.8008,-0.7988 0.666,-1.0762 c 0.3656,-0.5916 1.4742,-1.0762 2.4648,-1.0762 z m 4.375,2.5 1.3243,0 -0.7735,1.25 c -0.4248,0.6875 -1.0191,1.25 -1.3222,1.25 -0.3033,0 -0.5528,-0.5625 -0.5528,-1.25 0,-0.6875 0.5962,-1.25 1.3242,-1.25 z m 29.9258,0 1.1778,0 c 0.6469,0 1.4846,0.4997 1.8613,1.1094 l 0.6836,1.1074 -1.8613,1.5449 -1.8614,1.545 0,-2.6524 0,-2.6543 z m 33.75,1.25 2.5742,0 2.5743,0 -0.7735,1.25 c -0.4248,0.6875 -1.5816,1.25 -2.5722,1.25 l -1.8028,0 0,-1.25 0,-1.25 z m -28.1582,1.3574 c 0.5153,-0.034 1.7373,0.3651 3.7774,1.1407 l 3.2812,1.248 -0.7734,1.252 c -1.1532,1.8659 -2.4847,1.5334 -5.002,-1.2481 -1.44,-1.5913 -1.9457,-2.3492 -1.2832,-2.3926 z m 24.4082,0.7266 0.834,0.834 0.834,0.832 -1.668,0 -1.666,0 0.834,-0.832 0.832,-0.834 z m 11.0274,0.2949 0.8105,1.3106 0.8106,1.3105 -0.7735,1.25 c -0.9565,1.5476 -2.7502,1.618 -3.6621,0.1426 l -0.6836,-1.1094 1.75,-1.4511 1.7481,-1.4532 z m -48.5274,3.4551 0.834,0.834 0.834,0.832 -1.668,0 -1.666,0 0.834,-0.832 0.832,-0.834 z m -32.5,7.5 0.834,0.834 0.834,0.832 -1.668,0 -1.666,0 0.834,-0.832 0.832,-0.834 z m -29.5078,6.666 1.7402,0 0.7207,1.875 0.7188,1.875 -1.627,0 c -0.8952,0 -2.0026,-0.3736 -2.4609,-0.832 -1.4015,-1.4015 -0.9296,-2.918 0.9082,-2.918 z m -44.8379,0.6817 c 1.6006,0.021 3.0957,0.8274 3.0957,1.9238 l 0,1.1445 -2.4258,0 c -1.3344,0 -2.7367,-0.5036 -3.1171,-1.1191 l -0.6914,-1.1192 1.5546,-0.5703 c 0.5054,-0.1858 1.0505,-0.2667 1.584,-0.2597 z m 84.9707,0.5117 -2.4258,1.9043 c -1.3347,1.0468 -3.2089,1.9023 -4.166,1.9023 l -1.7402,0 0.5137,-1.5625 0.5117,-1.5625 3.6543,-0.3398 3.6523,-0.3418 z m 31.875,0.057 2.6055,0 2.6035,0 -0.4941,1.4844 c -0.9397,2.8193 -4.7149,2.4662 -4.7149,-0.4414 l 0,-1.043 z m -21.875,8.5235 2.5,0.9726 c 1.375,0.535 4.4688,1.0068 6.875,1.0508 2.4063,0.043 5.1277,0.563 6.0469,1.1562 l 1.6719,1.0801 -1.0469,0.9473 c -0.5755,0.5211 -2.4531,1.271 -4.1719,1.666 l -3.125,0.7168 -4.375,-3.7949 -4.375,-3.7949 z m -4.375,12.58 1.25,0.7715 c 0.6875,0.4249 1.25,1.021 1.25,1.3242 0,0.3032 -0.5625,0.5508 -1.25,0.5508 -0.6875,0 -1.25,-0.5942 -1.25,-1.3222 l 0,-1.3243 z m 11.4199,2.6465 1.7911,0 1.789,0 0,1.7735 c 0,0.975 0.3424,2.6625 0.7598,3.75 l 0.7578,1.9765 -1.6953,-0.019 c -0.933,-0.011 -2.4597,-0.5027 -3.3926,-1.0938 l -1.6973,-1.0742 0.8438,-2.6562 0.8437,-2.6563 z m -67.6699,2.5 c 0.6875,0 1.25,0.5625 1.25,1.25 0,0.6875 -0.5625,1.25 -1.25,1.25 -0.6875,0 -1.25,-0.5625 -1.25,-1.25 0,-0.6875 0.5625,-1.25 1.25,-1.25 z m 8.75,5 c 0.6875,0 1.25,0.5625 1.25,1.25 0,0.6875 -0.5625,1.25 -1.25,1.25 -0.6875,0 -1.25,-0.5625 -1.25,-1.25 0,-0.6875 0.5625,-1.25 1.25,-1.25 z m 18.75,0 1.875,0 1.875,0 0,1.1172 c 0,0.614 -0.8437,1.4402 -1.875,1.8359 l -1.875,0.7188 0,-1.8359 0,-1.836 z m 31.875,1.211 -1.875,1.1191 c -1.0312,0.6152 -3.2058,1.5263 -4.834,2.0254 l -2.9609,0.9082 0.5566,-1.6953 0.5567,-1.6934 4.2793,-0.332 4.2773,-0.332 z m 18.125,2.539 c 0.6875,0 1.25,0.5625 1.25,1.25 0,0.6875 -0.5625,1.25 -1.25,1.25 -0.6875,0 -1.25,-0.5625 -1.25,-1.25 0,-0.6875 0.5625,-1.25 1.25,-1.25 z m 5,0 1.25,0 c 0.6875,0 1.25,0.5288 1.25,1.1758 0,0.6468 -0.5625,1.5243 -1.25,1.9492 l -1.25,0.7735 0,-1.9493 0,-1.9492 z m -42.5,2.5 1.5625,0.018 c 3.0617,0.033 7.1875,1.5427 7.1875,2.6289 l 0,1.1035 -4.375,0 -4.375,0 0,-1.875 0,-1.875 z m 47.5,0.834 0.834,0.832 0.834,0.834 -1.668,0 -1.666,0 0.834,-0.834 0.832,-0.832 z m -30.8242,1.582 0.9551,1.545 c 0.5251,0.8499 0.6769,1.9944 0.3379,2.5429 -0.749,1.2117 -3.4899,1.3071 -4.6348,0.1621 -1.3881,-1.388 -0.9456,-2.6052 1.2539,-3.4492 l 2.0879,-0.8008 z m 12.1484,2.584 1.3243,0 -0.7735,1.25 c -0.4248,0.6875 -1.0191,1.25 -1.3222,1.25 -0.3033,0 -0.5528,-0.5625 -0.5528,-1.25 0,-0.6875 0.5962,-1.25 1.3242,-1.25 z m 4.9258,1.25 2.541,0 2.5391,0 0.7539,1.9688 0.7559,1.9668 2.7695,-0.6953 2.7695,-0.6954 0.793,0.793 0.791,0.791 -3.248,1.6856 -3.25,1.6855 -3.9922,0 -3.9942,0 -2.4257,-1.8535 -2.4278,-1.8555 2.8125,-0.791 c 1.5469,-0.4353 2.8125,-1.2873 2.8125,-1.8945 l 0,-1.1055 z m -2.6465,11.25 1.9493,0 1.9472,0 0,1.25 c 0,0.6875 -0.5288,1.25 -1.1758,1.25 -0.6469,0 -1.5243,-0.5625 -1.9492,-1.25 l -0.7715,-1.25 z m -43.6035,5 1.8028,0 c 0.9906,0 2.1711,0.6017 2.625,1.336 l 0.8261,1.3339 1.7481,-0.6699 1.748,-0.6719 1.8692,0.7168 1.8672,0.7168 -0.6915,1.1192 -0.6914,1.1191 -3.9882,-0.098 c -2.1939,-0.054 -4.6934,-0.3837 -5.5528,-0.7305 l -1.5625,-0.6309 0,-1.7695 0,-1.7715 z m 25.1563,5.9883 0,0 0.7558,0.7539 0.7559,0.7539 -2.3965,-0.098 -2.3965,-0.1 1.6407,-0.6563 1.6406,-0.6562 z m 42.6562,27.7676 c -0.5156,0 -2.9844,1.8875 -5.4883,4.1875 l -4.5527,4.1836 0.4297,12.373 c 0.2365,6.80616 0.4487,12.93746 0.4707,13.62496 0.022,0.6875 -0.2976,3.6944 -0.709,6.6817 l -0.748,5.4316 2.33,-0.4453 2.3301,-0.4434 0.6895,-16.8633 0.6894,-16.86126 1.4219,-3.3144 c 0.7815,-1.8238 2.0182,-3.6856 2.7481,-4.1368 1.508,-0.932 1.8153,-4.4299 0.3886,-4.4179 z m 24.9942,9.9941 -1.5098,1.8203 -1.5117,1.8203 0.7734,1.25 0.7735,1.25 1.8691,-0.7168 c 1.0284,-0.3947 2.4363,-1.7763 3.1289,-3.0703 l 1.2598,-2.3535 -2.3926,0 -2.3906,0 z m -112.1075,1.25 1.8008,0 0,1.1172 c 0,0.614 -0.7879,1.4193 -1.7519,1.7891 l -1.752,0.6718 -0.7148,-0.7128 c -1.0943,-1.0941 0.4004,-2.8653 2.4179,-2.8653 z m 173.0625,15.84376 -8.4433,8.0156 c -4.6435,4.4086 -8.8013,8.8594 -9.2403,9.8906 -0.4389,1.0313 -5.3595,5.25 -10.9355,9.375 -5.576,4.125 -10.1398,7.9955 -10.1406,8.5996 -7e-4,0.6041 1.9668,3.2779 4.373,5.9414 2.4063,2.6634 4.375,5.4506 4.375,6.1934 l 0,1.3496 1.4492,-0.4824 c 1.4044,-0.4681 13.2936,-18.9623 18.709,-29.1016 1.4688,-2.75 4.6352,-7.9753 7.0371,-11.6133 l 4.3672,-6.6152 -0.7754,-0.7754 -0.7754,-0.7773 z m -188.9082,0.4043 0,0 0.7715,1.25 0.7735,1.25 -1.0118,-0.125 c -0.5561,-0.068 -2.4179,-0.5745 -4.1367,-1.125 l -3.125,-1.0019 3.3653,-0.125 3.3632,-0.125 z m 10.1465,1.1054 1.25,0.7715 c 0.6875,0.4249 1.25,1.021 1.25,1.3242 0,0.3032 -0.5625,0.5508 -1.25,0.5508 -0.6875,0 -1.25,-0.5962 -1.25,-1.3242 l 0,-1.3223 z m 9.9356,4.2207 5.0097,0.9161 c 2.7555,0.5041 5.8584,1.6204 6.8946,2.4804 l 1.8828,1.5625 -0.6836,1.1094 -0.6856,1.1074 -3.9882,-0.019 c -4.8308,-0.023 -6.5175,-1.0222 -7.6036,-4.5059 l -0.8261,-2.6504 z m 32.6738,1.8672 0.6953,0.6953 0.6973,0.6973 -0.8242,1.334 c -1.038,1.6792 -2.7934,1.7139 -3.8067,0.074 l -0.7793,-1.2598 2.0078,-0.7695 2.0098,-0.7715 z m -55.1094,2.8086 1.875,0 1.875,0 0,1.25 0,1.25 -1.875,0 -1.875,0 0,-1.25 0,-1.25 z m 28.75,10 1.8028,0 c 0.9906,0 2.124,0.5241 2.5195,1.1641 l 0.7187,1.164 -0.957,0.543 c -1.3699,0.7761 -4.084,-0.37 -4.084,-1.7246 l 0,-1.1465 z m -1.6836,10.1211 2.7696,0.7246 2.7675,0.7227 -0.4414,1.3261 c -0.703,2.1092 -2.6992,2.2756 -5.2129,0.4376 l -2.3261,-1.6993 1.2207,-0.7558 1.2226,-0.7559 z m -17.6465,27.461 2.8418,0.7441 2.8418,0.7422 -0.4609,1.4043 -0.4629,1.4023 -2.5957,0.3848 -2.5976,0.3828 -0.8829,-1.4297 -0.8847,-1.4297 1.0996,-1.1015 1.1015,-1.0996 z m 22.0508,3.4804 -0.4336,2.2813 -0.4316,2.2812 -3.5371,0.4063 -3.5371,0.4062 0.4336,-2.2812 0.4316,-2.2813 3.5371,-0.4062 3.5371,-0.4063 z m -13.9707,1.0215 0.834,0.832 0.834,0.834 -1.668,0 -1.666,0 0.834,-0.834 0.832,-0.832 z m 9.7598,6.4082 2.3086,1.3399 2.3066,1.3417 -3.6875,0.037 -3.6875,0.037 1.3809,-1.3789 1.3789,-1.377 z m -18.5684,7.7578 c 2.0853,0 7.5586,2.8613 7.5586,3.9512 0,1.276 -0.8656,1.183 -5.3125,-0.5742 -3.318,-1.3111 -4.6916,-3.377 -2.2461,-3.377 z m 20.6836,4.834 -1.25,1.2012 c -0.6875,0.661 -3.1431,1.6012 -5.459,2.0898 l -4.2109,0.8887 0.5566,-1.6934 0.5567,-1.6953 4.9043,-0.3965 4.9023,-0.3945 z m 13.125,4.75 0.834,0.832 0.834,0.834 -1.668,0 -1.666,0 0.834,-0.834 0.832,-0.832 z m -35,0.416 c 0.6875,0 1.25,0.5625 1.25,1.25 0,0.6875 -0.5625,1.25 -1.25,1.25 -0.6875,0 -1.25,-0.5625 -1.25,-1.25 0,-0.6875 0.5625,-1.25 1.25,-1.25 z m 11.3985,2.5 2.4257,0 2.4258,0 0,1.25 0,1.25 -3.1972,0 -3.1993,0 0.7715,-1.25 0.7735,-1.25 z m 4.2363,7.5606 c 1.0295,-0.053 1.9943,0.3853 2.5781,1.33 l 0.8574,1.3887 -1.7226,1.0918 c -2.0665,1.3089 -4.1294,1.4293 -5.252,0.3067 l -0.8222,-0.8223 1.3906,-1.6777 c 0.8456,-1.0189 1.9412,-1.5638 2.9707,-1.6172 z m 145.7851,11.1894 -1.6464,0.019 c -0.9058,0.011 -2.2225,0.4324 -2.9258,0.9376 -1.3915,0.9992 -5.5977,7.2918 -5.5977,8.375 0,0.3679 0.7832,0.6679 1.7383,0.6679 2.512,0 6.6628,-3.919 7.6133,-7.1875 l 0.8183,-2.8125 z m -151.2089,0.043 0,0 c 2.9345,-0.062 6.036,1.2674 6.039,2.5879 0,1.5365 -1.3368,1.3343 -5,-0.7597 l -3.125,-1.7871 2.086,-0.043 z m -38.961,6.207 c 0.6875,0 1.25,0.5625 1.25,1.25 0,0.6875 -0.5625,1.25 -1.25,1.25 -0.6875,0 -1.25,-0.5625 -1.25,-1.25 0,-0.6875 0.5625,-1.25 1.25,-1.25 z m 67.4219,8.75 1.6133,0 1.6152,0 1.4805,2.3731 1.4824,2.3711 -2.293,0.5996 -2.2929,0.5996 -1.5703,-0.9707 -1.5704,-0.9707 0.7676,-2 0.7676,-2.002 z m -22.3184,13.666 1.1719,0.7246 1.1738,0.7247 -1.5253,2.4433 -1.5235,2.4414 -2.1992,0 -2.2012,0 0,-1.5742 0,-1.5742 2.5528,-1.5938 2.5507,-1.5918 z m -28.8535,24.668 0.7559,0.7539 c 0.4154,0.4154 0.5178,1.4676 0.2285,2.3359 l -0.5254,1.5782 -0.9785,-1.584 -0.9805,-1.584 0.75,-0.75 0.75,-0.75 z m 113.1992,37.916 c -0.9906,0 -2.1493,0.5625 -2.5742,1.25 l -0.7715,1.25 2.5743,0 2.5722,0 0,-1.25 0,-1.25 -1.8008,0 z m -138.75,7.5 c 0.3032,0 0.5508,0.5625 0.5508,1.25 0,0.6875 -0.5942,1.25 -1.3222,1.25 l -1.3243,0 0.7715,-1.25 c 0.4249,-0.6875 1.0211,-1.25 1.3242,-1.25 z"
       id="path10254" />
  </g>
</svg>
