<?xml version="1.0" encoding="UTF-8" standalone="no"?>
<!-- Created with Inkscape (http://www.inkscape.org/) -->

<svg
   xmlns:dc="http://purl.org/dc/elements/1.1/"
   xmlns:cc="http://creativecommons.org/ns#"
   xmlns:rdf="http://www.w3.org/1999/02/22-rdf-syntax-ns#"
   xmlns:svg="http://www.w3.org/2000/svg"
   xmlns="http://www.w3.org/2000/svg"
   xmlns:sodipodi="http://sodipodi.sourceforge.net/DTD/sodipodi-0.dtd"
   xmlns:inkscape="http://www.inkscape.org/namespaces/inkscape"
   width="210mm"
   height="297mm"
   viewBox="0 0 744.09448819 1052.3622047"
   id="svg4143"
   version="1.1"
   inkscape:version="0.91 r13725"
   sodipodi:docname="Z.svg">
  <defs
     id="defs4145" />
  <sodipodi:namedview
     id="base"
     pagecolor="#ffffff"
     bordercolor="#666666"
     borderopacity="1.0"
     inkscape:pageopacity="0.0"
     inkscape:pageshadow="2"
     inkscape:zoom="0.35"
     inkscape:cx="-145"
     inkscape:cy="520"
     inkscape:document-units="px"
     inkscape:current-layer="layer1"
     showgrid="false"
     inkscape:window-width="1920"
     inkscape:window-height="1055"
     inkscape:window-x="0"
     inkscape:window-y="25"
     inkscape:window-maximized="1" />
  <metadata
     id="metadata4148">
    <rdf:RDF>
      <cc:Work
         rdf:about="">
        <dc:format>image/svg+xml</dc:format>
        <dc:type
           rdf:resource="http://purl.org/dc/dcmitype/StillImage" />
        <dc:title></dc:title>
      </cc:Work>
    </rdf:RDF>
  </metadata>
  <g
     inkscape:label="Layer 1"
     inkscape:groupmode="layer"
     id="layer1">
    <path
       inkscape:connector-curvature="0"
       style="fill:#000000"
       d="m 245.47304,236.38525 -6.25,1.291 c -3.4375,0.7104 -7.9375,1.6854 -10,2.166 -2.0625,0.4807 -7.2656,0.8532 -11.5625,0.8282 l -7.8125,-0.045 0,1.0879 c 0,0.5984 0.7032,1.1059 1.5625,1.1289 0.8594,0.023 5.5,0.5642 10.3125,1.2032 4.8125,0.6392 19.4375,2.0345 32.5,3.0996 13.0625,1.065 29.6563,2.5064 36.875,3.2031 14.4203,1.3919 56.3133,4.4301 85.625,6.2109 29.1164,1.7689 50.3719,3.7088 53.4473,4.877 l 2.8027,1.0644 17.5,0.2696 c 9.625,0.148 23.125,0.688 30,1.1992 6.875,0.5113 16.1563,0.9857 20.625,1.0547 l 8.125,0.125 4.1778,-1.3067 4.1777,-1.3086 -1.1543,-1.1543 -1.1543,-1.1543 -13.0234,-0.6269 c -7.1626,-0.3453 -16.2845,-0.8277 -20.2715,-1.0723 l -7.2481,-0.4453 -2.1269,-1.8633 -2.127,-1.8613 -9.375,-0.7812 c -5.1562,-0.4297 -11.3437,-1.0246 -13.75,-1.3223 -2.4062,-0.2978 -14.6868,-0.8546 -27.291,-1.2363 l -22.916,-0.6934 -1.3125,-0.8105 c -0.7215,-0.446 -5.0349,-0.971 -9.584,-1.1661 -4.5493,-0.1951 -12.4902,-0.6721 -17.6465,-1.0605 -5.1562,-0.3883 -16.6875,-0.9655 -25.625,-1.2832 -8.9375,-0.3178 -19.3437,-1.1249 -23.125,-1.793 -3.7812,-0.6681 -16.4375,-1.5799 -28.125,-2.0254 l -21.25,-0.8086 -12.5,-2.4941 -12.5,-2.4941 0,0 z m -72.2949,12.2656 0.7949,2.0762 0.7969,2.0762 -1.2109,0 -1.211,0 0,1.8144 c 0,0.9981 1.6254,6.6506 3.6114,12.5606 l 3.6113,10.7461 2.207,2.4394 2.209,2.4395 16.3691,0.047 c 15.2582,0.043 37.3777,1.3292 55.2266,3.211 l 7.6094,0.8027 4.6308,-2.1972 4.6309,-2.1973 1.5098,1.8945 1.5097,1.8946 9.375,0.7695 c 5.1563,0.424 14.4375,0.998 20.625,1.2754 6.1875,0.2772 21.0938,1.4311 33.125,2.5644 l 21.875,2.0606 16.25,-0.293 16.25,-0.293 2.5,1.3321 2.5,1.334 13.0117,0.8203 c 7.1554,0.4514 13.411,1.0693 13.9024,1.373 0.4913,0.3037 8.8452,0.6249 18.5644,0.7149 l 17.6719,0.164 0.6856,1.1113 0.6875,1.1114 7.7382,0.088 7.7383,0.088 2.5,1.1035 c 1.375,0.6069 4.1447,0.9892 6.1543,0.8496 l 3.6543,-0.2539 0.461,-1.4082 0.4628,-1.4082 -2.2402,-0.9414 c -1.2322,-0.5176 -9.5547,-1.447 -18.4922,-2.0664 -8.9375,-0.6193 -17.9375,-1.3574 -20,-1.6407 -7.5376,-1.035 -73.917,-7.9321 -90.625,-9.416 -17.5046,-1.5546 -32.5528,-3.6485 -37.3867,-5.2012 l -4.2637,-1.3691 -32.6113,-0.5117 c -38.8636,-0.6098 -34.5846,-0.406 -50.6191,-2.4082 -7.1538,-0.8933 -13.3413,-1.587 -13.75,-1.541 -0.4088,0.045 -1.9869,0.017 -3.5059,-0.064 l -2.7617,-0.1484 -3.2578,-3.4375 c -1.7915,-1.8906 -4.0635,-4.9582 -5.0508,-6.8164 l -1.7949,-3.377 -5.6875,-3.914 -5.6875,-3.9122 -7.1231,-1.0918 c -3.918,-0.6008 -8.4837,-1.4887 -10.1465,-1.9726 l -3.0234,-0.8809 z m 43.7246,77.9239 c -0.7723,-0.011 -1.2321,0.017 -1.2988,0.088 -0.2668,0.2838 0,3.3282 0.5898,6.7657 0.5914,3.4375 1.6883,10.4687 2.4356,15.625 l 1.3574,9.375 -0.07,22.5 c -0.039,12.375 -0.3809,27 -0.7598,32.5 l -0.6894,10 1.2011,1.7636 1.2012,1.7618 12.9277,0.6875 c 14.8369,0.7898 26.0145,0.7393 63.5508,-0.2891 l 26.875,-0.7363 5.502,-1.1485 5.5,-1.1465 1.125,-2.0097 1.123,-2.0078 1.8125,0 1.8125,0 0,1.875 0,1.875 2.1875,0.1816 c 1.2032,0.1 4.1563,0.2964 6.5625,0.4375 2.4063,0.141 10.2813,0.6049 17.5,1.0313 19.1264,1.1298 35.7549,1.2868 44.9043,0.4238 l 8.0293,-0.7578 1.2832,-1.2832 1.2832,-1.2832 3.4121,0 3.4102,0 2.0312,-2.0313 2.0293,-2.0312 3.0586,2.875 3.0586,2.873 0,2.211 0,2.2109 -2.7773,1.9453 -2.7774,1.9473 -2.8476,0 -2.8477,0 0,3.0957 0,3.0957 -3.2383,2.123 c -1.7815,1.1672 -3.748,3.29 -4.371,4.7168 -0.6231,1.4266 -1.6976,3.5782 -2.3868,4.7813 -0.6891,1.2031 -1.7336,3.1719 -2.3203,4.375 l -1.0664,2.1875 -7.0625,0.375 -7.0625,0.375 0.7559,4.7343 0.7578,4.7344 -5.7207,6.7656 c -5.9859,7.0801 -31.0185,41.3731 -35.2227,48.252 -5.6101,9.1793 -14.8626,22.5211 -18.039,26.0137 -1.8758,2.0625 -5.546,7.4062 -8.1563,11.875 -7.7379,13.24712 -23.4128,36.31072 -28.1172,41.37112 -2.4062,2.5883 -7.0432,8.259 -10.3047,12.6035 -3.2614,4.3445 -10.4211,13.5254 -15.9121,20.4004 -12.0427,15.0777 -20.0332,26.2674 -20.0332,28.0566 0,0.7252 -0.478,1.3184 -1.0625,1.3184 -0.5844,0 -5.302,5.4844 -10.4844,12.1875 -5.1823,6.7031 -14.6109,18.0937 -20.9531,25.3125 -6.3424,7.2187 -12.4329,14.5312 -13.5332,16.25 -2.4361,3.8052 -6.8057,9.475 -19.2656,25 l -9.5293,11.875 -8.9043,7.9531 -8.9043,7.9531 0.3809,2.625 0.3808,2.625 4.375,0.9082 4.375,0.9063 24.375,-0.6934 c 30.286,-0.8602 31.3276,-0.9285 34.3008,-2.2637 l 2.4258,-1.0898 0.4902,1.4766 0.4922,1.4746 2.3965,0 2.3945,0 -0.3125,-1.5625 -0.3125,-1.5625 2.5,0.375 c 1.375,0.2065 3.2031,0.4415 4.0625,0.5215 l 1.5625,0.1445 0,1.582 0,1.5821 36.7012,0.1113 36.7012,0.1113 1.3711,-1.6543 1.373,-1.6523 6.3848,0.2929 6.3867,0.293 1.4785,1.1641 1.4785,1.166 18.75,0.8242 c 10.3125,0.453 23.8125,1.404 30,2.1152 l 11.25,1.293 35.9375,0.4258 35.9375,0.4258 0,-1.1231 c 0,-1.9998 3.1379,-1.1901 5.336,1.377 l 2.1406,2.5 2.6348,0 c 1.4496,0 4.4096,0.7955 6.5761,1.7675 2.1663,0.9718 6.0407,2.4199 8.6094,3.2168 2.5685,0.797 4.9909,1.9701 5.3848,2.6075 l 0.7168,1.1582 3.4824,0 3.4824,0 2.1992,-2.4317 2.1992,-2.4297 -0.6972,-16.0078 c -0.3843,-8.8039 -1.3584,-23.037 -2.1641,-31.6308 l -1.4648,-15.625 0.6777,-19.1016 0.6777,-19.1035 -3.1425,-2.0586 -3.1426,-2.0586 -12.0645,2.7012 c -11.5552,2.587 -34.8709,6.0519 -41.4414,6.1582 -1.7188,0.028 -15.8831,0.4845 -31.4765,1.0156 l -28.3516,0.9648 -15.3984,-1.6796 c -17.3295,-1.8907 -26.397,-2.0488 -35.1153,-0.6133 l -5.9687,0.9824 -2.4688,-2.2344 -2.4707,-2.2343 0,-3.5137 0,-3.5117 2.6446,-1.4141 2.6425,-1.4141 5.5586,0.8321 5.5606,0.834 1.7968,-1.4903 1.7969,-1.4922 0,-3.5351 0,-3.5332 2.1875,-1.3848 2.1875,-1.3848 -1.3847,-0.5976 c -0.7619,-0.3286 -2.4486,-1.3759 -3.7481,-2.3262 l -2.3633,-1.7265 0.6817,-0.6817 0.6797,-0.6797 3.3808,1.7539 3.3789,1.7539 0,-3.6757 0,-3.6758 2.3594,-2.3594 c 1.2973,-1.2973 3.2143,-2.8442 4.2598,-3.4375 l 1.9023,-1.0781 6.5274,-11.25 c 3.5906,-6.1875 7.8124,-13.6305 9.3808,-16.541 1.5685,-2.9105 3.7445,-6.1861 4.836,-7.2774 1.0912,-1.0914 3.4847,-4.615 5.3203,-7.832 1.8355,-3.217 4.1394,-6.7962 5.1191,-7.9531 l 1.7813,-2.1036 -0.8067,-3.6777 -0.8086,-3.6777 3.1856,0 3.1836,0 4.7304,-4.8731 4.7305,-4.875 2.7754,-6.4511 c 1.5265,-3.54842 2.7754,-7.26252 2.7754,-8.25402 0,-0.9915 0.8544,-2.5127 1.9004,-3.3808 2.6642,-2.2111 13.9668,-19.3002 15.0468,-22.75 0.4912,-1.5691 2.0824,-4.3651 3.5352,-6.2129 6.2891,-7.9987 11.1396,-14.9689 13.1191,-18.8516 1.1703,-2.2952 3.297,-5.8298 4.7246,-7.8554 1.4278,-2.0256 3.0267,-5.0898 3.5547,-6.8086 0.5281,-1.7187 2.3071,-4.7361 3.9532,-6.7051 l 2.9941,-3.5801 -0.748,-2.3574 -0.75,-2.3574 1.9863,0 1.9863,0 1.4649,-3.4375 c 0.8057,-1.8906 2.1468,-4.2812 2.9804,-5.3125 1.8549,-2.2946 7.9724,-13.0383 13.168,-23.125 2.1247,-4.125 4.5662,-8.3437 5.4238,-9.375 0.8578,-1.0312 3.4156,-5.25 5.6856,-9.375 2.2699,-4.125 6.2716,-11.1562 8.8925,-15.625 2.6209,-4.4687 6.0992,-10.7743 7.7286,-14.0117 1.6293,-3.2375 3.7299,-6.8126 4.6699,-7.9454 1.946,-2.3446 3.0907,-4.2173 7.291,-11.9355 1.6407,-3.0151 4.3126,-7.0723 5.9375,-9.0156 l 2.9551,-3.5332 0,-2.211 0,-2.2109 2.5,-2.2617 c 1.375,-1.2443 2.5,-2.7756 2.5,-3.4024 0,-0.6269 1.4062,-2.983 3.125,-5.2363 1.7187,-2.2534 3.125,-4.4992 3.125,-4.9902 0,-0.4911 1.6651,-2.9682 3.7011,-5.5059 l 3.7012,-4.6152 -0.3691,-3.4395 c -0.2038,-1.8917 -0.6822,-3.7506 -1.0625,-4.1308 -1.843,-1.8432 -37.1127,-1.3208 -95.9707,1.4199 -7.9063,0.3683 -27.3125,0.7136 -43.125,0.7676 l -28.75,0.1 -31.25,-1.4473 c -17.1875,-0.7958 -43.625,-2.0158 -58.75,-2.7109 -26.5118,-1.2183 -37.5634,-2.0586 -67.8184,-5.1524 -5.8027,-0.5935 -10.9369,-0.9756 -13.2539,-1.0097 z m 51.8516,27.2148 0,0 0.7558,0.7539 0.7559,0.7539 -2.3965,-0.098 -2.3965,-0.1 1.6407,-0.6563 1.6406,-0.6562 z m 215.2422,1.5117 c 0.7376,0 2.8755,1.4699 4.7519,3.2676 l 3.4121,3.2695 -0.5898,1.5391 -0.5918,1.5391 5.6855,2.1699 c 3.1266,1.194 5.6838,2.547 5.6836,3.0058 l 0,0.834 -5.6308,0.1192 -5.6309,0.1211 -1.3965,-1.6836 -1.3965,-1.6817 -2.0976,0 c -1.1533,0 -2.7627,0.665 -3.5762,1.4785 l -1.4785,1.4805 -0.8477,-0.8477 -0.8457,-0.8457 2.8926,-2.5078 c 1.5904,-1.3792 3.4557,-2.5078 4.1445,-2.5078 l 1.252,0 -2.1758,-2.4043 -2.1758,-2.4043 -4.4629,0.7246 -4.4628,0.7246 0.9472,-1.5312 0.9453,-1.5293 1.6563,0.6348 1.6582,0.6367 1.4941,-1.8008 c 0.822,-0.9904 2.0985,-1.8008 2.836,-1.8008 z m -130.3985,3.75 1.8028,0 c 0.9906,0 2.1474,0.5625 2.5722,1.25 l 0.7735,1.25 -2.5743,0 -2.5742,0 0,-1.25 0,-1.25 z m -90,1.1543 5.3125,0.252 c 2.9219,0.1391 5.875,0.5826 6.5625,0.9843 0.6875,0.4016 2.8863,0.7344 4.8848,0.7344 l 3.6348,0 0.5683,1.6699 0.5684,1.67 -7.0156,-0.877 -7.0157,-0.875 0,2.6426 0,0.01 0,2.6445 -1.209,0 -1.2109,0 0.7129,-1.8594 0.7129,-1.8574 -3.252,-1.2363 -3.2539,-1.2364 0,-1.332 0,-1.3301 0,0 z m -16.3008,1.2305 2.5254,1.3515 c 1.3893,0.7435 2.5254,1.8952 2.5254,2.5586 l 0,1.2051 -2.3457,0 -2.3476,0 -1.4629,-1.7637 -1.4649,-1.7636 1.2852,-0.793 1.2851,-0.7949 z m 88.8008,0.9492 0.834,0.832 0.834,0.834 -1.668,0 -1.666,0 0.834,-0.834 0.832,-0.832 z m 70,0 0.834,0.832 0.834,0.834 -1.668,0 -1.666,0 0.834,-0.834 0.832,-0.832 z m -12.3515,0.416 -0.7735,1.25 c -0.929,1.5031 -0.7991,1.5031 -3.125,0 l -1.875,-1.2109 2.8867,-0.02 2.8868,-0.019 z m -44.5235,5 1.875,0 0,1.7735 c 0,0.975 0.3424,2.6625 0.7598,3.75 l 0.7578,1.9765 -1.4141,0 -1.414,0 -1.2188,-3.2051 c -1.5802,-4.1564 -1.5609,-4.2949 0.6543,-4.2949 z m -4.375,2.084 0.834,0.834 0.834,0.832 -1.668,0 -1.666,0 0.834,-0.832 0.832,-0.834 z m 50.1563,0.1563 0.7558,0.7539 0.7559,0.7558 -2.3965,-0.1 -2.3965,-0.098 1.6407,-0.6563 1.6406,-0.6562 z m -78.9063,0.2597 c 0.6875,0 1.25,0.5625 1.25,1.25 0,0.6875 -0.5625,1.25 -1.25,1.25 -0.6875,0 -1.25,-0.5625 -1.25,-1.25 0,-0.6875 0.5625,-1.25 1.25,-1.25 z m 42.6211,0.7149 2.0528,1.2949 c 1.1293,0.7124 2.2747,1.9573 2.5449,2.7676 l 0.4902,1.4726 -1.8262,0 c -1.0044,0 -2.5365,-0.8565 -3.4062,-1.9043 l -1.582,-1.9062 0.8632,-0.8614 0.8633,-0.8632 z m -121.3711,0.1191 0.834,0.834 0.834,0.832 -1.668,0 -1.666,0 0.834,-0.832 0.832,-0.834 z m 171.6739,0.416 2.8418,0 2.8437,0 1.9453,2.7793 c 1.0703,1.528 1.9453,3.6037 1.9453,4.6133 l 0,1.8359 -1.6523,-2.2597 -1.6524,-2.2617 -3.9023,2.0175 -3.9004,2.0176 -0.8437,-1.3652 -0.8438,-1.3653 1.6094,-3.0058 1.6094,-3.0059 z m 67.0761,0.834 0.834,0.834 0.834,0.832 -1.668,0 -1.666,0 0.834,-0.832 0.832,-0.834 z m -196,0.416 1,0 0,2.5 0,2.5 -2.5,0 -2.5,0 0,-1 c 0,-1.2937 2.7063,-4 4,-4 z m 213.5,2.084 0.834,0.834 0.834,0.832 -1.668,0 -1.666,0 0.834,-0.832 0.832,-0.834 z m -120,0.209 0,1.9785 0,1.9785 -1.9785,0 -1.9785,0 0.4941,-1.4844 c 0.2721,-0.8164 1.1622,-1.7064 1.9786,-1.9785 l 1.4843,-0.4941 z m 112.0879,0.293 c 0.4485,0.031 1.133,0.269 2.1778,0.6699 l 1.9707,0.7558 -0.6915,1.1192 c -0.3803,0.6155 -1.5015,1.1191 -2.4921,1.1191 l -1.8028,0 0,-1.875 c 0,-1.3143 0.09,-1.8403 0.8379,-1.789 z m -224.5879,0.748 0.7559,0.7559 c 0.4153,0.4154 0.5179,1.4656 0.2285,2.3339 l -0.5254,1.5782 -0.9805,-1.584 -0.9785,-1.584 0.75,-0.75 0.75,-0.75 z m 202.5,0 0.834,0.834 0.834,0.832 -1.668,0 -1.666,0 0.834,-0.832 0.832,-0.834 z m -7.5,0.416 c 0.6875,0 1.25,0.5625 1.25,1.25 0,0.6875 -0.5625,1.25 -1.25,1.25 -0.6875,0 -1.25,-0.5625 -1.25,-1.25 0,-0.6875 0.5625,-1.25 1.25,-1.25 z m -208.75,3.334 0.834,0.834 0.834,0.832 -0.834,0.834 -0.834,0.834 0,-1.668 0,-1.666 z m 46.25,1.25 0.834,0.834 0.834,0.832 -0.834,0.834 -0.834,0.834 0,-1.668 0,-1.666 z m 187.3809,0.1934 0,0 1.3301,0.8223 1.33,0.8222 -0.7187,1.1622 c -0.9549,1.5425 -3.9745,1.485 -4.9512,-0.096 l -0.7793,-1.2598 1.8946,-0.7266 1.8945,-0.7265 z m 6.4844,0.9433 2.4257,1.5156 c 1.3344,0.8332 3.2779,1.5157 4.3184,1.5157 l 1.8906,0 0,1.25 c 0,0.6875 -0.1406,1.1911 -0.3125,1.1211 -0.1718,-0.07 -2.1683,-0.5681 -4.4375,-1.1055 -2.2694,-0.5375 -4.4731,-1.3226 -4.8965,-1.7461 l -0.7695,-0.7695 0.8906,-0.8907 0.8907,-0.8906 z m -45.1153,0.5313 1.25,0 1.25,0 0,1.875 0,1.875 -1.25,0 -1.25,0 0,-1.875 0,-1.875 z m 26.25,0 c 0.6875,0 1.25,0.5625 1.25,1.25 0,0.6875 -0.5625,1.25 -1.25,1.25 -0.6875,0 -1.25,-0.5625 -1.25,-1.25 0,-0.6875 0.5625,-1.25 1.25,-1.25 z m -125,2.082 0.7364,0.7363 c 0.4045,0.4045 0.4915,1.7627 0.1933,3.0196 l -0.541,2.2871 -0.9746,-2.2422 -0.9727,-2.2422 0.7793,-0.7793 0.7793,-0.7793 z m 14.9121,0.418 3.17,0 3.1679,0 0,1.0957 c 0,0.6033 -0.8038,1.7641 -1.7871,2.5801 l -1.7871,1.4843 -1.3809,-2.58 -1.3828,-2.5801 z m 158.8379,3.5761 2.7149,0.3985 2.7148,0.4004 0.5156,1.5625 0.5137,1.5625 -2.3965,0 c -2.5943,0 -4.0625,-1.0119 -4.0625,-2.7969 l 0,-1.127 z m -174.6679,2.6426 1.7695,1.4688 1.7695,1.4687 -0.373,2.5957 -0.3731,2.5957 -2.0801,0.3965 -2.08,0.3965 -0.836,-2.6309 -0.834,-2.6308 1.5176,-1.8301 1.5196,-1.8301 z m -67.8321,1.2813 c 0.6875,0 1.25,0.5625 1.25,1.25 0,0.6875 -0.5625,1.25 -1.25,1.25 -0.6875,0 -1.25,-0.5625 -1.25,-1.25 0,-0.6875 0.5625,-1.25 1.25,-1.25 z m 183.75,2.6445 c 1.0313,-0.032 3.2813,0.748 5,1.7305 3.9792,2.2745 1.8125,2.3057 -3.125,0.045 l -3.75,-1.7188 1.875,-0.057 z m -151.6523,0.4805 9.2637,0.3906 9.2636,0.3906 1.25,1.2793 1.25,1.2793 -2.5,-0.3633 -2.5,-0.3652 -2.7207,1.502 -2.7226,1.5019 -2.17,-0.832 -2.1718,-0.834 0.9043,1.4629 0.9043,1.4629 -1.17,0 c -0.644,0 -1.8726,-0.8438 -2.7285,-1.875 -0.8558,-1.0313 -2.3764,-1.875 -3.3808,-1.875 l -1.8262,0 0.5273,-1.5625 0.5274,-1.5625 z m 209.3086,4.1133 0.7558,0.7558 0.7559,0.7559 -2.3965,-0.1 -2.3965,-0.1 1.6407,-0.6563 1.6406,-0.6562 z m -36.2578,0.2617 1.25,0 -0.7735,1.25 c -0.4248,0.6875 -1.334,1.25 -2.0215,1.25 l -1.25,0 0.7715,-1.25 c 0.4249,-0.6875 1.336,-1.25 2.0235,-1.25 z m 14.0839,0.2695 c 1.1599,0.056 2.41,0.3735 3.1231,0.8359 l 1.7285,1.1211 -1.7285,2.3379 -1.7305,2.336 -2.8867,-0.4219 -2.8867,-0.4219 0.3867,-2.7168 0.3867,-2.7148 2.5,-0.3203 c 0.3438,-0.044 0.7208,-0.054 1.1074,-0.035 z m 17.0176,2.2305 c 0.6875,0 1.25,0.5625 1.25,1.25 0,0.6875 -0.5625,1.25 -1.25,1.25 -0.6875,0 -1.25,-0.5625 -1.25,-1.25 0,-0.6875 0.5625,-1.25 1.25,-1.25 z m -222.5,4.8515 1.25,0.7735 c 0.6875,0.4249 1.25,1.0191 1.25,1.3222 0,0.3032 -0.5625,0.5528 -1.25,0.5528 -0.6875,0 -1.25,-0.5962 -1.25,-1.3242 l 0,-1.3243 z m 12.3574,1.5938 2.5723,0.6738 c 1.4144,0.3699 2.5703,1.1682 2.5703,1.7754 0,1.6862 -2.0176,1.3166 -3.6679,-0.6719 l -1.4747,-1.7773 z m 182.6426,3.5547 c 0.6875,0 1.25,0.5625 1.25,1.25 0,0.6875 -0.5625,1.25 -1.25,1.25 -0.6875,0 -1.25,-0.5625 -1.25,-1.25 0,-0.6875 0.5625,-1.25 1.25,-1.25 z m 17.5,0.832 0.834,0.834 0.834,0.834 -0.834,0.832 -0.834,0.834 0,-1.666 0,-1.668 z m -36.25,0.418 1.875,0 1.875,0 0,1.25 0,1.25 -1.875,0 -1.875,0 0,-1.25 0,-1.25 z m -8.5488,2.5 c 1.3812,0 1.3243,0.9015 -0.2441,3.832 -0.7116,1.3299 -1.8242,2.418 -2.4727,2.418 l -1.1797,0 1.4238,-3.125 c 0.783,-1.7187 1.8955,-3.125 2.4727,-3.125 z m -8.8398,7.2793 0,0 1.9882,1.6523 c 2.1022,1.7446 2.4287,1.8228 8.8379,2.1231 l 4.0625,0.1914 0,1.875 0,1.875 -7.1875,-0.012 -7.1875,-0.012 -1.4433,-3.1152 -1.4453,-3.1152 1.1875,-0.7325 1.1875,-0.7343 z m 19.8886,17.3027 0.834,0.834 0.834,0.834 -1.668,0 -1.666,0 0.834,-0.834 0.832,-0.834 z m -10,7.7344 2.1875,0.4199 2.1875,0.4219 -0.2461,1.2324 c -0.1355,0.6781 -1.1198,1.4145 -2.1875,1.6367 l -1.9414,0.4043 0,-2.0566 0,-2.0586 z m 9.1192,10.2637 1.0859,0.6699 1.0859,0.6718 -0.7187,1.1641 -0.7188,1.1641 -2.7382,-0.041 -2.7403,-0.039 2.3731,-1.7949 2.3711,-1.7949 z m 13.3808,0.7519 0.834,0.834 0.834,0.834 -1.668,0 -1.666,0 0.834,-0.834 0.832,-0.834 z m -44.166,4.168 1.3965,0 c 0.7682,0 4.2377,0.609 7.709,1.3535 l 6.3105,1.3535 0,1.1465 0,1.1465 -2.1875,-0.057 c -2.444,-0.061 -11.3402,-3.055 -12.4883,-4.2031 l -0.7402,-0.7402 z m 21.8457,2.5 2.5293,0 -0.5195,1.5625 c -0.5944,1.785 -3.7696,2.6874 -5.0274,1.4297 l -0.8437,-0.8418 0.666,-1.0762 c 0.3656,-0.5916 1.8036,-1.0742 3.1953,-1.0742 z m -25.5273,23.125 2.9863,0.3047 c 1.643,0.1678 4.2931,0.6092 5.8887,0.9824 l 2.9004,0.6797 -0.4786,1.4375 c -0.2637,0.791 -1.062,1.6334 -1.7753,1.8711 l -1.2969,0.4316 -1.5821,-1.9043 -1.58,-1.9043 -3.1446,0.7891 -3.1445,0.789 0.6133,-1.7382 0.6133,-1.7383 z m -2.1192,14.0937 1.8457,1.5313 1.8438,1.5332 -0.6836,1.1074 c -1.0482,1.696 -3.8053,1.3207 -5.5254,-0.752 l -1.5449,-1.8593 2.0332,-0.7793 2.0312,-0.7813 z m -32.5332,8.6133 0.834,0.834 0.834,0.834 -1.668,0 -1.666,0 0.834,-0.834 0.832,-0.834 z m 29.1543,3.0449 0,0 2.2636,1.2129 2.2657,1.2129 5.2988,-0.3398 5.2988,-0.3379 0.416,2.0136 0.418,2.0157 -10.6816,-0.1407 -10.6836,-0.1386 0,-2.043 0,-2.041 2.7031,-0.707 2.6992,-0.7071 z m 18.3457,1.1231 1.875,0 1.875,0 0,1.25 0,1.25 -1.875,0 -1.875,0 0,-1.25 0,-1.25 z m -6.25,8.75 2.6055,0 2.6035,0 -0.4941,1.4843 c -0.9397,2.8193 -4.7149,2.4644 -4.7149,-0.4433 l 0,-1.041 z m -10.0761,0.5996 c 0.05,0.01 0.076,0.03 0.076,0.068 0,0.3039 -0.9683,1.6835 -2.1523,3.0664 -1.1841,1.3828 -2.8716,2.5157 -3.75,2.5157 -2.7149,0 -1.7575,-1.7766 2.1601,-4.0059 1.8009,-1.0247 3.3156,-1.6963 3.6661,-1.6445 z m 2.5761,2.9765 2.7149,0.3985 2.7148,0.4004 0.5156,1.5625 0.5137,1.5625 -3.2285,0 -3.2305,0 0,-1.9629 0,-1.961 z m -17.5,1.4239 c 0.6875,0 1.25,0.5625 1.25,1.25 0,0.6875 -0.5625,1.25 -1.25,1.25 -0.6875,0 -1.25,-0.5625 -1.25,-1.25 0,-0.6875 0.5625,-1.25 1.25,-1.25 z m -13.75,1.25 c 0.6875,0 1.25,0.5625 1.25,1.25 0,0.6875 -0.5625,1.25 -1.25,1.25 -0.6875,0 -1.25,-0.5625 -1.25,-1.25 0,-0.6875 0.5625,-1.25 1.25,-1.25 z m 12.5,7.082 0.834,0.834 0.834,0.834 -1.668,0 -1.666,0 0.834,-0.834 0.832,-0.834 z m -42.5,9.0078 4.0528,0.3926 4.0527,0.3926 0.4141,2.1875 0.414,2.1875 -2.9043,-0.1 c -1.5973,-0.054 -3.6074,-0.3818 -4.4668,-0.7286 l -1.5625,-0.6308 0,-1.8496 0,-1.8516 z m 34.8809,7.4375 1.4433,0.8926 1.4434,0.8926 -1.6953,1.0742 c -2.2347,1.4159 -3.2578,1.3799 -4.2012,-0.1465 l -0.7793,-1.2578 1.8946,-0.7285 1.8945,-0.7266 z m 7.6191,1.4727 3.1992,0 3.1993,0 -0.7735,1.25 -0.7715,1.25 -2.4257,0 -2.4278,0 0,-1.25 0,-1.25 z m -20.8496,3.7343 0.7012,0.6993 0.7012,0.7011 -1.8379,1.1641 c -2.3349,1.477 -5.8619,1.5328 -6.7442,0.1055 l -0.6797,-1.0996 3.9297,-0.7852 3.9297,-0.7852 z m 22.3828,3.793 1.1289,0.6973 1.1289,0.6972 -0.7187,1.1641 c -0.3956,0.64 -1.599,1.1641 -2.6738,1.1641 l -1.9532,0 1.545,-1.8614 1.5429,-1.8613 z m -35.834,4.9727 c 0.3032,0 0.5508,0.5625 0.5508,1.25 0,0.6875 -0.5942,1.25002 -1.3222,1.25002 l -1.3243,0 0.7715,-1.25002 c 0.4249,-0.6875 1.0211,-1.25 1.3242,-1.25 z m 15.5508,0.75 1.4805,1.4785 c 0.8134,0.81362 1.1873,1.76992 0.832,2.12502 -0.8342,0.8343 -2.3125,-0.644 -2.3125,-2.31252 l 0,-1.291 z m -31.25,3.83202 0.834,0.834 0.834,0.834 -0.834,0.832 -0.834,0.834 0,-1.666 0,-1.668 z m 28.75,7.918 2.4278,0 2.4257,0 0.7715,1.25 0.7735,1.25 -3.1993,0 -3.1992,0 0,-1.25 0,-1.25 z m -32.4258,2.5 c 0.647,0 1.1758,0.5625 1.1758,1.25 l 0,1.25 -1.9472,0 -1.9493,0 0.7715,-1.25 c 0.4249,-0.6875 1.3023,-1.25 1.9492,-1.25 z m 44.9258,0 1.875,0 1.875,0 0,1.25 0,1.25 -1.875,0 -1.875,0 0,-1.25 0,-1.25 z m -14.1015,11.1933 2.0507,0.7871 2.0508,0.7871 0,1.7403 c 0,2.0663 -0.6978,2.0572 -5.539,-0.078 l -3.6661,-1.6172 2.5508,-0.8106 2.5528,-0.8086 z m -37.1485,3.3887 0.834,0.834 0.834,0.834 -1.668,0 -1.666,0 0.834,-0.834 0.832,-0.834 z m -18.75,5.418 1.25,0 c 0.6875,0 1.25,0.5288 1.25,1.1758 0,0.6468 -0.5625,1.5243 -1.25,1.9492 l -1.25,0.7715 0,-1.9493 0,-1.9472 z m 11.25,3.75 1.8028,0 c 0.9906,0 2.1719,0.5988 2.625,1.332 1.0542,1.7058 0.4876,2.0774 -2.2403,1.4707 -1.2031,-0.2677 -2.1875,-1.0075 -2.1875,-1.6445 l 0,-1.1582 z m 41.25,1.25 2.709,0 2.709,0 -0.8691,0.8691 c -0.4783,0.4783 -1.6978,0.9903 -2.709,1.1387 l -1.8399,0.2695 0,-1.1387 0,-1.1386 z m -41.1699,12.5 1.8359,0 1.834,0 0,1.875 0,1.875 -1.1152,0 c -0.614,0 -1.4401,-0.8437 -1.8359,-1.875 l -0.7188,-1.875 z m -45.0137,2.6679 c 1.0634,0.1352 2.4336,1.2982 2.4336,2.4043 0,0.647 -0.5288,1.1778 -1.1758,1.1778 -1.4748,0 -3.0516,-2.4386 -2.1562,-3.334 0.2238,-0.2238 0.544,-0.2931 0.8984,-0.2481 z m 41.1836,1.9141 0.834,0.834 0.834,0.834 -0.834,0.832 -0.834,0.834 0,-1.666 0,-1.668 z m 5.9024,0.4824 0,0 0.7988,0.8008 c 0.4397,0.4396 0.7988,1.2668 0.7988,1.8398 0,1.4096 -2.1769,1.3226 -3.0703,-0.123 l -0.7187,-1.1641 1.0957,-0.6777 1.0957,-0.6778 z m 14.0976,0.6856 1.5,1.5 1.5,1.5 -3,0 -3,0 1.5,-1.5 1.5,-1.5 z m -8.75,4.25 c 0.6875,0 1.25,0.5625 1.25,1.25 0,0.6875 -0.5625,1.25 -1.25,1.25 -0.6875,0 -1.25,-0.5625 -1.25,-1.25 0,-0.6875 0.5625,-1.25 1.25,-1.25 z m 94.3477,14.1035 c -0.7476,0.048 -3.0211,1.2129 -5.4824,2.8418 l -5.1153,3.3848 0,1.7089 0,1.709 4.8614,0 4.8613,0 0.8437,-4.5019 c 0.4647,-2.4765 0.5789,-4.7688 0.2539,-5.0938 -0.041,-0.041 -0.1158,-0.056 -0.2226,-0.049 z m -133.0977,6.7285 0.834,0.834 0.834,0.834 -0.834,0.832 -0.834,0.834 0,-1.666 0,-1.668 z m -13.6914,9.9434 1.916,2.7363 1.918,2.7383 2.4297,0 2.4277,0 0,1.875 0,1.875 1.25,0 1.25,0 0,1.875 0,1.875 -2.291,0 c -2.7697,0 -3.959,-1.0532 -3.959,-3.5039 l 0,-1.836 -3.2636,-3.0254 -3.2637,-3.0234 0.793,-0.793 0.7929,-0.7929 z m -37.5586,0.4746 1.875,0 1.875,0 0,1.25 0,1.25 -1.875,0 -1.875,0 0,-1.25 0,-1.25 z m 51.084,8.498 1.334,0.8242 c 0.7332,0.4532 1.332,1.6343 1.332,2.625 l 0,1.8028 -1.289,0 c -0.709,0 -1.6222,-0.8688 -2.0293,-1.9297 l -0.7403,-1.9297 0.6973,-0.6953 0.6953,-0.6973 z m 5.166,1.3281 2.7149,0.3985 2.7148,0.4004 0.5156,1.5625 0.5137,1.5625 -3.2285,0 -3.2305,0 0,-1.9629 0,-1.961 z m -38.75,5.1739 2.5918,0 2.5918,0 -0.4043,2.084 c -0.7302,3.7647 -4.7793,3.4105 -4.7793,-0.418 l 0,-1.666 z m 26.1387,3.4277 2.8691,0.7695 c 1.5778,0.4226 3.711,0.7933 4.7422,0.8243 1.0313,0.031 2.9683,0.8831 4.3028,1.8925 l 2.4257,1.836 -2.4257,1.834 c -1.3345,1.0093 -3.5528,1.8437 -4.9278,1.8437 l -2.5,0.012 -2.2422,-4.5039 -2.2441,-4.5058 0,0 z m -14.8887,2.4043 0.834,0.834 0.834,0.834 -0.834,0.832 -0.834,0.834 0,-1.666 0,-1.668 z m -19.1347,1.2813 1.4433,0.8906 c 0.7937,0.4905 1.4414,1.1401 1.4414,1.4433 0,1.0427 -1.1036,0.5503 -1.9941,-0.8906 l -0.8906,-1.4433 z m 40.4589,0.3867 c -0.728,0 -1.3242,0.5625 -1.3242,1.25 0,0.6875 0.2495,1.25 0.5528,1.25 0.3031,0 0.8974,-0.5625 1.3222,-1.25 l 0.7735,-1.25 -1.3243,0 z m -27.5742,1.25 1.9492,0 1.9493,0 -0.7735,1.25 c -0.4248,0.6875 -1.3004,1.25 -1.9472,1.25 -0.647,0 -1.1778,-0.5625 -1.1778,-1.25 l 0,-1.25 z m 42.7031,2.5 2.3907,1.6738 2.3906,1.6738 -0.8242,0.8262 c -1.6119,1.6119 -7.9102,0.3026 -7.9102,-1.6445 0,-0.5567 0.8913,-1.3544 1.9785,-1.7715 l 1.9746,-0.7578 z m -28.9531,2.5 c 0.6875,0 1.25,0.5625 1.25,1.25 0,0.6875 -0.5625,1.25 -1.25,1.25 -0.6875,0 -1.25,-0.5625 -1.25,-1.25 0,-0.6875 0.5625,-1.25 1.25,-1.25 z m 2.3496,4.9922 0.6192,1.0039 0.6211,1.0019 -2.3614,1.4746 -2.3613,1.4746 -0.7187,-1.1601 -0.7168,-1.1621 2.459,-1.3164 2.4589,-1.3164 z m -57.2011,1.2578 2.4257,0 2.4258,0 0,1.2051 c 0,0.6633 -1.0905,1.7904 -2.4238,2.5039 l -2.4238,1.2968 -0.7735,-1.2539 -0.7754,-1.2519 0.7715,-1.25 0.7735,-1.25 z m 14.7793,1.25 c 0.6468,0 1.5224,0.5625 1.9472,1.25 l 0.7735,1.25 -1.9493,0 -1.9492,0 0,-1.25 c 0,-0.6875 0.5308,-1.25 1.1778,-1.25 z m 4.3242,9.7851 1.625,2.2207 c 0.8932,1.2217 1.623,2.6765 1.623,3.2325 0,1.2746 -0.8929,1.177 -5.9179,-0.6465 l -4.043,-1.4668 -0.059,-1.25 -0.057,-1.25 3.414,-0.4199 3.4141,-0.42 z m 36.998,1.0469 0.834,0.834 0.834,0.834 -0.834,0.832 -0.834,0.834 0,-1.666 0,-1.668 z m -23.75,0.209 1.4844,0.4941 c 0.8169,0.2724 1.7084,1.1642 1.9805,1.9805 l 0.4941,1.4844 -1.2207,0 c -0.6713,0 -1.5628,-0.8917 -1.9805,-1.9805 l -0.7578,-1.9785 z m 101.25,2.709 1.875,0 1.875,0 0,1.25 0,1.25 -1.875,0 -1.875,0 0,-1.25 0,-1.25 z m -90.5957,1.3086 4.6738,0.7597 4.6719,0.7578 0,1.8457 0,1.8457 1.7539,-0.6738 1.752,-0.6719 0.7363,0.7364 0.7363,0.7363 -1.3906,1.6777 -1.3926,1.6778 -2.8691,0 -2.8672,0 -0.5137,-1.541 -0.5136,-1.5411 -3.2774,0.2715 -3.2793,0.2715 -0.8359,-1.3516 -0.834,-1.3496 1.7246,-1.7246 1.7246,-1.7265 z m 5.7481,11.6757 0.623,1.0079 0.6231,1.0078 -1.6368,0.016 c -0.8999,0.01 -2.8374,0.3402 -4.3066,0.7344 l -2.6719,0.7168 -0.7558,-1.2227 -0.7559,-1.2246 4.4395,-0.5176 4.4414,-0.5176 z m 173.5976,4.5157 c 0.6875,0 1.25,0.5625 1.25,1.25 0,0.6875 -0.5625,1.25 -1.25,1.25 -0.6875,0 -1.25,-0.5625 -1.25,-1.25 0,-0.6875 0.5625,-1.25 1.25,-1.25 z m -216.6699,5.5761 c 0.5098,0.1097 0.5286,0.7382 -0.1523,1.8399 -0.4531,0.7333 -1.775,1.315 -2.9375,1.293 l -2.1153,-0.039 2.4102,-1.8223 c 1.2843,-0.9716 2.2851,-1.3812 2.7949,-1.2715 z m 83.8652,0.6739 3.3809,0 3.3828,0 -0.4941,1.4843 c -0.2721,0.8164 -1.0777,1.6784 -1.791,1.9161 l -1.2969,0.4316 -1.5918,-1.916 -1.5899,-1.916 z m -38.3027,3.7734 3.0547,3.2949 c 1.6797,1.8125 3.0527,3.4949 3.0527,3.7383 0,0.4644 -0.933,0.3998 -6.5625,-0.4531 l -3.4375,-0.5195 0,-2.2832 0,-2.2833 1.9473,-0.748 1.9453,-0.7461 z m -46.4648,34.9746 c -0.647,0 -1.1778,0.5625 -1.1778,1.25 l 0,1.25 1.9492,0 1.9493,0 -0.7735,-1.25 c -0.4248,-0.6875 -1.3004,-1.25 -1.9472,-1.25 z"
       id="path10256" />
  </g>
</svg>
